<svg xmlns="http://www.w3.org/2000/svg" fill="#fff" viewBox="0 0 119 47" width="119" height="47">
    <path
        d="M9.066 6.741c2.2 0 4.056.786 5.596 2.327 1.51 1.572 2.296 3.553 2.296 5.942 0 2.39-.755 4.37-2.295 5.943-1.51 1.572-3.396 2.326-5.597 2.326-2.012 0-3.616-.723-4.842-2.2v1.729H.105V.956h4.119v7.955C5.45 7.496 7.085 6.74 9.066 6.74Zm-3.71 11.54c.88.785 1.918 1.194 3.113 1.194 1.194 0 2.2-.377 3.05-1.163.848-.786 1.288-1.855 1.288-3.27 0-1.384-.44-2.484-1.289-3.27s-1.886-1.164-3.08-1.164c-1.196 0-2.233.378-3.114 1.164-.88.786-1.289 1.855-1.289 3.238 0 1.384.44 2.484 1.32 3.27ZM24.378 7.213h-4.182v15.595h4.182V7.213ZM38.495 18.312l2.578 2.735c-1.446 1.51-3.113 2.264-5.03 2.264-2.107 0-3.742-.598-4.937-1.76-1.163-1.164-1.76-2.768-1.76-4.78v-5.376l1.069-2.327-1.07-1.855V3.03h4.182v13.74c0 1.73.88 2.578 2.641 2.578.85.032 1.635-.314 2.327-1.037ZM48.965 23.342c-2.704 0-4.873-1.006-6.508-2.955l2.767-2.201c1.446 1.195 2.766 1.792 4.056 1.792.754 0 1.352-.157 1.729-.44.408-.314.597-.66.597-1.1 0-.346-.157-.63-.471-.88-.315-.252-.66-.441-.975-.504-.315-.094-.85-.251-1.572-.471a41.44 41.44 0 0 0-1.918-.566 8.17 8.17 0 0 1-1.666-.755c-.63-.346-1.101-.818-1.384-1.383-.314-.566-.44-1.29-.44-2.107 0-1.572.534-2.798 1.666-3.71 1.1-.912 2.484-1.352 4.182-1.352 2.641 0 4.653.943 6.131 2.893l-2.735 2.232c-.944-1.132-2.075-1.73-3.333-1.73-.66 0-1.163.158-1.51.44-.345.284-.534.661-.534 1.07 0 .346.157.629.472.88.314.252.629.44.943.503.314.095.849.22 1.572.44.629.19 1.1.315 1.446.41.346.093.786.25 1.384.502.566.252 1.006.535 1.289.818.283.314.534.691.786 1.194.251.504.346 1.07.346 1.73 0 1.572-.566 2.83-1.73 3.804-1.1.943-2.64 1.446-4.59 1.446ZM70.062 12.37c-1.132-1.164-2.452-1.761-3.899-1.761-1.194 0-2.2.409-3.05 1.226-.817.818-1.257 1.918-1.257 3.301 0 1.29.44 2.327 1.289 3.082.849.786 1.918 1.163 3.113 1.163 1.509 0 2.83-.566 3.961-1.698l2.61 2.453c-1.792 2.075-4.025 3.112-6.697 3.112-2.453 0-4.465-.786-6.037-2.326-1.572-1.541-2.358-3.522-2.358-5.911 0-2.39.786-4.37 2.39-5.974 1.603-1.572 3.615-2.358 6.068-2.358 2.64 0 4.81 1.006 6.508 3.05l-2.641 2.64ZM86.883 7.213h4.119v15.595h-4.119v-1.73c-1.226 1.447-2.83 2.201-4.842 2.201-2.2 0-4.056-.786-5.596-2.326-1.51-1.572-2.295-3.522-2.295-5.943 0-2.39.754-4.37 2.295-5.942C77.954 7.496 79.84 6.74 82.04 6.74c2.013 0 3.616.723 4.842 2.201v-1.73Zm-7.326 11.099c.85.786 1.855 1.163 3.05 1.163 1.195 0 2.233-.409 3.113-1.195.88-.786 1.32-1.886 1.32-3.27 0-1.383-.44-2.484-1.289-3.27-.88-.786-1.918-1.163-3.112-1.163-1.195 0-2.233.377-3.082 1.163-.849.786-1.289 1.855-1.289 3.27.032 1.447.44 2.516 1.29 3.302ZM99.491.988h-4.182V22.84h4.182V.988ZM118.639 14.445c0 .66-.063 1.32-.157 1.949l-11.665.031c.283 1.07.817 1.918 1.635 2.61.786.66 1.792 1.006 2.987 1.006 1.383 0 2.829-.566 4.37-1.698l2.232 2.421c-1.729 1.698-3.993 2.547-6.759 2.547-2.547 0-4.591-.786-6.163-2.327-1.572-1.572-2.358-3.553-2.358-6.005 0-2.42.755-4.402 2.327-5.91 1.54-1.51 3.521-2.296 5.942-2.296 2.295 0 4.182.692 5.565 2.075 1.321 1.383 2.044 3.27 2.044 5.597Zm-7.64-4.402c-1.007 0-1.855.283-2.61.817-.755.566-1.258 1.32-1.509 2.296h7.923c-.189-1.007-.66-1.761-1.321-2.327-.723-.535-1.54-.786-2.483-.786Z" />
    <path
        d="M38.747 7.213h-9.37v4.182h9.37V7.213ZM57.737 37.523c0-2.893 2.17-5 4.936-5 2.17 0 3.993 1.321 4.59 3.396h-.974c-.503-1.51-1.918-2.515-3.616-2.515-2.264 0-4.024 1.73-4.024 4.119 0 2.39 1.73 4.118 3.993 4.118 1.73 0 3.112-1.037 3.616-2.515h.974c-.597 2.075-2.452 3.396-4.59 3.396-2.736-.032-4.905-2.138-4.905-5ZM78.551 32.712v9.59h-.943v-2.295c-.755 1.477-2.2 2.483-4.024 2.483-2.704 0-4.56-2.106-4.56-4.999 0-2.892 1.887-4.999 4.528-4.999 1.824 0 3.27 1.006 4.025 2.484V32.65l.974.063Zm-.912 4.81c0-2.357-1.697-4.118-3.898-4.118s-3.742 1.73-3.742 4.119c0 2.358 1.54 4.087 3.742 4.087 2.232 0 3.898-1.698 3.898-4.087ZM91.002 37.522c0 2.893-1.855 5-4.527 5-1.824 0-3.27-1.007-4.025-2.484v6.665h-.943v-13.96h.943v2.327c.755-1.51 2.201-2.484 4.025-2.484 2.64-.094 4.527 2.044 4.527 4.936Zm-.912 0c0-2.358-1.509-4.118-3.741-4.118-2.201 0-3.899 1.729-3.899 4.118 0 2.39 1.698 4.088 3.899 4.088 2.2 0 3.741-1.73 3.741-4.088ZM94.366 32.712h-.943v9.621h.943v-9.62ZM103.987 41.956c-.471.251-1.446.566-2.452.566-2.138 0-3.364-1.415-3.364-3.867V33.56h-1.918v-.88h1.918V30.26h.943v2.42h4.685v.881h-4.685v5.062c0 1.887.817 2.987 2.578 2.987.723 0 1.446-.189 2.138-.472l.157.818ZM114.74 32.712v9.59h-.943v-2.295c-.755 1.477-2.201 2.483-4.025 2.483-2.704 0-4.559-2.106-4.559-4.999 0-2.892 1.887-4.999 4.528-4.999 1.824 0 3.27 1.006 4.024 2.484V32.65l.975.063Zm-.88 4.81c0-2.357-1.698-4.118-3.899-4.118s-3.741 1.73-3.741 4.119c0 2.358 1.54 4.087 3.741 4.087s3.899-1.698 3.899-4.087ZM118.639 28.845h-.943V42.27h.943V28.845Z" />
    <path d="M38.747 7.213h-4.182v4.182h4.182V7.213Z" />
</svg>