<svg xmlns="http://www.w3.org/2000/svg" fill="#fff" viewBox="0 0 137 30" width="137" height="30">
    <path d="M24.954 2.095h-4.34v25.81h4.34V2.095Z" />
    <path fill-rule="evenodd"
        d="M0 2.095c8.988 0 16.274 5.778 16.274 12.905 0 7.056-7.141 12.789-16.005 12.903L0 27.905v-4.49c6.591 0 11.934-3.767 11.934-8.415S6.591 6.584 0 6.584V2.095Z"
        clip-rule="evenodd" />
    <path
        d="m41.268 10.564 3.946 10.292 3.967-10.292h4.617L46.905 27.47h-3.382L36.65 10.564h4.617Zm20.502 9.484c-.13-.568-.397-1.023-.802-1.367-.404-.344-.896-.516-1.474-.516-.607 0-1.102.164-1.485.493-.383.33-.625.793-.726 1.39h4.487Zm-4.595 2.355c0 1.749.795 2.623 2.384 2.623.853 0 1.496-.359 1.93-1.076h3.794c-.767 2.63-2.681 3.946-5.745 3.946-.94 0-1.8-.146-2.58-.437a5.727 5.727 0 0 1-2.005-1.245 5.554 5.554 0 0 1-1.29-1.928c-.304-.747-.455-1.584-.455-2.511 0-.957.144-1.82.433-2.59.29-.77.701-1.424 1.236-1.962a5.45 5.45 0 0 1 1.94-1.244c.759-.292 1.615-.437 2.569-.437.94 0 1.785.145 2.536.437a5.119 5.119 0 0 1 1.908 1.267c.52.553.918 1.23 1.192 2.029.275.8.412 1.7.412 2.702v.426h-8.26Zm10.291-6.435h3.924v1.457c.535-.673 1.077-1.125 1.626-1.357.55-.231 1.192-.347 1.93-.347.78 0 1.448.13 2.005.392.556.262 1.03.632 1.42 1.11.318.389.534.822.65 1.3.116.479.173 1.025.173 1.637v7.31h-3.923v-5.807c0-.568-.04-1.028-.12-1.38-.08-.35-.22-.63-.422-.84a1.482 1.482 0 0 0-.586-.381 2.114 2.114 0 0 0-.693-.112c-.665 0-1.175.205-1.529.616-.354.411-.53.998-.53 1.76v6.144h-3.925V15.968Zm18.573 3.385v8.117h-3.924v-8.117h-1.3v-3.385h1.3v-3.453h3.924v3.453h2.233v3.385H86.04Zm7.43-3.385v6.48c0 1.42.665 2.13 1.995 2.13s1.994-.71 1.994-2.13v-6.48h3.924v7.264c0 1.555-.495 2.72-1.485 3.498-.99.777-2.468 1.166-4.433 1.166-1.966 0-3.444-.389-4.433-1.166-.99-.777-1.486-1.943-1.486-3.498v-7.264h3.924Zm10.379 0h3.924v1.883c.419-.688.932-1.214 1.539-1.58.607-.367 1.315-.55 2.124-.55h.336c.123 0 .264.015.423.045v3.879a3.626 3.626 0 0 0-1.691-.404c-.91 0-1.593.28-2.049.841-.455.56-.682 1.379-.682 2.455v4.933h-3.924V15.968Zm18.161 4.08c-.13-.568-.398-1.023-.802-1.367-.405-.344-.896-.516-1.475-.516-.607 0-1.102.164-1.485.493-.383.33-.625.793-.726 1.39h4.488Zm-4.596 2.355c0 1.749.795 2.623 2.384 2.623.853 0 1.496-.359 1.93-1.076h3.794c-.766 2.63-2.681 3.946-5.745 3.946-.94 0-1.799-.146-2.58-.437a5.725 5.725 0 0 1-2.005-1.245 5.54 5.54 0 0 1-1.29-1.928c-.304-.747-.455-1.584-.455-2.511 0-.957.144-1.82.433-2.59a5.464 5.464 0 0 1 1.236-1.962 5.45 5.45 0 0 1 1.94-1.244c.759-.292 1.615-.437 2.569-.437.939 0 1.785.145 2.536.437a5.113 5.113 0 0 1 1.908 1.267c.52.553.918 1.23 1.192 2.029.275.8.412 1.7.412 2.702v.426h-8.259Zm17.662-3.476c-.722-.388-1.431-.583-2.124-.583-.362 0-.654.075-.878.225a.694.694 0 0 0-.336.605c0 .134.018.243.054.325.036.082.116.16.238.236.123.074.304.142.542.201.239.06.553.135.943.224 1.084.225 1.894.625 2.428 1.2.535.576.802 1.312.802 2.209 0 .672-.13 1.278-.39 1.816a3.83 3.83 0 0 1-1.084 1.356c-.462.367-1.019.65-1.669.852a7.215 7.215 0 0 1-2.146.303c-1.503 0-2.984-.44-4.444-1.323l1.431-2.87c1.098.777 2.139 1.166 3.121 1.166.362 0 .658-.082.889-.247.231-.164.347-.373.347-.627 0-.15-.018-.273-.054-.37a.595.595 0 0 0-.228-.27 1.774 1.774 0 0 0-.509-.224 10.706 10.706 0 0 0-.878-.213c-1.214-.254-2.063-.631-2.547-1.132-.485-.5-.727-1.192-.727-2.074 0-.643.116-1.222.347-1.738.231-.515.564-.953.997-1.311a4.627 4.627 0 0 1 1.572-.83 6.77 6.77 0 0 1 2.049-.291c1.228 0 2.42.246 3.577.74l-1.323 2.645Z" />
</svg>