<svg xmlns="http://www.w3.org/2000/svg" fill="#fff" viewBox="0 0 131 30" width="131" height="30">
    <path
        d="M3.328 9.902c.026.371.026.743 0 1.114-.027.41-.027.82 0 1.23l.038.547c.028.397.034.795.02 1.192-.017.385.003.77.06 1.152l.038.501c.025.339.045.737.058 1.192.012.455.02.84.02 1.152l-.039.585c-.026.366-.032.77-.02 1.212.014.376.008.753-.019 1.129v.663c0 .418.117.628.351.628.104 0 .26-.08.47-.235l.585-.547c.234-.208.527-.462.878-.761.35-.3.656-.55.915-.754l.547-.43c.26-.207.567-.462.918-.762.35-.3.643-.554.878-.761l.585-.502c.235-.207.52-.455.86-.741.338-.286.65-.534.936-.743l.742-.508a.936.936 0 0 0 .39-.82.953.953 0 0 0-.273-.703l-.351-.352a18.369 18.369 0 0 1-.84-.8 5.446 5.446 0 0 1-.755-.925l-.276-.273a19.6 19.6 0 0 1-.8-.86c-.299-.338-.554-.63-.761-.897l-.392-.39c-.208-.262-.462-.561-.76-.9-.3-.339-.554-.638-.762-.898l-.312-.39c-.21-.208-.47-.489-.781-.84-.258-.296-.531-.576-.82-.84l-.43-.391a12.532 12.532 0 0 1-.82-.82 16.023 16.023 0 0 1-.78-.899l-.313-.39a1.004 1.004 0 0 1-.27-.742 1.196 1.196 0 0 1 .392-.937l.15-.077a1.339 1.339 0 0 1 1.716 0l.125.155c.234.208.507.475.82.8.313.325.586.618.82.878l.351.39c.208.235.469.521.782.86.312.337.573.637.78.899l.313.312c.217.33.465.636.742.917.313.326.586.593.82.801l.39.39c.209.235.476.522.802.86.326.338.592.624.8.86l.35.43c.209.26.47.553.782.877.313.325.573.617.781.878l.307.355c.209.26.462.559.762.898.299.34.553.64.76.898l.274.313c.163.23.258.5.274.781a1.235 1.235 0 0 1-.39.898l-.274.196c-.284.278-.583.539-.898.781a20.15 20.15 0 0 0-.897.743l-.473.388c-.261.208-.567.455-.918.742-.351.286-.659.533-.918.741l-.465.398a56.693 56.693 0 0 0-1.794 1.523l-.43.391c-.26.235-.565.489-.917.762-.352.272-.645.513-.878.722l-.547.47c-.26.207-.567.461-.918.76-.351.3-.63.554-.839.762l-.469.43c-.234.209-.52.469-.859.782a8.92 8.92 0 0 1-.898.741l-.507.351a.772.772 0 0 1-.502.196c-.288 0-.43-.21-.43-.627l-.039-.196a42.9 42.9 0 0 0-.019-1.151c-.012-.455-.019-.852-.02-1.192v-3.44c0-.312 0-.688.02-1.128.02-.44.019-.846.019-1.21v-.509c0-.312-.006-.696-.019-1.153-.014-.454-.02-.851-.02-1.19v-.547c0-.098-.006-.196-.019-.293a2.26 2.26 0 0 1-.029-.336c0-.286.007-.586.02-.899.014-.312.033-.586.058-.82v-.474c0-.156.007-.338.02-.546a9.47 9.47 0 0 0 0-1.225 8.842 8.842 0 0 1-.02-.567L.828 9.55a.969.969 0 0 1 .294-.801 1.137 1.137 0 0 1 .839-.332h.234a1.17 1.17 0 0 1 .82.39c.204.224.316.518.313.82v.274ZM26.952 21.035c.03.101.043.206.04.312.01.289-.096.57-.293.781-.21.217-.463.388-.742.502a6.62 6.62 0 0 1-.976.332c-.351.092-.683.19-.996.293l-.234.079-1.114.376-1.112.37-.312.118c-.287.104-.65.228-1.094.376-.442.148-.82.267-1.128.37l-.273.08a38.181 38.181 0 0 1-2.258.663l-.313.078a.853.853 0 0 1-.273.04c-.39 0-.586-.182-.586-.547.013-.107.04-.213.079-.314l.117-.312c.077-.286.188-.65.332-1.094.116-.371.253-.736.41-1.092l.117-.392c.104-.312.221-.684.35-1.113.126-.43.252-.8.353-1.113l.155-.547c.105-.312.222-.688.352-1.129.125-.443.25-.806.352-1.094l.155-.501.377-1.13c.143-.442.267-.806.376-1.093l.196-.508a9.6 9.6 0 0 0 .376-1.113c.116-.43.227-.8.33-1.113l.135-.486c.104-.314.22-.69.351-1.129.13-.439.25-.808.351-1.094l.153-.555c.078-.314.188-.684.332-1.114.145-.43.279-.8.41-1.113l.156-.502c.125-.312.26-.683.391-1.113.111-.378.241-.749.39-1.113l.312-.815c.126-.339.286-.502.47-.502.183 0 .337.143.467.429l.08.157a35.12 35.12 0 0 1 1.055 2.1l.115.273c.181.342.343.694.484 1.055.168.418.317.783.45 1.094l.156.352c.104.286.24.644.41 1.074.17.43.32.788.449 1.074l.165.348c.126.286.293.639.488 1.054.196.415.377.769.527 1.055l.196.351c.125.287.298.638.501 1.055.203.416.376.769.508 1.055l.155.351c.131.288.294.64.488 1.055.195.415.371.767.528 1.055l.235.39c.156.285.327.637.513 1.055.185.418.341.783.467 1.094l.157.43c.13.286.28.644.449 1.074.141.367.304.726.488 1.075l.194.428c.156.288.333.639.527 1.055l.489 1.055.155.351c.13.313.293.678.488 1.094.195.417.37.768.528 1.055l.194.39c.08.158.12.332.118.508a1.054 1.054 0 0 1-.664 1.016l-.195.078a1.128 1.128 0 0 1-1.134-.078 1.254 1.254 0 0 1-.47-.508l-.195-.391a29.54 29.54 0 0 0-.502-1.035 16.814 16.814 0 0 1-.501-1.074l-.196-.501c-.13-.286-.287-.644-.469-1.074-.182-.43-.338-.788-.468-1.075l-.273-.508a13.573 13.573 0 0 1-.508-1.054 82.236 82.236 0 0 0-.469-1.055l-.234-.546c-.13-.288-.306-.64-.527-1.055-.22-.416-.397-.768-.528-1.055l-.273-.502c-.156-.286-.338-.63-.547-1.035a18.365 18.365 0 0 1-.502-1.035l-.313-.664a89.99 89.99 0 0 1-.937-2.147l-.234-.628a89.99 89.99 0 0 1-.937-2.148l-.273-.585c-.157-.261-.3-.392-.43-.392-.209 0-.352.157-.43.47l-.117.429c-.104.312-.228.69-.37 1.128-.117.372-.254.737-.41 1.094l-.196.47c-.16.351-.296.714-.407 1.084-.13.444-.248.82-.351 1.13l-.196.546a6.163 6.163 0 0 0-.331 1.129c-.076.382-.174.759-.294 1.129l-.155.502c-.105.312-.21.689-.313 1.129-.082.375-.2.74-.352 1.093l-.194.508a2.304 2.304 0 0 0-.059.196.609.609 0 0 0-.02.156c0 .311.156.468.469.469.12-.01.238-.035.351-.078l.118-.04c.312-.103.688-.215 1.129-.331.44-.117.82-.216 1.128-.294l.235-.078c.312-.077.688-.181 1.128-.312a8.608 8.608 0 0 0 1.094-.39l.428-.157c.126-.046.258-.073.392-.078.52 0 .845.26.975.78l.09.297ZM46.049 15.84c-.382.06-.767.098-1.152.117-.457.026-.841.052-1.153.078h-.234c-.395.057-.792.09-1.19.098-.457.013-.84.032-1.153.059h-.195c-.339 0-.736.006-1.192.02-.455.013-.839.02-1.15.018h-.235c-.392.053-.586.17-.586.352 0 .156.09.312.273.469l.235.234c.233.209.52.469.859.782.34.313.627.573.863.78l.273.234c.235.236.521.509.859.82.337.314.61.587.82.821l.273.235c.234.235.52.508.86.82.338.312.637.572.897.781l.351.313c.235.208.522.469.86.781.34.313.612.586.82.82l.273.313c.253.306.534.587.84.84.351.299.644.553.878.762l.429.39a1.074 1.074 0 0 1 .39.82.892.892 0 0 1-.352.743l-.155.155a1.158 1.158 0 0 1-.859.313c-.391 0-.691-.103-.9-.313l-.193-.194a4.16 4.16 0 0 1-.938-.781 14.445 14.445 0 0 0-.82-.82l-.468-.392c-.261-.209-.554-.468-.878-.78a61.207 61.207 0 0 1-.839-.82l-.469-.431c-.26-.208-.553-.469-.878-.782a54.214 54.214 0 0 1-.839-.82l-.501-.468a54.814 54.814 0 0 1-.86-.781 54.387 54.387 0 0 0-.858-.782l-.502-.469c-.26-.208-.56-.468-.898-.781-.34-.313-.611-.586-.82-.82l-.43-.43a10.401 10.401 0 0 0-.898-.78 18.042 18.042 0 0 1-.898-.744l-.546-.467c-.339-.261-.508-.548-.508-.86 0-.208.17-.462.508-.762.338-.3.69-.606 1.053-.917l.196-.235c.235-.208.508-.481.82-.82.312-.339.568-.625.769-.86l.273-.312c.208-.235.475-.521.8-.86.325-.339.605-.625.84-.86l.312-.312c.235-.208.509-.481.82-.82.312-.339.586-.625.82-.86l.39-.39c.209-.208.47-.481.782-.82.312-.338.598-.625.856-.859l.391-.391c.234-.235.502-.513.82-.84.319-.326.572-.605.78-.84l.353-.39c.208-.235.475-.521.8-.86.325-.337.592-.61.8-.82l.391-.43a1.129 1.129 0 0 1 .818-.35 1.075 1.075 0 0 1 .82.39l.116.156a1.17 1.17 0 0 1 .351.86 1.293 1.293 0 0 1-.312.82l-.077.077c-.209.234-.475.52-.8.86-.326.338-.593.625-.802.859l-.234.273c-.233.234-.507.514-.82.84-.314.327-.587.606-.82.84l-.192.234c-.255.31-.529.603-.82.878-.339.326-.625.593-.86.8l-.352.274-.839.84c-.326.327-.592.606-.8.84l-.313.313c-.208.233-.468.52-.78.86-.312.339-.572.625-.781.859l-.392.429c-.181.183-.273.338-.273.469 0 .13.053.202.157.214.156.016.312.023.469.02l.82-.118c.313-.051.696-.097 1.151-.136l1.152-.097.898-.04c.339-.025.735-.051 1.192-.078.456-.026.838-.051 1.152-.078l1.053-.077a1.083 1.083 0 0 1 .84.292c.238.202.385.49.41.801v.39c.008.315-.089.624-.273.879a1.056 1.056 0 0 1-.82.41l-.12.002ZM53.155 9.902c.026.371.026.743 0 1.114-.026.41-.026.821 0 1.23l.039.548c.027.396.034.794.02 1.191-.017.385.002.77.058 1.152l.04.502c.025.338.045.736.058 1.191.012.455.02.84.02 1.152l-.04.585a11.8 11.8 0 0 0-.02 1.212c.014.376.008.753-.018 1.129v.663c0 .419.117.628.351.628.104 0 .26-.08.469-.235l.586-.547c.233-.208.525-.462.877-.761.353-.3.657-.553.918-.763l.547-.429c.26-.208.567-.463.918-.762.351-.3.644-.552.878-.762l.585-.502c.235-.206.52-.455.86-.74.338-.287.649-.535.936-.743l.742-.508a.937.937 0 0 0 .39-.82.953.953 0 0 0-.273-.703l-.351-.353a18.737 18.737 0 0 1-.84-.8 5.501 5.501 0 0 1-.761-.918l-.274-.274a26.312 26.312 0 0 1-1.561-1.757l-.391-.39c-.209-.26-.462-.56-.761-.9-.3-.338-.553-.637-.762-.897l-.306-.388c-.209-.208-.469-.488-.78-.84a10.259 10.259 0 0 0-.82-.84l-.431-.391a11.752 11.752 0 0 1-.82-.82 19.826 19.826 0 0 1-.785-.898l-.314-.39a1.004 1.004 0 0 1-.273-.743 1.195 1.195 0 0 1 .391-.937l.156-.077a1.339 1.339 0 0 1 1.719 0l.117.157c.234.208.508.475.82.8.311.326.585.618.82.878l.35.39c.209.236.47.522.782.86.313.338.573.637.781.9l.313.312c.216.329.465.636.742.916.313.327.586.594.82.802l.39.39c.208.235.475.521.8.86.326.34.592.626.801.86l.351.429c.209.26.469.553.782.878.312.324.573.617.78.878l.313.352c.208.26.462.559.761.898.3.34.553.64.761.899l.274.312c.163.23.257.5.273.781a1.235 1.235 0 0 1-.39.898l-.273.196c-.284.278-.584.539-.898.781a20.63 20.63 0 0 0-.9.743l-.467.388c-.26.208-.567.455-.918.742-.35.286-.658.533-.918.742l-.47.397a56.31 56.31 0 0 0-1.794 1.523l-.43.391c-.26.235-.566.49-.918.762-.352.272-.645.513-.878.722l-.547.47c-.26.208-.567.461-.918.76-.35.3-.63.554-.84.762l-.468.43c-.236.206-.522.465-.856.778a8.773 8.773 0 0 1-.9.741l-.5.352a.772.772 0 0 1-.502.195c-.288 0-.431-.209-.43-.627l-.04-.196c0-.312-.006-.696-.018-1.151-.013-.455-.02-.852-.02-1.192v-3.435c0-.313.006-.689.02-1.13.014-.44.019-.845.019-1.21v-.508c0-.312-.007-.696-.02-1.152-.013-.454-.02-.852-.02-1.19v-.548c.001-.098-.005-.196-.02-.293a2.479 2.479 0 0 1-.018-.333c0-.286.006-.585.019-.898.014-.312.032-.585.059-.82v-.478c0-.155 0-.337.02-.546.02-.208.019-.416.019-.627 0-.21-.007-.41-.02-.604a8.87 8.87 0 0 1-.02-.567l-.038-.586a.969.969 0 0 1 .278-.795 1.138 1.138 0 0 1 .839-.332h.235a1.176 1.176 0 0 1 .82.39c.204.225.315.518.312.82l.001.274ZM76.78 21.035c.03.101.042.206.039.312a1.094 1.094 0 0 1-.29.786c-.21.217-.463.388-.742.502a6.647 6.647 0 0 1-.976.333c-.352.091-.683.189-.995.292l-.235.079-1.113.376-1.113.37-.312.118c-.287.105-.651.23-1.093.376-.444.143-.82.268-1.129.37l-.273.08c-.314.104-.69.221-1.129.35-.442.126-.819.235-1.128.313l-.313.078a.857.857 0 0 1-.273.04c-.39 0-.585-.182-.586-.547a1.31 1.31 0 0 1 .078-.314l.118-.312c.078-.286.188-.65.332-1.094.115-.372.252-.736.41-1.092l.117-.392c.104-.312.221-.684.351-1.113.13-.43.247-.801.351-1.113l.157-.547c.104-.312.221-.688.351-1.129.126-.443.25-.806.352-1.094l.156-.501.376-1.13c.143-.442.267-.806.376-1.093l.196-.508c.146-.363.27-.734.37-1.113.118-.43.228-.8.332-1.114l.157-.467c.103-.314.22-.69.351-1.13.13-.438.25-.807.351-1.093l.132-.578c.078-.314.188-.684.33-1.114.144-.43.28-.8.41-1.113l.158-.502c.125-.312.26-.683.39-1.113.13-.43.26-.8.39-1.113l.313-.815c.126-.339.286-.502.47-.502.182 0 .336.143.467.429l.079.157a31.869 31.869 0 0 1 1.048 2.1l.118.273c.181.342.344.694.488 1.054.167.418.317.782.449 1.093l.156.353a36.824 36.824 0 0 0 .86 2.147l.155.353c.125.286.293.638.489 1.053.196.416.376.77.527 1.055l.204.344c.129.287.296.639.502 1.055.205.416.373.768.501 1.055l.157.351c.13.288.293.64.488 1.055.194.416.37.767.528 1.055l.234.39c.156.287.323.638.502 1.055l.469 1.094.156.43c.13.286.28.644.45 1.074.14.367.303.727.487 1.075l.196.428c.155.288.33.64.527 1.055.195.416.358.768.487 1.055l.157.351c.13.313.293.678.488 1.094.195.417.37.768.528 1.055l.194.39c.08.158.12.332.118.508a1.054 1.054 0 0 1-.665 1.016l-.194.078a1.129 1.129 0 0 1-.502.117 1.16 1.16 0 0 1-.627-.195 1.253 1.253 0 0 1-.469-.508l-.195-.391c-.13-.286-.3-.631-.508-1.035a13.175 13.175 0 0 1-.502-1.074l-.194-.501c-.13-.286-.287-.644-.469-1.074-.182-.43-.336-.789-.461-1.076l-.274-.508a12.915 12.915 0 0 1-.501-1.054 23.971 23.971 0 0 0-.48-1.055l-.234-.547c-.13-.287-.306-.639-.527-1.055-.22-.415-.396-.767-.527-1.055l-.274-.501a58.333 58.333 0 0 1-.547-1.035 18.365 18.365 0 0 1-.501-1.035l-.312-.665a89.764 89.764 0 0 1-.937-2.147l-.235-.627a77.047 77.047 0 0 1-.936-2.148l-.274-.586c-.156-.26-.3-.39-.43-.39-.208 0-.35.156-.429.468l-.117.43c-.105.312-.229.69-.377 1.128a10.29 10.29 0 0 1-.41 1.094l-.194.47c-.154.354-.283.718-.388 1.09-.13.444-.247.82-.35 1.13l-.196.546a6.155 6.155 0 0 0-.331 1.129c-.076.382-.174.759-.294 1.129l-.155.502c-.106.312-.21.689-.314 1.129-.082.375-.2.74-.35 1.093l-.197.508a2.203 2.203 0 0 0-.057.196.609.609 0 0 0-.02.156c0 .311.156.468.469.469.12-.01.238-.036.35-.078l.119-.04c.312-.103.688-.215 1.128-.331.44-.117.82-.216 1.129-.294l.234-.078a27.35 27.35 0 0 0 1.129-.312 8.614 8.614 0 0 0 1.093-.39l.43-.157c.124-.046.256-.072.39-.078.52 0 .847.26.976.78l.084.297ZM100.757 23.418v2.5c-.02.321-.153.626-.376.859a1.107 1.107 0 0 1-.839.351l-.312.039c-.314 0-.698.013-1.152.04-.457.026-.853.053-1.192.078l-.627.039-1.152.098c-.455.039-.852.058-1.191.058h-.627c-.386.007-.771.039-1.153.097a17.18 17.18 0 0 1-1.19.137l-.703.079c-.313.053-.697.098-1.153.137-.455.038-.839.057-1.15.057h-.743a1.57 1.57 0 0 1-.781-.175.567.567 0 0 1-.313-.527c.008-.308.035-.614.08-.918.051-.403.103-.773.155-1.113l.039-.273c.005-.4.037-.798.098-1.192.065-.455.125-.84.175-1.153l.08-.502a9.8 9.8 0 0 0 .096-1.191c.003-.39.062-.778.175-1.152l.04-.43c.052-.337.097-.729.137-1.171.04-.443.072-.833.097-1.172l.079-.43c.025-.312.064-.696.116-1.152.053-.455.092-.84.118-1.152l.039-.586c.025-.313.058-.697.098-1.153a16 16 0 0 1 .137-1.151l.077-.502c.052-.313.098-.697.137-1.153.039-.455.084-.853.137-1.192l.038-.546c.025-.338.072-.73.137-1.172.065-.443.125-.833.176-1.171l.077-.547c.053-.313.105-.697.157-1.153.053-.457.104-.84.157-1.152l.078-.508c.13-.728.572-1.093 1.328-1.093h.233c.365.026.627.155.781.39.164.251.249.545.245.845l-.043.197c-.053.312-.104.697-.157 1.153-.052.455-.104.839-.155 1.151l-.04.274a33.935 33.935 0 0 0-.273 2.305v.314c-.06.381-.099.766-.117 1.151-.02.386-.058.771-.117 1.153l-.039.351c-.053.339-.104.73-.157 1.173-.052.443-.104.833-.155 1.172l-.04.35c-.052.313-.104.698-.156 1.154-.051.455-.104.853-.157 1.191l-.038.313c-.06.38-.1.765-.117 1.151-.027.457-.053.84-.079 1.153l-.039.429c0 .34-.012.736-.039 1.191-.019.386-.058.771-.116 1.153l-.04.43c-.052.313-.104.697-.156 1.152-.052.455-.104.839-.155 1.152l-.04.39a.282.282 0 0 1-.02.119.26.26 0 0 0-.02.116.797.797 0 0 0 .294.664c.206.16.462.243.722.234h.664c.334 0 .731-.013 1.19-.039.387-.018.772-.056 1.153-.116l.703-.04c.312-.025.696-.064 1.152-.117.395-.048.793-.074 1.191-.078l.781-.039c.3-.02.583-.145.8-.35a1.129 1.129 0 0 0 .333-.861l-.04-.156a1.14 1.14 0 0 1 .332-.84 1.24 1.24 0 0 1 .801-.37h.313a1.174 1.174 0 0 1 1.215 1.131l-.002.117ZM112.121 27.52c-.313 0-.698.006-1.153.018-.455.013-.839.034-1.151.06h-.118c-.334.025-.731.038-1.191.038h-1.151l-.235-.039h-2.504a1.273 1.273 0 0 1-.878-.332 1.227 1.227 0 0 1-.41-.84l-.039-.43a51.973 51.973 0 0 1-.077-1.191c-.025-.46-.052-.844-.079-1.152l-.039-.508a57.18 57.18 0 0 1-.078-1.171 12.375 12.375 0 0 0-.117-1.172l-.079-.547a22.552 22.552 0 0 1-.155-1.153c-.053-.455-.104-.84-.157-1.152l-.116-.502a22.4 22.4 0 0 0-.137-1.152 8.396 8.396 0 0 1-.098-1.152v-.664a10.58 10.58 0 0 0-.078-1.153c-.052-.455-.105-.84-.156-1.152l-.078-.586a45.39 45.39 0 0 1-.176-1.152 8.395 8.395 0 0 1-.097-1.152V8.73c-.005-.386-.032-.77-.079-1.153a32.561 32.561 0 0 1-.117-1.192l-.039-.502a16.821 16.821 0 0 0-.137-1.172c-.065-.444-.125-.833-.175-1.172l-.078-.663a.16.16 0 0 0-.02-.098c-.014-.013-.02-.045-.02-.098a.973.973 0 0 1 .293-.723c.196-.197.449-.33.723-.376h.311c.297.001.588.08.845.23a.913.913 0 0 1 .449.782l.039.547c.025.313.059.698.097 1.152l.098 1.152.039.547c.025.313.064.698.117 1.153.052.455.104.853.156 1.192l.078.663c.052.313.104.698.157 1.153.053.455.103.84.155 1.151l.078.588a30.73 30.73 0 0 1 .274 2.343l.04.627c.025.334.051.731.077 1.191.018.386.057.771.117 1.153l.039.627c.026.313.065.698.118 1.152.052.454.104.854.155 1.191l.079.586c.052.313.098.698.137 1.153.039.455.071.853.098 1.192l.039.742a1.173 1.173 0 0 0 .41.8c.227.214.527.333.839.333h2.884c.33.003.649-.116.898-.333.248-.2.414-.485.469-.8l.038-.43c.052-.313.104-.697.156-1.153.052-.456.091-.84.118-1.151l.039-.586c.025-.313.059-.698.097-1.153.039-.455.084-.84.137-1.153l.078-.663c.052-.313.104-.697.157-1.153.047-.383.073-.767.077-1.153l.039-.585c.025-.338.052-.736.078-1.19.019-.387.058-.772.118-1.153l.078-.664c.051-.314.097-.698.136-1.153.039-.455.084-.853.137-1.191l.039-.628c.027-.338.072-.729.137-1.171.065-.443.125-.834.175-1.173l.118-.664c.052-.311.11-.696.176-1.152.063-.456.11-.84.136-1.152l.039-.586c.025-.365.169-.627.429-.781.259-.157.557-.238.86-.235h.156a1.112 1.112 0 0 1 .8.45c.171.26.259.566.25.878v.314c-.052.34-.098.736-.136 1.192-.039.455-.085.84-.137 1.151l-.078.508c-.052.313-.111.698-.175 1.153a8.218 8.218 0 0 0-.087 1.152l-.039.547c-.026.338-.066.73-.117 1.172-.049.39-.075.78-.078 1.172l-.039.502a36.284 36.284 0 0 1-.273 2.304l-.118.627c-.053.339-.099.73-.137 1.173-.038.443-.084.833-.138 1.17l-.078.547c-.057.395-.09.792-.097 1.19-.014.457-.033.84-.059 1.153l-.039.547a21.36 21.36 0 0 1-.137 1.153c-.065.455-.125.839-.176 1.151l-.077.547a23.39 23.39 0 0 0-.157 1.153c-.053.455-.104.84-.156 1.153l-.079.468a1.37 1.37 0 0 1-.448.84c-.23.216-.525.349-.839.376ZM117.785 28.105a1.283 1.283 0 0 1-.312-.82 1.157 1.157 0 0 1 .39-.898l.077-.08a44.027 44.027 0 0 1 1.719-1.6l.313-.273c.234-.209.52-.47.859-.782.338-.313.625-.586.859-.82l.312-.313c.234-.208.52-.468.859-.781.338-.313.625-.573.859-.781l.351-.313c.261-.208.56-.462.899-.761.339-.3.638-.554.898-.763l.39-.312a.902.902 0 0 0 .287-1.161.902.902 0 0 0-.287-.323l-.233-.235a23.384 23.384 0 0 1-.899-.76c-.339-.3-.625-.567-.859-.801l-.313-.314a30.259 30.259 0 0 0-.82-.78 16.989 16.989 0 0 0-.898-.781l-.313-.235a23.204 23.204 0 0 1-.899-.761l-.857-.762-.273-.274c-.233-.234-.52-.507-.859-.82a16.514 16.514 0 0 0-.898-.781l-.352-.312c-.312-.261-.469-.547-.469-.86 0-.183.175-.416.526-.703.374-.307.731-.633 1.071-.977l.274-.235c.235-.236.521-.503.855-.8.334-.298.634-.552.898-.762l.312-.234a52.557 52.557 0 0 0 1.799-1.523l.429-.391c.234-.208.514-.469.84-.782.327-.312.619-.573.878-.78l.313-.314a1.34 1.34 0 0 1 .858-.312 1.13 1.13 0 0 1 .821.353l.155.155c.191.217.301.493.312.782a1.162 1.162 0 0 1-.351.859l-.663.627c-.234.21-.521.463-.859.761-.339.299-.638.553-.899.763l-.702.547c-.327.242-.634.51-.918.8l-.8.802-.665.663a1.058 1.058 0 0 0-.312.782 1.162 1.162 0 0 0 .351.859l.157.117c.234.21.52.47.859.781.338.311.626.573.862.785l.313.274c.26.208.56.468.899.781.338.313.625.573.859.78l.312.235c.235.21.521.47.859.781.338.312.611.585.82.82l.312.274c.234.234.514.508.84.82.326.313.619.574.878.782l.274.273c.259.261.391.521.391.782a.961.961 0 0 1-.391.78l-.235.196c-.235.209-.521.47-.859.781-.338.312-.611.586-.82.82l-.312.313c-.208.209-.482.47-.82.781-.339.312-.638.573-.898.782l-.351.273a57.54 57.54 0 0 0-1.796 1.523l-.351.273c-.235.21-.521.47-.859.782-.338.312-.624.583-.859.814l-.312.351c-.235.235-.515.502-.841.802-.325.3-.617.553-.877.761l-.313.273a1.19 1.19 0 0 1-.741.274 1.15 1.15 0 0 1-.938-.43l-.116-.117Z" />
</svg>