<svg xmlns="http://www.w3.org/2000/svg" fill="#fff" viewBox="0 0 137 41" width="137" height="41">
    <path
        d="M12.189 3.856c-.543 0-.904-.361-.904-.903v-.904h-.904c-.543 0-.904-.362-.904-.904V.24H.474v18.006h9.003v-.904c0-.542.361-.904.904-.904h.904v-.904c0-.542.361-.904.904-.904h.903V3.856h-.903Zm-.904.904v9.004c0 .542-.362.903-.904.903h-.904v.904c0 .543-.362.904-.904.904H3.185c-.542 0-.903-.361-.903-.904V2.99c0-.543.361-.904.903-.904h5.388c.542 0 .904.361.904.904v.904h.904c.542-.037.904.325.904.867ZM15.804.24v18.007h1.808V.24h-1.808ZM31.171.24v2.712c0 .543-.361.904-.904.904h-.904V8.34c0 .542-.361.904-.904.904h-.904v4.483c0 .543-.361.904-.904.904-.542 0-.904-.361-.904-.904V9.244h-.903c-.543 0-.904-.362-.904-.904V3.856h-.904c-.543 0-.904-.361-.904-.903V.24h-1.808v3.615h.904c.542 0 .904.362.904.904v4.484h.904c.542 0 .904.361.904.904v4.483h.904c.542 0 .903.362.903.904v2.712h1.808v-2.712c0-.542.362-.904.904-.904h.904v-4.483c0-.543.362-.904.904-.904h.904V4.76c0-.542.362-.904.904-.904h.904V.241h-1.808ZM37.498 6.532V2.916c0-.542.362-.904.905-.904h8.099V.204H35.69V18.21H46.5v-1.808h-8.098c-.543 0-.904-.361-.904-.903V10.11c0-.542.361-.904.904-.904h6.29V7.4h-6.29c-.543.037-.904-.325-.904-.867ZM59.157 2.049c-.543 0-.904-.362-.904-.904V.24H49.25v18.006h1.807v-6.291c0-.543.362-.904.904-.904h1.808c.543 0 .904.361.904.904v.904h.904c.543 0 .904.361.904.904v2.711h.904c.542 0 .904.362.904.904v.904h1.808v-1.808h-.904c-.542 0-.904-.361-.904-.904V12.86h-.904c-.542 0-.904-.362-.904-.904 0-.543.362-.904.904-.904h.904v-.904c0-.543.361-.904.904-.904h.904V2.049h-.94Zm-.904.904V8.34c0 .542-.362.904-.904.904H51.96c-.542 0-.904-.362-.904-.904V2.953c0-.543.362-.904.904-.904h5.388c.542 0 .904.361.904.904ZM77.199 5.628V3.82h-.904c-.542 0-.904-.361-.904-.904V2.05h-.904c-.542 0-.904-.362-.904-.904V.24h-7.195v.904c0 .542-.362.904-.904.904h-.904v.904c0 .542-.361.903-.904.903h-.904v10.811h.904c.543 0 .904.362.904.904v.904h.904c.542 0 .904.362.904.904v.904h7.195v-.904c0-.542.362-.904.904-.904.543 0 .904.362.904.904v.904h1.808V9.28h-7.195v1.808h4.52c.542 0 .903.361.903.904V13.8c0 .542-.361.904-.904.904h-.904v.903c0 .543-.361.904-.904.904h-5.387c-.542 0-.904-.361-.904-.903v-.904h-.904c-.542 0-.904-.362-.904-.904V4.797c0-.543.362-.904.904-.904h.904v-.904c0-.543.362-.904.904-.904h5.387c.543 0 .904.361.904.904v.904h.904c.543 0 .904.361.904.904V5.7H77.2v-.072ZM81.755 6.532V2.916c0-.542.361-.904.904-.904h8.099V.204H79.947V18.21h10.81v-1.808H82.66c-.543 0-.904-.361-.904-.903V10.11c0-.542.361-.904.904-.904h6.291V7.4h-6.291c-.543.037-.904-.325-.904-.867ZM104.317.24v11.68c0 .542-.362.903-.904.903-.543 0-.904-.361-.904-.904v-.904h-.904c-.542 0-.904-.361-.904-.903V7.4h-.904c-.542 0-.904-.362-.904-.904v-.904h-.904c-.542 0-.904-.362-.904-.904v-2.64h-.904c-.542 0-.903-.361-.903-.903V.24H93.47v18.006h1.808V6.568c0-.542.361-.904.903-.904.543 0 .904.362.904.904v.904h.904c.543 0 .904.362.904.904v2.712h.904c.542 0 .904.361.904.904v.904h.904c.542 0 .904.361.904.904v2.711h.904c.542 0 .904.362.904.904v.904h1.808V.241h-1.808ZM123.263 5.628V3.82h-.904c-.542 0-.904-.361-.904-.904V2.05h-.904c-.542 0-.904-.362-.904-.904V.24h-7.195v.904c0 .542-.362.904-.904.904h-.904v.904c0 .542-.361.903-.904.903h-.904v10.811h.904c.543 0 .904.362.904.904v.904h.904c.542 0 .904.362.904.904v.904h7.195v-.904c0-.542.362-.904.904-.904h.904v-.904c0-.542.362-.904.904-.904h.904V12.86h-1.808v.904c0 .542-.361.903-.904.903h-.904v.904c0 .543-.361.904-.904.904h-5.387c-.542 0-.904-.361-.904-.904v-.904h-.904c-.542 0-.904-.361-.904-.903V4.76c0-.542.362-.904.904-.904h.904v-.903c0-.543.362-.904.904-.904h5.387c.543 0 .904.361.904.904v.903h.904c.543 0 .904.362.904.904v.904h1.808v-.036ZM127.783 6.532V2.916c0-.542.361-.904.904-.904h8.099V.204h-10.811V18.21h10.811v-1.808h-8.099c-.543 0-.904-.361-.904-.903V10.11c0-.542.361-.904.904-.904h6.291V7.4h-6.291c-.543.037-.904-.325-.904-.867ZM15.768 22.188 9.766 39.94H7.741L1.27 22.187h2.025l5.423 14.861 5.026-14.86h2.025ZM20.324 38.241c1.048 0 1.88-.253 2.458-.759.58-.506.977-1.157 1.121-1.916h2.025c-.072.759-.398 1.518-.904 2.241-.506.724-1.193 1.302-2.024 1.736a5.774 5.774 0 0 1-2.712.65c-1.121 0-2.134-.252-3.038-.795-.867-.506-1.59-1.301-2.133-2.278-.506-1.012-.759-2.169-.759-3.507 0-1.193.253-2.278.795-3.254.543-1.012 1.23-1.772 2.134-2.314a5.396 5.396 0 0 1 3-.868c1.7 0 3.038.543 4.05 1.663 1.049 1.085 1.555 2.82 1.555 5.207h-9.473c.072 1.41.434 2.495 1.12 3.218.76.615 1.664.976 2.785.976Zm0-9.075c-.94 0-1.736.253-2.387.795-.65.543-1.084 1.302-1.337 2.242h7.303c-.18-.976-.542-1.736-1.084-2.242-.579-.542-1.374-.795-2.495-.795ZM38.51 39.94h-2.024l-.036-6.58c0-1.446-.217-2.495-.615-3.182-.398-.687-1.12-1.012-2.097-1.012-1.193 0-2.133.398-2.892 1.193-.724.795-1.085 1.953-1.085 3.507v6.075h-2.025V27.286h2.025v2.17a4.88 4.88 0 0 1 1.808-1.736 5.26 5.26 0 0 1 2.386-.543c1.663 0 2.82.506 3.471 1.555.687 1.049 1.012 2.603 1.012 4.628l.073 6.58ZM42.778 29.021v8.244c0 .325.036.542.144.65.109.073.29.145.615.145h2.025v1.88h-2.025c-.868 0-1.483-.072-1.88-.216-.362-.145-.615-.398-.723-.796-.109-.361-.181-.976-.181-1.808v-8.099H38.98V27.25h1.772v-2.784h2.025v2.784h2.82v1.772h-2.82ZM58.397 27.213v12.691h-2.024v-1.807c-.796 1.337-2.025 2.024-3.688 2.024-1.7 0-2.93-.542-3.76-1.663-.832-1.12-1.23-2.675-1.23-4.664l-.036-6.58h2.025l.036 6.616c0 1.374.289 2.459.831 3.182.579.723 1.338 1.085 2.387 1.085 2.277 0 3.434-1.591 3.434-4.773v-6.11h2.025ZM62.483 29.491c.94-1.518 2.531-2.241 4.737-2.241v2.024c-1.483 0-2.64.398-3.471 1.157-.832.76-1.266 1.88-1.266 3.435v6.075h-2.025V27.286h2.025v2.205ZM73.873 38.241c1.048 0 1.88-.253 2.458-.759.579-.506.977-1.157 1.121-1.916h2.025c-.072.759-.398 1.518-.904 2.241-.506.724-1.193 1.302-2.025 1.736a5.774 5.774 0 0 1-2.712.65c-1.12 0-2.133-.252-3.037-.795-.868-.506-1.59-1.301-2.133-2.278-.506-1.012-.76-2.169-.76-3.507 0-1.193.254-2.278.796-3.254.543-1.012 1.23-1.772 2.133-2.314a5.396 5.396 0 0 1 3.001-.868c1.7 0 3.038.543 4.05 1.663 1.049 1.085 1.555 2.82 1.555 5.207h-9.473c.072 1.41.433 2.495 1.12 3.218.724.615 1.664.976 2.785.976Zm0-9.075c-.94 0-1.736.253-2.387.795-.65.543-1.085 1.302-1.338 2.242h7.304c-.18-.976-.542-1.736-1.085-2.242-.578-.542-1.41-.795-2.494-.795ZM80.706 35.855c.109 1.519.651 2.603 1.591 3.29.94.687 2.133 1.013 3.507 1.013 1.483 0 2.64-.29 3.507-.868.868-.578 1.338-1.519 1.338-2.82 0-1.049-.325-1.917-1.012-2.567-.687-.651-1.772-1.085-3.326-1.266-2.278-.253-3.435-.868-3.435-1.88 0-.76.289-1.302.867-1.555a4.676 4.676 0 0 1 2.061-.47c.832 0 1.483.217 1.989.687.506.47.795 1.049.94 1.736h1.916c-.108-1.374-.614-2.423-1.482-3.11-.868-.723-1.989-1.048-3.363-1.048-1.265 0-2.386.289-3.362.867-.977.579-1.483 1.555-1.483 2.93 0 1.048.326 1.88 1.013 2.422.687.542 1.7.904 3.073 1.048 1.374.18 2.314.47 2.856.832.579.361.832.795.832 1.374 0 .723-.253 1.23-.723 1.482-.47.253-1.23.398-2.206.398-1.808 0-2.856-.832-3.073-2.531h-2.025v.036Z" />
</svg>