<svg xmlns="http://www.w3.org/2000/svg" fill="#fff" viewBox="0 0 154 34" width="154" height="34">

    <path
        d="M3.723 17.456c2.57.524 6.137 4.246 6.007 8.43l2.546-.285c.269-3.152-2.37-8.73-7.425-10.603.443-.675.957-1.3 1.534-1.865a2.36 2.36 0 0 1 1.534-.184 7.37 7.37 0 0 1 4.365 2.311 10.196 10.196 0 0 1 3.122 6.326 6.066 6.066 0 0 1-.514 3.036c.392-.193.722-.331 1.02-.5.553-.31 1.075-.656 1.635-.956a.907.907 0 0 0 .49-.94 12.524 12.524 0 0 0-3.666-8.538 10.902 10.902 0 0 0-4.81-3.082c-.077 0-.154-.07-.338-.154a18.633 18.633 0 0 1 2.302-1.24 2.949 2.949 0 0 1 1.534 0c3.138.708 5.209 2.727 6.567 5.555a8.347 8.347 0 0 1 .767 5.324 2.132 2.132 0 0 1-.837 1.464c-.069.047-.122.131-.191.178a5.048 5.048 0 0 0-2.148 3.197c-.044.134-.1.263-.169.385a1.164 1.164 0 0 1-.772.705 1.153 1.153 0 0 1-1.023-.204 4.413 4.413 0 0 0-1.534-.493 1.246 1.246 0 0 0-.903.222c-.262.188-.441.47-.501.787-.154.54-.207 1.102-.315 1.65a3.748 3.748 0 0 1-.115.508.871.871 0 0 1-.767.717.85.85 0 0 1-.897-.594c-.152-.447-.28-.902-.384-1.364a2.56 2.56 0 0 1 0-.254c-.153-1.056-.153-1.063-1.189-1.217a6.073 6.073 0 0 1-3.958-1.942c-1.696-1.91-1.65-4.084-.967-6.38Z" />
    <path
        d="M23.07 11.138a7.31 7.31 0 0 1-.153 5.748 13.184 13.184 0 0 0-2.196-5.188 13.117 13.117 0 0 0-4.156-3.789c2.247-.077 4.142.393 5.692 1.988l2.301-1.618c-.176-.123-.322-.239-.475-.339L15.314 2.2a3.06 3.06 0 0 0-3.636 0L2.81 8.017a3.076 3.076 0 0 0-1.457 2.705v12.59a3.132 3.132 0 0 0 1.534 2.736l8.806 5.794a3.06 3.06 0 0 0 3.644 0l8.776-5.771a3.223 3.223 0 0 0 1.535-2.882V11.862c0-.177-.054-.4 0-.516.053-.116.383-.424.598-.431.215-.008.384.262.506.454.123.193 0 .3 0 .462v11.435a4.33 4.33 0 0 1-.52 2.213 4.307 4.307 0 0 1-1.566 1.64 1996.33 1996.33 0 0 0-8.523 5.594 4.398 4.398 0 0 1-5.247 0c-2.892-1.88-5.8-3.776-8.692-5.687A4.23 4.23 0 0 1 .69 25.42a4.253 4.253 0 0 1-.502-2.154v-12.49a4.292 4.292 0 0 1 .511-2.178c.36-.668.89-1.227 1.537-1.62L10.88 1.29a4.383 4.383 0 0 1 5.248 0c3.007 1.988 6.03 3.96 9.036 5.956a.59.59 0 0 0 .821 0c.445-.37.936-.678 1.412-1.01.475-.33.95-.385 1.242 0 .292.386.139.77-.383 1.187l-4.603 3.26-.583.454ZM68.89 25.015h-2.922V10.052h2.639c.146 0 .322.23.422.393 1.78 2.828 3.56 5.67 5.37 8.476.138.215.276.439.498.77v-9.6h2.961V23.365a1.686 1.686 0 0 1-.92 1.719 1.75 1.75 0 0 1-1.949-.37 4.333 4.333 0 0 1-.874-1.033 1702.67 1702.67 0 0 1-5.033-7.89l-.191-.246v9.47ZM113.76 10.136c2.301 0 4.603-.108 6.85 0a4.46 4.46 0 0 1 2.861 1.251 4.497 4.497 0 0 1 1.351 2.825c.31 2.175.31 4.383 0 6.558a4.627 4.627 0 0 1-1.369 2.867 4.592 4.592 0 0 1-2.889 1.301 11.662 11.662 0 0 1-4.38-.223 2.749 2.749 0 0 1-1.772-.964 2.771 2.771 0 0 1-.644-1.918c-.069-3.853 0-7.752-.046-11.627a.26.26 0 0 1 .038-.07Zm2.923 2.62v8.06c0 .948.284 1.333 1.219 1.472a8.543 8.543 0 0 0 2.033.038c.485-.043.941-.25 1.294-.585.354-.335.584-.78.655-1.264.291-1.894.307-3.82.046-5.718a2.101 2.101 0 0 0-.579-1.338 2.084 2.084 0 0 0-1.308-.634 28.26 28.26 0 0 0-3.36-.03ZM141.614 17.456a15.721 15.721 0 0 1 .322-3.267c.568-2.72 2.156-4.068 4.925-4.23a10.399 10.399 0 0 1 2.348.123 4.679 4.679 0 0 1 2.696 1.322 4.706 4.706 0 0 1 1.346 2.693c.497 2.378.47 4.837-.076 7.204a4.636 4.636 0 0 1-1.567 2.702 4.593 4.593 0 0 1-2.921 1.082c-.869.082-1.744.064-2.608-.054-2.363-.37-3.659-1.657-4.12-4.069a18.924 18.924 0 0 1-.345-3.506Zm8.983 0a15.743 15.743 0 0 0-.452-3.374 1.854 1.854 0 0 0-1.642-1.425 6.366 6.366 0 0 0-1.711-.001 1.991 1.991 0 0 0-1.179.512 2.012 2.012 0 0 0-.624 1.13 14.18 14.18 0 0 0-.375 2.534 10.71 10.71 0 0 0 .352 4.007 2.58 2.58 0 0 0 1.019 1.335 2.558 2.558 0 0 0 1.62.422 2.471 2.471 0 0 0 1.647-.427c.481-.332.83-.826.985-1.392.268-1.077.389-2.187.36-3.297v-.024ZM62.823 17.641a18.175 18.175 0 0 1-.369 3.445 4.63 4.63 0 0 1-1.361 2.72 4.594 4.594 0 0 1-2.75 1.279 9.164 9.164 0 0 1-3.545-.1 4.482 4.482 0 0 1-2.337-1.286 4.515 4.515 0 0 1-1.199-2.39 17.025 17.025 0 0 1-.084-7.15c.514-2.566 1.933-3.853 4.556-4.115a9.93 9.93 0 0 1 3.169.177c2.217.493 3.283 2.127 3.659 4.254.187 1.044.275 2.105.26 3.166Zm-9.03.116v.123c.032.973.168 1.94.407 2.882a2.52 2.52 0 0 0 1.005 1.378 2.5 2.5 0 0 0 1.65.417c.59.05 1.18-.11 1.664-.453.485-.342.835-.844.99-1.419a13.153 13.153 0 0 0 0-6.249 2.244 2.244 0 0 0-.729-1.284 2.226 2.226 0 0 0-1.366-.55c-2.132-.216-3.068.578-3.383 2.312-.16.939-.24 1.89-.237 2.843ZM44.795 19.005h-5.439v6.018h-2.915V10.09h2.87v6.241h5.446v-6.248h2.922v14.932h-2.884v-6.01ZM91.475 22.418v2.566c-.098.031-.198.052-.3.062-1.956 0-3.92 0-5.883-.039a6.591 6.591 0 0 1-1.09-.138 2.82 2.82 0 0 1-1.791-.953 2.843 2.843 0 0 1-.694-1.914c-.07-1.171-.054-2.35-.062-3.529V10.09h9.82v2.597h-6.82v3.467h4.787c0 .47-.062.932-.1 1.402 0 .231 0 .47-.061.701-.062.232 0 .409-.177.486a2.558 2.558 0 0 1-.874.07h-3.56v2.68c.039.54.438.84 1.09.879.866.054 1.749.046 2.623.054l3.092-.008ZM139.719 25.085h-2.846c-.115 0-.276-.185-.322-.324-.222-.624-.399-1.264-.637-1.888a.591.591 0 0 0-.406-.339h-4.68c-.222.717-.468 1.418-.667 2.142a.546.546 0 0 1-.218.362.541.541 0 0 1-.411.093h-2.593l.69-2.003 4.02-11.512c.069-.2.153-.393.253-.578a1.604 1.604 0 0 1 1.642-.91 1.447 1.447 0 0 1 1.327 1.094c.598 1.706 1.194 3.41 1.787 5.11a596.94 596.94 0 0 1 3.061 8.753Zm-6.275-10.788h-.107c-.583 1.857-1.159 3.722-1.749 5.625h3.529c-.568-1.895-1.12-3.76-1.673-5.625ZM100.926 25.023H97.98v-5.486a2.938 2.938 0 0 0-.307-1.248c-1.281-2.582-2.608-5.155-3.912-7.706a7.902 7.902 0 0 1-.223-.508h2.97c.13 0 .29.223.367.37.767 1.68 1.535 3.367 2.348 5.047.069.154.145.3.268.547.207-.447.368-.81.537-1.164.66-1.448 1.335-2.897 1.972-4.353a.667.667 0 0 1 .767-.47h2.646c-.099.223-.168.393-.253.562-1.334 2.635-2.685 5.27-4.012 7.913-.114.241-.175.504-.176.771-.054 1.934-.046 3.791-.046 5.725Z" />
    <path
        d="M15.644 27.72c.049-.19.118-.373.207-.547.23-.355.683-.37.829 0 .108.37.131.76.069 1.14a.609.609 0 0 1-.46.393.875.875 0 0 1-.522-.416 1.547 1.547 0 0 1-.123-.57Z" />

</svg>