<svg xmlns="http://www.w3.org/2000/svg" fill="#fff" viewBox="0 0 162 21" width="162" height="21">

    <path
        d="M26.25 5.258v5.801h-5.918V6.011a.734.734 0 0 0-.225-.526.785.785 0 0 0-.543-.22h-2v13.816c0 .198.082.388.227.528.145.14.341.219.546.219h1.995v-6.436h5.918v5.69c0 .197.08.387.226.527.144.14.34.219.546.219h1.998V6.004a.734.734 0 0 0-.226-.528.786.786 0 0 0-.546-.218H26.25ZM37.865 8.705v6.89c.003.31-.078.614-.235.883-.157.27-.385.495-.66.653a2.123 2.123 0 0 1-2.101.082 2.037 2.037 0 0 1-.79-.727 1.948 1.948 0 0 1-.297-1.014V9.426a.735.735 0 0 0-.235-.512.786.786 0 0 0-.537-.21h-2.006v7.013a4.053 4.053 0 0 0 1.248 2.904 4.337 4.337 0 0 0 3.003 1.207h1.119a4.337 4.337 0 0 0 3-1.209 4.054 4.054 0 0 0 1.247-2.902V9.426a.732.732 0 0 0-.227-.507.782.782 0 0 0-.526-.214h-2.003ZM68.502 19.828h1.995V10.05a.734.734 0 0 0-.226-.528.785.785 0 0 0-.546-.219H67.73v9.778c0 .198.082.388.227.528.144.14.34.219.545.219ZM69.114 8.243c.852 0 1.544-.668 1.544-1.493 0-.824-.692-1.492-1.544-1.492-.853 0-1.544.668-1.544 1.492 0 .825.691 1.493 1.544 1.493ZM47.885 8.705c-2.901 0-5.28 2.008-5.28 4.817v1.518c0 2.808 2.379 4.806 5.28 4.806 2.905 0 5.28-1.998 5.28-4.806v-1.536c0-2.81-2.375-4.8-5.28-4.8Zm2.498 6.49c0 1.326-1.118 2.21-2.498 2.21-1.38 0-2.502-.873-2.502-2.21v-1.886c0-1.327 1.118-2.214 2.494-2.214 1.377 0 2.499.887 2.499 2.214l.007 1.886ZM60.455 8.705a5.83 5.83 0 0 0-2.513.551V6.011a.734.734 0 0 0-.226-.527.786.786 0 0 0-.546-.219h-1.995v9.757c0 2.808 2.375 4.806 5.28 4.806 2.901 0 5.28-1.998 5.28-4.806v-1.518c0-2.809-2.379-4.8-5.28-4.8Zm2.495 6.49c0 1.326-1.119 2.21-2.495 2.21-1.376 0-2.498-.884-2.498-2.21v-1.886c0-1.327 1.118-2.214 2.498-2.214 1.38 0 2.495.887 2.495 2.214v1.886ZM9.212 6.27C9.212 3.387 7.75.864 6.639.063c0 0-.086-.047-.078.069-.094 5.606-3.054 7.131-4.68 9.168-3.755 4.72-.265 9.894 3.292 10.85 1.988.533-.462-.949-.775-4.078-.38-3.783 4.814-6.67 4.814-9.8Z" />
    <path
        d="M10.916 8.178a.045.045 0 0 0-.037-.02.044.044 0 0 0-.037.02c-.064.721-.81 2.214-1.753 3.606-3.203 4.687-1.376 6.962-.35 8.18.596.722 0 0 1.49-.72a6.61 6.61 0 0 0 2.23-2.135 6.346 6.346 0 0 0 .982-2.88 7.041 7.041 0 0 0-.52-3.316 7.267 7.267 0 0 0-2.005-2.735ZM99.803 11.766a4.29 4.29 0 0 0-.906-1.565c-.41-.45-.92-.807-1.492-1.042a5.192 5.192 0 0 0-2.05-.378 5.813 5.813 0 0 0-2.36.447c-.641.28-1.21.694-1.668 1.211a4.926 4.926 0 0 0-.98 1.803 7.43 7.43 0 0 0-.314 2.163 6.991 6.991 0 0 0 .328 2.163 4.474 4.474 0 0 0 1.048 1.753 4.834 4.834 0 0 0 1.824 1.15c.917.307 1.895.41 2.86.3 1.805-.232 2.61-.895 3.128-1.59.948-1.238.68-1.443.68-1.443h-2.074c-.239 0-.724.937-2.238.937-1.051 0-1.458-.158-1.98-.623a2.801 2.801 0 0 1-.813-1.983h7.085c.194 0 .243-.123.25-.31a8.047 8.047 0 0 0-.328-2.993Zm-2.29 1.33h-4.687a3.015 3.015 0 0 1 .72-1.604c.226-.221.5-.391.801-.5a2.27 2.27 0 0 1 .944-.124c.342-.01.682.058.992.198.265.124.498.302.682.523.188.238.328.507.414.793.071.233.116.472.135.714ZM151.822 11.765a4.335 4.335 0 0 0-.91-1.564 4.116 4.116 0 0 0-1.491-1.042 5.195 5.195 0 0 0-2.051-.379 5.783 5.783 0 0 0-2.357.447 4.786 4.786 0 0 0-1.67 1.212 4.906 4.906 0 0 0-.977 1.802 7.282 7.282 0 0 0-.314 2.164 7.003 7.003 0 0 0 .325 2.163c.21.652.568 1.25 1.048 1.752a4.828 4.828 0 0 0 1.823 1.15 6.64 6.64 0 0 0 2.86.3c1.805-.231 2.61-.895 3.132-1.59.948-1.237.675-1.442.675-1.442h-2.073c-.235 0-.723.937-2.256.937-1.051 0-1.458-.159-1.98-.624a2.832 2.832 0 0 1-.809-1.983h7.085c.197 0 .246-.123.253-.31a8.038 8.038 0 0 0-.313-2.992Zm-2.289 1.33h-4.691c.075-.59.325-1.147.719-1.604a2.626 2.626 0 0 1 1.304-.607 2.67 2.67 0 0 1 1.437.164c.266.129.498.313.679.54.189.237.329.507.414.794.073.232.12.472.138.714ZM129.396 8.68v6.907c.003.31-.078.614-.234.883-.156.27-.383.495-.657.653a2.13 2.13 0 0 1-2.107.083 2.04 2.04 0 0 1-.791-.728 1.948 1.948 0 0 1-.298-1.017V9.426a.733.733 0 0 0-.226-.528.786.786 0 0 0-.546-.219h-2.006v7.03a4.058 4.058 0 0 0 1.251 2.904 4.34 4.34 0 0 0 3.004 1.207h1.137a4.338 4.338 0 0 0 3.003-1.207 4.056 4.056 0 0 0 1.248-2.903V9.426a.733.733 0 0 0-.226-.528.786.786 0 0 0-.546-.219h-2.006ZM161.231 14.614c-.455-.498-1.276-.952-2.503-1.388a6.727 6.727 0 0 1-1.659-.783.775.775 0 0 1-.261-.642.732.732 0 0 1 .373-.656c.362-.215.783-.32 1.208-.299a4.54 4.54 0 0 1 2.424.656l.373.235h.037c.052 0 .175-.033.201-.245v-1.89a.48.48 0 0 0-.305-.393 7.182 7.182 0 0 0-2.689-.533 5.395 5.395 0 0 0-2.983.858 2.87 2.87 0 0 0-.981 1.044 2.76 2.76 0 0 0-.339 1.371 2.818 2.818 0 0 0 .597 1.803c.395.494 1.185.966 2.427 1.442a7.279 7.279 0 0 1 1.79.819.778.778 0 0 1 .328.656.774.774 0 0 1-.049.33.814.814 0 0 1-.182.283c-.269.252-.779.36-1.518.36a6.549 6.549 0 0 1-3.147-.919l-.078-.032-.06.032c-.082.047-.093.155-.093.249v2.015a.371.371 0 0 0 .19.21 6.83 6.83 0 0 0 3.002.623 5.782 5.782 0 0 0 3.274-.854c.422-.265.767-.63 1.001-1.06.235-.431.351-.913.337-1.4a2.703 2.703 0 0 0-.715-1.892ZM120.499 19.82v-1.687a.712.712 0 0 0-.218-.51.76.76 0 0 0-.528-.21h-1.387c-1.119 0-1.779-.545-1.779-1.962v-4.273h3.912V9.494a.712.712 0 0 0-.218-.51.76.76 0 0 0-.528-.21h-3.147V5.967a.712.712 0 0 0-.218-.51.76.76 0 0 0-.528-.21h-2.036v10.527c0 2.55 1.38 4.045 4.229 4.045h2.468-.022ZM138.178 8.78c-2.867 0-4.02 2.012-4.02 4.121v6.155c0 .203.084.397.232.54a.804.804 0 0 0 .559.224h1.935v-6.45c0-1.027.28-1.658.798-1.98.41-.313 1.212-.53 2.76.047V9.66c0-.339-.586-.88-2.264-.88ZM107.284 8.889c-1.045 0-2.204.241-2.398.76v-.245a.663.663 0 0 0-.203-.475.709.709 0 0 0-.491-.199h-2.129v10.43c0 .18.073.351.204.477a.71.71 0 0 0 .493.198h2.089v-6.083c0-1.882 1.118-2.523 1.987-2.523 1.208 0 2.193.692 2.193 2.433v5.499a.653.653 0 0 0 .202.476.695.695 0 0 0 .491.198h2.07V13.56c.015-3.028-1.663-4.672-4.508-4.672ZM86.543 5.243l-2.237 6.825c-.567 1.724-1.119 3.368-1.436 4.554-.336-1.33-.88-3.057-1.372-4.604l-1.902-6.04a1.044 1.044 0 0 0-.393-.522 1.103 1.103 0 0 0-.636-.198h-2.398l4.952 14.577h3.394L89.62 5.243h-3.077Z" />

</svg>