<svg xmlns="http://www.w3.org/2000/svg" fill="#fff" viewBox="0 0 136 34" width="136" height="34">
    <path
        d="M5.04 11.456a4.226 4.226 0 0 0 4.228-4.223 4.226 4.226 0 0 0-4.229-4.224A4.226 4.226 0 0 0 .811 7.233a4.226 4.226 0 0 0 4.228 4.223ZM24.405 11.456h-5.856c-.719 0-1.311-.59-1.311-1.309v-5.85c0-.718.592-1.31 1.31-1.31h5.857c.719 0 1.31.592 1.31 1.31v5.85c0 .74-.591 1.31-1.31 1.31ZM9.267 15.065h-6.68c-.994 0-1.798.803-1.798 1.795v13.326c0 .992.804 1.795 1.798 1.795H7.47c.994 0 1.797-.803 1.797-1.795v-4.857c0-.993.804-1.795 1.797-1.795h4.63c.994 0 1.797-.803 1.797-1.796V16.86c0-.992-.803-1.795-1.797-1.795H9.267ZM41.699.158h2.495v14.74h-2.495V.159ZM46.858 5.247h2.494v.95a2.946 2.946 0 0 1 2.347-1.14c1.1 0 2.093.57 2.77 1.52.634-.929 1.627-1.52 2.875-1.52 2.05 0 3.573 1.626 3.573 3.738V14.9h-2.495V8.985c0-.95-.676-1.71-1.607-1.71-1.015 0-1.67.823-1.67 1.816v5.808H52.65V8.985c0-.95-.676-1.71-1.649-1.71-.993 0-1.628.823-1.628 1.816v5.808h-2.515V5.247ZM63.221 5.247h2.495v1.035c.761-.76 1.797-1.225 3.066-1.225 2.6 0 4.757 2.218 4.757 5.026 0 2.81-2.157 5.027-4.758 5.027-1.268 0-2.304-.465-3.065-1.225v5.448h-2.495V5.247Zm7.844 4.836a2.746 2.746 0 0 0-2.748-2.766 2.764 2.764 0 0 0-2.77 2.766 2.764 2.764 0 0 0 2.77 2.767 2.773 2.773 0 0 0 2.748-2.767ZM74.786 10.083c0-2.787 2.199-5.026 5.116-5.026 2.876 0 5.096 2.218 5.096 5.026 0 2.81-2.22 5.027-5.096 5.027-2.917-.021-5.116-2.239-5.116-5.027Zm7.801 0a2.678 2.678 0 0 0-2.685-2.703c-1.543 0-2.748 1.183-2.748 2.703 0 1.52 1.205 2.725 2.748 2.725a2.724 2.724 0 0 0 2.685-2.725ZM86.012 13.653l1.396-1.711c.676.697 1.564 1.12 2.325 1.12.761 0 1.226-.402 1.226-.93 0-.676-.782-.845-1.945-1.246-1.5-.528-2.77-1.204-2.77-2.893 0-1.964 1.692-2.957 3.553-2.957 1.395 0 2.579.55 3.319 1.373l-1.459 1.478c-.55-.549-1.29-.93-1.945-.93-.613 0-1.015.318-1.015.825 0 .654.698.844 1.819 1.203 1.437.486 2.896 1.14 2.896 3.063 0 1.964-1.522 3.02-3.615 3.02-1.65.02-3.002-.655-3.785-1.415ZM94.279 13.653l1.395-1.711c.677.697 1.565 1.12 2.326 1.12.76 0 1.226-.402 1.226-.93 0-.676-.782-.845-1.945-1.246-1.501-.528-2.77-1.204-2.77-2.893 0-1.964 1.692-2.957 3.552-2.957 1.395 0 2.579.55 3.319 1.373l-1.458 1.478c-.55-.549-1.29-.93-1.945-.93-.614 0-1.015.318-1.015.825 0 .654.698.844 1.818 1.203 1.438.486 2.896 1.14 2.896 3.063 0 1.964-1.522 3.02-3.615 3.02-1.649.02-3.002-.655-3.784-1.415ZM103.327 2.1c0-.802.677-1.435 1.459-1.435.803 0 1.459.633 1.459 1.436 0 .802-.656 1.436-1.459 1.436a1.443 1.443 0 0 1-1.459-1.436Zm.233 3.147h2.452v9.651h-2.452v-9.65ZM111.002 13.653l-.064 1.245h-2.325V.159h2.495v6.187c.74-.886 1.902-1.33 3.086-1.33 2.706 0 4.842 2.239 4.842 5.047 0 2.81-2.136 5.048-4.842 5.048-1.332-.021-2.473-.55-3.192-1.457Zm5.539-3.59c0-1.585-1.205-2.81-2.77-2.81-1.543 0-2.769 1.225-2.769 2.81 0 1.583 1.226 2.83 2.769 2.83 1.565 0 2.77-1.247 2.77-2.83ZM120.98.158h2.474v14.74h-2.474V.159ZM135.505 10.506h-7.61c.189 1.563 1.31 2.576 2.727 2.576 1.014 0 1.966-.507 2.473-1.394l1.988.824c-.783 1.584-2.411 2.577-4.441 2.577-3.065 0-5.179-2.218-5.179-5.027 0-2.808 2.156-5.026 5.095-5.026 2.791 0 4.926 1.964 4.968 4.92l-.021.55Zm-7.357-1.88h4.735c-.401-.971-1.162-1.584-2.304-1.584-1.184-.02-2.008.592-2.431 1.584ZM41.699 18.89h9.197v2.492h-6.702v3.633h5.94v2.492h-5.94v6.124h-2.495v-14.74ZM52.481 20.833c0-.802.677-1.436 1.459-1.436.803 0 1.459.634 1.459 1.436 0 .803-.656 1.436-1.459 1.436a1.443 1.443 0 0 1-1.459-1.436Zm.233 3.147h2.452v9.651h-2.452V23.98ZM57.767 23.98h2.473v.887a3.617 3.617 0 0 1 2.58-1.077c1.945 0 3.467 1.584 3.467 3.61v6.252h-2.495v-5.934c0-1.014-.76-1.732-1.755-1.732-1.036 0-1.797.74-1.818 1.732v5.934h-2.473V23.98h.02ZM68.02 28.794c0-2.787 2.178-5.047 4.779-5.047 1.374 0 2.43.507 3.15 1.33V23.98h2.495v9.651h-2.326l-.063-1.245c-.72.908-1.819 1.436-3.256 1.436-2.622 0-4.778-2.218-4.778-5.027Zm7.992 0c0-1.541-1.205-2.766-2.748-2.766a2.75 2.75 0 0 0-2.77 2.766c0 1.542 1.205 2.788 2.77 2.788a2.777 2.777 0 0 0 2.748-2.788ZM81.023 23.98h2.473v.887a3.617 3.617 0 0 1 2.58-1.077c1.945 0 3.467 1.584 3.467 3.61v6.252h-2.495v-5.934c0-1.014-.76-1.732-1.755-1.732-1.036 0-1.797.74-1.818 1.732v5.934h-2.473V23.98h.02ZM91.276 28.816c0-2.788 2.2-5.026 5.117-5.026.719 0 1.437.147 2.05.422v2.767a2.654 2.654 0 0 0-2.05-.93c-1.565 0-2.728 1.225-2.728 2.767 0 1.542 1.142 2.745 2.728 2.745.846 0 1.564-.359 2.05-.929v2.788a5.088 5.088 0 0 1-2.05.422c-2.918-.021-5.117-2.238-5.117-5.026ZM109.945 29.238h-7.611c.19 1.563 1.311 2.577 2.727 2.577 1.015 0 1.966-.507 2.474-1.394l1.987.823c-.782 1.584-2.41 2.577-4.44 2.577-3.065 0-5.18-2.217-5.18-5.026 0-2.809 2.157-5.026 5.096-5.026 2.79 0 4.926 1.964 4.968 4.92l-.021.55Zm-7.379-1.88h4.736c-.402-.97-1.163-1.583-2.304-1.583-1.163-.021-2.009.591-2.432 1.584Z" />
</svg>