<svg xmlns="http://www.w3.org/2000/svg" fill="#fff" viewBox="0 0 153 42" width="153" height="42">
    <path fill-rule="evenodd"
        d="m19.365 29.382 1.255.697a.658.658 0 0 1 .262.878l-.69 1.268a.64.64 0 0 1-.87.265l-1.25-.697a.65.65 0 0 1-.246-.881l.673-1.265a.647.647 0 0 1 .38-.315.636.636 0 0 1 .49.05h-.004Zm-4.906-1.324 1.642.606c.198.071.36.218.45.41.091.191.103.411.033.611l-.586 1.67a.8.8 0 0 1-.405.455.782.782 0 0 1-.606.032l-1.645-.606a.796.796 0 0 1-.45-.41.809.809 0 0 1-.033-.611l.583-1.673a.8.8 0 0 1 .407-.455.784.784 0 0 1 .607-.03h.003Zm-5.519-.659 2.025.61a.95.95 0 0 1 .574.462.969.969 0 0 1 .078.737l-.604 2.049a.967.967 0 0 1-.461.57.95.95 0 0 1-.725.078l-2.025-.614a.95.95 0 0 1-.568-.464.968.968 0 0 1-.074-.734l.604-2.046a.963.963 0 0 1 .458-.568c.22-.122.48-.15.721-.08H8.94Zm4.667 7.485 1.318-1.147a.782.782 0 0 1 1.107.084l1.135 1.335a.8.8 0 0 1-.083 1.118l-1.328 1.146a.782.782 0 0 1-.866.105.785.785 0 0 1-.24-.192l-1.136-1.33a.8.8 0 0 1 .093-1.12Zm-5.954.64 1.67-1.358a.958.958 0 0 1 1.359.146l1.349 1.67a.99.99 0 0 1-.145 1.376l-1.67 1.359a.958.958 0 0 1-1.359-.147l-1.349-1.683a.986.986 0 0 1 .145-1.362ZM.968 37.209l1.928-1.742a1.156 1.156 0 0 1 .842-.3 1.151 1.151 0 0 1 .804.394l1.725 1.944a1.189 1.189 0 0 1-.094 1.666l-1.928 1.742a1.158 1.158 0 0 1-1.645-.094L.875 38.87a1.185 1.185 0 0 1 .093-1.662Zm26.051-12.833.207-1.202a.551.551 0 0 1 .229-.346.54.54 0 0 1 .403-.086l1.19.209a.538.538 0 0 1 .44.42c.015.07.017.143.005.214l-.207 1.206a.551.551 0 0 1-.224.354.54.54 0 0 1-.407.091l-1.19-.205a.543.543 0 0 1-.446-.435.556.556 0 0 1 0-.22Zm.69 4.453-.044-1.436a.655.655 0 0 1 .376-.611.637.637 0 0 1 .244-.058l1.425-.045a.638.638 0 0 1 .458.176c.123.118.196.28.201.451l.045 1.44a.653.653 0 0 1-.377.611.637.637 0 0 1-.244.057l-1.421.042a.632.632 0 0 1-.61-.38.65.65 0 0 1-.056-.247h.003Zm1.315 4.958-.321-1.742a.806.806 0 0 1 .342-.824.786.786 0 0 1 .29-.117l1.724-.324a.787.787 0 0 1 .587.136c.17.12.287.305.324.512l.32 1.742a.806.806 0 0 1-.347.816.786.786 0 0 1-.287.115l-1.725.324a.784.784 0 0 1-.582-.132.799.799 0 0 1-.325-.506Zm2.194 5.15-.49-2.09a.974.974 0 0 1 .108-.725.957.957 0 0 1 .582-.44l2.07-.49a.944.944 0 0 1 .716.11.96.96 0 0 1 .432.586l.49 2.09a.974.974 0 0 1-.11.724.957.957 0 0 1-.58.437l-2.07.495c-.243.06-.5.02-.715-.111a.964.964 0 0 1-.433-.586Zm4.084-7.833-1.642-.571a.79.79 0 0 1-.448-.405.802.802 0 0 1-.035-.606l.576-1.658a.794.794 0 0 1 .4-.452.776.776 0 0 1 .6-.033l1.642.59c.197.07.358.216.449.406.09.19.103.408.035.607l-.577 1.659a.792.792 0 0 1-.406.438.78.78 0 0 1-.594.025Zm3.526 4.878-2.001-.78a.965.965 0 0 1-.537-.514.983.983 0 0 1-.019-.747l.773-2.025a.975.975 0 0 1 .51-.54.96.96 0 0 1 .739-.02l2.004.793c.239.095.431.28.535.518.103.237.11.506.017.747l-.77 2.021a.981.981 0 0 1-.509.547.96.96 0 0 1-.742.021v-.02Zm4.784 5.007-2.453-.815a1.173 1.173 0 0 1-.676-.588 1.192 1.192 0 0 1-.069-.9l.811-2.48a1.182 1.182 0 0 1 .583-.683 1.157 1.157 0 0 1 .89-.067l2.453.816a1.161 1.161 0 0 1 .676.588 1.187 1.187 0 0 1 .065.9l-.814 2.501a1.178 1.178 0 0 1-.58.679c-.275.14-.593.165-.886.07v-.02ZM19.24 24.768l-1.114.478a.54.54 0 0 1-.714-.293l-.472-1.125a.555.555 0 0 1 .29-.721l1.114-.478a.54.54 0 0 1 .714.293l.472 1.125a.556.556 0 0 1-.29.722Zm3.336-2.992-1.172.815a.639.639 0 0 1-.894-.167l-.807-1.182a.654.654 0 0 1 .165-.902l1.173-.815a.637.637 0 0 1 .894.163l.807 1.185a.652.652 0 0 1-.166.902Zm3.412-3.802-1.263 1.216a.788.788 0 0 1-1.117-.035l-1.218-1.293a.801.801 0 0 1 .031-1.128l1.27-1.213a.789.789 0 0 1 1.12.031l1.205 1.29a.806.806 0 0 1-.028 1.132Zm3.105-4.652-1.47 1.54a.951.951 0 0 1-1.035.231.95.95 0 0 1-.314-.203l-1.524-1.48a.962.962 0 0 1-.293-.677.971.971 0 0 1 .268-.686l1.463-1.54a.958.958 0 0 1 1.352-.028l1.522 1.481a.96.96 0 0 1 .297.681.967.967 0 0 1-.273.692l.007-.01Zm-8.728.763.407 1.711a.798.798 0 0 1-.304.827.779.779 0 0 1-.279.128l-1.673.415a.776.776 0 0 1-.817-.305.796.796 0 0 1-.128-.28l-.435-1.715a.797.797 0 0 1 .302-.826.78.78 0 0 1 .278-.129l1.694-.41a.774.774 0 0 1 .826.3.796.796 0 0 1 .13.284Zm2.16-5.63.434 2.122a.988.988 0 0 1-.139.735.97.97 0 0 1-.613.421l-2.097.44a.956.956 0 0 1-.999-.408.979.979 0 0 1-.146-.352l-.449-2.13a.987.987 0 0 1 .137-.734.97.97 0 0 1 .612-.422l2.114-.439a.96.96 0 0 1 1 .413c.07.107.12.227.146.354ZM24.1 1.67l.649 2.526a1.185 1.185 0 0 1-.425 1.236c-.122.093-.262.16-.41.2l-2.501.658a1.155 1.155 0 0 1-1.224-.432 1.181 1.181 0 0 1-.197-.415l-.649-2.526a1.188 1.188 0 0 1 .125-.89c.156-.269.412-.463.71-.542l2.5-.659c.3-.078.618-.033.884.125.267.158.46.416.538.719Zm-.576 29.338.928.791a.556.556 0 0 1 .072.777l-.776.937a.542.542 0 0 1-.58.173.538.538 0 0 1-.186-.103l-.931-.78a.545.545 0 0 1-.171-.586.547.547 0 0 1 .102-.188l.773-.94a.546.546 0 0 1 .58-.182c.07.02.133.055.189.101Z"
        clip-rule="evenodd" />
    <path
        d="M116.485 16.897c-4.322 0-4.16 6.917 0 6.917 4.247 0 4.25-6.917 0-6.917Zm-9.886-3.055c-.944 0-1.872.25-2.69.727a5.432 5.432 0 0 0-1.973 1.985 5.495 5.495 0 0 0-.022 5.435 5.424 5.424 0 0 0 1.957 2.002 5.354 5.354 0 0 0 5.38.047 5.42 5.42 0 0 0 1.991-1.966h-1.287c-.385.535-.89.972-1.473 1.274a4.153 4.153 0 0 1-1.883.468c-2.346-.028-4.257-2.035-4.257-4.523 0-2.488 1.911-4.509 4.264-4.509.655.005 1.3.165 1.883.468.583.303 1.088.74 1.473 1.274h1.287a5.421 5.421 0 0 0-1.969-1.963 5.355 5.355 0 0 0-2.674-.72h-.007Zm20.58 3.055c4.323 0 4.161 6.917 0 6.917-4.267 0-4.27-6.917 0-6.917Zm.159 7.847c5.471 0 5.633-8.777 0-8.777a3.622 3.622 0 0 0-1.972.506 3.669 3.669 0 0 0-1.398 1.494V16.27h-1.108v12.631h1.108v-6.16c.315.62.798 1.136 1.392 1.49a3.632 3.632 0 0 0 1.964.513h.014Zm5.864-8.474h1.108v8.561h-1.108v-8.56Zm.552-3.174a.795.795 0 0 0-.742.497.814.814 0 0 0 .584 1.104.793.793 0 0 0 .822-.346.817.817 0 0 0-.109-1.026.798.798 0 0 0-.575-.23h.02Zm5.768 4.028h-1.48v5.617c-.032.317.056.636.245.892.247.198.562.29.876.258h.945v.85h-1.2c-1.311 0-1.966-.667-1.966-2v-5.617h-1.094v-.85h1.094v-1.492h1.107v1.492h1.48l-.007.85Zm5.25-.227c-4.322 0-4.139 6.917 0 6.917 4.243 0 4.243-6.917 0-6.917Zm-.158 7.847c-5.471 0-5.634-8.777 0-8.777a3.622 3.622 0 0 1 1.972.506 3.668 3.668 0 0 1 1.398 1.494V16.27h1.107v8.467h-1.107v-1.996a3.672 3.672 0 0 1-1.404 1.499 3.626 3.626 0 0 1-1.98.504h.014Zm6.437-10.983h1.107v10.976h-1.107V13.761Zm-84.775 5.97H62.05a2.08 2.08 0 0 1 .645-1.447 2.04 2.04 0 0 1 1.47-.557c1.194 0 2.139.832 2.111 2.003Zm1.38 3.177-1.725-.902c-1.004 1.693-3.812.933-3.894-1.067h6.154c.19-2.644-1.19-5.003-4.026-5.003-2.573 0-4.043 1.885-4.115 4.376a4.15 4.15 0 0 0 .595 2.412 4.09 4.09 0 0 0 1.86 1.627c.894.399 1.897.474 2.838.21a4.226 4.226 0 0 0 2.327-1.653h-.014Zm8.814-2.582c0 1.362-.849 2.554-2.277 2.554-2.998 0-3.039-5.105 0-5.105 1.407 0 2.277 1.182 2.277 2.551Zm-4.267 5.443-1.967.533c1.014 3.603 8.242 3.798 8.242-1.617v-8.477H76.47v1.247a2.972 2.972 0 0 0-1.137-1.144 2.933 2.933 0 0 0-1.56-.375c-5.33 0-5.279 8.784 0 8.784 1.245 0 2.069-.589 2.71-1.63v1.595c-.013 3.094-3.67 2.763-4.28 1.084ZM84.52 17.73c1.47 0 2.212 1.216 2.212 2.596 0 1.38-.742 2.592-2.212 2.592-1.47 0-2.211-1.216-2.211-2.592 0-1.376.742-2.596 2.211-2.596Zm0-1.798a4.319 4.319 0 0 0-2.412.75 4.385 4.385 0 0 0-1.594 1.975 4.435 4.435 0 0 0-.24 2.537c.169.851.585 1.632 1.194 2.245a4.336 4.336 0 0 0 2.227 1.198 4.31 4.31 0 0 0 2.511-.253 4.36 4.36 0 0 0 1.95-1.619 4.425 4.425 0 0 0-.549-5.552 4.314 4.314 0 0 0-3.087-1.28Zm7.69 5.986-1.943.474c.105.57.401 1.088.839 1.464 1.666 1.47 5.774 1.153 5.898-1.59.08-1.794-1.697-2.285-3.08-2.62-.542-.128-1.687-.442-1.653-1.174.056-1.233 2.65-1.303 2.76.248l1.956-.47a2.57 2.57 0 0 0-.855-1.468c-1.67-1.467-5.775-1.15-5.9 1.593-.082 1.79 1.701 2.285 3.078 2.616.545.133 1.69.443 1.656 1.178-.066 1.23-2.66 1.3-2.757-.25Zm-38.402-8.132v10.93h5.847v-1.61h-3.884v-9.32H53.81Zm62.525 10.958c-5.471 0-5.634-8.777 0-8.777a3.627 3.627 0 0 1 1.972.506 3.676 3.676 0 0 1 1.398 1.494V16.27h1.107v8.467h-1.107v-1.996a3.687 3.687 0 0 1-1.398 1.494 3.633 3.633 0 0 1-1.972.51Z" />
</svg>