<svg xmlns="http://www.w3.org/2000/svg" fill="#fff" viewBox="0 0 149 31" width="149" height="31">
    <path
        d="M121.141 7.236a8.322 8.322 0 0 0-6.022 2.57l-11.022 10.39c-1.022.915-2.289 1.443-3.592 1.408h-.247c-2.923-.211-5.282-2.641-5.494-5.564-.14-1.69.458-3.31 1.62-4.543 1.127-1.232 2.712-1.902 4.402-1.902 1.409 0 2.782.493 3.839 1.41.493.422 1.268.386 1.69-.142.423-.493.388-1.268-.141-1.69-1.514-1.268-3.416-2.007-5.423-2.007a8.423 8.423 0 0 0-6.127 2.676c-1.62 1.726-2.43 3.944-2.254 6.304.281 4.12 3.592 7.465 7.712 7.747h.599c1.831 0 3.697-.775 5.071-2.078l7.078-6.655v.352c0 4.613 3.768 8.381 8.382 8.381a8.437 8.437 0 0 0 4.226-1.127c.563-.352.774-1.056.422-1.655-.352-.563-1.056-.775-1.655-.422-.916.563-1.937.81-3.064.81a6.02 6.02 0 0 1-6.022-6.022c0-1.585.634-2.994 1.62-4.12l.176-.177.071-.07a5.953 5.953 0 0 1 4.12-1.655 6.02 6.02 0 0 1 6.022 6.021v7.22c0 .669.563 1.197 1.197 1.197a1.21 1.21 0 0 0 1.198-1.197v-7.22c0-4.472-3.768-8.24-8.382-8.24ZM140.616 7.236c-2.007 0-3.803.669-5.282 1.902v-.6a1.21 1.21 0 0 0-1.198-1.196 1.21 1.21 0 0 0-1.197 1.197v20.32c0 .669.563 1.197 1.197 1.197a1.21 1.21 0 0 0 1.198-1.197v-6.762A8.237 8.237 0 0 0 140.616 24c4.613 0 8.381-3.768 8.381-8.382-.035-4.613-3.768-8.381-8.381-8.381Zm0 14.368c-1.585 0-3.064-.599-4.156-1.655a6.51 6.51 0 0 1-1.126-1.514v-5.67c.07-.176.281-.458.493-.775a5.969 5.969 0 0 1 4.789-2.43 6.02 6.02 0 0 1 6.022 6.022c-.035 3.346-2.712 6.022-6.022 6.022ZM13.31 21.534H8.59a5.576 5.576 0 0 1-5.564-5.564V1.495C3.026.862 2.463.298 1.83.298 1.195.298.632.791.632 1.496v14.473c0 4.367 3.556 7.924 7.923 7.924h4.754c.634 0 1.198-.563 1.127-1.197.07-.599-.457-1.162-1.127-1.162ZM23.03 7.06a8.417 8.417 0 0 0-8.418 8.417c0 4.648 3.804 8.416 8.417 8.416 1.796 0 3.522-.598 4.966-1.69.563-.387.634-1.092.246-1.655-.387-.564-1.091-.634-1.655-.247a5.85 5.85 0 0 1-3.557 1.198 6.08 6.08 0 0 1-3.38-1.022c.07-.07.175-.14.246-.21l9.05-9.051a1.212 1.212 0 0 0 0-1.69A8.343 8.343 0 0 0 23.03 7.06Zm-4.79 11.551c-.07.07-.176.176-.211.247-.634-.987-1.022-2.149-1.022-3.381 0-3.31 2.712-6.022 6.022-6.022 1.198 0 2.325.352 3.346 1.021l-8.135 8.135ZM45.85 7.306c-1.691 0-3.276.81-4.227 2.043-1.021-1.268-2.535-2.078-4.296-2.078a5.369 5.369 0 0 0-3.486 1.268 1.16 1.16 0 0 0-.775-.282 1.21 1.21 0 0 0-1.198 1.197v13.312c0 .67.564 1.197 1.198 1.197s1.197-.563 1.197-1.197V12.765c0-1.69 1.409-3.064 3.064-3.064 1.69 0 3.064 1.409 3.064 3.064v9.966c0 .669.563 1.197 1.197 1.197a1.21 1.21 0 0 0 1.197-1.197V12.8c0-1.69 1.41-3.064 3.064-3.064 1.69 0 3.064 1.409 3.064 3.064v9.966c0 .67.564 1.197 1.197 1.197a1.21 1.21 0 0 0 1.198-1.197V12.8c0-3.029-2.465-5.494-5.459-5.494ZM61.45 7.307c-1.69 0-3.275.634-4.437 1.69-.176-.423-.599-.775-1.092-.775a1.21 1.21 0 0 0-1.197 1.198V22.73c0 .67.563 1.198 1.197 1.198a1.21 1.21 0 0 0 1.197-1.198v-8.733a4.344 4.344 0 0 1 4.367-4.367 4.344 4.344 0 0 1 4.367 4.367v8.733c0 .67.563 1.198 1.197 1.198a1.21 1.21 0 0 0 1.198-1.198v-8.698c-.07-3.698-3.064-6.726-6.797-6.726ZM85.573 14.35h-3.346c-.035 0-1.197-.036-1.866-.705-.387-.352-.564-.845-.564-1.514 0-2.078 2.008-2.43 2.466-2.465h5.775c.634 0 1.198-.564 1.198-1.198s-.494-1.197-1.198-1.197h-5.916c-1.62.14-4.72 1.303-4.72 4.825 0 1.303.423 2.43 1.233 3.204 1.339 1.338 3.275 1.409 3.522 1.409h3.346s1.091 0 1.796.669c.387.387.598.986.598 1.726 0 .774-.211 1.338-.598 1.725-.67.67-1.797.67-1.832.67H79.41c-.634 0-1.197.492-1.197 1.197 0 .634.493 1.197 1.197 1.197h6.057c.388 0 2.148-.07 3.592-1.338.88-.845 1.303-2.008 1.303-3.416 0-1.409-.422-2.57-1.303-3.416-1.408-1.374-3.31-1.374-3.486-1.374ZM72.754 7.553c-.634 0-1.197.493-1.197 1.197v13.98c0 .635.493 1.198 1.197 1.198a1.21 1.21 0 0 0 1.197-1.197V8.75c0-.635-.563-1.198-1.197-1.198ZM73.318 1.777c-.282-.282-.705-.282-1.022 0l-1.62 1.62c-.281.282-.281.704 0 1.021.141.141.353.212.493.212.177 0 .388-.035.494-.212l1.091-1.091 1.057 1.056c.281.282.704.282 1.021 0 .282-.282.282-.704 0-1.021l-1.514-1.585Z" />
</svg>