<svg xmlns="http://www.w3.org/2000/svg" fill="#fff" viewBox="0 0 144 22" width="144" height="22">
    <path
        d="M53.213 5.277V17.69h-2.84V8.333l-.1-.034-1.586 2.944a5528.718 5528.718 0 0 0-3.271 6.13.552.552 0 0 1-.581.35c-.45-.036-.901-.036-1.35 0a.828.828 0 0 1-.558-.101.844.844 0 0 1-.365-.439c-1.542-2.919-3.108-5.804-4.665-8.704a.267.267 0 0 0-.187-.156v9.366h-2.82V5.277h.48c1.114 0 2.234.03 3.363 0a.856.856 0 0 1 .549.122c.164.101.29.256.359.438 1.408 2.637 2.84 5.26 4.266 7.892.048.088.101.17.202.336.375-.672.72-1.29 1.057-1.913 1.163-2.14 2.325-4.276 3.474-6.427a.708.708 0 0 1 .288-.348.694.694 0 0 1 .437-.1h3.848ZM119.172 13.403V5.302h2.815v12.407h-2.469c-.163 0-.327-.21-.48-.34l-8.518-7.96-.361-.312v8.583h-2.796V5.277c.961 0 1.922-.034 2.883 0 .216 0 .422.297.619.487l7.976 7.357c.062.078.153.14.331.282ZM67.915 7.793V5.277H76.942a6.493 6.493 0 0 1 3.046.667c1.672.876 2.34 2.34 2.253 4.175a4.122 4.122 0 0 1-.774 2.367 4.039 4.039 0 0 1-1.988 1.472l-.236.082c-.062 0-.12.049-.178.073l3.527 3.616h-3.214a.84.84 0 0 1-.442-.283c-.932-.915-1.855-1.839-2.787-2.754a.824.824 0 0 0-.451-.262h-4.853v3.284h-2.911v-5.776c.202 0 .394-.024.586-.024h8.047a3.367 3.367 0 0 0 2.008-.486 1.89 1.89 0 0 0 .617-.727 1.918 1.918 0 0 0-.102-1.852 1.883 1.883 0 0 0-.692-.652 4.33 4.33 0 0 0-1.821-.409c-2.7-.039-5.4 0-8.096 0l-.566.005ZM103.265 17.713h-2.883c-.139 0-.307-.218-.398-.37a3821.11 3821.11 0 0 1-5.16-8.66c-.077-.127-.164-.253-.284-.438-.35.57-.677 1.1-.994 1.635-1.475 2.467-2.955 4.929-4.41 7.4a.809.809 0 0 1-.34.368.793.793 0 0 1-.487.095c-.817-.03-1.634 0-2.508 0 .063-.151.1-.268.159-.375l6.726-11.677a.699.699 0 0 1 .735-.433c.817.034 1.633 0 2.45.024a.628.628 0 0 1 .48.248c2.316 3.996 4.624 7.997 6.923 12.003.005.06.001.121-.009.18ZM143.737 17.714h-2.859a.723.723 0 0 1-.48-.35 2616.21 2616.21 0 0 1-5.141-8.608c-.091-.156-.192-.306-.326-.52l-1.74 2.88c-1.249 2.087-2.503 4.175-3.742 6.272a.6.6 0 0 1-.591.345h-2.724l1.652-2.885c1.768-3.069 3.53-6.139 5.285-9.21a.609.609 0 0 1 .644-.36h2.498a.677.677 0 0 1 .51.267c2.302 3.964 4.594 7.93 6.875 11.896.028.073.052.132.139.273ZM62.163 17.69H59.32V5.277h2.844V17.69ZM2.849 21.105A13.007 13.007 0 0 1 2.026 7.8a12.805 12.805 0 0 1 4.679-5.044 12.588 12.588 0 0 1 6.582-1.86c2.32 0 4.596.643 6.581 1.86A12.804 12.804 0 0 1 24.547 7.8a13.006 13.006 0 0 1-.823 13.305c-2.618-3.523-6.068-5.469-10.44-5.464-4.372.005-7.812 1.937-10.435 5.464Z" />

</svg>