<svg xmlns="http://www.w3.org/2000/svg" fill="#fff" viewBox="0 0 105 46" width="105" height="46">
    <path fill-opacity=".4"
        d="M77.893 22.603h12.074l-5.87-11.715a2730.888 2730.888 0 0 0-6.204 11.715ZM29.091 29.123l.005.005.01.008.001.002a.233.233 0 0 0-.015-.015Z" />
    <path fill-opacity=".4" fill-rule="evenodd"
        d="M105 0H0v41h15v-6h75v6h15V0ZM66.717 7.04c.518.157.873.635.873 1.178V29.98c0 .679-.549 1.23-1.226 1.23-.676 0-1.225-.551-1.225-1.23V12.305l-8.045 12.206a1.224 1.224 0 0 1-2.04.005l-8.17-12.25V29.98c0 .679-.55 1.23-1.226 1.23-.677 0-1.225-.551-1.225-1.23V8.218a1.223 1.223 0 0 1 2.243-.684l9.39 14.079L65.342 7.54a1.223 1.223 0 0 1 1.375-.5Zm17.429-.051c.457.005.873.267 1.079.677l10.904 21.761c.304.607.06 1.346-.544 1.651a1.223 1.223 0 0 1-1.645-.546l-2.74-5.47H76.603c-.731 1.4-1.366 2.623-1.842 3.556-.275.54-.495.977-.65 1.295a15.722 15.722 0 0 0-.213.453l-.001.003a1.224 1.224 0 0 1-2.34-.727c.04-.14.11-.296.148-.38.053-.117.123-.262.205-.43.165-.338.392-.791.67-1.335a492.46 492.46 0 0 1 2.198-4.236c2.549-4.868 6.07-11.498 8.271-15.623a1.225 1.225 0 0 1 1.096-.65ZM38.429 8.218c0-.679-.549-1.23-1.225-1.23-.677 0-1.226.551-1.226 1.23V29.98c0 .679.55 1.23 1.226 1.23.676 0 1.225-.551 1.225-1.23V8.218Zm-26.844-1.17a1.223 1.223 0 0 1 1.37.447 1576.76 1576.76 0 0 0 10.252 13.987 415.527 415.527 0 0 0 3.95 5.244V8.218c0-.679.548-1.23 1.225-1.23s1.225.551 1.225 1.23v21.866c0 .137-.035.837-.746 1.146a1.239 1.239 0 0 1-1.042-.025c-.202-.097-.352-.24-.396-.28l-.004-.004a6.575 6.575 0 0 1-.449-.487c-.329-.386-.792-.967-1.35-1.684a372.492 372.492 0 0 1-4.377-5.797A1468.08 1468.08 0 0 1 13.19 11.99v18.093c0 .679-.548 1.229-1.225 1.229s-1.225-.55-1.225-1.23V8.219c0-.533.341-1.005.846-1.17Z"
        clip-rule="evenodd" />
    <path
        d="M67.59 8.218c0-.543-.355-1.021-.873-1.177a1.223 1.223 0 0 0-1.375.499l-9.276 14.073-9.39-14.079a1.223 1.223 0 0 0-2.243.684V29.98c0 .679.548 1.23 1.225 1.23.676 0 1.225-.551 1.225-1.23V12.265l8.171 12.251a1.224 1.224 0 0 0 2.04-.005l8.045-12.205V29.98c0 .679.549 1.23 1.225 1.23.677 0 1.225-.551 1.225-1.23V8.218Z" />
    <path fill-rule="evenodd"
        d="M85.225 7.666a1.225 1.225 0 0 0-2.175-.028 2620.57 2620.57 0 0 0-8.271 15.622 486.79 486.79 0 0 0-2.198 4.237c-.278.544-.505.997-.67 1.334-.082.169-.152.314-.205.431-.038.084-.109.24-.149.38a1.224 1.224 0 0 0 2.34.727l.039-.086c.04-.088.098-.21.175-.37.156-.318.376-.756.65-1.295.477-.933 1.112-2.156 1.843-3.556H91.2l2.741 5.47c.304.607 1.04.851 1.645.546a1.231 1.231 0 0 0 .544-1.65L85.225 7.665Zm4.742 14.937H77.893c1.99-3.786 4.35-8.234 6.204-11.715l5.87 11.715Z"
        clip-rule="evenodd" />
    <path
        d="M38.429 8.218c0-.679-.549-1.23-1.225-1.23-.677 0-1.226.551-1.226 1.23V29.98c0 .679.549 1.23 1.226 1.23.676 0 1.225-.551 1.225-1.23V8.218Z" />
    <path fill-rule="evenodd"
        d="M12.955 7.495a1.223 1.223 0 0 0-1.37-.446 1.23 1.23 0 0 0-.846 1.169v21.866c0 .679.548 1.229 1.225 1.229s1.225-.55 1.225-1.23V11.992a1468.08 1468.08 0 0 0 8.054 10.962 371.772 371.772 0 0 0 4.377 5.797c.558.717 1.021 1.298 1.35 1.684.158.184.315.36.449.487l.004.004c.044.04.194.183.396.28a1.24 1.24 0 0 0 1.042.025c.71-.31.746-1.009.746-1.146V8.218c0-.679-.548-1.23-1.225-1.23s-1.225.551-1.225 1.23v18.508a414.452 414.452 0 0 1-3.95-5.244A1578.768 1578.768 0 0 1 12.955 7.495Zm16.141 21.633-.005-.005c.02.017.023.021.005.005Z"
        clip-rule="evenodd" />
    <path
        d="m32.348 41.345 1.463-3.086 1.462 3.086h-2.925ZM44.926 37.884h-1.588v3.103h1.588c.877 0 1.588-.694 1.588-1.551s-.71-1.552-1.588-1.552ZM73.872 41.345h-2.924l1.462-3.086 1.462 3.086Z" />
    <path fill-rule="evenodd"
        d="m15 35 75 .02V46H15V35Zm5.133 5.51c0-1.595 1.372-2.887 3.064-2.887.7 0 1.345.22 1.86.592l.448-.55a3.938 3.938 0 0 0-2.308-.735c-2.099 0-3.8 1.603-3.8 3.58s1.701 3.58 3.8 3.58c.867 0 1.668-.274 2.308-.735l-.447-.55a3.173 3.173 0 0 1-1.86.592c-1.693 0-3.065-1.292-3.065-2.887Zm39.451-2.745h2.321v6.087h.733v-6.087h2.32v-.716h-5.374v.716Zm-25.529-.597h-.489l-3.298 6.684h.855l.886-1.79h3.603l.886 1.79h.855l-3.298-6.684Zm9.283 6.684h-.733v-6.684h2.321c1.282 0 2.321 1.016 2.321 2.268 0 1.252-1.039 2.267-2.32 2.267h-1.589v2.149Zm10.139-6.684v6.684h.733v-6.684h-.733Zm28.46 6.087v-6.087h-.732v6.803h4.52v-.716h-3.787Zm-9.283-6.087h-.488l-3.298 6.684h.855l.885-1.79h3.604l.885 1.79h.855l-3.298-6.684Z"
        clip-rule="evenodd" />
</svg>