<svg xmlns="http://www.w3.org/2000/svg" fill="#fff" viewBox="0 0 150 30" width="150" height="30">
    <path fill-rule="evenodd"
        d="M24.066.738C23.82.174 23.467.104 22.94.104a346.84 346.84 0 0 1-8.564 0c-.634 0-.916.21-1.163.775-2.255 5.215-4.546 10.396-6.801 15.612h5.638c1.445-3.454 2.996-6.837 4.3-10.326.528-1.445 1.48-1.163 2.502-1.233.986-.106 1.48.246 1.867 1.233 3.067 7.4 6.203 14.73 9.34 22.096.176.458.246 1.022 1.021.987 1.657-.035 3.313 0 5.005 0-.036-.212 0-.353-.07-.458C32.03 19.416 28.048 10.077 24.065.738ZM4.12 21.53C3.028 24.032 1.9 26.57.737 29.178c1.868 0 3.489-.036 5.145 0 .529 0 .81-.177 1.022-.635.987-2.36 1.974-4.687 2.96-7.048H7.82c-1.339.035-2.608.035-3.7.035ZM73.686.738C73.58.456 73.404.42 73.157.42h-4.123c-.317 0-.458.106-.564.388l-3.277 7.718h2.713c.705-1.692 1.445-3.383 2.08-5.11.246-.705.704-.564 1.198-.6.493-.034.705.142.916.6 1.48 3.63 2.996 7.26 4.51 10.89.107.21.107.493.494.493.81-.035 1.586 0 2.432 0 0-.106 0-.176-.035-.212-1.974-4.651-3.877-9.233-5.815-13.85ZM116.398.738c-.106-.282-.282-.318-.528-.318h-4.124c-.317 0-.458.106-.564.388l-3.277 7.718h2.714c.704-1.692 1.445-3.383 2.079-5.11.247-.705.705-.564 1.198-.6.493-.034.705.142.916.6 1.48 3.63 2.996 7.26 4.511 10.89.106.21.106.493.494.493.81-.035 1.585 0 2.431 0 0-.106 0-.176-.035-.212a1450.979 1450.979 0 0 1-5.815-13.85ZM58.11 5.178c0-1.233-.142-2.185-.459-2.89-.317-.704-.846-1.198-1.55-1.515-.705-.317-1.727-.458-2.996-.458h-7.048v14.449h2.89v-4.758h4.581c1.656 0 2.82-.352 3.524-1.092.67-.81 1.057-2.044 1.057-3.736Zm-3.031 2.009c0 .352-.141.634-.423.775-.282.141-.81.212-1.55.212H48.91v-5.92h4.194c.74 0 1.269.07 1.55.21.283.142.424.388.424.776v3.947ZM97.086 7.927c.388-.67.564-1.586.564-2.784 0-1.233-.141-2.185-.458-2.89-.317-.705-.846-1.198-1.55-1.515C94.935.42 93.913.28 92.645.28h-7.19v14.449h2.855v-5.11h4.088l2.995 5.11h3.137l-3.242-5.392a3.04 3.04 0 0 0 1.797-1.41Zm-2.467-1.092c0 .352-.14.634-.423.775-.282.14-.81.211-1.55.211H88.31V2.218h4.335c.74 0 1.268.07 1.55.211.282.141.423.388.423.776v3.63ZM138.741 2.218l.317-1.938h-9.797v14.449h2.89V8.702h5.744V6.905h-5.744V2.218h6.59Z"
        clip-rule="evenodd" />
    <path d="M149.454.28h-2.819v14.449h2.819V.279Z" />
    <path fill-rule="evenodd"
        d="M64.03 10.923c-.529 1.233-1.058 2.502-1.621 3.806h2.467c.246 0 .387-.07.493-.317.458-1.163.951-2.326 1.445-3.49H64.03ZM106.813 10.923c-.529 1.233-1.058 2.502-1.622 3.806h2.467c.247 0 .388-.07.494-.317.458-1.163.951-2.326 1.445-3.49h-2.784ZM54.515 24.032a.964.964 0 0 1 .458-.458c.211-.106.493-.14.846-.14h1.127c.423 0 .74.07.952.246.176.14.282.423.317.81 0 .177.106.247.247.247.176 0 .246-.07.246-.246-.035-.53-.176-.917-.458-1.163-.282-.247-.705-.353-1.268-.353h-1.163c-.67 0-1.163.141-1.48.458-.318.317-.459.81-.459 1.516v2.15c0 .669.141 1.198.459 1.48.317.317.81.458 1.48.458h1.127c.564 0 .987-.106 1.269-.353.282-.247.423-.634.458-1.163 0-.176-.07-.247-.247-.247-.14 0-.246.071-.246.247-.035.388-.141.67-.317.81-.177.142-.494.212-.952.212H55.82c-.353 0-.67-.035-.846-.14a.964.964 0 0 1-.458-.459c-.106-.211-.141-.493-.141-.88v-2.15c0-.388.035-.67.14-.882ZM71.783 23.116c-.07-.141-.141-.177-.282-.177h-.035c-.141 0-.212.07-.282.177l-2.291 5.568c0 .035-.035.07-.035.105 0 .106.035.177.14.212.036.035.106.035.106.035.106 0 .177-.035.212-.14l.634-1.48h3.031l.634 1.48c.035.105.106.14.177.14.035 0 .07 0 .105-.035.106-.035.141-.106.141-.212 0-.035 0-.07-.035-.105l-2.22-5.568Zm-1.586 3.77 1.304-3.171 1.304 3.172h-2.608ZM86.866 22.904h-2.15c-.176 0-.246.07-.246.247v5.603c0 .176.07.247.246.247.177 0 .247-.07.247-.247v-2.29H86.9c.529 0 .916-.141 1.198-.423.282-.282.388-.67.388-1.234v-.282c0-.528-.14-.951-.423-1.233-.282-.247-.67-.388-1.198-.388Zm1.128 1.939c0 .387-.07.704-.247.88-.176.177-.458.283-.846.283h-1.938v-2.608H86.9c.388 0 .67.105.846.282.176.176.247.458.247.88v.283ZM99.13 22.904a.269.269 0 0 0-.176.07.269.269 0 0 0-.07.177v5.603c0 .07.035.141.07.176.035.036.106.071.176.071.07 0 .141-.035.176-.07a.27.27 0 0 0 .07-.177v-5.603a.27.27 0 0 0-.07-.176c-.07-.036-.105-.07-.176-.07ZM114.53 22.904h-4.44a.269.269 0 0 0-.176.07.27.27 0 0 0-.071.177c0 .07.036.141.071.176a.27.27 0 0 0 .176.07h1.973v5.357c0 .07.036.141.071.176.035.036.106.071.176.071a.267.267 0 0 0 .176-.07.266.266 0 0 0 .071-.177v-5.356h1.973a.272.272 0 0 0 .177-.07.27.27 0 0 0 .07-.177.27.27 0 0 0-.07-.176.272.272 0 0 0-.177-.07ZM126.019 23.116c-.071-.141-.141-.177-.282-.177h-.035c-.141 0-.212.07-.282.177l-2.291 5.568c0 .035-.035.07-.035.105 0 .106.035.177.141.212.035.035.106.035.106.035.105 0 .176-.035.211-.14l.634-1.48h3.031l.635 1.48c.035.105.105.14.176.14.035 0 .07 0 .105-.035.106-.035.141-.106.141-.212 0-.035 0-.07-.035-.105l-2.22-5.568Zm-1.586 3.77 1.304-3.171 1.304 3.172h-2.608ZM142.089 28.543h-2.819v-5.357c0-.176-.071-.247-.247-.247s-.247.07-.247.247v5.604c0 .176.071.246.247.246h3.066c.176 0 .247-.07.247-.247 0-.176-.106-.246-.247-.246Z"
        clip-rule="evenodd" />
</svg>