<svg xmlns="http://www.w3.org/2000/svg" viewBox="0 0 170 26" width="170" height="26">

    <path fill="url(#shimacapitalgrad)"
        d="M90.559 16.733c-.22.735-.514 1.434-.843 2.059-.11.22-.22.404-.33.625-.586.846-1.612 1.434-2.712 1.434a3.265 3.265 0 0 1-2.491-1.14 14.24 14.24 0 0 1-.11-.11c-.623-.699-1.503-1.14-2.492-1.14-.257 0-.477.037-.696.074v6.876c-.733.147-1.54.22-2.31.22-6.962 0-12.569-5.662-12.569-12.612S71.577.369 78.54.369c1.32 0 2.602.22 3.811.588l-3.738 3.75 2.273 2.28 7.988 8.017.33.331 1.356 1.398Z" />
    <path fill="#fff"
        d="m.632 16.549 1.172-.588c.623 1.434 2.052 2.206 3.885 2.206 1.978 0 3.48-1.03 3.48-2.795 0-1.912-1.721-2.28-3.59-2.684C3.417 12.21.96 11.584.96 8.716c0-2.243 2.09-3.971 4.581-3.971 2.052 0 3.921.993 4.69 2.868L9.098 8.2c-.66-1.397-1.906-2.17-3.592-2.17-1.685 0-3.151 1.104-3.151 2.612 0 1.912 1.759 2.28 3.664 2.684 2.162.478 4.581 1.103 4.581 4.008-.073 2.538-2.199 4.156-4.91 4.156-2.272 0-4.251-1.03-5.057-2.942ZM12.981 19.344V4.965h1.356v6.583h8.502V4.965h1.356v14.379h-1.356v-6.546h-8.502v6.509H12.98v.037ZM29.068 4.965v14.379h-1.356V4.965h1.356ZM31.524 19.344l2.052-13.055c.183-1.03.916-1.581 1.832-1.581.806 0 1.54.405 1.796 1.324l3.078 10.921c.073.331.146.442.33.442.183 0 .256-.147.33-.442L44.02 6.07c.256-.92.989-1.361 1.795-1.361.88 0 1.613.552 1.796 1.618L49.48 19.27h-1.356l-1.76-12.576c-.072-.478-.182-.772-.585-.772-.294 0-.514.257-.623.698L41.967 17.58c-.183.662-.733 1.03-1.355 1.03-.587 0-1.173-.332-1.356-.994L36.068 6.583c-.147-.44-.294-.661-.587-.661s-.55.257-.623.772l-1.942 12.613h-1.392v.037ZM54.573 6.473c.367-1.177 1.21-1.728 2.309-1.728 1.063 0 1.942.551 2.309 1.728l4.03 12.87H61.83l-1.21-4.008-7.402.037-1.282 3.972h-1.393l4.031-12.871Zm-1.026 7.575h6.633l-2.199-7.17c-.183-.589-.55-.883-1.099-.883-.586 0-.916.294-1.1.882l-2.235 7.171ZM93.344 12.136c0-4.119 3.225-7.391 7.146-7.391 2.419 0 4.543 1.213 5.679 3.199l-1.098.662a5.335 5.335 0 0 0-4.581-2.574c-3.115 0-5.717 2.684-5.717 6.104 0 3.457 2.565 6.141 5.717 6.141 1.905 0 3.628-.956 4.581-2.537l1.098.662c-1.136 1.985-3.26 3.199-5.679 3.199-3.921-.037-7.146-3.31-7.146-7.465ZM110.274 6.473c.366-1.177 1.209-1.728 2.309-1.728 1.099 0 1.942.551 2.308 1.728l4.031 12.87h-1.392l-1.209-4.008-7.403.037-1.283 3.972h-1.392l4.031-12.871Zm-1.026 7.575h6.633l-2.199-7.17c-.183-.589-.55-.883-1.099-.883-.586 0-.917.294-1.1.882l-2.235 7.171ZM120.974 19.344V4.965h4.142c3.664 0 6.156 1.618 6.156 4.965 0 3.456-2.602 5-6.12 5h-2.822v4.45h-1.356v-.036Zm1.356-13.092v7.355h2.786c2.638 0 4.727-1.066 4.727-3.714 0-2.537-1.943-3.677-4.727-3.677h-2.786v.036ZM134.533 4.965v14.379h-1.356V4.965h1.356ZM146.406 6.252h-4.58v13.092h-1.357V6.252h-4.543V4.965h10.48v1.287ZM149.521 6.473c.366-1.177 1.209-1.728 2.308-1.728 1.1 0 1.942.551 2.309 1.728l4.031 12.87h-1.429l-1.209-4.008-7.403.037-1.245 4.008h-1.393l4.031-12.907Zm-1.026 7.575h6.632l-2.198-7.17c-.184-.589-.55-.883-1.1-.883-.586 0-.915.294-1.099.882l-2.235 7.171ZM161.577 18.056h7.476v1.288h-7.476c-1.026 0-1.356-.515-1.356-1.36V4.964h1.356v13.091Z" />

    <defs>
        <linearGradient id="shimacapitalgrad" x1="67.297" x2="86.18" y1="24.034" y2="5.217"
            gradientUnits="userSpaceOnUse">
            <stop stop-color="#AAB3BC" />
            <stop offset="1" stop-color="#464E58" />
        </linearGradient>
    </defs>
</svg>