<svg xmlns="http://www.w3.org/2000/svg" fill="#fff" viewBox="0 0 100 44" width="100" height="44">
    <path
        d="M2.634 2.62v36.654h25.758c.614 0 .536-.074.54.553.005.669.001 1.337.001 2.037H0V0h99.557c.442 0 .443 0 .443.446v41.415H71.068v-2.587h25.798c.497 0 .498 0 .498-.497V3.117c0-.496 0-.496-.498-.496H2.634Z" />
    <path
        d="M57.446 28.473c-.813 0-1.577.008-2.34-.011-.098-.003-.237-.136-.279-.239a309.378 309.378 0 0 1-1.645-4.153c-.1-.26-.224-.377-.517-.376-2.162.01-4.325.009-6.487-.003-.292-.001-.463.09-.571.365a374.207 374.207 0 0 1-1.657 4.15c-.043.107-.17.252-.263.255-.65.022-1.3.012-2.008.012.232-.598.442-1.151.662-1.701 1.771-4.434 3.544-8.867 5.317-13.3.23-.576.462-1.152.68-1.733.073-.197.175-.292.398-.288.595.012 1.19.007 1.785.002.189-.001.291.042.372.25 1.15 2.956 2.317 5.905 3.477 8.858 1.012 2.573 2.022 5.146 3.03 7.72.019.064.034.127.046.192Zm-5.16-6.555-2.84-7.146-.093.016-2.84 7.13h5.772ZM71.56 11.455c-.24.305-.415.535-.599.757-.744.903-1.49 1.805-2.238 2.705-.76.92-1.518 1.84-2.275 2.763-.434.525-.866 1.053-1.316 1.566-.185.212-.229.356-.011.595 1.017 1.12 2.013 2.26 3.016 3.394.964 1.091 1.928 2.183 2.891 3.276.423.477.853.947 1.278 1.422.132.148.256.304.423.502-.16.02-.246.038-.332.038-.79.002-1.58.012-2.37-.008a.66.66 0 0 1-.428-.204 667.045 667.045 0 0 1-4.072-4.69 1160.266 1160.266 0 0 1-3.005-3.49c-.058-.068-.11-.14-.166-.21l-.08.033c-.008.175-.024.35-.024.525v7.602c0 .443 0 .443-.454.444-.493 0-.985-.007-1.477.003-.221.004-.317-.078-.302-.298.008-.113 0-.227 0-.34 0-5.319-.005-10.637-.01-15.955-.001-.342.09-.46.442-.438.48.027.962.028 1.442.002.29-.012.366.092.365.37-.01 2.488-.005 4.977-.005 7.466v.399l.082.042c.135-.138.28-.267.404-.415a1013.073 1013.073 0 0 0 6.242-7.579c.153-.19.312-.293.574-.284.635.02 1.27.007 2.006.007ZM84.981 13.21h-.472c-2.083 0-4.166.008-6.248-.007-.337-.002-.419.104-.416.425.016 1.568.007 3.136.007 4.704v.406c.164.007.296.019.428.019 1.717 0 3.433.008 5.15-.006.302-.002.41.084.388.386-.023.293-.005.59-.003.885.003.451-.007.464-.45.464h-5.013c-.5 0-.5.002-.5.501 0 1.773.008 3.545-.007 5.317-.003.324.08.426.418.424 2.265-.014 4.531 0 6.797-.015.346-.002.479.087.443.437-.028.27-.006.545-.006.818 0 .506 0 .507-.496.507h-7.244c-.63 0-1.26-.013-1.888.006-.296.01-.403-.078-.396-.383.017-.851.006-1.704.006-2.556v-13.6c0-.485.001-.486.48-.486h8.582c.44 0 .44.002.44.454v1.3ZM14.996 25.831c.55.216 1.022.397 1.49.588 1.007.41 2.063.603 3.137.725 1.162.132 2.604-.615 3.049-1.623.52-1.18.237-2.656-.944-3.44-1.125-.745-2.3-1.415-3.443-2.135-.995-.627-1.96-1.297-2.61-2.31a3.608 3.608 0 0 1-.57-1.75c-.066-1.06.133-2.045.795-2.91.706-.921 1.644-1.48 2.764-1.742 1.114-.26 2.237-.213 3.353-.01.69.124 1.373.286 2.057.443.078.018.195.114.196.176.015.632.01 1.264.01 1.973-.454-.152-.838-.308-1.237-.41-.866-.222-1.729-.514-2.61-.6-1.153-.112-2.47.41-2.94 1.6-.367.935-.098 1.869.636 2.454.82.655 1.725 1.215 2.633 1.75 1.08.634 2.175 1.242 3.106 2.085.675.611 1.171 1.343 1.35 2.265.25 1.297.116 2.52-.651 3.628-.58.835-1.385 1.392-2.323 1.77-1.065.43-2.176.495-3.312.47-1.217-.025-2.378-.334-3.553-.583-.27-.058-.41-.191-.393-.513.034-.61.01-1.222.01-1.901ZM26.741 13.19c0-.538-.006-1.047.009-1.555.002-.061.113-.142.19-.171.08-.03.181-.01.272-.01h13.561c.474 0 .474.002.473.459v1.298h-5.599c-.455 0-.456 0-.456.441v14.35c0 .473 0 .473-.49.473-.491 0-.984-.014-1.475.005-.28.011-.378-.074-.375-.362.014-1.159.006-2.318.006-3.477V13.7c0-.488 0-.49-.495-.49h-5.15c-.146 0-.292-.012-.47-.02ZM37.278 43.663c-.337.169-1.011.337-1.875.337-2.002 0-3.51-1.262-3.51-3.585 0-2.218 1.508-3.721 3.71-3.721.885 0 1.443.189 1.685.315l-.22.747a3.344 3.344 0 0 0-1.434-.295c-1.665 0-2.77 1.062-2.77 2.923 0 1.734 1 2.848 2.728 2.848.559 0 1.127-.115 1.496-.294l.19.725ZM39.796 41.666l-.738 2.229h-.948l2.413-7.085h1.106l2.424 7.085h-.98l-.759-2.229h-2.518Zm2.328-.715-.695-2.039c-.158-.462-.263-.883-.369-1.293h-.02c-.106.42-.222.852-.36 1.282l-.694 2.05h2.138ZM45.275 36.894c.581-.094 1.17-.14 1.76-.137.905 0 1.57.21 1.99.589.39.336.622.851.622 1.482 0 .641-.19 1.146-.548 1.514-.484.515-1.275.778-2.17.778a3.16 3.16 0 0 1-.738-.063v2.838h-.916v-7.001Zm.916 3.416c.249.056.504.08.759.074 1.106 0 1.78-.536 1.78-1.514 0-.936-.663-1.388-1.675-1.388a3.86 3.86 0 0 0-.864.074v2.754ZM51.975 36.81v7.085h-.916V36.81h.916ZM55.105 37.587h-2.16v-.777h5.258v.777h-2.171v6.308h-.927v-6.308ZM59.53 41.666l-.738 2.229h-.948l2.413-7.085h1.106l2.424 7.085h-.98l-.759-2.229H59.53Zm2.328-.715-.695-2.039c-.158-.462-.263-.883-.369-1.293h-.02c-.106.42-.222.852-.359 1.282l-.695 2.05h2.139ZM65.009 36.81h.916v6.317h3.035v.768h-3.951V36.81Z" />
</svg>