<svg xmlns="http://www.w3.org/2000/svg" fill="#fff" viewBox="0 0 132 24" width="132" height="24">
    <path
        d="M28.92 23.351V4.718h3.063v2.935h.1c.415-1.013 1.112-1.817 2.092-2.41a6.12 6.12 0 0 1 3.263-.918c1.228 0 2.35.34 3.362 1.022 1.013.682 1.81 1.608 2.391 2.778s.872 2.455.872 3.853c0 1.397-.29 2.681-.872 3.852-.581 1.17-1.378 2.097-2.391 2.778a5.894 5.894 0 0 1-3.362 1.022c-2.342 0-4.102-1.066-5.28-3.197h-.1v6.918h-3.139Zm7.696-6.813c.78 0 1.486-.184 2.117-.55a4.217 4.217 0 0 0 1.544-1.6c.382-.698.573-1.502.573-2.41 0-.909-.191-1.704-.573-2.385-.382-.7-.897-1.232-1.544-1.599a3.99 3.99 0 0 0-2.117-.576c-.764 0-1.47.192-2.118.576-.63.367-1.137.9-1.519 1.599-.365.681-.548 1.476-.548 2.385 0 .908.183 1.712.548 2.41a4.281 4.281 0 0 0 1.52 1.6c.647.366 1.353.55 2.117.55ZM53.126 19.604c-1.378 0-2.64-.34-3.786-1.022a7.66 7.66 0 0 1-2.715-2.804 7.816 7.816 0 0 1-.996-3.879c0-1.398.332-2.673.996-3.826a7.316 7.316 0 0 1 2.715-2.726c1.146-.681 2.408-1.022 3.786-1.022 1.378 0 2.64.34 3.786 1.022A7.26 7.26 0 0 1 59.627 8.1c.664 1.17.996 2.472.996 3.905 0 .35-.033.699-.1 1.048H48.966a4.168 4.168 0 0 0 1.445 2.49 4.193 4.193 0 0 0 2.765.996c.83 0 1.569-.192 2.216-.577a3.642 3.642 0 0 0 1.445-1.703h3.437c-.498 1.59-1.395 2.882-2.69 3.878-1.278.979-2.764 1.468-4.458 1.468Zm4.035-9.041c-.133-.892-.581-1.643-1.345-2.254-.764-.612-1.677-.918-2.74-.918-1.096 0-2.017.297-2.765.891-.747.594-1.179 1.354-1.295 2.28h8.145ZM66.038 19.21h-3.139V4.719h8.295v3.066h-5.156v11.427ZM76.13 19.21h-3.088V4.719h12.43v14.493h-3.09V7.784h-6.251v11.427ZM111.043 19.21h-3.337l-5.007-14.518h3.288l3.387 9.88 3.413-9.854h3.287l-5.031 14.493ZM123.235 19.604a6.252 6.252 0 0 1-3.487-1.022c-1.03-.682-1.843-1.608-2.441-2.778-.581-1.17-.872-2.455-.872-3.853 0-1.398.291-2.682.872-3.852.598-1.17 1.411-2.097 2.441-2.778a6.253 6.253 0 0 1 3.487-1.022c1.179 0 2.225.306 3.138.917a5.418 5.418 0 0 1 2.068 2.385h.099V4.718h3.039v14.493h-3.039v-2.83h-.099c-1.129 2.148-2.865 3.223-5.206 3.223Zm.648-3.093c.813 0 1.536-.192 2.167-.576a4.012 4.012 0 0 0 1.494-1.651c.365-.7.548-1.477.548-2.333 0-.873-.183-1.65-.548-2.332a3.838 3.838 0 0 0-1.494-1.625c-.631-.402-1.354-.603-2.167-.603-.814 0-1.536.201-2.167.603a3.887 3.887 0 0 0-1.47 1.625c-.349.681-.523 1.459-.523 2.332 0 .856.174 1.634.523 2.333.349.698.839 1.249 1.47 1.65.631.385 1.353.577 2.167.577ZM95.08 23.79a7.005 7.005 0 0 1-3.686-1.023 7.798 7.798 0 0 1-2.665-2.804 7.724 7.724 0 0 1-.972-3.8c0-1.397.324-2.681.972-3.852.664-1.17 1.552-2.088 2.665-2.752a7.005 7.005 0 0 1 3.686-1.022c1.329 0 2.55.34 3.662 1.022a7.138 7.138 0 0 1 2.665 2.752c.664 1.17.996 2.455.996 3.852 0 1.363-.332 2.63-.996 3.8a7.532 7.532 0 0 1-2.665 2.804 6.877 6.877 0 0 1-3.662 1.023ZM20.026 19.604c-1.13 0-2.142-.254-3.039-.76a5.509 5.509 0 0 1-2.117-2.123c-.498-.926-.747-1.974-.747-3.145V4.718h3.088v9.042c0 .89.258 1.58.773 2.07.514.472 1.195.708 2.042.708.863 0 1.536-.245 2.017-.734.498-.507.748-1.188.748-2.044V4.718h3.138v8.858c0 1.17-.257 2.22-.772 3.145a5.336 5.336 0 0 1-2.093 2.123c-.896.506-1.909.76-3.038.76Z" />
    <path fill-rule="evenodd"
        d="M2.726 18.817a6.2 6.2 0 0 0 3.014.76c1.113 0 2.134-.244 3.064-.734.93-.506 1.66-1.188 2.191-2.044a5.364 5.364 0 0 0 .823-2.909c0-1.31-.283-2.35-.847-3.118-.565-.786-1.204-1.345-1.918-1.677-.698-.332-1.628-.682-2.79-1.049-1.129-.367-1.91-.733-2.341-1.1-.415-.367-.623-.865-.623-1.494 0-.63.25-1.153.747-1.573.515-.419 1.196-.629 2.043-.629.797 0 1.453.228 1.967.682.532.454.797 1.048.797 1.782h3.089c0-1.013-.266-1.94-.797-2.778A5.553 5.553 0 0 0 9.028.944C8.148.455 7.176.21 6.114.21a6.23 6.23 0 0 0-2.99.734A5.745 5.745 0 0 0 .984 2.936 5.16 5.16 0 0 0 .21 5.688c0 1.205.265 2.166.797 2.882.531.717 1.129 1.24 1.793 1.573.68.314 1.56.646 2.64.996.88.28 1.536.524 1.968.734.448.21.78.48.996.812.216.332.324.786.324 1.363 0 .681-.274 1.258-.822 1.73-.531.471-1.245.707-2.142.707-.814 0-1.52-.245-2.117-.734-.581-.489-.872-1.092-.872-1.808H.286v2.393c.075.148.158.293.248.437a6.027 6.027 0 0 0 2.192 2.044Z"
        clip-rule="evenodd" />
</svg>