<svg xmlns="http://www.w3.org/2000/svg" fill="#fff" viewBox="0 0 83 51" width="83" height="51">
    <path
        d="M30.529 10.493c0 .175-.087.262-.262.262-.087 0-.131 0-.175-.044a.332.332 0 0 1-.087-.174V6.912c0-.088.044-.131.087-.175a.331.331 0 0 1 .175-.087c.175 0 .262.087.262.262v3.581Zm.83-6.376V1.758c0-.087.043-.13.087-.175a.331.331 0 0 1 .175-.087h2.795c.087 0 .131.044.175.087a.332.332 0 0 1 .087.175c0 .175-.087.262-.262.262h-2.577v2.097c0 .174-.087.262-.262.262-.087 0-.13 0-.175-.044 0-.087-.043-.131-.043-.218Zm-2.271-2.621c.087 0 .13.044.174.087a.33.33 0 0 1 .088.175c0 .175-.088.262-.262.262h-1.835c-.175 0-.262-.087-.262-.262 0-.087 0-.13.044-.175a.333.333 0 0 1 .218-.087h1.835ZM30.485.448v4.76h1.136c.087 0 .13.044.174.088a.331.331 0 0 1 .088.174v3.844c0 .175-.087.262-.262.262-.088 0-.131 0-.175-.044a.334.334 0 0 1-.087-.218V5.689h-1.136c-.087 0-.13 0-.175-.044a.332.332 0 0 1-.087-.175V.666H27.21c-.175 0-.262-.087-.262-.262 0-.175.087-.262.262-.262h3.013c.175.044.262.131.262.306Zm1.136-.262h1.965c.175 0 .262.087.262.262 0 .175-.087.262-.262.262h-1.965c-.088 0-.131 0-.175-.044a.332.332 0 0 1-.087-.175c0-.087.043-.13.087-.174.044-.131.131-.131.175-.131Zm2.882-.044c.088 0 .131.087.175.131.044.087.044.131 0 .218-.044.132-.131.219-.262.219-.131-.044-.175-.087-.218-.131-.044-.088-.044-.131-.044-.219.044-.13.13-.174.262-.174l.087-.044ZM38.87 7.349c0-.175.088-.262.263-.262.174 0 .262.087.262.262v3.057c0 .175-.088.262-.262.262-.175 0-.262-.087-.262-.262V7.349Zm4.674-3.45c-.175 0-.262-.088-.262-.263V.448c0-.087 0-.13.044-.175A.331.331 0 0 1 43.5.186c.088 0 .131.044.175.087a.331.331 0 0 1 .087.175v3.188c.044.175-.043.262-.218.262Zm1.354 6.725c-.087 0-.131-.043-.175-.087-.043-.044-.043-.131-.043-.175V1.496c0-.174.087-.262.262-.262.087 0 .13.044.174.088.044.043.088.087.088.174v8.866c0 .088-.044.131-.088.175-.087.087-.174.087-.218.087Zm-5.765-5.503c-.088 0-.131-.043-.219-.087-.043-.044-.043-.131-.043-.175V.45c0-.176.087-.263.262-.263.174 0 .262.087.262.262v4.15h4.149c.175 0 .262.087.262.261v4.674c0 .087-.044.13-.087.174-.044.044-.088.088-.175.088s-.131-.044-.175-.088c-.043-.043-.043-.13-.043-.174V5.12h-4.193Zm-1.354-.043c-.088 0-.131 0-.175-.044a.331.331 0 0 1-.087-.175V.45c0-.088.043-.132.087-.176a.33.33 0 0 1 .175-.087c.175 0 .262.087.262.262V4.86c0 .131-.087.219-.262.219Zm0 5.546c-.088 0-.131-.043-.175-.087a.331.331 0 0 1-.087-.175V6.213c0-.087.043-.13.087-.175a.33.33 0 0 1 .175-.087h4.542c.087 0 .131.044.175.088a.331.331 0 0 1 .087.174c0 .175-.087.262-.262.262h-4.324v3.887c0 .088-.043.131-.087.175 0 .087-.044.087-.131.087Zm5.852-.524c.088.044.131.088.131.131.044.044.044.131 0 .219-.043.13-.13.174-.262.174-.13-.043-.174-.087-.218-.13-.044-.088-.044-.132-.044-.219.044-.131.131-.218.262-.218h.044l.087.043ZM48.698 10.755c-.088 0-.131-.043-.175-.087a.33.33 0 0 1-.087-.175V6.126c0-.088.043-.131.087-.175a.331.331 0 0 1 .175-.087h4.149c.087 0 .13.043.175.087a.332.332 0 0 1 .087.175.332.332 0 0 1-.087.175c-.044.043-.131.043-.175.043H48.96v3.887h5.24c.175 0 .263.088.263.262 0 .088-.044.131-.087.175-.044.044-.088.087-.175.087h-5.503Zm0-5.721c-.088 0-.131-.044-.175-.087a.33.33 0 0 1-.087-.175V.36c0-.088.043-.131.087-.175a.331.331 0 0 1 .175-.087c.043 0 .13.043.174.087a.33.33 0 0 1 .088.175v4.192h3.887c.087 0 .13.044.175.088.043.044.087.087.087.175 0 .087-.044.13-.087.174a.331.331 0 0 1-.175.088h-4.15v-.044Zm5.46-3.538c.087 0 .13.044.174.088a.33.33 0 0 1 .087.174c0 .088-.043.131-.087.175-.044.044-.131.044-.175.044h-3.93V3.68c0 .087-.044.131-.088.175a.331.331 0 0 1-.175.087c-.087 0-.13-.044-.174-.087-.044-.044-.044-.131-.044-.175V1.758c0-.087 0-.13.044-.174a.331.331 0 0 1 .174-.088h4.193Zm-4.194-.83c-.087 0-.13-.043-.174-.087-.044-.044-.044-.131-.044-.175 0-.174.087-.262.262-.262h4.236c.088 0 .132.044.175.088.044.043.088.087.088.174 0 .088-.044.131-.088.175a.33.33 0 0 1-.174.087h-4.28Zm.044 6.29c.087 0 .131.043.175.087.043.044.087.087.087.175v1.79h3.014c.087 0 .13.044.174.088a.33.33 0 0 1 .088.174.33.33 0 0 1-.088.175c-.043.044-.13.044-.174.044h-3.276c-.175 0-.262-.088-.262-.262V7.174c0-.131.087-.218.262-.218Zm4.193 2.009c.087 0 .13.087.13.13.044.044.044.132 0 .22-.043.13-.13.174-.261.174a.466.466 0 0 1-.219-.131c-.043-.088-.043-.131-.043-.219.043-.13.13-.174.262-.174h.13ZM4.157 50.231c0-.213.088-.384.219-.47a.818.818 0 0 1 .525-.213h11.202c.481 0 .744.256.744.726a.7.7 0 0 1-.219.512.71.71 0 0 1-.481.214H4.945a.734.734 0 0 1-.525-.214c-.175-.17-.263-.341-.263-.555ZM.744 47.157c-.481 0-.744-.256-.744-.726V20.726c0-.47.263-.726.744-.726.525 0 .788.256.788.726v24.937h12.077c.262 0 .437.085.525.213a.778.778 0 0 1 .219.512c0 .47-.263.726-.788.726H.744v.043Zm3.37-22.417c0-.47.262-.726.743-.726.219 0 .394.085.525.213a.678.678 0 0 1 .219.47v18.147a.699.699 0 0 1-.219.513c-.131.128-.35.17-.525.17-.481 0-.744-.256-.744-.725V24.74ZM16.19 47.242c-.35-.085-.568-.256-.7-.427-.13-.213-.13-.427-.087-.64v-.043c.131-.341.394-.512.787-.512.044 0 .088 0 .132.043h.131c.263.042.394.213.481.384a.814.814 0 0 1 0 .64v.043c-.087.342-.35.512-.744.512ZM21.76 50.917c-.632-.166-.858-.498-.722-.954L32.58 21.456c.136-.331.406-.456.767-.456h.676c.361 0 .587.166.767.456L40.382 37.1a.864.864 0 0 1-.045.58.708.708 0 0 1-.45.332c-.046 0-.09 0-.136.042h-.09c-.36 0-.586-.166-.767-.498L33.71 22.992 22.48 50.502c-.136.29-.406.415-.722.415Zm26.514 0c-.361 0-.587-.125-.767-.415l-3.743-9.419H33.348c-.27 0-.45-.083-.631-.207-.136-.125-.18-.332-.18-.498 0-.457.27-.706.811-.706h10.957a.83.83 0 0 1 .722.374l3.923 9.917c.135.456 0 .746-.451.913l-.225.041ZM26.99 48.635c-.631-.166-.857-.498-.721-.954l6.493-17.677a.814.814 0 0 1 .766-.456c.045 0 .09 0 .136.041h.09c.225.042.36.208.45.374.09.166.09.332.046.498L27.71 48.137c-.135.332-.36.498-.721.498Zm16.233-.042c-.36 0-.631-.166-.721-.456L41.329 44.9H32.04a.78.78 0 0 1-.54-.207c-.136-.124-.181-.332-.181-.498 0-.456.27-.705.766-.705h9.876c.36 0 .586.166.766.456l1.308 3.735a.643.643 0 0 1-.045.497.709.709 0 0 1-.451.332l-.316.083Zm-.135-10.54c-.36 0-.586-.165-.767-.456l-4.69-13.236c-.135-.456 0-.747.452-.913.045-.041.135-.041.225-.041.36 0 .631.166.767.456L43.809 37.1a.864.864 0 0 1-.045.58c-.09.208-.27.29-.45.332l-.226.042ZM26.133 51c-.36-.083-.586-.208-.721-.373-.136-.208-.136-.415-.09-.664.135-.374.405-.581.811-.581.045 0 .09 0 .136.041h.135c.225.083.36.25.45.415.09.166.09.374.046.581v.042c-.135.373-.361.539-.767.539ZM53 35.457c0-1.409.178-2.818.533-4.227.4-1.41.934-2.69 1.645-3.886a18.108 18.108 0 0 1 2.666-3.373 13.469 13.469 0 0 1 3.556-2.477c.044-.042.178-.085.356-.085.266 0 .488.128.666.342a.661.661 0 0 1 .045.64c-.045.171-.178.3-.356.385-1.2.64-2.267 1.409-3.244 2.305a13.605 13.605 0 0 0-2.4 3.032A12.524 12.524 0 0 0 55 31.657c-.356 1.238-.489 2.52-.489 3.8 0 1.794.311 3.544.978 5.295.667 1.665 1.6 3.16 2.755 4.483a14.756 14.756 0 0 0 4.267 3.16c1.645.769 3.467 1.153 5.467 1.153 2 0 3.778-.384 5.422-1.153 1.644-.811 3.022-1.836 4.222-3.16a14.073 14.073 0 0 0 2.756-4.526 14.02 14.02 0 0 0 1.022-5.252 13.9 13.9 0 0 0-.933-5.038c-.623-1.666-1.467-3.117-2.578-4.398a14.435 14.435 0 0 0-4-3.203c-1.556-.811-3.245-1.28-5.111-1.409v3.16c0 .47-.267.726-.756.726-1.422 0-2.71.299-3.867.854a9.71 9.71 0 0 0-3.022 2.263c-.8.94-1.422 2.007-1.91 3.245a10.814 10.814 0 0 0-.667 3.758c0 1.28.222 2.519.666 3.715a10.167 10.167 0 0 0 1.956 3.245c.844.939 1.822 1.708 2.978 2.263 1.155.555 2.444.854 3.866.854 1.422 0 2.711-.3 3.867-.854 1.155-.555 2.178-1.281 3.022-2.22.845-.94 1.467-2.008 1.911-3.246.445-1.195.711-2.476.711-3.757 0-2.135-.533-4.057-1.6-5.722-1.066-1.666-2.489-2.904-4.31-3.672-.179-.043-.312-.171-.4-.342a.926.926 0 0 1 .044-.598c.089-.299.31-.427.71-.427.134 0 .223 0 .267.043 1.067.427 2 1.025 2.8 1.793a10.496 10.496 0 0 1 2.134 2.477c.622.897 1.066 1.921 1.378 3.032.355 1.11.488 2.263.488 3.458 0 1.495-.266 2.947-.844 4.356-.533 1.409-1.244 2.604-2.222 3.672-.933 1.067-2.09 1.921-3.467 2.562-1.333.64-2.844.94-4.489.94-1.644 0-3.11-.342-4.489-.983a11.269 11.269 0 0 1-3.466-2.562 12.448 12.448 0 0 1-2.223-3.672c-.533-1.41-.8-2.818-.8-4.313 0-1.409.223-2.775.712-4.142a11.188 11.188 0 0 1 2.088-3.586c.89-1.068 1.956-1.922 3.2-2.605 1.245-.726 2.667-1.11 4.223-1.196v-3.202c0-.47.266-.726.8-.726 2.177 0 4.177.427 6 1.324a14.909 14.909 0 0 1 4.71 3.458c1.334 1.41 2.356 3.075 3.112 4.91A15.354 15.354 0 0 1 83 35.5a15.57 15.57 0 0 1-1.111 5.85 16.055 16.055 0 0 1-3.111 4.953 15.138 15.138 0 0 1-4.756 3.416C72.2 50.573 70.2 51 68.067 51c-2.178 0-4.223-.427-6.045-1.281a15.466 15.466 0 0 1-4.71-3.416c-1.334-1.452-2.356-3.117-3.112-4.953-.844-1.922-1.2-3.843-1.2-5.893ZM63.444 20.94c.09-.341.356-.512.8-.512.134 0 .223 0 .267.043.222.042.356.213.445.384.088.213.088.427.044.64-.133.385-.4.598-.8.598-.356-.128-.622-.256-.756-.427a.661.661 0 0 1-.044-.64v-.086h.044Z" />
</svg>