<svg xmlns="http://www.w3.org/2000/svg" fill="#fff" viewBox="0 0 164 28" width="164" height="28">
    <path
        d="M.127 17.935a.518.518 0 0 0-.01.066.712.712 0 0 0-.009.076c0 .007-.003.014-.003.022 0 .015.004.028.004.042.002.025.003.05.009.075a.939.939 0 0 0 .035.131.645.645 0 0 0 .195.28c.018.015.035.03.054.044.02.015.042.027.064.04.012.007.023.017.037.023l17.191 8.51.02.007c.01.004.017.01.027.014.008.004.018.005.027.01l.042.013c.014.004.028.008.041.01.009.002.015.006.024.007l.024.003c.015.003.03.004.047.005l.047.003h.043l.048-.003.046-.005c.008-.001.017-.001.025-.003.008-.001.015-.004.023-.007.014-.002.027-.006.04-.01l.043-.014a.226.226 0 0 0 .027-.01c.01-.003.018-.009.028-.013.007-.003.014-.004.019-.007l17.191-8.51c.014-.006.024-.016.037-.023a.644.644 0 0 0 .065-.04c.019-.014.035-.029.053-.043a.555.555 0 0 0 .05-.048.817.817 0 0 0 .085-.11c.011-.018.02-.039.032-.059a.52.52 0 0 0 .049-.128l.015-.067c.004-.025.005-.05.008-.075.001-.014.004-.027.004-.042l-.003-.022a.72.72 0 0 0-.008-.076c-.003-.021-.005-.044-.01-.066a1.055 1.055 0 0 0-.02-.062c-.008-.024-.016-.05-.029-.073l-.007-.02L27.25.76l-.015-.02a.658.658 0 0 0-.087-.124L27.125.59a.74.74 0 0 0-.134-.108c-.012-.008-.025-.014-.037-.02a.802.802 0 0 0-.126-.054c-.015-.006-.03-.01-.045-.014a.699.699 0 0 0-.168-.023L26.61.369l-.022.002a.696.696 0 0 0-.131.015c-.014.003-.028.01-.041.012a.903.903 0 0 0-.107.038l-.018.007c-.013.007-.023.016-.036.023a.634.634 0 0 0-.065.04c-.019.014-.035.029-.053.044a.548.548 0 0 0-.05.047c-.015.018-.03.035-.044.054a.804.804 0 0 0-.04.056c-.012.019-.022.039-.032.06a.538.538 0 0 0-.03.063l-.02.065-.015.066c-.004.026-.005.05-.008.076-.001.013-.004.027-.004.042v15.308l-7.372-7.299a.695.695 0 0 0-.11-.089c-.017-.01-.036-.019-.054-.028-.023-.012-.045-.026-.07-.037-.023-.01-.047-.015-.07-.021-.021-.006-.041-.014-.062-.018a.697.697 0 0 0-.281 0c-.022.004-.041.012-.063.018-.025.006-.048.012-.071.021-.025.01-.047.025-.07.037-.018.01-.035.017-.053.028a.691.691 0 0 0-.11.09l-7.373 7.298V1.079c0-.015-.004-.029-.004-.042a.464.464 0 0 0-.008-.076c-.004-.023-.01-.045-.015-.066a.6.6 0 0 0-.082-.188.81.81 0 0 0-.085-.11C9.926.581 9.91.565 9.892.55 9.874.535 9.858.52 9.84.507 9.819.492 9.797.48 9.775.466L9.738.443 9.72.436a.753.753 0 0 0-.105-.038C9.6.394 9.586.388 9.57.385a.68.68 0 0 0-.13-.015C9.435.371 9.426.369 9.42.369L9.414.37a.68.68 0 0 0-.168.023l-.045.014a.688.688 0 0 0-.126.054l-.037.02a.688.688 0 0 0-.133.108c-.009.008-.015.019-.024.027a.66.66 0 0 0-.087.125c-.004.008-.011.013-.015.02L.182 17.78l-.007.019c-.011.023-.02.049-.029.073l-.019.062Zm8.995.872 5.264 5.212-10.529-5.212h5.265Zm17.784 0h5.264L21.642 24.02l5.264-5.212Zm.42-1.418V4.082l6.72 13.307h-6.72Zm-8.596 7.506V11.3l6.866 6.798-6.866 6.798Zm-1.432 0-6.866-6.798 6.866-6.798v13.596ZM1.982 17.39l6.72-13.307V17.39h-6.72ZM40.747 8.061c-.07-.244.069-.421.311-.421h1.592c.138 0 .277.122.312.245l1.8 6.997h.068l2.751-7.224c.035-.105.12-.192.294-.192h.311c.173 0 .26.087.294.192l2.773 7.224h.07l1.764-6.997c.035-.123.174-.245.312-.245h1.592c.241 0 .38.175.311.421l-3.27 11.785a.333.333 0 0 1-.312.244h-.276c-.156 0-.26-.088-.294-.193l-3.098-7.942h-.086l-3.064 7.942c-.052.105-.12.193-.294.193h-.276a.335.335 0 0 1-.312-.244L40.747 8.06ZM58.73 7.975c0-.175.155-.333.328-.333h1.61c.172 0 .328.158.328.333v11.609a.343.343 0 0 1-.329.333h-1.609a.343.343 0 0 1-.329-.333V7.975ZM65.612 7.781c0-.175.155-.315.329-.315h.432l7.199 7.75h.017V7.973a.33.33 0 0 1 .329-.333h1.592c.173 0 .328.158.328.333v11.8c0 .176-.155.316-.328.316h-.416l-7.234-8.048h-.018v7.54a.33.33 0 0 1-.329.333H65.94a.343.343 0 0 1-.329-.333v-11.8h.002ZM82.055 9.746h-2.648a.33.33 0 0 1-.329-.333V7.975a.33.33 0 0 1 .329-.333h7.563a.33.33 0 0 1 .328.333v1.438a.33.33 0 0 1-.328.333h-2.648v9.836a.343.343 0 0 1-.33.334h-1.608a.342.342 0 0 1-.33-.334V9.746ZM90.529 7.975a.33.33 0 0 1 .329-.333H97.9a.33.33 0 0 1 .329.333v1.438a.33.33 0 0 1-.33.333h-5.122v2.876h4.275c.173 0 .328.157.328.333v1.455a.33.33 0 0 1-.328.333h-4.275v3.07h5.123a.33.33 0 0 1 .329.332v1.439a.33.33 0 0 1-.33.333h-7.042a.33.33 0 0 1-.33-.333V7.975ZM102.279 7.975a.33.33 0 0 1 .328-.333h4.95a3.774 3.774 0 0 1 3.773 3.77c0 1.614-1.057 2.928-2.561 3.543l2.371 4.454c.121.228 0 .508-.294.508h-1.817a.295.295 0 0 1-.276-.158l-2.302-4.646h-1.92v4.47a.343.343 0 0 1-.329.334h-1.592a.33.33 0 0 1-.329-.333V7.975h-.002Zm5.087 5.26c.917 0 1.714-.806 1.714-1.788 0-.929-.796-1.701-1.714-1.701h-2.821v3.489h2.821ZM116.489 7.728c.017-.14.12-.262.311-.262h.276c.139 0 .242.07.294.175l3.808 8.277h.052l3.808-8.277c.052-.104.138-.175.293-.175h.277c.191 0 .294.122.311.262l2.043 11.783c.052.245-.087.404-.312.404h-1.574c-.155 0-.294-.14-.328-.263l-1.022-6.645h-.052l-3.029 6.892c-.035.104-.138.193-.294.193h-.31c-.156 0-.242-.089-.294-.193l-3.064-6.892h-.052l-1.004 6.645a.337.337 0 0 1-.312.263h-1.558c-.225 0-.363-.158-.329-.404l2.061-11.783ZM131.529 7.975c0-.175.156-.333.329-.333h1.644a.33.33 0 0 1 .329.333v7.172c0 1.49 1.004 2.665 2.51 2.665 1.506 0 2.527-1.175 2.527-2.648V7.976a.33.33 0 0 1 .328-.333h1.645c.173 0 .329.158.329.333v7.294c0 2.665-2.094 4.822-4.829 4.822-2.717 0-4.812-2.157-4.812-4.822V7.975ZM147.298 9.746h-2.648a.33.33 0 0 1-.328-.333V7.975a.33.33 0 0 1 .328-.333h7.563a.33.33 0 0 1 .329.333v1.438a.33.33 0 0 1-.329.333h-2.648v9.836a.342.342 0 0 1-.329.334h-1.609a.343.343 0 0 1-.329-.334V9.746ZM155.773 7.975a.33.33 0 0 1 .329-.333h7.043c.19 0 .329.158.329.333v1.438a.331.331 0 0 1-.329.333h-5.123v2.876h4.275c.172 0 .328.157.328.333v1.455a.33.33 0 0 1-.328.333h-4.275v3.07h5.123c.19 0 .329.157.329.332v1.439a.331.331 0 0 1-.329.333h-7.043a.33.33 0 0 1-.329-.333V7.975Z" />

</svg>