<svg xmlns="http://www.w3.org/2000/svg" xmlns:xlink="http://www.w3.org/1999/xlink" fill="#46A6FF" viewBox="0 0 116 51"
    width="116" height="51">
    <defs>
        <path id="reuse-0" fill="#00A146" d="m58.21 15.486.104-.048-.138-.063.033.111Z" />
        <path id="reuse-1" fill="#fff" d="m58.225 27.769-.005.005.01-.005h-.005Z" />
        <path id="reuse-2" fill="#fff" d="m58.22 27.773.013-.002-.003-.002-.01.005Z" />
        <path id="reuse-3" fill="#fff"
            d="m58.244 27.773-.007-.004-.007.002.014.002ZM58.228 27.77l.009-.003-.007-.009-.006.011h.004Z" />
        <path id="reuse-4" fill="#fff" d="m58.241 27.76-.01.003v.002l.011-.003v-.003Z" />
    </defs>
    <path fill="#1D1D1B"
        d="M19.646 41.206a6.069 6.069 0 0 1 2.254-2.247 6.476 6.476 0 0 1 6.319 0 6.081 6.081 0 0 1 2.258 2.247 6.399 6.399 0 0 1 0 6.3 6.064 6.064 0 0 1-2.259 2.252 6.49 6.49 0 0 1-6.318 0 6.049 6.049 0 0 1-2.254-2.247 6.427 6.427 0 0 1 0-6.3v-.005Zm1.667 5.346a4.214 4.214 0 0 0 1.564 1.569 4.48 4.48 0 0 0 4.375 0 4.181 4.181 0 0 0 1.564-1.569 4.472 4.472 0 0 0 0-4.385 4.227 4.227 0 0 0-1.564-1.569 4.347 4.347 0 0 0-5.242.702 4.37 4.37 0 0 0-.703 5.255l.006-.003ZM33.67 41.206a6.049 6.049 0 0 1 2.254-2.247 6.476 6.476 0 0 1 6.318 0 6.223 6.223 0 0 1 2.278 2.28 6.243 6.243 0 0 1-2.278 8.515 6.49 6.49 0 0 1-6.318 0 6.05 6.05 0 0 1-2.254-2.247 6.426 6.426 0 0 1 0-6.301Zm1.667 5.346a4.196 4.196 0 0 0 1.564 1.569 4.48 4.48 0 0 0 4.375 0 4.214 4.214 0 0 0 1.564-1.569 4.377 4.377 0 0 0-.704-5.254 4.352 4.352 0 0 0-5.241-.702c-.651.375-1.191.916-1.565 1.569a4.472 4.472 0 0 0 0 4.385l.007.002ZM47.723 38.29h4.702a6.028 6.028 0 0 1 3.07.804 6.07 6.07 0 0 1 3.029 5.262 6.09 6.09 0 0 1-.812 3.038 6.03 6.03 0 0 1-5.288 3.03h-4.701V38.29Zm6.803 9.797a4.128 4.128 0 0 0 1.515-1.551 4.538 4.538 0 0 0 0-4.346 4.13 4.13 0 0 0-1.51-1.556 4.055 4.055 0 0 0-2.106-.569h-2.792v8.586h2.792a4.04 4.04 0 0 0 2.102-.564ZM61.6 50.067a6.086 6.086 0 0 1-1.776-1.324l.416-.71a.797.797 0 0 1 .317-.288.923.923 0 0 1 .435-.103c.215 0 .425.065.6.188.355.245.735.45 1.134.612a2.87 2.87 0 0 0 1.066.259 2.544 2.544 0 0 0 1.602-.47 1.606 1.606 0 0 0 .604-1.343 1.415 1.415 0 0 0-.523-1.073 5.663 5.663 0 0 0-1.666-.92c-1.17-.425-2.03-.92-2.581-1.482a2.734 2.734 0 0 1-.833-1.986 3.174 3.174 0 0 1 .466-1.709 3.114 3.114 0 0 1 1.298-1.165 4.202 4.202 0 0 1 1.906-.417c.601.005 1.196.12 1.756.34.555.2 1.055.528 1.458.959l-.337.593c-.093.17-.227.313-.39.417a.917.917 0 0 1-.916.046 2.783 2.783 0 0 0-.798-.363 2.887 2.887 0 0 0-.767-.12c-.453-.019-.9.115-1.268.38a1.23 1.23 0 0 0-.49 1.028 1.139 1.139 0 0 0 .481.899 5.4 5.4 0 0 0 1.54.762c1.208.384 2.11.892 2.708 1.522.584.612.903 1.43.887 2.277a3.496 3.496 0 0 1-2.004 3.23 4.819 4.819 0 0 1-2.166.466 4.76 4.76 0 0 1-2.158-.505ZM68.936 38.29h9.25v1.88h-3.662v10.26h-1.91V40.163h-3.678V38.29ZM79.41 41.206a6.048 6.048 0 0 1 2.257-2.248 6.473 6.473 0 0 1 6.316 0 6.22 6.22 0 0 1 2.28 2.28 6.24 6.24 0 0 1-2.28 8.516 6.487 6.487 0 0 1-6.316.004 6.05 6.05 0 0 1-2.254-2.247 6.427 6.427 0 0 1 0-6.301l-.004-.004Zm1.666 5.346a4.181 4.181 0 0 0 1.564 1.569 4.48 4.48 0 0 0 4.375 0 4.214 4.214 0 0 0 1.564-1.569 4.376 4.376 0 0 0-.703-5.255 4.352 4.352 0 0 0-5.242-.701 4.228 4.228 0 0 0-1.564 1.568 4.458 4.458 0 0 0 0 4.386l.006.002ZM95.679 49.758a5.979 5.979 0 0 1-2.252-2.243 6.47 6.47 0 0 1 0-6.31 6.017 6.017 0 0 1 2.252-2.247 6.237 6.237 0 0 1 3.162-.822 5.947 5.947 0 0 1 2.425.526c.75.318 1.426.792 1.981 1.39l-.448.475a1.403 1.403 0 0 1-.967.434 1.042 1.042 0 0 1-.548-.146 4.603 4.603 0 0 0-1.162-.585 4.035 4.035 0 0 0-1.281-.208 4.303 4.303 0 0 0-2.192.568c-.651.37-1.19.91-1.56 1.564a4.55 4.55 0 0 0 0 4.413c.37.651.91 1.19 1.56 1.56a4.303 4.303 0 0 0 2.192.568 4.186 4.186 0 0 0 2.46-.81c.18-.113.388-.171.6-.17.175 0 .347.037.506.109.165.073.315.176.442.305l.456.476a5.69 5.69 0 0 1-1.991 1.437 6 6 0 0 1-2.473.537 6.237 6.237 0 0 1-3.162-.821Z" />
    <path fill="#878787"
        d="M109.4 38.78a1.095 1.095 0 0 1 .906-.49h1.817l-4.221 5.484 1.498-4.993Zm-1.47 5.87 4.491 5.774h-1.735a1.2 1.2 0 0 1-.588-.157 1.477 1.477 0 0 1-.469-.405" />
    <path fill="#575756"
        d="M113.254 38.29h1.817l-3.406 4.428-.377.499a2.189 2.189 0 0 1-1.875.984v.016c.108.021.979-.115 1.875.975l.387.483 3.694 4.749h-1.736c-.206 0-.408-.055-.587-.157a1.478 1.478 0 0 1-.469-.405l-3.899-5.117a1.33 1.33 0 0 0-.346-.325 1.766 1.766 0 0 0-.417-.21c.136-.039.264-.101.379-.183.141-.091.265-.207.365-.343l3.679-4.901a1.084 1.084 0 0 1 .916-.493Z" />
    <path fill="#1D1D1B"
        d="M107.219 38.299h-1.912v12.125h1.912V38.3ZM16.66 38.29l-4.065 10.1-1.57-3.974 2.482-6.126h-2.224l-1.338 3.4-1.356-3.4H6.362l2.486 6.123L7.294 48.4 3.28 38.29H.842L5.76 50.403h2.831l1.354-3.31 1.336 3.31h2.847l4.919-12.113h-2.388Z" />
    <path fill="#878787"
        d="M65.836.053s-5.208 1.562-7.527 6.02a9.579 9.579 0 0 1 1.03 3.378c.237 2.088-.696 5.304-.888 5.933 1.104-.512 5.662-2.763 7.083-5.668 1.643-3.323.302-9.663.302-9.663Z" />
    <use xlink:href="#reuse-0" />
    <path fill="#575756"
        d="M59.338 9.45a9.58 9.58 0 0 0-1.025-3.368C55.995 1.615 50.79.052 50.79.052s-1.341 6.341.296 9.656c1.429 2.905 5.987 5.156 7.083 5.668l.137.062.104.048.034-.11c.2-.629 1.143-3.851.895-5.925Z" />
    <path fill="#000"
        d="M58.243 27.773h-.023l-.244-.082-15.01-4.594a17.88 17.88 0 0 0 6.446 6.102 17.825 17.825 0 0 0 17.178.071 17.879 17.879 0 0 0 6.497-6.048l-14.85 4.544.006.007Z" />
    <path fill="#666"
        d="M74.5 16.988c.078-.649.118-1.301.118-1.955v-.209L59.32 26.784l13.42-4.863c1.637-1.512 1.595-3.536 1.76-4.933Z" />
    <use xlink:href="#reuse-1" />
    <use xlink:href="#reuse-2" />
    <path fill="#666"
        d="M41.846 14.835v.209c.002.653.042 1.306.12 1.955.164 1.397.132 3.42 1.76 4.926l13.415 4.86-15.295-11.95Z" />
    <use xlink:href="#reuse-3" />
    <use xlink:href="#reuse-4" />
    <use xlink:href="#reuse-0" />
    <path fill="#9D9D9C"
        d="M113.254 38.29h1.817l-3.406 4.428-.377.499a2.189 2.189 0 0 1-1.875.984v.016c.108.021.979-.115 1.875.975l.387.483 3.694 4.749h-1.736c-.206 0-.408-.055-.587-.157a1.478 1.478 0 0 1-.469-.405l-3.899-5.117a1.33 1.33 0 0 0-.346-.325 1.766 1.766 0 0 0-.417-.21c.136-.039.264-.101.379-.183.141-.091.265-.207.365-.343l3.679-4.901a1.084 1.084 0 0 1 .916-.493ZM59.338 9.45a9.58 9.58 0 0 0-1.025-3.368C55.995 1.615 50.79.052 50.79.052s-1.341 6.341.296 9.656c1.429 2.905 5.987 5.156 7.083 5.668l.137.062.104.048.034-.11c.2-.629 1.143-3.851.895-5.925Z" />
    <path fill="#fff"
        d="M19.646 41.206a6.069 6.069 0 0 1 2.254-2.247 6.476 6.476 0 0 1 6.319 0 6.081 6.081 0 0 1 2.258 2.247 6.399 6.399 0 0 1 0 6.3 6.064 6.064 0 0 1-2.259 2.252 6.49 6.49 0 0 1-6.318 0 6.049 6.049 0 0 1-2.254-2.247 6.427 6.427 0 0 1 0-6.3v-.005Zm1.667 5.346a4.214 4.214 0 0 0 1.564 1.569 4.48 4.48 0 0 0 4.375 0 4.181 4.181 0 0 0 1.564-1.569 4.472 4.472 0 0 0 0-4.385 4.227 4.227 0 0 0-1.564-1.569 4.347 4.347 0 0 0-5.242.702 4.37 4.37 0 0 0-.703 5.255l.006-.003ZM33.67 41.206a6.049 6.049 0 0 1 2.254-2.247 6.476 6.476 0 0 1 6.318 0 6.223 6.223 0 0 1 2.278 2.28 6.243 6.243 0 0 1-2.278 8.515 6.49 6.49 0 0 1-6.318 0 6.05 6.05 0 0 1-2.254-2.247 6.426 6.426 0 0 1 0-6.301Zm1.667 5.346a4.196 4.196 0 0 0 1.564 1.569 4.48 4.48 0 0 0 4.375 0 4.214 4.214 0 0 0 1.564-1.569 4.377 4.377 0 0 0-.704-5.254 4.352 4.352 0 0 0-5.241-.702c-.651.375-1.191.916-1.565 1.569a4.472 4.472 0 0 0 0 4.385l.007.002ZM47.723 38.29h4.702a6.028 6.028 0 0 1 3.07.804 6.07 6.07 0 0 1 3.029 5.262 6.09 6.09 0 0 1-.812 3.038 6.03 6.03 0 0 1-5.288 3.03h-4.701V38.29Zm6.803 9.797a4.128 4.128 0 0 0 1.515-1.551 4.538 4.538 0 0 0 0-4.346 4.13 4.13 0 0 0-1.51-1.556 4.055 4.055 0 0 0-2.106-.569h-2.792v8.586h2.792a4.04 4.04 0 0 0 2.102-.564ZM61.6 50.067a6.086 6.086 0 0 1-1.776-1.324l.416-.71a.797.797 0 0 1 .317-.288.923.923 0 0 1 .435-.103c.215 0 .425.065.6.188.355.245.735.45 1.134.612a2.87 2.87 0 0 0 1.066.259 2.544 2.544 0 0 0 1.602-.47 1.606 1.606 0 0 0 .604-1.343 1.415 1.415 0 0 0-.523-1.073 5.663 5.663 0 0 0-1.666-.92c-1.17-.425-2.03-.92-2.581-1.482a2.734 2.734 0 0 1-.833-1.986 3.174 3.174 0 0 1 .466-1.709 3.114 3.114 0 0 1 1.298-1.165 4.202 4.202 0 0 1 1.906-.417c.601.005 1.196.12 1.756.34.555.2 1.055.528 1.458.959l-.337.593c-.093.17-.227.313-.39.417a.917.917 0 0 1-.916.046 2.783 2.783 0 0 0-.798-.363 2.887 2.887 0 0 0-.767-.12c-.453-.019-.9.115-1.268.38a1.23 1.23 0 0 0-.49 1.028 1.139 1.139 0 0 0 .481.899 5.4 5.4 0 0 0 1.54.762c1.208.384 2.11.892 2.708 1.522.584.612.903 1.43.887 2.277a3.496 3.496 0 0 1-2.004 3.23 4.819 4.819 0 0 1-2.166.466 4.76 4.76 0 0 1-2.158-.505ZM68.936 38.29h9.25v1.88h-3.662v10.26h-1.91V40.163h-3.678V38.29ZM79.41 41.206a6.048 6.048 0 0 1 2.257-2.248 6.473 6.473 0 0 1 6.316 0 6.22 6.22 0 0 1 2.28 2.28 6.24 6.24 0 0 1-2.28 8.516 6.487 6.487 0 0 1-6.316.004 6.05 6.05 0 0 1-2.254-2.247 6.427 6.427 0 0 1 0-6.301l-.004-.004Zm1.666 5.346a4.181 4.181 0 0 0 1.564 1.569 4.48 4.48 0 0 0 4.375 0 4.214 4.214 0 0 0 1.564-1.569 4.376 4.376 0 0 0-.703-5.255 4.352 4.352 0 0 0-5.242-.701 4.228 4.228 0 0 0-1.564 1.568 4.458 4.458 0 0 0 0 4.386l.006.002ZM95.679 49.758a5.979 5.979 0 0 1-2.252-2.243 6.47 6.47 0 0 1 0-6.31 6.017 6.017 0 0 1 2.252-2.247 6.237 6.237 0 0 1 3.162-.822 5.947 5.947 0 0 1 2.425.526c.75.318 1.426.792 1.981 1.39l-.448.475a1.403 1.403 0 0 1-.967.434 1.042 1.042 0 0 1-.548-.146 4.603 4.603 0 0 0-1.162-.585 4.035 4.035 0 0 0-1.281-.208 4.303 4.303 0 0 0-2.192.568c-.651.37-1.19.91-1.56 1.564a4.55 4.55 0 0 0 0 4.413c.37.651.91 1.19 1.56 1.56a4.303 4.303 0 0 0 2.192.568 4.186 4.186 0 0 0 2.46-.81c.18-.113.388-.171.6-.17.175 0 .347.037.506.109.165.073.315.176.442.305l.456.476a5.69 5.69 0 0 1-1.991 1.437 6 6 0 0 1-2.473.537 6.237 6.237 0 0 1-3.162-.821ZM107.219 38.299h-1.912v12.125h1.912V38.3ZM16.66 38.29l-4.065 10.1-1.57-3.974 2.482-6.126h-2.224l-1.338 3.4-1.356-3.4H6.362l2.486 6.123L7.294 48.4 3.28 38.29H.842L5.76 50.403h2.831l1.354-3.31 1.336 3.31h2.847l4.919-12.113h-2.388ZM58.243 27.773h-.023l-.244-.082-15.01-4.594a17.88 17.88 0 0 0 6.446 6.102 17.825 17.825 0 0 0 17.178.071 17.879 17.879 0 0 0 6.497-6.048l-14.85 4.544.006.007Z" />
    <use xlink:href="#reuse-1" />
    <use xlink:href="#reuse-2" />
    <path fill="#DADADA"
        d="M109.4 38.78a1.095 1.095 0 0 1 .906-.49h1.817l-4.221 5.484 1.498-4.993Zm-1.47 5.87 4.491 5.774h-1.735a1.2 1.2 0 0 1-.588-.157 1.477 1.477 0 0 1-.469-.405M65.836.053s-5.208 1.562-7.527 6.02a9.579 9.579 0 0 1 1.03 3.378c.237 2.088-.696 5.304-.888 5.933 1.104-.512 5.662-2.763 7.083-5.668 1.643-3.323.302-9.663.302-9.663ZM74.5 16.988c.078-.649.118-1.301.118-1.955v-.209L59.32 26.784l13.42-4.863c1.637-1.512 1.595-3.536 1.76-4.933ZM41.846 14.835v.209c.002.653.042 1.306.12 1.955.164 1.397.132 3.42 1.76 4.926l13.415 4.86-15.295-11.95Z" />
    <use xlink:href="#reuse-3" />
    <use xlink:href="#reuse-4" />
</svg>