<svg xmlns="http://www.w3.org/2000/svg" viewBox="0 0 24 24" width="24" height="24">
    <path fill="#77B255" d="M2.013 17.497 4.3 19.785l-.616.615-2.288-2.287.616-.616Z" />
    <path fill="#FFD983" d="m4.241 19.725 2.288 2.288-.616.615-2.286-2.288.614-.615Z" />
    <path fill="#FFAC33" d="m4.182 16.158 2.288 2.288-.615.615-2.288-2.288.615-.615Z" />
    <path fill="#EA596E"
        d="m5.999 17.975 2.288 2.288-.616.615-2.287-2.288.615-.615Zm2.606-6.24 2.287 2.288-.615.616-2.288-2.288.616-.616Z" />
    <path fill="#FFAC33" d="m10.42 13.553 2.289 2.287-.616.615-2.288-2.287.616-.615Z" />
    <path fill="#77B255" d="m9.98 9.585 2.288 2.288-.615.615L9.365 10.2l.615-.615Z" />
    <path fill="#FFD983" d="m12.185 11.789 2.288 2.288-.616.615-2.288-2.288.616-.615Z" />
    <path fill="#FFAC33" d="m11.744 7.82 2.288 2.289-.615.614-2.288-2.287.615-.615Z" />
    <path fill="#EA596E"
        d="m13.949 10.025 2.288 2.288-.616.615-2.287-2.288.615-.615Zm2.309-6.718 2.288 2.288-.615.614-2.288-2.287.615-.615Z" />
    <path fill="#FFAC33" d="M18.463 5.511 20.75 7.8l-.616.615-2.288-2.288.616-.615Z" />
    <path fill="#77B255" d="m18.009 1.501 2.288 2.288-.616.616-2.288-2.288.616-.616Z" />
    <path fill="#FFD983" d="m20.24 3.733 2.288 2.288-.615.615-2.288-2.287.615-.616Z" />
    <path fill="#9266CC"
        d="M16.615.541c-1.68 1.68-1.734 4.097-1.598 6.538.334.018.668.04 1.002.062.26.018.516.034.772.05-.132-2.191-.132-4.2 1.071-5.403.485-.469.637-1.102.298-1.444-.357-.36-1.028-.331-1.545.197Z" />
    <path fill="#3B88C3"
        d="m8.764 17.1-.102-1.773c-.017-.297-.039-.6-.05-.888-.197-.198-1.643-.233-1.768-.108.009.293.031.589.047.884.019.335.084 1.517.1 1.774a25.3 25.3 0 0 1 .057 1.77c.173.173 1.58.292 1.763.108.01-.581-.014-1.174-.047-1.767Z" />
    <path fill="#55ACEE"
        d="m8.813 18.867-1.766-.108c-.017 1.472-.256 2.763-1.124 3.632a.882.882 0 1 0 1.246 1.247c1.616-1.615 1.645-4.783 1.644-4.771Z" />
    <path fill="#9266CC"
        d="M16.903 8.965a99.78 99.78 0 0 1-1.002-.063l-.772-.05c.132 2.19.132 4.2-1.072 5.403-1.202 1.203-3.208 1.204-5.396 1.072-.257-.016-1.439-.094-1.77-.112-2.445-.138-4.865-.084-6.547 1.598a.881.881 0 0 0 1.247 1.246c1.204-1.202 3.21-1.204 5.399-1.072.257.016 1.44.094 1.773.112 2.442.137 4.86.084 6.541-1.597 1.68-1.68 1.735-4.097 1.599-6.537Z" />
    <path fill="#744EAA"
        d="M16.903 8.965c-.019-.334-.097-1.518-.112-1.774a34.63 34.63 0 0 1-.043-.888c-.224-.014-1.4-.088-1.769-.108.009.293.022.588.038.884.018.334.096 1.518.112 1.774.036.609.06 1.202.054 1.77.222.014 1.396.088 1.763.108.01-.581-.01-1.172-.043-1.766Z" />
    <path fill="#55ACEE"
        d="M23.72 5.885c-.28-.291-.923-.401-1.527.235-1.203 1.203-3.211 1.204-5.402 1.071-.256-.015-1.44-.094-1.774-.112-2.44-.137-4.858-.082-6.538 1.598-1.476 1.476-1.696 3.522-1.635 5.653.369.02 1.546.095 1.769.108-.066-1.837.075-3.476 1.114-4.515 1.203-1.203 3.212-1.203 5.402-1.071.256.015 1.44.093 1.774.112 2.441.137 4.858.083 6.538-1.597.59-.58.56-1.192.28-1.482Z" />
</svg>