<svg xmlns="http://www.w3.org/2000/svg" viewBox="0 0 24 24" width="24" height="24">
    <path fill="#E1E8ED"
        d="m20.277 6.39-6-6a1.334 1.334 0 0 0-1.886 1.886L9.818 4.85l6 6 2.573-2.572a1.333 1.333 0 0 0 1.886-1.886Z" />
    <path fill="#CCD6DD"
        d="M13.333 0h-10A2.667 2.667 0 0 0 .667 2.667v18.666A2.667 2.667 0 0 0 3.333 24H18a2.667 2.667 0 0 0 2.667-2.667v-14h-6c-.667 0-1.334-.666-1.334-1.333V0Z" />
    <path fill="#99AAB5"
        d="M13.333 0H12v6a2.667 2.667 0 0 0 2.667 2.667h6V7.333h-6c-.667 0-1.334-.666-1.334-1.333V0ZM10 5.333A.667.667 0 0 1 9.333 6H4a.667.667 0 0 1 0-1.333h5.333c.368 0 .667.298.667.666ZM10 8a.667.667 0 0 1-.667.667H4a.667.667 0 0 1 0-1.334h5.333c.368 0 .667.299.667.667Zm8 2.667a.666.666 0 0 1-.667.666H4A.667.667 0 0 1 4 10h13.333c.369 0 .667.299.667.667Zm0 2.666a.666.666 0 0 1-.667.667H4a.666.666 0 1 1 0-1.333h13.333c.369 0 .667.298.667.666ZM18 16a.666.666 0 0 1-.667.667H4a.666.666 0 1 1 0-1.334h13.333c.369 0 .667.298.667.667Zm0 2.667a.666.666 0 0 1-.667.666H4A.666.666 0 1 1 4 18h13.333c.369 0 .667.298.667.667Z" />
    <path fill="#66757F"
        d="M20.667 12.667s-3.938-.002-3.957 0c-.194 0-.607.116-.837.404l-1.552 1.952c-.429.54-.429 1.413 0 1.954l1.552 1.952c.23.288.643.404.837.404.013.002 2.365 0 3.957 0v-6.666Z" />
    <path fill="#9488F0"
        d="M22 12.667s-5.37-.002-5.39 0c-.193 0-.606.092-.836.323l-1.552 1.561a1.11 1.11 0 0 0 0 1.563l1.552 1.561c.23.231.643.325.837.325H22c.736 0 1.333-.598 1.333-1.334V14c0-.736-.597-1.333-1.333-1.333Z" />
</svg>