<svg xmlns="http://www.w3.org/2000/svg" viewBox="0 0 24 24" width="24" height="24">
    <path fill="#FFCC4D" d="M12 24c6.627 0 12-5.373 12-12S18.627 0 12 0 0 5.373 0 12s5.373 12 12 12Z" />
    <path fill="#664500"
        d="M18.223 15.753a.334.334 0 0 0-.423-.02c-.026.02-2.615 1.934-5.8 1.934-3.177 0-5.775-1.914-5.8-1.934a.333.333 0 0 0-.486.438c.086.144 2.145 3.496 6.286 3.496s6.2-3.352 6.286-3.496a.332.332 0 0 0-.063-.418Z" />
    <path fill="#65471B" d="M12 17.727c-.099 0-.194-.007-.292-.01v3.01h.583v-3.011c-.096.003-.192.011-.291.011Z" />
    <path fill="#fff"
        d="M14.667 17.333c.01-.002-.967.252-1.631.324a9.435 9.435 0 0 1-.745.06v3.011h1.042c.734 0 1.334-.6 1.334-1.333v-2.062Zm-5.334 0c-.01-.002.967.252 1.631.324.244.028.491.051.745.06v3.011h-1.042c-.734 0-1.334-.6-1.334-1.333v-2.062Z" />
    <path fill="#65471B"
        d="M18.223 15.753a.334.334 0 0 0-.423-.02c-.02.015-1.506 1.112-3.607 1.647-.296.075-1.243.287-2.191.287-.95 0-1.9-.212-2.195-.287-2.101-.535-3.587-1.632-3.607-1.647a.334.334 0 0 0-.486.438c.065.108 1.257 2.045 3.62 2.988v-1.22c-.011-.002.966.252 1.63.324.244.028.491.051.745.06.097.003.192.01.291.01.099 0 .194-.007.292-.01a9 9 0 0 0 .745-.06c.664-.072 1.641-.326 1.63-.324v1.22c2.363-.943 3.555-2.88 3.62-2.988a.333.333 0 0 0-.064-.418Zm-.474-6.404c0 1.143-.625 2.07-1.397 2.07-.771 0-1.397-.927-1.397-2.07 0-1.142.625-2.069 1.397-2.069s1.397.927 1.397 2.07Zm-11.444 0c0 1.143.625 2.07 1.397 2.07.771 0 1.397-.927 1.397-2.07 0-1.142-.625-2.069-1.397-2.069s-1.397.927-1.397 2.07Z" />
    <path fill="#292F33"
        d="M23.205 6.418c-.114-.11-.844.183-1.584-.194-1.525-.777-5.38-1.527-7.889.25-.269.19-1.391.223-1.705.21-.314.013-1.437-.019-1.706-.21-2.508-1.777-6.363-1.027-7.888-.25-.74.377-1.47.083-1.584.194-.165.16-.165.797 0 .957.164.16.985.344 1.148.822.165.478.166 3.305 1.476 4.282 1.226.915 4.086 1.19 5.898.159 1.582-.9 1.526-2.793 1.816-3.92.104-.403.395-.605.84-.605.446 0 .737.202.84.604.29 1.128.234 3.022 1.816 3.921 1.813 1.03 4.673.755 5.898-.159 1.31-.976 1.312-3.804 1.476-4.282.163-.478.984-.663 1.148-.822.165-.16.166-.798 0-.957ZM9.743 8.851c-.052.737-.183 2.152-1.065 2.654-.54.308-1.245.495-1.983.495-.817 0-1.949-.231-2.392-.561-.553-.413-.764-2.112-.843-2.747-.05-.405-.187-1.393.259-1.545a8.758 8.758 0 0 1 2.701-.429c.462 0 2.014.029 2.77.494.67.411.581 1.234.553 1.64Zm10.852-.168c-.08.636-.29 2.343-.844 2.756-.442.33-1.574.561-2.391.561-.739 0-1.443-.187-1.984-.495-.882-.502-1.013-1.908-1.065-2.644-.028-.406-.117-1.234.553-1.646.757-.465 2.308-.497 2.77-.497 1.009 0 1.994.185 2.701.425.446.152.31 1.135.26 1.54Z" />
</svg>