<svg xmlns="http://www.w3.org/2000/svg" viewBox="0 0 24 24" width="24" height="24">
    <path fill="#FFD983"
        d="M22.626 12.774 12.218 2.529C11.752 2.062 11.138 2 10.527 2H3.378c-1.315 0-2.045.73-2.045 2.046v7.155c0 .611.064 1.223.53 1.69l10.323 10.412c.93.93 2.396.93 3.326 0l7.135-7.16c.93-.93.908-2.44-.021-3.37ZM6.555 7.224c-.415.415-2.421.415-2.836 0-.415-.416-.416-2.422 0-2.837.415-.416 3.087.252 3.502.667.415.416-.25 1.754-.666 2.17Z" />
    <path fill="#D99E82"
        d="M7.219 4.115a2.666 2.666 0 1 0 0 3.771 2.667 2.667 0 0 0 0-3.771ZM6.105 6.772a1.091 1.091 0 1 1-1.543-1.543 1.091 1.091 0 0 1 1.543 1.543Z" />
    <path fill="#C1694F" d="M5.815 6.37a.636.636 0 1 1-1.101-.635L7.195.461a.636.636 0 1 1 1.102.636L5.815 6.37Z" />
</svg>