<svg xmlns="http://www.w3.org/2000/svg" width="24" height="24" viewBox="0 0 24 24">
    <path fill="#935429"
        d="M0 8.267c0-1.494 0-2.24.29-2.811.256-.502.664-.91 1.166-1.165C2.026 4 2.773 4 4.266 4h12.8c1.494 0 2.24 0 2.811.29.502.256.91.664 1.166 1.166.29.57.29 1.317.29 2.81V14H0V8.267Z" />
    <path fill="#30A48F"
        d="m3.825 6.114 11.076-2.968c1.082-.29 1.623-.435 2.093-.335a2 2 0 0 1 1.07.618c.322.357.466.898.756 1.98l1.208 4.507c.193.721.29 1.082.224 1.395a1.333 1.333 0 0 1-.412.714c-.238.214-.6.31-1.32.504L6.413 15.773l-2.588-9.66Z" />
    <path fill="#5ABEAC"
        d="m0 8.712 9.224-6.811c.901-.666 1.352-.998 1.825-1.077a2 2 0 0 1 1.223.184c.43.215.762.665 1.427 1.566l4.728 6.402c.444.601.665.901.718 1.217.046.278.003.563-.123.815-.143.286-.443.508-1.044.952L7.896 19.405 0 8.712Z" />
    <circle cx="7.925" cy="9.905" r="3.667" fill="#89E2D2" transform="rotate(-36.4 7.925 9.905)" />
    <path fill="#89E2D2" fill-rule="evenodd"
        d="M11.04 3.461 8.893 5.045l-.396-.536 2.145-1.584a1 1 0 0 1 1.399.21l2.376 3.218-.536.396-2.377-3.218a.333.333 0 0 0-.466-.07Z"
        clip-rule="evenodd" />
    <path fill="#30A38F" fill-opacity=".5" d="M.667 8.667h17.666l.334.666h-18v-.666Z" />
    <path fill="#C47E4D"
        d="M18.4 9.333H2.667A2.667 2.667 0 0 1 0 6.667v13.066c0 1.494 0 2.24.29 2.811.256.502.664.91 1.166 1.165.57.291 1.317.291 2.81.291H18.4c1.494 0 2.24 0 2.81-.29.502-.256.91-.664 1.166-1.166.29-.57.29-1.317.29-2.81V13.6c0-1.493 0-2.24-.29-2.81a2.666 2.666 0 0 0-1.165-1.166c-.57-.29-1.317-.29-2.811-.29Z" />
    <path fill="#925429"
        d="M14 16.667a3.333 3.333 0 0 1 3.333-3.334h5.6c.374 0 .56 0 .703.073a.667.667 0 0 1 .291.291c.073.143.073.33.073.703v4.533c0 .374 0 .56-.073.703a.667.667 0 0 1-.291.291c-.143.073-.33.073-.703.073h-5.6A3.333 3.333 0 0 1 14 16.667Z" />
    <path fill="#EFC75E" d="M19.333 16.667a2 2 0 1 1-4 0 2 2 0 0 1 4 0Z" />
</svg>