<svg width="300" height="260" viewBox="0 0 300 260" fill="none" xmlns="http://www.w3.org/2000/svg"><path d="M0 25.6C0 16.6392.0 12.1587 1.7439 8.73615 3.27787 5.72556 5.72556 3.27787 8.73615 1.7439 12.1587.0 16.6392.0 25.6.0H274.4C283.361.0 287.841.0 291.264 1.7439 294.274 3.27787 296.722 5.72556 298.256 8.73615 3e2 12.1587 3e2 16.6392 3e2 25.6V86.4C3e2 95.3608 3e2 99.8413 298.256 103.264 296.722 106.274 294.274 108.722 291.264 110.256 287.841 112 283.361 112 274.4 112H25.6c-8.9608.0-13.4413.0-16.86385-1.744C5.72556 108.722 3.27787 106.274 1.7439 103.264.0 99.8413.0 95.3608.0 86.4V25.6z" fill="#12161c"/><path d="M146 45c0-2.2091 1.791-4 4-4h45c2.209.0 4 1.7909 4 4v0c0 2.2091-1.791 4-4 4H150c-2.209.0-4-1.7909-4-4v0z" fill="#29313a"/><path d="M146 66c0-2.2091 1.791-4 4-4h84c2.209.0 4 1.7909 4 4v0C238 68.2091 236.209 70 234 70H150C147.791 70 146 68.2091 146 66v0z" fill="#29313a"/><path d="M16 45c0-3.866 3.134-7 7-7v0c3.866.0 7 3.134 7 7v0c0 3.866-3.134 7-7 7v0c-3.866.0-7-3.134-7-7v0z" fill="#29313a"/><path d="M16 66c0-3.866 3.134-7 7-7v0c3.866.0 7 3.134 7 7v0c0 3.866-3.134 7-7 7v0c-3.866.0-7-3.134-7-7v0z" fill="#29313a"/><path d="M37 45c0-2.2091 1.7909-4 4-4h70c2.209.0 4 1.7909 4 4v0c0 2.2091-1.791 4-4 4H41c-2.2091.0-4-1.7909-4-4v0z" fill="#29313a"/><path d="M37 66c0-2.2091 1.7909-4 4-4H64C66.2091 62 68 63.7909 68 66v0C68 68.2091 66.2091 70 64 70H41C38.7909 70 37 68.2091 37 66v0z" fill="#29313a"/><path opacity=".6" d="M0 89.6C0 80.6392.0 76.1587 1.7439 72.7362 3.27787 69.7256 5.72556 67.2779 8.73615 65.7439 12.1587 64 16.6392 64 25.6 64H274.4C283.361 64 287.841 64 291.264 65.7439 294.274 67.2779 296.722 69.7256 298.256 72.7362 3e2 76.1587 3e2 80.6392 3e2 89.6v60.8C3e2 159.361 3e2 163.841 298.256 167.264 296.722 170.274 294.274 172.722 291.264 174.256 287.841 176 283.361 176 274.4 176H25.6c-8.9608.0-13.4413.0-16.86385-1.744C5.72556 172.722 3.27787 170.274 1.7439 167.264.0 163.841.0 159.361.0 150.4V89.6z" fill="#0b0f14"/><path d="M0 100.6C0 91.6392.0 87.1587 1.7439 83.7362 3.27787 80.7256 5.72556 78.2779 8.73615 76.7439 12.1587 75 16.6392 75 25.6 75H274.4C283.361 75 287.841 75 291.264 76.7439 294.274 78.2779 296.722 80.7256 298.256 83.7362 3e2 87.1587 3e2 91.6392 3e2 100.6V234.4C3e2 243.361 3e2 247.841 298.256 251.264 296.722 254.274 294.274 256.722 291.264 258.256 287.841 260 283.361 260 274.4 260H25.6C16.6392 260 12.1587 260 8.73615 258.256 5.72556 256.722 3.27787 254.274 1.7439 251.264.0 247.841.0 243.361.0 234.4V100.6z" fill="#1e242c"/><path opacity=".4" d="M118 103c0-2.209 1.791-4 4-4H231c2.209.0 4 1.791 4 4v0c0 2.209-1.791 4-4 4H122c-2.209.0-4-1.791-4-4v0z" fill="#9488f0"/><path d="M16 103c0-3.866 3.134-7 7-7v0c3.866.0 7 3.134 7 7v0c0 3.866-3.134 7-7 7v0c-3.866.0-7-3.134-7-7v0z" fill="#343d48"/><path d="M36.7363 103.08c0-2.253 1.8268-4.08 4.0803-4.08H62.2519c2.2535.0 4.0803 1.827 4.0803 4.08v0C66.3322 105.334 64.5054 107.161 62.2519 107.161H40.8167c-2.2535.0-4.0804-1.827-4.0804-4.081v0z" fill="#343d48"/><path opacity=".4" d="M118 174c0-2.209 1.791-4 4-4h35c2.209.0 4 1.791 4 4v0c0 2.209-1.791 4-4 4H122c-2.209.0-4-1.791-4-4v0z" fill="#9488f0"/><path opacity=".4" d="M118 202c0-2.209 1.791-4 4-4h43c2.209.0 4 1.791 4 4v0c0 2.209-1.791 4-4 4H122c-2.209.0-4-1.791-4-4v0z" fill="#9488f0"/><path opacity=".4" d="M182 202c0-2.209 1.791-4 4-4h90c2.209.0 4 1.791 4 4v0c0 2.209-1.791 4-4 4H186c-2.209.0-4-1.791-4-4v0z" fill="#3e4854"/><path opacity=".4" d="M182 174c0-2.209 1.791-4 4-4h53c2.209.0 4 1.791 4 4v0c0 2.209-1.791 4-4 4H186c-2.209.0-4-1.791-4-4v0z" fill="#3e4854"/><path opacity=".4" d="M118 229c0-2.209 1.791-4 4-4h47c2.209.0 4 1.791 4 4v0c0 2.209-1.791 4-4 4H122c-2.209.0-4-1.791-4-4v0z" fill="#3e4854"/><path opacity=".4" d="M181 229c0-2.209 1.791-4 4-4h84c2.209.0 4 1.791 4 4v0c0 2.209-1.791 4-4 4H185c-2.209.0-4-1.791-4-4v0z" fill="#3e4854"/><path d="M16 174C16 170.134 19.134 167 23 167v0C26.866 167 30 170.134 30 174v0C30 177.866 26.866 181 23 181v0C19.134 181 16 177.866 16 174v0z" fill="#343d48"/><path d="M16 202C16 198.134 19.134 195 23 195v0C26.866 195 30 198.134 30 202v0C30 205.866 26.866 209 23 209v0C19.134 209 16 205.866 16 202v0z" fill="#343d48"/><path d="M16 230C16 226.134 19.134 223 23 223v0C26.866 223 30 226.134 30 230v0C30 233.866 26.866 237 23 237v0C19.134 237 16 233.866 16 230v0z" fill="#343d48"/><path d="M36.7363 174.08C36.7363 171.827 38.5631 170 40.8166 170H62.2519C64.5054 170 66.3322 171.827 66.3322 174.08v0C66.3322 176.334 64.5054 178.161 62.2519 178.161H40.8167C38.5632 178.161 36.7363 176.334 36.7363 174.08v0z" fill="#343d48"/><path d="M37 202c0-2.209 1.7909-4 4-4H93C95.2091 198 97 199.791 97 202v0C97 204.209 95.2091 206 93 206H41c-2.2091.0-4-1.791-4-4v0z" fill="#343d48"/><path d="M37 230c0-2.209 1.7909-4 4-4H56c2.2091.0 4 1.791 4 4v0c0 2.209-1.7909 4-4 4H41c-2.2091.0-4-1.791-4-4v0z" fill="#343d48"/><path opacity=".4" d="M118 146c0-2.209 1.791-4 4-4v0c2.209.0 4 1.791 4 4v0c0 2.209-1.791 4-4 4v0c-2.209.0-4-1.791-4-4v0z" fill="#3e4854"/><path opacity=".4" d="M132 146c0-2.209 1.791-4 4-4v0c2.209.0 4 1.791 4 4v0c0 2.209-1.791 4-4 4v0c-2.209.0-4-1.791-4-4v0z" fill="#3e4854"/><path opacity=".4" d="M146 146c0-2.209 1.791-4 4-4h72c2.209.0 4 1.791 4 4v0c0 2.209-1.791 4-4 4H150c-2.209.0-4-1.791-4-4v0z" fill="#3e4854"/><path d="M146 24c0-2.2091 1.791-4 4-4h66c2.209.0 4 1.7909 4 4v0c0 2.2091-1.791 4-4 4H150c-2.209.0-4-1.7909-4-4v0z" fill="#29313a"/><path opacity=".4" d="M118 121.08c0-2.253 1.827-4.08 4.08-4.08h50.521C174.855 117 176.682 118.827 176.682 121.08v0C176.682 123.334 174.855 125.161 172.601 125.161H122.08c-2.253.0-4.08-1.827-4.08-4.081v0z" fill="#9488f0"/><path opacity=".4" d="M214 121.08C214 118.827 215.827 117 218.08 117h50.521C270.855 117 272.682 118.827 272.682 121.08v0C272.682 123.334 270.855 125.161 268.601 125.161H218.08C215.827 125.161 214 123.334 214 121.08v0z" fill="#9488f0"/><path d="M118 185C118 183.895 118.895 183 120 183h60C181.105 183 182 183.895 182 185v0C182 186.105 181.105 187 180 187H120c-1.105.0-2-.89500000000001-2-2v0z" fill="#2c353f"/><path d="M185 121.08C185 118.827 186.827 117 189.08 117h12.251C203.584 117 205.411 118.827 205.411 121.08v0C205.411 123.334 203.584 125.161 201.331 125.161H189.08C186.827 125.161 185 123.334 185 121.08v0z" fill="#343d48"/><path d="M118 213C118 211.895 118.895 211 120 211h77C198.105 211 199 211.895 199 213v0C199 214.105 198.105 215 197 215H120c-1.105.0-2-.89500000000001-2-2v0z" fill="#2c353f"/><path d="M118 240C118 238.895 118.895 238 120 238h29C150.105 238 151 238.895 151 240v0C151 241.105 150.105 242 149 242H120c-1.105.0-2-.89500000000001-2-2v0z" fill="#2c353f"/><path opacity=".4" d="M231 146c0-2.209 1.791-4 4-4h46c2.209.0 4 1.791 4 4v0c0 2.209-1.791 4-4 4H235c-2.209.0-4-1.791-4-4v0z" fill="#3e4854"/><path d="M16 24c0-3.866 3.134-7 7-7v0c3.866.0 7 3.134 7 7v0c0 3.866-3.134 7-7 7v0c-3.866.0-7-3.134-7-7v0z" fill="#29313a"/><path d="M16 146C16 142.134 19.134 139 23 139v0C26.866 139 30 142.134 30 146v0C30 149.866 26.866 153 23 153v0C19.134 153 16 149.866 16 146v0z" fill="#343d48"/><path d="M37 24c0-2.2091 1.7909-4 4-4H82C84.2091 20 86 21.7909 86 24v0C86 26.2091 84.2091 28 82 28H41c-2.2091.0-4-1.7909-4-4v0z" fill="#29313a"/><path d="M37 146c0-2.209 1.7909-4 4-4H82C84.2091 142 86 143.791 86 146v0C86 148.209 84.2091 150 82 150H41c-2.2091.0-4-1.791-4-4v0z" fill="#343d48"/></svg>