<svg width="300" height="260" viewBox="0 0 300 260" fill="none" xmlns="http://www.w3.org/2000/svg"><rect width="300" height="260" rx="16" fill="#1e242c"/><path d="M16 224.8C16 220.32 16 218.079 16.8719 216.368 17.6389 214.863 18.8628 213.639 20.3681 212.872 22.0794 212 24.3196 212 28.8 212H271.2C275.68 212 277.921 212 279.632 212.872 281.137 213.639 282.361 214.863 283.128 216.368 284 218.079 284 220.32 284 224.8V231.2C284 235.68 284 237.921 283.128 239.632 282.361 241.137 281.137 242.361 279.632 243.128 277.921 244 275.68 244 271.2 244H28.8C24.3196 244 22.0794 244 20.3681 243.128 18.8628 242.361 17.6389 241.137 16.8719 239.632 16 237.921 16 235.68 16 231.2V224.8z" fill="#ff646d"/><path d="M16 140.8C16 136.32 16 134.079 16.8719 132.368 17.6389 130.863 18.8628 129.639 20.3681 128.872 22.0794 128 24.3196 128 28.8 128H271.2C275.68 128 277.921 128 279.632 128.872 281.137 129.639 282.361 130.863 283.128 132.368 284 134.079 284 136.32 284 140.8v14.4C284 159.68 284 161.921 283.128 163.632 282.361 165.137 281.137 166.361 279.632 167.128 277.921 168 275.68 168 271.2 168H28.8C24.3196 168 22.0794 168 20.3681 167.128 18.8628 166.361 17.6389 165.137 16.8719 163.632 16 161.921 16 159.68 16 155.2V140.8z" fill="#12161c"/><path d="M16 55.8c0-4.4804.0-6.7206.8719-8.4319.767-1.5053 1.9909-2.7292 3.4962-3.4962C22.0794 43 24.3196 43 28.8 43H271.2C275.68 43 277.921 43 279.632 43.8719 281.137 44.6389 282.361 45.8628 283.128 47.3681 284 49.0794 284 51.3196 284 55.8V70.2C284 74.6804 284 76.9206 283.128 78.6319 282.361 80.1372 281.137 81.3611 279.632 82.1281 277.921 83 275.68 83 271.2 83H28.8C24.3196 83 22.0794 83 20.3681 82.1281 18.8628 81.3611 17.6389 80.1372 16.8719 78.6319 16 76.9206 16 74.6804 16 70.2V55.8z" fill="#12161c"/><path d="M19 54C19 51.1997 19 49.7996 19.545 48.73 20.0243 47.7892 20.7892 47.0243 21.73 46.545 22.7996 46 24.1997 46 27 46H88C90.8003 46 92.2004 46 93.27 46.545 94.2108 47.0243 94.9757 47.7892 95.455 48.73 96 49.7996 96 51.1997 96 54V72C96 74.8003 96 76.2004 95.455 77.27 94.9757 78.2108 94.2108 78.9757 93.27 79.455 92.2004 80 90.8003 80 88 80H27C24.1997 80 22.7996 80 21.73 79.455 20.7892 78.9757 20.0243 78.2108 19.545 77.27 19 76.2004 19 74.8003 19 72V54z" fill="#29313a"/><path opacity=".3" d="M118 229c0-2.209 1.791-4 4-4h56c2.209.0 4 1.791 4 4v0c0 2.209-1.791 4-4 4H122c-2.209.0-4-1.791-4-4v0z" fill="#fff"/><path d="M26 148c0-4.971 4.0294-9 9-9v0c4.9706.0 9 4.029 9 9v0c0 4.971-4.0294 9-9 9v0c-4.9706.0-9-4.029-9-9v0z" fill="#ff8a1f"/><path d="M50 148c0-2.209 1.7909-4 4-4H74C76.2091 144 78 145.791 78 148v0C78 150.209 76.2091 152 74 152H54c-2.2091.0-4-1.791-4-4v0z" fill="#29313a"/><path d="M40 91C40 88.7909 41.7909 87 44 87H88C90.2091 87 92 88.7909 92 91v4C92 97.2091 90.2091 99 88 99H44C41.7909 99 40 97.2091 40 95V91z" fill="#29313a"/><path d="M96 91C96 88.7909 97.7909 87 1e2 87h44C146.209 87 148 88.7909 148 91v4C148 97.2091 146.209 99 144 99H1e2C97.7909 99 96 97.2091 96 95V91z" fill="#29313a"/><path d="M152 91C152 88.7909 153.791 87 156 87h44C202.209 87 204 88.7909 204 91v4C204 97.2091 202.209 99 2e2 99H156C153.791 99 152 97.2091 152 95V91z" fill="#29313a"/><path d="M208 91C208 88.7909 209.791 87 212 87h44C258.209 87 260 88.7909 260 91v4C260 97.2091 258.209 99 256 99H212C209.791 99 208 97.2091 208 95V91z" fill="#29313a"/><path d="M238 157C238 155.895 238.895 155 240 155h18C259.105 155 260 155.895 260 157v0C260 158.105 259.105 159 258 159H240C238.895 159 238 158.105 238 157v0z" fill="#29313a"/><path d="M248 121c0-1.105.89500000000001-2 2-2h24C275.105 119 276 119.895 276 121v0c0 1.105-.894999999999982 2-2 2H250C248.895 123 248 122.105 248 121v0z" fill="#9488f0"/><path d="M24 120C24 118.895 24.8954 118 26 118H72C73.1046 118 74 118.895 74 120v0C74 121.105 73.1046 122 72 122H26C24.8954 122 24 121.105 24 120v0z" fill="#3e4854"/><path d="M62 93C62 91.8954 62.8954 91 64 91h4C69.1046 91 70 91.8954 70 93v0C70 94.1046 69.1046 95 68 95H64C62.8954 95 62 94.1046 62 93v0z" fill="#3e4854"/><path d="M118 93C118 91.8954 118.895 91 120 91h4C125.105 91 126 91.8954 126 93v0C126 94.1046 125.105 95 124 95h-4C118.895 95 118 94.1046 118 93v0z" fill="#3e4854"/><path d="M172 93C172 91.8954 172.895 91 174 91h8C183.105 91 184 91.8954 184 93v0C184 94.1046 183.105 95 182 95h-8C172.895 95 172 94.1046 172 93v0z" fill="#3e4854"/><path d="M229 93C229 91.8954 229.895 91 231 91h6C238.105 91 239 91.8954 239 93v0C239 94.1046 238.105 95 237 95h-6C229.895 95 229 94.1046 229 93v0z" fill="#3e4854"/><path d="M24 35C24 33.8954 24.8954 33 26 33H56C57.1046 33 58 33.8954 58 35v0C58 36.1046 57.1046 37 56 37H26C24.8954 37 24 36.1046 24 35v0z" fill="#3e4854"/><path d="M254 71C254 69.8954 254.895 69 256 69h18C275.105 69 276 69.8954 276 71v0C276 72.1046 275.105 73 274 73H256C254.895 73 254 72.1046 254 71v0z" fill="#29313a"/><path d="M205 143C205 139.686 207.686 137 211 137h59C273.314 137 276 139.686 276 143v0C276 146.314 273.314 149 270 149H211C207.686 149 205 146.314 205 143v0z" fill="#3e4854"/><path d="M132 15c0-2.2091 1.791-4 4-4h29c2.209.0 4 1.7909 4 4v0c0 2.2091-1.791 4-4 4H136c-2.209.0-4-1.7909-4-4v0z" fill="#fff"/><path d="M1e2.0H201V0C201 1.10457 200.105 2 199 2H102c-1.105.0-2-.89543-2-2V0z" fill="#ff646d"/><path d="M263 157C263 155.895 263.895 155 265 155h9C275.105 155 276 155.895 276 157v0C276 158.105 275.105 159 274 159h-9C263.895 159 263 158.105 263 157v0z" fill="#12b886"/><path d="M224 56C224 52.6863 226.686 50 230 50h40C273.314 50 276 52.6863 276 56v0C276 59.3137 273.314 62 270 62H230C226.686 62 224 59.3137 224 56v0z" fill="#3e4854"/><path d="M26 63c0-4.9706 4.0294-9 9-9v0c4.9706.0 9 4.0294 9 9v0C44 67.9706 39.9706 72 35 72v0c-4.9706.0-9-4.0294-9-9v0z" fill="#00aee9"/><path d="M50 63c0-2.2091 1.7909-4 4-4H70C72.2091 59 74 60.7909 74 63v0C74 65.2091 72.2091 67 70 67H54C51.7909 67 50 65.2091 50 63v0z" fill="#3e4854"/><path d="M81 63C81 60.7909 82.7909 59 85 59v0C87.2091 59 89 60.7909 89 63v0C89 65.2091 87.2091 67 85 67v0C82.7909 67 81 65.2091 81 63v0z" fill="#3e4854"/></svg>