<svg width="300" height="260" viewBox="0 0 300 260" fill="none" xmlns="http://www.w3.org/2000/svg"><rect width="300" height="260" rx="16" fill="#1e242c"/><path d="M12 96.8C12 92.3196 12 90.0794 12.8719 88.3681 13.6389 86.8628 14.8628 85.6389 16.3681 84.8719 18.0794 84 20.3196 84 24.8 84H83.2C87.6804 84 89.9206 84 91.6319 84.8719 93.1372 85.6389 94.3611 86.8628 95.1281 88.3681 96 90.0794 96 92.3196 96 96.8V235.2C96 239.68 96 241.921 95.1281 243.632 94.3611 245.137 93.1372 246.361 91.6319 247.128 89.9206 248 87.6804 248 83.2 248H24.8C20.3196 248 18.0794 248 16.3681 247.128 14.8628 246.361 13.6389 245.137 12.8719 243.632 12 241.921 12 239.68 12 235.2V96.8z" fill="#29313a"/><path d="M204 96.8C204 92.3196 204 90.0794 204.872 88.3681 205.639 86.8628 206.863 85.6389 208.368 84.8719 210.079 84 212.32 84 216.8 84h58.4C279.68 84 281.921 84 283.632 84.8719 285.137 85.6389 286.361 86.8628 287.128 88.3681 288 90.0794 288 92.3196 288 96.8V235.2C288 239.68 288 241.921 287.128 243.632 286.361 245.137 285.137 246.361 283.632 247.128 281.921 248 279.68 248 275.2 248H216.8C212.32 248 210.079 248 208.368 247.128 206.863 246.361 205.639 245.137 204.872 243.632 204 241.921 204 239.68 204 235.2V96.8z" fill="#29313a"/><path d="M108 96.8c0-4.4804.0-6.72059999999999.872-8.4319C109.639 86.8628 110.863 85.6389 112.368 84.8719 114.079 84 116.32 84 120.8 84h58.4C183.68 84 185.921 84 187.632 84.8719 189.137 85.6389 190.361 86.8628 191.128 88.3681 192 90.0794 192 92.3196 192 96.8V235.2C192 239.68 192 241.921 191.128 243.632 190.361 245.137 189.137 246.361 187.632 247.128 185.921 248 183.68 248 179.2 248H120.8C116.32 248 114.079 248 112.368 247.128 110.863 246.361 109.639 245.137 108.872 243.632 108 241.921 108 239.68 108 235.2V96.8z" fill="#12161c"/><path fill-rule="evenodd" clip-rule="evenodd" d="M120.755 83h58.49C181.447 83 183.161 83 184.536 83.1123 185.932 83.2264 187.066 83.4612 188.086 83.9809 189.779 84.8438 191.156 86.2206 192.019 87.9141 192.539 88.9342 192.774 90.0683 192.888 91.4642 193 92.839 193 94.5528 193 96.7547V235.245c0 2.202.0 3.916-.111999999999995 5.291C192.774 241.932 192.539 243.066 192.019 244.086 191.156 245.779 189.779 247.156 188.086 248.019 187.066 248.539 185.932 248.774 184.536 248.888 183.161 249 181.447 249 179.245 249h-58.49C118.553 249 116.839 249 115.464 248.888 114.068 248.774 112.934 248.539 111.914 248.019 110.221 247.156 108.844 245.779 107.981 244.086 107.461 243.066 107.226 241.932 107.112 240.536 107 239.161 107 237.447 107 235.245V96.7548C107 94.5528 107 92.839 107.112 91.4642 107.226 90.0683 107.461 88.9342 107.981 87.9141 108.844 86.2206 110.221 84.8438 111.914 83.9809 112.934 83.4612 114.068 83.2264 115.464 83.1123 116.839 83 118.553 83 120.755 83zm-5.128 2.1057C114.355 85.2096 113.513 85.4108 112.822 85.763 111.505 86.4341 110.434 87.5049 109.763 88.8221 109.411 89.5132 109.21 90.3549 109.106 91.627 109.001 92.9109 109 94.5433 109 96.8V235.2C109 237.457 109.001 239.089 109.106 240.373 109.21 241.645 109.411 242.487 109.763 243.178 110.434 244.495 111.505 245.566 112.822 246.237 113.513 246.589 114.355 246.79 115.627 246.894 116.911 246.999 118.543 247 120.8 247h58.4C181.457 247 183.089 246.999 184.373 246.894 185.645 246.79 186.487 246.589 187.178 246.237 188.495 245.566 189.566 244.495 190.237 243.178 190.589 242.487 190.79 241.645 190.894 240.373 190.999 239.089 191 237.457 191 235.2V96.8C191 94.5433 190.999 92.9109 190.894 91.627 190.79 90.3549 190.589 89.5132 190.237 88.8221 189.566 87.5049 188.495 86.4341 187.178 85.763 186.487 85.4108 185.645 85.2096 184.373 85.1057 183.089 85.0008 181.457 85 179.2 85H120.8C118.543 85 116.911 85.0008 115.627 85.1057z" fill="url(#paint0_linear_657_4726)"/><path d="M228 60C228 58.3431 229.343 57 231 57h30C262.657 57 264 58.3431 264 60v0C264 61.6569 262.657 63 261 63H231C229.343 63 228 61.6569 228 60v0z" fill="#3e4854"/><path d="M258 37C258 43.6274 252.627 49 246 49s-12-5.3726-12-12S239.373 25 246 25s12 5.3726 12 12z" fill="#ff8a1f"/><path d="M263 26C263 27.6569 261.657 29 260 29s-3-1.3431-3-3S258.343 23 260 23s3 1.3431 3 3z" fill="#ff646d"/><path d="M124 60c0-1.6569 1.343-3 3-3h46C174.657 57 176 58.3431 176 60v0C176 61.6569 174.657 63 173 63H127c-1.657.0-3-1.3431-3-3v0z" fill="#3e4854"/><path d="M162 37C162 43.6274 156.627 49 150 49s-12-5.3726-12-12S143.373 25 150 25s12 5.3726 12 12z" fill="url(#paint1_linear_657_4726)"/><path d="M167 26C167 27.6569 165.657 29 164 29s-3-1.3431-3-3S162.343 23 164 23s3 1.3431 3 3z" fill="#12b886"/><path d="M39 60c0-1.6569 1.3431-3 3-3H66C67.6569 57 69 58.3431 69 60v0C69 61.6569 67.6569 63 66 63H42c-1.6569.0-3-1.3431-3-3v0z" fill="#3e4854"/><path d="M66 37c0 6.6274-5.3726 12-12 12S42 43.6274 42 37s5.3726-12 12-12 12 5.3726 12 12z" fill="url(#paint2_linear_657_4726)"/><path d="M71 26C71 27.6569 69.6569 29 68 29s-3-1.3431-3-3S66.3431 23 68 23s3 1.3431 3 3z" fill="#12b886"/><path d="M216 99C216 97.3431 217.343 96 219 96h14C234.657 96 236 97.3431 236 99v0c0 1.657-1.34299999999999 3-3 3H219C217.343 102 216 100.657 216 99v0z" fill="#3e4854"/><path d="M120 99C120 97.3431 121.343 96 123 96h14C138.657 96 140 97.3431 140 99v0c0 1.657-1.34299999999999 3-3 3H123c-1.657.0-3-1.343-3-3v0z" fill="#3e4854"/><path d="M24 99C24 97.3431 25.3431 96 27 96H41C42.6569 96 44 97.3431 44 99v0c0 1.657-1.3431 3-3 3H27c-1.6569.0-3-1.343-3-3v0z" fill="#3e4854"/><path d="M216 145C216 143.343 217.343 142 219 142h14C234.657 142 236 143.343 236 145v0C236 146.657 234.657 148 233 148H219C217.343 148 216 146.657 216 145v0z" fill="#3e4854"/><path d="M120 145c0-1.65700000000001 1.343-3 3-3h14C138.657 142 140 143.343 140 145v0C140 146.657 138.657 148 137 148H123C121.343 148 120 146.657 120 145v0z" fill="#3e4854"/><path d="M24 145C24 143.343 25.3431 142 27 142H41C42.6569 142 44 143.343 44 145v0C44 146.657 42.6569 148 41 148H27C25.3431 148 24 146.657 24 145v0z" fill="#3e4854"/><path d="M216 191C216 189.343 217.343 188 219 188h32C252.657 188 254 189.343 254 191v0C254 192.657 252.657 194 251 194H219C217.343 194 216 192.657 216 191v0z" fill="#3e4854"/><path d="M120 191c0-1.65700000000001 1.343-3 3-3h32C156.657 188 158 189.343 158 191v0C158 192.657 156.657 194 155 194H123C121.343 194 120 192.657 120 191v0z" fill="#3e4854"/><path d="M24 191C24 189.343 25.3431 188 27 188H53C54.6569 188 56 189.343 56 191v0C56 192.657 54.6569 194 53 194H27C25.3431 194 24 192.657 24 191v0z" fill="#3e4854"/><path d="M228 234C228 232.343 229.343 231 231 231h29C261.657 231 263 232.343 263 234v0C263 235.657 261.657 237 260 237H231C229.343 237 228 235.657 228 234v0z" fill="#1e242c"/><path d="M132 234C132 232.343 133.343 231 135 231h29C165.657 231 167 232.343 167 234v0C167 235.657 165.657 237 164 237H135C133.343 237 132 235.657 132 234v0z" fill="#1e242c"/><path d="M36 234C36 232.343 37.3431 231 39 231H68C69.6569 231 71 232.343 71 234v0C71 235.657 69.6569 237 68 237H39C37.3431 237 36 235.657 36 234v0z" fill="#1e242c"/><path d="M216 124c0-1.105.89500000000001-2 2-2h23C242.105 122 243 122.895 243 124v0c0 1.105-.89500000000001 2-2 2H218C216.895 126 216 125.105 216 124v0z" fill="#3e4854"/><path d="M120 124c0-1.105.894999999999996-2 2-2h12C135.105 122 136 122.895 136 124v0c0 1.105-.89500000000001 2-2 2H122C120.895 126 120 125.105 120 124v0z" fill="#3e4854"/><path d="M24 124C24 122.895 24.8954 122 26 122H40C41.1046 122 42 122.895 42 124v0C42 125.105 41.1046 126 40 126H26C24.8954 126 24 125.105 24 124v0z" fill="#3e4854"/><path d="M216 170C216 168.895 216.895 168 218 168h6C225.105 168 226 168.895 226 170v0C226 171.105 225.105 172 224 172h-6C216.895 172 216 171.105 216 170v0z" fill="#3e4854"/><path d="M120 170C120 168.895 120.895 168 122 168h6C129.105 168 130 168.895 130 170v0C130 171.105 129.105 172 128 172h-6c-1.105.0-2-.89500000000001-2-2v0z" fill="#3e4854"/><path d="M24 170C24 168.895 24.8954 168 26 168h6C33.1046 168 34 168.895 34 170v0C34 171.105 33.1046 172 32 172H26C24.8954 172 24 171.105 24 170v0z" fill="#3e4854"/><path d="M216 216C216 214.895 216.895 214 218 214h6C225.105 214 226 214.895 226 216v0C226 217.105 225.105 218 224 218h-6C216.895 218 216 217.105 216 216v0z" fill="#3e4854"/><path d="M120 216C120 214.895 120.895 214 122 214h16C139.105 214 140 214.895 140 216v0C140 217.105 139.105 218 138 218H122c-1.105.0-2-.89500000000001-2-2v0z" fill="#3e4854"/><path d="M24 216C24 214.895 24.8954 214 26 214H42C43.1046 214 44 214.895 44 216v0C44 217.105 43.1046 218 42 218H26C24.8954 218 24 217.105 24 216v0z" fill="#3e4854"/><path d="M236 69C236 67.8954 236.895 67 238 67h16C255.105 67 256 67.8954 256 69v0C256 70.1046 255.105 71 254 71H238C236.895 71 236 70.1046 236 69v0z" fill="#3e4854"/><path d="M145 69C145 67.8954 145.895 67 147 67h6C154.105 67 155 67.8954 155 69v0C155 70.1046 154.105 71 153 71h-6C145.895 71 145 70.1046 145 69v0z" fill="#3e4854"/><path d="M49 69C49 67.8954 49.8954 67 51 67h6C58.1046 67 59 67.8954 59 69v0C59 70.1046 58.1046 71 57 71H51C49.8954 71 49 70.1046 49 69v0z" fill="#3e4854"/><path d="M216 114c0-2.209 1.791-4 4-4h43c2.209.0 4 1.791 4 4v0c0 2.209-1.791 4-4 4H220c-2.209.0-4-1.791-4-4v0z" fill="#ff646d"/><path d="M120 114c0-2.209 1.791-4 4-4h27c2.209.0 4 1.791 4 4v0c0 2.209-1.791 4-4 4H124c-2.209.0-4-1.791-4-4v0z" fill="#12b886"/><path d="M24 114c0-2.209 1.7909-4 4-4H55c2.2091.0 4 1.791 4 4v0c0 2.209-1.7909 4-4 4H28c-2.2091.0-4-1.791-4-4v0z" fill="#ff646d"/><path d="M216 160c0-2.209 1.791-4 4-4h21c2.209.0 4 1.791 4 4v0c0 2.209-1.791 4-4 4H220c-2.209.0-4-1.791-4-4v0z" fill="#12b886"/><path d="M120 160c0-2.209 1.791-4 4-4h21c2.209.0 4 1.791 4 4v0c0 2.209-1.791 4-4 4H124c-2.209.0-4-1.791-4-4v0z" fill="#12b886"/><path d="M24 160c0-2.209 1.7909-4 4-4H70C72.2091 156 74 157.791 74 160v0C74 162.209 72.2091 164 70 164H28c-2.2091.0-4-1.791-4-4v0z" fill="#ff646d"/><path d="M216 206c0-2.209 1.791-4 4-4h21c2.209.0 4 1.791 4 4v0c0 2.209-1.791 4-4 4H220c-2.209.0-4-1.791-4-4v0z" fill="#ff646d"/><path d="M120 206c0-2.209 1.791-4 4-4h10c2.209.0 4 1.791 4 4v0c0 2.209-1.791 4-4 4H124c-2.209.0-4-1.791-4-4v0z" fill="#12b886"/><path d="M24 206c0-2.209 1.7909-4 4-4H49c2.2091.0 4 1.791 4 4v0c0 2.209-1.7909 4-4 4H28c-2.2091.0-4-1.791-4-4v0z" fill="#ff646d"/><path d="M170 0h28V20l-14 7-14-7V0z" fill="#6046ff"/><path d="M179 12C179 10.8954 179.895 10 181 10h6C188.105 10 189 10.8954 189 12v0C189 13.1046 188.105 14 187 14h-6C179.895 14 179 13.1046 179 12v0z" fill="#fff"/><defs><linearGradient id="paint0_linear_657_4726" x1="107" y1="83" x2="212.726" y2="96.6935" gradientUnits="userSpaceOnUse"><stop stop-color="#6046ff"/><stop offset="1" stop-color="#22d49f"/></linearGradient><linearGradient id="paint1_linear_657_4726" x1="150" y1="25" x2="150" y2="49" gradientUnits="userSpaceOnUse"><stop stop-color="#287378"/><stop offset="1" stop-color="#bff94e"/></linearGradient><linearGradient id="paint2_linear_657_4726" x1="42" y1="25" x2="42" y2="49" gradientUnits="userSpaceOnUse"><stop offset=".498853" stop-color="#e12d81"/><stop offset=".498953" stop-color="#76d7d4"/></linearGradient></defs></svg>