<svg xmlns="http://www.w3.org/2000/svg" xmlns:xlink="http://www.w3.org/1999/xlink" fill="none" viewBox="0 0 300 260"
    width="300" height="260">
    <defs>
        <path id="reuse-0" fill="#29313A"
            d="M57 183.4c0-2.24 0-3.36.436-4.216a3.996 3.996 0 0 1 1.748-1.748C60.04 177 61.16 177 63.4 177h93.2c2.24 0 3.36 0 4.216.436a3.991 3.991 0 0 1 1.748 1.748c.436.856.436 1.976.436 4.216v57.2c0 2.24 0 3.36-.436 4.216a3.991 3.991 0 0 1-1.748 1.748c-.856.436-1.976.436-4.216.436H63.4c-2.24 0-3.36 0-4.216-.436a3.996 3.996 0 0 1-1.748-1.748C57 243.96 57 242.84 57 240.6v-57.2Z" />
    </defs>
    <path fill="#232A32"
        d="M156 54.8c0-10.08 0-15.121 1.962-18.972a18 18 0 0 1 7.866-7.866C169.679 26 174.719 26 184.8 26h48.4c10.081 0 15.121 0 18.972 1.962a18 18 0 0 1 7.866 7.866C262 39.678 262 44.72 262 54.8v150.4c0 10.081 0 15.121-1.962 18.972a18 18 0 0 1-7.866 7.866C248.321 234 243.281 234 233.2 234h-48.4c-10.081 0-15.121 0-18.972-1.962a18 18 0 0 1-7.866-7.866C156 220.321 156 215.281 156 205.2V54.8Z" />
    <path fill="#3E4854" d="M165 36h88v15h-88V36Z" />
    <path fill="#181D23" d="M173 43a4 4 0 1 1 8 0 4 4 0 0 1-8 0Z" />
    <path fill="#9FAEBF"
        d="M184 43a3 3 0 0 1 3-3h40a3 3 0 1 1 0 6h-40a3 3 0 0 1-3-3ZM237 43.5a2.5 2.5 0 0 1 2.5-2.5h3a2.5 2.5 0 1 1 0 5h-3a2.5 2.5 0 0 1-2.5-2.5Z"
        opacity=".2" />
    <path fill="#29313A"
        d="M164 170.4c0-2.24 0-3.36.436-4.216a3.991 3.991 0 0 1 1.748-1.748c.856-.436 1.976-.436 4.216-.436h70.2c2.24 0 3.36 0 4.216.436a3.991 3.991 0 0 1 1.748 1.748c.436.856.436 1.976.436 4.216v42.2c0 2.24 0 3.36-.436 4.216a3.991 3.991 0 0 1-1.748 1.748c-.856.436-1.976.436-4.216.436h-70.2c-2.24 0-3.36 0-4.216-.436a3.991 3.991 0 0 1-1.748-1.748C164 215.96 164 214.84 164 212.6v-42.2Z" />
    <path fill="#29313A"
        d="M165 168.4c0-2.24 0-3.36.436-4.216a3.991 3.991 0 0 1 1.748-1.748c.856-.436 1.976-.436 4.216-.436h70.2c2.24 0 3.36 0 4.216.436a3.991 3.991 0 0 1 1.748 1.748c.436.856.436 1.976.436 4.216v45.2c0 2.24 0 3.36-.436 4.216a3.991 3.991 0 0 1-1.748 1.748c-.856.436-1.976.436-4.216.436h-70.2c-2.24 0-3.36 0-4.216-.436a3.991 3.991 0 0 1-1.748-1.748C165 216.96 165 215.84 165 213.6v-45.2Z" />
    <path fill="#12B886"
        d="M167 210.2c0-1.12 0-1.68.218-2.108.192-.376.498-.682.874-.874.428-.218.988-.218 2.108-.218h70.6c1.12 0 1.68 0 2.108.218.376.192.682.498.874.874.218.428.218.988.218 2.108v2.6c0 1.12 0 1.68-.218 2.108a2.006 2.006 0 0 1-.874.874c-.428.218-.988.218-2.108.218h-70.6c-1.12 0-1.68 0-2.108-.218a2.006 2.006 0 0 1-.874-.874c-.218-.428-.218-.988-.218-2.108v-2.6Z" />
    <path fill="#181D23"
        d="M167 194.2c0-1.12 0-1.68.218-2.108.192-.376.498-.682.874-.874.428-.218.988-.218 2.108-.218h70.6c1.12 0 1.68 0 2.108.218.376.192.682.498.874.874.218.428.218.988.218 2.108v5.6c0 1.12 0 1.68-.218 2.108a2.006 2.006 0 0 1-.874.874c-.428.218-.988.218-2.108.218h-70.6c-1.12 0-1.68 0-2.108-.218a2.006 2.006 0 0 1-.874-.874c-.218-.428-.218-.988-.218-2.108v-5.6ZM167 174.2c0-1.12 0-1.68.218-2.108.192-.376.498-.682.874-.874.428-.218.988-.218 2.108-.218h70.6c1.12 0 1.68 0 2.108.218.376.192.682.498.874.874.218.428.218.988.218 2.108v5.6c0 1.12 0 1.68-.218 2.108a2.006 2.006 0 0 1-.874.874c-.428.218-.988.218-2.108.218h-70.6c-1.12 0-1.68 0-2.108-.218a2.006 2.006 0 0 1-.874-.874c-.218-.428-.218-.988-.218-2.108v-5.6Z" />
    <path fill="#fff" d="M186 166a1 1 0 0 1 1-1h8a1 1 0 0 1 0 2h-8a1 1 0 0 1-1-1Z" />
    <path fill="#12B886" d="M181 162h22" />
    <path fill="#FF646D" d="M210 166a1 1 0 0 1 1-1h8a1 1 0 0 1 0 2h-8a1 1 0 0 1-1-1Z" />
    <path fill="#12161C" d="M164 151a4 4 0 0 1 4-4h3a4 4 0 0 1 4 4v3a4 4 0 0 1-4 4h-3a4 4 0 0 1-4-4v-3Z" />
    <path fill="#3E4854"
        d="M166 58.5a2.5 2.5 0 0 1 2.5-2.5h12a2.5 2.5 0 1 1 0 5h-12a2.5 2.5 0 0 1-2.5-2.5ZM166 67.5a2.5 2.5 0 0 1 2.5-2.5h32a2.5 2.5 0 1 1 0 5h-32a2.5 2.5 0 0 1-2.5-2.5Z" />
    <path fill="#3E4854" fill-opacity=".5"
        d="M185 58.5a2.5 2.5 0 0 1 2.5-2.5h6a2.5 2.5 0 1 1 0 5h-6a2.5 2.5 0 0 1-2.5-2.5ZM198 58.5a2.5 2.5 0 0 1 2.5-2.5h14a2.5 2.5 0 1 1 0 5h-14a2.5 2.5 0 0 1-2.5-2.5Z" />
    <path fill="#29313A"
        d="M223 197a2 2 0 0 1 2-2h14a2 2 0 1 1 0 4h-14a2 2 0 0 1-2-2ZM184 152.5a1.5 1.5 0 0 1 1.5-1.5h3a1.5 1.5 0 0 1 0 3h-3a1.5 1.5 0 0 1-1.5-1.5ZM223 177a2 2 0 0 1 2-2h14a2 2 0 1 1 0 4h-14a2 2 0 0 1-2-2ZM196 152.5a1.5 1.5 0 0 1 1.5-1.5h3a1.5 1.5 0 0 1 0 3h-3a1.5 1.5 0 0 1-1.5-1.5ZM209 152.5a1.5 1.5 0 0 1 1.5-1.5h3a1.5 1.5 0 0 1 0 3h-3a1.5 1.5 0 0 1-1.5-1.5Z" />
    <path fill="#343D48"
        d="M170 187a2 2 0 0 1 2-2h12a2 2 0 1 1 0 4h-12a2 2 0 0 1-2-2ZM188 187a2 2 0 0 1 2-2h12a2 2 0 1 1 0 4h-12a2 2 0 0 1-2-2ZM207 187a2 2 0 0 1 2-2h12a2 2 0 1 1 0 4h-12a2 2 0 0 1-2-2ZM225 187a2 2 0 0 1 2-2h12a2 2 0 1 1 0 4h-12a2 2 0 0 1-2-2Z" />
    <path fill="#29313A"
        d="M221 152.5a1.5 1.5 0 0 1 1.5-1.5h3a1.5 1.5 0 0 1 0 3h-3a1.5 1.5 0 0 1-1.5-1.5ZM234 152.5a1.5 1.5 0 0 1 1.5-1.5h3a1.5 1.5 0 0 1 0 3h-3a1.5 1.5 0 0 1-1.5-1.5ZM238 143a2 2 0 0 1 2-2h5a2 2 0 1 1 0 4h-5a2 2 0 0 1-2-2ZM238 129a2 2 0 0 1 2-2h5a2 2 0 1 1 0 4h-5a2 2 0 0 1-2-2ZM238 114.5a1.5 1.5 0 0 1 1.5-1.5h6a1.5 1.5 0 0 1 0 3h-6a1.5 1.5 0 0 1-1.5-1.5ZM238 100.5a1.5 1.5 0 0 1 1.5-1.5h6a1.5 1.5 0 0 1 0 3h-6a1.5 1.5 0 0 1-1.5-1.5ZM238 86.5a1.5 1.5 0 0 1 1.5-1.5h6a1.5 1.5 0 0 1 0 3h-6a1.5 1.5 0 0 1-1.5-1.5ZM238 72.5a1.5 1.5 0 0 1 1.5-1.5h6a1.5 1.5 0 0 1 0 3h-6a1.5 1.5 0 0 1-1.5-1.5ZM238 58.5a1.5 1.5 0 0 1 1.5-1.5h6a1.5 1.5 0 0 1 0 3h-6a1.5 1.5 0 0 1-1.5-1.5Z" />
    <path fill="#FF646D"
        d="M217.722 122.222a1.222 1.222 0 1 0-2.444 0v4.239a1.14 1.14 0 0 1-1.139 1.139 1.14 1.14 0 0 0-1.139 1.139v5.887c0 .629.51 1.139 1.139 1.139s1.139.51 1.139 1.139v.874a1.222 1.222 0 1 0 2.444 0v-.874c0-.629.51-1.139 1.139-1.139a1.14 1.14 0 0 0 1.139-1.139v-5.887a1.14 1.14 0 0 0-1.139-1.139 1.14 1.14 0 0 1-1.139-1.139v-4.239ZM207.722 104.222a1.222 1.222 0 1 0-2.444 0v13.532a1.14 1.14 0 0 1-1.139 1.139c-.629 0-1.139.509-1.139 1.138v6.615c0 .629.51 1.139 1.139 1.139s1.139.51 1.139 1.139v.854a1.222 1.222 0 1 0 2.444 0v-.854c0-.629.51-1.139 1.139-1.139a1.14 1.14 0 0 0 1.139-1.139v-6.615c0-.629-.51-1.138-1.139-1.138a1.14 1.14 0 0 1-1.139-1.139v-13.532Z" />
    <path fill="#12B886"
        d="M177.722 91.222a1.222 1.222 0 1 0-2.444 0v4.228c0 .629-.51 1.138-1.139 1.138s-1.139.51-1.139 1.14v13.685c0 .629.51 1.139 1.139 1.139s1.139.51 1.139 1.139v.087a1.222 1.222 0 1 0 2.444 0v-.087c0-.629.51-1.139 1.139-1.139a1.14 1.14 0 0 0 1.139-1.139V97.727c0-.629-.51-1.139-1.139-1.139s-1.139-.51-1.139-1.138v-4.228ZM227.722 88.222a1.222 1.222 0 1 0-2.444 0V98.67c0 .63-.51 1.14-1.139 1.14s-1.139.509-1.139 1.138v26.119c0 .629.51 1.139 1.139 1.139s1.139.51 1.139 1.139v9.434a1.222 1.222 0 1 0 2.444 0v-9.434c0-.629.51-1.139 1.139-1.139a1.14 1.14 0 0 0 1.139-1.139v-26.119c0-.629-.51-1.139-1.139-1.139s-1.139-.51-1.139-1.139V88.222ZM187.722 89.96a.96.96 0 0 0-.96-.96h-.524a.96.96 0 0 0-.96.96c0 .531-.43.961-.961.961h-.178c-.629 0-1.139.51-1.139 1.139v4.38c0 .629.51 1.139 1.139 1.139s1.139.51 1.139 1.139v4.06a1.222 1.222 0 1 0 2.444 0v-4.06c0-.63.51-1.14 1.139-1.14S190 97.07 190 96.44v-4.38c0-.629-.51-1.139-1.139-1.139h-.178a.96.96 0 0 1-.961-.96ZM197.722 97.222a1.222 1.222 0 1 0-2.444 0v.342c0 .629-.51 1.139-1.139 1.139s-1.139.51-1.139 1.139v14.595c0 .629.51 1.139 1.139 1.139s1.139.51 1.139 1.139v15.063a1.222 1.222 0 1 0 2.444 0v-15.063c0-.629.51-1.139 1.139-1.139a1.14 1.14 0 0 0 1.139-1.139V99.842c0-.63-.51-1.14-1.139-1.14s-1.139-.51-1.139-1.138v-.342Z" />
    <path fill="#29313A" fill-rule="evenodd"
        d="M233.2 36h-48.4c-5.205 0-8.508.008-11.008.212-2.383.195-3.143.517-3.424.66a8.002 8.002 0 0 0-3.496 3.496c-.143.28-.465 1.04-.66 3.424-.204 2.5-.212 5.802-.212 11.008v150.4c0 5.205.008 8.508.212 11.008.195 2.383.517 3.143.66 3.424a8.003 8.003 0 0 0 3.496 3.496c.281.143 1.041.465 3.424.66 2.5.204 5.803.212 11.008.212h48.4c5.205 0 8.508-.008 11.008-.212 2.383-.195 3.143-.517 3.424-.66a8.003 8.003 0 0 0 3.496-3.496c.143-.281.465-1.041.66-3.424.204-2.5.212-5.803.212-11.008V54.8c0-5.206-.008-8.508-.212-11.008-.195-2.383-.517-3.143-.66-3.424a8.002 8.002 0 0 0-3.496-3.496c-.281-.143-1.041-.465-3.424-.66-2.5-.204-5.803-.212-11.008-.212Zm-75.238-.172C156 39.678 156 44.72 156 54.8v150.4c0 10.081 0 15.121 1.962 18.972a18 18 0 0 0 7.866 7.866C169.679 234 174.719 234 184.8 234h48.4c10.081 0 15.121 0 18.972-1.962a18 18 0 0 0 7.866-7.866C262 220.321 262 215.281 262 205.2V54.8c0-10.08 0-15.121-1.962-18.972a18 18 0 0 0-7.866-7.866C248.321 26 243.281 26 233.2 26h-48.4c-10.081 0-15.121 0-18.972 1.962a18 18 0 0 0-7.866 7.866Z"
        clip-rule="evenodd" />
    <path fill="#0B0F14" d="M161 26h28v208h-28V26Z" opacity=".6" />
    <path fill="#1E242C"
        d="M44 25.6c0-8.96 0-13.441 1.744-16.864a16 16 0 0 1 6.992-6.992C56.16 0 60.64 0 69.6 0h80.8c8.961 0 13.441 0 16.864 1.744a16.003 16.003 0 0 1 6.992 6.992C176 12.16 176 16.64 176 25.6v208.8c0 8.961 0 13.441-1.744 16.864a16.005 16.005 0 0 1-6.992 6.992C163.841 260 159.361 260 150.4 260H69.6c-8.96 0-13.441 0-16.864-1.744a16.003 16.003 0 0 1-6.992-6.992C44 247.841 44 243.361 44 234.4V25.6Z" />
    <path fill="#3E4854" d="M52 8h116v23H52V8Z" />
    <path fill="#181D23" d="M44 31h132v20H44V31Z" />
    <path fill="#9FAEBF"
        d="M96 25a2 2 0 0 1 2-2h24a2 2 0 1 1 0 4H98a2 2 0 0 1-2-2ZM152 15a2 2 0 0 1 2-2h5a2 2 0 1 1 0 4h-5a2 2 0 0 1-2-2ZM144 15a2 2 0 1 1 4 0 2 2 0 0 1-4 0ZM57 15a2 2 0 0 1 2-2h10a2 2 0 1 1 0 4H59a2 2 0 0 1-2-2Z"
        opacity=".2" />
    <path fill="#1E242C" d="M57 38a4 4 0 0 1 4-4h80a4 4 0 0 1 4 4v6a4 4 0 0 1-4 4H61a4 4 0 0 1-4-4v-6Z" />
    <use xlink:href="#reuse-0" />
    <use xlink:href="#reuse-0" />
    <path fill="#12B886"
        d="M61 236.2c0-1.12 0-1.68.218-2.108.192-.376.498-.682.874-.874.428-.218.988-.218 2.108-.218h91.6c1.12 0 1.68 0 2.108.218.376.192.682.498.874.874.218.428.218.988.218 2.108v3.6c0 1.12 0 1.68-.218 2.108a2.006 2.006 0 0 1-.874.874c-.428.218-.988.218-2.108.218H64.2c-1.12 0-1.68 0-2.108-.218a2.003 2.003 0 0 1-.874-.874C61 241.48 61 240.92 61 239.8v-3.6Z" />
    <path fill="#181D23"
        d="M61 195.2c0-1.12 0-1.68.218-2.108.192-.376.498-.682.874-.874.428-.218.988-.218 2.108-.218h91.6c1.12 0 1.68 0 2.108.218.376.192.682.498.874.874.218.428.218.988.218 2.108v5.6c0 1.12 0 1.68-.218 2.108a2.006 2.006 0 0 1-.874.874c-.428.218-.988.218-2.108.218H64.2c-1.12 0-1.68 0-2.108-.218a2.003 2.003 0 0 1-.874-.874C61 202.48 61 201.92 61 200.8v-5.6ZM61 217.2c0-1.12 0-1.68.218-2.108.192-.376.498-.682.874-.874.428-.218.988-.218 2.108-.218h91.6c1.12 0 1.68 0 2.108.218.376.192.682.498.874.874.218.428.218.988.218 2.108v5.6c0 1.12 0 1.68-.218 2.108a2.006 2.006 0 0 1-.874.874c-.428.218-.988.218-2.108.218H64.2c-1.12 0-1.68 0-2.108-.218a2.003 2.003 0 0 1-.874-.874C61 224.48 61 223.92 61 222.8v-5.6Z" />
    <path fill="#2C353F" d="M72 41a2 2 0 0 1 2-2h13a2 2 0 1 1 0 4H74a2 2 0 0 1-2-2Z" />
    <path fill="#FFBC52" d="M61 41a3 3 0 1 1 6 0 3 3 0 0 1-6 0Z" />
    <path fill="#12B886" d="M131 41a1 1 0 0 1 1-1h8a1 1 0 0 1 0 2h-8a1 1 0 0 1-1-1Z" />
    <path fill="#46A6FF" d="M150 41a5 5 0 0 1 5-5h1a5 5 0 0 1 0 10h-1a5 5 0 0 1-5-5Z" />
    <path fill="#fff" d="M86 185.5a1.5 1.5 0 0 1 1.5-1.5h10a1.5 1.5 0 0 1 0 3h-10a1.5 1.5 0 0 1-1.5-1.5Z" />
    <path fill="#12B886" d="M75 177h35" />
    <path fill="#FF646D" d="M121 185.5a1.5 1.5 0 0 1 1.5-1.5h10a1.5 1.5 0 0 1 0 3h-10a1.5 1.5 0 0 1-1.5-1.5Z" />
    <path fill="#12161C" d="M57 159a4 4 0 0 1 4-4h6a4 4 0 0 1 4 4v6a4 4 0 0 1-4 4h-6a4 4 0 0 1-4-4v-6Z" />
    <path fill="#3E4854"
        d="M61 61a3 3 0 0 1 3-3h15a3 3 0 1 1 0 6H64a3 3 0 0 1-3-3ZM61 70a3 3 0 0 1 3-3h41a3 3 0 1 1 0 6H64a3 3 0 0 1-3-3Z" />
    <path fill="#3E4854" fill-opacity=".5"
        d="M84 61a3 3 0 0 1 3-3h8a3 3 0 1 1 0 6h-8a3 3 0 0 1-3-3ZM100 61a3 3 0 0 1 3-3h19a3 3 0 1 1 0 6h-19a3 3 0 0 1-3-3Z" />
    <path fill="#3E4854" d="M168 67a4 4 0 1 1 8 0 4 4 0 0 1-8 0Z" />
    <path fill="#29313A"
        d="M82 162a2 2 0 0 1 2-2h4a2 2 0 1 1 0 4h-4a2 2 0 0 1-2-2ZM143 198a2 2 0 0 1 2-2h8a2 2 0 1 1 0 4h-8a2 2 0 0 1-2-2ZM137 220a2 2 0 0 1 2-2h14a2 2 0 1 1 0 4h-14a2 2 0 0 1-2-2ZM98 162a2 2 0 0 1 2-2h4a2 2 0 1 1 0 4h-4a2 2 0 0 1-2-2ZM114 162a2 2 0 0 1 2-2h4a2 2 0 1 1 0 4h-4a2 2 0 0 1-2-2Z" />
    <path fill="#343D48"
        d="M65 209a2 2 0 0 1 2-2h16a2 2 0 1 1 0 4H67a2 2 0 0 1-2-2ZM88 209a2 2 0 0 1 2-2h16a2 2 0 1 1 0 4H90a2 2 0 0 1-2-2ZM112 209a2 2 0 0 1 2-2h16a2 2 0 1 1 0 4h-16a2 2 0 0 1-2-2ZM135 209a2 2 0 0 1 2-2h16a2 2 0 1 1 0 4h-16a2 2 0 0 1-2-2Z" />
    <path fill="#29313A"
        d="M130 162a2 2 0 0 1 2-2h4a2 2 0 1 1 0 4h-4a2 2 0 0 1-2-2ZM146 162a2 2 0 0 1 2-2h4a2 2 0 1 1 0 4h-4a2 2 0 0 1-2-2ZM152 150a2 2 0 0 1 2-2h7a2 2 0 1 1 0 4h-7a2 2 0 0 1-2-2ZM152 132a2 2 0 0 1 2-2h7a2 2 0 1 1 0 4h-7a2 2 0 0 1-2-2ZM152 114a2 2 0 0 1 2-2h7a2 2 0 1 1 0 4h-7a2 2 0 0 1-2-2ZM152 96a2 2 0 0 1 2-2h7a2 2 0 1 1 0 4h-7a2 2 0 0 1-2-2ZM152 78a2 2 0 0 1 2-2h7a2 2 0 1 1 0 4h-7a2 2 0 0 1-2-2ZM152 60a2 2 0 0 1 2-2h7a2 2 0 1 1 0 4h-7a2 2 0 0 1-2-2Z" />
    <path fill="#FF646D"
        d="M66.071 109.571a1.572 1.572 0 0 0-3.142 0v5.398c0 .809-.656 1.464-1.465 1.464-.808 0-1.464.656-1.464 1.465v5.504c0 .809.656 1.465 1.464 1.465.809 0 1.465.655 1.465 1.464v1.098a1.572 1.572 0 0 0 3.142 0v-1.098c0-.809.656-1.464 1.465-1.464.808 0 1.464-.656 1.464-1.465v-5.504c0-.809-.656-1.465-1.464-1.465a1.464 1.464 0 0 1-1.465-1.464v-5.398ZM131.071 123.571a1.571 1.571 0 0 0-3.142 0v5.398c0 .809-.656 1.464-1.465 1.464-.808 0-1.464.656-1.464 1.465v7.504c0 .809.656 1.465 1.464 1.465.809 0 1.465.655 1.465 1.464v1.098a1.571 1.571 0 0 0 3.142 0v-1.098c0-.809.656-1.464 1.465-1.464.808 0 1.464-.656 1.464-1.465v-7.504c0-.809-.656-1.465-1.464-1.465a1.464 1.464 0 0 1-1.465-1.464v-5.398ZM118.071 100.571a1.57 1.57 0 1 0-3.142 0v17.398c0 .809-.656 1.464-1.465 1.464-.808 0-1.464.656-1.464 1.465v8.504c0 .809.656 1.465 1.464 1.465.809 0 1.465.655 1.465 1.464v1.098a1.571 1.571 0 0 0 3.142 0v-1.098c0-.809.656-1.464 1.465-1.464.808 0 1.464-.656 1.464-1.465v-8.504c0-.809-.656-1.465-1.464-1.465a1.464 1.464 0 0 1-1.465-1.464v-17.398Z" />
    <path fill="#12B886"
        d="M79.071 90.571a1.571 1.571 0 0 0-3.142 0v5.398c0 .809-.656 1.464-1.465 1.464-.808 0-1.464.656-1.464 1.465v17.504c0 .809.656 1.465 1.464 1.465.809 0 1.465.655 1.465 1.464v.102A1.57 1.57 0 0 0 77.5 121a1.57 1.57 0 0 0 1.571-1.567v-.102c0-.809.656-1.464 1.465-1.464.808 0 1.464-.656 1.464-1.465V98.898c0-.81-.656-1.465-1.464-1.465a1.464 1.464 0 0 1-1.465-1.464v-5.398ZM144.071 79.571a1.571 1.571 0 1 0-3.142 0V92.97c0 .809-.656 1.464-1.465 1.464-.808 0-1.464.656-1.464 1.465v33.504c0 .809.656 1.465 1.464 1.465.809 0 1.465.655 1.465 1.464v12.098a1.571 1.571 0 0 0 3.142 0v-12.098c0-.809.656-1.464 1.465-1.464.808 0 1.464-.656 1.464-1.465V95.898c0-.81-.656-1.465-1.464-1.465a1.465 1.465 0 0 1-1.465-1.464V79.571ZM92.071 87.217c0-.672-.544-1.217-1.216-1.217h-.71c-.672 0-1.216.545-1.216 1.217s-.545 1.216-1.217 1.216h-.248c-.808 0-1.464.656-1.464 1.465v5.504c0 .81.656 1.465 1.464 1.465.809 0 1.465.655 1.465 1.464v5.098a1.572 1.572 0 0 0 3.142 0v-5.098c0-.809.656-1.464 1.465-1.464.808 0 1.464-.656 1.464-1.465v-5.504c0-.81-.656-1.465-1.464-1.465h-.248a1.217 1.217 0 0 1-1.217-1.216ZM105.071 97.571a1.571 1.571 0 1 0-3.142 0v.398c0 .809-.656 1.464-1.465 1.464-.808 0-1.464.656-1.464 1.465v18.504c0 .809.656 1.465 1.464 1.465.809 0 1.465.655 1.465 1.464v19.098a1.571 1.571 0 0 0 3.142 0v-19.098c0-.809.656-1.464 1.465-1.464.808 0 1.464-.656 1.464-1.465v-18.504c0-.809-.656-1.465-1.464-1.465a1.465 1.465 0 0 1-1.465-1.464v-.398Z" />
    <path fill="#29313A" fill-rule="evenodd"
        d="M150.4 8H69.6c-4.612 0-7.59.006-9.857.191-2.174.178-2.98.48-3.375.68a8 8 0 0 0-3.496 3.497c-.202.396-.503 1.201-.68 3.375C52.005 18.009 52 20.988 52 25.6v208.8c0 4.612.006 7.591.191 9.857.178 2.174.48 2.979.68 3.375a8.002 8.002 0 0 0 3.497 3.496c.396.202 1.201.503 3.375.681 2.266.185 5.245.191 9.857.191h80.8c4.612 0 7.591-.006 9.857-.191 2.174-.178 2.979-.479 3.375-.681a8.003 8.003 0 0 0 3.496-3.496c.202-.396.503-1.201.681-3.375.185-2.266.191-5.245.191-9.857V25.6c0-4.612-.006-7.59-.191-9.857-.178-2.174-.479-2.98-.681-3.375a8.001 8.001 0 0 0-3.496-3.496c-.396-.202-1.201-.503-3.375-.68C157.991 8.005 155.012 8 150.4 8Zm-104.656.736C44 12.16 44 16.64 44 25.6v208.8c0 8.961 0 13.441 1.744 16.864a16.003 16.003 0 0 0 6.992 6.992C56.16 260 60.64 260 69.6 260h80.8c8.961 0 13.441 0 16.864-1.744a16.005 16.005 0 0 0 6.992-6.992C176 247.841 176 243.361 176 234.4V25.6c0-8.96 0-13.441-1.744-16.864a16.003 16.003 0 0 0-6.992-6.992C163.841 0 159.361 0 150.4 0H69.6c-8.96 0-13.441 0-16.864 1.744a16 16 0 0 0-6.992 6.992Z"
        clip-rule="evenodd" />
    <path fill="#29313A" d="M84 6a6 6 0 0 1 6-6h40a6 6 0 0 1 6 6v6a6 6 0 0 1-6 6H90a6 6 0 0 1-6-6V6Z" />
    <path fill="#181D23"
        d="M95 10.5A1.5 1.5 0 0 1 96.5 9h21a1.5 1.5 0 0 1 0 3h-21a1.5 1.5 0 0 1-1.5-1.5ZM123 10.5a1.5 1.5 0 0 1 1.5-1.5h2a1.5 1.5 0 0 1 0 3h-2a1.5 1.5 0 0 1-1.5-1.5Z" />
</svg>