<svg width="300" height="260" viewBox="0 0 300 260" fill="none" xmlns="http://www.w3.org/2000/svg"><rect width="300" height="260" rx="16" fill="#1e242c"/><path d="M8 129.8C8 125.32 8 123.079 8.87195 121.368c.76698-1.505 1.99085-2.729 3.49615-3.496C14.0794 117 16.3196 117 20.8 117H279.2C283.68 117 285.921 117 287.632 117.872 289.137 118.639 290.361 119.863 291.128 121.368 292 123.079 292 125.32 292 129.8V239.2C292 243.68 292 245.921 291.128 247.632 290.361 249.137 289.137 250.361 287.632 251.128 285.921 252 283.68 252 279.2 252H20.8C16.3196 252 14.0794 252 12.3681 251.128 10.8628 250.361 9.63893 249.137 8.87195 247.632 8 245.921 8 243.68 8 239.2V129.8z" fill="#29313a"/><path opacity=".4" d="M37 205C38.6569 205 40 206.343 40 208v20C40 229.657 38.6569 231 37 231v0C35.3431 231 34 229.657 34 228V208C34 206.343 35.3431 205 37 205v0z" fill="#12b886"/><path opacity=".4" d="M47 211C48.6569 211 50 212.343 50 214v14C50 229.657 48.6569 231 47 231v0C45.3431 231 44 229.657 44 228V214C44 212.343 45.3431 211 47 211v0z" fill="#12b886"/><path opacity=".4" d="M57 220C58.6569 220 60 221.343 60 223v5C60 229.657 58.6569 231 57 231v0C55.3431 231 54 229.657 54 228v-5C54 221.343 55.3431 220 57 220v0z" fill="#12b886"/><path opacity=".4" d="M77 220C78.6569 220 80 221.343 80 223v5C80 229.657 78.6569 231 77 231v0C75.3431 231 74 229.657 74 228v-5C74 221.343 75.3431 220 77 220v0z" fill="#12b886"/><path opacity=".4" d="M67.5 226c1.3807.0 2.5 1.119 2.5 2.5v0c0 1.381-1.1193 2.5-2.5 2.5h-1c-1.3807.0-2.5-1.119-2.5-2.5v0c0-1.381 1.1193-2.5 2.5-2.5h1z" fill="#ff646d"/><path opacity=".4" d="M87 201C88.6569 201 90 202.343 90 204v24C90 229.657 88.6569 231 87 231v0C85.3431 231 84 229.657 84 228V204C84 202.343 85.3431 201 87 201v0z" fill="#ff646d"/><path opacity=".4" d="M97 208C98.6569 208 1e2 209.343 1e2 211v17C1e2 229.657 98.6569 231 97 231v0C95.3431 231 94 229.657 94 228V211C94 209.343 95.3431 208 97 208v0z" fill="#ff646d"/><path opacity=".4" d="M107 217c1.657.0 3 1.34299999999999 3 3v8c0 1.65700000000001-1.343 3-3 3v0C105.343 231 104 229.657 104 228v-8c0-1.65700000000001 1.343-3 3-3v0z" fill="#12b886"/><path opacity=".4" d="M117 215c1.657.0 3 1.34299999999999 3 3v10c0 1.65700000000001-1.343 3-3 3v0C115.343 231 114 229.657 114 228V218c0-1.65700000000001 1.343-3 3-3v0z" fill="#12b886"/><path opacity=".4" d="M127 203C128.657 203 130 204.343 130 206v22C130 229.657 128.657 231 127 231v0C125.343 231 124 229.657 124 228V206c0-1.65700000000001 1.343-3 3-3v0z" fill="#ff646d"/><path opacity=".4" d="M137 213C138.657 213 140 214.343 140 216v12C140 229.657 138.657 231 137 231v0C135.343 231 134 229.657 134 228V216C134 214.343 135.343 213 137 213v0z" fill="#ff646d"/><path opacity=".4" d="M147.5 226c1.381.0 2.5 1.119 2.5 2.5v0c0 1.381-1.119 2.5-2.5 2.5h-1c-1.381.0-2.5-1.119-2.5-2.5v0c0-1.381 1.119-2.5 2.5-2.5h1z" fill="#12b886"/><path opacity=".4" d="M157.5 226c1.381.0 2.5 1.119 2.5 2.5v0c0 1.381-1.119 2.5-2.5 2.5h-1c-1.381.0-2.5-1.119-2.5-2.5v0c0-1.381 1.119-2.5 2.5-2.5h1z" fill="#12b886"/><path opacity=".4" d="M167 222C168.657 222 170 223.343 170 225v3C170 229.657 168.657 231 167 231v0C165.343 231 164 229.657 164 228v-3C164 223.343 165.343 222 167 222v0z" fill="#ff646d"/><path opacity=".4" d="M177 225C178.657 225 180 226.343 180 228v0C180 229.657 178.657 231 177 231v0C175.343 231 174 229.657 174 228v0C174 226.343 175.343 225 177 225v0z" fill="#12b886"/><path opacity=".4" d="M187.5 226c1.381.0 2.5 1.119 2.5 2.5v0c0 1.381-1.119 2.5-2.5 2.5h-1c-1.381.0-2.5-1.119-2.5-2.5v0c0-1.381 1.119-2.5 2.5-2.5h1z" fill="#12b886"/><path opacity=".4" d="M197 207C198.657 207 2e2 208.343 2e2 210v18C2e2 229.657 198.657 231 197 231v0C195.343 231 194 229.657 194 228V210C194 208.343 195.343 207 197 207v0z" fill="#12b886"/><path opacity=".4" d="M207 213C208.657 213 210 214.343 210 216v12C210 229.657 208.657 231 207 231v0C205.343 231 204 229.657 204 228V216C204 214.343 205.343 213 207 213v0z" fill="#12b886"/><path opacity=".4" d="M217.5 226c1.381.0 2.5 1.119 2.5 2.5v0c0 1.381-1.119 2.5-2.5 2.5h-1c-1.381.0-2.5-1.119-2.5-2.5v0c0-1.381 1.119-2.5 2.5-2.5h1z" fill="#ff646d"/><path opacity=".4" d="M227 219C228.657 219 230 220.343 230 222v6C230 229.657 228.657 231 227 231v0C225.343 231 224 229.657 224 228v-6C224 220.343 225.343 219 227 219v0z" fill="#ff646d"/><path opacity=".4" d="M237 225C238.657 225 240 226.343 240 228v0C240 229.657 238.657 231 237 231v0C235.343 231 234 229.657 234 228v0C234 226.343 235.343 225 237 225v0z" fill="#ff646d"/><path opacity=".4" d="M247 220C248.657 220 250 221.343 250 223v5C250 229.657 248.657 231 247 231v0C245.343 231 244 229.657 244 228v-5C244 221.343 245.343 220 247 220v0z" fill="#12b886"/><path opacity=".4" d="M257 225C258.657 225 260 226.343 260 228v0C260 229.657 258.657 231 257 231v0C255.343 231 254 229.657 254 228v0C254 226.343 255.343 225 257 225v0z" fill="#12b886"/><path opacity=".4" d="M267 224C268.657 224 270 225.343 270 227v1C270 229.657 268.657 231 267 231v0C265.343 231 264 229.657 264 228v-1C264 225.343 265.343 224 267 224v0z" fill="#12b886"/><path opacity=".4" d="M277 219C278.657 219 280 220.343 280 222v6C280 229.657 278.657 231 277 231v0C275.343 231 274 229.657 274 228v-6C274 220.343 275.343 219 277 219v0z" fill="#ff646d"/><path d="M17 233c0-2.209 1.7909-4 4-4h6c2.2091.0 4 1.791 4 4v6c0 2.209-1.7909 4-4 4H21c-2.2091.0-4-1.791-4-4v-6z" fill="#12161c"/><path d="M154 20.8C154 16.3196 154 14.0794 154.872 12.3681 155.639 10.8628 156.863 9.63893 158.368 8.87195 160.079 8 162.32 8 166.8 8H279.2C283.68 8 285.921 8 287.632 8.87195 289.137 9.63893 290.361 10.8628 291.128 12.3681 292 14.0794 292 16.3196 292 20.8V96.2c0 4.48.0 6.721-.872000000000014 8.432C290.361 106.137 289.137 107.361 287.632 108.128 285.921 109 283.68 109 279.2 109H166.8C162.32 109 160.079 109 158.368 108.128 156.863 107.361 155.639 106.137 154.872 104.632 154 102.921 154 100.68 154 96.2V20.8z" fill="#29313a"/><path d="M8 20.8c0-4.4804.0-6.7206.87195-8.4319.76698-1.5053 1.99085-2.72917 3.49615-3.49615C14.0794 8 16.3196 8 20.8 8H133.2C137.68 8 139.921 8 141.632 8.87195 143.137 9.63893 144.361 10.8628 145.128 12.3681 146 14.0794 146 16.3196 146 20.8V96.2c0 4.48.0 6.721-.872000000000014 8.432C144.361 106.137 143.137 107.361 141.632 108.128 139.921 109 137.68 109 133.2 109H20.8c-4.4804.0-6.7206.0-8.4319-.872C10.8628 107.361 9.63893 106.137 8.87195 104.632 8 102.921 8 100.68 8 96.2V20.8z" fill="#29313a"/><path d="M17 91C17 88.7909 18.7909 87 21 87h6C29.2091 87 31 88.7909 31 91v6C31 99.2091 29.2091 101 27 101H21C18.7909 101 17 99.2091 17 97V91z" fill="#12161c"/><path d="M16 23c0-3.866 3.134-7 7-7v0c3.866.0 7 3.134 7 7v0c0 3.866-3.134 7-7 7v0c-3.866.0-7-3.134-7-7v0z" fill="#ff8a1f"/><path d="M34 23c0-2.2091 1.7909-4 4-4H51c2.2091.0 4 1.7909 4 4v0c0 2.2091-1.7909 4-4 4H38c-2.2091.0-4-1.7909-4-4v0z" fill="#3e4854"/><path d="M59 23c0-2.2091 1.7909-4 4-4h6C71.2091 19 73 20.7909 73 23v0C73 25.2091 71.2091 27 69 27H63c-2.2091.0-4-1.7909-4-4v0z" fill="#3e4854" fill-opacity=".5"/><path d="M127 23c0-2.2091 1.791-4 4-4v0c2.209.0 4 1.7909 4 4v0c0 2.2091-1.791 4-4 4v0c-2.209.0-4-1.7909-4-4v0z" fill="#3e4854"/><path d="M162 23C162 19.134 165.134 16 169 16v0C172.866 16 176 19.134 176 23v0C176 26.866 172.866 30 169 30v0C165.134 30 162 26.866 162 23v0z" fill="#3a87cd"/><path d="M16 132C16 128.134 19.134 125 23 125v0C26.866 125 30 128.134 30 132v0C30 135.866 26.866 139 23 139v0C19.134 139 16 135.866 16 132v0z" fill="#811fff"/><path d="M180 23c0-2.2091 1.791-4 4-4h19c2.209.0 4 1.7909 4 4v0c0 2.2091-1.791 4-4 4H184c-2.209.0-4-1.7909-4-4v0z" fill="#3e4854"/><path d="M211 23c0-2.2091 1.791-4 4-4h2c2.209.0 4 1.7909 4 4v0c0 2.2091-1.791 4-4 4h-2c-2.209.0-4-1.7909-4-4v0z" fill="#3e4854" fill-opacity=".5"/><path d="M34 132c0-2.209 1.7909-4 4-4H66C68.2091 128 70 129.791 70 132v0C70 134.209 68.2091 136 66 136H38c-2.2091.0-4-1.791-4-4v0z" fill="#3e4854"/><path d="M74 132C74 129.791 75.7909 128 78 128H91C93.2091 128 95 129.791 95 132v0C95 134.209 93.2091 136 91 136H78C75.7909 136 74 134.209 74 132v0z" fill="#3e4854" fill-opacity=".5"/><path d="M273 23c0-2.2091 1.791-4 4-4v0c2.209.0 4 1.7909 4 4v0c0 2.2091-1.791 4-4 4v0c-2.209.0-4-1.7909-4-4v0z" fill="#3e4854"/><path d="M273 132c0-2.209 1.791-4 4-4v0c2.209.0 4 1.791 4 4v0c0 2.209-1.791 4-4 4v0c-2.209.0-4-1.791-4-4v0z" fill="#3e4854"/><path d="M168 98C168 96.3431 169.343 95 171 95h7C179.657 95 181 96.3431 181 98v0C181 99.6569 179.657 101 178 101h-7C169.343 101 168 99.6569 168 98v0z" fill="#3e4854"/><path d="M52 98C52 96.3431 53.3431 95 55 95H66C67.6569 95 69 96.3431 69 98v0C69 99.6569 67.6569 101 66 101H55C53.3431 101 52 99.6569 52 98v0z" fill="#3e4854"/><path d="M85 98C85 96.3431 86.3431 95 88 95H99C100.657 95 102 96.3431 102 98v0C102 99.6569 100.657 101 99 101H88C86.3431 101 85 99.6569 85 98v0z" fill="#3e4854"/><path d="M217 98C217 96.3431 218.343 95 220 95h7C228.657 95 230 96.3431 230 98v0C230 99.6569 228.657 101 227 101h-7C218.343 101 217 99.6569 217 98v0z" fill="#3e4854"/><path d="M118 98C118 96.3431 119.343 95 121 95h11C133.657 95 135 96.3431 135 98v0C135 99.6569 133.657 101 132 101H121C119.343 101 118 99.6569 118 98v0z" fill="#3e4854"/><path d="M266 98C266 96.3431 267.343 95 269 95h7C277.657 95 279 96.3431 279 98v0C279 99.6569 277.657 101 276 101h-7C267.343 101 266 99.6569 266 98v0z" fill="#3e4854"/><path d="M60 241C60 239.343 61.3431 238 63 238H74C75.6569 238 77 239.343 77 241v0C77 242.657 75.6569 244 74 244H63C61.3431 244 60 242.657 60 241v0z" fill="#3e4854"/><path d="M101 241c0-1.65700000000001 1.343-3 3-3h11c1.657.0 3 1.34299999999999 3 3v0c0 1.65700000000001-1.343 3-3 3H104C102.343 244 101 242.657 101 241v0z" fill="#3e4854"/><path d="M142 241C142 239.343 143.343 238 145 238h11C157.657 238 159 239.343 159 241v0C159 242.657 157.657 244 156 244H145C143.343 244 142 242.657 142 241v0z" fill="#3e4854"/><path d="M183 241C183 239.343 184.343 238 186 238h11C198.657 238 2e2 239.343 2e2 241v0C2e2 242.657 198.657 244 197 244H186C184.343 244 183 242.657 183 241v0z" fill="#3e4854"/><path d="M224 241C224 239.343 225.343 238 227 238h11C239.657 238 241 239.343 241 241v0C241 242.657 239.657 244 238 244H227C225.343 244 224 242.657 224 241v0z" fill="#3e4854"/><path d="M265 241C265 239.343 266.343 238 268 238h11C280.657 238 282 239.343 282 241v0C282 242.657 280.657 244 279 244H268C266.343 244 265 242.657 265 241v0z" fill="#3e4854"/><path d="M43 150C43 148.895 42.1046 148 41 148v0C39.8954 148 39 148.895 39 150v7C39 158.105 38.1046 159 37 159H36C34.8954 159 34 159.895 34 161v14C34 176.105 34.8954 177 36 177h1C38.1046 177 39 177.895 39 179v15C39 195.105 39.8954 196 41 196v0C42.1046 196 43 195.105 43 194V179C43 177.895 43.8954 177 45 177h1C47.1046 177 48 176.105 48 175V161C48 159.895 47.1046 159 46 159H45C43.8954 159 43 158.105 43 157v-7z" fill="#12b886"/><path d="M61 154C61 152.895 60.1046 152 59 152v0C57.8954 152 57 152.895 57 154v0C57 155.105 56.1046 156 55 156H53.5C52.6716 156 52 156.672 52 157.5v0C52 158.328 52.6716 159 53.5 159H55C56.1046 159 57 159.895 57 161v3C57 165.105 57.8954 166 59 166v0C60.1046 166 61 165.105 61 164v-3C61 159.895 61.8954 159 63 159h1.5C65.3284 159 66 158.328 66 157.5v0C66 156.672 65.3284 156 64.5 156H63C61.8954 156 61 155.105 61 154v0z" fill="#12b886"/><path d="M79 147C79 145.895 78.1046 145 77 145v0C75.8954 145 75 145.895 75 147v7C75 155.105 74.1046 156 73 156H72C70.8954 156 70 156.895 70 158v35C70 194.105 70.8954 195 72 195h1C74.1046 195 75 195.895 75 197v4C75 202.105 75.8954 203 77 203v0C78.1046 203 79 202.105 79 201v-4C79 195.895 79.8954 195 81 195h1C83.1046 195 84 194.105 84 193V158C84 156.895 83.1046 156 82 156H81C79.8954 156 79 155.105 79 154v-7z" fill="#ff646d"/><path d="M97 152C97 150.895 96.1046 150 95 150v0C93.8954 150 93 150.895 93 152v7C93 160.105 92.1046 161 91 161H90C88.8954 161 88 161.895 88 163v7C88 171.105 88.8954 172 90 172h1C92.1046 172 93 172.895 93 174v4C93 179.105 93.8954 180 95 180v0C96.1046 180 97 179.105 97 178v-4C97 172.895 97.8954 172 99 172h1c1.105.0 2-.89500000000001 2-2v-7C102 161.895 101.105 161 1e2 161H99C97.8954 161 97 160.105 97 159v-7z" fill="#ff646d"/><path d="M40.0714 34.5714C40.0714 33.7036 39.3679 33 38.5 33v0C37.6321 33 36.9286 33.7036 36.9286 34.5714V35.969c0 .808799999999998-.6556 1.4643-1.4643 1.4643v0C34.6556 37.4333 34 38.0889 34 38.8976v5.5048C34 45.2111 34.6556 45.8667 35.4643 45.8667v0c.808700000000002.0 1.4643.6556 1.4643 1.4643v3.0976C36.9286 51.2964 37.6321 52 38.5 52v0C39.3679 52 40.0714 51.2964 40.0714 50.4286V47.331c0-.808700000000002.6556-1.4643 1.4643-1.4643v0C42.3444 45.8667 43 45.2111 43 44.4024V38.8976C43 38.0889 42.3444 37.4333 41.5357 37.4333v0C40.727 37.4333 40.0714 36.7778 40.0714 35.969V34.5714z" fill="#12b886"/><path d="M27.0714 45.5714C27.0714 44.7036 26.3679 44 25.5 44v0C24.6321 44 23.9286 44.7036 23.9286 45.5714V46.969c0 .808799999999998-.6556 1.4643-1.4643 1.4643v0C21.6556 48.4333 21 49.0889 21 49.8976v5.5048C21 56.2111 21.6556 56.8667 22.4643 56.8667v0c.808699999999998.0 1.4643.6556 1.4643 1.4643v3.0976C23.9286 62.2964 24.6321 63 25.5 63v0C26.3679 63 27.0714 62.2964 27.0714 61.4286V58.331c0-.808700000000002.6556-1.4643 1.4643-1.4643v0C29.3444 56.8667 30 56.2111 30 55.4024V49.8976C30 49.0889 29.3444 48.4333 28.5357 48.4333v0C27.727 48.4333 27.0714 47.7778 27.0714 46.969V45.5714z" fill="#ff646d"/><path d="M53.0714 38.5714C53.0714 37.7036 52.3679 37 51.5 37v0C50.6321 37 49.9286 37.7036 49.9286 38.5714V43.969c0 .808799999999998-.6556 1.4643-1.4643 1.4643v0C47.6556 45.4333 47 46.0889 47 46.8976V76.4024C47 77.2111 47.6556 77.8667 48.4643 77.8667v0C49.273 77.8667 49.9286 78.5223 49.9286 79.331v3.0976C49.9286 83.2964 50.6321 84 51.5 84v0C52.3679 84 53.0714 83.2964 53.0714 82.4286V79.331C53.0714 78.5223 53.727 77.8667 54.5357 77.8667v0C55.3444 77.8667 56 77.2111 56 76.4024V46.8976C56 46.0889 55.3444 45.4333 54.5357 45.4333v0C53.727 45.4333 53.0714 44.7777 53.0714 43.969V38.5714z" fill="#ff646d"/><path d="M175.071 57.5714C175.071 56.7036 174.368 56 173.5 56v0C172.632 56 171.929 56.7036 171.929 57.5714V62.969C171.929 63.7778 171.273 64.4333 170.464 64.4333v0C169.656 64.4333 169 65.0889 169 65.8976v3.5048C169 70.2111 169.656 70.8667 170.464 70.8667v0C171.273 70.8667 171.929 71.5223 171.929 72.331v3.0976C171.929 76.2964 172.632 77 173.5 77v0C174.368 77 175.071 76.2964 175.071 75.4286V72.331C175.071 71.5223 175.727 70.8667 176.536 70.8667v0C177.344 70.8667 178 70.2111 178 69.4024V65.8976C178 65.0889 177.344 64.4333 176.536 64.4333v0C175.727 64.4333 175.071 63.7778 175.071 62.969V57.5714z" fill="#ff646d"/><path d="M66.0714 71.5714C66.0714 70.7036 65.3679 70 64.5 70v0C63.6321 70 62.9286 70.7036 62.9286 71.5714V76.969C62.9286 77.7778 62.273 78.4333 61.4643 78.4333v0C60.6556 78.4333 60 79.0889 60 79.8976v5.5048C60 86.2111 60.6556 86.8667 61.4643 86.8667v0C62.273 86.8667 62.9286 87.5223 62.9286 88.331v1.0976C62.9286 90.2964 63.6321 91 64.5 91v0C65.3679 91 66.0714 90.2964 66.0714 89.4286V88.331C66.0714 87.5223 66.727 86.8667 67.5357 86.8667v0C68.3444 86.8667 69 86.2111 69 85.4024V79.8976C69 79.0889 68.3444 78.4333 67.5357 78.4333v0C66.727 78.4333 66.0714 77.7777 66.0714 76.969V71.5714z" fill="#ff646d"/><path d="M188.071 65.5714C188.071 64.7036 187.368 64 186.5 64v0C185.632 64 184.929 64.7036 184.929 65.5714V70.969C184.929 71.7778 184.273 72.4333 183.464 72.4333v0C182.656 72.4333 182 73.0889 182 73.8976v5.5048C182 80.2111 182.656 80.8667 183.464 80.8667v0C184.273 80.8667 184.929 81.5223 184.929 82.331v1.0976C184.929 84.2964 185.632 85 186.5 85v0C187.368 85 188.071 84.2964 188.071 83.4286V82.331C188.071 81.5223 188.727 80.8667 189.536 80.8667v0C190.344 80.8667 191 80.2111 191 79.4024V73.8976C191 73.0889 190.344 72.4333 189.536 72.4333v0C188.727 72.4333 188.071 71.7777 188.071 70.969V65.5714z" fill="#ff646d"/><path d="M214.071 40.5714C214.071 39.7036 213.368 39 212.5 39v0C211.632 39 210.929 39.7036 210.929 40.5714V45.969C210.929 46.7778 210.273 47.4333 209.464 47.4333v0C208.656 47.4333 208 48.0889 208 48.8976v5.5048C208 55.2111 208.656 55.8667 209.464 55.8667v0C210.273 55.8667 210.929 56.5222 210.929 57.331V78.4286C210.929 79.2964 211.632 80 212.5 80v0C213.368 80 214.071 79.2964 214.071 78.4286V57.331C214.071 56.5223 214.727 55.8667 215.536 55.8667v0C216.344 55.8667 217 55.2111 217 54.4024V48.8976C217 48.0889 216.344 47.4333 215.536 47.4333v0c-.808999999999998.0-1.465-.6556-1.465-1.4643V40.5714z" fill="#ff646d"/><path d="M227.071 66.5714C227.071 65.7036 226.368 65 225.5 65v0C224.632 65 223.929 65.7036 223.929 66.5714V67.969C223.929 68.7778 223.273 69.4333 222.464 69.4333v0C221.656 69.4333 221 70.0889 221 70.8976V71.4024C221 72.2111 221.656 72.8667 222.464 72.8667v0C223.273 72.8667 223.929 73.5223 223.929 74.331v1.0976C223.929 76.2964 224.632 77 225.5 77v0C226.368 77 227.071 76.2964 227.071 75.4286V74.331C227.071 73.5223 227.727 72.8667 228.536 72.8667v0C229.344 72.8667 230 72.2111 230 71.4024V70.8976C230 70.0889 229.344 69.4333 228.536 69.4333v0C227.727 69.4333 227.071 68.7778 227.071 67.969V66.5714z" fill="#ff646d"/><path d="M240.071 55.5714C240.071 54.7036 239.368 54 238.5 54v0C237.632 54 236.929 54.7036 236.929 55.5714V60.969C236.929 61.7778 236.273 62.4333 235.464 62.4333v0C234.656 62.4333 234 63.0889 234 63.8976v5.5048C234 70.2111 234.656 70.8667 235.464 70.8667v0C236.273 70.8667 236.929 71.5223 236.929 72.331v1.0976C236.929 74.2964 237.632 75 238.5 75v0C239.368 75 240.071 74.2964 240.071 73.4286V72.331C240.071 71.5223 240.727 70.8667 241.536 70.8667v0C242.344 70.8667 243 70.2111 243 69.4024V63.8976C243 63.0889 242.344 62.4333 241.536 62.4333v0c-.808999999999998.0-1.465-.6556-1.465-1.4643V55.5714z" fill="#12b886"/><path d="M253.071 42.5714C253.071 41.7036 252.368 41 251.5 41v0C250.632 41 249.929 41.7036 249.929 42.5714V47.969C249.929 48.7778 249.273 49.4333 248.464 49.4333v0C247.656 49.4333 247 50.0889 247 50.8976V63.4024C247 64.2111 247.656 64.8667 248.464 64.8667v0C249.273 64.8667 249.929 65.5223 249.929 66.331v1.0976C249.929 68.2964 250.632 69 251.5 69v0C252.368 69 253.071 68.2964 253.071 67.4286V66.331C253.071 65.5223 253.727 64.8667 254.536 64.8667v0C255.344 64.8667 256 64.2111 256 63.4024V50.8976C256 50.0889 255.344 49.4333 254.536 49.4333v0c-.808999999999998.0-1.465-.6556-1.465-1.4643V42.5714z" fill="#12b886"/><path d="M266.071 51.5714C266.071 50.7036 265.368 50 264.5 50v0C263.632 50 262.929 50.7036 262.929 51.5714V62.969C262.929 63.7778 262.273 64.4333 261.464 64.4333v0C260.656 64.4333 260 65.0889 260 65.8976v9.5048C260 76.2111 260.656 76.8667 261.464 76.8667v0C262.273 76.8667 262.929 77.5223 262.929 78.331v.1023C262.929 79.2986 263.635 80 264.5 80v0C265.365 80 266.071 79.2986 266.071 78.4333V78.331C266.071 77.5223 266.727 76.8667 267.536 76.8667v0C268.344 76.8667 269 76.2111 269 75.4024V65.8976C269 65.0889 268.344 64.4333 267.536 64.4333v0C266.727 64.4333 266.071 63.7777 266.071 62.969V51.5714z" fill="#ff646d"/><path d="M279.071 65.5714C279.071 64.7036 278.368 64 277.5 64v0C276.632 64 275.929 64.7036 275.929 65.5714V70.969C275.929 71.7778 275.273 72.4333 274.464 72.4333v0C273.656 72.4333 273 73.0889 273 73.8976v1.5048C273 76.2111 273.656 76.8667 274.464 76.8667v0C275.273 76.8667 275.929 77.5222 275.929 78.331v9.0976C275.929 88.2964 276.632 89 277.5 89v0C278.368 89 279.071 88.2964 279.071 87.4286V78.331C279.071 77.5223 279.727 76.8667 280.536 76.8667v0C281.344 76.8667 282 76.2111 282 75.4024V73.8976C282 73.0889 281.344 72.4333 280.536 72.4333v0C279.727 72.4333 279.071 71.7777 279.071 70.969V65.5714z" fill="#ff646d"/><path d="M79.0714 60.5714C79.0714 59.7036 78.3679 59 77.5 59v0C76.6321 59 75.9286 59.7036 75.9286 60.5714V65.969C75.9286 66.7778 75.273 67.4333 74.4643 67.4333v0C73.6556 67.4333 73 68.0889 73 68.8976V86.4024C73 87.2111 73.6556 87.8667 74.4643 87.8667v0C75.273 87.8667 75.9286 88.5223 75.9286 89.331v.1023C75.9286 90.2986 76.6348 91 77.5 91v0C78.3652 91 79.0714 90.2986 79.0714 89.4333V89.331C79.0714 88.5223 79.727 87.8667 80.5357 87.8667v0C81.3444 87.8667 82 87.2111 82 86.4024V68.8976C82 68.0889 81.3444 67.4333 80.5357 67.4333v0C79.727 67.4333 79.0714 66.7777 79.0714 65.969V60.5714z" fill="#12b886"/><path d="M201.071 40.5714C201.071 39.7036 200.368 39 199.5 39v0C198.632 39 197.929 39.7036 197.929 40.5714V45.969C197.929 46.7778 197.273 47.4333 196.464 47.4333v0C195.656 47.4333 195 48.0889 195 48.8976V66.4024C195 67.2111 195.656 67.8667 196.464 67.8667v0C197.273 67.8667 197.929 68.5223 197.929 69.331v8.0976C197.929 78.2964 198.632 79 199.5 79v0C200.368 79 201.071 78.2964 201.071 77.4286V69.331C201.071 68.5223 201.727 67.8667 202.536 67.8667v0C203.344 67.8667 204 67.2111 204 66.4024V48.8976C204 48.0889 203.344 47.4333 202.536 47.4333v0c-.808999999999998.0-1.465-.6556-1.465-1.4643V40.5714z" fill="#12b886"/><path d="M92.0714 58.2167C92.0714 57.5447 91.5267 57 90.8548 57H90.1452C89.4733 57 88.9286 57.5447 88.9286 58.2167v0C88.9286 58.8886 88.3839 59.4333 87.7119 59.4333H87.4643C86.6556 59.4333 86 60.0889 86 60.8976v5.5048C86 67.2111 86.6556 67.8667 87.4643 67.8667v0C88.273 67.8667 88.9286 68.5222 88.9286 69.331v5.0976C88.9286 75.2964 89.6321 76 90.5 76v0C91.3679 76 92.0714 75.2964 92.0714 74.4286V69.331C92.0714 68.5223 92.727 67.8667 93.5357 67.8667v0C94.3444 67.8667 95 67.2111 95 66.4024V60.8976C95 60.0889 94.3444 59.4333 93.5357 59.4333H93.2881C92.6161 59.4333 92.0714 58.8886 92.0714 58.2167v0z" fill="#12b886"/><path d="M105.071 56.5714C105.071 55.7036 104.368 55 103.5 55v0C102.632 55 101.929 55.7036 101.929 56.5714V56.969C101.929 57.7778 101.273 58.4333 100.464 58.4333v0C99.6556 58.4333 99 59.0889 99 59.8976V70.4024C99 71.2111 99.6556 71.8667 100.464 71.8667v0C101.273 71.8667 101.929 72.5223 101.929 73.331v3.0976C101.929 77.2964 102.632 78 103.5 78v0C104.368 78 105.071 77.2964 105.071 76.4286V73.331C105.071 72.5223 105.727 71.8667 106.536 71.8667v0C107.344 71.8667 108 71.2111 108 70.4024V59.8976C108 59.0889 107.344 58.4333 106.536 58.4333v0C105.727 58.4333 105.071 57.7778 105.071 56.969V56.5714z" fill="#12b886"/><path d="M118.071 63.5714C118.071 62.7036 117.368 62 116.5 62v0C115.632 62 114.929 62.7036 114.929 63.5714V68.969C114.929 69.7778 114.273 70.4333 113.464 70.4333v0C112.656 70.4333 112 71.0889 112 71.8976v2.5048C112 75.2111 112.656 75.8667 113.464 75.8667v0C114.273 75.8667 114.929 76.5222 114.929 77.331v9.0976C114.929 87.2964 115.632 88 116.5 88v0C117.368 88 118.071 87.2964 118.071 86.4286V77.331C118.071 76.5223 118.727 75.8667 119.536 75.8667v0C120.344 75.8667 121 75.2111 121 74.4024V71.8976C121 71.0889 120.344 70.4333 119.536 70.4333v0C118.727 70.4333 118.071 69.7777 118.071 68.969V63.5714z" fill="#ff646d"/><path d="M131.071 36.5714C131.071 35.7036 130.368 35 129.5 35v0C128.632 35 127.929 35.7036 127.929 36.5714V42.969C127.929 43.7778 127.273 44.4333 126.464 44.4333v0C125.656 44.4333 125 45.0889 125 45.8976V67.4024C125 68.2111 125.656 68.8667 126.464 68.8667H126.862C127.451 68.8667 127.929 69.3442 127.929 69.9333v0C127.929 70.5224 128.406 71 128.995 71H130.005C130.594 71 131.071 70.5224 131.071 69.9333v0C131.071 69.3442 131.549 68.8667 132.138 68.8667H132.536C133.344 68.8667 134 68.2111 134 67.4024V45.8976C134 45.0889 133.344 44.4333 132.536 44.4333v0c-.808999999999998.0-1.465-.6556-1.465-1.4643V36.5714z" fill="#12b886"/><path d="M115 142C115 140.895 114.105 140 113 140v0c-1.105.0-2 .89500000000001-2 2v7C111 150.105 110.105 151 109 151h-1c-1.105.0-2 .89500000000001-2 2v7C106 161.105 106.895 162 108 162h1c1.105.0 2 .89500000000001 2 2v4C111 169.105 111.895 170 113 170v0c1.105.0 2-.89500000000001 2-2v-4C115 162.895 115.895 162 117 162h1c1.105.0 2-.89500000000001 2-2v-7C120 151.895 119.105 151 118 151h-1c-1.105.0-2-.89500000000001-2-2v-7z" fill="#12b886"/><path d="M133 162C133 160.895 132.105 160 131 160v0C129.895 160 129 160.895 129 162v7C129 170.105 128.105 171 127 171h-1c-1.105.0-2 .89500000000001-2 2v12C124 186.105 124.895 187 126 187h1C128.105 187 129 187.895 129 189v7C129 197.105 129.895 198 131 198v0C132.105 198 133 197.105 133 196v-7C133 187.895 133.895 187 135 187h1C137.105 187 138 186.105 138 185V173C138 171.895 137.105 171 136 171h-1C133.895 171 133 170.105 133 169v-7z" fill="#ff646d"/><path d="M151 169.5C151 168.672 150.328 168 149.5 168h-1C147.672 168 147 168.672 147 169.5v0C147 170.328 146.328 171 145.5 171H144C142.895 171 142 171.895 142 173v23C142 197.105 142.895 198 144 198h1C146.105 198 147 198.895 147 2e2v4C147 205.105 147.895 206 149 206v0C150.105 206 151 205.105 151 204v-4C151 198.895 151.895 198 153 198h1C155.105 198 156 197.105 156 196V173C156 171.895 155.105 171 154 171h-1.5C151.672 171 151 170.328 151 169.5v0z" fill="#12b886"/><path d="M169 194C169 192.895 168.105 192 167 192v0C165.895 192 165 192.895 165 194v4C165 199.105 164.105 2e2 163 2e2h-1C160.895 2e2 160 200.895 160 202v1C160 204.105 160.895 205 162 205h1C164.105 205 165 205.895 165 207v4C165 212.105 165.895 213 167 213v0C168.105 213 169 212.105 169 211v-4C169 205.895 169.895 205 171 205h1C173.105 205 174 204.105 174 203v-1C174 200.895 173.105 2e2 172 2e2h-1C169.895 2e2 169 199.105 169 198v-4z" fill="#ff646d"/><path d="M187 161C187 159.895 186.105 159 185 159v0C183.895 159 183 159.895 183 161v7C183 169.105 182.105 170 181 170h-1C178.895 170 178 170.895 178 172v31C178 204.105 178.895 205 180 205h1C182.105 205 183 205.895 183 207v4C183 212.105 183.895 213 185 213v0C186.105 213 187 212.105 187 211v-4C187 205.895 187.895 205 189 205h1C191.105 205 192 204.105 192 203V172C192 170.895 191.105 170 190 170h-1C187.895 170 187 169.105 187 168v-7z" fill="#12b886"/><path d="M205 151C205 149.895 204.105 149 203 149v0C201.895 149 201 149.895 201 151v7C201 159.105 200.105 160 199 160h-1C196.895 160 196 160.895 196 162v7C196 170.105 196.895 171 198 171h1C200.105 171 201 171.895 201 173v20C201 194.105 201.895 195 203 195v0C204.105 195 205 194.105 205 193V173C205 171.895 205.895 171 207 171h1C209.105 171 210 170.105 210 169v-7C210 160.895 209.105 160 208 160h-1C205.895 160 205 159.105 205 158v-7z" fill="#12b886"/><path d="M223 183C223 181.895 222.105 181 221 181v0C219.895 181 219 181.895 219 183v7C219 191.105 218.105 192 217 192h-1.5C214.672 192 214 192.672 214 193.5v0C214 194.328 214.672 195 215.5 195h2C218.328 195 219 195.672 219 196.5v0C219 197.328 219.672 198 220.5 198h1C222.328 198 223 197.328 223 196.5v0C223 195.672 223.672 195 224.5 195h2C227.328 195 228 194.328 228 193.5v0C228 192.672 227.328 192 226.5 192H225C223.895 192 223 191.105 223 190v-7z" fill="#ff646d"/><path d="M241 183C241 181.895 240.105 181 239 181v0C237.895 181 237 181.895 237 183v7C237 191.105 236.105 192 235 192h-1C232.895 192 232 192.895 232 194v7C232 202.105 232.895 203 234 203h1C236.105 203 237 203.895 237 205v4C237 210.105 237.895 211 239 211v0C240.105 211 241 210.105 241 209v-4C241 203.895 241.895 203 243 203h1C245.105 203 246 202.105 246 201v-7C246 192.895 245.105 192 244 192h-1C241.895 192 241 191.105 241 190v-7z" fill="#ff646d"/><path d="M259 153C259 151.895 258.105 151 257 151v0C255.895 151 255 151.895 255 153v15C255 169.105 254.105 170 253 170h-1C250.895 170 250 170.895 250 172v15C250 188.105 250.895 189 252 189h1C254.105 189 255 189.895 255 191v2C255 194.105 255.895 195 257 195v0C258.105 195 259 194.105 259 193v-2C259 189.895 259.895 189 261 189h1C263.105 189 264 188.105 264 187V172C264 170.895 263.105 170 262 170h-1C259.895 170 259 169.105 259 168V153z" fill="#12b886"/><path d="M277 173C277 171.895 276.105 171 275 171v0C273.895 171 273 171.895 273 173v7C273 181.105 272.105 182 271 182h-1C268.895 182 268 182.895 268 184v7C268 192.105 268.895 193 270 193h1C272.105 193 273 193.895 273 195v4C273 200.105 273.895 201 275 201v0C276.105 201 277 200.105 277 199v-4C277 193.895 277.895 193 279 193h1C281.105 193 282 192.105 282 191v-7C282 182.895 281.105 182 280 182h-1C277.895 182 277 181.105 277 180v-7z" fill="#ff646d"/></svg>