<svg width="300" height="260" viewBox="0 0 300 260" fill="none" xmlns="http://www.w3.org/2000/svg"><rect width="300" height="260" rx="16" fill="#1e242c"/><path d="M47 238C47 236.343 48.3431 235 50 235H61C62.6569 235 64 236.343 64 238v0C64 239.657 62.6569 241 61 241H50C48.3431 241 47 239.657 47 238v0z" fill="#29313a"/><path d="M96 238C96 236.343 97.3431 235 99 235h11c1.657.0 3 1.34299999999999 3 3v0c0 1.65700000000001-1.343 3-3 3H99C97.3431 241 96 239.657 96 238v0z" fill="#29313a"/><path d="M145 238C145 236.343 146.343 235 148 235h11C160.657 235 162 236.343 162 238v0C162 239.657 160.657 241 159 241H148C146.343 241 145 239.657 145 238v0z" fill="#29313a"/><path d="M194 238C194 236.343 195.343 235 197 235h11C209.657 235 211 236.343 211 238v0C211 239.657 209.657 241 208 241H197C195.343 241 194 239.657 194 238v0z" fill="#29313a"/><path d="M243 238C243 236.343 244.343 235 246 235h11C258.657 235 260 236.343 260 238v0C260 239.657 258.657 241 257 241H246C244.343 241 243 239.657 243 238v0z" fill="#29313a"/><path d="M260 87.5C260 86.1193 261.119 85 262.5 85h19C282.881 85 284 86.1193 284 87.5v0C284 88.8807 282.881 90 281.5 90h-19C261.119 90 260 88.8807 260 87.5v0z" fill="#29313a"/><path d="M260 61.5C260 60.1193 261.119 59 262.5 59h19C282.881 59 284 60.1193 284 61.5v0C284 62.8807 282.881 64 281.5 64h-19C261.119 64 260 62.8807 260 61.5v0z" fill="#29313a"/><path d="M260 35.5C260 34.1193 261.119 33 262.5 33h19C282.881 33 284 34.1193 284 35.5v0C284 36.8807 282.881 38 281.5 38h-19C261.119 38 260 36.8807 260 35.5v0z" fill="#29313a"/><path d="M260 113.5C260 112.119 261.119 111 262.5 111h19C282.881 111 284 112.119 284 113.5v0C284 114.881 282.881 116 281.5 116h-19C261.119 116 260 114.881 260 113.5v0z" fill="#29313a"/><path d="M260 139.5C260 138.119 261.119 137 262.5 137h19C282.881 137 284 138.119 284 139.5v0C284 140.881 282.881 142 281.5 142h-19C261.119 142 260 140.881 260 139.5v0z" fill="#29313a"/><path d="M260 165.5C260 164.119 261.119 163 262.5 163h19C282.881 163 284 164.119 284 165.5v0C284 166.881 282.881 168 281.5 168h-19C261.119 168 260 166.881 260 165.5v0z" fill="#29313a"/><path d="M260 191.5C260 190.119 261.119 189 262.5 189h19C282.881 189 284 190.119 284 191.5v0C284 192.881 282.881 194 281.5 194h-19C261.119 194 260 192.881 260 191.5v0z" fill="#29313a"/><path d="M260 217.5C260 216.119 261.119 215 262.5 215h19C282.881 215 284 216.119 284 217.5v0C284 218.881 282.881 220 281.5 220h-19C261.119 220 260 218.881 260 217.5v0z" fill="#29313a"/><path d="M8 46c0-4.4183 3.5817-8 8-8h4c4.4183.0 8 3.5817 8 8v4c0 4.4183-3.5817 8-8 8H16c-4.4183.0-8-3.5817-8-8V46z" fill="#3e4854"/><path d="M8 74c0-4.4183 3.5817-8 8-8h4c4.4183.0 8 3.5817 8 8v4c0 4.4183-3.5817 8-8 8H16c-4.4183.0-8-3.5817-8-8V74z" fill="#3e4854"/><path d="M8 102c0-4.4183 3.5817-8 8-8h4c4.4183.0 8 3.5817 8 8v4C28 110.418 24.4183 114 20 114H16C11.5817 114 8 110.418 8 106v-4z" fill="#ffbc52"/><path opacity=".4" d="M14 104c0-2.209 1.7909-4 4-4v0c2.2091.0 4 1.791 4 4v0c0 2.209-1.7909 4-4 4v0c-2.2091.0-4-1.791-4-4v0z" fill="#fff"/><path d="M8 130C8 125.582 11.5817 122 16 122h4C24.4183 122 28 125.582 28 130v4C28 138.418 24.4183 142 20 142H16C11.5817 142 8 138.418 8 134v-4z" fill="#3e4854"/><path d="M8 158C8 153.582 11.5817 150 16 150h4C24.4183 150 28 153.582 28 158v4C28 166.418 24.4183 170 20 170H16C11.5817 170 8 166.418 8 162v-4z" fill="#00aee9"/><path d="M8 186C8 181.582 11.5817 178 16 178h4C24.4183 178 28 181.582 28 186v4C28 194.418 24.4183 198 20 198H16C11.5817 198 8 194.418 8 190v-4z" fill="#3e4854"/><path d="M8 214C8 209.582 11.5817 206 16 206h4C24.4183 206 28 209.582 28 214v4C28 222.418 24.4183 226 20 226H16C11.5817 226 8 222.418 8 218v-4z" fill="#3e4854"/><path d="M8 24c0-1.6569 1.34315-3 3-3H52c1.6569.0 3 1.3431 3 3v0c0 1.6569-1.3431 3-3 3H11c-1.65685.0-3-1.3431-3-3v0z" fill="#3e4854"/><path d="M39 87.5c0-.2761.2239-.5.5-.5h213c.27600000000001.0.5.2239.5.5v0c0 .2761-.22399999999999.5-.5.5H39.5c-.2761.0-.5-.2239-.5-.5v0z" fill="#29313a"/><path d="M39 61.5c0-.2761.2239-.5.5-.5h213c.27600000000001.0.5.2239.5.5v0c0 .2761-.22399999999999.5-.5.5H39.5c-.2761.0-.5-.2239-.5-.5v0z" fill="#29313a"/><path d="M39 35.5c0-.2761.2239-.5.5-.5h213c.27600000000001.0.5.2239.5.5v0c0 .2761-.22399999999999.5-.5.5H39.5c-.2761.0-.5-.2239-.5-.5v0z" fill="#29313a"/><path d="M39 48c0-2.7614 2.2386-5 5-5h61c2.761.0 5 2.2386 5 5v0c0 2.7614-2.239 5-5 5H44c-2.7614.0-5-2.2386-5-5v0z" fill="#2c353f"/><path d="M39 113.5C39 113.224 39.2239 113 39.5 113h213C252.776 113 253 113.224 253 113.5v0C253 113.776 252.776 114 252.5 114H39.5C39.2239 114 39 113.776 39 113.5v0z" fill="#29313a"/><path d="M39 139.5c0-.27600000000001.2239-.5.5-.5h213C252.776 139 253 139.224 253 139.5v0C253 139.776 252.776 140 252.5 140H39.5C39.2239 140 39 139.776 39 139.5v0z" fill="#29313a"/><path d="M39 165.5c0-.27600000000001.2239-.5.5-.5h213C252.776 165 253 165.224 253 165.5v0C253 165.776 252.776 166 252.5 166H39.5C39.2239 166 39 165.776 39 165.5v0z" fill="#29313a"/><path d="M39 191.5c0-.27600000000001.2239-.5.5-.5h213C252.776 191 253 191.224 253 191.5v0C253 191.776 252.776 192 252.5 192H39.5C39.2239 192 39 191.776 39 191.5v0z" fill="#29313a"/><path d="M39 217.5c0-.27600000000001.2239-.5.5-.5h213C252.776 217 253 217.224 253 217.5v0C253 217.776 252.776 218 252.5 218H39.5C39.2239 218 39 217.776 39 217.5v0z" fill="#29313a"/><path d="M153.5 231C153.224 231 153 230.776 153 230.5V36.5c0-.2761.22399999999999-.5.5-.5v0c.27600000000001.0.5.2239.5.5v194C154 230.776 153.776 231 153.5 231v0z" fill="#29313a"/><path fill-rule="evenodd" clip-rule="evenodd" d="M204.88 93.273C202.269 99.1338 199.836 104.598 197.093 108.21c-7.732 10.18-15.569 14.95-23.579 16.695C165.608 126.627 157.764 125.339 150.239 123.918 149.639 123.804 149.041 123.69 148.445 123.576 141.446 122.241 134.712 120.956 127.888 121.594 120.615 122.274 113.166 125.162 105.414 132.914 99.811 138.517 95.2378 143.777 91.0424 148.601 90.6953 149 90.3507 149.397 90.0084 149.79 85.5499 154.911 81.4309 159.563 76.9328 163.451 67.786 171.356 57.1841 176 39 176v-4C56.3159 172 65.964 167.644 74.3172 160.424 78.5691 156.749 82.5126 152.308 86.9916 147.163 87.3356 146.768 87.6826 146.369 88.0329 145.966 92.2213 141.149 96.8799 135.792 102.586 130.086 110.981 121.691 119.292 118.381 127.516 117.611 134.934 116.917 142.219 118.312 149.114 119.631 149.74 119.751 150.362 119.87 150.981 119.987 158.545 121.415 165.645 122.525 172.662 120.997 179.575 119.491 186.639 115.36 193.907 105.79 196.358 102.563 198.631 97.4694 201.383 91.2925 204.087 85.222 207.186 78.2811 211.238 71.761 219.383 58.6549 231.555 47 252.5 47v4c-19.055.0-30.134 10.4341-37.865 22.8725C210.75 80.1246 207.754 86.8199 205.037 92.9202L204.88 93.273z" fill="#ffbc52"/><path fill-rule="evenodd" clip-rule="evenodd" d="M205.051 169.034C202.445 173.599 199.921 178.02 196.998 181.325 188.61 190.807 180.317 193.925 172.039 193.442 163.983 192.973 156.206 189.084 148.869 185.325 148.618 185.196 148.367 185.068 148.117 184.94 140.887 181.232 134.054 177.728 127.141 176.856 120.218 175.982 113.08 177.749 105.414 185.414 99.1841 191.644 94.0103 195.142 89.1094 196.71 84.1444 198.298 79.6939 197.831 75.114 196.621 72.8033 196.01 70.4679 195.223 67.9879 194.386 60.6368 191.907 52.0148 189 39 189v-4C52.7427 185 62.2207 188.201 69.6388 190.707 71.9878 191.5 74.1302 192.224 76.136 192.754 80.3061 193.856 83.9181 194.171 87.8906 192.9 91.9272 191.608 96.5659 188.606 102.586 182.586 111.067 174.104 119.413 171.849 127.641 172.887 135.274 173.851 142.68 177.653 149.687 181.249 150.023 181.422 150.358 181.594 150.693 181.765 158.168 185.594 165.197 189.037 172.271 189.449 179.123 189.848 186.284 187.4 194.002 178.675 196.646 175.686 198.987 171.587 201.698 166.839L201.896 166.492C204.648 161.674 207.737 156.32 211.76 151.365 219.905 141.33 231.827 133 252.5 133v4C233.173 137 222.345 144.67 214.865 153.885 211.075 158.555 208.133 163.639 205.369 168.476 205.263 168.662 205.157 168.848 205.051 169.034z" fill="#00aee9"/><path opacity=".4" d="M14 160c0-2.209 1.7909-4 4-4v0c2.2091.0 4 1.791 4 4v0c0 2.209-1.7909 4-4 4v0c-2.2091.0-4-1.791-4-4v0z" fill="#fff"/><path d="M164 122.5C164 128.299 159.299 133 153.5 133S143 128.299 143 122.5 147.701 112 153.5 112 164 116.701 164 122.5z" fill="#1e242c"/><path d="M159 122.5C159 125.538 156.538 128 153.5 128s-5.5-2.462-5.5-5.5S150.462 117 153.5 117s5.5 2.462 5.5 5.5z" fill="#ffbc52"/><path d="M164 185.5C164 191.299 159.299 196 153.5 196S143 191.299 143 185.5 147.701 175 153.5 175 164 179.701 164 185.5z" fill="#1e242c"/><path d="M159 185.5C159 188.538 156.538 191 153.5 191S148 188.538 148 185.5 150.462 180 153.5 180 159 182.462 159 185.5z" fill="#00aee9"/><path d="M125 66.8c0-4.4804.0-6.7206.872-8.4319C126.639 56.8628 127.863 55.6389 129.368 54.8719 131.079 54 133.32 54 137.8 54h31.4C173.68 54 175.921 54 177.632 54.8719 179.137 55.6389 180.361 56.8628 181.128 58.3681 182 60.0794 182 62.3196 182 66.8V92.2C182 96.6804 182 98.9206 181.128 100.632 180.361 102.137 179.137 103.361 177.632 104.128 175.921 105 173.68 105 169.2 105h-3.773C163.285 105 162.215 105 161.218 105.261 160.336 105.492 159.499 105.872 158.744 106.386 157.893 106.965 157.189 107.772 155.781 109.385L153.5 112 151.219 109.385C149.811 107.772 149.107 106.965 148.256 106.386 147.501 105.872 146.664 105.492 145.782 105.261 144.785 105 143.715 105 141.573 105H137.8C133.32 105 131.079 105 129.368 104.128 127.863 103.361 126.639 102.137 125.872 100.632 125 98.9206 125 96.6804 125 92.2V66.8z" fill="#12161c"/><path d="M131 87C131 85.3431 132.343 84 134 84h31C166.657 84 168 85.3431 168 87v0C168 88.6569 166.657 90 165 90H134C132.343 90 131 88.6569 131 87v0z" fill="#29313a"/><path d="M131 96C131 94.8954 131.895 94 133 94h11C145.105 94 146 94.8954 146 96v0C146 97.1046 145.105 98 144 98H133C131.895 98 131 97.1046 131 96v0z" fill="#1e242c"/><path d="M131 64C131 62.3431 132.343 61 134 61h31C166.657 61 168 62.3431 168 64v0C168 65.6569 166.657 67 165 67H134C132.343 67 131 65.6569 131 64v0z" fill="#29313a"/><path d="M131 73C131 71.8954 131.895 71 133 71h11C145.105 71 146 71.8954 146 73v0C146 74.1046 145.105 75 144 75H133C131.895 75 131 74.1046 131 73v0z" fill="#1e242c"/></svg>