<svg xmlns="http://www.w3.org/2000/svg" fill="none" viewBox="0 0 300 260" width="300" height="260">
    <path fill="#1E242C"
        d="M0 12.8c0-4.48 0-6.72.872-8.432A8 8 0 0 1 4.368.872C6.08 0 8.32 0 12.8 0h121.4c4.48 0 6.721 0 8.432.872a8.001 8.001 0 0 1 3.496 3.496C147 6.08 147 8.32 147 12.8v31.4c0 4.48 0 6.72-.872 8.432a8.002 8.002 0 0 1-3.496 3.496C140.921 57 138.68 57 134.2 57H12.8c-4.48 0-6.72 0-8.432-.872a8 8 0 0 1-3.496-3.496C0 50.92 0 48.68 0 44.2V12.8Z" />
    <path fill="#181D23"
        d="M6 12.4c0-2.24 0-3.36.436-4.216a4 4 0 0 1 1.748-1.748C9.04 6 10.16 6 12.4 6h122.2c2.24 0 3.36 0 4.216.436a3.996 3.996 0 0 1 1.748 1.748C141 9.04 141 10.16 141 12.4v32.2c0 2.24 0 3.36-.436 4.216a3.996 3.996 0 0 1-1.748 1.748C137.96 51 136.84 51 134.6 51H12.4c-2.24 0-3.36 0-4.216-.436a4 4 0 0 1-1.748-1.748C6 47.96 6 46.84 6 44.6V12.4Z" />
    <path fill="#12161C" d="M69 14a3 3 0 1 1 6 0v29a3 3 0 1 1-6 0V14Z" />
    <path fill="#FF646D" d="M18 19a2 2 0 1 1 4 0 2 2 0 0 1-4 0Z" />
    <path fill="#232A32" d="M27 19a2 2 0 0 1 2-2h15a2 2 0 1 1 0 4H29a2 2 0 0 1-2-2Z" />
    <path fill="#12B886" d="M18 29a2 2 0 1 1 4 0 2 2 0 0 1-4 0Z" />
    <path fill="#FF646D" d="M18 39a2 2 0 1 1 4 0 2 2 0 0 1-4 0Z" />
    <path fill="#232A32"
        d="M27 29a2 2 0 0 1 2-2h25a2 2 0 1 1 0 4H29a2 2 0 0 1-2-2ZM27 39a2 2 0 0 1 2-2h8a2 2 0 1 1 0 4h-8a2 2 0 0 1-2-2Z" />
    <path fill="#12161C"
        d="M79 14a3 3 0 1 1 6 0v29a3 3 0 1 1-6 0V14ZM89 14a3 3 0 1 1 6 0v29a3 3 0 1 1-6 0V14ZM99 14a3 3 0 1 1 6 0v29a3 3 0 1 1-6 0V14ZM109 14a3 3 0 1 1 6 0v29a3 3 0 1 1-6 0V14ZM119 14a3 3 0 1 1 6 0v29a3 3 0 1 1-6 0V14Z" />
    <path fill="#343D48" d="M137 24a4 4 0 0 1 4-4v17a4 4 0 0 1-4-4v-9ZM10 33a4 4 0 0 1-4 4V20a4 4 0 0 1 4 4v9Z" />
    <path fill="#1E242C"
        d="M0 75.8c0-4.48 0-6.72.872-8.432a8 8 0 0 1 3.496-3.496C6.08 63 8.32 63 12.8 63h121.4c4.48 0 6.721 0 8.432.872a8.002 8.002 0 0 1 3.496 3.496C147 69.08 147 71.32 147 75.8v31.4c0 4.48 0 6.721-.872 8.432a8.003 8.003 0 0 1-3.496 3.496c-1.711.872-3.952.872-8.432.872H12.8c-4.48 0-6.72 0-8.432-.872a8.001 8.001 0 0 1-3.496-3.496C0 113.921 0 111.68 0 107.2V75.8Z" />
    <path fill="#181D23"
        d="M6 75.4c0-2.24 0-3.36.436-4.216a4 4 0 0 1 1.748-1.748C9.04 69 10.16 69 12.4 69h122.2c2.24 0 3.36 0 4.216.436a3.996 3.996 0 0 1 1.748 1.748c.436.856.436 1.976.436 4.216v32.2c0 2.24 0 3.36-.436 4.216a3.991 3.991 0 0 1-1.748 1.748c-.856.436-1.976.436-4.216.436H12.4c-2.24 0-3.36 0-4.216-.436a3.996 3.996 0 0 1-1.748-1.748C6 110.96 6 109.84 6 107.6V75.4Z" />
    <path fill="#12161C" d="M69 77a3 3 0 1 1 6 0v29a3 3 0 1 1-6 0V77Z" />
    <path fill="#FF646D" d="M18 82a2 2 0 1 1 4 0 2 2 0 0 1-4 0Z" />
    <path fill="#232A32" d="M27 82a2 2 0 0 1 2-2h23a2 2 0 1 1 0 4H29a2 2 0 0 1-2-2Z" />
    <path fill="#12B886" d="M18 92a2 2 0 1 1 4 0 2 2 0 0 1-4 0ZM18 102a2 2 0 1 1 4 0 2 2 0 0 1-4 0Z" />
    <path fill="#232A32"
        d="M27 92a2 2 0 0 1 2-2h20a2 2 0 1 1 0 4H29a2 2 0 0 1-2-2ZM27 102a2 2 0 0 1 2-2h12a2 2 0 1 1 0 4H29a2 2 0 0 1-2-2Z" />
    <path fill="#12161C"
        d="M79 77a3 3 0 1 1 6 0v29a3 3 0 1 1-6 0V77ZM89 77a3 3 0 1 1 6 0v29a3 3 0 1 1-6 0V77ZM99 77a3 3 0 1 1 6 0v29a3 3 0 1 1-6 0V77ZM109 77a3 3 0 1 1 6 0v29a3 3 0 1 1-6 0V77ZM119 77a3 3 0 1 1 6 0v29a3 3 0 1 1-6 0V77Z" />
    <path fill="#343D48" d="M137 87a4 4 0 0 1 4-4v17a4 4 0 0 1-4-4v-9ZM10 96a4 4 0 0 1-4 4V83a4 4 0 0 1 4 4v9Z" />
    <path fill="#1E242C"
        d="M0 138.8c0-4.48 0-6.721.872-8.432a8.001 8.001 0 0 1 3.496-3.496C6.08 126 8.32 126 12.8 126h121.4c4.48 0 6.721 0 8.432.872a8.003 8.003 0 0 1 3.496 3.496c.872 1.711.872 3.952.872 8.432v31.4c0 4.48 0 6.721-.872 8.432a8.003 8.003 0 0 1-3.496 3.496c-1.711.872-3.952.872-8.432.872H12.8c-4.48 0-6.72 0-8.432-.872a8.001 8.001 0 0 1-3.496-3.496C0 176.921 0 174.68 0 170.2v-31.4Z" />
    <path fill="#181D23"
        d="M6 138.4c0-2.24 0-3.36.436-4.216a3.996 3.996 0 0 1 1.748-1.748C9.04 132 10.16 132 12.4 132h122.2c2.24 0 3.36 0 4.216.436a3.991 3.991 0 0 1 1.748 1.748c.436.856.436 1.976.436 4.216v32.2c0 2.24 0 3.36-.436 4.216a3.991 3.991 0 0 1-1.748 1.748c-.856.436-1.976.436-4.216.436H12.4c-2.24 0-3.36 0-4.216-.436a3.996 3.996 0 0 1-1.748-1.748C6 173.96 6 172.84 6 170.6v-32.2Z" />
    <path fill="#12161C" d="M69 140a3 3 0 1 1 6 0v29a3 3 0 1 1-6 0v-29Z" />
    <path fill="#FF646D" d="M18 145a2 2 0 1 1 4 0 2 2 0 0 1-4 0Z" />
    <path fill="#232A32" d="M27 145a2 2 0 0 1 2-2h15a2 2 0 1 1 0 4H29a2 2 0 0 1-2-2Z" />
    <path fill="#12B886" d="M18 155a2 2 0 1 1 4 0 2 2 0 0 1-4 0ZM18 165a2 2 0 1 1 4 0 2 2 0 0 1-4 0Z" />
    <path fill="#232A32"
        d="M27 155a2 2 0 0 1 2-2h25a2 2 0 1 1 0 4H29a2 2 0 0 1-2-2ZM27 165a2 2 0 0 1 2-2h8a2 2 0 1 1 0 4h-8a2 2 0 0 1-2-2Z" />
    <path fill="#12161C"
        d="M79 140a3 3 0 1 1 6 0v29a3 3 0 1 1-6 0v-29ZM89 140a3 3 0 1 1 6 0v29a3 3 0 1 1-6 0v-29ZM99 140a3 3 0 1 1 6 0v29a3 3 0 1 1-6 0v-29ZM109 140a3 3 0 1 1 6 0v29a3 3 0 1 1-6 0v-29ZM119 140a3 3 0 1 1 6 0v29a3 3 0 1 1-6 0v-29Z" />
    <path fill="#343D48" d="M137 150a4 4 0 0 1 4-4v17a4 4 0 0 1-4-4v-9ZM10 159a4 4 0 0 1-4 4v-17a4 4 0 0 1 4 4v9Z" />
    <path fill="#1E242C"
        d="M153 12.8c0-4.48 0-6.72.872-8.432a8.001 8.001 0 0 1 3.496-3.496C159.079 0 161.32 0 165.8 0h121.4c4.48 0 6.721 0 8.432.872a8.001 8.001 0 0 1 3.496 3.496C300 6.08 300 8.32 300 12.8v31.4c0 4.48 0 6.72-.872 8.432a8.002 8.002 0 0 1-3.496 3.496C293.921 57 291.68 57 287.2 57H165.8c-4.48 0-6.721 0-8.432-.872a8.002 8.002 0 0 1-3.496-3.496C153 50.92 153 48.68 153 44.2V12.8Z" />
    <path fill="#181D23"
        d="M159 12.4c0-2.24 0-3.36.436-4.216a3.996 3.996 0 0 1 1.748-1.748C162.04 6 163.16 6 165.4 6h122.2c2.24 0 3.36 0 4.216.436a3.996 3.996 0 0 1 1.748 1.748C294 9.04 294 10.16 294 12.4v32.2c0 2.24 0 3.36-.436 4.216a3.996 3.996 0 0 1-1.748 1.748C290.96 51 289.84 51 287.6 51H165.4c-2.24 0-3.36 0-4.216-.436a3.996 3.996 0 0 1-1.748-1.748C159 47.96 159 46.84 159 44.6V12.4Z" />
    <path fill="#12161C" d="M222 14a3 3 0 1 1 6 0v29a3 3 0 1 1-6 0V14Z" />
    <path fill="#FF646D" d="M171 19a2 2 0 1 1 4 0 2 2 0 0 1-4 0Z" />
    <path fill="#232A32" d="M180 19a2 2 0 0 1 2-2h27a2 2 0 1 1 0 4h-27a2 2 0 0 1-2-2Z" />
    <path fill="#FF646D" d="M171 29a2 2 0 1 1 4 0 2 2 0 0 1-4 0Z" />
    <path fill="#12B886" d="M171 39a2 2 0 1 1 4 0 2 2 0 0 1-4 0Z" />
    <path fill="#232A32"
        d="M180 29a2 2 0 0 1 2-2h17a2 2 0 1 1 0 4h-17a2 2 0 0 1-2-2ZM180 39a2 2 0 0 1 2-2h21a2 2 0 1 1 0 4h-21a2 2 0 0 1-2-2Z" />
    <path fill="#12161C"
        d="M232 14a3 3 0 1 1 6 0v29a3 3 0 1 1-6 0V14ZM242 14a3 3 0 1 1 6 0v29a3 3 0 1 1-6 0V14ZM252 14a3 3 0 1 1 6 0v29a3 3 0 1 1-6 0V14ZM262 14a3 3 0 1 1 6 0v29a3 3 0 1 1-6 0V14ZM272 14a3 3 0 1 1 6 0v29a3 3 0 1 1-6 0V14Z" />
    <path fill="#343D48" d="M290 24a4 4 0 0 1 4-4v17a4 4 0 0 1-4-4v-9ZM163 33a4 4 0 0 1-4 4V20a4 4 0 0 1 4 4v9Z" />
    <path fill="#1E242C"
        d="M153 75.8c0-4.48 0-6.72.872-8.432a8.002 8.002 0 0 1 3.496-3.496C159.079 63 161.32 63 165.8 63h121.4c4.48 0 6.721 0 8.432.872a8.002 8.002 0 0 1 3.496 3.496C300 69.08 300 71.32 300 75.8v31.4c0 4.48 0 6.721-.872 8.432a8.003 8.003 0 0 1-3.496 3.496c-1.711.872-3.952.872-8.432.872H165.8c-4.48 0-6.721 0-8.432-.872a8.003 8.003 0 0 1-3.496-3.496C153 113.921 153 111.68 153 107.2V75.8Z" />
    <path fill="#181D23"
        d="M159 75.4c0-2.24 0-3.36.436-4.216a3.996 3.996 0 0 1 1.748-1.748C162.04 69 163.16 69 165.4 69h122.2c2.24 0 3.36 0 4.216.436a3.996 3.996 0 0 1 1.748 1.748c.436.856.436 1.976.436 4.216v32.2c0 2.24 0 3.36-.436 4.216a3.991 3.991 0 0 1-1.748 1.748c-.856.436-1.976.436-4.216.436H165.4c-2.24 0-3.36 0-4.216-.436a3.991 3.991 0 0 1-1.748-1.748C159 110.96 159 109.84 159 107.6V75.4Z" />
    <path fill="#12161C" d="M222 77a3 3 0 1 1 6 0v29a3 3 0 1 1-6 0V77Z" />
    <path fill="#12B886" d="M171 82a2 2 0 1 1 4 0 2 2 0 0 1-4 0Z" />
    <path fill="#232A32" d="M180 82a2 2 0 0 1 2-2h15a2 2 0 1 1 0 4h-15a2 2 0 0 1-2-2Z" />
    <path fill="#12B886" d="M171 92a2 2 0 1 1 4 0 2 2 0 0 1-4 0Z" />
    <path fill="#FF646D" d="M171 102a2 2 0 1 1 3.999-.001A2 2 0 0 1 171 102Z" />
    <path fill="#232A32"
        d="M180 92a2 2 0 0 1 2-2h4a2 2 0 1 1 0 4h-4a2 2 0 0 1-2-2ZM180 102a2 2 0 0 1 2-2h22a2 2 0 1 1 0 4h-22a2 2 0 0 1-2-2Z" />
    <path fill="#12161C"
        d="M232 77a3 3 0 1 1 6 0v29a3 3 0 1 1-6 0V77ZM242 77a3 3 0 1 1 6 0v29a3 3 0 1 1-6 0V77ZM252 77a3 3 0 1 1 6 0v29a3 3 0 1 1-6 0V77ZM262 77a3 3 0 1 1 6 0v29a3 3 0 1 1-6 0V77ZM272 77a3 3 0 1 1 6 0v29a3 3 0 1 1-6 0V77Z" />
    <path fill="#343D48" d="M290 87a4 4 0 0 1 4-4v17a4 4 0 0 1-4-4v-9ZM163 96a4 4 0 0 1-4 4V83a4 4 0 0 1 4 4v9Z" />
    <path fill="#1E242C"
        d="M153 138.8c0-4.48 0-6.721.872-8.432a8.003 8.003 0 0 1 3.496-3.496c1.711-.872 3.952-.872 8.432-.872h121.4c4.48 0 6.721 0 8.432.872a8.003 8.003 0 0 1 3.496 3.496c.872 1.711.872 3.952.872 8.432v31.4c0 4.48 0 6.721-.872 8.432a8.003 8.003 0 0 1-3.496 3.496c-1.711.872-3.952.872-8.432.872H165.8c-4.48 0-6.721 0-8.432-.872a8.003 8.003 0 0 1-3.496-3.496C153 176.921 153 174.68 153 170.2v-31.4Z" />
    <path fill="#181D23"
        d="M159 138.4c0-2.24 0-3.36.436-4.216a3.991 3.991 0 0 1 1.748-1.748c.856-.436 1.976-.436 4.216-.436h122.2c2.24 0 3.36 0 4.216.436a3.991 3.991 0 0 1 1.748 1.748c.436.856.436 1.976.436 4.216v32.2c0 2.24 0 3.36-.436 4.216a3.991 3.991 0 0 1-1.748 1.748c-.856.436-1.976.436-4.216.436H165.4c-2.24 0-3.36 0-4.216-.436a3.991 3.991 0 0 1-1.748-1.748C159 173.96 159 172.84 159 170.6v-32.2Z" />
    <path fill="#12161C" d="M222 140a3 3 0 1 1 6 0v29a3 3 0 1 1-6 0v-29Z" />
    <path fill="#FF646D" d="M171 145a2 2 0 1 1 3.999-.001A2 2 0 0 1 171 145Z" />
    <path fill="#232A32" d="M180 145a2 2 0 0 1 2-2h15a2 2 0 1 1 0 4h-15a2 2 0 0 1-2-2Z" />
    <path fill="#12B886" d="M171 155a2 2 0 1 1 3.999-.001A2 2 0 0 1 171 155Z" />
    <path fill="#FF646D" d="M171 165a2 2 0 1 1 3.999-.001A2 2 0 0 1 171 165Z" />
    <path fill="#232A32"
        d="M180 155a2 2 0 0 1 2-2h25a2 2 0 1 1 0 4h-25a2 2 0 0 1-2-2ZM180 165a2 2 0 0 1 2-2h8a2 2 0 1 1 0 4h-8a2 2 0 0 1-2-2Z" />
    <path fill="#12161C"
        d="M232 140a3 3 0 1 1 6 0v29a3 3 0 1 1-6 0v-29ZM242 140a3 3 0 1 1 6 0v29a3 3 0 1 1-6 0v-29ZM252 140a3 3 0 1 1 6 0v29a3 3 0 1 1-6 0v-29ZM262 140a3 3 0 1 1 6 0v29a3 3 0 1 1-6 0v-29ZM272 140a3 3 0 1 1 6 0v29a3 3 0 1 1-6 0v-29Z" />
    <path fill="#343D48" d="M290 150a4 4 0 0 1 4-4v17a4 4 0 0 1-4-4v-9ZM163 159a4 4 0 0 1-4 4v-17a4 4 0 0 1 4 4v9Z" />
    <path fill="#12161C"
        d="M41 136.6c0-8.961 0-13.441 1.744-16.864a16.003 16.003 0 0 1 6.992-6.992C53.16 111 57.64 111 66.6 111h166.8c8.961 0 13.441 0 16.864 1.744a16.005 16.005 0 0 1 6.992 6.992C259 123.159 259 127.639 259 136.6v67.8c0 8.961 0 13.441-1.744 16.864a16.005 16.005 0 0 1-6.992 6.992C246.841 230 242.361 230 233.4 230H66.6c-8.96 0-13.441 0-16.864-1.744a16.003 16.003 0 0 1-6.992-6.992C41 217.841 41 213.361 41 204.4v-67.8Z" />
    <path fill="#1E242C"
        d="M171 200.8c0-4.48 0-6.721.872-8.432a8.003 8.003 0 0 1 3.496-3.496c1.711-.872 3.952-.872 8.432-.872h50.4c4.48 0 6.721 0 8.432.872a8.003 8.003 0 0 1 3.496 3.496c.872 1.711.872 3.952.872 8.432v4.4c0 4.48 0 6.721-.872 8.432a8.003 8.003 0 0 1-3.496 3.496c-1.711.872-3.952.872-8.432.872h-50.4c-4.48 0-6.721 0-8.432-.872a8.003 8.003 0 0 1-3.496-3.496C171 211.921 171 209.68 171 205.2v-4.4Z" />
    <path fill="#858585" d="M217 198a2 2 0 1 1 4 0v10a2 2 0 1 1-4 0v-10Z" opacity=".8" />
    <path fill="#129A6D" d="M211 198a2 2 0 1 1 4 0v10a2 2 0 1 1-4 0v-10Z" opacity=".8" />
    <path fill="#FF8C93" d="M205 198a2 2 0 1 1 4 0v10a2 2 0 1 1-4 0v-10Z" opacity=".8" />
    <path fill="#00AEE9" d="M199 198a2 2 0 1 1 4 0v10a2 2 0 1 1-4 0v-10Z" opacity=".8" />
    <path fill="#CE8546" d="M223 198a2 2 0 1 1 4 0v10a2 2 0 1 1-4 0v-10Z" opacity=".8" />
    <path fill="#008B73" d="M229 198a2 2 0 1 1 4 0v10a2 2 0 1 1-4 0v-10Z" opacity=".8" />
    <path fill="#0052FF" d="M235 198a2 2 0 1 1 4 0v10a2 2 0 1 1-4 0v-10Z" opacity=".8" />
    <path fill="#1E242C"
        d="M171 135.8c0-4.48 0-6.721.872-8.432a8.003 8.003 0 0 1 3.496-3.496c1.711-.872 3.952-.872 8.432-.872h50.4c4.48 0 6.721 0 8.432.872a8.003 8.003 0 0 1 3.496 3.496c.872 1.711.872 3.952.872 8.432v33.4c0 4.48 0 6.721-.872 8.432a8.003 8.003 0 0 1-3.496 3.496c-1.711.872-3.952.872-8.432.872h-50.4c-4.48 0-6.721 0-8.432-.872a8.003 8.003 0 0 1-3.496-3.496C171 175.921 171 173.68 171 169.2v-33.4Z" />
    <path fill="#FF8A1F" d="M187 135a4 4 0 1 1-8 0 4 4 0 0 1 8 0Z" opacity=".8" />
    <path fill="#F55C5D" d="M187 147a4 4 0 1 1-8 0 4 4 0 0 1 8 0Z" opacity=".8" />
    <path fill="#B592FF" d="M187 159a4 4 0 1 1-8 0 4 4 0 0 1 8 0Z" opacity=".8" />
    <path fill="#0052FF" d="M187 171a4 4 0 1 1-8 0 4 4 0 0 1 8 0Z" opacity=".8" />
    <path fill="#1E242C"
        d="M53 135.8c0-4.48 0-6.721.872-8.432a8.002 8.002 0 0 1 3.496-3.496C59.08 123 61.32 123 65.8 123h86.4c4.48 0 6.721 0 8.432.872a8.003 8.003 0 0 1 3.496 3.496c.872 1.711.872 3.952.872 8.432v69.4c0 4.48 0 6.721-.872 8.432a8.003 8.003 0 0 1-3.496 3.496c-1.711.872-3.952.872-8.432.872H65.8c-4.48 0-6.72 0-8.432-.872a8.002 8.002 0 0 1-3.496-3.496C53 211.921 53 209.68 53 205.2v-69.4Z" />
    <path fill="#3E4854" d="M117 230h66v24h-66v-24Z" />
    <path fill="#2C353F" d="M117 230h66v6h-66v-6Z" />
    <path fill="#232A32" d="M191 135a2 2 0 0 1 2-2h24a2 2 0 1 1 0 4h-24a2 2 0 0 1-2-2Z" />
    <path fill="#2C353F" d="M89 260h122" />
    <path fill="#232A32"
        d="M191 147a2 2 0 0 1 2-2h20a2 2 0 1 1 0 4h-20a2 2 0 0 1-2-2ZM191 159a2 2 0 0 1 2-2h12a2 2 0 1 1 0 4h-12a2 2 0 0 1-2-2Z" />
    <path fill="#29313A"
        d="M231 159a2 2 0 0 1 2-2h5a2 2 0 1 1 0 4h-5a2 2 0 0 1-2-2ZM231 171a2 2 0 0 1 2-2h3a2 2 0 1 1 0 4h-3a2 2 0 0 1-2-2ZM231 147a2 2 0 0 1 2-2h2a2 2 0 1 1 0 4h-2a2 2 0 0 1-2-2ZM231 135a2 2 0 0 1 2-2h4a2 2 0 1 1 0 4h-4a2 2 0 0 1-2-2Z" />
    <path fill="#232A32" d="M191 171a2 2 0 0 1 2-2h16a2 2 0 1 1 0 4h-16a2 2 0 0 1-2-2Z" />
    <path fill="#29313A"
        d="M178 203a2 2 0 0 1 2-2h14a2 2 0 1 1 0 4h-14a2 2 0 0 1-2-2ZM178 210a1 1 0 0 1 1-1h10a1 1 0 0 1 0 2h-10a1 1 0 0 1-1-1Z" />
    <path fill="#181D23"
        d="M60 137.4c0-2.24 0-3.36.436-4.216a3.996 3.996 0 0 1 1.748-1.748C63.04 131 64.16 131 66.4 131h11.2c2.24 0 3.36 0 4.216.436a3.996 3.996 0 0 1 1.748 1.748c.436.856.436 1.976.436 4.216v1.2c0 2.24 0 3.36-.436 4.216a3.996 3.996 0 0 1-1.748 1.748C80.96 145 79.84 145 77.6 145H66.4c-2.24 0-3.36 0-4.216-.436a3.996 3.996 0 0 1-1.748-1.748C60 141.96 60 140.84 60 138.6v-1.2Z" />
    <path fill="#29313A"
        d="M137 134a3 3 0 0 1 3-3h13a3 3 0 1 1 0 6h-13a3 3 0 0 1-3-3ZM80 138a3 3 0 1 1-6 0 3 3 0 0 1 6 0ZM70 138a3 3 0 1 1-6 0 3 3 0 0 1 6 0Z" />
    <path fill="#00AEE9" d="M130 182h26v16a2 2 0 0 1-2 2h-22a2 2 0 0 1-2-2v-16Z" />
    <path fill="#F55C5D" d="M130 168h26v14h-26v-14Z" />
    <path fill="#0052FF" d="M130 165a2 2 0 0 1 2-2h22a2 2 0 0 1 2 2v3h-26v-3Z" />
    <path fill="#29313A" d="M137 208a2 2 0 0 1 2-2h8a2 2 0 1 1 0 4h-8a2 2 0 0 1-2-2Z" />
    <path fill="#00AEE9"
        d="M96 174h26v24a2 2 0 0 1-2 2H98a2 2 0 0 1-2-2v-24ZM62 190h26v8a2 2 0 0 1-2 2H64a2 2 0 0 1-2-2v-8Z" />
    <path fill="#F55C5D" d="M96 159h26v15H96v-15ZM62 185h26v5H62v-5Z" />
    <path fill="#0052FF"
        d="M96 151a2 2 0 0 1 2-2h22a2 2 0 0 1 2 2v8H96v-8ZM62 176a2 2 0 0 1 2-2h22a2 2 0 0 1 2 2v9H62v-9Z" />
    <path fill="#29313A"
        d="M103 208a2 2 0 0 1 2-2h8a2 2 0 1 1 0 4h-8a2 2 0 0 1-2-2ZM69 208a2 2 0 0 1 2-2h8a2 2 0 1 1 0 4h-8a2 2 0 0 1-2-2Z" />
</svg>