<svg width="300" height="260" viewBox="0 0 300 260" fill="none" xmlns="http://www.w3.org/2000/svg"><rect width="300" height="260" rx="16" fill="#1e242c"/><path d="M16 24c0-4.4183 3.5817-8 8-8H70c4.4183.0 8 3.5817 8 8v0c0 4.4183-3.5817 8-8 8H24c-4.4183.0-8-3.5817-8-8v0z" fill="url(#paint0_linear_657_4469)"/><path d="M94 24C94 20.2725 94 18.4087 94.609 16.9385 95.4209 14.9783 96.9783 13.4209 98.9385 12.609 100.409 12 102.272 12 106 12h28C137.728 12 139.591 12 141.061 12.609 143.022 13.4209 144.579 14.9783 145.391 16.9385 146 18.4087 146 20.2725 146 24v0C146 27.7275 146 29.5913 145.391 31.0615 144.579 33.0217 143.022 34.5791 141.061 35.391 139.591 36 137.728 36 134 36H106C102.272 36 100.409 36 98.9385 35.391 96.9783 34.5791 95.4209 33.0217 94.609 31.0615 94 29.5913 94 27.7275 94 24v0z" fill="#2c353f"/><path d="M242 24C242 20.2725 242 18.4087 242.609 16.9385 243.421 14.9783 244.978 13.4209 246.939 12.609 248.409 12 250.272 12 254 12h22C279.728 12 281.591 12 283.061 12.609 285.022 13.4209 286.579 14.9783 287.391 16.9385 288 18.4087 288 20.2725 288 24v0C288 27.7275 288 29.5913 287.391 31.0615 286.579 33.0217 285.022 34.5791 283.061 35.391 281.591 36 279.728 36 276 36H254C250.272 36 248.409 36 246.939 35.391 244.978 34.5791 243.421 33.0217 242.609 31.0615 242 29.5913 242 27.7275 242 24v0z" fill="#2c353f"/><path d="M8 78.8C8 74.3196 8 72.0794 8.87195 70.3681 9.63893 68.8628 10.8628 67.6389 12.3681 66.8719 14.0794 66 16.3196 66 20.8 66H133.2C137.68 66 139.921 66 141.632 66.8719 143.137 67.6389 144.361 68.8628 145.128 70.3681 146 72.0794 146 74.3196 146 78.8V91.2C146 95.6804 146 97.9206 145.128 99.6319 144.361 101.137 143.137 102.361 141.632 103.128 139.921 104 137.68 104 133.2 104H20.8c-4.4804.0-6.7206.0-8.4319-.872C10.8628 102.361 9.63893 101.137 8.87195 99.6319 8 97.9206 8 95.6804 8 91.2V78.8z" fill="#12161c"/><path d="M8 122.8c0-4.48.0-6.721.87195-8.432.76698-1.505 1.99085-2.729 3.49615-3.496C14.0794 110 16.3196 110 20.8 110H133.2C137.68 110 139.921 110 141.632 110.872 143.137 111.639 144.361 112.863 145.128 114.368 146 116.079 146 118.32 146 122.8v16.4C146 143.68 146 145.921 145.128 147.632 144.361 149.137 143.137 150.361 141.632 151.128 139.921 152 137.68 152 133.2 152H20.8C16.3196 152 14.0794 152 12.3681 151.128 10.8628 150.361 9.63893 149.137 8.87195 147.632 8 145.921 8 143.68 8 139.2V122.8z" fill="#29313a"/><path d="M8 170.8C8 166.32 8 164.079 8.87195 162.368 9.63893 160.863 10.8628 159.639 12.3681 158.872 14.0794 158 16.3196 158 20.8 158H133.2C137.68 158 139.921 158 141.632 158.872 143.137 159.639 144.361 160.863 145.128 162.368 146 164.079 146 166.32 146 170.8v68.4C146 243.68 146 245.921 145.128 247.632 144.361 249.137 143.137 250.361 141.632 251.128 139.921 252 137.68 252 133.2 252H20.8C16.3196 252 14.0794 252 12.3681 251.128 10.8628 250.361 9.63893 249.137 8.87195 247.632 8 245.921 8 243.68 8 239.2V170.8z" fill="#29313a"/><path d="M154 51C154 47.134 157.134 44 161 44v0C164.866 44 168 47.134 168 51v0C168 54.866 164.866 58 161 58v0C157.134 58 154 54.866 154 51v0z" fill="#1969ff"/><path d="M154 71C154 67.134 157.134 64 161 64v0C164.866 64 168 67.134 168 71v0C168 74.866 164.866 78 161 78v0C157.134 78 154 74.866 154 71v0z" fill="#ff8a1f"/><path d="M154 91C154 87.134 157.134 84 161 84v0C164.866 84 168 87.134 168 91v0C168 94.866 164.866 98 161 98v0C157.134 98 154 94.866 154 91v0z" fill="#863ff8"/><path d="M154 111c0-3.866 3.13399999999999-7 7-7v0c3.86600000000001.0 7 3.134 7 7v0c0 3.866-3.13399999999999 7-7 7v0C157.134 118 154 114.866 154 111v0z" fill="#1969ff"/><path d="M154 131c0-3.866 3.13399999999999-7 7-7v0c3.86600000000001.0 7 3.134 7 7v0C168 134.866 164.866 138 161 138v0C157.134 138 154 134.866 154 131v0z" fill="#ff8a1f"/><path d="M154 151C154 147.134 157.134 144 161 144v0C164.866 144 168 147.134 168 151v0C168 154.866 164.866 158 161 158v0C157.134 158 154 154.866 154 151v0z" fill="#008b73"/><path d="M154 171C154 167.134 157.134 164 161 164v0C164.866 164 168 167.134 168 171v0C168 174.866 164.866 178 161 178v0C157.134 178 154 174.866 154 171v0z" fill="#ff8a1f"/><path d="M154 191C154 187.134 157.134 184 161 184v0C164.866 184 168 187.134 168 191v0C168 194.866 164.866 198 161 198v0C157.134 198 154 194.866 154 191v0z" fill="#5241ad"/><path d="M154 211C154 207.134 157.134 204 161 204v0C164.866 204 168 207.134 168 211v0C168 214.866 164.866 218 161 218v0C157.134 218 154 214.866 154 211v0z" fill="#008b73"/><path d="M16 51c0-1.6569 1.3431-3 3-3H31c1.6569.0 3 1.3431 3 3v0c0 1.6569-1.3431 3-3 3H19c-1.6569.0-3-1.3431-3-3v0z" fill="#46a6ff"/><path d="M16 77C16 75.3431 17.3431 74 19 74H36C37.6569 74 39 75.3431 39 77v0C39 78.6569 37.6569 80 36 80H19C17.3431 80 16 78.6569 16 77v0z" fill="#232a32"/><path d="M16 121c0-1.657 1.3431-3 3-3H30c1.6569.0 3 1.343 3 3v0c0 1.657-1.3431 3-3 3H19c-1.6569.0-3-1.343-3-3v0z" fill="#3e4854"/><path d="M16 169C16 167.343 17.3431 166 19 166H51C52.6569 166 54 167.343 54 169v0C54 170.657 52.6569 172 51 172H19C17.3431 172 16 170.657 16 169v0z" fill="#3e4854"/><path d="M77 169C77 167.343 78.3431 166 80 166h24c1.657.0 3 1.34299999999999 3 3v0c0 1.65700000000001-1.343 3-3 3H80C78.3431 172 77 170.657 77 169v0z" fill="#3e4854"/><path d="M154 24C154 22.3431 155.343 21 157 21h34C192.657 21 194 22.3431 194 24v0C194 25.6569 192.657 27 191 27H157C155.343 27 154 25.6569 154 24v0z" fill="#3e4854"/><path d="M256 24C256 22.3431 257.343 21 259 21h13C273.657 21 275 22.3431 275 24v0C275 25.6569 273.657 27 272 27H259C257.343 27 256 25.6569 256 24v0z" fill="#3e4854"/><path d="M58 121c0-1.657 1.3431-3 3-3H74C75.6569 118 77 119.343 77 121v0C77 122.657 75.6569 124 74 124H61c-1.6569.0-3-1.343-3-3v0z" fill="#3e4854"/><path d="M102 121c0-1.657 1.343-3 3-3h10c1.657.0 3 1.343 3 3v0c0 1.657-1.343 3-3 3H105c-1.657.0-3-1.343-3-3v0z" fill="#3e4854"/><path d="M16 142C16 140.895 16.8954 140 18 140h6C25.1046 140 26 140.895 26 142v0C26 143.105 25.1046 144 24 144H18C16.8954 144 16 143.105 16 142v0z" fill="#3e4854"/><path d="M58 142C58 140.895 58.8954 140 60 140h6C67.1046 140 68 140.895 68 142v0C68 143.105 67.1046 144 66 144H60C58.8954 144 58 143.105 58 142v0z" fill="#3e4854"/><path d="M102 142C102 140.895 102.895 140 104 140h9c1.105.0 2 .89500000000001 2 2v0C115 143.105 114.105 144 113 144h-9c-1.105.0-2-.89500000000001-2-2v0z" fill="#3e4854"/><path d="M16 132c0-2.209 1.7909-4 4-4H40c2.2091.0 4 1.791 4 4v0c0 2.209-1.7909 4-4 4H20c-2.2091.0-4-1.791-4-4v0z" fill="#12b886"/><path d="M58 132c0-2.209 1.7909-4 4-4H84C86.2091 128 88 129.791 88 132v0C88 134.209 86.2091 136 84 136H62c-2.2091.0-4-1.791-4-4v0z" fill="#ff646d"/><path d="M102 132c0-2.209 1.791-4 4-4h26c2.209.0 4 1.791 4 4v0c0 2.209-1.791 4-4 4H106c-2.209.0-4-1.791-4-4v0z" fill="#12b886"/><path d="M62 89C62 87.3431 63.3431 86 65 86h5C71.6569 86 73 87.3431 73 89v0C73 90.6569 71.6569 92 70 92H65C63.3431 92 62 90.6569 62 89v0z" fill="#ff646d"/><path d="M126 89C126 87.3431 127.343 86 129 86h5C135.657 86 137 87.3431 137 89v0C137 90.6569 135.657 92 134 92h-5C127.343 92 126 90.6569 126 89v0z" fill="#12b886"/><path d="M82 77C82 75.3431 83.3431 74 85 74h17C103.657 74 105 75.3431 105 77v0C105 78.6569 103.657 80 102 80H85C83.3431 80 82 78.6569 82 77v0z" fill="#232a32"/><path d="M16 91C16 88.2386 18.2386 86 21 86H53C55.7614 86 58 88.2386 58 91v0C58 93.7614 55.7614 96 53 96H21C18.2386 96 16 93.7614 16 91v0z" fill="#2c353f"/><path d="M82 91C82 88.2386 84.2386 86 87 86h30C119.761 86 122 88.2386 122 91v0C122 93.7614 119.761 96 117 96H87C84.2386 96 82 93.7614 82 91v0z" fill="#2c353f"/><path d="M38 51c0-1.6569 1.3431-3 3-3H61c1.6569.0 3 1.3431 3 3v0c0 1.6569-1.3431 3-3 3H41c-1.6569.0-3-1.3431-3-3v0z" fill="#46a6ff"/><path d="M68 51C68 49.3431 69.3431 48 71 48h8C80.6569 48 82 49.3431 82 51v0C82 52.6569 80.6569 54 79 54H71C69.3431 54 68 52.6569 68 51v0z" fill="#46a6ff"/><path d="M86 51C86 49.3431 87.3431 48 89 48h25c1.657.0 3 1.3431 3 3v0c0 1.6569-1.343 3-3 3H89C87.3431 54 86 52.6569 86 51v0z" fill="#46a6ff"/><path d="M210 51c0-2.2091 1.791-4 4-4h9c2.209.0 4 1.7909 4 4v0c0 2.2091-1.791 4-4 4h-9c-2.209.0-4-1.7909-4-4v0z" fill="#3e4854"/><path d="M217 71C217 68.7909 218.791 67 221 67h2C225.209 67 227 68.7909 227 71v0C227 73.2091 225.209 75 223 75h-2C218.791 75 217 73.2091 217 71v0z" fill="#3e4854"/><path d="M203 91C203 88.7909 204.791 87 207 87h16C225.209 87 227 88.7909 227 91v0C227 93.2091 225.209 95 223 95H207C204.791 95 203 93.2091 203 91v0z" fill="#3e4854"/><path d="M219 111c0-2.209 1.791-4 4-4v0c2.209.0 4 1.791 4 4v0c0 2.209-1.791 4-4 4v0c-2.209.0-4-1.791-4-4v0z" fill="#3e4854"/><path d="M207 131c0-2.209 1.791-4 4-4h12c2.209.0 4 1.791 4 4v0c0 2.209-1.791 4-4 4H211c-2.209.0-4-1.791-4-4v0z" fill="#3e4854"/><path d="M198 151c0-2.209 1.791-4 4-4h21c2.209.0 4 1.791 4 4v0c0 2.209-1.791 4-4 4H202c-2.209.0-4-1.791-4-4v0z" fill="#3e4854"/><path d="M213 171c0-2.209 1.791-4 4-4h6c2.209.0 4 1.791 4 4v0c0 2.209-1.791 4-4 4h-6c-2.209.0-4-1.791-4-4v0z" fill="#3e4854"/><path d="M203 191c0-2.209 1.791-4 4-4h16c2.209.0 4 1.791 4 4v0c0 2.209-1.791 4-4 4H207c-2.209.0-4-1.791-4-4v0z" fill="#3e4854"/><path d="M213 211c0-2.209 1.791-4 4-4h6c2.209.0 4 1.791 4 4v0c0 2.209-1.791 4-4 4h-6c-2.209.0-4-1.791-4-4v0z" fill="#3e4854"/><path d="M271 51c0-2.2091 1.791-4 4-4h13c2.209.0 4 1.7909 4 4v0c0 2.2091-1.791 4-4 4H275c-2.209.0-4-1.7909-4-4v0z" fill="#9488f0"/><path d="M271 71C271 68.7909 272.791 67 275 67h13C290.209 67 292 68.7909 292 71v0C292 73.2091 290.209 75 288 75H275C272.791 75 271 73.2091 271 71v0z" fill="#9488f0"/><path d="M271 91C271 88.7909 272.791 87 275 87h13C290.209 87 292 88.7909 292 91v0C292 93.2091 290.209 95 288 95H275C272.791 95 271 93.2091 271 91v0z" fill="#9488f0"/><path d="M271 111c0-2.209 1.791-4 4-4h13c2.209.0 4 1.791 4 4v0c0 2.209-1.791 4-4 4H275c-2.209.0-4-1.791-4-4v0z" fill="#9488f0"/><path d="M271 131c0-2.209 1.791-4 4-4h13c2.209.0 4 1.791 4 4v0c0 2.209-1.791 4-4 4H275c-2.209.0-4-1.791-4-4v0z" fill="#9488f0"/><path d="M271 151c0-2.209 1.791-4 4-4h13c2.209.0 4 1.791 4 4v0c0 2.209-1.791 4-4 4H275c-2.209.0-4-1.791-4-4v0z" fill="#9488f0"/><path d="M271 171c0-2.209 1.791-4 4-4h13c2.209.0 4 1.791 4 4v0c0 2.209-1.791 4-4 4H275c-2.209.0-4-1.791-4-4v0z" fill="#9488f0"/><path d="M271 191c0-2.209 1.791-4 4-4h13c2.209.0 4 1.791 4 4v0c0 2.209-1.791 4-4 4H275c-2.209.0-4-1.791-4-4v0z" fill="#9488f0"/><path d="M271 211c0-2.209 1.791-4 4-4h13c2.209.0 4 1.791 4 4v0c0 2.209-1.791 4-4 4H275c-2.209.0-4-1.791-4-4v0z" fill="#9488f0"/><path d="M191 242C191 237.582 194.582 234 199 234h2C205.418 234 209 237.582 209 242v2C209 248.418 205.418 252 201 252h-2C194.582 252 191 248.418 191 244v-2z" fill="#9488f0"/><path d="M217 243C217 239.686 219.686 237 223 237v0C226.314 237 229 239.686 229 243v0C229 246.314 226.314 249 223 249v0C219.686 249 217 246.314 217 243v0z" fill="#29313a"/><path d="M237 243C237 239.686 239.686 237 243 237v0C246.314 237 249 239.686 249 243v0C249 246.314 246.314 249 243 249v0C239.686 249 237 246.314 237 243v0z" fill="#29313a"/><path d="M171 51c0-2.2091 1.791-4 4-4h12c2.209.0 4 1.7909 4 4v0c0 2.2091-1.791 4-4 4H175c-2.209.0-4-1.7909-4-4v0z" fill="#29313a"/><path d="M171 71C171 68.7909 172.791 67 175 67h17C194.209 67 196 68.7909 196 71v0C196 73.2091 194.209 75 192 75H175C172.791 75 171 73.2091 171 71v0z" fill="#29313a"/><path d="M171 91C171 88.7909 172.791 87 175 87h12C189.209 87 191 88.7909 191 91v0C191 93.2091 189.209 95 187 95H175C172.791 95 171 93.2091 171 91v0z" fill="#29313a"/><path d="M171 111c0-2.209 1.791-4 4-4h12c2.209.0 4 1.791 4 4v0c0 2.209-1.791 4-4 4H175c-2.209.0-4-1.791-4-4v0z" fill="#29313a"/><path d="M171 131c0-2.209 1.791-4 4-4h17c2.209.0 4 1.791 4 4v0c0 2.209-1.791 4-4 4H175c-2.209.0-4-1.791-4-4v0z" fill="#29313a"/><path d="M171 151c0-2.209 1.791-4 4-4h6c2.209.0 4 1.791 4 4v0c0 2.209-1.791 4-4 4h-6c-2.209.0-4-1.791-4-4v0z" fill="#29313a"/><path d="M171 171c0-2.209 1.791-4 4-4h17c2.209.0 4 1.791 4 4v0c0 2.209-1.791 4-4 4H175c-2.209.0-4-1.791-4-4v0z" fill="#29313a"/><path d="M171 191c0-2.209 1.791-4 4-4h12c2.209.0 4 1.791 4 4v0c0 2.209-1.791 4-4 4H175c-2.209.0-4-1.791-4-4v0z" fill="#29313a"/><path d="M171 211c0-2.209 1.791-4 4-4h6c2.209.0 4 1.791 4 4v0c0 2.209-1.791 4-4 4h-6c-2.209.0-4-1.791-4-4v0z" fill="#29313a"/><path d="M249 51c0-2.2091 1.791-4 4-4h5c2.209.0 4 1.7909 4 4v0c0 2.2091-1.791 4-4 4h-5c-2.209.0-4-1.7909-4-4v0z" fill="#3e4854"/><path d="M235 71C235 68.7909 236.791 67 239 67h19C260.209 67 262 68.7909 262 71v0C262 73.2091 260.209 75 258 75H239C236.791 75 235 73.2091 235 71v0z" fill="#3e4854"/><path d="M245 91C245 88.7909 246.791 87 249 87h9C260.209 87 262 88.7909 262 91v0C262 93.2091 260.209 95 258 95h-9C246.791 95 245 93.2091 245 91v0z" fill="#3e4854"/><path d="M235 111c0-2.209 1.791-4 4-4h19c2.209.0 4 1.791 4 4v0c0 2.209-1.791 4-4 4H239c-2.209.0-4-1.791-4-4v0z" fill="#3e4854"/><path d="M246 131c0-2.209 1.791-4 4-4h8c2.209.0 4 1.791 4 4v0c0 2.209-1.791 4-4 4h-8c-2.209.0-4-1.791-4-4v0z" fill="#3e4854"/><path d="M235 151c0-2.209 1.791-4 4-4h19c2.209.0 4 1.791 4 4v0c0 2.209-1.791 4-4 4H239c-2.209.0-4-1.791-4-4v0z" fill="#3e4854"/><path d="M244 171c0-2.209 1.791-4 4-4h10c2.209.0 4 1.791 4 4v0c0 2.209-1.791 4-4 4H248c-2.209.0-4-1.791-4-4v0z" fill="#3e4854"/><path d="M249 191c0-2.209 1.791-4 4-4h5c2.209.0 4 1.791 4 4v0c0 2.209-1.791 4-4 4h-5c-2.209.0-4-1.791-4-4v0z" fill="#3e4854"/><path d="M232 211c0-2.209 1.791-4 4-4h22c2.209.0 4 1.791 4 4v0c0 2.209-1.791 4-4 4H236c-2.209.0-4-1.791-4-4v0z" fill="#3e4854"/><path d="M110 24c0 2.2091-1.791 4-4 4s-4-1.7909-4-4 1.791-4 4-4 4 1.7909 4 4z" fill="#3e4854"/><path d="M124 24c0 2.2091-1.791 4-4 4s-4-1.7909-4-4 1.791-4 4-4 4 1.7909 4 4z" fill="#3e4854"/><path d="M138 24c0 2.2091-1.791 4-4 4s-4-1.7909-4-4 1.791-4 4-4 4 1.7909 4 4z" fill="#3e4854"/><path d="M213 24.5c0 3.5899-2.91 6.5-6.5 6.5s-6.5-2.9101-6.5-6.5 2.91-6.5 6.5-6.5 6.5 2.9101 6.5 6.5z" fill="#12b886"/><path fill-rule="evenodd" clip-rule="evenodd" d="M42.5 196.5c-7.732.0-14 6.268-14 14s6.268 14 14 14 14-6.268 14-14-6.268-14-14-14zm-25 14c0-13.807 11.1929-25 25-25s25 11.193 25 25-11.1929 25-25 25-25-11.193-25-25z" fill="#9488f0"/><path fill-rule="evenodd" clip-rule="evenodd" d="M52.9364 201.168C50.3651 198.295 46.6458 196.5 42.5 196.5v-11C49.9047 185.5 56.5631 188.726 61.1329 193.832 65.0883 198.251 67.5 204.101 67.5 210.5h-11C56.5 206.911 55.1566 203.649 52.9364 201.168z" fill="#6046ff"/><path fill-rule="evenodd" clip-rule="evenodd" d="M101.5 196.5c-7.732.0-14 6.268-14 14s6.268 14 14 14 14-6.268 14-14-6.268-14-14-14zm-25 14c0-13.807 11.1929-25 25-25 13.807.0 25 11.193 25 25s-11.193 25-25 25c-13.8071.0-25-11.193-25-25z" fill="#ff646d"/><path fill-rule="evenodd" clip-rule="evenodd" d="M115.5 210.5c0-7.732-6.268-14-14-14v-11c13.807.0 25 11.193 25 25s-11.193 25-25 25v-11c7.732.0 14-6.268 14-14z" fill="#ff8c93"/><path fill-rule="evenodd" clip-rule="evenodd" d="M110.86 200.089C108.376 197.853 105.102 196.5 101.5 196.5v-11C107.923 185.5 113.792 187.93 118.218 191.911l-7.358 8.178z" fill="#3aeab5"/><defs><linearGradient id="paint0_linear_657_4469" x1="16" y1="16" x2="55.9798" y2="54.7305" gradientUnits="userSpaceOnUse"><stop stop-color="#6046ff"/><stop offset="1" stop-color="#22d49f"/></linearGradient></defs></svg>