<svg width="300" height="260" viewBox="0 0 300 260" fill="none" xmlns="http://www.w3.org/2000/svg"><path d="M42 25.6c0-8.9608.0-13.4413 1.7439-16.86385C45.2779 5.72556 47.7256 3.27787 50.7362 1.7439 54.1587.0 58.6392.0 67.6.0H274.4C283.361.0 287.841.0 291.264 1.7439 294.274 3.27787 296.722 5.72556 298.256 8.73615 3e2 12.1587 3e2 16.6392 3e2 25.6V234.4C3e2 243.361 3e2 247.841 298.256 251.264 296.722 254.274 294.274 256.722 291.264 258.256 287.841 260 283.361 260 274.4 260H67.6C58.6392 260 54.1587 260 50.7362 258.256 47.7256 256.722 45.2779 254.274 43.7439 251.264 42 247.841 42 243.361 42 234.4V25.6z" fill="#1e242c"/><path opacity=".4" d="M96 215C97.6569 215 99 216.343 99 218v7C99 226.657 97.6569 228 96 228v0C94.3431 228 93 226.657 93 225v-7C93 216.343 94.3431 215 96 215v0z" fill="#12b886"/><path opacity=".4" d="M106 188c1.657.0 3 1.34299999999999 3 3v34c0 1.65700000000001-1.343 3-3 3v0C104.343 228 103 226.657 103 225V191c0-1.65700000000001 1.343-3 3-3v0z" fill="#ff646d"/><path opacity=".4" d="M116.5 223c1.381.0 2.5 1.119 2.5 2.5v0c0 1.381-1.119 2.5-2.5 2.5h-1c-1.381.0-2.5-1.119-2.5-2.5v0c0-1.381 1.119-2.5 2.5-2.5h1z" fill="#12b886"/><path opacity=".4" d="M126 216c1.657.0 3 1.34299999999999 3 3v6c0 1.65700000000001-1.343 3-3 3v0C124.343 228 123 226.657 123 225v-6c0-1.65700000000001 1.343-3 3-3v0z" fill="#12b886"/><path opacity=".4" d="M136 208C137.657 208 139 209.343 139 211v14C139 226.657 137.657 228 136 228v0C134.343 228 133 226.657 133 225V211C133 209.343 134.343 208 136 208v0z" fill="#ff646d"/><path opacity=".4" d="M146 189C147.657 189 149 190.343 149 192v33C149 226.657 147.657 228 146 228v0C144.343 228 143 226.657 143 225V192C143 190.343 144.343 189 146 189v0z" fill="#12b886"/><path opacity=".4" d="M157.5 225C158.328 225 159 225.672 159 226.5v0C159 227.328 158.328 228 157.5 228h-3C153.672 228 153 227.328 153 226.5v0C153 225.672 153.672 225 154.5 225h3z" fill="#ff646d"/><path opacity=".4" d="M166 217C167.657 217 169 218.343 169 220v5C169 226.657 167.657 228 166 228v0C164.343 228 163 226.657 163 225v-5C163 218.343 164.343 217 166 217v0z" fill="#ff646d"/><path opacity=".4" d="M176 217C177.657 217 179 218.343 179 220v5C179 226.657 177.657 228 176 228v0C174.343 228 173 226.657 173 225v-5C173 218.343 174.343 217 176 217v0z" fill="#12b886"/><path opacity=".4" d="M186 222C187.657 222 189 223.343 189 225v0C189 226.657 187.657 228 186 228v0C184.343 228 183 226.657 183 225v0C183 223.343 184.343 222 186 222v0z" fill="#12b886"/><path opacity=".4" d="M196 197C197.657 197 199 198.343 199 2e2v25C199 226.657 197.657 228 196 228v0C194.343 228 193 226.657 193 225V2e2C193 198.343 194.343 197 196 197v0z" fill="#ff646d"/><path opacity=".4" d="M206 208C207.657 208 209 209.343 209 211v14C209 226.657 207.657 228 206 228v0C204.343 228 203 226.657 203 225V211C203 209.343 204.343 208 206 208v0z" fill="#ff646d"/><path opacity=".4" d="M216 217C217.657 217 219 218.343 219 220v5C219 226.657 217.657 228 216 228v0C214.343 228 213 226.657 213 225v-5C213 218.343 214.343 217 216 217v0z" fill="#12b886"/><path opacity=".4" d="M226 183C227.657 183 229 184.343 229 186v39C229 226.657 227.657 228 226 228v0C224.343 228 223 226.657 223 225V186C223 184.343 224.343 183 226 183v0z" fill="#ff646d"/><path opacity=".4" d="M236 222C237.657 222 239 223.343 239 225v0C239 226.657 237.657 228 236 228v0C234.343 228 233 226.657 233 225v0C233 223.343 234.343 222 236 222v0z" fill="#12b886"/><path opacity=".4" d="M246 215C247.657 215 249 216.343 249 218v7C249 226.657 247.657 228 246 228v0C244.343 228 243 226.657 243 225v-7C243 216.343 244.343 215 246 215v0z" fill="#ff646d"/><path d="M96 238C96 236.343 97.3431 235 99 235h11c1.657.0 3 1.34299999999999 3 3v0c0 1.65700000000001-1.343 3-3 3H99C97.3431 241 96 239.657 96 238v0z" fill="#29313a"/><path d="M145 238C145 236.343 146.343 235 148 235h11C160.657 235 162 236.343 162 238v0C162 239.657 160.657 241 159 241H148C146.343 241 145 239.657 145 238v0z" fill="#29313a"/><path d="M194 238C194 236.343 195.343 235 197 235h11C209.657 235 211 236.343 211 238v0C211 239.657 209.657 241 208 241H197C195.343 241 194 239.657 194 238v0z" fill="#29313a"/><path d="M243 238C243 236.343 244.343 235 246 235h11C258.657 235 260 236.343 260 238v0C260 239.657 258.657 241 257 241H246C244.343 241 243 239.657 243 238v0z" fill="#29313a"/><path d="M260 207C260 205.343 261.343 204 263 204h18C282.657 204 284 205.343 284 207v0C284 208.657 282.657 210 281 210H263C261.343 210 260 208.657 260 207v0z" fill="#29313a"/><path d="M260 177C260 175.343 261.343 174 263 174h18C282.657 174 284 175.343 284 177v0C284 178.657 282.657 180 281 180H263C261.343 180 260 178.657 260 177v0z" fill="#29313a"/><path d="M260 147C260 145.343 261.343 144 263 144h18C282.657 144 284 145.343 284 147v0C284 148.657 282.657 150 281 150H263C261.343 150 260 148.657 260 147v0z" fill="#29313a"/><path d="M254 87C254 82.5817 257.582 79 262 79h20C286.418 79 290 82.5817 290 87v1C290 92.4183 286.418 96 282 96H262C257.582 96 254 92.4183 254 88V87z" fill="#12b886"/><path d="M260 117c0-1.657 1.34300000000002-3 3-3h18c1.65699999999998.0 3 1.343 3 3v0c0 1.657-1.34300000000002 3-3 3H263C261.343 120 260 118.657 260 117v0z" fill="#29313a"/><path d="M260 87.5C260 86.1193 261.119 85 262.5 85h19C282.881 85 284 86.1193 284 87.5v0C284 88.8807 282.881 90 281.5 90h-19C261.119 90 260 88.8807 260 87.5v0z" fill="#29313a"/><path d="M260 57C260 55.3431 261.343 54 263 54h18C282.657 54 284 55.3431 284 57v0C284 58.6569 282.657 60 281 60H263C261.343 60 260 58.6569 260 57v0z" fill="#29313a"/><path d="M260 27C260 25.3431 261.343 24 263 24h18C282.657 24 284 25.3431 284 27v0C284 28.6569 282.657 30 281 30H263C261.343 30 260 28.6569 260 27v0z" fill="#29313a"/><path d="M273 238C273 234.686 275.686 232 279 232v0C282.314 232 285 234.686 285 238v0C285 241.314 282.314 244 279 244v0C275.686 244 273 241.314 273 238v0z" fill="#9488f0"/><path d="M53 216C53 211.582 56.5817 208 61 208h4C69.4183 208 73 211.582 73 216v4C73 224.418 69.4183 228 65 228H61C56.5817 228 53 224.418 53 220v-4z" fill="#12161c"/><path d="M53 188C53 183.582 56.5817 180 61 180h4C69.4183 180 73 183.582 73 188v4C73 196.418 69.4183 2e2 65 2e2H61C56.5817 2e2 53 196.418 53 192v-4z" fill="#29313a"/><path d="M85 27C85 25.3431 86.3431 24 88 24h41C130.657 24 132 25.3431 132 27v0C132 28.6569 130.657 30 129 30H88C86.3431 30 85 28.6569 85 27v0z" fill="#3e4854"/><path d="M85 65C85 63.3431 86.3431 62 88 62h27c1.657.0 3 1.3431 3 3v0C118 66.6569 116.657 68 115 68H88C86.3431 68 85 66.6569 85 65v0z" fill="#2c353f"/><path d="M85 50C85 47.2386 87.2386 45 90 45h62c2.761.0 5 2.2386 5 5v0c0 2.7614-2.239 5-5 5H90C87.2386 55 85 52.7614 85 50v0z" fill="#2c353f"/><path d="M162 50c0-2.7614 2.239-5 5-5h6c2.761.0 5 2.2386 5 5v0c0 2.7614-2.239 5-5 5h-6c-2.761.0-5-2.2386-5-5v0z" fill="#12b886"/><path d="M182 50c0-2.7614 2.239-5 5-5h16c2.761.0 5 2.2386 5 5v0c0 2.7614-2.239 5-5 5H187c-2.761.0-5-2.2386-5-5v0z" fill="#ff646d"/><path d="M80 122C80 120.895 79.1046 120 78 120v0C76.8954 120 76 120.895 76 122v7C76 130.105 75.1046 131 74 131H73C71.8954 131 71 131.895 71 133v7C71 141.105 71.8954 142 73 142h1C75.1046 142 76 142.895 76 144v4C76 149.105 76.8954 150 78 150v0C79.1046 150 80 149.105 80 148v-4C80 142.895 80.8954 142 82 142h1C84.1046 142 85 141.105 85 140v-7C85 131.895 84.1046 131 83 131H82C80.8954 131 80 130.105 80 129v-7z" fill="#ff646d"/><path d="M98 88C98 86.8954 97.1046 86 96 86v0C94.8954 86 94 86.8954 94 88v23C94 112.105 93.1046 113 92 113H91C89.8954 113 89 113.895 89 115v14C89 130.105 89.8954 131 91 131h1C93.1046 131 94 131.895 94 133v7C94 141.105 94.8954 142 96 142v0C97.1046 142 98 141.105 98 140v-7C98 131.895 98.8954 131 1e2 131h1c1.105.0 2-.89500000000001 2-2V115c0-1.105-.894999999999996-2-2-2h-1C98.8954 113 98 112.105 98 111V88z" fill="#12b886"/><path d="M116 108c0-1.105-.894999999999996-2-2-2v0C112.895 106 112 106.895 112 108v0c0 1.105-.894999999999996 2-2 2h-1.5C107.672 110 107 110.672 107 111.5v0C107 112.328 107.672 113 108.5 113H110c1.105.0 2 .894999999999996 2 2v3c0 1.105.894999999999996 2 2 2v0c1.105.0 2-.894999999999996 2-2v-3c0-1.105.894999999999996-2 2-2h1.5C120.328 113 121 112.328 121 111.5v0C121 110.672 120.328 110 119.5 110H118C116.895 110 116 109.105 116 108v0z" fill="#12b886"/><path d="M134 105c0-1.105-.89500000000001-2-2-2v0C130.895 103 130 103.895 130 105v7c0 1.105-.89500000000001 2-2 2h-1C125.895 114 125 114.895 125 116v39C125 156.105 125.895 157 127 157h1C129.105 157 130 157.895 130 159v4C130 164.105 130.895 165 132 165v0C133.105 165 134 164.105 134 163v-4C134 157.895 134.895 157 136 157h1C138.105 157 139 156.105 139 155V116c0-1.105-.89500000000001-2-2-2h-1C134.895 114 134 113.105 134 112v-7z" fill="#ff646d"/><path d="M152 153C152 151.895 151.105 151 150 151v0C148.895 151 148 151.895 148 153v1C148 155.105 147.105 156 146 156h-1C143.895 156 143 156.895 143 158v1C143 160.105 143.895 161 145 161h1C147.105 161 148 161.895 148 163v12C148 176.105 148.895 177 150 177v0C151.105 177 152 176.105 152 175V163C152 161.895 152.895 161 154 161h1C156.105 161 157 160.105 157 159v-1C157 156.895 156.105 156 155 156h-1C152.895 156 152 155.105 152 154v-1z" fill="#ff646d"/><path d="M170 152C170 150.895 169.105 150 168 150v0C166.895 150 166 150.895 166 152v7C166 160.105 165.105 161 164 161h-1C161.895 161 161 161.895 161 163v13C161 177.105 161.895 178 163 178h1C165.105 178 166 178.895 166 180v4C166 185.105 166.895 186 168 186v0C169.105 186 170 185.105 170 184v-4C170 178.895 170.895 178 172 178h1C174.105 178 175 177.105 175 176V163C175 161.895 174.105 161 173 161h-1C170.895 161 170 160.105 170 159v-7z" fill="#ff646d"/><path d="M188 102c0-1.105-.89500000000001-2-2-2v0C184.895 1e2 184 100.895 184 102v15c0 1.105-.89500000000001 2-2 2h-1C179.895 119 179 119.895 179 121v38C179 160.105 179.895 161 181 161h1C183.105 161 184 161.895 184 163v20C184 184.105 184.895 185 186 185v0C187.105 185 188 184.105 188 183V163C188 161.895 188.895 161 190 161h1C192.105 161 193 160.105 193 159V121c0-1.105-.89500000000001-2-2-2h-1C188.895 119 188 118.105 188 117V102z" fill="#12b886"/><path d="M206 145C206 143.895 205.105 143 204 143v0C202.895 143 202 143.895 202 145v7C202 153.105 201.105 154 2e2 154h-1C197.895 154 197 154.895 197 156v7C197 164.105 197.895 165 199 165h1C201.105 165 202 165.895 202 167v4C202 172.105 202.895 173 204 173v0C205.105 173 206 172.105 206 171v-4C206 165.895 206.895 165 208 165h1C210.105 165 211 164.105 211 163v-7C211 154.895 210.105 154 209 154h-1C206.895 154 206 153.105 206 152v-7z" fill="#ff646d"/><path d="M224 85C224 83.8954 223.105 83 222 83v0C220.895 83 220 83.8954 220 85v7C220 93.1046 219.105 94 218 94h-1C215.895 94 215 94.8954 215 96v31C215 128.105 215.895 129 217 129h1C219.105 129 220 129.895 220 131v22C220 154.105 220.895 155 222 155v0C223.105 155 224 154.105 224 153V131C224 129.895 224.895 129 226 129h1C228.105 129 229 128.105 229 127V96C229 94.8954 228.105 94 227 94h-1C224.895 94 224 93.1046 224 92V85z" fill="#12b886"/><path d="M47 238C47 236.343 48.3431 235 50 235H61C62.6569 235 64 236.343 64 238v0C64 239.657 62.6569 241 61 241H50C48.3431 241 47 239.657 47 238v0z" fill="#29313a"/><path opacity=".4" d="M66 217C67.6569 217 69 218.343 69 220v5C69 226.657 67.6569 228 66 228v0C64.3431 228 63 226.657 63 225v-5C63 218.343 64.3431 217 66 217v0z" fill="#12b886"/><path opacity=".4" d="M76 204C77.6569 204 79 205.343 79 207v18C79 226.657 77.6569 228 76 228v0C74.3431 228 73 226.657 73 225V207C73 205.343 74.3431 204 76 204v0z" fill="#12b886"/><path opacity=".4" d="M86 210C87.6569 210 89 211.343 89 213v12C89 226.657 87.6569 228 86 228v0C84.3431 228 83 226.657 83 225V213C83 211.343 84.3431 210 86 210v0z" fill="#ff646d"/><path opacity=".4" d="M96 215C97.6569 215 99 216.343 99 218v7C99 226.657 97.6569 228 96 228v0C94.3431 228 93 226.657 93 225v-7C93 216.343 94.3431 215 96 215v0z" fill="#12b886"/><path opacity=".4" d="M106 188c1.657.0 3 1.34299999999999 3 3v34c0 1.65700000000001-1.343 3-3 3v0C104.343 228 103 226.657 103 225V191c0-1.65700000000001 1.343-3 3-3v0z" fill="#ff646d"/><path opacity=".4" d="M116.5 223c1.381.0 2.5 1.119 2.5 2.5v0c0 1.381-1.119 2.5-2.5 2.5h-1c-1.381.0-2.5-1.119-2.5-2.5v0c0-1.381 1.119-2.5 2.5-2.5h1z" fill="#12b886"/><path opacity=".4" d="M126 216c1.657.0 3 1.34299999999999 3 3v6c0 1.65700000000001-1.343 3-3 3v0C124.343 228 123 226.657 123 225v-6c0-1.65700000000001 1.343-3 3-3v0z" fill="#12b886"/><path opacity=".4" d="M136 208C137.657 208 139 209.343 139 211v14C139 226.657 137.657 228 136 228v0C134.343 228 133 226.657 133 225V211C133 209.343 134.343 208 136 208v0z" fill="#ff646d"/><path opacity=".4" d="M146 189C147.657 189 149 190.343 149 192v33C149 226.657 147.657 228 146 228v0C144.343 228 143 226.657 143 225V192C143 190.343 144.343 189 146 189v0z" fill="#12b886"/><path opacity=".4" d="M157.5 225C158.328 225 159 225.672 159 226.5v0C159 227.328 158.328 228 157.5 228h-3C153.672 228 153 227.328 153 226.5v0C153 225.672 153.672 225 154.5 225h3z" fill="#ff646d"/><path opacity=".4" d="M166 217C167.657 217 169 218.343 169 220v5C169 226.657 167.657 228 166 228v0C164.343 228 163 226.657 163 225v-5C163 218.343 164.343 217 166 217v0z" fill="#ff646d"/><path opacity=".4" d="M176 217C177.657 217 179 218.343 179 220v5C179 226.657 177.657 228 176 228v0C174.343 228 173 226.657 173 225v-5C173 218.343 174.343 217 176 217v0z" fill="#12b886"/><path opacity=".4" d="M186 222C187.657 222 189 223.343 189 225v0C189 226.657 187.657 228 186 228v0C184.343 228 183 226.657 183 225v0C183 223.343 184.343 222 186 222v0z" fill="#12b886"/><path opacity=".4" d="M196 197C197.657 197 199 198.343 199 2e2v25C199 226.657 197.657 228 196 228v0C194.343 228 193 226.657 193 225V2e2C193 198.343 194.343 197 196 197v0z" fill="#ff646d"/><path opacity=".4" d="M206 208C207.657 208 209 209.343 209 211v14C209 226.657 207.657 228 206 228v0C204.343 228 203 226.657 203 225V211C203 209.343 204.343 208 206 208v0z" fill="#ff646d"/><path opacity=".4" d="M216 217C217.657 217 219 218.343 219 220v5C219 226.657 217.657 228 216 228v0C214.343 228 213 226.657 213 225v-5C213 218.343 214.343 217 216 217v0z" fill="#12b886"/><path opacity=".4" d="M226 183C227.657 183 229 184.343 229 186v39C229 226.657 227.657 228 226 228v0C224.343 228 223 226.657 223 225V186C223 184.343 224.343 183 226 183v0z" fill="#ff646d"/><path opacity=".4" d="M236 222C237.657 222 239 223.343 239 225v0C239 226.657 237.657 228 236 228v0C234.343 228 233 226.657 233 225v0C233 223.343 234.343 222 236 222v0z" fill="#12b886"/><path opacity=".4" d="M246 215C247.657 215 249 216.343 249 218v7C249 226.657 247.657 228 246 228v0C244.343 228 243 226.657 243 225v-7C243 216.343 244.343 215 246 215v0z" fill="#ff646d"/><path d="M96 238C96 236.343 97.3431 235 99 235h11c1.657.0 3 1.34299999999999 3 3v0c0 1.65700000000001-1.343 3-3 3H99C97.3431 241 96 239.657 96 238v0z" fill="#29313a"/><path d="M145 238C145 236.343 146.343 235 148 235h11C160.657 235 162 236.343 162 238v0C162 239.657 160.657 241 159 241H148C146.343 241 145 239.657 145 238v0z" fill="#29313a"/><path d="M194 238C194 236.343 195.343 235 197 235h11C209.657 235 211 236.343 211 238v0C211 239.657 209.657 241 208 241H197C195.343 241 194 239.657 194 238v0z" fill="#29313a"/><path d="M243 238C243 236.343 244.343 235 246 235h11C258.657 235 260 236.343 260 238v0C260 239.657 258.657 241 257 241H246C244.343 241 243 239.657 243 238v0z" fill="#29313a"/><path d="M260 207C260 205.343 261.343 204 263 204h18C282.657 204 284 205.343 284 207v0C284 208.657 282.657 210 281 210H263C261.343 210 260 208.657 260 207v0z" fill="#29313a"/><path d="M260 177C260 175.343 261.343 174 263 174h18C282.657 174 284 175.343 284 177v0C284 178.657 282.657 180 281 180H263C261.343 180 260 178.657 260 177v0z" fill="#29313a"/><path d="M260 147C260 145.343 261.343 144 263 144h18C282.657 144 284 145.343 284 147v0C284 148.657 282.657 150 281 150H263C261.343 150 260 148.657 260 147v0z" fill="#29313a"/><path d="M254 87C254 82.5817 257.582 79 262 79h20C286.418 79 290 82.5817 290 87v1C290 92.4183 286.418 96 282 96H262C257.582 96 254 92.4183 254 88V87z" fill="#12b886"/><path d="M260 117c0-1.657 1.34300000000002-3 3-3h18c1.65699999999998.0 3 1.343 3 3v0c0 1.657-1.34300000000002 3-3 3H263C261.343 120 260 118.657 260 117v0z" fill="#29313a"/><path d="M260 87.5C260 86.1193 261.119 85 262.5 85h19C282.881 85 284 86.1193 284 87.5v0C284 88.8807 282.881 90 281.5 90h-19C261.119 90 260 88.8807 260 87.5v0z" fill="#29313a"/><path d="M260 57C260 55.3431 261.343 54 263 54h18C282.657 54 284 55.3431 284 57v0C284 58.6569 282.657 60 281 60H263C261.343 60 260 58.6569 260 57v0z" fill="#29313a"/><path d="M260 27C260 25.3431 261.343 24 263 24h18C282.657 24 284 25.3431 284 27v0C284 28.6569 282.657 30 281 30H263C261.343 30 260 28.6569 260 27v0z" fill="#29313a"/><path d="M273 238C273 234.686 275.686 232 279 232v0C282.314 232 285 234.686 285 238v0C285 241.314 282.314 244 279 244v0C275.686 244 273 241.314 273 238v0z" fill="#9488f0"/><path d="M37 27c0-1.6569 1.3431-3 3-3H81C82.6569 24 84 25.3431 84 27v0C84 28.6569 82.6569 30 81 30H40c-1.6569.0-3-1.3431-3-3v0z" fill="#3e4854"/><path d="M37 65c0-1.6569 1.3431-3 3-3H67C68.6569 62 70 63.3431 70 65v0C70 66.6569 68.6569 68 67 68H40C38.3431 68 37 66.6569 37 65v0z" fill="#2c353f"/><path d="M44 90C44 88.8954 43.1046 88 42 88v0C40.8954 88 40 88.8954 40 90v7C40 98.1046 39.1046 99 38 99H37C35.8954 99 35 99.8954 35 101v31C35 133.105 35.8954 134 37 134h1C39.1046 134 40 134.895 40 136v4C40 141.105 40.8954 142 42 142v0C43.1046 142 44 141.105 44 140v-4C44 134.895 44.8954 134 46 134h1C48.1046 134 49 133.105 49 132V101C49 99.8954 48.1046 99 47 99H46C44.8954 99 44 98.1046 44 97V90z" fill="#ff646d"/><path d="M62 122C62 120.895 61.1046 120 60 120v0C58.8954 120 58 120.895 58 122v7C58 130.105 57.1046 131 56 131H55C53.8954 131 53 131.895 53 133v39C53 173.105 53.8954 174 55 174h1C57.1046 174 58 174.895 58 176v12C58 189.105 58.8954 190 60 190v0C61.1046 190 62 189.105 62 188V176C62 174.895 62.8954 174 64 174h1C66.1046 174 67 173.105 67 172V133C67 131.895 66.1046 131 65 131H64C62.8954 131 62 130.105 62 129v-7z" fill="#ff646d"/><path d="M80 122C80 120.895 79.1046 120 78 120v0C76.8954 120 76 120.895 76 122v7C76 130.105 75.1046 131 74 131H73C71.8954 131 71 131.895 71 133v7C71 141.105 71.8954 142 73 142h1C75.1046 142 76 142.895 76 144v4C76 149.105 76.8954 150 78 150v0C79.1046 150 80 149.105 80 148v-4C80 142.895 80.8954 142 82 142h1C84.1046 142 85 141.105 85 140v-7C85 131.895 84.1046 131 83 131H82C80.8954 131 80 130.105 80 129v-7z" fill="#ff646d"/><path d="M98 88C98 86.8954 97.1046 86 96 86v0C94.8954 86 94 86.8954 94 88v23C94 112.105 93.1046 113 92 113H91C89.8954 113 89 113.895 89 115v14C89 130.105 89.8954 131 91 131h1C93.1046 131 94 131.895 94 133v7C94 141.105 94.8954 142 96 142v0C97.1046 142 98 141.105 98 140v-7C98 131.895 98.8954 131 1e2 131h1c1.105.0 2-.89500000000001 2-2V115c0-1.105-.894999999999996-2-2-2h-1C98.8954 113 98 112.105 98 111V88z" fill="#12b886"/><path d="M116 108c0-1.105-.894999999999996-2-2-2v0C112.895 106 112 106.895 112 108v0c0 1.105-.894999999999996 2-2 2h-1.5C107.672 110 107 110.672 107 111.5v0C107 112.328 107.672 113 108.5 113H110c1.105.0 2 .894999999999996 2 2v3c0 1.105.894999999999996 2 2 2v0c1.105.0 2-.894999999999996 2-2v-3c0-1.105.894999999999996-2 2-2h1.5C120.328 113 121 112.328 121 111.5v0C121 110.672 120.328 110 119.5 110H118C116.895 110 116 109.105 116 108v0z" fill="#12b886"/><path d="M134 105c0-1.105-.89500000000001-2-2-2v0C130.895 103 130 103.895 130 105v7c0 1.105-.89500000000001 2-2 2h-1C125.895 114 125 114.895 125 116v39C125 156.105 125.895 157 127 157h1C129.105 157 130 157.895 130 159v4C130 164.105 130.895 165 132 165v0C133.105 165 134 164.105 134 163v-4C134 157.895 134.895 157 136 157h1C138.105 157 139 156.105 139 155V116c0-1.105-.89500000000001-2-2-2h-1C134.895 114 134 113.105 134 112v-7z" fill="#ff646d"/><path d="M152 153C152 151.895 151.105 151 150 151v0C148.895 151 148 151.895 148 153v1C148 155.105 147.105 156 146 156h-1C143.895 156 143 156.895 143 158v1C143 160.105 143.895 161 145 161h1C147.105 161 148 161.895 148 163v12C148 176.105 148.895 177 150 177v0C151.105 177 152 176.105 152 175V163C152 161.895 152.895 161 154 161h1C156.105 161 157 160.105 157 159v-1C157 156.895 156.105 156 155 156h-1C152.895 156 152 155.105 152 154v-1z" fill="#ff646d"/><path d="M170 152C170 150.895 169.105 150 168 150v0C166.895 150 166 150.895 166 152v7C166 160.105 165.105 161 164 161h-1C161.895 161 161 161.895 161 163v13C161 177.105 161.895 178 163 178h1C165.105 178 166 178.895 166 180v4C166 185.105 166.895 186 168 186v0C169.105 186 170 185.105 170 184v-4C170 178.895 170.895 178 172 178h1C174.105 178 175 177.105 175 176V163C175 161.895 174.105 161 173 161h-1C170.895 161 170 160.105 170 159v-7z" fill="#ff646d"/><path d="M188 102c0-1.105-.89500000000001-2-2-2v0C184.895 1e2 184 100.895 184 102v15c0 1.105-.89500000000001 2-2 2h-1C179.895 119 179 119.895 179 121v38C179 160.105 179.895 161 181 161h1C183.105 161 184 161.895 184 163v20C184 184.105 184.895 185 186 185v0C187.105 185 188 184.105 188 183V163C188 161.895 188.895 161 190 161h1C192.105 161 193 160.105 193 159V121c0-1.105-.89500000000001-2-2-2h-1C188.895 119 188 118.105 188 117V102z" fill="#12b886"/><path d="M206 145C206 143.895 205.105 143 204 143v0C202.895 143 202 143.895 202 145v7C202 153.105 201.105 154 2e2 154h-1C197.895 154 197 154.895 197 156v7C197 164.105 197.895 165 199 165h1C201.105 165 202 165.895 202 167v4C202 172.105 202.895 173 204 173v0C205.105 173 206 172.105 206 171v-4C206 165.895 206.895 165 208 165h1C210.105 165 211 164.105 211 163v-7C211 154.895 210.105 154 209 154h-1C206.895 154 206 153.105 206 152v-7z" fill="#ff646d"/><path d="M224 85C224 83.8954 223.105 83 222 83v0C220.895 83 220 83.8954 220 85v7C220 93.1046 219.105 94 218 94h-1C215.895 94 215 94.8954 215 96v31C215 128.105 215.895 129 217 129h1C219.105 129 220 129.895 220 131v22C220 154.105 220.895 155 222 155v0C223.105 155 224 154.105 224 153V131C224 129.895 224.895 129 226 129h1C228.105 129 229 128.105 229 127V96C229 94.8954 228.105 94 227 94h-1C224.895 94 224 93.1046 224 92V85z" fill="#12b886"/><path opacity=".6" d="M42 41.6c0-8.9608.0-13.4413 1.7439-16.8638C45.2779 21.7256 47.7256 19.2779 50.7362 17.7439 54.1587 16 58.6392 16 67.6 16h43.8c8.961.0 13.441.0 16.864 1.7439C131.274 19.2779 133.722 21.7256 135.256 24.7362 137 28.1587 137 32.6392 137 41.6V212.4C137 221.361 137 225.841 135.256 229.264 133.722 232.274 131.274 234.722 128.264 236.256 124.841 238 120.361 238 111.4 238H42V41.6z" fill="#0b0f14"/><path d="M0 25.6C0 16.6392.0 12.1587 1.7439 8.73615 3.27787 5.72556 5.72556 3.27787 8.73615 1.7439 12.1587.0 16.6392.0 25.6.0H95.4c8.961.0 13.441.0 16.864 1.7439C115.274 3.27787 117.722 5.72556 119.256 8.73615 121 12.1587 121 16.6392 121 25.6V198.4C121 207.361 121 211.841 119.256 215.264 117.722 218.274 115.274 220.722 112.264 222.256 108.841 224 104.361 224 95.4 224H25.6c-8.9608.0-13.4413.0-16.86385-1.744C5.72556 220.722 3.27787 218.274 1.7439 215.264.0 211.841.0 207.361.0 198.4V25.6z" fill="#29313a"/><path d="M16 22c0-3.866 3.134-7 7-7v0c3.866.0 7 3.134 7 7v0c0 3.866-3.134 7-7 7v0c-3.866.0-7-3.134-7-7v0z" fill="#343d48"/><path d="M16 44c0-3.866 3.134-7 7-7v0c3.866.0 7 3.134 7 7v0c0 3.866-3.134 7-7 7v0c-3.866.0-7-3.134-7-7v0z" fill="#343d48"/><path d="M16 66c0-3.866 3.134-7 7-7v0c3.866.0 7 3.134 7 7v0c0 3.866-3.134 7-7 7v0c-3.866.0-7-3.134-7-7v0z" fill="#343d48"/><path d="M16 88c0-3.866 3.134-7 7-7v0c3.866.0 7 3.134 7 7v0c0 3.866-3.134 7-7 7v0c-3.866.0-7-3.134-7-7v0z" fill="#343d48"/><path d="M16 110c0-3.866 3.134-7 7-7v0c3.866.0 7 3.134 7 7v0c0 3.866-3.134 7-7 7v0c-3.866.0-7-3.134-7-7v0z" fill="#343d48"/><path d="M16 132C16 128.134 19.134 125 23 125v0C26.866 125 30 128.134 30 132v0C30 135.866 26.866 139 23 139v0C19.134 139 16 135.866 16 132v0z" fill="#343d48"/><path d="M20 132C20 130.343 21.3431 129 23 129v0C24.6569 129 26 130.343 26 132v0C26 133.657 24.6569 135 23 135v0C21.3431 135 20 133.657 20 132v0z" fill="#232a32"/><path d="M20 88C20 86.3431 21.3431 85 23 85v0C24.6569 85 26 86.3431 26 88v0C26 89.6569 24.6569 91 23 91v0C21.3431 91 20 89.6569 20 88v0z" fill="#232a32"/><path d="M20 66C20 64.3431 21.3431 63 23 63v0C24.6569 63 26 64.3431 26 66v0C26 67.6569 24.6569 69 23 69v0C21.3431 69 20 67.6569 20 66v0z" fill="#232a32"/><path d="M16 176C16 172.134 19.134 169 23 169v0C26.866 169 30 172.134 30 176v0C30 179.866 26.866 183 23 183v0C19.134 183 16 179.866 16 176v0z" fill="#343d48"/><path d="M16 198C16 194.134 19.134 191 23 191v0C26.866 191 30 194.134 30 198v0C30 201.866 26.866 205 23 205v0C19.134 205 16 201.866 16 198v0z" fill="#343d48"/><path d="M37 44c0-2.2091 1.7909-4 4-4H77C79.2091 40 81 41.7909 81 44v0C81 46.2091 79.2091 48 77 48H41c-2.2091.0-4-1.7909-4-4v0z" fill="#3e4854"/><path d="M37 22c0-2.2091 1.7909-4 4-4H59c2.2091.0 4 1.7909 4 4v0c0 2.2091-1.7909 4-4 4H41c-2.2091.0-4-1.7909-4-4v0z" fill="#3e4854"/><path d="M37 66c0-2.2091 1.7909-4 4-4h4c2.2091.0 4 1.7909 4 4v0C49 68.2091 47.2091 70 45 70H41C38.7909 70 37 68.2091 37 66v0z" fill="#3e4854"/><path d="M37 88C37 85.7909 38.7909 84 41 84H66C68.2091 84 70 85.7909 70 88v0C70 90.2091 68.2091 92 66 92H41C38.7909 92 37 90.2091 37 88v0z" fill="#3e4854"/><path d="M37 110c0-2.209 1.7909-4 4-4H61c2.2091.0 4 1.791 4 4v0c0 2.209-1.7909 4-4 4H41c-2.2091.0-4-1.791-4-4v0z" fill="#3e4854"/><path d="M37 132c0-2.209 1.7909-4 4-4H54c2.2091.0 4 1.791 4 4v0c0 2.209-1.7909 4-4 4H41c-2.2091.0-4-1.791-4-4v0z" fill="#3e4854"/><path d="M6 131C6 129.343 7.34315 128 9 128v0C10.6569 128 12 129.343 12 131v2C12 134.657 10.6569 136 9 136v0C7.34315 136 6 134.657 6 133v-2z" fill="#12b886"/><path d="M6 87C6 85.3431 7.34315 84 9 84v0C10.6569 84 12 85.3431 12 87v2C12 90.6569 10.6569 92 9 92v0C7.34315 92 6 90.6569 6 89V87z" fill="#12b886"/><path d="M6 65c0-1.6569 1.34315-3 3-3v0c1.6569.0 3 1.3431 3 3v2C12 68.6569 10.6569 70 9 70v0C7.34315 70 6 68.6569 6 67V65z" fill="#12b886"/><path d="M37 176c0-2.209 1.7909-4 4-4H74C76.2091 172 78 173.791 78 176v0C78 178.209 76.2091 180 74 180H41c-2.2091.0-4-1.791-4-4v0z" fill="#3e4854"/><path d="M94 44C94 41.7909 95.7909 40 98 40h7c2.209.0 4 1.7909 4 4v0c0 2.2091-1.791 4-4 4H98C95.7909 48 94 46.2091 94 44v0z" fill="#343d48"/><path d="M37 198c0-2.209 1.7909-4 4-4H54c2.2091.0 4 1.791 4 4v0c0 2.209-1.7909 4-4 4H41c-2.2091.0-4-1.791-4-4v0z" fill="#3e4854"/><path d="M76 22C76 19.7909 77.7909 18 80 18h25c2.209.0 4 1.7909 4 4v0c0 2.2091-1.791 4-4 4H80C77.7909 26 76 24.2091 76 22v0z" fill="#343d48"/><path d="M87 66C87 63.7909 88.7909 62 91 62h14c2.209.0 4 1.7909 4 4v0C109 68.2091 107.209 70 105 70H91C88.7909 70 87 68.2091 87 66v0z" fill="#343d48"/><path d="M85 88C85 85.7909 86.7909 84 89 84h16C107.209 84 109 85.7909 109 88v0C109 90.2091 107.209 92 105 92H89C86.7909 92 85 90.2091 85 88v0z" fill="#343d48"/><path d="M81 110C81 107.791 82.7909 106 85 106h20c2.209.0 4 1.791 4 4v0c0 2.209-1.791 4-4 4H85C82.7909 114 81 112.209 81 110v0z" fill="#343d48"/><path d="M96 132C96 129.791 97.7909 128 1e2 128h5c2.209.0 4 1.791 4 4v0c0 2.209-1.791 4-4 4h-5C97.7909 136 96 134.209 96 132v0z" fill="#343d48"/><path d="M37 154c0-2.209 1.7909-4 4-4H83C85.2091 150 87 151.791 87 154v0C87 156.209 85.2091 158 83 158H41c-2.2091.0-4-1.791-4-4v0z" fill="#343d48"/><path d="M89 176C89 173.791 90.7909 172 93 172h12c2.209.0 4 1.791 4 4v0c0 2.209-1.791 4-4 4H93C90.7909 180 89 178.209 89 176v0z" fill="#343d48"/><path d="M99 198c0-2.209 1.791-4 4-4h2c2.209.0 4 1.791 4 4v0c0 2.209-1.791 4-4 4h-2c-2.209.0-4-1.791-4-4v0z" fill="#343d48"/></svg>