<svg xmlns="http://www.w3.org/2000/svg" fill="none" viewBox="0 0 860 480"><g clip-path="url(#a)"><path fill="#29313A" d="M0 0h860v480H0z"/><path fill="#0063A2" d="M314.65 245.536c-.427-1.281-12.665 6.55-12.665 5.978 0-.572 10.248-8.54 10.957-9.675.709-1.136-5.406-11.102-8.822-12.528-3.416-1.426-15.226 11.101-16.934 9.539-1.281-1.853.145-11.102-2.707-13.809-2.844-2.707-11.811 1.281-14.262 2.989-2.45 1.708.743 8.967-2.673 18.574-3.415 9.607-19.214 40.349-45.26 29.461a28.742 28.742 0 0 1-4.996-2.681c-6.789 8.241-14.262 15.952-22.528 22.673 3.219 4.628 7.412 8.736 12.792 12.032 43.34 20.068 79.916-25.551 79.916-25.551s26.755-18.36 29.317-20.776c2.562-2.417-1.708-14.945-2.135-16.226Zm-131.086 78.941s23.536 52.86 31.077 89.153c7.54 36.294 1.614 79.086 1.614 79.086h43.937s10.248-48.898-7.472-97.079c-17.72-48.18-58.925-75.242-59.557-75.755-.632-.512-9.599 4.595-9.599 4.595Z"/><path fill="#00B0F3" d="M168.005 257.782s-26.524 49.53-2.322 69.453c24.193 19.923 66.96-36.148 66.217-70.597-.743-34.441-41.64-46.396-63.886 1.136l-.009.008Z"/><path fill="#0063A2" d="M197.406 322.769c-7.506-4.219-14.082-12.955-14.082-12.955l-20.008 6.003s-.564 4.415.435 9.548a27.116 27.116 0 0 0 1.981 1.819c9.044 7.446 20.684 4.278 31.674-4.415Zm13.049-67.822s-12.34-8.753-20.24-4.056c-9.692 21.4-10.393 51.007 8.762 70.597 10.641-8.967 20.521-22.946 26.636-37.216-14.774-6.977-15.158-29.317-15.158-29.317v-.008Z"/><path fill="#FFAD00" d="M271.833 134.948s6.507 3.407 4.748 8.283c-1.759 4.877-45.329 5.457-54.8-7.839-1.52-3.527 2.016-6.388 7.387-6.131 3.416-6.567 14.544-6.49 28.233-4.134 15.406 2.656 14.432 9.821 14.432 9.821Z"/><path fill="#DB7E04" d="M231.2 126.758c4.33-.17 9.889 0 16.952.889 6.55.819 16.379 2.322 23.314 5.217.486 1.23.367 2.084.367 2.084s3.826 2.007 4.816 5.149c-2.801-2.476-10.282-6.968-29.052-9.376-10.077-1.298-16.832-1.503-21.341-1.264a12.217 12.217 0 0 1 2.903-.188 8.198 8.198 0 0 1 2.033-2.511h.008Z"/><path fill="#00B0F3" d="M215.146 136.733s-10.034 64.764-9.82 70.17c.213 5.406 48.463 21.631 55.935 18.001 7.473-3.629 24.125-65.328 22.417-76.216-1.708-10.888-63.835-25.405-68.532-11.955Z"/><path fill="#0063A2" d="M230.945 206.903c12.545-7.933 29.215-33.023 18.36-56.08-7.489-15.909-27.182-14.816-34.193-13.868-.632 4.073-9.991 64.722-9.786 69.948.153 3.911 25.448 13.484 42.254 17.105-10.094-5.466-20.307-13.997-16.635-17.105Z"/><path fill="#FFAD00" d="M226.46 198.005c13.796 0 24.979-12.713 24.979-28.395 0-15.681-11.183-28.394-24.979-28.394-13.795 0-24.979 12.713-24.979 28.394 0 15.682 11.184 28.395 24.979 28.395Z"/><path fill="#DB7E04" d="M224.36 193.948c11.064 0 20.034-10.896 20.034-24.338 0-13.441-8.97-24.338-20.034-24.338-11.065 0-20.035 10.897-20.035 24.338 0 13.442 8.97 24.338 20.035 24.338Z"/><path fill="#FFAD00" d="M223.216 190.891c8.781 0 15.901-9.447 15.901-21.101s-7.12-21.102-15.901-21.102c-8.782 0-15.902 9.448-15.902 21.102s7.12 21.101 15.902 21.101Z"/><path fill="#F5F2F9" d="M252.293 190.883s13.561 4.022 15.799 2.416c2.237-1.605 11.588-32.442 2.194-36.182-11.486-4.569-18.42 19.598-17.993 33.757v.009Zm8.967 13.74c.145-.359-10.82-6.473-13.023-6.123-2.203.35-7.404 14.09.427 16.507 7.831 2.417 12.596-10.393 12.596-10.393v.009Z"/><path fill="#4C2634" d="M246 201.48c-1.87 4.27-2.938 11.802 2.664 13.536 3.937 1.221 7.105-1.426 9.275-4.347-4.108-2.306-8.788-6.294-11.939-9.189Z"/><path fill="#232A32" d="M264.368 191.335a5.688 5.688 0 1 0 0-11.375 5.688 5.688 0 0 0 0 11.375Z"/><path fill="#0063A2" d="M263.037 152.881s10.76-6.336 13.843 2.203c3.023-9.393-7.301-13.168-13.843-2.203Zm-60.633 110.307c6.759 0 12.238-5.479 12.238-12.238 0-6.758-5.479-12.237-12.238-12.237-6.758 0-12.237 5.479-12.237 12.237 0 6.759 5.479 12.238 12.237 12.238Zm-27.602 66.071c6.376 0 11.545-5.169 11.545-11.546 0-6.376-5.169-11.545-11.545-11.545-6.377 0-11.546 5.169-11.546 11.545 0 6.377 5.169 11.546 11.546 11.546Z"/><path fill="#00B0F3" d="M194.692 248.149c1.759-5.141 8.028-7.147 12.426-3.962l.196.145c6.55 4.91-6.9 39.496 19.146 50.384 26.047 10.888 41.845-19.855 45.261-29.462 3.416-9.607.222-16.866 2.673-18.573 2.451-1.708 11.418-5.696 14.262-2.989 2.843 2.707 1.426 11.955 2.707 13.808 1.708 1.563 13.518-10.956 16.934-9.539 3.416 1.418 9.539 11.384 8.822 12.528-.718 1.144-10.957 9.112-10.957 9.675 0 .564 12.238-7.258 12.665-5.977.427 1.281 4.696 13.808 2.135 16.225-2.562 2.417-29.318 20.777-29.318 20.777s-36.575 45.619-79.915 25.551c-29.197-17.874-23.467-59.778-17.028-78.591h-.009Z"/><path fill="#0063A2" d="M189.567 276.313a187.703 187.703 0 0 1 20.837-2.357c-.546-2.826-.811-5.704-.93-8.497a197.437 197.437 0 0 0-19.164 2.076 102.857 102.857 0 0 0-.743 8.778Zm50.923 38.505c-.239-6.037-.086-12.066.401-18.069-2.681.409-5.525.375-8.531-.205a159.122 159.122 0 0 0-.162 22.023c.264 4.279.555 8.805 1.195 13.271 2.989.051 5.91-.154 8.754-.572-.854-5.44-1.435-10.94-1.657-16.448Zm-22.212-25.328c-2.152-2.041-3.783-4.355-5.022-6.832a101.839 101.839 0 0 0-20.094 20.683 48.64 48.64 0 0 0 4.133 8.83 92.266 92.266 0 0 1 20.991-22.681h-.008Zm46.661-10.922c-1.64 2.502-3.544 5.029-5.705 7.386a362.824 362.824 0 0 1 15.039 31.298 102.597 102.597 0 0 0 6.917-5.525 362.974 362.974 0 0 0-16.251-33.168v.009Z"/><path fill="#00B0F3" d="M175.324 308.909c-1.452 0-10.214 1.81-7.362 12.63 2.844 10.82 12.238 42.126 13.382 63.475 1.136 21.349-30.743 104.756-27.045 107.318 0 0 52.374.854 52.664 0 .291-.854 8.694-33.023 11.324-78.565 2.016-34.91-22.562-78.923-34.415-97.497-2.562-5.124-4.799-7.378-8.54-7.361h-.008Z"/><path fill="#0063A2" d="M196.87 338.866c-7.72 1.332-15.201 3.971-22.323 7.421a397 397 0 0 1 2.015 8.522c7.703-3.902 15.85-6.831 24.322-7.899a284.305 284.305 0 0 0-4.023-8.044h.009Zm21.512 69.965a85.562 85.562 0 0 0-.564-8.907c-12.357-2.98-24.919-4.944-37.489-4.099-.47 2.682-1.085 5.619-1.819 8.753 13.39-1.332 26.746.914 39.863 4.253h.009Zm-7.259 64.414c-6.115-1.212-12.298-2.117-18.37-2.971a323.552 323.552 0 0 0-26.635-2.614c-1.99-.111-3.98-.204-5.978-.256a717.059 717.059 0 0 0-2.562 8.514c2.613 0 5.244.103 7.891.256a327.966 327.966 0 0 1 25.03 2.392c6.208.836 12.622 1.716 18.975 2.954a380.749 380.749 0 0 0 1.64-8.283l.009.008Zm-31.598-103.577c.479 2.87.889 5.696 1.213 8.42a92.977 92.977 0 0 1 31.811-2.092 184.79 184.79 0 0 0-3.006-8.779 102.045 102.045 0 0 0-30.018 2.443v.008Zm-9.189-39.419a34.041 34.041 0 0 1 18.181-6.396 281.678 281.678 0 0 0-4.645-7.557c-.069-.146-.145-.282-.214-.419a42.54 42.54 0 0 0-15.653 5.833c.564 2.143 1.383 5.072 2.331 8.539Zm25.457 111.69c6.533 1.469 12.989 3.194 19.419 5.047.359-2.818.709-5.739 1.034-8.762-14.544-4.312-29.531-7.967-44.467-8.719-.837 2.827-1.691 5.671-2.553 8.506 8.941.376 17.873 1.973 26.567 3.928Zm12.426-215.463c3.74 5.969 10.487 13.851 21.469 17.959-3.741-10.282-11.871-16.883-21.469-17.959Z"/><path fill="#0063A2" d="m222.719 213-10.197 14.996 10.197 9.18 16.866-16.49L222.719 213Z"/><path fill="#813439" d="M424.986 320.151c9.231-29.985-4.298-60.761-30.217-68.74-25.919-7.978-54.414 9.862-63.644 39.847-9.231 29.986 4.298 60.762 30.217 68.74 25.919 7.979 54.414-9.861 63.644-39.847Z"/><path fill="#2D6309" d="M378.872 238.779v17.764l11.872 3.64 5.515-21.404h-17.387Z"/><path fill="#397D0E" d="m348.249 341.917 1.993 146.064a4.797 4.797 0 0 0 4.798 4.727h47.332L375.31 353.97l11.282-.394 30.015 139.132h50.026s2.103-2.45-2.103-12.163c-4.199-9.714-59.858-135.194-59.858-135.194l-56.431-3.434h.008Z"/><path fill="#2D6309" d="M351.747 343.602s3.6 19.467 26.124 23.516l-2.82-13.802-23.304-9.714Zm33.554 5.452 3.915 16.654s13.487-6.019 13.157-18.623c-7.359-3.679-17.072 1.969-17.072 1.969Z"/><path fill="#C46C71" d="M422.123 315.212c4.944-28.357-9.113-54.495-31.397-58.38-22.285-3.885-44.358 15.953-49.302 44.311-4.944 28.357 9.113 54.495 31.397 58.38 22.285 3.886 44.358-15.953 49.302-44.311Z"/><path fill="#A75156" d="M422.887 308.144c.497-7.587-.338-14.787-2.245-21.286-5.239 8.287-15.457 17.82-34.403 16.015-27.85-2.654-30.371-22.231-29.528-33.292-9.012 9.485-15.196 23.248-16.205 38.563-1.875 28.62 15.047 51.821 37.799 51.821s42.707-23.201 44.582-51.821Z"/><path fill="#813439" d="M422.477 312.012c.157-1.284.291-2.568.378-3.876.102-1.576.141-3.135.134-4.68-29.646 10.982-62.733-1.331-79.853-10.044a66.353 66.353 0 0 0-2.536 13.282c35.687 9.95 63.442 8.761 81.877 5.318Zm-2.545-27.344a51.48 51.48 0 0 0-2.285-5.665c-23.02 5.042-47.292-1.615-62.56-7.673-2.3 2.655-4.388 5.609-6.232 8.792 30.284 7.177 54.32 6.83 71.077 4.546Zm-11.391 59.935c2.111-2.474 4.033-5.199 5.751-8.122-27.692 6.917-57.022-4.144-72.817-12.179 1.095 5.593 2.946 10.769 5.435 15.338 24.919 6.003 45.638 6.539 61.631 4.963Z"/><path fill="#4F9522" d="M359.216 236.975s11.423 17.032 33.285 13.88c21.862-3.151 32.497-29.841 29.448-46.779-3.049-16.937-24.501-38.94-52.231-28.738-25.998 9.563-18.869 49.512-10.494 61.629l-.008.008Z"/><path fill="#397D0E" d="M367.015 244.159c10.813 0 19.578-8.765 19.578-19.576 0-10.812-8.765-19.577-19.578-19.577-10.812 0-19.577 8.765-19.577 19.577 0 10.811 8.765 19.576 19.577 19.576Zm40.816-1.126c9.772 0 17.694-8.261 17.694-18.45 0-10.19-7.922-18.451-17.694-18.451-9.772 0-17.694 8.261-17.694 18.451 0 10.189 7.922 18.45 17.694 18.45Z"/><path fill="#F5F2F9" d="M367.016 242.678c9.272 0 16.788-7.244 16.788-16.181 0-8.937-7.516-16.181-16.788-16.181s-16.788 7.244-16.788 16.181c0 8.937 7.516 16.181 16.788 16.181Zm40.816-1.095c8.467 0 15.331-7.185 15.331-16.047 0-8.863-6.864-16.048-15.331-16.048-8.467 0-15.331 7.185-15.331 16.048 0 8.862 6.864 16.047 15.331 16.047Z"/><path fill="#2D6309" d="M386.592 245.948c.016-.15.142-3.979 4.136-6.602.883.197 2.119 3.246 1.922 3.301-.346.094-3.001.969-3.844 3.86-.638.228-2.269-.024-2.214-.559Z"/><path fill="#232A32" d="M372.94 240.622c3.276 0 5.932-2.405 5.932-5.373 0-2.967-2.656-5.373-5.932-5.373-3.276 0-5.932 2.406-5.932 5.373 0 2.968 2.656 5.373 5.932 5.373Zm29.74-1.268c3.277 0 5.932-2.406 5.932-5.373s-2.655-5.373-5.932-5.373c-3.276 0-5.932 2.406-5.932 5.373s2.656 5.373 5.932 5.373Z"/><path fill="#397D0E" d="M410.707 278.349s-7.35 1.576-9.981 1.513c-2.632-.063-3.876 12.148 3.285 12.274 7.161.126 6.696-13.787 6.696-13.787Z"/><path fill="#4F9522" d="M402.364 292.79c.851-2.758 7.721-22.586 16.434-22.846 8.713-.26 11.99 7.09 11.99 7.09s17.86 1.181 14.441 15.756c-6.303 6.168-42.865 0-42.865 0Z"/><path fill="#2D6309" d="M414.662 293.018c1.119-1.772 5.846-12.116 14.378-13.424.394-.134-4.136 5.578-7.154 13.653-2.032 1.441-7.224-.229-7.224-.229Z"/><path fill="#0B0F14" d="m390.382 293.767-18.837 41.398c-1.032 2.261.623 4.829 3.104 4.829h45.047a6.371 6.371 0 0 0 5.61-3.356l21.798-40.752c1.269-2.364-.449-5.223-3.127-5.223h-48.758a5.316 5.316 0 0 0-4.837 3.112v-.008Z"/><path fill="#4F9522" d="M351.425 277.365s-8.8 25.997-7.649 29.148c1.15 3.151 31.441-1.773 31.441-1.773s4.372-5.215 6.05-6.79c1.678-1.576 6.894-.197 7.288.488.394.685-1.773 6.208-1.773 6.208s15.165-1.087 15.559.693c.394 1.781-2.663 14.48-4.53 16.15-1.867 1.67-9.753 1.875-9.847 2.458-.095.583 7.972 1.379 8.177 2.757.205 1.379-3.545 8.863-6.302 10.635-2.758 1.773-50.719-.394-62.04-5.12-11.321-4.727-4.822-20.782 1.481-32 6.302-11.219 12.802-22.256 15.851-24.816 3.048-2.56 7.429-1.426 6.302 1.969l-.008-.007Z"/><path fill="#6046FF" d="M432.908 305.331h-6.011c-1.284 0-1.694-1.103-.906-2.458.78-1.355 2.474-2.457 3.758-2.457h6.011c1.284 0 1.694 1.102.906 2.457-.78 1.355-2.474 2.458-3.758 2.458Z"/><path fill="#fff" d="M431.024 304.292h-2.647c-.567 0-.74-.639-.402-1.426.347-.788 1.088-1.426 1.655-1.426h2.647c.567 0 .74.638.402 1.426-.347.787-1.088 1.426-1.655 1.426Z"/><path fill="#4F9522" d="M418.279 376.02c-9.044 3.238-17.631 4.884-25.69 5.349l24.02 111.347h50.026s2.103-2.45-2.104-12.164c-2.859-6.601-29.495-66.718-46.26-104.524l.008-.008Zm-68.035 111.961a4.796 4.796 0 0 0 4.797 4.727h47.332l-21.751-111.52c-12.219-1.056-22.965-4.703-31.962-9.201l1.584 115.986v.008Z"/><path fill="#397D0E" d="M343.674 305.347c.283-5.948 7.736-27.982 7.736-27.982 1.127-3.396-3.246-4.53-6.303-1.97-3.056 2.561-9.548 13.59-15.85 24.816-3.829 6.814-7.713 15.401-7.658 22.16 5.05-9.611 14.362-14.527 22.075-17.024ZM371.6 416.111s-.023-.047-.039-.047c-.158.023-.323.055-.481.079-.953.157-1.165 3.875-.882 3.836 1.119-.142 2.49-.039 3.687.41-.039.008-.071.023-.087.023-.945.26-1.922.426-2.899.512-1.725.15-3.395-.015-5.057-.393a21.412 21.412 0 0 1 2.371-3.073c.536-.575.74-1.528.851-2.292.023-.134.094-1.82-.237-1.466a24.197 24.197 0 0 0-4.608 7.02c-.182.409-1.166 3.135-.442 3.348 2.718.795 5.531.992 8.32.386 1.544-.339 3.86-.804 4.719-2.222 2.324-3.836-1.702-6.286-5.208-6.129l-.008.008Zm56.085-3.852c-.576-.591-1.923-.607-2.655-.725a180.149 180.149 0 0 0-4.231-.654c-.733-.102-1.457 3.758-.882 3.836.52.079 2.316.174 3.954.426-.724.205-1.441.386-2.056.567-1.749.528-3.498 1.056-5.254 1.584a15.94 15.94 0 0 1 1.331-4.223c.315-.67.859-1.969.63-2.718-.157-.496-.228-.977-.622-.142-1.497 3.167-2.379 6.492-2.702 9.982 0 .031-.079 1.11.165 1.04 2.631-.788 5.278-1.537 7.894-2.38 1.662-.535 3.498-1.142 4.293-2.828.45-.953.985-2.891.142-3.758l-.007-.007Zm-52.428-208.553c-.339.528 13.881-4.428 25.903 0-3.451-7.973-20.286-8.76-25.903 0Z"/><path fill="#6A808D" d="M698.305 41.153c-4.664-3.617-9.824-8.24-9.273-10.66.536-2.37 8.784-3.024 16.15-3.143C715.574 7.246 726.5-11.37 725.114-12 617.972 8.483 608.778 70.718 608.778 70.718s84.296 11.817 80.885 6.303c-5.074-3.348.504-18.773 8.634-35.868h.008Z"/><path fill="#576C75" d="M591.973 258.56s-51.499-10.817-66.239 58.352c1.584 10.667 97.208 13.054 110.601-39.492-10.218-11.037-29.637-27.25-44.362-18.86Zm97.689-181.54c-4.017-2.646-1.355-12.864 3.963-25.484-22.177-13.747-50.79-15.37-66.365-15.047-16.118 18.355-18.474 34.23-18.474 34.23s84.296 11.816 80.884 6.302h-.008Z"/><path fill="#6A808D" d="M613.993 279.295s-5.909 1.591-10.636-9.966c-44.905 22.712-83.901 1.639-93.355-1.41-9.454-3.049-32.844-4.317-44.937-16.047-2.725-9.068 22.485-46.291 22.485-46.291s-21.665-86.547 45.692-137.116c67.358-50.568 190.666-34.418 216.396 97.529 25.729 131.956-52.003 245.225-60.929 257.916-8.926 12.691 21.01 43.021 34.009 51.687 12.999 8.666 39.099 1.182 39.099 5.515 0 3.765-9.918 9.327-14.834 10.966-.733.244-1.355.402-1.82.457-3.545.394-152.441 0-152.441 0s-17.726-.788-19.301-9.848c-1.182-5.908 15.362 2.364 48.056-23.24 32.694-25.603 29.503-42.856 29.937-50.812 1.969-35.845-21.665-54.256-37.421-129.34Z"/><path fill="#9BAFBE" d="M718.708 492.708c-21.728-12.62-51.791-33.655-43.274-49.41 12.998-24.036 35.451-70.894 25.603-158.363-9.847-87.461-71.296-128.394-141.49-64.552-53.508 12.006-76.339 27.636-85.887 37.46 12.463 6.342 28.81 7.642 36.334 10.076 9.453 3.057 48.45 24.122 93.355 1.41 4.727 11.557 10.636 9.966 10.636 9.966 15.756 75.092 39.39 93.495 37.42 129.34-.362 6.523 1.726 19.316-15.582 37.845-8.068 17.229-25.423 34.356-39.706 46.063 15.953.039 84.193.204 122.583.157l.008.008Z"/><path fill="#576C75" d="M689.181 231.176s-20.846 34.261 33.734 90.006c8.886 6.105 39.65-64.087 10.281-109.661-15.039-.032-40.139 3.159-44.015 19.655Zm-148.707 3.246c17.917 0 32.442-14.525 32.442-32.441 0-17.917-14.525-32.442-32.442-32.442s-32.442 14.525-32.442 32.442c0 17.916 14.525 32.441 32.442 32.441Z"/><path fill="#F5F2F9" d="M538.82 229.538c17.003 0 30.787-13.784 30.787-30.787 0-17.004-13.784-30.787-30.787-30.787-17.004 0-30.788 13.783-30.788 30.787 0 17.003 13.784 30.787 30.788 30.787Z"/><path fill="#232A32" d="M528.5 223.078c5.43 0 9.832-4.402 9.832-9.832 0-5.43-4.402-9.832-9.832-9.832-5.43 0-9.832 4.402-9.832 9.832 0 5.43 4.402 9.832 9.832 9.832Z"/><path fill="#4C2634" d="M518.668 255.094c.788-.473 53.177-35.955 78.19-41.848 3.742 1.985 11.62 46.354-21.665 54.003-33.285 7.65-56.525-12.155-56.525-12.155Z"/><path fill="#D66B92" d="M597.843 214.656c-6.263 3.75-20.743 15.992-6.633 43.628 12.62-13.857 9.54-37.648 6.633-43.628Z"/><path fill="#F5F2F9" d="M596.913 213.246c-19.577 4.616-55.927 27.352-71.179 37.239 8.556 2.489 23.8 6.539 26.471 4.609 3.742-2.71-.394-11.739-.394-11.739s15.362 8.95 18.513 5.373c3.152-3.576 0-16.646 0-16.646s13.196 9.848 17.726 6.925c4.53-2.923 3.151-16.048 3.151-16.048s4.522 3.057 9.241 5.003c-.331-7.902-2.19-14.007-3.529-14.716Z"/><path fill="#6A808D" d="M606.115 269.014c-1.009-.646 29.936 6.814 71.296-32.544-23.24 51.238-55.666 42.565-71.296 32.544Z"/></g><defs><clipPath id="a"><path fill="#fff" d="M0 0h860v480H0z"/></clipPath></defs></svg>