<svg xmlns="http://www.w3.org/2000/svg" fill="none" viewBox="0 0 860 480"><g clip-path="url(#a)"><path fill="#29313A" d="M0 0h860v480H0z"/><path fill="#1E242C" d="M1295 278.25c0 298.924-242.33 541.25-541.25 541.25-298.924 0-541.25-242.326-541.25-541.25S454.826-263 753.75-263C1052.67-263 1295-20.674 1295 278.25Z"/><path fill="#0B0F14" d="M1046.5 174.5c0 192.747-156.253 349-349 349s-349-156.253-349-349 156.253-349 349-349 349 156.253 349 349Z"/><circle cx="112" cy="107" r="70" fill="#1E242C"/><path fill="#343D48" d="M112 37a69.998 69.998 0 0 1 70 70 69.995 69.995 0 0 1-9.378 35L112 107V37Z"/><rect width="52" height="170" x="50" y="263" fill="#343D48" rx="9"/><rect width="52" height="74" x="119" y="359" fill="#343D48" rx="9"/><rect width="51" height="74" x="327" y="359" fill="#343D48" rx="9"/><rect width="52" height="117" x="257" y="316" fill="#343D48" rx="9"/><rect width="52" height="235" x="188" y="198" fill="#343D48" rx="9"/><rect width="52" height="117" x="-19" y="316" fill="#343D48" rx="9"/><path fill="#397D0E" d="M334.721 380.944s49.719 38.278 95.187-9.985c11.28 1.66 28.162 47.277 27.436 54.628-34.076 47.714-121.423 13.691-121.423 13.691l-1.2-58.334Z"/><path fill="#813439" d="M351.952 404.468s-17.462-73.499-111.504-60.304c-101.519 14.242-128.568 158.207-94.454 196.067h161.434l44.524-135.763Z"/><path fill="#397D0E" d="M212.56 540.219h-39.915s-3.53-73.14 31.283-132.554c32.743-43.632 53.536-51.524 53.536-51.524s2.282-27.475 1.97-39.917c3.431 4.177 42.098 9.163 42.098 9.163s-6.449 31.128-4.054 38.833c2.395 7.704 26.094 35.142 26.094 35.142L212.56 540.231v-.012Z"/><path fill="#A75156" d="M192.827 540.231h162.819s24.202-163.511-56.501-171.035c-80.704-7.525-106.942 148.399-106.318 171.035Z"/><path fill="#813439" d="m211.419 450.838-1.371 6.791s12.415 68.63 51.682 67.381c39.266-1.248 75.104-52.739 75.104-52.739s19.595-3.121 20.181-18c.586-14.879-47.194-51.278-47.194-51.278l-43.629 22.88c-14.335-13.943-22.575-23.492-22.575-23.492l-32.21 48.445.012.012Z"/><path fill="#813439" d="M203.965 479.233c58.47-3.414 112.458 1.988 155.081 9.304 0-4.189-.049-8.504-.199-12.893-48.86-4.29-107.28-6.553-151.733-7.379a364.956 364.956 0 0 0-3.149 10.968Zm33.169-76.465c-2.38 3.328-4.647 6.833-6.814 10.452 48.009-.772 89.968 6.137 122.647 14.501-1.867-7.668-4.246-15.007-7.227-21.764-35.259-3.708-75.665-4.037-108.593-3.189h-.013Z"/><path fill="#0063A2" d="M481.694 305.146s13.537 28.557 14.849 39.5c-.123 5.855 30.764-3.095 30.764-3.095s-7.704-33.063-7.208-40.899c-2.267-5.521-38.405 4.506-38.405 4.506v-.012Z"/><path fill="#FFAD00" d="M533.762 153.141s-7.843-11.073-15.973-6.596c-8.118 4.464 3.092 84.532 29.241 98.523 6.647 1.895 10.724-5.325 8.754-15.101 10.637-7.93 10.836-25.613 2.831-50.128-9.016-27.583-24.865-26.698-24.865-26.698h.012Z"/><path fill="#DB7E04" d="M559.177 226.7c-1.222-32.284-16.398-61.862-23.031-73.309-1.472-.287-2.37-.237-2.37-.237s-3.616-5.1-8.479-6.971c22.458 32.16 25.176 76.677 24.939 99.085 4.689-.861 7.208-7.195 5.574-15.288a18.578 18.578 0 0 0 3.367-3.267v-.013Z"/><path fill="#FFAD00" d="M403.479 139.761s-9.926 8.292-5.487 16.223c4.427 7.931 77.936-6.534 89.87-33.244 1.496-6.721-5.325-10.5-14.278-8.13-7.719-10.3-24.067-9.789-46.388-.786-25.138 10.138-23.717 25.925-23.717 25.925v.012Z"/><path fill="#DB7E04" d="M470.442 111.367c-29.765 2.544-56.5 18.917-66.825 26-.212 1.484-.137 2.369-.137 2.369s-4.576 3.828-6.123 8.766c28.855-23.755 69.856-28.281 90.555-28.954-.972-4.652-6.908-6.909-14.327-4.951a17.577 17.577 0 0 0-3.143-3.23Z"/><path fill="#00B0F3" d="M386.306 170.899s45.433 125.909 49.167 143.718c4.356 16.246 95.844-5.312 122.295-28.744 10.891-10.31-2.801-22.495-13.07-57.8-10.269-35.304-17.426-95.291-28.006-107.788-10.581-12.497-143.456 20.308-130.386 50.614Z"/><path fill="#0063A2" d="M406.531 157.088c-7.787-3.784-11.712-1.898-18.493 2.593-2.645 3.895-3.44 7.852-1.738 11.772 0 0 45.331 124.986 49.056 142.664.746 2.754 4.012 4.404 9.067 5.148 9.873-55.155-23.523-155.193-37.892-162.19v.013Z"/><path fill="#FFAD00" d="M388.493 203.918s.312-13.552 9.525-14.387c9.213-.847 44.67 71.71 30.851 97.905-4.445 5.294-11.84 1.594-15.687-7.611-13.235-.61-23.282-15.146-30.353-39.909-7.956-27.877 5.652-35.998 5.652-35.998h.012Z"/><path fill="#DB7E04" d="M413.508 279.927c1.164 2.859 2.659 5.19 4.301 6.903 2.5-12.131.54-30.836-6.335-54.82-6.592-22.989-16.543-33.86-20.77-36.405-1.422 3.729-1.507 7.558-1.507 7.558s-1.262.781-2.782 2.658c8.063 3.565 16.494 19.449 21.689 43.773 3.37 15.822 1.642 24.387-.71 28.922a17.68 17.68 0 0 0 6.114 1.411Z"/><path fill="#0063A2" d="M430.566 246.286c2.347-2.208 33.864-11.204 50.884-12.617 2.498-4.1-14.547-10.459-35.288-3.633-20.741 6.838-15.596 16.25-15.596 16.25Zm71.123-18.319c.645-.15 20.58-12.034 36.766-16.277 0-4.044-11.221-5.65-23.224-1.456-12.003 4.194-18.669 18.977-13.555 17.733h.013Z"/><path fill="#F5F2F9" d="M430.593 239.187s28.711-6.455 46.645-8.727c5.699-.832-5.484-70.974-39.477-63.724-33.98 7.238-9.574 72.985-7.181 72.451h.013Zm103.808-30.279s-25.831 9.981-30.96 13.935c-5.129 3.331-25.105-58.66-4.514-71.91 16.815-10.816 34.035 25.326 35.462 57.975h.012Z"/><path fill="#232A32" d="M455.34 208.782c6.158 0 11.15-4.992 11.15-11.149 0-6.158-4.992-11.15-11.15-11.15s-11.15 4.992-11.15 11.15c0 6.157 4.992 11.149 11.15 11.149Zm48.653-13.177c6.158 0 11.15-4.765 11.15-10.643 0-5.877-4.992-10.642-11.15-10.642-6.157 0-11.149 4.765-11.149 10.642 0 5.878 4.992 10.643 11.149 10.643Z"/><path fill="#FFB0CD" d="M445.303 257.435c-.717.212-16.69 16.528-7.269 25.26 9.42 8.732 32.292-12.087 31.476-18.411-3.264-5.626-24.207-6.849-24.207-6.849Z"/><path fill="#E386A8" d="M453.996 260.476s-6.95 3.776-9.806 15.204c9.806-7.967 13.177-13.53 13.177-13.53l-3.371-1.674Z"/><path fill="#0063A2" d="M438.108 258.523s26.505 4.839 41.534 15.128c1.692.149 3.065-6.86 3.065-7.558-4.291-6.934-33.945-11.698-43.753-11.698-.76.149-.846 4.128-.846 4.128Zm-17.231-95.353s10.642-29.243 38.517-14.426c-7.422-23.677-30.655-19.552-38.517 14.426Zm89.198-24.989s-17.793-22.449-31.388 5.731c-1-29.68 20.542-30.387 31.388-5.731Z"/><path fill="#00B0F3" d="M531.962 26.577s-20.851-4.54-24.178-3.504c-3.327 1.035-2.089 42.404-3.753 62.147-1.663 19.744 50.033 34.298 50.033 34.298s95.274 38.04 106.944 130.332c11.67 92.293-87.969 98.529-87.969 98.529l19.175 35.757s128.42-6.024 135.5-123.784c7.092-117.761-120.491-228.761-120.491-228.761S594.503 1.47 590.75-4.777c-3.752-6.249-44.991 11.636-44.991 11.636l-13.797 19.718Z"/><path fill="#0063A2" d="M595.888 344.605c-13.147 3.599-22.97 4.202-22.97 4.202l19.38 35.329s13.147-.604 31.3-5.175c-7.597-12.914-16.56-24.818-27.723-34.343l.013-.013Zm-9.781-207.124a207.46 207.46 0 0 1 16.4 12.512c1.271-.67 2.518-1.353 3.752-2.011 11.587-6.263 22.706-13.474 33.01-21.773 10.243-8.235 19.695-17.483 27.914-27.73a456.076 456.076 0 0 0-11.637-15.384c-7.219 9.678-15.684 18.395-25.026 26.074-8.725 7.173-18.079 13.549-27.791 19.216-4.973 2.897-10.686 6.592-16.634 9.096h.012Zm55.171 181.784c-4.516 4.568-9.496 8.419-14.639 11.69a360.793 360.793 0 0 0 33.807 33.922 143.387 143.387 0 0 0 16.873-10.097 346.695 346.695 0 0 1-36.028-35.502l-.013-.013Zm-.449-125.388a144.406 144.406 0 0 1 8.984 16.932c23.482-4.479 46.512-10.983 67.037-21.597a258.833 258.833 0 0 0-6.541-16.92c-20.963 11.256-45.272 17.476-69.48 21.598v-.013Zm43.943 66.525c-7.756-.384-15.587-1.305-23.204-2.967.44 6.956.251 13.387-.465 19.346 6.901 1.304 13.915 2.122 20.866 2.531 14.644.882 29.364.358 43.957-1.342a159.356 159.356 0 0 0 1.987-17.351c.037-.729.062-1.445.087-2.161-14.329 1.944-28.81 2.66-43.228 1.956v-.012Z"/><path fill="#00B0F3" d="M478.642 384.835s-47.387 93.648-57.421 155.396h-78.392s21.95-127.35 135.675-178.394c7.087 15.688.15 22.998.15 22.998h-.012Z"/><path fill="#0063A2" d="M478.653 363.597a37.539 37.539 0 0 0-.748-1.76 213.637 213.637 0 0 0-21.121 10.969c-3.33 12.953-5.898 26.092-7.619 39.392-.224 1.76-.449 3.545-.673 5.33a236.724 236.724 0 0 0-14.065-29.488 223.417 223.417 0 0 0-14.563 12.383c10.973 20.266 18.728 42.106 22.93 64.801 9.463-24.864 19.75-47.832 26.745-62.818a323.906 323.906 0 0 1 9.089-38.822l.025.013Zm-46.798 134.05a531.587 531.587 0 0 1 6.255-18.54 485.256 485.256 0 0 0-54.132-35.168 271.709 271.709 0 0 0-9.725 15.775 461.06 461.06 0 0 1 57.602 37.946v-.013Zm100.49-470.431s12.399 33.65-.984 51.728c.15 5.252 17.74-8.799 17.74-8.799s20.228 14.977 25.83 14.977c5.602 0 33.761-5.82 33.462-7.08-.299-1.26-29.565-4.696-33.761-10.862-4.195-6.167-5.751-23.924-4.742-27.161 1.008-3.238 30.573-7.415 30.573-7.415s-7.369-7.414-34.034-2.002c-6.274-13.284-13.955-25.554-13.955-25.554L542.341 8.89l-9.984 18.325h-.012Z"/><path fill="#FFAD00" d="m517.351 2.388 26.694 60.382s11.116 10.177 19.001 7.803c4.449-1.52 5.818-17.124 5.818-17.124l-27.037-64.617s-6.612-12.049-18.768-4.749c-10.787 7.124-5.708 18.319-5.708 18.319v-.014Z"/><path fill="#F5F2F9" d="M544.069 63.1s11.105 9.766 18.982 7.487c4.445-1.458 5.813-16.433 5.813-16.433l-2.189-5.04c-3.446-.872-7.822-.716-13.197 1.784-6.195 2.878-9.382 6.016-10.968 8.803l1.559 3.399Z"/><path fill="#232A32" d="M553.354 68.585s9.509 10.314 11.604 9.383c1.487-.666.607-15.128.607-15.128-3.058-6.566-16.065-1.575-12.211 5.723v.022Zm-11.617-79.654s-6.589-12.217-18.702-4.815c-10.749 7.223-5.688 18.574-5.688 18.574l.15.33c.231-3.22 1.868-6.962 7.011-10.085 8.608-5.2 14.841-2.972 19.016.372l-1.801-4.376h.014Z"/><path fill="#00B0F3" d="M449.147 540.231h224.118s-42.807-212.117-138.44-207.721c-92.336 4.233-90.787 114.894-85.678 207.721Z"/><path fill="#0063A2" d="M449.566 540.231s-8.06-95.31 5.771-132.792c9.267-36.233 30.411-29.988 30.411-29.988s-19.9 101.58-21.144 162.78h-15.038Zm75.713-206.794c8.786 30.134 32.851 99.744 27.754 206.794h39.144c-1.707-36.166 3.066-130.291-51.145-207.719a60.737 60.737 0 0 0-5.82 0c-3.44.163-6.742.488-9.933.937v-.012Z"/><path fill="#0063A2" d="M570.237 499.3c26.542-4.024 43.846-35.067 38.651-69.337-5.195-34.27-30.922-58.789-57.464-54.766-26.542 4.024-43.846 35.067-38.651 69.337 5.195 34.27 30.922 58.789 57.464 54.766Z"/><path fill="#6887AF" d="M567.94 487.084c21.061-2.519 35.492-26.657 32.232-53.914-3.26-27.256-22.976-47.31-44.037-44.791-21.061 2.519-35.492 26.656-32.233 53.913 3.26 27.257 22.976 47.311 44.038 44.792Z"/><path fill="#C6EBD8" d="M569.936 481.115c17.797-2.031 29.978-23.363 27.207-47.647-2.771-24.283-19.445-42.323-37.242-40.292-17.797 2.031-29.978 23.363-27.207 47.647 2.771 24.284 19.445 42.323 37.242 40.292Z"/><path fill="#A4DBCF" d="M595.996 433.947c-.623-6.749-2.407-13.005-5.026-18.389-.437 6.648-2.682 13.055-7.123 18.768-4.54 5.826-10.402 10.945-17.313 14.888-6.162 3.514-12.935 5.978-19.97 7.786 5.788 11.665 15.48 19.109 25.758 18.301 15.093-1.189 25.683-19.704 23.662-41.341l.012-.013Z"/><path fill="#fff" d="M579.317 415.591c1.639-7.071-2.928-14.17-10.201-15.855-7.272-1.686-14.497 2.68-16.136 9.751-1.639 7.071 2.928 14.17 10.201 15.856 7.272 1.686 14.496-2.68 16.136-9.752Zm-23.21 28.181c4.09-.929 6.606-5.204 5.619-9.549-.986-4.345-5.101-7.115-9.191-6.187-4.09.929-6.606 5.204-5.62 9.549.986 4.345 5.102 7.115 9.192 6.187Z"/><path fill="#0063A2" d="M460.398 413.638s17.711 15.248 36.551 1.42c18.841-13.828 15.877-28.586 10.262-34.57 11.933 3.143 23.815-2.3 26.038-19.9 2.223-17.599-22.684-28.146-22.684-28.146l-17.007.616c1.294 3.734 2.324 7.191 2.813 9.893-9.068 5.167-16.542 12.056-22.671 20.328-.063.037-.138.062-.201.1-.226.113-.452.214-.678.314-.829.403-1.646.83-2.462 1.245-.98.49-1.972.981-2.939 1.496l-1.47.792c-1.281.679-2.575 1.37-3.831 2.074-.301.164-.578.34-.879.503a226.131 226.131 0 0 0-4.22 2.439c-.051.037-.113.063-.176.1a213.128 213.128 0 0 0-22.509 15.45c-.175.138-.351.276-.515.415a163.779 163.779 0 0 0-3.24 2.602l-.452.377a173.487 173.487 0 0 0-3.279 2.753c-.326.289-.653.566-.979.855-.892.779-1.784 1.546-2.663 2.326a220.764 220.764 0 0 0-3.53 3.23 232.19 232.19 0 0 0-9.948 9.919c2.927 8.246 8.466 23.897 9.948 27.932 2.035 5.557 29.455-4.425 29.455-4.425 14.03-.075 11.291-20.151 11.291-20.151l-.025.013Z"/><path fill="#4F9522" d="M415.66 399.726s5.502 19.75 7.162 28.548c1.659 8.786 22.982 5.808 27.499 0 4.529-5.807 4.679-22.928 4.679-22.928s21.061 11.777 32.703 8.398c11.641-3.38 16.557-16.934 16.594-23.192.038-6.258-10.98-18.773-10.98-18.773s18.304 7.722 21.835 5.419c3.531-2.291 16.969-12.303 12.128-21.903-4.841-9.599-24.143-22.528-57.856-13.98-33.713 8.549-59.766 35.295-53.764 58.411Z"/><path fill="#2D6309" d="m493.309 371.266-6.546-6.27c5.751-1.266 11.149 7.99 11.149 7.99s-3.556-1.218-4.603-1.72Zm-37.982 33.983-13.134-6.922c-.468-.077 4.398 9.503 12.826 13.176.308-5.882.32-6.267.32-6.267l-.012.013Z"/><path fill="#4F9522" d="M295.78 412.314s.935-41.872 1.871-48.192c.936-6.319 38.062-43.726 47.421-55.855 2.708-2.699 24.122 31.51 21.214 36.088.312 1.866-13.727 21.447-13.727 21.447s25.333-4.243 28.428-1.506c3.082 2.749 8.074 34.471 11.194 37.892 3.119 3.421-17.92 10.126-17.92 10.126s-3.295 34.347-9.846 39.634c-6.552 5.287-29.014 10.884-29.014 10.884s-48.669 56.291-75.499 46.961c-26.83-9.33-58.964-74.801-60.835-93.996-1.872-19.207 12.167-35.379 23.71-34.757 11.543.622 42.117 55.607 44.301 54.549 2.183-1.057 28.702-23.275 28.702-23.275Z"/><path fill="#2D6309" d="M392.31 402.338c-6.312.325-14.993 2.823-18.193 1.099-4.019-2.161-7.383-27.906-8.706-39.573a261.712 261.712 0 0 0-13.203 1.786l-17.487 20.199s22.047-3.648 26.457-2.561c4.41 1.087 4.258 49.192 2.671 57.312-1.512 7.795-27.654 6.945-29.078 22.597.063-.062.101-.112.101-.112s22.678-5.622 29.292-10.93c6.614-5.309 9.94-39.799 9.94-39.799s20.624-6.545 18.193-10.018h.013Z"/><path fill="#397D0E" d="M296.64 413.552c.674-.96 2.451 30.078 15.782 45.591-27.66-8.641-20.528-38.756-15.782-45.591Z"/><path fill="#4F9522" d="M224.38 302.461s28.515 40.77 71.108 31.707c42.593-9.062 63.89-65.702 43.714-112.997-20.176-47.295-84.346-52.392-116.011-15.293-31.664 37.099-12.486 79.025 1.189 96.583Z"/><path fill="#2D6309" d="M237.354 316.842c-8.57-7.455-13.352-14.314-13.352-14.314-7.38-9.505-16.374-26.176-18.01-45.35 5.557-19.225 22.303-33.192 42.099-33.192 24.332 0 44.058 21.102 44.058 47.133 0 26.031-19.726 47.133-44.058 47.133-3.704 0-7.301-.489-10.737-1.41Zm95.34-26.971c21.272 0 38.517-19.968 38.517-44.599 0-24.631-17.245-44.599-38.517-44.599-21.273 0-38.517 19.968-38.517 44.599 0 24.631 17.244 44.599 38.517 44.599Z"/><path fill="#F5F2F9" d="M249.072 310.143c22.672 0 41.052-18.833 41.052-42.065 0-23.231-18.38-42.064-41.052-42.064-22.671 0-41.051 18.833-41.051 42.064 0 23.232 18.38 42.065 41.051 42.065Zm87.169-25.34c20.432 0 36.996-18.833 36.996-42.065s-16.564-42.065-36.996-42.065c-20.433 0-36.997 18.833-36.997 42.065s16.564 42.065 36.997 42.065Z"/><path fill="#4C2634" d="M319.662 291.898s-32.016 5.818-34.213 11.49c-2.197 5.671 4.708 25.87 22.285 18.226 17.578-7.643 14.251-30.145 11.928-29.704v-.012Z"/><path fill="#F5F2F9" d="M319.671 291.904s-32.03 5.734-34.228 11.323c-.239.592-.352 1.352-.389 2.209 5.727 2.716 17.019 6.096 23.463-5.179 3.768 2.861 8.792 2.246 12.988.157.263-4.961-.867-8.691-1.834-8.51Z"/><path fill="#232A32" d="M270.865 271.626c6.157 0 11.149-5.219 11.149-11.657 0-6.437-4.992-11.656-11.149-11.656-6.158 0-11.15 5.219-11.15 11.656 0 6.438 4.992 11.657 11.15 11.657Zm50.173-15.204c6.438 0 11.657-5.219 11.657-11.657 0-6.437-5.219-11.656-11.657-11.656-6.437 0-11.656 5.219-11.656 11.656 0 6.438 5.219 11.657 11.656 11.657Z"/><path fill="#397D0E" d="M261.742 218.918s17.063-18.686 39.531-11.163c-7.702-12.67-34.738-14.803-39.531 11.163Z"/><path fill="#FF646D" d="M571.436 70.734a8 8 0 0 0-6.575 14.587l6.575-14.587Zm44.161 92.838c0 47.384-38.612 85.863-86.327 85.863v16c56.477 0 102.327-45.568 102.327-101.863h-16Zm-50.736-78.251c29.953 13.5 50.736 43.482 50.736 78.251h16c0-41.324-24.714-76.86-60.161-92.838l-6.575 14.587ZM529.27 249.435c-14.388 0-27.931-3.494-39.841-9.669l-7.364 14.205c14.133 7.327 30.196 11.464 47.205 11.464v-16Z"/><path stroke="#3AEAB5" stroke-width="16" d="M435.068 163.17c0-26.627 11.33-50.651 29.506-67.662a95.188 95.188 0 0 1 20.161-14.44"/><path stroke="#6046FF" stroke-width="16" d="M435.068 163.17c0 41.962 26.744 77.577 63.858 90.211"/></g><defs><clipPath id="a"><path fill="#fff" d="M0 0h860v480H0z"/></clipPath></defs></svg>