<svg xmlns="http://www.w3.org/2000/svg" fill="none" viewBox="0 0 860 480"><g clip-path="url(#a)"><path fill="#29313A" d="M0 0h860v480H0z"/><path fill="#1E242C" d="M1295 278.25c0 298.924-242.33 541.25-541.25 541.25-298.924 0-541.25-242.326-541.25-541.25S454.826-263 753.75-263C1052.67-263 1295-20.674 1295 278.25Z"/><path fill="#0B0F14" d="M1046.5 174.5c0 192.747-156.253 349-349 349s-349-156.253-349-349 156.253-349 349-349 349 156.253 349 349Z"/><path fill="#FFAD00" d="M698.642 174.008s6.541 110.976 0 149.738H965.72s-5.275-109.526 0-149.385l-267.078-.353Z"/><path fill="#DB7E04" d="M701.943 177.2s137.864-1.718 147.719 4.117c2.107 70.569-2.814 142.417-2.814 142.417H698.642s13.107-87.891 3.301-146.534Z"/><path fill="#FFAD00" d="M798.547 264.714a154.63 154.63 0 0 1-21.099-1.085c-.938-.109-2.449 15.788-.829 15.983a156.427 156.427 0 0 0 21.099 1.084c1.608-.024 1.803-15.995.829-15.982Zm-53.785 26.824c-.049-.597.061-1.998-.5-2.375-2.302-1.584-4.605-3.155-6.895-4.739-.28-.195-.706 2.168-.743 2.327-.304 1.839-.463 3.752-.548 5.615-.085 1.876-.17 3.789-.036 5.665.048.597-.061 1.998.499 2.375 2.302 1.584 4.605 3.155 6.895 4.739.28.195.706-2.168.743-2.327.305-1.839.463-3.752.548-5.615.085-1.876.171-3.789.037-5.665Zm-15.836-71.909v-15.471c0-.694.037-5.75-1.035-2.936-1.194 3.107-.877 7.651-.877 10.915v15.471c0 .694-.037 5.75 1.035 2.936 1.194-3.106.877-7.65.877-10.915Z"/><path fill="#F5F2F9" d="M740.403 174.008s.89 50.823 1.145 51.748c.256.926 3.302-2.399 3.302-2.399s3.557 6.005 4.617 6.663c1.059.658 4.215-4.934 4.215-4.934s1.181 3.07 2.899 2.936c1.717-.134 7.382-6.407 7.382-6.407s1.864 3.484 3.691 4.263c1.828.78 4.812-3.204 4.812-3.204s4.154 4.8 6.53 4.934c2.375.134 5.543-5.336 6.456-5.068.914.268 3.167 3.338 5.007 3.874 1.839.536 5.677-4.531 5.677-4.531s4.617 3.739 5.275 3.069c.657-.67.523-50.81.523-50.81s-55.842-.182-61.555-.134h.024Z" opacity=".51"/><path fill="#fff" d="M751.45 178.808c-.086.085-.159.183-.244.268-1.401 1.693-1.303 4.592-1.474 6.675-.28 3.411-.28 6.774-.134 10.184.292 7.054.633 14.107.962 21.16.122 2.717.743 2.607 1.231.061.475-2.473.633-5.092.645-7.674.207-.524.402-1.328.463-1.694.439-2.375.573-4.824.621-7.26.073.658.342.731 1.158-.865.268-.524.39-.987.56-1.559.792-2.571.816-5.689.902-8.345.195-5.603-.208-7.589-4.703-10.963l.013.012Zm43.831 16.665c-.512-2.973-1.084-6.006-.816-9.039.024-.244.609-10.27-.317-10.16-5.701.646-11.402 1.279-17.14 1.511-5.47.219-11.122-.646-16.47.694-2.595.646-.646 15.934-.828 15.983 5.348-1.34 11-.476 16.47-.695 5.445-.219 10.866-.816 16.287-1.413-.073 5.64.256 11.28 1.231 16.872.536 3.106 1.278-2.315 1.339-2.802.439-3.46.853-7.48.256-10.951h-.012Z"/><path fill="#fff" d="M786.561 205.9c0-.548 0-1.096-.037-1.632 0 .109-.049-2.351-.487-2.376-.085.085-.159.183-.244.268a8.97 8.97 0 0 0-.487 2.035c-.293 1.863-.427 3.752-.548 5.64-.207 3.106-.293 6.371.182 9.465-.036.378.049.706.268.962.098.244.22.207.354-.122.17-.462.304-.925.365-1.413.158-.731.268-1.474.341-2.229a61.06 61.06 0 0 0 .402-6.152c.025-1.462.073-2.972-.109-4.434v-.012Z"/><path fill="#DB7E04" d="m844.288 319.909 121.43-.475-.524-7.894s-73.542-6.249-119.688-3.508c-6.554 1.364-1.218 11.877-1.218 11.877Z"/><path fill="#FFAD00" d="M681 314.427s7.565 126.691 0 170.947h308.363s-6.091-125.046 0-170.545L681 314.427Z"/><path fill="#DB7E04" d="M684.813 318.082s159.182-1.961 170.548 4.702c2.436 80.57-3.253 162.59-3.253 162.59H681s15.13-100.341 3.813-167.292Z"/><path fill="#FFAD00" d="M806.158 354.81a819.604 819.604 0 0 0-78.878 38.263c-1.681.925-1.389 7.431-1.487 9.075-.036.731.342 9.283.525 9.173a819.726 819.726 0 0 1 78.878-38.263c1.62-.682 1.401-7.626 1.486-9.075.037-.67-.146-9.344-.524-9.173Zm-9.819 63.187c-8.15.134-16.263-.28-24.364-1.231-1.085-.134-2.839 18.029-.963 18.249a183.02 183.02 0 0 0 24.364 1.23c1.864-.024 2.083-18.26.95-18.248h.013Zm-62.09 30.613c-.049-.683.061-2.278-.572-2.705l-7.967-5.408c-.317-.22-.817 2.473-.853 2.655-.353 2.096-.524 4.288-.634 6.408-.097 2.144-.207 4.324-.048 6.468.048.683-.061 2.278.572 2.705l7.967 5.408c.317.22.816-2.473.853-2.655.353-2.096.524-4.288.633-6.408.098-2.144.208-4.324.049-6.468Zm-18.286-82.093v-17.664c0-.792.049-6.566-1.206-3.35-1.376 3.545-1.011 8.734-1.011 12.462v17.664c0 .791-.049 6.566 1.206 3.35 1.377-3.545 1.011-8.735 1.011-12.462Z"/><path fill="#F5F2F9" d="M729.216 314.427s1.023 58.022 1.328 59.082c.304 1.06 3.8-2.741 3.8-2.741s4.118 6.846 5.336 7.614c1.218.767 4.873-5.628 4.873-5.628s1.364 3.508 3.35 3.35c1.986-.159 8.528-7.309 8.528-7.309s2.144 3.983 4.263 4.872c2.12.89 5.555-3.654 5.555-3.654s4.8 5.482 7.541 5.628c2.741.146 6.395-6.091 7.455-5.787 1.06.305 3.655 3.801 5.787 4.41 2.131.609 6.554-5.177 6.554-5.177s5.335 4.264 6.091 3.508c.755-.755.609-58.009.609-58.009s-64.48-.207-71.07-.159Z" opacity=".51"/><path fill="#fff" d="M773.804 343.189a29.013 29.013 0 0 1-10.355-.11c-.963-.183-1.45 8.32-1.486 9.075-.098 2.156-.183 4.313-.049 6.469.024.463 0 2.595.572 2.704a28.99 28.99 0 0 0 10.355.11c.56-.098.841-2.583.853-2.631.365-2.108.536-4.301.633-6.432.037-.67.281-9.319-.523-9.173v-.012Zm8.695 7.65c0-.622 0-1.255-.049-1.864 0 .134-.061-2.68-.572-2.704-.098.109-.195.207-.281.316-.28.756-.462 1.523-.56 2.327-.341 2.132-.487 4.288-.633 6.432-.232 3.545-.342 7.272.219 10.805-.049.439.061.804.317 1.096.121.281.255.232.414-.146a7.365 7.365 0 0 0 .426-1.62c.183-.84.305-1.693.39-2.546.268-2.327.439-4.678.475-7.029.025-1.669.085-3.398-.134-5.067h-.012Z"/><path fill="#A34C04" d="m699.845 314.452 265.555.353v-.585s-86.407-2.68-119.14-3.131c-32.733-.45-146.208 1.146-146.208 1.146l-.207 2.229v-.012Z"/><path fill="#0063A2" d="m425.471 199.036-8.228 30.6s9.661 15.473 20.246 16.837c1.468-2.97 20.247-41.197 20.247-41.197l-32.265-6.228v-.012Zm55.597 85.19s-2.693 35.164 54.348 29.328c57.029-5.835 68.203-58.403 68.203-58.403l55.712 54.336s-45.103 81.93-139.585 52.983c-94.471-28.947-68.978-74.778-68.978-74.778l30.3-3.478v.012Z"/><path fill="#00B0F3" d="M598.929 337.544c-10.644-12.619-15.393-28.381-17.392-44.478a73.011 73.011 0 0 1-15.081 11.139c2.346 15.497 7.465 30.508 18.155 42.376 5.073 5.639 11.082 9.938 17.599 13.335a112.573 112.573 0 0 0 15.104-7.881c-6.876-3.652-13.162-8.309-18.385-14.491Z"/><path fill="#0063A2" d="M320.092 344.882s-2.993-115.835 79.17-119.152c82.163-3.316 102.675 66.088 95.164 125.277-24.268 25.099-174.323-6.125-174.323-6.125h-.011Z"/><path fill="#FFAD00" d="M509.691 41.67s11.694 4.656 9.591 13.38c-2.103 8.726-76.085 17.82-94.632-3.316-3.236-5.778 2.253-11.37 11.429-11.925 4.599-11.937 23.539-13.879 47.252-12.365 26.695 1.71 26.348 14.214 26.348 14.214l.012.011Zm24.013 55.999s-3.432-13.914-12.827-12.666c-9.395 1.237-28.012 84.208-8.17 108.07 5.65 4.438 12.191-1.074 13.89-11.44 13.058-3.663 17.426-24.96 18.755-52.128 1.491-30.577-11.648-31.848-11.648-31.848v.012Z"/><path fill="#DB7E04" d="m510.801 105.896 9.302-20.592c.266-.15.52-.254.775-.277 4.934-.647 8.216 2.877 10.227 6.367 3.328 8.967 5.87 24.81 3.64 52.729-1.214 15.312-4.091 27.561-7.685 37.383-.15.046-.312.104-.462.15a24.6 24.6 0 0 1-.532 2.439 95.515 95.515 0 0 1-2.785 6.39c-2.854 4.149-6.899 5.501-10.585 2.6-13.636-16.398-9.118-60.668-1.907-87.2l.012.011Z"/><path fill="#00B0F3" d="M535.311 67.75s-12.261 95.232-13.151 131.644c-3.929 21.852-16.34 21.587-65.742 19.969-49.402-1.618-60.543-15.913-58.012-26.983 2.531-11.059 9.372-109.526 9.626-136.231.763-14.03 64.853-15.913 108.431-4.588 18.235 5.13 19.425 11.74 18.859 16.19h-.011Z"/><path fill="#0063A2" d="M423.714 56.958c6.206 9.371 4.172 122.133-21.69 147.752-3.675-4.045-4.53-8.39-3.629-12.33 2.531-11.059 9.372-109.526 9.626-136.231.058-.971.417-1.884 1.052-2.74 5.663-1.166 11.602-1.016 14.63 3.56l.011-.011Z"/><path fill="#FFAD00" d="M393.587 85.558s5.316-13.22 14.445-10.516c9.13 2.704 16.086 87.674-6.841 108.174-6.206 3.502-11.903-2.97-12.157-13.485-12.411-5.663-13.786-27.411-11.359-54.498 2.738-30.484 15.912-29.675 15.912-29.675Z"/><path fill="#DB7E04" d="M389.034 169.708c-2.693-1.225-4.865-3.224-6.598-5.859 5.997-3.686 11.093-15.635 11.405-40.815.266-21.494-2.207-31.49-4.576-36.135 2.462-1.468 4.322-1.364 4.322-1.364s.959-2.38 2.762-4.911c3.906 6.783 8.378 22.372 6.102 51.469-2.138 27.48-8.332 39.348-12.4 44.294-.601-1.953-.971-4.195-1.029-6.668l.012-.011Zm50.05-134.591c7.327-1.11 16.826-1.826 28.994-1.618 11.29.197 28.278.948 40.608 4.646 1.052 2.022 1.005 3.524 1.005 3.524s6.876 2.75 9.13 7.962c-5.224-3.744-18.767-10.088-51.124-10.747-17.369-.358-28.902.543-36.517 1.791 1.467-.45 3.12-.762 4.911-.866.682-1.78 1.699-3.34 2.993-4.703v.011Z"/><path fill="#F5F2F9" d="M444.723 161.942s26.197 14.248 49.691 5.778c-1.93 8.667-2.508 17.334-2.508 17.334s-25.804 19.263-50.072-11.556a280.362 280.362 0 0 0 2.889-11.556Zm-22.719-22.095s15.381 14.156 44.919 8.032c3.848-2.3 13.717-57.513-11.603-62.529-25.319-5.015-33.385 36.332-33.316 54.486v.011Zm62.588 8.806s22.534 10.597 37.753 2.115c4.241-25.62 7.708-57.78-13.289-57.78-19.657 0-24.846 51.042-24.464 55.665Z"/><path fill="#232A32" d="M453.044 145.417a8.459 8.459 0 1 0 0-16.917 8.459 8.459 0 1 0 0 16.917Zm49.829 4.761a8.46 8.46 0 1 0 0-16.917 8.46 8.46 0 0 0 0 16.917Z"/><path fill="#D3CCE0" d="M449.808 164.276a762.498 762.498 0 0 0-3.501 14.306 51.513 51.513 0 0 0 4.911 4.438 746.146 746.146 0 0 1 4.033-16.687 85.908 85.908 0 0 1-5.431-2.045l-.012-.012Zm33.94 5.824a440.637 440.637 0 0 0-2.67 19.795 35.89 35.89 0 0 0 6.044-2.149 460.368 460.368 0 0 1 2.635-18.663c-1.999.474-4.01.809-6.009 1.017Zm-8.932 20.812a1025.13 1025.13 0 0 1 2.588-20.534 58.95 58.95 0 0 1-5.778-.359 1053.395 1053.395 0 0 0-2.6 20.743 32.6 32.6 0 0 0 5.778.15h.012Zm-9.013-21.771a77.645 77.645 0 0 1-5.628-1.317c-1.387 6.228-2.496 12.515-3.594 18.801a35.718 35.718 0 0 0 5.431 2.485c1.167-6.68 2.323-13.359 3.791-19.98v.011Z"/><path fill="#0063A2" d="M443.141 72.477s17.276-8.667 28.936 3.467c1.976-14.584-19.403-22.823-28.936-3.467Zm55.606 6.495s8.528-8.228 19.206 1.016c-1.595-15.461-16.756-16.617-19.206-1.016Z"/><path fill="#232A32" d="m619.209 268.232 9.568 75.113a8.704 8.704 0 0 0 9.384 7.569l6.298-.543c5.212-.451 8.852-5.362 7.766-10.481l-15.867-74.57c-.913-4.31-4.923-7.257-9.314-6.852a8.694 8.694 0 0 0-7.835 9.764Z"/><path fill="#00B0F3" d="M601.758 242.636c.128-.578-19.795 6.078-20.385 11.279-.589 5.2 6.148 31.085 6.322 31.79.173.705 18.374-1.179 18.374-1.179s.289 24.984 4.911 27.595c4.622 2.612 50.708 3.513 52.58-4.46 1.872-7.974-4.183-29.375-4.183-29.375s3.755-1.41 3.906-10.077c.15-8.667-9.731-34.055-14.261-35.881-4.53-1.826-47.264 10.308-47.264 10.308Z"/><path fill="#0063A2" d="M659.331 278.286c-17.334 2.276-33.652.323-35.385-2.057-1.733-2.381-10.262-35.777-10.262-35.777s-8.378 2.473-7.65 3.051c.717.566 5.489 39.151 5.489 39.151l-5.489 1.872s.289 24.984 4.911 27.595c1.075.601 4.426 1.121 8.922 1.445-1.537-7.893-2.797-23.62-1.26-25.862 1.872-2.75 28.312-4.045 40.735-9.418h-.011Z"/><path fill="#A34C04" d="M501.741 311.197s70.295-.959 72.422 0c2.126.959 33.709 23.111 33.709 23.111s-69.336 20.997-115.179 6.738c-45.843-14.249 9.048-29.849 9.048-29.849Z"/><path fill="#DB7E04" d="M485.411 337.14s48.397-22.858 50.176-27.861c-4.379-1.156-177.061-.509-177.061-.509l-43.173 25.169s101.935 24.14 170.07 3.212l-.012-.011Z"/><path fill="#FFAD00" d="M315.342 333.927s7.176 120.18 0 162.163h292.517s-5.778-118.621 0-161.782l-292.517-.381Z"/><path fill="#DB7E04" d="M318.959 337.394s151.002-1.861 161.784 4.46c2.311 76.431-3.085 154.236-3.085 154.236H315.342s14.352-95.185 3.617-158.696Zm255.4 36.297c-.671-1.075-3.767-7.13-5.397-6.841-6.922 1.236-13.844 2.461-20.755 3.697-.624.116 3.456 7.327 3.779 7.858.67 1.075 3.768 7.13 5.397 6.841 6.922-1.236 13.844-2.461 20.755-3.697.624-.116-3.456-7.327-3.779-7.858Zm-53.84 74.927a103.915 103.915 0 0 1-13.994 6.044c-.786.277 3.432 7.292 3.779 7.858.543.867 4.056 7.315 5.397 6.841a104.153 104.153 0 0 0 13.994-6.044c.867-.45-7.535-15.554-9.187-14.699h.011Z"/><path fill="#FFAD00" d="M388.931 350.417c-9.395 7.916-18.49 16.167-27.214 24.822a436.521 436.521 0 0 0-12.458 12.85c-2.438 2.623-9.036 7.511-8.956 11.163.058 2.612 3.144 6.39 4.461 8.424 1.086 1.687 2.739 5.247 4.773 5.882.3.208.543.162.751-.15.115-.439.034-.855-.22-1.26-.023-.069-.057-.138-.081-.208.948-1.617 3.317-3.524 4.184-4.495a410.562 410.562 0 0 1 5.708-6.194 451.936 451.936 0 0 1 12.515-12.792c8.263-8.112 16.861-15.878 25.724-23.343 1.641-1.387-8.678-15.126-9.187-14.699Zm20.546 41.382a44.881 44.881 0 0 1-14.399 4.252c-.543.07 3.444 7.315 3.779 7.858 1.086 1.722 2.207 3.455 3.49 5.05.37.462 1.248 1.872 1.918 1.791a44.881 44.881 0 0 0 14.399-4.252c.74-.359-7.384-15.578-9.187-14.699Zm47.01 72.535c-.948-1.514-3.316-6.644-5.396-6.841-8.032-.786-15.266-3.802-21.518-8.909-.797-.647 1.93 5.281 2.219 5.754 1.687 2.901 3.559 6.518 6.217 8.69 6.425 5.258 14.006 8.367 22.268 9.176.208.023-3.409-7.246-3.778-7.858l-.012-.012Z"/><path fill="#F5F2F9" d="M365.564 333.927s-.289 80.694 1.155 81.087c1.445.393 9.21-4.252 9.21-4.252l8.991 4.275s4.622-5.165 5.489-4.275c.867.889 6.934 9.256 9.245 8.678 2.311-.578 9.534-6.321 9.534-6.321s1.721 1.213 3.166 1.895c1.444.682 10.412-5.685 10.412-5.685s9.73 7.638 10.215 7.291c.486-.346-2.126-82.531-2.126-82.531s198.972-86.16 198.972-87.605l-55.932-1.745s-206.61 87.755-208.343 89.2l.012-.012Z" opacity=".51"/><path fill="#fff" d="M371.204 334.066s48.824-.578 56.763 1.156c-21.818 10.538-63.119 2.022-56.763-1.156Zm5.569 50.938c-2.149-12.4.486-25.388 0-37.95-.115-3.05-.728-2.692-1.352-.069-.913 3.86-.797 8.297-.647 12.238.532 13.647-2.115 27.04.254 40.676.59 3.363 1.399-2.508 1.468-3.039.474-3.744.936-8.089.277-11.856Zm41.163-25.019c-.185-1.791-.416-3.605-.613-5.419.024-1.26.024-2.508 0-3.721-.011-.878-.312-6.356-1.144-3.178-2.311 8.875-.913 18.246 0 27.214.359 3.443 1.422-2.612 1.468-3.039.439-3.906.682-7.939.277-11.857h.012Z"/><path fill="#D3CCE0" d="M574.73 185.816c-11.914 0-21.575 13.197-21.575 29.467 0 16.271 9.661 29.468 21.575 29.468l55.1 1.722.751-58.912-55.851-1.745Z"/><path fill="#F5F2F9" d="M630.591 246.484c11.915 0 21.575-13.193 21.575-29.467s-9.66-29.467-21.575-29.467c-11.916 0-21.575 13.193-21.575 29.467s9.659 29.467 21.575 29.467Z"/><path fill="#232A32" d="M634.752 224.39c2.713 0 4.911-3.094 4.911-6.911 0-3.816-2.198-6.91-4.911-6.91-2.712 0-4.911 3.094-4.911 6.91 0 3.817 2.199 6.911 4.911 6.911Z"/><path fill="#fff" d="M589.673 198.897a275.809 275.809 0 0 1-8.066 3.051c.092-1.317-.277-3.975.82-5.015-.081.081 1.156-1.005.15-.717-10.134 2.866-19.899 8.506-26.012 14.48-1.826 1.78 2.646-.474 3.085-.705 2.843-1.444 6.275-3.201 8.321-5.188.115-.116.254-.232.37-.347.67-.243 1.409-.52 1.929-.705-1.155 1.745-.936 3.767-1.132 5.697.439.023.82-.069 1.167-.277 3.12-1.11 6.194-2.265 9.233-3.479 3.224-1.282 6.148-3.085 8.76-4.865.577-.393 4.125-3.016 1.398-1.93h-.023Zm7.812-1.213c-.705-.034-2.889 1.237-3.236 1.422-2.9 1.513-6.113 3.201-8.32 5.188-1.953 1.757-3.502 3.629-4.507 5.709-.266.554.867.069 1.109-.023 1.41-.532 2.785-1.306 4.01-1.988 1.641-.913 3.259-1.861 4.75-2.877.797-.544 2.149-1.237 2.496-1.953a15.416 15.416 0 0 1 3.548-4.75c.404-.37.878-.682.15-.716v-.012Zm10.725 1.641c-1.41.531-2.785 1.306-4.01 1.988-1.641.912-3.259 1.86-4.75 2.877-.889.601-1.872 1.213-2.496 1.953-.393.462-.82.901-1.236 1.363-.046.058-.07.081-.081.081-.081.081-.162.151-.243.231-.242.232-.497.463-.751.682-.185.162-1.017.821-.15.717a7.94 7.94 0 0 0 1.329-.509 24.112 24.112 0 0 0 1.907-.913 63.26 63.26 0 0 0 4.865-2.785c1.201-.762 2.461-1.525 3.443-2.403a35.201 35.201 0 0 0 3.271-3.317c.531-.624-1.225.07-1.11.023l.012.012Zm-37.177-2.311c-2.045.647-3.825 1.618-5.547 2.577a67.36 67.36 0 0 0-4.876 2.958c-.821.555-1.676 1.121-2.358 1.757-.312.161-.485.369-.508.601-.104.173.011.208.358.115.474-.139.913-.3 1.329-.508.659-.278 1.294-.59 1.907-.913a70.402 70.402 0 0 0 2.75-1.514 71.05 71.05 0 0 0 3.34-1.953c1.19-.751 2.496-1.514 3.443-2.404.093-.092 1.052-1.005.151-.716h.011Zm-1.63 54.89c-2.97-.196-8.32 3.513-10.805 4.888a176.541 176.541 0 0 1-22.222 10.4c-3.732 1.445-7.742 3.028-11.013 5.374-2.057 1.467-2.6 2.45.59 1.213a328.153 328.153 0 0 0 41.232-19.333c1.236-.693 5.061-2.346 2.218-2.53v-.012Zm17.98.797c-.867-.3-3.178.959-3.825 1.237-2.057.855-4.091 1.779-6.044 2.842-3.294 1.803-6.587 3.594-9.881 5.397-1.479.809-3.12 1.618-4.46 2.669-.543.428-1.179.798-.463 1.04.867.301 3.178-.959 3.825-1.236 2.057-.855 4.091-1.78 6.044-2.843 3.294-1.802 6.587-3.594 9.881-5.396 1.479-.809 3.12-1.618 4.46-2.67.543-.427 1.179-.797.463-1.04Zm-38.505 23.528-.89.173a28.8 28.8 0 0 0-2.947 1.052c-1.317.566-2.623 1.121-3.94 1.687-2.046.878-4.068 1.803-6.044 2.843-1.456.774-3.166 1.618-4.461 2.669-.242.197-1.421 1.017-.462 1.04l.89-.173a28.8 28.8 0 0 0 2.947-1.052c1.317-.566 2.623-1.121 3.94-1.687 2.046-.878 4.068-1.803 6.044-2.843 1.456-.774 3.166-1.617 4.461-2.669.242-.197 1.421-1.017.462-1.04Z"/><path fill="#0063A2" d="M355.604 280.482c0-.44 17.045-20.94 19.934-31.34 2.889-10.4-10.4-21.817-27.295-10.111-16.895 11.706-52.938 46.027-57.457 54.289 12.238 2.196 64.818-12.827 64.818-12.827v-.011Z"/><path fill="#00B0F3" d="M351.987 273.259c-1.445 0-59.225 1.733-63.558 26.001-4.334 24.267 24.845 27.734 58.357 28.023 33.513.288 87.248-1.445 89.56-1.445 2.311 0 25.538 8.956 30.392 15.889 6.876 1.445 27.965-9.533 27.677-15.022-.289-5.489-14.654-23.979-21.194-26.579 22.638-3.466 33.039 4.912 38.239 4.912 5.778-.289 13.578-17.912 11.556-24.845-2.023-6.934-15.89-16.756-54.891-14.734 5.2-7.8 4.044-14.734 3.755-15.6-1.444-3.467-16.756-7.223-19.356-7.223-2.6 0-6.356 19.356-15.023 25.134-18.489 1.733-85.514 5.489-85.514 5.489Z"/><path fill="#0063A2" d="M412.922 269.665a107.488 107.488 0 0 0-1.41 3.317c-3.629 8.99-6.391 18.408-8.043 27.965a134.912 134.912 0 0 0-1.953 25.838c6.321-.138 12.203-.277 17.265-.416a121.737 121.737 0 0 1 2.877-28.08 114.828 114.828 0 0 1 9.153-26.012 82.046 82.046 0 0 1 2.172-4.045c-5.235.416-12.284.913-20.061 1.433Zm-33.317 2.069c-10.1.601-18.801 1.098-23.632 1.375-10.481 15.82-16.548 35.222-18.686 54.07 3.097.104 6.264.161 9.465.184 2.53.023 5.165.035 7.892.035 2.566-20.465 10.539-41.474 24.961-55.664Z"/><path fill="#00B0F3" d="M337.427 247.409c-3.71 3.062-7.685 6.506-11.706 10.1 8.678 1.352 16.871 3.339 24.718 7.453 4.033 2.115 7.951 4.391 11.799 6.772 2.322-3.155 4.934-6.83 7.257-10.481-4.484-2.751-9.095-5.351-13.867-7.627-5.917-2.831-11.972-4.773-18.201-6.206v-.011Z"/></g><defs><clipPath id="a"><path fill="#fff" d="M0 0h860v480H0z"/></clipPath></defs></svg>