<svg xmlns="http://www.w3.org/2000/svg" fill="none" viewBox="0 0 860 480"><g clip-path="url(#a)"><path fill="#29313A" d="M0 0h860v480H0z"/><path fill="#232A32" d="M705 56h56c8.837 0 16 7.163 16 16v380h-72V56Zm59 410h72v19c0 11.046-8.954 20-20 20h-52v-39Z"/><path fill="#1E242C" d="M113 49.6c0-8.96 0-13.441 1.744-16.864a16.003 16.003 0 0 1 6.992-6.992C125.159 24 129.639 24 138.6 24h582.8c8.961 0 13.441 0 16.864 1.744a16.003 16.003 0 0 1 6.992 6.992C747 36.16 747 40.64 747 49.6V441H113V49.6Z"/><path fill="#3E4854" d="M42 441h776v21c0 9.941-8.059 18-18 18H60c-9.941 0-18-8.059-18-18v-21Z"/><path fill="#343D48" d="M42 441h776v25H42v-25Z"/><path fill="#F8D146" d="M141 57h578v356H141z"/><rect width="443" height="274" fill="#E1B46B" rx="8" transform="matrix(-1 0 0 1 674 122)"/><path fill="#29313A" d="M372 441h116c0 6.075-4.925 11-11 11h-94c-6.075 0-11-4.925-11-11Z"/><circle cx="430" cy="41" r="5" fill="#0B0F14"/><rect width="444" height="280" x="208" y="95" fill="#F0F0F0" rx="8"/><rect width="444" height="280" x="208" y="95" fill="#E3E3E3" rx="8"/><path fill="#BABDBE" d="M208 103a8 8 0 0 1 8-8h428a8 8 0 0 1 8 8v20H208v-20Z"/><circle cx="222" cy="109" r="4" fill="#FF646D"/><circle cx="234" cy="109" r="4" fill="#D2A123"/><circle cx="246" cy="109" r="4" fill="#31B58D"/><rect width="377" height="24" x="242" y="143" fill="#F6F6F6" rx="6"/><rect width="377" height="68" x="242" y="175" fill="#F6F6F6" rx="6"/><path fill="#ECECEC" d="M546 175h67a6 6 0 0 1 6 6v56a6 6 0 0 1-6 6H504l42-68Z"/><rect width="377" height="112" x="242" y="251" fill="#F6F6F6" rx="6"/><circle cx="601.5" cy="155.5" r="6.5" fill="#D9D9D9"/><circle cx="601.5" cy="155.5" r="2.5" fill="#fff"/><path fill="#6D8DE8" d="M538 166a2 2 0 0 1 2-2h42a2 2 0 0 1 2 2v1h-46v-1Z"/><path fill="#DFE0E0" d="M367 153h127v5H367zm-103 40h158v5H264zm0 11h108v5H264zm123 63h86v5h-86zm62 46h101v5H449zm0 13h63v5h-63zm0 13h77v5h-77zm-113-59h190v9H336z"/><rect width="60" height="14" x="264" y="218" fill="#6D8DE8" rx="2"/><path fill="#fff" d="M280 224h34v2h-34z"/><circle cx="274" cy="225" r="2" fill="#fff"/><path stroke="#DFE0E0" stroke-width="3" d="m428 314 4.4 4 6.6-6m-11 15 4.4 4 6.6-6m-11 15 4.4 4 6.6-6"/><path fill="#F1CC78" d="M566.5 284.5 580 271l19.5 31.5L586 312l-19.5-9.5v-18Z"/><path fill="#93ADF6" d="M290.252 302 280 316.625 311.087 341 322 311.75 311.087 302h-20.835Z"/><path fill="#CD7266" d="m573 363-29-10.5-6.5 10.5H573Z"/><path fill="#fff" d="M556 216.5 528.5 189l-1.5 16 25.5 24.5h20c.833-9.5 8.5-21 19.5-21 14 0 19.5 7.167 21 14.5h6v-34h-51l-12 27.5Z"/><circle cx="256" cy="155" r="5" fill="#FFC93F"/><path fill="#8CA3E3" d="M436.347 209.231h-26.232L436.347 183v26.231Z"/><path fill="#6685D9" d="M436.347 209.231V183l26.231 26.231h-26.231Z"/><path fill="#4066D0" d="M436.347 209.231h26.231l-26.231 26.232v-26.232Z"/><path fill="#6685D9" d="M436.347 209.231v26.232l-26.232-26.232h26.232Z"/><circle cx="415.858" cy="287.287" r="9.713" fill="#4066D0"/><circle cx="458.254" cy="287.287" r="9.713" fill="#4066D0"/><path fill="#8CA3E3" fill-rule="evenodd" d="M378.354 195.265h16.777l21.41 46.224h37.036l19.932-35.904 9.049 5.024-19.952 35.94a10.28 10.28 0 0 1-8.987 5.291h-37.307l-5.858 10.776h61.057v10.35h-61.176c-7.797 0-12.755-8.339-9.032-15.189l6.142-11.299-18.927-40.862h-10.164v-10.351Z" clip-rule="evenodd"/></g><defs><clipPath id="a"><path fill="#fff" d="M0 0h860v480H0z"/></clipPath></defs></svg>