<svg xmlns="http://www.w3.org/2000/svg" fill="none" viewBox="0 0 304 261" width="304" height="260">
    <path fill="#E9AD38"
        d="M130.775 65.246h-3.256c-2.214 0-4.038-2.04-4.038-4.516v-1.02c0-2.477 1.824-4.516 4.038-4.516h3.256v10.052Z" />
    <path fill="#F1CC50"
        d="M304 180.571v-.371c0-.556-.557-1.205-1.485-1.205-2.228 0-3.991 3.615-6.312 4.634 1.021-2.502 4.641-5.375 4.641-8.34 0-1.112-.371-2.41-1.299-2.41-1.578 0-5.012 5.56-7.054 7.784 2.413-5.56.093-7.876-5.94-7.876-1.3 0-4.084.463-4.084 1.853 0 .278.092.463.185.556-1.392 1.39-2.413 6.58-2.784 8.711-4.827 4.819-13.923 6.023-25.71 3.521-19.955-4.355-37.312-16.309-44.087-26.596-1.207-1.76-15.198-32.882-15.476-33.901-5.618-.914-14.588-2.742-24.621-28.001-3.341-.186-6.775-2.595-7.982-5.375-9.281.685-17.258 1.39-19.584 1.39-.557 2.224-2.32 4.077-4.733 4.726-1.021.278-3.709.758-3.709.758-8.205 16.449-30.086 51.632-38.292 62.142-11.787 18.626-57.776 38.48-71.513 24.672-.278-2.224-1.392-7.321-2.784-8.711.186-.185.186-.371.186-.556 0-1.39-2.785-1.853-4.084-1.853-6.126 0-8.354 2.409-5.94 7.877-2.042-2.224-5.384-7.785-7.055-7.785-.928 0-1.299 1.298-1.299 2.41 0 3.058 3.62 5.838 4.64 8.34-2.227-1.019-4.083-4.633-6.31-4.633-.929 0-1.486.648-1.486 1.204v.371c-.092 1.205-.185 3.521 3.435 7.135 5.29 5.283 24.874 12.974 46.129 12.047 19.213-.834 37.126-11.213 41.674-14.456a4.365 4.365 0 0 0-.557 1.39c-.278 1.205 2.785 6.394 3.341 7.599-25.272 5.467-54.903 49.936-18.434 61.816 22.848 5.121 36.924-10.966 65.863-32.625 2.32-1.668 4.084-2.873 5.105-3.151 33.321 20.387 54.575 49.105 81.585 32.249 16.708-10.428 29.051-42.813-27.01-59.123-1.941-6.52-10.461-7.716-16.594-7.716-.464-7.321-.751-16.624.456-23.76 1.971-6.106 9.573-.457 11.962 5.621.371.371.649.834 1.021 1.205 39.446 47.076 93.372 24.928 102.004 15.754 4.084-3.892 3.991-6.116 3.991-7.321Zm-284.387 3.151c-1.113-.834-3.248-2.41-3.99-3.429 1.206-.927 3.062-1.02 4.269-1.205-.186 1.297-.279 3.429-.279 4.634Zm85.947-8.155c5.157-7.513 6.981-10.255 10.172-14.824 1.68 7.338 4.251 23.204 3.191 30.614-3.063-1.297-11.135-5.133-14.291-5.504-4.919-.556-8.075-.278-10.117.556 4.084-3.336 7.983-7.136 11.045-10.842Zm23.576 40.218c-17.051 11.028-29.112 25.833-43.49 23.549-14.38-2.285-3.01-22.53 29.753-33.279 2.692-.371 14.572 7.135 15.871 7.877l-2.134 1.853Zm86.884 23.549c-8.632 4.077-21.171-3.347-47.067-22.622 40.468-15.013 59.217 14.397 47.067 22.622Zm68.767-58.856c0-1.205-.093-3.429-.278-4.633 1.206.185 3.155.278 4.269 1.204-.742 1.02-2.97 2.595-3.991 3.429Z" />
    <path fill="#E9AD38"
        d="M213.741 165.312c-1.48 4.487-7.871 8.071-12.308 10.509-.121-.134-2.874-2.822-3.191-3.366 2.228-2.244 5.529-9.458 10.256-14.91.963 1.079 2.963 5.483 5.243 7.767ZM105.653 175.567c-.556.648-2.035 2.347-2.685 2.996-6.033-2.224-10.165-6.537-12.764-9.595 1.3-1.483 3.198-3.41 4.126-4.892 3.168 7.176 11.87 12.037 11.323 11.491ZM150.432 130.709c-1.207-.742-18.976-12.875-19.997-13.524.835-17.792-.609-10.945-.516-12.15 1.113-.185 3.116-4.962 4.601-5.054 2.039 0 4.081-.393 5.753-1.607-4.884 7.232 3.294 23.865 10.159 32.335Z" />
    <path fill="#74A9F0"
        d="M211.005 153.889c0 4.813-12.763 18.277-19.962 19.546-.742-2.502-1.763-4.911-2.784-7.228-.743 4.356-1.114 9.082-1.114 14.178 0 1.668 0 3.337.093 5.097 0 .464 0 .834.093 1.298 0 .463.093.926.093 1.39-17.874.784-27.351 10.742-41.582 15.568-13.109-6.26-19.662-9.862-32.578-15.198.464.186 1.021.371 1.578.649.093-1.297.278-2.595.464-3.892.371-2.966.743-6.024.743-8.896 0-3.151-.743-5.931-1.393-8.619 0-.092-.092-.185-.092-.37-1.114 3.614-2.228 7.135-4.177 10.749-8.331-2.797-15.624-13.242-16.8-15.197-.278-.464-.557-.927-.742-1.39-.836-1.668-1.485-3.244-1.857-4.912 0-.092 0-.185.093-.278 3.527-3.614 5.57-10.379 7.982-18.163 5.105-16.402 11.509-36.789 35.827-38.272-4.269 15.476 15.542 30.731 15.542 30.731 12.32-5.31 21.311-22.389 19.728-31.658 27.626 7.347 37.199 37.504 40.845 54.867Z" />
    <path fill="#A0C9FF"
        d="M109.35 179.934c1.823.457 3.132-2.591 2.22-3.961-5.073-4.59-16.356-13.738-18.69-21.533-.291-.914-3.588.363-2.22 4.932 2.186 7.306 10.882 18.605 18.69 20.562Z" />
    <path fill="#E0E7F2" d="M203.759 152.121c0 .093 0 .093 0 0h-.185.185Z" />
    <path fill="#E9AD38"
        d="M146.73 223.798c-1.114.371-3.699 1.988-5.926 3.656l-13.22-10.052 3.593-3.47 15.553 9.866ZM172.016 208.279l-10.674 3.707-15.5-8.248c4.92-1.668 7.054-3.151 9.467-4.263a15.133 15.133 0 0 1-1.021-2.131l7.147.741 10.581 10.194Z" />
    <path fill="#E9AD38"
        d="m161.342 211.986 14.944-2.132c7.425-1.019 14.386-4.17 20.141-8.896l5.29-4.355-11.509-2.132-28.866 17.515Z" />
    <path fill="#C32A3E"
        d="M202.553 195.12c0 4.263-15.686 6.765-30.537 13.159-2.32-3.707-8.168-9.73-12.066-13.159 8.539-4.17 18.348-8.789 27.351-8.789 6.683 0 12.374 4.248 14.231 6.565l.092.092c.65.834.929 1.576.929 2.132Z" />
    <path fill="#fff"
        d="M172.713 209.634c1.368 4.569-5.552 5.483-7.749 2.741-3.979-4.965-7.292-7.902-10.941-13.707-3.158-5.027 5.471-7.311 7.294-5.027 4.826 4.819 9.31 9.023 11.396 15.993Z" />
    <path fill="#E9AD38"
        d="M170.995 79.933c5.012-6.024 8.168-14.457 8.168-23.909 0-18.07-11.509-32.712-25.71-32.712-5.29 0-10.117 1.946-14.2 5.375-7.054 5.838-11.695 15.939-11.695 27.337 0 13.474 6.398 25.04 15.578 30.054-.014 3.18-.125 6.466-.893 9.533 3.944 6.311 15.249 8.053 20.697-.497-1.407-2.106-1.846-5.291-2.164-7.737 3.863-1.461 7.329-4.04 10.219-7.444Z" />
    <path fill="#F1CC50"
        d="M179.163 56.024c0 9.452-3.192 17.885-8.262 23.909-4.131 3.428-9.013 5.374-14.365 5.374-14.459 0-26.101-14.641-26.101-32.712 0-9.452 3.192-17.885 8.262-23.908 4.131-3.43 9.013-5.375 14.365-5.375 14.459 0 26.101 14.642 26.101 32.712Z" />
    <path fill="#F1CC50"
        d="M175.449 65.246h3.663c2.491 0 4.542-1.854 4.542-4.106v-.927c0-2.251-2.051-4.105-4.542-4.105h-3.663v9.138Z" />
    <path fill="#684023"
        d="M142.518 23.04c-24.452-7.048-20.758 23.348-14.478 34.438.967-6.303 3.702-18.183 14.137-20.089 1.974 1.853 5.221 3.06 10.534 2.418 15.314-1.854 25.176 6.457 26.383 16.28 0 0 10.842-11.777 4.16-24.102-3.813-7.768-27.808-25.131-40.736-8.945Z" />
    <path fill="#C32A3E"
        d="M124.393 192.548c-3.694 3.893-7.199 9.148-8.809 13.43l-.758.457c-7.862-4.282-14.173-6.735-20.52-8.681-4.167-1.265-11.875-16.008 9.153-13.381 2.747.39 6.536 1.655 11.083 3.601.095.098.189.195.284.195h.095a124.67 124.67 0 0 1 9.472 4.379Z" />
    <path fill="#fff"
        d="M120.29 211.004c-2.735 2.742-8.878-3.406-6.64-6.113 4.053-4.905 6.257-8.748 11.198-13.497 4.277-4.112 9.617 3.196 7.75 5.446-3.739 5.707-7.174 9.019-12.308 14.164Z" />
    <path fill="#A0C9FF"
        d="M212.829 157.088c1.243-2.285-.966-7.671-2.737-4.476-5.751 10.377-9.322 14.784-19.887 19.02-1.367.914.287 4.646 1.655 4.189 9.158-3.059 16.411-10.357 20.969-18.733Z" />
</svg>