<svg xmlns="http://www.w3.org/2000/svg" fill="none" viewBox="0 0 244 220" class="banner-network__image">
    <path fill="#00B0F3" d="M153.94 102.86c.68 0 6.3 1.24 8.56 4.27 2.28 3.04-1.74 9.72 8.56 22 10.3 12.29 32.63 14.15 39.99-5.5-1.6-2.4-4.28-7.1-2.08-9.65 2.2-2.56 10.43-2.77 10.43-2.77l1.94 6.8s-6.16 2.92-1.47 5.95c4.7 3.04 7.02-2.86 3.21-5.28l2.95-7.3s14.44 5.53 5.55 15.8c5.88.5 9.7-2.8 9.7-2.8 3.01 4.08 2.73 10.4 2.73 10.4-4.74 1.52-12.63.68-12.63.68s3.74 3.28 9.36 4.25a20.95 20.95 0 0 1-4.62 8.08c-5.88-.54-13.1-3.64-13.1-3.64s-16.25 18.33-39.11 13.76c-22.87-4.55-29-24.8-29-24.8l-.95-30.25h-.02Z"/>
    <path fill="#0063A2" d="M162.49 107.13c.77 1.03.82 2.48.95 4.43a49.98 49.98 0 0 0 .38 27.66c3.84 12.86 19.15 17.56 30.84 19.25-3.38.31-6.99.2-10.78-.57-22.87-4.57-28.99-24.8-28.99-24.8l-.96-30.26c.67.02 6.29 1.24 8.56 4.28v.01Zm60.58 11.54s7.3 2.74 5.68 11.8c-1.61 9.06-6.42 11.98-10.3 8.75-3.86-3.22-.66-8.47-.66-8.47-6.43-4.05-2.54-12.98 3.54-12.73 0 0-6.16 2.91-1.47 5.95 4.69 3.03 7.02-2.87 3.21-5.3Z"/>
    <path fill="#0063A2" d="M174.38 132.29c.82.67 1.68 1.3 2.58 1.87a31.53 31.53 0 0 0-11.05 14.91 47.68 47.68 0 0 1-1.66-1.54 34.03 34.03 0 0 1 10.13-15.23v-.01Zm20.53 18.13a29.08 29.08 0 0 0 2.86 7.58c-.74.14-1.48.24-2.23.32a34.63 34.63 0 0 1-2.4-20.12 20.4 20.4 0 0 0 2.01-.29 27.2 27.2 0 0 0-.24 12.5ZM111.5 68.47l2.96 20.78h12.95l1.77-20.78H111.5Z"/>
    <path fill="#E88000" d="M108.95 6.57s1-5.58 1.1-5.8c.45-.84 12.99-1.36 14.86.42.41 1.63.78 5.22.78 5.22l-16.75.16h.01Z"/>
    <path fill="#FFAD00" d="M99.57 12.81s-.3-5.65.9-7.57c1.2-1.93 26.93-3.88 33.9-.37 3.65 2.6 3 9.7 3 9.7l-37.8-1.77v.01Z"/>
    <path fill="#E88000" d="M86.33 42.92s-4.3 1.12-4.52 1.4c-.2.27-.55 6.71 1.9 10.55.61.38 4.17 0 4.17 0l-1.56-11.95h.01Z"/>
    <path fill="#FFAD00" d="M94.07 31.15s-8.21.82-8.95 6c-.74 5.3.31 19.36 3.54 23.49 2.48 2.17 9.17 1.14 9.17 1.14l-3.74-30.63h-.02Z"/>
    <path fill="#E88000" d="M152.38 42.92s4.31 1.12 4.52 1.4c.21.27.56 6.71-1.9 10.55-.6.38-4.16 0-4.16 0l1.56-11.95h-.02Z"/>
    <path fill="#FFAD00" d="M144.66 31.15s8.21.82 8.95 6c.74 5.3-.31 19.36-3.54 23.49-2.48 2.17-9.17 1.14-9.17 1.14l3.74-30.63h.02Z"/>
    <path fill="#00B0F3" d="M88.7 17.14c.02.28 5.5 43.95 4.8 53.51.81 6.2 46.94 5.57 49.25 2.64 2.82-12.5 5.31-54.42 4.61-58.25-1.6-5.2-60.5-13.59-58.66 2.1Z"/>
    <path fill="#232A33" d="M107.76 37.38c-2.6 2.87-7 2.9-9.88.35-.6-.54-1.07 1-1.11 1.26-.13.75-.05 1.69.57 2.25a7.98 7.98 0 0 0 11.24-.7c.73-.79.19-4.28-.83-3.16h.01Zm33.44.3a6.96 6.96 0 0 1-9.23-.21c-1.15-1.1-1.74 2.37-.95 3.14 3.16 3 7.7 3.07 11 .24.82-.72.4-4.21-.83-3.17Z"/>
    <path fill="#F5F2F9" d="M105.64 49.69s21.65-1.28 27.8.6c.34 6.02-.93 8.33-4.2 9.54-3.28 1.22-16.05 1.16-21.13-.97-4.44-1.86-2.47-9.19-2.47-9.19v.02Z"/>
    <path fill="#D3CCE0" d="m128.62 49.54-.57 10.62a7.56 7.56 0 0 0 1.8-.55l.52-9.9c-.55-.06-1.13-.12-1.75-.17Zm-18.5-.06-1.77.07.18 9.48c.53.2 1.12.37 1.78.53l-.2-10.08Zm6.14-.18c-.6 0-1.22.03-1.8.04l.03 10.93 1.8.17-.03-11.14Zm7.03 11.3-.21-11.3c-.58 0-1.18-.02-1.77-.04l.2 11.36c.62 0 1.21 0 1.78-.02Z"/>
    <path fill="#0063A2" d="M142.71 73.37C127.2 75.28 96.68 72 96.74 65.69c-.1-5.84-4.29-27.47-7.22-41.88 1.5 12.66 4.54 39.6 4 46.87.8 6.16 46.4 5.56 49.2 2.69Z"/>
    <path fill="#0063A2" d="M111.5 62.5s8.33 1.22 16 .4c-6.2 3.74-14.44 1-16-.4Zm-9.33-33.96s7.27-2.88 11.99.54c-1.2-6.43-9.58-6.24-11.99-.54Zm25.28.56s4.02-3.8 9.92-.73c-2-5.57-9.42-5.7-9.92.72Z"/>
    <path fill="#00B0F3" d="M90.06 102.86c-.68 0-6.3 1.24-8.56 4.27-2.28 3.04 1.74 9.72-8.57 22-10.29 12.29-32.62 14.15-39.98-5.5 1.6-2.4 4.28-7.1 2.08-9.65-2.2-2.56-10.43-2.77-10.43-2.77l-1.94 6.8s6.16 2.92 1.47 5.95c-4.7 3.04-7.02-2.86-3.21-5.28l-2.95-7.3s-14.44 5.53-5.55 15.8c-5.88.5-9.7-2.8-9.7-2.8-2.98 4.07-2.72 10.4-2.72 10.4 4.74 1.5 12.63.66 12.63.66s-3.74 3.29-9.35 4.25a20.9 20.9 0 0 0 4.6 8.09c5.89-.54 13.12-3.64 13.12-3.64s16.25 18.32 39.1 13.76c22.86-4.57 29-24.8 29-24.8l.96-30.26v.02Z"/>
    <path fill="#0063A2" d="M81.5 107.13c-.76 1.03-.81 2.48-.94 4.43a49.99 49.99 0 0 1-.39 27.66c-3.84 12.86-19.14 17.56-30.83 19.25 3.38.31 6.99.2 10.78-.57 22.87-4.57 28.99-24.8 28.99-24.8l.96-30.26c-.67.02-6.29 1.24-8.56 4.28v.01Zm-60.57 11.54s-7.3 2.74-5.68 11.8c1.6 9.05 6.42 11.98 10.29 8.75 3.87-3.22.67-8.47.67-8.47 6.42-4.05 2.54-12.99-3.54-12.73 0 0 6.16 2.91 1.47 5.95-4.68 3.03-7.02-2.87-3.21-5.3Z"/>
    <path fill="#0063A2" d="M69.6 132.29c-.81.67-1.67 1.3-2.57 1.87a31.53 31.53 0 0 1 11.05 14.91c.58-.51 1.13-1.03 1.66-1.54a34.04 34.04 0 0 0-10.13-15.23v-.01Zm-20.53 18.13a29.1 29.1 0 0 1-2.85 7.58c.74.14 1.48.24 2.23.32a34.63 34.63 0 0 0 2.4-20.12c-.68-.06-1.35-.16-2.02-.29a27.2 27.2 0 0 1 .24 12.5Z"/>
    <path fill="#00B0F3" d="m85.99 100.93 3.53 66c14.91 6.02 65.47 3.1 66.67.92.8-6.02.86-64.73.86-64.73s-7.88-19.99-35.74-19.87c-26.97.12-35.32 17.7-35.32 17.7v-.02Z"/>
    <path fill="#0063A2" d="M122.87 128.08c7.21 0 13.06-6.65 13.06-14.85s-5.85-14.86-13.06-14.86c-7.22 0-13.07 6.65-13.07 14.86 0 8.2 5.85 14.85 13.07 14.85Z"/>
    <path fill="#0063A2" d="M121.35 83.24c-1.1 0-2.17.04-3.2.1 1.54 12.4 5.26 47.58 3.49 87.16h3.66c-.25-10.17-1.47-62.79-.17-87.14a50.44 50.44 0 0 0-3.78-.1v-.02Z"/>
    <path fill="#6988B0" d="M122.86 124.7c5.17 0 9.36-5.14 9.36-11.47 0-6.34-4.19-11.47-9.36-11.47-5.16 0-9.35 5.13-9.35 11.47 0 6.33 4.19 11.46 9.35 11.46Z"/>
    <path fill="#C6EBD8" d="M130.86 113.23c0 5.73-3.58 10.38-8 10.38-4.4 0-7.99-4.64-7.99-10.38 0-5.74 3.58-10.39 8-10.39 4.4 0 7.99 4.65 7.99 10.39Z"/>
    <path fill="#A4DBCF" d="M121.14 116.44c-2.54-2.19-3.39-5.2-3.25-8.23a9.66 9.66 0 0 0-1.75 5.69c0 4.55 2.83 8.24 6.32 8.24 2 0 3.79-1.22 4.95-3.12a11.32 11.32 0 0 1-6.27-2.56v-.02Z"/>
    <path fill="#fff" d="M127.05 108.2c0 1.71-1.24 3.1-2.77 3.1s-2.78-1.39-2.78-3.1c0-1.72 1.25-3.1 2.78-3.1 1.53 0 2.77 1.38 2.77 3.1Zm.35 7.91c.99 0 1.78-.96 1.78-2.14 0-1.2-.8-2.16-1.77-2.16-.98 0-1.77.97-1.77 2.16 0 1.18.8 2.14 1.77 2.14Z"/>
    <path fill="#0063A2" d="m89.42 164.28.15 2.64c14.92 6.02 65.47 3.1 66.67.91.2-1.49.36-6.22.48-12.5-6.75 2.4-15.12 5.02-15.12 5.02s3.01-2.73 6.42-10.2c-20.17 9.89-39.9 2.42-58.58 14.12l-.02.01Z"/>
    <path fill="#00B0F3" d="M95.82 169.2a31.61 31.61 0 0 1 16.43-7.74c2.69 0 7.65 1.94 14.7 9.01a98.05 98.05 0 0 1 7.71 8.85c15.33 19.7 37.92 22.13 35.12 6.32-2.07-11.66-15.79-15.38-22.84-16.53 3.71-.54 6.9-1.25 9.2-2.19l.48-9c10.36 1 39.65 6.31 38.5 34.04-1.38 33.67-37.12 33.55-59.72 17.75-22.6-15.8-40.11-26.86-47.99-29.54.1-.44 2.73-5.98 8.4-10.98v.02Z"/>
    <path fill="#0063A2" d="M165.97 195.16c3.09-1.4 4.7-4.57 3.81-9.52-2.07-11.66-15.78-15.38-22.84-16.53 3.71-.54 6.9-1.25 9.2-2.19l.48-9c4.07.4 11.09 1.46 18.01 4.3 6.94 9.8 13.19 25.44-8.7 32.94h.04Z"/>
    <path fill="#00B0F3" d="M149.88 169.2a31.61 31.61 0 0 0-16.43-7.74c-2.68 0-7.65 1.94-14.7 9.01a98.04 98.04 0 0 0-7.71 8.85c-15.33 19.7-37.92 22.13-35.12 6.32 2.07-11.66 15.79-15.38 22.84-16.53-3.7-.54-6.9-1.25-9.2-2.19l-.48-9c-10.36 1-39.65 6.31-38.5 34.04 1.39 33.67 37.13 33.55 59.72 17.75 22.6-15.8 40.11-26.86 47.99-29.54-.1-.44-2.72-5.98-8.4-10.98v.02Z"/>
    <path fill="#0063A2" d="M151.26 183.36c-7.23-10.88-23.4-15.8-27.99-17a56 56 0 0 0-4.53 4.11 98.04 98.04 0 0 0-7.71 8.85 52.62 52.62 0 0 1-9.78 9.72 41.7 41.7 0 0 1 10.01 19.98c16.9-11.8 30.88-20.86 40-25.66Zm-71.52 11.8c-3.1-1.4-4.7-4.57-3.82-9.52 2.07-11.66 15.79-15.38 22.84-16.53-3.7-.54-6.9-1.25-9.2-2.19l-.48-9a65.78 65.78 0 0 0-18 4.3c-6.95 9.8-13.2 25.44 8.68 32.94h-.02Z"/>
    <path fill="#00B0F3" d="M142.09 213.73c5.59-5.62 9.99-11.95 11.65-19.4-6.2-2.4-13.17-7.42-19.06-15a98.05 98.05 0 0 0-7.72-8.86c-7.05-7.07-12.01-9-14.7-9a31.61 31.61 0 0 0-16.43 7.74c-5.67 5-8.3 10.54-8.39 10.97 7.88 2.68 25.4 13.74 47.99 29.54a57.38 57.38 0 0 0 6.66 4.01Z"/>
    <path fill="#0063A2" d="M168.3 219.96a38.8 38.8 0 0 0-5.41-24.01c-.97.1-2.01.08-3.1-.04 4.22 5.63 6.8 12.26 7.06 19.13a31.2 31.2 0 0 1-.22 4.97c.56 0 1.12-.01 1.67-.04Zm-.01-38.71c.55 1.08 1 2.24 1.3 3.52a38.7 38.7 0 0 1 21.66 4.62 34.2 34.2 0 0 1 3.9 2.55c.05-1.37.03-2.7-.05-3.96a41.3 41.3 0 0 0-2.29-1.52c-7.17-4.37-16-6.13-24.52-5.2ZM55.3 186.41c6.28-3.37 14-4.02 20.92-2.12.32-1.2.77-2.29 1.31-3.3-7.98-2.5-17.1-1.64-24.15 2.77a27.1 27.1 0 0 0-2.52 1.8 34.8 34.8 0 0 0-.35 4.17 24.67 24.67 0 0 1 4.77-3.32h.01ZM75 214.5a40.72 40.72 0 0 1 6.15-18.85c-.8-.22-1.53-.5-2.18-.9a46.7 46.7 0 0 0-5.76 24.78c.58.09 1.16.17 1.76.23-.1-1.88-.05-3.7.05-5.26h-.01Z"/>
</svg>