<svg xmlns="http://www.w3.org/2000/svg" fill="none" viewBox="0 0 915 669" width="915" height="669">
  <path fill="#D8503F" d="M748.83 260.73A281.16 281.16 0 0 1 647.5 579.59L538.43 428.68a94.97 94.97 0 0 0 34.22-107.69l176.18-60.26Z"/>
  <path fill="#46A6FF" d="M482.8 70.56a281.16 281.16 0 0 1 266.7 192.16l-177.09 59.1a94.47 94.47 0 0 0-89.6-64.57V70.56Z"/>
  <path fill="#008B73" d="M445.92 72.99a281.18 281.18 0 0 1 37.14-2.43l-.03 35.8c-10.84 0-21.67.7-32.41 2.13l-4.7-35.5Z"/>
  <path fill="#84C08B" d="M411.14 79.85a281.14 281.14 0 0 1 35.08-6.9l4.68 35.67a245.17 245.17 0 0 0-30.59 6.02l-9.17-34.8Z"/>
  <path fill="#F5D164" d="M394.41 84.82a281.04 281.04 0 0 1 16.86-5l4.1 15.58a265.04 265.04 0 0 0-15.89 4.71l-5.07-15.3Z"/>
  <path fill="#E18176" d="M255.13 186.74a281.16 281.16 0 0 1 139.51-102l30.15 91.3a185.01 185.01 0 0 0-91.8 67.11l-77.86-56.41Z"/>
  <path fill="#6046FF" d="M255.02 516.55a281.15 281.15 0 0 1 .27-330.03l151.76 110.2a93.62 93.62 0 0 0-.1 109.88L255.02 516.55Z"/>
  <path fill="#68BAC4" d="M289.78 556.16a281.12 281.12 0 0 1-35.4-40.5l44.05-31.62a226.91 226.91 0 0 0 28.57 32.7l-37.22 39.42Z"/>
  <path fill="#ED762D" d="M316.12 578.15a281.33 281.33 0 0 1-27.3-22.91l25.16-26.4c7.5 7.13 15.43 13.8 23.77 19.93l-21.63 29.38Z"/>
  <path fill="#12B886" d="M482.8 632.88c-60.2 0-118.8-19.32-167.19-55.1l56.25-76.06a186.56 186.56 0 0 0 110.94 36.56v94.6Z"/>
  <path fill="#F1BE3E" d="M647.74 579.41a281.16 281.16 0 0 1-165.99 53.47l.36-94.31c39.6.15 78.23-12.3 110.3-35.53l55.33 76.37Z"/>
  <path fill="#fff" d="M157.12 347.09v-1.12h1c.29 0 .53-.04.73-.12a.98.98 0 0 0 .51-.36c.14-.17.25-.4.34-.69l2.17-7.33h1.22l-2.3 7.66c-.14.46-.34.83-.59 1.11-.25.3-.55.5-.92.64-.35.14-.77.2-1.24.2h-.92Zm2.11-2.85v-1.04h1.5v1.04h-1.5Zm-.13 0-2.47-6.77h1.27l2.37 6.76h-1.17Zm-7.06.15v-6.92h.99v2.85h-.06c0-1.01.22-1.75.66-2.22.45-.47 1.12-.7 2.01-.7h.24v1.1h-.44c-.7 0-1.23.2-1.6.56-.37.37-.56.9-.56 1.58v3.75h-1.24Zm-5.74.21c-.82 0-1.45-.27-1.9-.8a3.56 3.56 0 0 1-.65-2.32v-4.02h1.24v4.26c0 .54.15.97.44 1.28.3.3.7.46 1.2.46.51 0 .94-.17 1.26-.5.33-.33.5-.79.5-1.37v-4.13h1.24v6.93h-.98v-2.97h.15c0 .69-.09 1.26-.27 1.74-.18.47-.46.82-.82 1.07-.35.25-.8.37-1.36.37h-.05Zm-7.08 0c-.9 0-1.6-.2-2.11-.59a2 2 0 0 1-.76-1.59h1.16c.02.27.15.52.4.76.26.24.7.35 1.31.35.56 0 .98-.1 1.27-.32a1 1 0 0 0 .44-.82c0-.28-.1-.5-.32-.66a2.15 2.15 0 0 0-1.05-.32l-.75-.08a3.1 3.1 0 0 1-1.6-.58 1.65 1.65 0 0 1-.63-1.38c0-.44.11-.81.34-1.12.22-.32.53-.56.93-.73.4-.17.85-.26 1.37-.26.78 0 1.41.18 1.9.52.48.35.73.86.75 1.54h-1.17c0-.27-.14-.5-.39-.7-.24-.2-.6-.3-1.09-.3-.48 0-.85.1-1.1.3a.92.92 0 0 0-.38.75c0 .26.1.47.26.63.19.15.48.25.89.3l.75.07c.74.08 1.34.29 1.79.62.44.33.67.8.67 1.4 0 .44-.13.82-.38 1.16-.24.33-.57.58-1 .77-.44.19-.94.28-1.5.28Zm-5.53-.21v-2.07h-.21v-2.4c0-.48-.13-.84-.38-1.08-.24-.24-.6-.36-1.07-.36l-.83.01-.82.03c-.26 0-.48.02-.67.04v-1.1a13.07 13.07 0 0 1 1.25-.06h.65c.7 0 1.29.08 1.74.25.45.17.78.44 1 .82.21.38.32.9.32 1.54v4.38h-.98Zm-2.27.18c-.52 0-.97-.08-1.35-.26a2.05 2.05 0 0 1-.87-.77c-.2-.34-.3-.75-.3-1.22 0-.5.11-.9.33-1.24.22-.32.55-.57.97-.73.42-.18.93-.26 1.53-.26h1.88v.93h-1.93c-.5 0-.89.12-1.16.36-.27.25-.4.56-.4.94 0 .38.13.68.4.92.27.23.66.35 1.16.35.29 0 .57-.05.84-.16s.49-.3.66-.54c.18-.26.28-.62.3-1.07l.33.5c-.04.49-.16.9-.36 1.24-.19.33-.46.58-.8.75a2.6 2.6 0 0 1-1.23.26Zm-6.92.05a3.22 3.22 0 0 1-2.64-1.12 3.67 3.67 0 0 1-.81-2.45v-.24c0-.45.06-.88.19-1.3.14-.43.34-.8.62-1.15a2.9 2.9 0 0 1 1.05-.81c.43-.21.94-.31 1.52-.31.75 0 1.37.16 1.85.49.5.32.86.73 1.09 1.24.24.51.36 1.06.36 1.64v.55h-6.14v-.93h5.23l-.28.5c0-.49-.08-.91-.23-1.27a1.83 1.83 0 0 0-.7-.84c-.31-.2-.7-.3-1.18-.3-.5 0-.9.12-1.23.34-.32.23-.56.53-.73.92a3.6 3.6 0 0 0-.23 1.35c0 .5.08.94.23 1.33.17.4.42.7.75.94.34.22.77.34 1.28.34.55 0 .99-.13 1.33-.37.34-.24.55-.52.62-.84h1.17a2.74 2.74 0 0 1-1.65 2.02c-.43.18-.92.27-1.47.27Zm-8.18-.23v-6.92h.99v2.85h-.05c0-1.01.22-1.75.66-2.22.45-.47 1.12-.7 2-.7h.24v1.1h-.44c-.7 0-1.22.2-1.6.56-.37.37-.55.9-.55 1.58v3.75h-1.25Zm-5.28 0v-8.58h1.27v8.58h-1.27Zm-2.87-8.32v-1.14h7.02v1.14h-7.02Zm-10.39 8.32v-6.92h.99v2.97h-.16c0-.69.1-1.26.27-1.73.2-.47.48-.83.86-1.07.38-.25.86-.38 1.44-.38h.05c.87 0 1.52.27 1.93.82.42.54.64 1.33.64 2.36v3.95h-1.25v-4.21c0-.54-.15-.97-.45-1.29a1.6 1.6 0 0 0-1.24-.49c-.55 0-.99.17-1.33.5-.33.35-.5.8-.5 1.36v4.13h-1.25Zm-5.57.23a3.67 3.67 0 0 1-2.76-1.13 3.73 3.73 0 0 1-.71-1.15 3.74 3.74 0 0 1-.23-1.3v-.23a3.56 3.56 0 0 1 2.13-3.26c.46-.21.98-.31 1.57-.31a3.77 3.77 0 0 1 2.74 1.12 3.56 3.56 0 0 1 .97 2.45v.24a3.56 3.56 0 0 1-2.11 3.26c-.46.21-1 .31-1.6.31Zm0-1.11a2.25 2.25 0 0 0 2.16-1.27c.2-.39.3-.83.3-1.31 0-.5-.1-.93-.3-1.32-.2-.4-.48-.7-.85-.92-.36-.23-.8-.34-1.3-.34s-.94.11-1.32.34c-.37.22-.65.53-.85.92-.2.39-.3.83-.3 1.32 0 .48.1.92.29 1.3.2.4.47.7.84.94.37.23.81.34 1.33.34Zm-6.83.88v-6.92h1.24v6.92h-1.24Zm-1.07-5.94v-.98h2.3v.98h-2.3Zm1.42-2.1c-.28 0-.49-.07-.63-.22a.81.81 0 0 1-.2-.55c0-.23.07-.41.2-.56.14-.15.35-.22.63-.22.27 0 .47.07.6.22.14.15.21.33.21.56 0 .22-.07.4-.2.56a.82.82 0 0 1-.61.22Zm-3.51 8.12a3.9 3.9 0 0 1-1.35-.22c-.37-.15-.66-.4-.87-.75a3.1 3.1 0 0 1-.3-1.47v-6.66h1.2v6.82c0 .37.1.66.3.87.2.2.49.3.86.3h1.22v1.1h-1.06Zm-3.71-6.07v-.93h4.77v.93H78.5Zm-2.26 5.99v-2.07h-.2v-2.4c0-.48-.13-.84-.38-1.08-.24-.24-.6-.36-1.08-.36l-.83.01-.81.03c-.26 0-.49.02-.68.04v-1.1a13.06 13.06 0 0 1 1.26-.06h.65c.7 0 1.28.08 1.73.25.45.17.79.44 1 .82.22.38.33.9.33 1.54v4.38h-.99Zm-2.27.18c-.52 0-.96-.08-1.34-.26a2.05 2.05 0 0 1-.87-.77c-.2-.34-.3-.75-.3-1.22 0-.5.1-.9.32-1.24.23-.32.55-.57.97-.73.43-.18.94-.26 1.53-.26h1.88v.93h-1.93c-.5 0-.88.12-1.15.36-.27.25-.4.56-.4.94 0 .38.13.68.4.92.27.23.65.35 1.15.35.3 0 .58-.05.84-.16.27-.11.5-.3.67-.54.18-.26.28-.62.3-1.07l.33.5c-.04.49-.16.9-.36 1.24-.2.33-.46.58-.8.75-.34.18-.75.26-1.24.26Zm-7.96.05a3.37 3.37 0 0 1-2.45-1.03 3.69 3.69 0 0 1-.96-2.54v-.24a3.87 3.87 0 0 1 .93-2.52 3.2 3.2 0 0 1 2.44-1.05c.53 0 1 .1 1.44.33.43.22.79.56 1.06 1.03.28.46.43 1.07.47 1.81l-.52-.83v-4.65h1.24v9.46h-.98v-3.07h.36c-.03.79-.2 1.43-.49 1.92-.3.48-.67.83-1.11 1.06a3.2 3.2 0 0 1-1.43.32Zm.17-1.08c.42 0 .8-.1 1.15-.29.35-.19.62-.46.83-.82.2-.36.31-.78.31-1.27v-.6a2.14 2.14 0 0 0-1.16-1.96 2.42 2.42 0 0 0-1.14-.28 2.25 2.25 0 0 0-2.04 1.23 3.1 3.1 0 0 0-.28 1.38c0 .53.1.99.3 1.39.2.39.47.69.82.9.36.21.76.31 1.2.31Zm-11.35.85v-6.92h.98v2.97h-.15c0-.69.09-1.26.27-1.73.2-.47.48-.83.86-1.07.38-.25.86-.38 1.44-.38h.05c.87 0 1.51.27 1.93.82.42.54.63 1.33.63 2.36v3.95h-1.24v-4.21c0-.54-.15-.97-.45-1.29a1.6 1.6 0 0 0-1.25-.49c-.54 0-.98.17-1.32.5-.34.35-.5.8-.5 1.36v4.13h-1.25Zm-5.74.21c-.82 0-1.45-.27-1.9-.8a3.57 3.57 0 0 1-.65-2.32v-4.02h1.24v4.26c0 .54.15.97.44 1.28.3.3.7.46 1.2.46.51 0 .94-.17 1.26-.5.33-.33.5-.79.5-1.37v-4.13h1.24v6.93h-.98v-2.97h.15c0 .69-.09 1.26-.27 1.74-.18.47-.45.82-.82 1.07-.35.25-.8.37-1.36.37h-.05Zm-7.97.02a3.67 3.67 0 0 1-2.76-1.13 3.73 3.73 0 0 1-.71-1.15 3.73 3.73 0 0 1-.23-1.3v-.23a3.56 3.56 0 0 1 2.13-3.26c.46-.21.98-.31 1.57-.31a3.77 3.77 0 0 1 2.74 1.12 3.56 3.56 0 0 1 .97 2.45v.24a3.56 3.56 0 0 1-2.11 3.26c-.46.21-1 .31-1.6.31Zm0-1.11a2.25 2.25 0 0 0 2.16-1.27c.2-.39.3-.83.3-1.31 0-.5-.1-.93-.3-1.32-.2-.4-.48-.7-.85-.92-.36-.23-.8-.34-1.3-.34s-.95.11-1.32.34c-.37.22-.65.53-.85.92-.2.39-.3.83-.3 1.32 0 .48.1.92.29 1.3.2.4.47.7.84.94.37.23.81.34 1.33.34Zm-10.13.88v-9.46h1.27v9.46H31Zm1.01-4.21v-1.14l4.06-.02v1.15H32Zm0-4.11v-1.14h4.28v1.14H32Z"/>
  <path fill="#6046FF" d="m149.2 373.03 6.2-16.82h2.65l-6.2 16.82h-2.65Zm-1.2-7.65c-.89 0-1.63-.2-2.21-.6a3.83 3.83 0 0 1-1.31-1.64 5.8 5.8 0 0 1-.42-2.2v-.6c0-.88.15-1.65.44-2.31.29-.68.73-1.2 1.31-1.57.6-.38 1.33-.57 2.19-.57.9 0 1.63.19 2.21.57.59.37 1.02.9 1.32 1.57.29.66.43 1.43.43 2.3v.6c0 .8-.14 1.54-.43 2.21a3.63 3.63 0 0 1-1.3 1.64c-.56.4-1.3.6-2.23.6Zm0-2.14c.55 0 .96-.2 1.22-.6.28-.42.42-1.08.42-1.98 0-.99-.14-1.67-.42-2.06a1.41 1.41 0 0 0-1.22-.57c-.54 0-.94.2-1.22.58-.26.38-.4 1.06-.4 2.02 0 .9.14 1.57.4 1.98.28.42.68.63 1.22.63Zm11.13 10.13c-.9 0-1.63-.2-2.21-.6a3.82 3.82 0 0 1-1.32-1.63 5.78 5.78 0 0 1-.41-2.21v-.6c0-.88.15-1.64.44-2.3.29-.68.73-1.2 1.31-1.57.6-.39 1.33-.58 2.19-.58.89 0 1.63.2 2.21.58.58.37 1.02.89 1.31 1.56.3.67.44 1.43.44 2.3v.6c0 .8-.14 1.54-.44 2.22-.27.68-.7 1.22-1.29 1.63-.57.4-1.31.6-2.23.6Zm0-2.14c.55 0 .96-.2 1.22-.6.28-.41.41-1.07.41-1.98 0-.98-.13-1.67-.41-2.05a1.41 1.41 0 0 0-1.22-.58c-.54 0-.95.2-1.22.58-.26.38-.4 1.06-.4 2.03 0 .9.14 1.56.4 1.98.27.41.68.62 1.22.62Zm-24.35 2.24a7.92 7.92 0 0 1-3.36-.65 6.24 6.24 0 0 1-2.26-1.8 7.8 7.8 0 0 1-1.3-2.62c-.25-1-.38-2.04-.38-3.14v-1.29c0-1.55.26-2.95.78-4.19a6.48 6.48 0 0 1 2.4-2.95 7.13 7.13 0 0 1 4.12-1.1c1.66 0 3.03.36 4.1 1.1a6.33 6.33 0 0 1 2.37 2.95c.53 1.25.79 2.64.79 4.2v1.28c0 1.1-.14 2.14-.42 3.14a7.44 7.44 0 0 1-1.26 2.62 6.02 6.02 0 0 1-2.24 1.8c-.92.43-2.03.65-3.34.65Zm0-3c1.37 0 2.37-.47 3.02-1.4.64-.96.97-2.43.97-4.43 0-2.12-.33-3.63-1-4.54-.66-.92-1.65-1.38-2.99-1.38-1.35 0-2.37.46-3.04 1.38-.66.9-1 2.4-1 4.5 0 2 .34 3.49 1 4.44.66.95 1.67 1.43 3.04 1.43Zm-21.68 2.56v-3.23c0-.7.1-1.32.32-1.84.23-.52.6-.98 1.1-1.38.53-.42 1.21-.8 2.06-1.18l2.86-1.26a4.3 4.3 0 0 0 1.6-1.18 2.8 2.8 0 0 0 .58-1.82 2.6 2.6 0 0 0-.73-1.94c-.48-.49-1.16-.73-2.05-.73-.9 0-1.59.24-2.08.73-.47.5-.71 1.18-.71 2.06h-3.16c0-1.05.22-1.99.67-2.82.45-.84 1.1-1.5 1.98-1.98a6.71 6.71 0 0 1 3.3-.73c1.32 0 2.42.23 3.3.71a4.86 4.86 0 0 1 1.97 1.91c.45.79.67 1.66.67 2.63v.3c0 1.26-.35 2.31-1.06 3.16a8.68 8.68 0 0 1-3.1 2.16l-2.87 1.27c-.53.23-.91.47-1.13.74-.21.24-.32.58-.32 1v1.48l-.78-.85h9.33v2.79H113.1Z"/>
  <path fill="#fff" d="M260.2 124.08c-.9 0-1.6-.2-2.1-.59-.5-.38-.75-.92-.77-1.6h1.17c.01.28.15.53.4.77.26.24.7.35 1.3.35.56 0 .98-.1 1.28-.32a1 1 0 0 0 .44-.82c0-.28-.11-.5-.33-.66a2.15 2.15 0 0 0-1.05-.32l-.75-.08a3.11 3.11 0 0 1-1.6-.58 1.65 1.65 0 0 1-.63-1.38c0-.44.12-.81.34-1.12.23-.32.54-.56.93-.73.4-.17.86-.26 1.38-.26.78 0 1.4.17 1.89.52.48.34.73.86.75 1.54h-1.17a.9.9 0 0 0-.38-.7c-.25-.2-.6-.3-1.1-.3-.48 0-.84.1-1.1.3a.92.92 0 0 0-.37.75c0 .26.09.47.26.63.18.15.47.25.88.3l.75.07c.75.08 1.34.29 1.79.62.45.33.67.8.67 1.4 0 .44-.12.82-.37 1.16-.24.33-.58.58-1.01.77-.43.19-.93.28-1.5.28Zm-7.58-.21v-6.92h.99v2.85h-.05c0-1.01.22-1.75.66-2.22.45-.47 1.12-.7 2-.7h.24v1.1h-.44c-.7 0-1.22.2-1.6.56-.37.37-.55.9-.55 1.58v3.75h-1.25Zm-4.99.23c-.6 0-1.13-.1-1.57-.3a3.2 3.2 0 0 1-1.07-.82 3.68 3.68 0 0 1-.82-2.45v-.24c0-.45.07-.88.2-1.3.13-.43.34-.81.62-1.15.27-.34.62-.61 1.05-.81a3.4 3.4 0 0 1 1.51-.31c.75 0 1.37.16 1.86.49.49.32.85.73 1.08 1.24.25.51.37 1.06.37 1.63v.56h-6.15v-.93h5.24l-.28.5c0-.49-.08-.91-.24-1.27a1.82 1.82 0 0 0-.7-.84c-.3-.2-.7-.3-1.18-.3-.49 0-.9.12-1.23.34a2.1 2.1 0 0 0-.72.92 3.6 3.6 0 0 0-.24 1.35c0 .5.08.94.24 1.33.16.4.41.7.75.94.33.22.76.33 1.28.33.55 0 .99-.12 1.32-.36.35-.24.56-.52.62-.84h1.17a2.73 2.73 0 0 1-1.65 2.02c-.43.18-.91.27-1.46.27Zm-5.45-.23-2.6-3.23h-1.15l3.18-3.7h1.3l-2.87 3.34.1-.66 3.48 4.25h-1.44Zm-4.77 0v-9.46h1.24v9.46h-1.24Zm-3.27 0v-2.07h-.2v-2.4c0-.48-.13-.84-.38-1.08-.24-.24-.6-.36-1.08-.36a26.3 26.3 0 0 0-1.64.04c-.26 0-.49.02-.68.04v-1.1a13.07 13.07 0 0 1 1.26-.06h.65c.7 0 1.28.08 1.74.25.44.16.78.44 1 .82.2.38.32.9.32 1.54v4.38h-.99Zm-2.27.18c-.52 0-.96-.08-1.34-.26a2.06 2.06 0 0 1-.87-.78c-.2-.33-.3-.74-.3-1.21 0-.5.1-.9.32-1.23.23-.33.55-.58.97-.74.43-.18.94-.26 1.53-.26h1.88v.93h-1.93c-.5 0-.88.12-1.15.36-.27.25-.4.56-.4.94 0 .38.13.68.4.92.27.23.65.35 1.15.35.3 0 .58-.06.84-.16.27-.11.5-.3.67-.54.18-.26.28-.62.3-1.07l.33.5c-.04.49-.16.9-.36 1.24-.2.33-.46.58-.8.75-.34.17-.75.26-1.24.26Zm-13.65-.18v-9.46h1.68l2.8 6.31h.2l2.8-6.31h1.7v9.46h-1.28v-8.07l.1.02-2.7 6.1h-1.55l-2.7-6.1.11-.02v8.07h-1.16Zm-5.96.08c-.51 0-.96-.08-1.34-.22-.38-.15-.67-.4-.87-.75a3.1 3.1 0 0 1-.3-1.47v-6.66h1.2v6.82c0 .37.1.66.29.86.2.2.5.3.87.3h1.22v1.12h-1.07Zm-3.7-6.07v-.93h4.77v.93h-4.77Zm-3.99 6.22c-.6 0-1.12-.1-1.56-.3-.44-.22-.8-.49-1.08-.82a3.64 3.64 0 0 1-.62-1.16c-.13-.42-.2-.85-.2-1.3v-.23c0-.45.07-.88.2-1.3.14-.43.34-.81.62-1.15a2.9 2.9 0 0 1 1.05-.81c.43-.21.94-.31 1.52-.31.75 0 1.37.16 1.85.49.5.32.85.73 1.09 1.24.24.51.36 1.06.36 1.63v.56h-6.14v-.93h5.23l-.28.5c0-.49-.08-.91-.24-1.27a1.81 1.81 0 0 0-.7-.84c-.3-.2-.7-.3-1.17-.3-.5 0-.9.12-1.24.34-.31.23-.56.53-.72.92a3.6 3.6 0 0 0-.23 1.35c0 .5.07.94.23 1.33.16.4.41.7.75.94.34.22.77.33 1.28.33.55 0 .99-.12 1.33-.36.34-.24.55-.52.62-.84h1.16a2.74 2.74 0 0 1-1.64 2.02c-.43.18-.92.27-1.47.27Zm-5.45-.23-2.6-3.23h-1.14l3.17-3.7h1.31l-2.88 3.34.1-.66 3.48 4.25h-1.44Zm-4.77 0v-9.46h1.25v9.46h-1.25Zm-5.31 0v-6.92h.98v2.85h-.05c0-1.01.22-1.75.66-2.22.45-.47 1.12-.7 2.01-.7h.24v1.1h-.44c-.7 0-1.23.2-1.6.56-.37.37-.56.9-.56 1.58v3.75h-1.24Zm-3.27 0v-2.07h-.2v-2.4c0-.48-.13-.84-.38-1.08-.25-.24-.6-.36-1.08-.36a26.3 26.3 0 0 0-1.64.04c-.26 0-.49.02-.68.04v-1.1a13.07 13.07 0 0 1 1.26-.06h.65c.7 0 1.28.08 1.73.25.45.16.78.44 1 .82.22.38.32.9.32 1.54v4.38h-.98Zm-2.27.18c-.52 0-.97-.08-1.34-.26a2.06 2.06 0 0 1-.87-.78c-.2-.33-.3-.74-.3-1.21 0-.5.1-.9.32-1.23.23-.33.55-.58.97-.74.43-.18.94-.26 1.53-.26h1.88v.93h-1.93c-.5 0-.88.12-1.15.36-.27.25-.4.56-.4.94 0 .38.13.68.4.92.27.23.65.35 1.15.35.3 0 .58-.06.84-.16.27-.11.5-.3.66-.54.19-.26.29-.62.3-1.07l.34.5c-.04.49-.16.9-.36 1.24-.2.33-.46.58-.8.75-.34.17-.75.26-1.24.26Zm-13.66-.18v-9.46h1.69l2.8 6.31h.2l2.8-6.31h1.69v9.46h-1.27v-8.07l.09.02-2.68 6.1h-1.56l-2.7-6.1.11-.02v8.07h-1.17Zm-5.5.78 2.64-10.89h1.17l-2.65 10.89h-1.16Zm-6.69 1.92v-1.12h1c.3 0 .54-.04.74-.12.2-.06.38-.19.5-.36.14-.17.26-.4.34-.69l2.18-7.33h1.22l-2.31 7.66c-.14.46-.33.83-.58 1.11-.25.3-.56.5-.92.64s-.77.2-1.25.2h-.92Zm2.11-2.86v-1.03h1.5v1.03h-1.5Zm-.12 0-2.48-6.76h1.27l2.37 6.76h-1.16Zm-4.34.24a3.9 3.9 0 0 1-1.35-.22c-.37-.15-.66-.4-.87-.75a3.1 3.1 0 0 1-.3-1.47v-6.66h1.2v6.82c0 .37.1.66.3.86.2.2.49.3.86.3h1.22v1.12h-1.06Zm-3.71-6.07v-.93h4.77v.93h-4.77Zm-2.64 5.99v-6.92h1.25v6.92h-1.25Zm-1.06-5.94v-.98h2.3v.98h-2.3Zm1.41-2.1c-.28 0-.48-.07-.62-.22a.81.81 0 0 1-.2-.55c0-.23.07-.41.2-.56.14-.15.34-.22.62-.22.28 0 .48.07.61.22.14.15.2.33.2.56 0 .22-.06.4-.2.55-.13.15-.33.22-.6.22Zm-6.73 8.27a3.35 3.35 0 0 1-3.16-2.17c-.17-.44-.25-.9-.25-1.4v-.24a3.88 3.88 0 0 1 .93-2.52 3.22 3.22 0 0 1 2.44-1.05c.53 0 1 .1 1.44.33.43.22.78.56 1.06 1.03.28.46.43 1.07.47 1.81l-.52-.83v-4.65h1.24v9.46h-.98v-3.07h.36a4 4 0 0 1-.5 1.92c-.28.48-.66.84-1.1 1.06a3.2 3.2 0 0 1-1.43.32Zm.17-1.08c.42 0 .8-.1 1.15-.3.35-.18.62-.45.83-.8.2-.37.31-.8.31-1.28v-.6a2.15 2.15 0 0 0-1.16-1.96 2.41 2.41 0 0 0-1.15-.27c-.45 0-.86.1-1.21.32s-.62.52-.82.9a3.1 3.1 0 0 0-.29 1.38c0 .53.1.99.3 1.39a2.2 2.2 0 0 0 2.03 1.21Zm-6.71.85v-6.92h1.24v6.92h-1.24Zm-1.06-5.94v-.98h2.3v.98h-2.3Zm1.4-2.1c-.27 0-.47-.07-.61-.22a.81.81 0 0 1-.2-.55c0-.23.07-.41.2-.56.14-.15.34-.22.62-.22.28 0 .48.07.6.22.15.15.22.33.22.56 0 .22-.07.4-.21.55-.13.15-.33.22-.61.22Zm-6.42 8.25c-.82 0-1.45-.27-1.9-.8a3.57 3.57 0 0 1-.65-2.33v-4.01h1.24v4.26c0 .54.15.97.44 1.28.3.3.7.46 1.2.46.51 0 .94-.17 1.27-.5.32-.33.49-.8.49-1.37v-4.13h1.24v6.93h-.98v-2.97h.15c0 .68-.09 1.26-.27 1.74-.18.47-.45.82-.82 1.07-.35.25-.8.37-1.36.37h-.05Zm-6.03 2.38v-4.65l.5-.99a3.98 3.98 0 0 1-.46 1.86 2.7 2.7 0 0 1-1.08 1.07 3.23 3.23 0 0 1-3.85-.73 3.78 3.78 0 0 1-.93-2.55v-.23c0-.5.08-.95.25-1.37a3.37 3.37 0 0 1 4.7-1.78c.45.25.8.61 1.06 1.09.26.48.4 1.05.43 1.74h-.36v-2.97h.98v9.51h-1.24Zm-2.24-3.5c.42 0 .8-.1 1.15-.28a2.25 2.25 0 0 0 1.14-2.09v-.6a2.15 2.15 0 0 0-1.16-1.96 2.38 2.38 0 0 0-1.13-.28 2.17 2.17 0 0 0-2.05 1.25c-.19.39-.28.84-.28 1.36 0 .52.1.97.3 1.37a2.22 2.22 0 0 0 2.03 1.23Zm-6.71.91v-6.92h1.24v6.92h-1.24Zm-1.06-5.94v-.98h2.3v.98h-2.3Zm1.4-2.1c-.27 0-.48-.07-.61-.22a.8.8 0 0 1-.2-.55.8.8 0 0 1 .2-.56c.13-.15.34-.22.62-.22.28 0 .48.07.6.22.15.15.22.33.22.56 0 .22-.07.4-.21.55-.13.15-.34.22-.61.22Zm-7.55 8.04v-9.46h1.27v9.46h-1.27Zm1.02 0v-1.14h4.32v1.14h-4.32Zm-11.7 2.7v-1.12h1c.3 0 .54-.04.74-.12a1 1 0 0 0 .5-.36c.14-.17.25-.4.34-.69l2.18-7.33h1.22l-2.31 7.66c-.14.46-.33.83-.58 1.11-.26.3-.56.5-.93.64-.35.14-.76.2-1.24.2h-.92Zm2.11-2.86v-1.03h1.5v1.03h-1.5Zm-.13 0-2.47-6.76h1.27l2.37 6.76h-1.17Zm-5.14.16v-9.46h1.24v9.46h-1.24Zm-.96-8.48v-.98h2.2v.98h-2.2Zm-4.44 8.48v-6.92h.99v2.85h-.05c0-1.01.22-1.75.66-2.22.45-.47 1.12-.7 2-.7h.24v1.1h-.44c-.7 0-1.22.2-1.6.56-.37.37-.55.9-.55 1.58v3.75h-1.25Zm-3.27 0v-2.07h-.2v-2.4c0-.48-.13-.84-.38-1.08-.24-.24-.6-.36-1.07-.36a26.27 26.27 0 0 0-1.65.04c-.26 0-.48.02-.67.04v-1.1a13.06 13.06 0 0 1 1.25-.06h.65a5 5 0 0 1 1.74.25c.45.16.78.44 1 .82.21.38.32.9.32 1.54v4.38h-.99Zm-2.26.18c-.52 0-.97-.08-1.35-.26a2.06 2.06 0 0 1-.87-.78c-.2-.33-.3-.74-.3-1.21 0-.5.11-.9.33-1.23.22-.33.55-.58.97-.74.42-.18.93-.26 1.53-.26h1.88v.93h-1.93c-.5 0-.89.12-1.16.36-.27.25-.4.56-.4.94 0 .38.13.68.4.92.27.23.66.35 1.16.35.29 0 .57-.06.84-.16.27-.11.49-.3.66-.54.18-.26.28-.62.3-1.07l.33.5c-.04.49-.16.9-.36 1.24-.19.33-.46.58-.8.75-.34.17-.75.26-1.23.26Zm-9.51-.18v-9.46h1.27v9.46h-1.27Zm1 0v-1.14h4.6v1.14h-4.6Zm0-4.24v-1.14h4.2v1.14h-4.2Zm0-4.08v-1.14h4.47v1.14h-4.46Z"/>
  <path fill="#E18176" d="m249.2 152.5 6.19-16.81h2.65l-6.2 16.82h-2.65Zm-1.2-7.64c-.9 0-1.63-.2-2.22-.6a3.83 3.83 0 0 1-1.31-1.64 5.8 5.8 0 0 1-.41-2.2v-.6c0-.88.14-1.65.43-2.31.3-.68.73-1.2 1.32-1.57.6-.38 1.32-.57 2.19-.57.88 0 1.62.19 2.2.57.59.37 1.03.9 1.32 1.57.3.66.44 1.43.44 2.3v.6c0 .8-.15 1.54-.44 2.21-.28.68-.7 1.22-1.3 1.64-.56.4-1.3.6-2.22.6Zm0-2.14c.55 0 .96-.2 1.22-.6.27-.42.41-1.08.41-1.99 0-.98-.14-1.66-.41-2.04a1.41 1.41 0 0 0-1.22-.58c-.54 0-.95.2-1.23.58-.26.38-.39 1.06-.39 2.02 0 .9.13 1.57.4 1.98.27.42.68.63 1.22.63Zm11.12 10.13c-.89 0-1.63-.2-2.2-.6a3.82 3.82 0 0 1-1.32-1.63 5.78 5.78 0 0 1-.42-2.21v-.6c0-.88.15-1.65.44-2.3.3-.68.73-1.2 1.31-1.57.6-.39 1.33-.58 2.2-.58.88 0 1.62.2 2.2.58.59.37 1.03.89 1.32 1.56.29.66.44 1.43.44 2.3v.6c0 .8-.15 1.54-.44 2.22a3.6 3.6 0 0 1-1.3 1.63c-.56.4-1.3.6-2.23.6Zm0-2.14c.56 0 .96-.2 1.22-.6.28-.41.42-1.07.42-1.98 0-.98-.14-1.67-.42-2.05a1.41 1.41 0 0 0-1.22-.58c-.54 0-.94.2-1.22.58-.26.38-.39 1.06-.39 2.03 0 .9.13 1.56.4 1.98.27.41.67.62 1.21.62Zm-24.35 2.24a7.91 7.91 0 0 1-3.36-.65 6.24 6.24 0 0 1-2.26-1.8 7.78 7.78 0 0 1-1.29-2.62c-.26-1-.4-2.05-.4-3.14v-1.29c0-1.55.27-2.95.8-4.19a6.49 6.49 0 0 1 2.39-2.95 7.14 7.14 0 0 1 4.12-1.1 7.1 7.1 0 0 1 4.1 1.1 6.35 6.35 0 0 1 2.38 2.95c.52 1.24.78 2.64.78 4.2v1.28c0 1.1-.14 2.14-.41 3.14a7.45 7.45 0 0 1-1.27 2.62 6.04 6.04 0 0 1-2.24 1.8c-.92.43-2.03.65-3.34.65Zm0-3c1.37 0 2.38-.47 3.02-1.4.65-.96.97-2.43.97-4.43 0-2.12-.33-3.63-1-4.54-.65-.92-1.65-1.38-2.99-1.38-1.35 0-2.36.46-3.04 1.38-.66.9-.99 2.4-.99 4.5 0 2 .33 3.49 1 4.44.65.95 1.66 1.43 3.03 1.43Zm-14.26 2.55v-14.78l1.02.78h-4.45v-2.81h6.68v16.82h-3.25Z"/>
  <path fill="#fff" d="M386.87 44.88c-.9 0-1.61-.2-2.11-.59-.5-.39-.75-.92-.77-1.6h1.17c.02.28.15.53.4.77.26.24.7.35 1.31.35.55 0 .98-.1 1.27-.32a1 1 0 0 0 .44-.82c0-.28-.1-.5-.32-.66a2.15 2.15 0 0 0-1.05-.32l-.75-.08a3.12 3.12 0 0 1-1.61-.58 1.66 1.66 0 0 1-.62-1.38c0-.44.11-.81.33-1.12.23-.32.54-.57.94-.73.4-.17.85-.26 1.37-.26.78 0 1.41.17 1.9.52.48.34.73.86.75 1.54h-1.17a.9.9 0 0 0-.39-.7c-.24-.2-.6-.3-1.09-.3-.48 0-.85.1-1.1.3a.92.92 0 0 0-.38.75c0 .26.09.47.26.63.18.15.48.25.88.3l.76.07c.74.08 1.33.29 1.78.62.45.33.68.8.68 1.4 0 .44-.13.82-.38 1.16-.24.32-.58.58-1 .77-.44.19-.94.28-1.5.28Zm-7.58-.21v-6.92h.98v2.85h-.05c0-1.01.22-1.75.66-2.22.45-.47 1.12-.7 2.01-.7h.23v1.1h-.44c-.69 0-1.22.2-1.6.56-.36.37-.55.9-.55 1.58v3.75h-1.24Zm-5.57.23a3.67 3.67 0 0 1-2.76-1.13 3.73 3.73 0 0 1-.71-1.15 3.72 3.72 0 0 1-.24-1.3v-.23a3.56 3.56 0 0 1 2.14-3.26c.46-.21.98-.31 1.57-.31a3.76 3.76 0 0 1 2.73 1.12 3.56 3.56 0 0 1 .97 2.45v.24a3.56 3.56 0 0 1-2.1 3.26c-.47.2-1 .31-1.6.31Zm0-1.11a2.25 2.25 0 0 0 2.16-1.27c.2-.4.3-.83.3-1.31 0-.5-.1-.93-.3-1.32-.2-.4-.48-.7-.85-.92-.37-.23-.8-.34-1.31-.34-.5 0-.94.11-1.31.34-.37.22-.66.53-.86.92-.2.39-.3.83-.3 1.32 0 .48.1.92.3 1.3.19.4.47.7.83.94.38.23.82.34 1.34.34Zm-9.23 1.11a3.36 3.36 0 0 1-2.45-1.03 3.7 3.7 0 0 1-.96-2.54v-.24a3.87 3.87 0 0 1 .93-2.52 3.22 3.22 0 0 1 2.44-1.05c.52 0 1 .1 1.43.33.44.22.8.56 1.07 1.03.27.46.43 1.07.46 1.81l-.52-.83v-4.65h1.25v9.46h-.99V41.6h.37a4.1 4.1 0 0 1-.5 1.92c-.29.48-.66.83-1.11 1.06a3.2 3.2 0 0 1-1.43.32Zm.16-1.09c.43 0 .81-.1 1.16-.28.34-.2.62-.46.83-.82.2-.36.3-.78.3-1.27v-.6a2.15 2.15 0 0 0-1.16-1.96 2.42 2.42 0 0 0-1.14-.28 2.21 2.21 0 0 0-2.03 1.23 3.1 3.1 0 0 0-.29 1.38c0 .53.1.99.3 1.39a2.19 2.19 0 0 0 2.03 1.21Zm-11.35.86v-6.92h.99v2.97h-.16c0-.69.1-1.26.28-1.73.19-.47.47-.83.85-1.07.38-.25.86-.38 1.44-.38h.05c.88 0 1.52.27 1.93.82.43.54.64 1.33.64 2.36v3.95h-1.25v-4.21c0-.54-.15-.97-.45-1.29a1.6 1.6 0 0 0-1.24-.49c-.55 0-.99.17-1.33.5-.33.34-.5.8-.5 1.35v4.14h-1.25Zm-4.99.23c-.6 0-1.13-.1-1.57-.3a3.2 3.2 0 0 1-1.07-.82 3.64 3.64 0 0 1-.63-1.16 4.35 4.35 0 0 1-.19-1.3v-.23c0-.45.06-.88.2-1.3.13-.43.34-.81.62-1.15a2.9 2.9 0 0 1 1.05-.81 3.4 3.4 0 0 1 1.51-.31c.75 0 1.37.16 1.85.49.5.32.86.73 1.1 1.24.24.51.36 1.06.36 1.64v.55h-6.15v-.93h5.24l-.28.5c0-.49-.08-.91-.24-1.27a1.82 1.82 0 0 0-.7-.84c-.31-.2-.7-.3-1.18-.3-.49 0-.9.12-1.23.34-.32.23-.56.53-.73.92-.15.39-.23.84-.23 1.35 0 .5.08.94.23 1.33.17.4.42.7.76.94.33.22.76.33 1.28.33.54 0 .99-.12 1.32-.36.35-.24.56-.52.62-.84h1.17a2.75 2.75 0 0 1-1.65 2.02c-.43.18-.92.27-1.46.27Zm-9.23-.23-3.27-9.46h1.3l2.95 8.63-.63-.31H341l-.66.31 2.7-8.63h1.28l-3.05 9.46h-2.18Zm-7.69.78 2.64-10.89h1.17l-2.64 10.89h-1.17Zm-3.81-.57c-.91 0-1.62-.2-2.12-.59a2 2 0 0 1-.76-1.6h1.17c.01.28.15.53.4.77.26.24.7.35 1.3.35.56 0 .98-.1 1.28-.32a1 1 0 0 0 .44-.82c0-.28-.11-.5-.33-.66a2.15 2.15 0 0 0-1.05-.32l-.75-.08a3.1 3.1 0 0 1-1.6-.58 1.65 1.65 0 0 1-.63-1.38c0-.44.12-.81.34-1.12.22-.32.54-.57.93-.73.4-.17.86-.26 1.38-.26.77 0 1.4.17 1.89.52.48.34.73.86.75 1.54h-1.17a.89.89 0 0 0-.38-.7c-.25-.2-.61-.3-1.1-.3-.48 0-.84.1-1.1.3a.92.92 0 0 0-.37.75c0 .26.08.47.26.63.18.15.47.25.88.3l.75.07c.74.08 1.34.29 1.79.62.45.33.67.8.67 1.4 0 .44-.12.82-.37 1.16a2.5 2.5 0 0 1-1.01.77c-.44.19-.93.28-1.5.28Zm-11.21 2.38v-9.51h.99v3l-.24-.03c.05-.75.2-1.35.47-1.82.28-.47.64-.82 1.08-1.05.44-.22.92-.33 1.44-.33a3.17 3.17 0 0 1 2.42 1.06 3.91 3.91 0 0 1 .91 2.51v.24c0 .48-.09.94-.25 1.37a3.49 3.49 0 0 1-1.76 1.92c-.4.19-.86.28-1.35.28-.5 0-.96-.1-1.41-.32a2.65 2.65 0 0 1-1.12-1.05 4.09 4.09 0 0 1-.5-1.9l.57 1.03v4.6h-1.25Zm3.51-3.45a2.11 2.11 0 0 0 2.02-1.24c.2-.4.3-.85.3-1.36 0-.52-.1-.97-.3-1.36a2.16 2.16 0 0 0-2.01-1.25c-.42 0-.8.1-1.16.29a2.1 2.1 0 0 0-.85.8 2.4 2.4 0 0 0-.31 1.26v.6a2.14 2.14 0 0 0 1.18 1.99c.35.18.73.27 1.13.27Zm-7.16.86v-6.92h1.25v6.92h-1.25Zm-1.06-5.94v-.98h2.3v.98h-2.3Zm1.41-2.1c-.27 0-.48-.07-.62-.22a.81.81 0 0 1-.2-.55c0-.23.07-.41.2-.56.14-.15.35-.22.62-.22.28 0 .48.07.61.22.14.15.2.33.2.56 0 .22-.06.4-.2.55-.13.15-.33.22-.6.22Zm-8.97 8.04v-9.46h1.24v5.65h-.3c0-.68.08-1.27.25-1.76.18-.5.46-.89.83-1.16.37-.26.85-.4 1.43-.4h.05c.83 0 1.45.28 1.88.83.42.55.63 1.33.63 2.35v3.95h-1.24v-4.21c0-.56-.16-1-.48-1.31a1.65 1.65 0 0 0-1.22-.47c-.55 0-1 .19-1.34.56a2.1 2.1 0 0 0-.49 1.44v3.99h-1.24Zm-4.68.21c-.91 0-1.62-.2-2.12-.59a2 2 0 0 1-.76-1.6h1.16c.02.28.16.53.4.77.27.24.7.35 1.32.35.55 0 .97-.1 1.27-.32a1 1 0 0 0 .44-.82c0-.28-.11-.5-.33-.66a2.15 2.15 0 0 0-1.05-.32l-.75-.08a3.12 3.12 0 0 1-1.6-.58 1.66 1.66 0 0 1-.63-1.38c0-.44.12-.81.34-1.12a2 2 0 0 1 .93-.73c.4-.17.86-.26 1.38-.26.77 0 1.4.17 1.89.52.48.34.73.86.75 1.54h-1.17a.9.9 0 0 0-.38-.7c-.25-.2-.61-.3-1.1-.3-.48 0-.85.1-1.1.3a.92.92 0 0 0-.37.75c0 .26.08.47.26.63.18.15.47.25.88.3l.75.07c.74.08 1.34.29 1.79.62.45.33.67.8.67 1.4 0 .44-.12.82-.37 1.16a2.5 2.5 0 0 1-1.01.77c-.44.19-.93.28-1.5.28Zm-7.59-.21v-6.92h.99v2.85h-.06c0-1.01.23-1.75.67-2.22.44-.47 1.12-.7 2-.7h.24v1.1h-.44c-.7 0-1.23.2-1.6.56-.37.37-.55.9-.55 1.58v3.75h-1.25Zm-4.99.23c-.6 0-1.13-.1-1.57-.3a3.2 3.2 0 0 1-1.07-.82 3.66 3.66 0 0 1-.82-2.45v-.24c0-.45.06-.88.2-1.3.13-.43.34-.81.62-1.15a2.9 2.9 0 0 1 1.05-.81 3.4 3.4 0 0 1 1.51-.31c.75 0 1.37.16 1.86.49.49.32.85.73 1.08 1.24.25.51.37 1.06.37 1.64v.55h-6.15v-.93h5.24l-.29.5c0-.49-.07-.91-.23-1.27a1.83 1.83 0 0 0-.7-.84c-.31-.2-.7-.3-1.18-.3-.5 0-.9.12-1.23.34-.32.23-.56.53-.72.92a3.6 3.6 0 0 0-.24 1.35c0 .5.08.94.24 1.33.16.4.4.7.75.94.33.22.76.33 1.28.33.54 0 .98-.12 1.32-.36.35-.24.55-.52.62-.84h1.17a2.74 2.74 0 0 1-1.65 2.02c-.43.18-.92.27-1.46.27Zm-11.24-.23v-6.92h1v2.97h-.16c0-.69.09-1.26.27-1.73.19-.47.47-.83.85-1.07.38-.25.86-.38 1.44-.38h.06c.87 0 1.51.27 1.93.82.42.54.63 1.33.63 2.36v3.95h-1.24v-4.21c0-.54-.15-.97-.46-1.29a1.6 1.6 0 0 0-1.24-.49c-.55 0-.99.17-1.32.5-.34.34-.5.8-.5 1.35v4.14h-1.25Zm-2.81.08a3.9 3.9 0 0 1-1.35-.22 1.7 1.7 0 0 1-.87-.75 3.1 3.1 0 0 1-.3-1.47v-6.66h1.2v6.82c0 .37.1.66.3.86.2.2.49.3.86.3h1.22v1.12h-1.06Zm-3.71-6.07v-.93h4.77v.93h-4.77Zm-4.43 5.99v-6.92h.98v2.85h-.05c0-1.01.22-1.75.66-2.22.45-.47 1.12-.7 2-.7h.24v1.1h-.44c-.69 0-1.22.2-1.6.56-.36.37-.55.9-.55 1.58v3.75h-1.24Zm-3.27 0V42.6h-.2v-2.4c0-.48-.13-.84-.38-1.08-.25-.24-.6-.36-1.08-.36a27.5 27.5 0 0 0-2.32.08v-1.1a12.14 12.14 0 0 1 1.26-.06h.64c.71 0 1.3.08 1.74.25.45.16.78.44 1 .82.21.38.32.9.32 1.54v4.38h-.98Zm-2.27.18c-.52 0-.97-.09-1.35-.26a2.05 2.05 0 0 1-.87-.78c-.2-.33-.3-.74-.3-1.21 0-.5.11-.9.33-1.24.22-.32.55-.57.97-.73.43-.18.94-.26 1.53-.26h1.88v.93h-1.93c-.5 0-.89.12-1.15.36-.27.24-.4.56-.4.94 0 .38.13.68.4.92.26.23.65.35 1.15.35.3 0 .57-.06.84-.16.27-.11.49-.3.66-.54.18-.26.28-.62.3-1.07l.34.5c-.05.49-.17.9-.37 1.24-.19.33-.45.58-.8.75-.34.17-.75.26-1.23.26Zm-8.94-3.47v-1.12h2.11c.45 0 .82-.08 1.12-.26.3-.18.51-.42.66-.72.16-.3.23-.64.23-1.01 0-.38-.07-.72-.23-1.03-.15-.3-.37-.54-.66-.71-.3-.17-.67-.26-1.12-.26h-2.1v-1.11h1.87c.78 0 1.43.12 1.94.37.53.24.93.59 1.2 1.04.26.45.4.98.4 1.6v.2c0 .6-.14 1.14-.4 1.6-.27.44-.67.8-1.2 1.04a4.6 4.6 0 0 1-1.94.37h-1.88Zm-1.01 3.29v-9.51h1.27v9.5h-1.27Z"/>
  <path fill="#F5D164" d="m375.86 73.04 6.2-16.82h2.64l-6.2 16.82h-2.64Zm-1.2-7.65c-.9 0-1.63-.2-2.22-.6a3.82 3.82 0 0 1-1.3-1.63 5.78 5.78 0 0 1-.42-2.21v-.6c0-.88.14-1.65.43-2.3.3-.68.73-1.2 1.32-1.57.6-.39 1.33-.58 2.19-.58.89 0 1.63.2 2.2.58.6.37 1.03.89 1.32 1.56.3.66.44 1.43.44 2.3v.6c0 .8-.15 1.54-.44 2.22-.28.67-.7 1.22-1.29 1.63-.57.4-1.31.6-2.23.6Zm0-2.14c.55 0 .96-.2 1.22-.6a3.7 3.7 0 0 0 .41-1.98c0-.98-.14-1.67-.41-2.05a1.41 1.41 0 0 0-1.22-.58c-.54 0-.95.2-1.22.58-.27.38-.4 1.06-.4 2.03 0 .9.13 1.56.4 1.98.27.41.68.62 1.22.62Zm11.13 10.14c-.9 0-1.63-.2-2.22-.6a3.82 3.82 0 0 1-1.31-1.64 5.78 5.78 0 0 1-.41-2.2v-.6c0-.88.14-1.65.43-2.31.3-.68.73-1.2 1.32-1.57.6-.38 1.32-.57 2.19-.57.89 0 1.62.19 2.2.57.59.37 1.03.9 1.32 1.57.3.66.44 1.43.44 2.3v.6c0 .8-.15 1.54-.44 2.21-.28.68-.7 1.22-1.29 1.64-.57.4-1.31.6-2.23.6Zm0-2.14c.55 0 .95-.2 1.22-.6.27-.42.41-1.08.41-1.98 0-.99-.14-1.67-.41-2.06a1.4 1.4 0 0 0-1.22-.57c-.54 0-.95.2-1.23.57-.26.39-.39 1.06-.39 2.03 0 .9.13 1.57.4 1.98.27.42.68.63 1.22.63Zm-21.19 1.79V58.25l1 .78h-4.44v-2.8h6.68v16.81h-3.25Z"/>
  <path fill="#fff" d="M452.2 9.8c-.9 0-1.61-.2-2.11-.59a2 2 0 0 1-.77-1.59h1.17c.02.27.15.52.4.76.26.24.7.35 1.3.35.56 0 .99-.1 1.28-.32a1 1 0 0 0 .44-.82c0-.28-.1-.5-.32-.66a2.15 2.15 0 0 0-1.05-.32l-.75-.08a3.1 3.1 0 0 1-1.61-.58 1.65 1.65 0 0 1-.62-1.38c0-.44.1-.81.33-1.12.23-.32.54-.56.94-.73.4-.17.85-.26 1.37-.26.78 0 1.4.17 1.9.52.47.35.73.86.74 1.54h-1.16a.89.89 0 0 0-.4-.7c-.23-.2-.6-.3-1.08-.3-.48 0-.85.1-1.1.3a.92.92 0 0 0-.38.75c0 .26.09.47.26.63.18.15.48.25.88.3l.75.07a3.7 3.7 0 0 1 1.8.62c.44.33.67.8.67 1.4 0 .44-.13.82-.38 1.16-.24.33-.58.59-1.01.78-.43.18-.93.27-1.5.27Zm-7.58-.21V2.67h.98v2.85h-.05c0-1.01.22-1.75.66-2.22.45-.47 1.12-.7 2.01-.7h.23v1.1h-.44c-.69 0-1.22.2-1.6.56-.36.37-.55.9-.55 1.58V9.6h-1.24Zm-5.57.23a3.68 3.68 0 0 1-2.76-1.13 3.72 3.72 0 0 1-.72-1.15 3.74 3.74 0 0 1-.23-1.3v-.23a3.56 3.56 0 0 1 2.14-3.26c.46-.21.98-.31 1.57-.31a3.77 3.77 0 0 1 2.73 1.12 3.56 3.56 0 0 1 .97 2.45v.24a3.56 3.56 0 0 1-2.11 3.26 3.8 3.8 0 0 1-1.6.31Zm0-1.11a2.25 2.25 0 0 0 2.17-1.27c.19-.39.29-.83.29-1.31 0-.5-.1-.93-.3-1.32-.2-.4-.48-.7-.85-.92-.37-.23-.8-.34-1.31-.34-.5 0-.94.11-1.31.34-.37.22-.66.53-.86.92-.2.39-.3.83-.3 1.32 0 .48.1.92.29 1.3.2.4.48.7.84.94.37.23.82.34 1.34.34Zm-7.87 1.09c-.9 0-1.61-.2-2.12-.59a2 2 0 0 1-.76-1.59h1.17c.01.27.15.52.4.76.26.24.7.35 1.3.35.56 0 .98-.1 1.28-.32a1 1 0 0 0 .44-.82c0-.28-.1-.5-.32-.66a2.15 2.15 0 0 0-1.06-.32l-.75-.08a3.11 3.11 0 0 1-1.6-.58 1.65 1.65 0 0 1-.63-1.38c0-.44.12-.81.34-1.12.23-.32.54-.56.93-.73.4-.17.86-.26 1.38-.26.78 0 1.4.17 1.89.52.48.35.73.86.75 1.54h-1.17a.89.89 0 0 0-.38-.7c-.25-.2-.6-.3-1.1-.3-.48 0-.84.1-1.1.3a.92.92 0 0 0-.37.75c0 .26.09.47.26.63.18.15.48.25.88.3l.75.07a3.7 3.7 0 0 1 1.8.62c.44.33.67.8.67 1.4 0 .44-.13.82-.38 1.16-.24.33-.58.59-1.01.78-.43.18-.93.27-1.5.27Zm-5.92-.21V2.67h1.24v6.92h-1.24Zm-1.06-5.94v-.98h2.3v.98h-2.3Zm1.41-2.1c-.28 0-.48-.07-.62-.22a.81.81 0 0 1-.2-.55c0-.23.07-.41.2-.56.14-.15.34-.22.62-.22.28 0 .48.07.6.22.15.15.22.33.22.56 0 .22-.07.4-.21.55-.13.15-.33.23-.61.23Zm-6.45 8.05-2.36-6.93h1.3l2.3 6.92h-1.24Zm.31 0v-1h1.5v1h-1.5Zm.6 0 2-6.93h1.23l-2.05 6.92h-1.18Zm-8.43.22a3.36 3.36 0 0 1-2.45-1.03 3.68 3.68 0 0 1-.96-2.54V6a3.87 3.87 0 0 1 .93-2.52 3.2 3.2 0 0 1 2.44-1.05c.53 0 1 .1 1.44.33.43.22.78.56 1.06 1.03.28.46.43 1.07.47 1.81l-.52-.83V.13h1.24v9.46h-.98V6.52h.36c-.03.79-.2 1.42-.5 1.92-.29.48-.66.84-1.1 1.06a3.2 3.2 0 0 1-1.43.32Zm.17-1.08c.42 0 .8-.1 1.15-.29.35-.19.62-.46.83-.82.2-.36.31-.78.31-1.27v-.6a2.15 2.15 0 0 0-1.17-1.96 2.42 2.42 0 0 0-1.14-.27c-.45 0-.86.1-1.21.32s-.62.52-.82.9a3.1 3.1 0 0 0-.28 1.38c0 .53.1.99.3 1.39a2.17 2.17 0 0 0 2.02 1.22Zm-13.61.86 3.4-9.47h2.16l3.51 9.46h-1.3L402.78.96l.62.31h-1.53l.66-.31-3.07 8.63h-1.27Zm2.03-2.83.43-1.15h4.08l.43 1.15h-4.94Z"/>
  <path fill="#84C08B" d="m441.19 35.77 6.2-16.82h2.64l-6.2 16.82h-2.64Zm-1.2-7.65c-.9 0-1.63-.2-2.22-.6a3.82 3.82 0 0 1-1.3-1.64 5.78 5.78 0 0 1-.42-2.2v-.6c0-.88.14-1.65.44-2.31.29-.68.72-1.2 1.3-1.57.6-.38 1.34-.57 2.2-.57.89 0 1.63.19 2.2.57.6.37 1.03.9 1.32 1.57.3.66.44 1.43.44 2.3v.6c0 .8-.15 1.54-.44 2.21a3.6 3.6 0 0 1-1.29 1.64c-.57.4-1.31.6-2.23.6Zm0-2.15c.55 0 .96-.2 1.22-.6.27-.4.41-1.07.41-1.98 0-.98-.14-1.66-.41-2.05a1.41 1.41 0 0 0-1.22-.57c-.54 0-.95.19-1.22.57-.27.39-.4 1.06-.4 2.03 0 .9.13 1.57.4 1.98.27.42.68.62 1.22.62Zm11.13 10.14c-.9 0-1.63-.2-2.22-.6a3.83 3.83 0 0 1-1.31-1.63 5.78 5.78 0 0 1-.41-2.21v-.6c0-.88.14-1.65.43-2.3.3-.68.73-1.2 1.32-1.57a3.9 3.9 0 0 1 2.19-.58c.89 0 1.62.2 2.2.58.6.36 1.03.89 1.32 1.56.3.66.44 1.43.44 2.3v.6c0 .8-.15 1.54-.44 2.22-.28.67-.7 1.22-1.29 1.63-.57.4-1.31.6-2.24.6Zm0-2.14c.55 0 .95-.2 1.22-.6a3.7 3.7 0 0 0 .41-1.98c0-.98-.14-1.67-.41-2.05a1.4 1.4 0 0 0-1.22-.58c-.54 0-.95.2-1.23.58-.26.38-.39 1.06-.39 2.03 0 .9.13 1.56.4 1.98.27.41.68.62 1.22.62Zm-28.62 1.8v-3.23c0-.7.1-1.32.32-1.84.23-.52.6-.98 1.1-1.38a9.26 9.26 0 0 1 2.06-1.18l2.86-1.27a4.3 4.3 0 0 0 1.6-1.17 2.8 2.8 0 0 0 .58-1.82c0-.82-.24-1.46-.73-1.94-.48-.49-1.16-.73-2.05-.73-.9 0-1.59.24-2.08.73-.47.5-.71 1.18-.71 2.05h-3.16c0-1.04.23-1.98.67-2.8a4.75 4.75 0 0 1 1.98-1.99 6.71 6.71 0 0 1 3.3-.74c1.32 0 2.42.24 3.3.72a4.85 4.85 0 0 1 1.97 1.91c.45.78.67 1.66.67 2.63v.3c0 1.26-.35 2.3-1.06 3.15a8.7 8.7 0 0 1-3.1 2.17l-2.87 1.27a3.1 3.1 0 0 0-1.13.73c-.21.25-.32.59-.32 1.02v1.47l-.78-.85h9.33v2.79H422.5Z"/>
  <path fill="#fff" d="M523.17 27.93c-.9 0-1.61-.2-2.11-.59-.5-.38-.75-.92-.77-1.59h1.17c.01.27.15.52.4.76.26.24.7.35 1.3.35.56 0 .98-.1 1.28-.32a1 1 0 0 0 .44-.82c0-.28-.1-.5-.33-.66a2.15 2.15 0 0 0-1.04-.32l-.76-.08a3.11 3.11 0 0 1-1.6-.58 1.66 1.66 0 0 1-.63-1.38c0-.44.12-.81.34-1.12.23-.32.54-.56.93-.73.4-.17.86-.26 1.38-.26.78 0 1.4.17 1.89.52.48.35.74.86.75 1.54h-1.16a.9.9 0 0 0-.4-.7c-.24-.2-.6-.3-1.08-.3-.49 0-.85.1-1.1.3a.92.92 0 0 0-.38.75c0 .26.09.47.26.63.18.15.47.25.88.3l.75.07a3.7 3.7 0 0 1 1.8.62c.44.33.66.8.66 1.4 0 .44-.12.82-.37 1.16-.24.33-.58.58-1.01.78-.43.18-.93.27-1.5.27Zm-5.04-.13a3.9 3.9 0 0 1-1.35-.22c-.37-.15-.66-.4-.87-.75-.2-.37-.3-.85-.3-1.47V18.7h1.2v6.82c0 .37.1.66.3.87.2.2.5.3.86.3h1.22v1.1h-1.06Zm-3.7-6.07v-.93h4.76v.93h-4.77Zm-7.29 5.99V20.8h.99v2.97h-.16c0-.69.1-1.26.27-1.73.2-.47.48-.83.86-1.07.38-.25.86-.38 1.44-.38h.05c.87 0 1.52.27 1.93.82.42.54.64 1.33.64 2.36v3.95h-1.25v-4.21c0-.54-.15-.97-.45-1.29a1.6 1.6 0 0 0-1.25-.49c-.54 0-.98.17-1.32.5-.33.34-.5.8-.5 1.36v4.13h-1.25Zm-3.27 0v-2.07h-.2v-2.4c0-.48-.13-.83-.38-1.08-.24-.24-.6-.36-1.08-.36a27.17 27.17 0 0 0-2.31.08v-1.1a12.27 12.27 0 0 1 1.25-.06h.65c.7 0 1.29.08 1.74.25.45.16.78.44 1 .82.21.38.32.9.32 1.54v4.38h-.99Zm-2.26.18c-.52 0-.97-.08-1.35-.26a2.05 2.05 0 0 1-.87-.78c-.2-.33-.3-.74-.3-1.21 0-.5.11-.9.33-1.23.22-.33.54-.58.97-.74.42-.18.93-.26 1.53-.26h1.88v.93h-1.94c-.5 0-.88.12-1.15.36-.27.25-.4.56-.4.94 0 .38.13.68.4.92.27.23.65.35 1.16.35.29 0 .57-.06.84-.16.27-.11.49-.3.66-.54.18-.26.28-.62.3-1.07l.33.5c-.04.49-.16.9-.36 1.24-.19.33-.46.58-.8.75a2.6 2.6 0 0 1-1.23.26Zm-7.21-.18V20.8h.98v2.85h-.05c0-1.01.22-1.75.66-2.22.45-.47 1.12-.7 2-.7h.24v1.1h-.44c-.69 0-1.22.2-1.6.56-.36.37-.55.9-.55 1.58v3.75h-1.24Zm-6.37.23c-.73 0-1.4-.12-2-.36a4.5 4.5 0 0 1-2.52-2.58 5.43 5.43 0 0 1-.35-1.97v-.28a5.02 5.02 0 0 1 1.23-3.28 4.6 4.6 0 0 1 3.44-1.48c.78 0 1.48.15 2.1.45a3.71 3.71 0 0 1 2.12 3.09h-1.3a2.45 2.45 0 0 0-.51-1.31 2.6 2.6 0 0 0-1.07-.8 3.33 3.33 0 0 0-1.34-.26 3.36 3.36 0 0 0-2.44 1.02c-.3.33-.52.72-.69 1.18a5.18 5.18 0 0 0 .01 3.25 3.17 3.17 0 0 0 1.88 1.94c.44.17.92.25 1.44.25.74 0 1.38-.14 1.93-.44.57-.3.99-.69 1.27-1.16l-.46 1.54v-2.81h1.19v2.25c-.42.55-.97.99-1.63 1.3-.67.3-1.43.46-2.3.46Zm-.33-3.76v-1.06h5.06v1.06h-5.06Z"/>
  <path fill="#008B73" d="m502.05 53.9 6.2-16.82h2.65l-6.2 16.82h-2.65Zm-1.2-7.65c-.89 0-1.62-.2-2.2-.6a3.82 3.82 0 0 1-1.32-1.64 5.78 5.78 0 0 1-.42-2.2v-.6c0-.88.15-1.65.44-2.31.3-.68.73-1.2 1.31-1.57.6-.38 1.33-.58 2.2-.58.88 0 1.62.2 2.2.58.59.37 1.03.9 1.32 1.57.3.66.44 1.43.44 2.3v.6c0 .8-.15 1.54-.44 2.21-.28.68-.7 1.22-1.3 1.64-.56.4-1.3.6-2.23.6Zm0-2.15c.56 0 .96-.2 1.22-.6.28-.4.42-1.07.42-1.98 0-.98-.14-1.66-.42-2.05a1.4 1.4 0 0 0-1.22-.57c-.53 0-.94.19-1.22.57-.26.39-.39 1.06-.39 2.03 0 .9.13 1.57.4 1.98.27.42.68.62 1.21.62Zm11.13 10.14c-.89 0-1.63-.2-2.21-.6a3.83 3.83 0 0 1-1.31-1.63 5.8 5.8 0 0 1-.42-2.21v-.6c0-.88.15-1.65.44-2.3.3-.68.73-1.2 1.31-1.57.6-.39 1.33-.58 2.2-.58.88 0 1.62.2 2.2.58.59.36 1.03.89 1.32 1.56.29.66.44 1.43.44 2.3v.6c0 .8-.15 1.54-.44 2.22a3.6 3.6 0 0 1-1.3 1.63c-.56.4-1.3.6-2.23.6Zm0-2.14c.55 0 .96-.2 1.22-.6.28-.41.42-1.07.42-1.98 0-.98-.14-1.67-.42-2.05a1.4 1.4 0 0 0-1.22-.58c-.54 0-.94.2-1.22.58-.26.38-.4 1.06-.4 2.03 0 .9.14 1.56.4 1.98.28.41.69.62 1.22.62Zm-28.61 1.8v-3.23c0-.7.1-1.32.32-1.84.23-.52.6-.98 1.1-1.38a9.26 9.26 0 0 1 2.06-1.18L489.7 45a4.3 4.3 0 0 0 1.62-1.17 2.8 2.8 0 0 0 .57-1.82c0-.82-.24-1.46-.74-1.94-.47-.49-1.15-.73-2.05-.73a2.8 2.8 0 0 0-2.07.73c-.47.5-.71 1.18-.71 2.05h-3.16c0-1.04.22-1.98.67-2.8a4.7 4.7 0 0 1 1.98-1.99 6.69 6.69 0 0 1 3.3-.74c1.31 0 2.41.24 3.29.72a4.86 4.86 0 0 1 1.98 1.91c.45.78.67 1.66.67 2.63v.3c0 1.26-.35 2.3-1.06 3.15a8.7 8.7 0 0 1-3.11 2.17l-2.86 1.27c-.54.23-.91.47-1.13.73-.21.25-.32.59-.32 1.02v1.47l-.78-.85h9.33v2.79h-11.75Z"/>
  <path fill="#fff" d="M774.82 58.89c-.9 0-1.6-.2-2.1-.59a2 2 0 0 1-.77-1.59h1.16c.02.27.15.52.4.76.26.24.7.35 1.31.35.56 0 .98-.1 1.27-.32a1 1 0 0 0 .44-.82c0-.28-.1-.5-.32-.66a2.15 2.15 0 0 0-1.05-.32l-.75-.08a3.1 3.1 0 0 1-1.6-.58 1.65 1.65 0 0 1-.63-1.38c0-.44.11-.81.34-1.12.22-.32.53-.56.93-.73.4-.17.86-.26 1.37-.26.78 0 1.41.17 1.9.52.48.35.73.86.75 1.54h-1.17a.89.89 0 0 0-.39-.7c-.24-.2-.6-.3-1.09-.3-.48 0-.85.1-1.1.3a.92.92 0 0 0-.37.75c0 .26.08.47.26.63.18.15.47.25.88.3l.75.07c.74.08 1.34.29 1.79.62.45.33.67.8.67 1.4 0 .44-.12.82-.37 1.16-.25.33-.58.58-1.01.77-.44.19-.93.28-1.5.28Zm-7.58-.21v-6.92h.99v2.85h-.06c0-1.01.23-1.75.67-2.22.45-.47 1.12-.7 2-.7h.24v1.1h-.44c-.7 0-1.23.2-1.6.56-.37.37-.55.9-.55 1.58v3.75h-1.25Zm-5.57.23a3.68 3.68 0 0 1-2.76-1.13 3.72 3.72 0 0 1-.71-1.15 3.74 3.74 0 0 1-.24-1.3v-.23a3.56 3.56 0 0 1 2.14-3.26c.46-.21.98-.31 1.57-.31a3.77 3.77 0 0 1 2.74 1.12 3.56 3.56 0 0 1 .97 2.45v.24a3.56 3.56 0 0 1-2.12 3.26c-.45.21-.98.31-1.59.31Zm0-1.11a2.25 2.25 0 0 0 2.16-1.27c.2-.39.3-.83.3-1.31 0-.5-.1-.93-.3-1.32-.2-.4-.48-.7-.85-.92-.36-.23-.8-.34-1.3-.34-.51 0-.95.11-1.32.34-.37.22-.65.53-.85.92-.2.39-.3.83-.3 1.32 0 .48.1.92.28 1.3.2.4.48.7.85.94.37.23.81.34 1.33.34Zm-5.96.96a3.9 3.9 0 0 1-1.35-.22 1.7 1.7 0 0 1-.86-.75c-.2-.37-.3-.85-.3-1.47v-6.66h1.19v6.82c0 .37.1.66.3.87.2.2.5.3.87.3h1.22v1.1h-1.07Zm-3.7-6.07v-.93h4.76v.93h-4.76Zm-4.73 6.2a2.3 2.3 0 0 1-1.9-.8 3.57 3.57 0 0 1-.66-2.33v-4.01h1.25V56c0 .54.14.97.44 1.28.3.3.69.46 1.19.46.52 0 .94-.17 1.27-.5.33-.33.5-.8.5-1.37v-4.13h1.24v6.93h-.99V55.7h.16c0 .68-.1 1.26-.27 1.74a2.3 2.3 0 0 1-.82 1.07c-.36.25-.8.37-1.36.37h-.05Zm-7.68.02a3.1 3.1 0 0 1-1.53-.37c-.44-.25-.8-.62-1.05-1.1a3.96 3.96 0 0 1-.43-1.73h.34v2.97h-.99v-9.46h1.25v4.6l-.44.95c.03-.76.18-1.37.45-1.84.27-.48.62-.83 1.05-1.05.44-.24.92-.35 1.45-.35a3.14 3.14 0 0 1 2.4 1.05c.3.32.52.7.67 1.12.16.43.24.88.24 1.38v.23a3.88 3.88 0 0 1-.94 2.54 3.3 3.3 0 0 1-2.47 1.06Zm-.14-1.09a2.19 2.19 0 0 0 2.02-1.25c.19-.4.28-.86.28-1.38 0-.52-.1-.97-.3-1.36a2.08 2.08 0 0 0-.8-.9 2.23 2.23 0 0 0-1.2-.32c-.42 0-.8.1-1.16.29a2.1 2.1 0 0 0-.85.8 2.4 2.4 0 0 0-.31 1.26v.6a2.14 2.14 0 0 0 1.18 1.99c.35.18.73.27 1.14.27Zm-7.16.86v-6.92h1.24v6.92h-1.25Zm-1.07-5.94v-.98h2.3v.98h-2.3Zm1.41-2.1c-.27 0-.48-.07-.62-.22a.8.8 0 0 1-.2-.55.8.8 0 0 1 .2-.56c.14-.15.35-.22.62-.22.28 0 .48.07.61.22.14.15.21.33.21.56a.8.8 0 0 1-.2.55c-.14.15-.34.23-.62.23Zm-6 8.04v-6.92h.99v2.85h-.06c0-1.01.22-1.75.66-2.22.45-.47 1.12-.7 2.01-.7h.24v1.1h-.44c-.7 0-1.23.2-1.6.56-.37.37-.56.9-.56 1.58v3.75h-1.24Zm-2.82.08a3.9 3.9 0 0 1-1.35-.22c-.37-.15-.66-.4-.87-.75-.2-.37-.3-.85-.3-1.47v-6.66h1.2v6.82c0 .37.1.66.3.87.2.2.5.3.86.3h1.22v1.1h-1.06Zm-3.7-6.07v-.93h4.76v.93h-4.77Zm-7.29 5.99v-6.92h.99v2.97h-.16c0-.69.1-1.26.27-1.73.2-.47.48-.83.86-1.07.38-.25.86-.38 1.44-.38h.05c.87 0 1.52.27 1.93.82.42.54.63 1.33.63 2.36v3.95h-1.24v-4.21c0-.54-.15-.97-.45-1.29a1.6 1.6 0 0 0-1.25-.49c-.54 0-.98.17-1.32.5-.34.34-.5.8-.5 1.36v4.13h-1.25Zm-5.57.23a3.67 3.67 0 0 1-2.76-1.13 3.72 3.72 0 0 1-.71-1.15 3.72 3.72 0 0 1-.23-1.3v-.23a3.56 3.56 0 0 1 2.14-3.26c.45-.21.98-.31 1.56-.31a3.76 3.76 0 0 1 2.74 1.12 3.56 3.56 0 0 1 .97 2.45v.24a3.56 3.56 0 0 1-2.11 3.26c-.46.21-1 .31-1.6.31Zm0-1.11a2.25 2.25 0 0 0 2.16-1.27c.2-.39.3-.83.3-1.31 0-.5-.1-.93-.3-1.32-.2-.4-.48-.7-.85-.92-.36-.23-.8-.34-1.3-.34s-.94.11-1.32.34c-.37.22-.65.53-.85.92-.2.39-.3.83-.3 1.32 0 .48.1.92.29 1.3.2.4.48.7.84.94.37.23.82.34 1.33.34Zm-9.2 1.11c-.86 0-1.6-.15-2.21-.45-.61-.3-1.1-.7-1.47-1.18-.37-.48-.64-1-.82-1.57a5.66 5.66 0 0 1-.25-1.64v-.29a4.93 4.93 0 0 1 1.08-3.26c.38-.47.86-.85 1.46-1.13.6-.29 1.3-.43 2.13-.43.85 0 1.58.15 2.18.44.6.3 1.09.7 1.44 1.23.35.53.57 1.15.65 1.87h-1.3a2.52 2.52 0 0 0-1.57-2.11 3.6 3.6 0 0 0-1.4-.26c-.56 0-1.05.1-1.47.3-.43.18-.78.46-1.07.81-.27.35-.49.75-.63 1.2a5.14 5.14 0 0 0 0 2.95c.15.46.36.86.65 1.22a3.19 3.19 0 0 0 2.6 1.14c.81 0 1.5-.2 2.05-.61.55-.4.89-1 1.01-1.76h1.3c-.1.64-.31 1.23-.66 1.77a3.7 3.7 0 0 1-1.46 1.28 4.8 4.8 0 0 1-2.24.48Zm-12.23 0c-.6 0-1.13-.1-1.57-.3-.44-.21-.8-.49-1.07-.82a3.62 3.62 0 0 1-.63-1.16 4.4 4.4 0 0 1-.2-1.3v-.23c0-.45.07-.88.2-1.3.14-.43.35-.8.63-1.15a2.9 2.9 0 0 1 1.04-.81c.44-.21.94-.31 1.52-.31.75 0 1.37.16 1.86.49.49.32.85.73 1.08 1.24.25.51.37 1.06.37 1.64v.55h-6.15v-.93h5.24l-.29.5c0-.49-.07-.91-.23-1.26a1.83 1.83 0 0 0-.7-.85c-.31-.2-.7-.3-1.18-.3-.5 0-.9.12-1.23.34-.32.23-.56.53-.73.92a3.6 3.6 0 0 0-.23 1.35c0 .5.08.94.24 1.33.16.4.4.7.75.94.33.22.76.33 1.28.33.54 0 .98-.12 1.32-.36.35-.24.55-.52.62-.84h1.17a2.75 2.75 0 0 1-1.65 2.02c-.43.18-.92.27-1.46.27Zm-8.18-.23v-6.92h.98v2.85h-.05c0-1.01.22-1.75.66-2.22.45-.47 1.12-.7 2.01-.7h.24v1.1h-.45c-.69 0-1.22.2-1.59.56-.37.37-.56.9-.56 1.58v3.75h-1.24Zm-5.57.23a3.68 3.68 0 0 1-2.76-1.13 3.74 3.74 0 0 1-.72-1.15 3.74 3.74 0 0 1-.23-1.3v-.23a3.56 3.56 0 0 1 2.14-3.26c.46-.21.98-.31 1.57-.31a3.76 3.76 0 0 1 2.73 1.12 3.56 3.56 0 0 1 .97 2.45v.24a3.56 3.56 0 0 1-.95 2.45 3.77 3.77 0 0 1-2.76 1.12Zm0-1.11a2.25 2.25 0 0 0 2.16-1.27c.2-.39.3-.83.3-1.31 0-.5-.1-.93-.3-1.32-.2-.4-.48-.7-.85-.92-.37-.23-.8-.34-1.31-.34-.5 0-.94.11-1.31.34-.37.22-.66.53-.86.92-.2.39-.3.83-.3 1.32 0 .48.1.92.29 1.3.2.4.48.7.84.94.37.23.82.34 1.34.34Zm-9.2 1.11c-.87 0-1.6-.15-2.22-.45-.6-.3-1.1-.7-1.46-1.18-.38-.48-.65-1-.82-1.57a5.66 5.66 0 0 1-.26-1.64v-.29c0-.57.09-1.14.26-1.71.18-.57.46-1.09.83-1.55a4 4 0 0 1 1.45-1.13c.6-.29 1.31-.43 2.14-.43.85 0 1.57.15 2.18.44.6.3 1.08.7 1.43 1.23.36.53.58 1.15.65 1.87h-1.3a2.5 2.5 0 0 0-1.57-2.11 3.6 3.6 0 0 0-1.39-.26c-.56 0-1.05.1-1.48.3-.42.18-.78.46-1.06.81-.28.35-.49.75-.64 1.2a5.14 5.14 0 0 0 0 2.95c.15.46.37.86.65 1.22a3.19 3.19 0 0 0 2.6 1.14c.82 0 1.5-.2 2.05-.61.56-.4.9-1 1.02-1.76h1.3c-.1.64-.32 1.23-.67 1.77a3.7 3.7 0 0 1-1.45 1.28 4.8 4.8 0 0 1-2.24.48Z"/>
  <path fill="#46A6FF" d="m694.43 84.86 6.2-16.82h2.64l-6.2 16.82h-2.64Zm-1.2-7.65c-.9 0-1.63-.2-2.21-.6a3.82 3.82 0 0 1-1.32-1.64 5.78 5.78 0 0 1-.41-2.2v-.6c0-.88.14-1.65.44-2.31.29-.68.73-1.2 1.31-1.57.6-.38 1.33-.58 2.19-.58.89 0 1.63.2 2.21.58.58.37 1.02.9 1.31 1.57.3.66.44 1.43.44 2.3v.6c0 .8-.14 1.54-.44 2.21a3.6 3.6 0 0 1-1.29 1.64c-.57.4-1.3.6-2.23.6Zm0-2.15c.55 0 .96-.2 1.22-.6.28-.4.41-1.07.41-1.98 0-.98-.13-1.66-.41-2.05a1.4 1.4 0 0 0-1.22-.57c-.54 0-.95.19-1.22.57-.26.39-.4 1.06-.4 2.03 0 .9.14 1.57.4 1.98.27.42.68.62 1.22.62Zm11.13 10.14c-.9 0-1.63-.2-2.22-.6a3.83 3.83 0 0 1-1.3-1.63 5.8 5.8 0 0 1-.42-2.21v-.6c0-.88.14-1.65.44-2.3.29-.68.73-1.2 1.3-1.57.6-.39 1.34-.58 2.2-.58.89 0 1.63.2 2.2.58.6.36 1.03.89 1.32 1.56.3.66.44 1.43.44 2.3v.6c0 .8-.15 1.54-.44 2.22-.27.67-.7 1.22-1.29 1.63-.57.4-1.31.6-2.23.6Zm0-2.14c.55 0 .96-.2 1.22-.6a3.7 3.7 0 0 0 .41-1.98c0-.98-.13-1.67-.41-2.05a1.4 1.4 0 0 0-1.22-.58c-.54 0-.95.2-1.22.58-.26.38-.4 1.06-.4 2.03 0 .9.13 1.56.4 1.98.27.41.68.62 1.22.62ZM680 85.3a7.92 7.92 0 0 1-3.36-.65 6.24 6.24 0 0 1-2.25-1.8 7.76 7.76 0 0 1-1.3-2.62c-.25-1-.38-2.05-.38-3.14V75.8c0-1.55.26-2.95.78-4.2a6.49 6.49 0 0 1 2.4-2.94 7.14 7.14 0 0 1 4.12-1.1 7.1 7.1 0 0 1 4.1 1.1 6.35 6.35 0 0 1 2.37 2.95c.52 1.24.79 2.64.79 4.2v1.28c0 1.1-.14 2.14-.42 3.14a7.45 7.45 0 0 1-1.27 2.62 6.03 6.03 0 0 1-2.23 1.8c-.92.43-2.04.64-3.34.64Zm0-3c1.38 0 2.38-.47 3.03-1.4.64-.96.97-2.43.97-4.43 0-2.12-.34-3.63-1-4.54-.66-.92-1.65-1.38-3-1.38-1.34 0-2.36.46-3.03 1.38-.66.9-1 2.4-1 4.5 0 2 .34 3.49 1 4.44.66.95 1.67 1.43 3.04 1.43Zm-21.67 2.56v-3.23c0-.7.1-1.32.32-1.84.23-.52.6-.99 1.1-1.38a9.26 9.26 0 0 1 2.06-1.18l2.85-1.27a4.3 4.3 0 0 0 1.62-1.17 2.8 2.8 0 0 0 .57-1.82c0-.82-.24-1.46-.73-1.94-.48-.49-1.16-.73-2.05-.73a2.8 2.8 0 0 0-2.08.73c-.47.5-.71 1.18-.71 2.05h-3.16c0-1.04.22-1.98.67-2.8a4.75 4.75 0 0 1 1.98-1.99c.88-.5 1.97-.74 3.3-.74 1.32 0 2.41.24 3.29.72a4.86 4.86 0 0 1 1.98 1.91c.45.78.67 1.66.67 2.63v.3c0 1.26-.35 2.3-1.06 3.15a8.69 8.69 0 0 1-3.11 2.17l-2.86 1.27a3.1 3.1 0 0 0-1.13.73c-.21.25-.32.59-.32 1.02v1.47l-.78-.85h9.33v2.79h-11.75Z"/>
  <path fill="#fff" d="M854.43 412.87c-.9 0-1.6-.2-2.1-.58-.5-.4-.76-.93-.77-1.6h1.16c.02.27.15.52.4.77.26.23.7.35 1.31.35.56 0 .98-.11 1.27-.33a1 1 0 0 0 .44-.81c0-.29-.1-.51-.32-.67a2.15 2.15 0 0 0-1.05-.32l-.75-.08a3.1 3.1 0 0 1-1.6-.58 1.65 1.65 0 0 1-.63-1.37c0-.44.11-.82.34-1.13.22-.32.53-.56.93-.73.4-.17.86-.26 1.37-.26.78 0 1.41.18 1.9.52.48.35.73.86.75 1.54h-1.17a.89.89 0 0 0-.39-.7c-.24-.2-.6-.3-1.09-.3-.48 0-.85.1-1.1.3a.92.92 0 0 0-.37.76c0 .25.08.46.26.62.18.15.47.25.88.3l.75.07c.74.08 1.34.29 1.79.63.45.32.67.8.67 1.4 0 .43-.12.81-.38 1.15a2.4 2.4 0 0 1-1 .78 3.9 3.9 0 0 1-1.5.27Zm-7.58-.21v-6.92h.99v2.85h-.06c0-1.01.23-1.75.67-2.21.44-.48 1.12-.72 2-.72h.24v1.12h-.44c-.7 0-1.23.18-1.6.55-.37.37-.55.9-.55 1.59v3.74h-1.25Zm-5.57.24a3.7 3.7 0 0 1-2.76-1.13 3.76 3.76 0 0 1-.71-1.16 3.74 3.74 0 0 1-.24-1.3v-.23a3.56 3.56 0 0 1 2.14-3.26c.46-.2.98-.31 1.57-.31a3.77 3.77 0 0 1 2.74 1.12 3.56 3.56 0 0 1 .97 2.45v.24a3.56 3.56 0 0 1-.96 2.45 3.53 3.53 0 0 1-2.75 1.12Zm0-1.12a2.26 2.26 0 0 0 2.16-1.27c.2-.39.3-.83.3-1.31 0-.5-.1-.93-.3-1.32-.2-.39-.48-.7-.85-.92-.36-.23-.8-.34-1.3-.34-.51 0-.95.11-1.32.34-.37.22-.65.53-.85.92-.2.39-.3.83-.3 1.32 0 .48.1.92.28 1.3.2.4.48.7.85.94.37.23.81.34 1.33.34Zm-5.96.96c-.52 0-.97-.07-1.35-.22a1.7 1.7 0 0 1-.86-.75c-.2-.37-.3-.85-.3-1.47v-6.66H834v6.82c0 .37.1.66.3.87.2.2.5.3.87.3h1.22v1.1h-1.07Zm-3.7-6.07v-.93h4.76v.93h-4.76Zm-3.67 6.2c-.91 0-1.62-.2-2.12-.58a2 2 0 0 1-.76-1.6h1.16c.02.27.16.52.4.77.27.23.7.35 1.32.35.55 0 .97-.11 1.27-.33a1 1 0 0 0 .44-.81.78.78 0 0 0-.33-.67 2.15 2.15 0 0 0-1.05-.32l-.75-.08a3.1 3.1 0 0 1-1.6-.58 1.65 1.65 0 0 1-.63-1.37c0-.44.11-.82.34-1.13.22-.32.53-.56.93-.73.4-.17.86-.26 1.38-.26.77 0 1.4.18 1.89.52.48.35.73.86.75 1.54h-1.17a.89.89 0 0 0-.39-.7c-.24-.2-.6-.3-1.08-.3-.49 0-.86.1-1.1.3a.92.92 0 0 0-.38.76c0 .25.08.46.26.62.18.15.47.25.88.3l.75.07c.74.08 1.34.29 1.79.63.45.32.67.8.67 1.4 0 .43-.12.81-.37 1.15a2.5 2.5 0 0 1-1.01.78 3.9 3.9 0 0 1-1.5.27Zm-7.27.03c-.6 0-1.13-.11-1.56-.32-.45-.2-.8-.48-1.08-.81a3.66 3.66 0 0 1-.62-1.16c-.13-.42-.2-.85-.2-1.3v-.23c0-.44.07-.88.2-1.3.13-.43.34-.8.62-1.15.28-.34.63-.61 1.05-.81.43-.2.94-.31 1.51-.31.76 0 1.38.16 1.86.49.5.32.85.73 1.09 1.24.24.51.36 1.06.36 1.64v.55h-6.14v-.93H823l-.28.5c0-.49-.08-.91-.24-1.26a1.81 1.81 0 0 0-.7-.85c-.3-.2-.7-.3-1.17-.3-.5 0-.9.12-1.24.34-.32.23-.56.53-.72.92-.16.4-.24.84-.24 1.35 0 .5.08.94.24 1.34.16.38.41.7.75.93.34.22.76.33 1.28.33.55 0 .99-.12 1.33-.36.34-.24.55-.52.62-.84h1.16a2.74 2.74 0 0 1-1.64 2.02c-.43.18-.92.27-1.47.27Zm-8.58-.24-2.35-6.92h1.3l2.3 6.92h-1.24Zm.32 0v-.98h1.5v.98h-1.5Zm.6 0 2-6.92h1.22l-2.05 6.92h-1.18Zm-10.63 0v-6.92h.98v2.97h-.15c0-.68.09-1.26.27-1.72.19-.48.48-.84.86-1.08.38-.25.86-.38 1.43-.38h.06c.87 0 1.51.28 1.93.82.42.54.63 1.33.63 2.36v3.95h-1.24v-4.21c0-.54-.15-.96-.46-1.28a1.6 1.6 0 0 0-1.24-.5c-.54 0-.99.17-1.32.5-.34.35-.5.8-.5 1.36v4.13h-1.25Zm-3.87 0v-9.46h1.27v9.46h-1.27Z"/>
  <path fill="#D8503F" d="m834.83 438.84 6.2-16.82h2.64l-6.2 16.82h-2.64Zm-1.2-7.65c-.9 0-1.63-.2-2.21-.6a3.83 3.83 0 0 1-1.32-1.64 5.8 5.8 0 0 1-.41-2.2v-.6c0-.88.14-1.65.44-2.31.29-.68.73-1.2 1.31-1.57.6-.38 1.33-.57 2.19-.57.89 0 1.63.19 2.21.57.58.37 1.02.9 1.31 1.57.3.66.44 1.43.44 2.3v.6c0 .8-.14 1.54-.44 2.21a3.6 3.6 0 0 1-1.29 1.64c-.56.4-1.3.6-2.23.6Zm0-2.14c.55 0 .96-.2 1.22-.6.28-.42.41-1.08.41-1.99 0-.98-.13-1.66-.41-2.05a1.4 1.4 0 0 0-1.22-.57c-.54 0-.95.19-1.22.57-.26.39-.4 1.06-.4 2.03 0 .9.14 1.57.4 1.98.27.42.68.63 1.22.63Zm11.13 10.13c-.9 0-1.63-.2-2.21-.6a3.83 3.83 0 0 1-1.32-1.63 5.8 5.8 0 0 1-.41-2.21v-.6c0-.88.14-1.65.44-2.3.29-.68.73-1.2 1.3-1.57.6-.39 1.34-.58 2.2-.58.89 0 1.63.2 2.2.58.6.37 1.03.89 1.32 1.56.3.66.44 1.43.44 2.3v.6c0 .8-.14 1.54-.44 2.22-.27.67-.7 1.22-1.29 1.63-.57.4-1.31.6-2.23.6Zm0-2.14c.55 0 .96-.2 1.22-.6a3.7 3.7 0 0 0 .41-1.98c0-.98-.13-1.67-.41-2.05a1.41 1.41 0 0 0-1.22-.58c-.54 0-.95.2-1.22.58-.26.38-.4 1.06-.4 2.03 0 .9.13 1.56.4 1.98.27.41.68.62 1.22.62Zm-24.36 2.23a7.92 7.92 0 0 1-3.36-.64 6.26 6.26 0 0 1-2.25-1.8 7.8 7.8 0 0 1-1.3-2.62c-.25-1-.38-2.05-.38-3.14v-1.29c0-1.55.26-2.95.78-4.2a6.49 6.49 0 0 1 2.4-2.94 7.14 7.14 0 0 1 4.12-1.1 7.1 7.1 0 0 1 4.1 1.1 6.34 6.34 0 0 1 2.37 2.95c.53 1.24.79 2.64.79 4.2v1.28c0 1.1-.14 2.14-.42 3.14a7.45 7.45 0 0 1-1.26 2.62 6.04 6.04 0 0 1-2.24 1.8c-.92.43-2.03.64-3.34.64Zm0-2.99c1.38 0 2.38-.47 3.03-1.4.64-.96.97-2.43.97-4.43 0-2.12-.33-3.63-1-4.54-.66-.92-1.65-1.38-3-1.38-1.34 0-2.36.46-3.03 1.38-.66.9-1 2.4-1 4.5 0 2 .34 3.49 1 4.44.66.95 1.67 1.43 3.04 1.43Zm-21.67 2.56v-3.23c0-.7.1-1.32.32-1.84.23-.52.6-.98 1.1-1.38a9.26 9.26 0 0 1 2.06-1.18l2.86-1.27c.7-.32 1.24-.71 1.6-1.17a2.8 2.8 0 0 0 .58-1.82 2.6 2.6 0 0 0-.73-1.94c-.48-.49-1.16-.73-2.05-.73-.9 0-1.59.24-2.08.73-.47.5-.71 1.18-.71 2.05h-3.16c0-1.04.22-1.98.67-2.8a4.7 4.7 0 0 1 1.98-1.99 6.71 6.71 0 0 1 3.3-.74c1.32 0 2.41.24 3.3.72a4.86 4.86 0 0 1 1.97 1.91c.45.78.67 1.66.67 2.63v.3c0 1.26-.35 2.3-1.06 3.15a8.67 8.67 0 0 1-3.11 2.17l-2.86 1.27a3.1 3.1 0 0 0-1.13.73c-.21.25-.32.59-.32 1.02v1.47l-.78-.85h9.33v2.79h-11.75Z"/>
  <path fill="#fff" d="M738.66 625.32v-9.46h1.25v5.65h-.31c0-.68.08-1.27.26-1.76.18-.5.45-.89.83-1.16.37-.26.84-.4 1.42-.4h.05c.83 0 1.46.28 1.88.83.43.55.64 1.33.64 2.35v3.95h-1.25v-4.21c0-.56-.16-1-.48-1.31a1.65 1.65 0 0 0-1.21-.47c-.56 0-1 .19-1.34.56-.33.36-.5.84-.5 1.44v3.99h-1.24Zm-2.82.08c-.51 0-.96-.08-1.35-.22a1.7 1.7 0 0 1-.86-.75c-.2-.37-.3-.85-.3-1.47v-6.66h1.2v6.82c0 .37.1.66.29.87.2.2.5.3.87.3h1.22v1.1h-1.07Zm-3.7-6.07v-.93h4.77v.93h-4.77Zm-8.08 5.99 1.4-6.69h1.68l1.63 6.69h-1.06l-1.63-6.66h.41l-1.4 6.66h-1.03Zm-.64 0v-.99h1.44v.99h-1.44Zm-.28 0-1.96-6.92h1.2l1.9 6.92h-1.14Zm4.83 0v-.99h1.44v.99h-1.44Zm.58 0 1.66-6.92h1.13l-1.7 6.92h-1.09Zm-11.95.23a3.67 3.67 0 0 1-2.76-1.13 3.72 3.72 0 0 1-.72-1.15 3.74 3.74 0 0 1-.24-1.3v-.23a3.56 3.56 0 0 1 2.14-3.26c.46-.21.98-.31 1.57-.31a3.76 3.76 0 0 1 2.74 1.12 3.56 3.56 0 0 1 .97 2.45v.24a3.56 3.56 0 0 1-.96 2.45 3.65 3.65 0 0 1-2.75 1.12Zm0-1.11a2.26 2.26 0 0 0 2.16-1.27c.2-.39.3-.83.3-1.31 0-.5-.1-.93-.3-1.32a2.38 2.38 0 0 0-2.16-1.26c-.51 0-.95.11-1.32.34-.37.22-.65.53-.85.92-.2.39-.3.83-.3 1.32 0 .48.1.92.28 1.3.2.4.48.7.85.94.37.23.81.34 1.33.34Zm-8.44.88v-6.92h.99v2.85h-.05c0-1.01.22-1.75.66-2.22.45-.47 1.12-.7 2-.7h.24v1.1h-.44c-.7 0-1.22.2-1.6.56-.37.37-.55.9-.55 1.58v3.75h-1.25Zm-6.36.23c-.74 0-1.4-.12-2-.36a4.5 4.5 0 0 1-2.52-2.58 5.41 5.41 0 0 1-.35-1.97v-.28a5 5 0 0 1 1.23-3.28c.4-.46.9-.82 1.47-1.08.58-.27 1.24-.4 1.96-.4.79 0 1.49.15 2.1.45a3.72 3.72 0 0 1 2.13 3.09h-1.3a2.44 2.44 0 0 0-.52-1.31 2.6 2.6 0 0 0-1.06-.8 3.33 3.33 0 0 0-1.35-.26 3.36 3.36 0 0 0-2.44 1.02c-.29.33-.52.72-.68 1.18a5.16 5.16 0 0 0 .01 3.25 3.15 3.15 0 0 0 1.88 1.94c.44.17.92.25 1.44.25.73 0 1.38-.14 1.93-.44.56-.3.99-.69 1.27-1.17l-.47 1.55v-2.82h1.2v2.26a4.4 4.4 0 0 1-1.64 1.3c-.66.3-1.43.46-2.3.46Zm-.34-3.76v-1.06h5.07v1.06h-5.07Zm-19.56 3.53v-6.92h.99v2.97h-.16c0-.68.09-1.25.26-1.71.18-.48.45-.84.8-1.1.36-.24.8-.37 1.35-.37h.05a2.1 2.1 0 0 1 2.15 1.47c.18.46.26 1.03.26 1.7h-.36c0-.67.1-1.24.27-1.7.19-.48.45-.84.8-1.1.37-.24.82-.37 1.37-.37h.05c.54 0 1 .13 1.36.38.36.25.63.61.8 1.09.19.46.28 1.03.28 1.7v3.96h-1.25v-4.23c0-.56-.14-.99-.41-1.3a1.46 1.46 0 0 0-1.16-.46c-.5 0-.92.17-1.23.5-.3.31-.46.76-.46 1.34v4.15h-1.25v-4.23c0-.56-.14-.99-.41-1.3a1.46 1.46 0 0 0-1.16-.46c-.5 0-.92.17-1.23.5-.3.31-.46.76-.46 1.34v4.15h-1.25Zm-5 .23c-.6 0-1.12-.1-1.56-.3-.44-.22-.8-.49-1.08-.82a3.62 3.62 0 0 1-.62-1.16c-.13-.42-.2-.85-.2-1.3v-.23c0-.45.07-.88.2-1.3.14-.43.35-.81.62-1.15.28-.34.63-.61 1.05-.81.44-.21.94-.31 1.52-.31.75 0 1.37.16 1.85.49.5.32.86.73 1.1 1.24.23.51.36 1.06.36 1.64v.55h-6.15v-.93h5.24l-.29.5c0-.49-.08-.91-.23-1.26a1.81 1.81 0 0 0-.7-.85c-.31-.2-.7-.3-1.18-.3-.5 0-.9.12-1.23.34-.32.23-.56.53-.73.92a3.6 3.6 0 0 0-.23 1.35c0 .5.08.94.23 1.33.17.4.42.7.75.94.34.22.77.34 1.29.34.54 0 .98-.13 1.32-.37.35-.24.55-.52.62-.84h1.17a2.74 2.74 0 0 1-1.65 2.02c-.43.18-.92.27-1.46.27Zm-5.7-.15a3.9 3.9 0 0 1-1.35-.22 1.7 1.7 0 0 1-.87-.75c-.2-.37-.3-.85-.3-1.47v-6.66h1.2v6.82c0 .37.1.66.3.87.2.2.49.3.86.3h1.22v1.1h-1.06Zm-3.71-6.07v-.93h4.77v.93h-4.77Zm-3.67 6.2c-.9 0-1.61-.2-2.11-.59a2 2 0 0 1-.77-1.6h1.17c.01.28.15.53.4.77.26.24.7.35 1.3.35.56 0 .99-.1 1.28-.32a1 1 0 0 0 .44-.82c0-.28-.1-.5-.32-.66a2.13 2.13 0 0 0-1.06-.32l-.75-.08a3.11 3.11 0 0 1-1.6-.58 1.65 1.65 0 0 1-.63-1.38c0-.44.12-.81.34-1.12.23-.32.54-.56.94-.73.4-.17.85-.26 1.37-.26.78 0 1.4.17 1.9.52.48.34.73.86.74 1.54h-1.16a.89.89 0 0 0-.4-.7c-.24-.2-.6-.3-1.08-.3-.49 0-.85.1-1.1.3a.92.92 0 0 0-.38.75c0 .26.09.47.26.63.18.15.48.25.88.3l.75.07a3.7 3.7 0 0 1 1.8.62c.44.33.67.8.67 1.4 0 .44-.13.82-.38 1.16-.24.32-.58.59-1.01.77-.43.19-.93.28-1.5.28Zm-9.77 2.49v-1.12h1c.29 0 .54-.04.73-.12a.92.92 0 0 0 .5-.36c.15-.17.26-.4.35-.68l2.17-7.34h1.22l-2.3 7.66c-.14.46-.34.83-.59 1.11-.25.3-.56.5-.92.64-.35.14-.77.2-1.24.2h-.92Zm2.11-2.86v-1.03h1.5v1.03h-1.5Zm-.13 0-2.48-6.76h1.28l2.37 6.76h-1.17Zm-6.15.37c-.9 0-1.6-.2-2.11-.59a2 2 0 0 1-.76-1.6h1.16c.02.28.15.53.4.77.26.24.7.35 1.31.35.56 0 .98-.1 1.27-.32a1 1 0 0 0 .44-.82c0-.28-.1-.5-.32-.66a2.13 2.13 0 0 0-1.05-.32l-.75-.08a3.12 3.12 0 0 1-1.6-.58 1.65 1.65 0 0 1-.63-1.38c0-.44.11-.81.34-1.12.22-.32.53-.56.93-.73.4-.17.86-.26 1.37-.26.78 0 1.41.17 1.9.52.48.34.73.86.75 1.54h-1.17a.89.89 0 0 0-.39-.7c-.24-.2-.6-.3-1.09-.3-.48 0-.85.1-1.1.3a.92.92 0 0 0-.37.75c0 .26.08.47.25.63.19.15.48.25.89.3l.75.07c.74.08 1.34.29 1.79.62.44.33.67.8.67 1.4 0 .44-.13.82-.38 1.16-.24.32-.58.59-1 .77-.44.19-.93.28-1.5.28Zm-7.83.02a3.67 3.67 0 0 1-2.76-1.13 3.72 3.72 0 0 1-.72-1.15 3.74 3.74 0 0 1-.23-1.3v-.23a3.56 3.56 0 0 1 2.14-3.26c.46-.21.98-.31 1.57-.31a3.77 3.77 0 0 1 2.73 1.12 3.56 3.56 0 0 1 .97 2.45v.24a3.56 3.56 0 0 1-.96 2.45 3.6 3.6 0 0 1-2.75 1.12Zm0-1.11a2.26 2.26 0 0 0 2.16-1.27c.2-.39.3-.83.3-1.31 0-.5-.1-.93-.3-1.32a2.38 2.38 0 0 0-2.16-1.26c-.5 0-.94.11-1.31.34-.37.22-.66.53-.86.92-.2.39-.3.83-.3 1.32 0 .48.1.92.29 1.3.2.4.48.7.84.94.37.23.82.34 1.34.34Zm-8.08 1.11a3.13 3.13 0 0 1-2.63-1.14 3.88 3.88 0 0 1-.86-2.43v-.24a3.56 3.56 0 0 1 .86-2.44 3.26 3.26 0 0 1 2.6-1.13c.58 0 1.1.1 1.56.32a2.72 2.72 0 0 1 1.59 2.3h-1.2a1.63 1.63 0 0 0-.59-1.07 2 2 0 0 0-1.36-.44 1.99 1.99 0 0 0-1.97 1.26 3.45 3.45 0 0 0 0 2.62c.16.4.41.7.74.94.34.23.76.34 1.26.34.39 0 .72-.07 1-.2.3-.15.52-.33.7-.57.17-.23.27-.5.3-.79h1.2a2.52 2.52 0 0 1-.48 1.42c-.29.4-.67.7-1.14.93-.47.22-1 .32-1.58.32Zm-10.41-.23v-9.46h1.27v9.46h-1.27Zm1.01 0v-1.14h4.59v1.14h-4.59Zm0-4.24v-1.14h4.19v1.14h-4.19Zm0-4.08v-1.14h4.46V617h-4.46Z"/>
  <path fill="#F1BE3E" d="m655.67 653.96 6.2-16.82h2.65l-6.2 16.82h-2.65Zm-1.2-7.65c-.89 0-1.63-.2-2.2-.6a3.83 3.83 0 0 1-1.32-1.64 5.78 5.78 0 0 1-.42-2.2v-.6c0-.88.15-1.65.44-2.31.3-.68.73-1.2 1.31-1.57.6-.38 1.33-.57 2.2-.57.88 0 1.62.19 2.2.57.59.37 1.03.9 1.32 1.57.29.66.44 1.43.44 2.3v.6c0 .8-.15 1.54-.44 2.21-.28.68-.7 1.22-1.3 1.64-.56.4-1.3.6-2.23.6Zm0-2.14c.56 0 .96-.2 1.22-.6.28-.42.42-1.08.42-1.98 0-.99-.14-1.67-.42-2.06a1.4 1.4 0 0 0-1.22-.57c-.54 0-.94.2-1.22.57-.26.39-.39 1.07-.39 2.03 0 .9.13 1.57.4 1.98.27.42.67.63 1.21.63Zm11.13 10.13c-.89 0-1.63-.2-2.21-.6a3.83 3.83 0 0 1-1.31-1.63 5.8 5.8 0 0 1-.42-2.21v-.6c0-.88.15-1.65.44-2.3.3-.68.73-1.2 1.31-1.57.6-.39 1.33-.58 2.2-.58.88 0 1.62.2 2.2.58.59.37 1.03.89 1.32 1.56.29.66.43 1.43.43 2.3v.6c0 .8-.14 1.54-.43 2.22a3.66 3.66 0 0 1-1.3 1.63c-.56.4-1.3.6-2.23.6Zm0-2.14c.55 0 .96-.2 1.22-.6.28-.41.42-1.07.42-1.98 0-.98-.14-1.67-.42-2.05a1.4 1.4 0 0 0-1.22-.58c-.54 0-.94.2-1.22.58-.26.38-.4 1.06-.4 2.03 0 .9.14 1.56.4 1.98.28.41.68.62 1.22.62Zm-24.35 2.24a7.92 7.92 0 0 1-3.36-.65 6.25 6.25 0 0 1-2.26-1.8 7.78 7.78 0 0 1-1.3-2.62c-.25-1-.38-2.05-.38-3.14v-1.29c0-1.55.26-2.95.78-4.19a6.49 6.49 0 0 1 2.4-2.95 7.14 7.14 0 0 1 4.12-1.1 7.1 7.1 0 0 1 4.1 1.1 6.35 6.35 0 0 1 2.38 2.95c.52 1.24.78 2.64.78 4.2v1.28c0 1.1-.14 2.14-.42 3.14a7.47 7.47 0 0 1-1.26 2.62 6.05 6.05 0 0 1-2.24 1.8c-.92.43-2.03.65-3.34.65Zm0-3c1.37 0 2.37-.47 3.02-1.4.64-.96.97-2.43.97-4.43 0-2.12-.33-3.63-1-4.54-.65-.92-1.65-1.38-2.99-1.38-1.35 0-2.36.46-3.04 1.38-.66.9-1 2.4-1 4.5 0 2 .34 3.49 1 4.44.66.95 1.67 1.43 3.04 1.43ZM627 653.96v-14.8l1 .79h-4.44v-2.81h6.68v16.82H627Z"/>
  <path fill="#fff" d="M348.78 639.1V638h2.12c.45 0 .82-.09 1.11-.26.3-.19.51-.43.66-.73.16-.3.24-.64.24-1.01 0-.38-.08-.72-.24-1.02-.15-.3-.37-.54-.66-.72a2.2 2.2 0 0 0-1.11-.26h-2.12v-1.11h1.88c.78 0 1.43.13 1.95.38.52.24.92.58 1.19 1.03.27.45.4.98.4 1.6v.2a2.69 2.69 0 0 1-1.6 2.64 4.6 4.6 0 0 1-1.94.37h-1.88Zm-1 3.3v-9.52h1.26v9.51h-1.27Zm-7.8.04v-1.11h2.64c.5 0 .9-.14 1.18-.43.28-.3.43-.68.43-1.16 0-.5-.14-.88-.42-1.16-.27-.28-.67-.43-1.19-.43h-2.64v-.82h2.46c.6 0 1.13.07 1.6.21.46.15.82.4 1.08.74.27.34.4.8.4 1.4v.17a2.8 2.8 0 0 1-.33 1.41 2.2 2.2 0 0 1-1.03.89c-.46.2-1.03.3-1.72.3h-2.46Zm-1.02 0v-9.56h1.28v9.56h-1.28Zm1.02-4.52v-.83h2.29c.54 0 .93-.14 1.18-.43.26-.29.39-.66.39-1.11 0-.46-.13-.83-.4-1.12-.24-.29-.63-.44-1.17-.44h-2.3v-1.11h2.08c1.04 0 1.8.22 2.32.66.5.43.76 1.06.76 1.88v.18c0 .58-.13 1.04-.38 1.39a2.1 2.1 0 0 1-1.1.72c-.45.14-.99.21-1.6.21h-2.07Zm-8.06 4.48v-9.47h1.27v9.46h-1.27Zm1 0v-1.15h4.34v1.14h-4.33Z"/>
  <path fill="#12B886" d="m340.31 668.39 6.2-16.82h2.65l-6.2 16.82h-2.65Zm-1.2-7.65c-.89 0-1.63-.2-2.21-.6a3.82 3.82 0 0 1-1.31-1.64 5.78 5.78 0 0 1-.42-2.2v-.6c0-.88.15-1.65.44-2.31.3-.68.73-1.2 1.31-1.57.6-.38 1.33-.58 2.2-.58.88 0 1.62.2 2.2.58.59.37 1.03.9 1.32 1.57.29.66.44 1.43.44 2.3v.6c0 .8-.15 1.54-.44 2.21a3.69 3.69 0 0 1-1.3 1.64c-.56.4-1.3.6-2.23.6Zm0-2.14c.56 0 .96-.2 1.22-.6.28-.42.42-1.08.42-1.99 0-.98-.14-1.66-.42-2.05a1.41 1.41 0 0 0-1.22-.57c-.54 0-.94.19-1.22.57-.26.39-.4 1.06-.4 2.03 0 .9.14 1.57.4 1.98.28.42.68.63 1.22.63Zm11.13 10.13c-.9 0-1.63-.2-2.21-.6a3.83 3.83 0 0 1-1.31-1.63 5.78 5.78 0 0 1-.42-2.21v-.6c0-.88.15-1.65.44-2.3.29-.68.73-1.2 1.31-1.57.6-.39 1.33-.58 2.19-.58.9 0 1.63.2 2.21.58a3.3 3.3 0 0 1 1.31 1.56c.3.66.44 1.43.44 2.3v.6c0 .8-.14 1.54-.44 2.22-.27.67-.7 1.22-1.28 1.63-.57.4-1.32.6-2.24.6Zm0-2.14c.55 0 .96-.2 1.22-.6.28-.41.42-1.07.42-1.98 0-.98-.14-1.67-.42-2.05a1.4 1.4 0 0 0-1.22-.58c-.54 0-.94.2-1.22.58-.26.38-.4 1.06-.4 2.03 0 .9.14 1.56.4 1.98.28.41.68.62 1.22.62Zm-24.35 2.24a7.92 7.92 0 0 1-3.36-.65 6.25 6.25 0 0 1-2.26-1.8 7.76 7.76 0 0 1-1.3-2.62c-.25-1-.38-2.05-.38-3.14v-1.29c0-1.55.26-2.95.78-4.2a6.5 6.5 0 0 1 2.4-2.94 7.14 7.14 0 0 1 4.12-1.1 7.1 7.1 0 0 1 4.1 1.1 6.35 6.35 0 0 1 2.37 2.95c.53 1.24.79 2.64.79 4.2v1.28c0 1.1-.14 2.14-.42 3.14a7.45 7.45 0 0 1-1.27 2.62 6.04 6.04 0 0 1-2.23 1.8c-.92.43-2.04.65-3.34.65Zm0-3c1.37 0 2.37-.47 3.02-1.4.64-.96.97-2.43.97-4.43 0-2.12-.33-3.63-1-4.54-.66-.92-1.65-1.38-2.99-1.38-1.35 0-2.37.46-3.04 1.38-.66.9-1 2.4-1 4.5 0 2 .34 3.49 1 4.44.66.95 1.67 1.43 3.04 1.43Zm-14.26 2.56v-14.8l1.02.79h-4.45v-2.81h6.68v16.82h-3.25Z"/>
  <path fill="#fff" d="M287.29 595.16c-.91 0-1.62-.2-2.12-.59a1.96 1.96 0 0 1-.76-1.59h1.16c.02.27.16.52.4.76.27.24.7.36 1.31.36.56 0 .98-.11 1.28-.33a1 1 0 0 0 .44-.82c0-.28-.11-.5-.33-.66a2.15 2.15 0 0 0-1.05-.32l-.75-.08a3.11 3.11 0 0 1-1.6-.58 1.66 1.66 0 0 1-.63-1.38c0-.44.11-.81.34-1.12.22-.32.53-.56.93-.73.4-.17.86-.26 1.38-.26.77 0 1.4.17 1.89.52.48.35.73.86.75 1.54h-1.17a.89.89 0 0 0-.39-.7c-.24-.2-.6-.3-1.08-.3-.49 0-.86.1-1.1.3a.92.92 0 0 0-.38.75c0 .26.08.47.26.63.18.15.47.25.88.3l.75.07c.74.08 1.34.29 1.79.63.45.32.67.79.67 1.4 0 .43-.12.81-.37 1.15a2.4 2.4 0 0 1-1.01.77c-.44.19-.93.28-1.5.28Zm-8.4 2.49a12.33 12.33 0 0 1-1.9-.15v-1.05a16.2 16.2 0 0 0 1.95.16 3.6 3.6 0 0 0 1.5-.26c.39-.16.66-.43.82-.79.18-.35.26-.81.26-1.37v-1.33l.42-.98c-.03.7-.18 1.28-.44 1.75a2.7 2.7 0 0 1-2.47 1.37c-.48 0-.93-.09-1.33-.27a3.27 3.27 0 0 1-1.71-1.9 4 4 0 0 1-.24-1.37v-.23a3.63 3.63 0 0 1 .94-2.45c.3-.3.64-.55 1.05-.72a3.5 3.5 0 0 1 2.89.11c.44.25.78.6 1.03 1.08.26.47.4 1.04.43 1.72l-.36.01v-2.95h.98v6.1c0 .83-.13 1.5-.38 2.01-.26.52-.66.9-1.22 1.14-.56.25-1.3.37-2.22.37Zm.38-3.79c.41 0 .79-.09 1.12-.27.35-.18.62-.44.82-.78.2-.34.31-.75.31-1.23v-.6a2.05 2.05 0 0 0-1.14-1.9 2.49 2.49 0 0 0-2.3.06c-.34.21-.6.5-.8.89-.19.37-.28.8-.28 1.32 0 .5.1.95.28 1.33.2.38.47.68.8.88.35.2.75.3 1.19.3Zm-11.29 1.09v-6.92h.99V591h-.16c0-.68.1-1.26.27-1.73.2-.47.48-.83.86-1.07.38-.25.86-.38 1.44-.38h.05c.87 0 1.52.27 1.93.82.42.54.64 1.33.64 2.36v3.95h-1.25v-4.21c0-.54-.15-.97-.45-1.28a1.6 1.6 0 0 0-1.25-.5c-.54 0-.98.17-1.32.5-.34.34-.5.8-.5 1.36v4.13h-1.25Zm-3.65 0v-6.92h1.25v6.92h-1.25Zm-1.06-5.94v-.98h2.3v.99h-2.3Zm1.41-2.1c-.27 0-.48-.07-.62-.21a.8.8 0 0 1-.2-.56.8.8 0 0 1 .2-.56c.14-.15.35-.22.62-.22.28 0 .48.07.61.22.14.15.2.33.2.56a.8.8 0 0 1-.2.56c-.13.14-.33.22-.6.22Zm-3.51 8.12c-.52 0-.96-.07-1.34-.22-.38-.15-.66-.4-.87-.75-.2-.37-.3-.85-.3-1.47v-6.66h1.2v6.82c0 .37.1.66.29.87.2.2.5.3.87.3h1.22v1.1h-1.07Zm-3.7-6.07v-.93h4.77v.93h-4.77Zm-3.67 6.2a3.4 3.4 0 0 1-2.12-.59 1.99 1.99 0 0 1-.76-1.59h1.17c.01.27.15.52.4.76.26.24.7.36 1.3.36.56 0 .98-.11 1.28-.33a1 1 0 0 0 .44-.82c0-.28-.11-.5-.33-.66a2.15 2.15 0 0 0-1.05-.32l-.75-.08a3.12 3.12 0 0 1-1.6-.58 1.66 1.66 0 0 1-.63-1.38c0-.44.12-.81.34-1.12.22-.32.54-.56.93-.73.4-.17.86-.26 1.38-.26.77 0 1.4.17 1.89.52.48.35.73.86.75 1.54h-1.17a.89.89 0 0 0-.38-.7c-.25-.2-.6-.3-1.1-.3-.48 0-.84.1-1.1.3a.92.92 0 0 0-.37.75c0 .26.09.47.26.63.18.15.47.25.88.3l.75.07c.75.08 1.34.29 1.79.63.45.32.67.79.67 1.4 0 .43-.12.81-.37 1.15-.24.33-.58.59-1.01.77a3.8 3.8 0 0 1-1.5.28Zm-5.92-.21v-6.92h1.24v6.92h-1.24Zm-1.06-5.94v-.98h2.3v.99h-2.3Zm1.4-2.1c-.27 0-.47-.07-.61-.21a.8.8 0 0 1-.2-.56.8.8 0 0 1 .2-.56c.13-.15.34-.22.62-.22.28 0 .48.07.6.22.15.15.22.33.22.56 0 .22-.07.4-.21.56-.13.14-.33.22-.61.22Zm-7.55 8.04v-9.46h1.27v9.46h-1.27Zm1.02 0v-1.14H246v1.14h-4.32Zm-9.14.23c-.6 0-1.13-.1-1.57-.3-.44-.21-.8-.49-1.07-.82a3.66 3.66 0 0 1-.63-1.16 4.35 4.35 0 0 1-.19-1.3v-.23c0-.45.06-.88.2-1.3.13-.43.34-.8.62-1.15.27-.34.62-.61 1.05-.81.43-.2.93-.31 1.51-.31.75 0 1.37.16 1.86.49.49.32.85.73 1.08 1.24.25.51.37 1.06.37 1.64v.55h-6.15v-.93h5.24l-.28.5c0-.49-.08-.91-.24-1.26a1.82 1.82 0 0 0-.7-.85c-.3-.2-.7-.3-1.18-.3-.49 0-.9.12-1.23.34a2.1 2.1 0 0 0-.73.92c-.15.4-.23.84-.23 1.35 0 .5.08.94.23 1.34.17.38.42.7.76.93.33.22.76.34 1.28.34.54 0 .98-.13 1.32-.37.35-.24.56-.52.62-.84h1.17a2.74 2.74 0 0 1-1.65 2.02c-.43.18-.92.27-1.46.27Zm-9.07 2.47a12.3 12.3 0 0 1-1.9-.15v-1.05a16.2 16.2 0 0 0 1.95.16 3.6 3.6 0 0 0 1.5-.26c.38-.16.66-.43.82-.79.18-.35.26-.81.26-1.37v-1.33l.42-.98c-.03.7-.18 1.28-.44 1.75a2.7 2.7 0 0 1-2.47 1.37c-.48 0-.93-.09-1.33-.27a3.27 3.27 0 0 1-1.71-1.9 4 4 0 0 1-.24-1.37v-.23a3.63 3.63 0 0 1 .94-2.45c.3-.3.64-.55 1.05-.72a3.5 3.5 0 0 1 2.89.11c.44.25.78.6 1.03 1.08.26.47.4 1.04.43 1.72l-.36.01v-2.95h.98v6.1c0 .83-.13 1.5-.39 2.01-.25.52-.65.9-1.21 1.14-.56.25-1.3.37-2.22.37Zm.38-3.79c.41 0 .79-.09 1.12-.27.35-.18.62-.44.82-.78.2-.34.31-.75.31-1.23v-.6a2.05 2.05 0 0 0-1.14-1.9 2.48 2.48 0 0 0-2.3.06c-.34.21-.6.5-.8.89-.19.37-.28.8-.28 1.32 0 .5.1.95.28 1.33.2.38.47.68.8.88.35.2.75.3 1.19.3Zm-11.29 1.09v-6.92h.99V591h-.16c0-.68.1-1.26.27-1.73.2-.47.48-.83.86-1.07.38-.25.86-.38 1.44-.38h.05c.87 0 1.52.27 1.93.82.42.54.64 1.33.64 2.36v3.95h-1.25v-4.21c0-.54-.15-.97-.45-1.28a1.6 1.6 0 0 0-1.25-.5c-.54 0-.98.17-1.32.5-.33.34-.5.8-.5 1.36v4.13h-1.25Zm-3.27 0v-2.07h-.2v-2.4c0-.48-.13-.83-.38-1.08-.24-.24-.6-.36-1.07-.36a26.34 26.34 0 0 0-2.33.08v-1.09a13.07 13.07 0 0 1 1.26-.06l.65-.02c.7 0 1.29.09 1.74.26.45.17.78.44 1 .82.21.38.32.9.32 1.54v4.38h-.99Zm-2.26.18c-.52 0-.97-.08-1.35-.26a2.05 2.05 0 0 1-.87-.77c-.2-.34-.3-.75-.3-1.22 0-.5.1-.9.32-1.23a2 2 0 0 1 .98-.74c.42-.18.93-.26 1.53-.26h1.88v.93h-1.94c-.5 0-.88.12-1.15.36-.27.25-.4.56-.4.94 0 .38.13.68.4.92.27.23.65.35 1.16.35.29 0 .57-.05.84-.16s.49-.3.66-.54c.18-.26.28-.62.3-1.07l.33.5c-.04.49-.16.9-.36 1.24-.19.33-.46.58-.8.75a2.6 2.6 0 0 1-1.23.26Zm-10.21-.18v-9.46h1.24v5.65h-.3c0-.68.08-1.27.25-1.76.18-.5.46-.89.83-1.15.37-.27.85-.4 1.43-.4h.05c.83 0 1.45.27 1.88.82.42.55.63 1.33.63 2.35v3.95h-1.24v-4.21c0-.56-.16-1-.48-1.31a1.65 1.65 0 0 0-1.22-.47c-.55 0-1 .19-1.34.56a2.1 2.1 0 0 0-.49 1.44v4h-1.24Zm-4.89.23a3.12 3.12 0 0 1-2.63-1.14 3.84 3.84 0 0 1-.86-2.43v-.24a3.52 3.52 0 0 1 .86-2.44 3.25 3.25 0 0 1 2.6-1.13c.58 0 1.1.1 1.56.32a2.72 2.72 0 0 1 1.6 2.3h-1.2a1.69 1.69 0 0 0-.6-1.07 2 2 0 0 0-1.36-.44c-.5 0-.9.11-1.23.34-.33.22-.57.53-.74.92a3.45 3.45 0 0 0 0 2.62c.17.4.41.7.74.94.34.23.76.34 1.26.34.39 0 .72-.07 1-.2.3-.15.52-.33.7-.57.17-.23.27-.5.3-.79h1.2a2.52 2.52 0 0 1-.48 1.42c-.29.4-.67.7-1.14.93-.47.22-1 .32-1.58.32Zm-10.9-.23 2.47-3.64-.03.26-2.32-3.54h1.37l1.67 2.6h.18l1.58-2.6h1.29l-2.2 3.45.05-.24 2.59 3.71h-1.38l-1.94-2.81h-.18l-1.87 2.81h-1.28Zm-6.76 0v-9.46h1.27v9.46h-1.27Zm1.01 0v-1.14h4.59v1.14h-4.59Zm0-4.24v-1.14h4.19v1.14h-4.19Zm0-4.08v-1.14h4.46v1.14h-4.46Z"/>
  <path fill="#ED762D" d="m276.27 623.59 6.2-16.82h2.65l-6.2 16.82h-2.65Zm-1.2-7.65c-.89 0-1.63-.2-2.21-.6a3.82 3.82 0 0 1-1.31-1.63 5.78 5.78 0 0 1-.42-2.22v-.6c0-.87.15-1.64.44-2.3.29-.68.73-1.2 1.31-1.57.6-.38 1.33-.57 2.2-.57.88 0 1.62.19 2.2.57.59.37 1.02.9 1.32 1.57.29.66.43 1.43.43 2.3v.6c0 .8-.14 1.54-.43 2.22a3.66 3.66 0 0 1-1.3 1.63c-.56.4-1.3.6-2.23.6Zm0-2.14c.55 0 .96-.2 1.22-.6.28-.42.42-1.08.42-1.98 0-.99-.14-1.67-.42-2.05a1.41 1.41 0 0 0-1.22-.58c-.54 0-.94.2-1.22.58-.26.38-.4 1.06-.4 2.02 0 .91.14 1.57.4 1.98.28.42.68.63 1.22.63Zm11.13 10.13c-.9 0-1.63-.2-2.21-.6a3.82 3.82 0 0 1-1.32-1.63 5.78 5.78 0 0 1-.41-2.21v-.6c0-.88.14-1.64.44-2.3.29-.68.73-1.2 1.31-1.57.6-.39 1.33-.58 2.19-.58.89 0 1.63.2 2.21.58.58.37 1.02.89 1.31 1.57.3.65.44 1.42.44 2.3v.6c0 .8-.14 1.53-.44 2.21a3.6 3.6 0 0 1-1.29 1.64c-.56.4-1.3.6-2.23.6Zm0-2.14c.55 0 .96-.2 1.22-.6.28-.41.41-1.07.41-1.98 0-.98-.13-1.67-.41-2.05a1.4 1.4 0 0 0-1.22-.57c-.54 0-.95.19-1.22.57-.26.38-.4 1.06-.4 2.03 0 .9.14 1.56.4 1.98.27.42.68.62 1.22.62Zm-28.62 1.8v-3.23c0-.7.11-1.32.33-1.84.23-.52.6-.98 1.1-1.38.53-.42 1.2-.8 2.05-1.18l2.86-1.26c.7-.33 1.24-.72 1.61-1.18a2.8 2.8 0 0 0 .58-1.82 2.6 2.6 0 0 0-.74-1.94c-.47-.49-1.16-.73-2.05-.73-.89 0-1.58.24-2.07.74a2.8 2.8 0 0 0-.72 2.05h-3.15c0-1.05.22-1.99.67-2.82.44-.84 1.1-1.5 1.98-1.98a6.66 6.66 0 0 1 3.3-.73c1.31 0 2.41.23 3.29.71a4.86 4.86 0 0 1 1.98 1.91c.44.79.67 1.66.67 2.63v.3c0 1.26-.36 2.31-1.06 3.15a8.69 8.69 0 0 1-3.11 2.17l-2.86 1.27a3 3 0 0 0-1.13.74c-.22.24-.32.58-.32 1v1.48l-.79-.85h9.33v2.79h-11.75Z"/>
  <path fill="#fff" d="M212.82 537.17a12.3 12.3 0 0 1-1.9-.15v-1.05a16.2 16.2 0 0 0 1.95.16 3.6 3.6 0 0 0 1.5-.26c.38-.16.65-.43.82-.8.17-.35.26-.8.26-1.36v-1.33l.41-.98c-.02.7-.17 1.28-.44 1.75a2.69 2.69 0 0 1-2.46 1.37c-.49 0-.93-.09-1.34-.27-.4-.19-.74-.45-1.03-.78a3.8 3.8 0 0 1-.91-2.49v-.23a3.63 3.63 0 0 1 .93-2.45c.3-.31.65-.55 1.05-.72a3.5 3.5 0 0 1 2.9.11c.43.24.78.6 1.03 1.08.26.46.4 1.04.43 1.72l-.37.01v-2.95h.99v6.1c0 .83-.13 1.5-.39 2.01-.25.52-.66.9-1.22 1.14-.55.25-1.29.37-2.21.37Zm.37-3.79c.42 0 .8-.09 1.13-.27.34-.18.62-.44.82-.78.2-.34.3-.75.3-1.23v-.6a2.06 2.06 0 0 0-1.13-1.9 2.48 2.48 0 0 0-2.3.06c-.34.21-.61.5-.8.89-.2.37-.29.8-.29 1.32 0 .5.1.95.29 1.33.2.38.47.68.8.88.35.2.74.3 1.18.3Zm-11.29 1.09v-6.92h1v2.97h-.16c0-.69.09-1.26.27-1.73.19-.47.48-.83.86-1.07.38-.25.85-.38 1.43-.38h.06c.87 0 1.51.27 1.93.82.42.54.63 1.33.63 2.36v3.95h-1.24v-4.21c0-.54-.15-.97-.46-1.28a1.6 1.6 0 0 0-1.24-.5c-.54 0-.98.17-1.32.5-.34.35-.5.8-.5 1.36v4.13h-1.25Zm-3.64 0v-6.92h1.24v6.92h-1.24Zm-1.06-5.94v-.98h2.3v.99h-2.3Zm1.4-2.1c-.27 0-.48-.07-.61-.21a.81.81 0 0 1-.2-.56c0-.23.07-.41.2-.56.13-.15.34-.22.62-.22.27 0 .48.07.6.22.14.15.21.33.21.56a.8.8 0 0 1-.2.56c-.13.14-.34.21-.61.21Zm-3.5 8.12c-.52 0-.97-.07-1.35-.22-.37-.15-.66-.4-.87-.75a3.1 3.1 0 0 1-.3-1.47v-6.66h1.2v6.82c0 .37.1.66.3.87.2.2.5.3.86.3h1.22v1.1h-1.06Zm-3.7-6.07v-.93h4.76v.93h-4.77Zm-3.99 6.22c-.6 0-1.13-.1-1.57-.3a3.2 3.2 0 0 1-1.07-.82 3.63 3.63 0 0 1-.63-1.16 4.4 4.4 0 0 1-.2-1.3v-.23c0-.45.07-.88.2-1.3.14-.43.35-.8.63-1.15a2.9 2.9 0 0 1 1.04-.81c.44-.21.94-.31 1.52-.31.75 0 1.37.16 1.85.49.5.32.86.73 1.1 1.24.24.51.36 1.06.36 1.64v.55h-6.15v-.93h5.24l-.29.5c0-.49-.07-.91-.23-1.26a1.83 1.83 0 0 0-.7-.85c-.31-.2-.7-.3-1.18-.3-.5 0-.9.12-1.23.34-.32.23-.56.53-.72.92a3.6 3.6 0 0 0-.24 1.35c0 .5.08.94.24 1.34.16.38.41.7.75.93.33.22.76.34 1.28.34.54 0 .99-.13 1.32-.37.35-.24.55-.52.62-.84h1.17a2.75 2.75 0 0 1-1.65 2.02c-.43.18-.92.27-1.46.27Zm-5.45-.23-2.6-3.23h-1.15l3.18-3.69h1.3l-2.87 3.33.1-.66 3.48 4.25h-1.44Zm-4.77 0v-9.46h1.25v9.46h-1.25Zm-5.31 0v-6.92h.98v2.85h-.05c0-1.01.22-1.75.66-2.22.45-.47 1.12-.7 2-.7h.24v1.1h-.44c-.7 0-1.22.2-1.6.56-.36.37-.55.9-.55 1.59v3.74h-1.25Zm-3.28 0v-2.07h-.2V530c0-.48-.13-.84-.38-1.08-.24-.24-.6-.36-1.07-.36l-.83.01-.82.03c-.26 0-.48.02-.67.04v-1.1a11.81 11.81 0 0 1 1.25-.05l.65-.02c.71 0 1.29.09 1.74.26.45.16.78.44 1 .82.21.38.32.9.32 1.54v4.38h-.98Zm-2.26.18c-.52 0-.97-.08-1.35-.26a2.05 2.05 0 0 1-.87-.77c-.2-.34-.3-.75-.3-1.22 0-.5.11-.9.33-1.24.22-.32.55-.57.97-.73.42-.18.93-.26 1.53-.26h1.88v.93h-1.93c-.5 0-.89.12-1.16.36-.26.25-.4.56-.4.94 0 .38.14.68.4.92.27.23.66.35 1.16.35.3 0 .57-.05.84-.16s.49-.3.66-.54c.18-.26.28-.62.3-1.07l.34.5c-.05.49-.17.9-.37 1.24-.19.33-.46.58-.8.75a2.6 2.6 0 0 1-1.23.26Zm-13.66-.18v-9.46h1.68l2.8 6.31h.21l2.79-6.31h1.7v9.46h-1.28v-8.07l.1.02-2.69 6.1h-1.55l-2.7-6.1.1-.02v8.07h-1.16Z"/>
  <path fill="#68BAC4" d="m202.75 562.95 6.2-16.82h2.65l-6.2 16.82h-2.65Zm-1.2-7.65c-.9 0-1.63-.2-2.21-.6a3.83 3.83 0 0 1-1.32-1.64 5.8 5.8 0 0 1-.41-2.2v-.6c0-.88.14-1.65.44-2.31.29-.68.73-1.2 1.31-1.57.6-.38 1.33-.57 2.19-.57.89 0 1.63.19 2.21.57.59.37 1.02.9 1.31 1.57.3.66.44 1.43.44 2.3v.6c0 .8-.14 1.54-.44 2.21a3.6 3.6 0 0 1-1.29 1.64c-.56.4-1.3.6-2.23.6Zm0-2.14c.55 0 .96-.2 1.22-.6.28-.42.41-1.08.41-1.98 0-.99-.13-1.67-.41-2.06a1.4 1.4 0 0 0-1.22-.57c-.54 0-.95.19-1.22.57-.26.39-.4 1.06-.4 2.03 0 .9.14 1.57.4 1.98.27.42.68.63 1.22.63Zm11.13 10.13c-.9 0-1.63-.2-2.21-.6a3.83 3.83 0 0 1-1.32-1.63 5.8 5.8 0 0 1-.41-2.21v-.6c0-.88.14-1.65.44-2.3.29-.68.72-1.2 1.3-1.57.6-.39 1.34-.58 2.2-.58.89 0 1.63.2 2.2.58.6.37 1.03.89 1.32 1.56.3.66.44 1.43.44 2.3v.6c0 .8-.15 1.54-.44 2.22-.27.67-.7 1.22-1.29 1.63-.57.4-1.31.6-2.23.6Zm0-2.14c.55 0 .96-.2 1.22-.6.28-.41.41-1.07.41-1.98 0-.98-.13-1.67-.41-2.05a1.41 1.41 0 0 0-1.22-.58c-.54 0-.95.2-1.22.58-.27.38-.4 1.06-.4 2.03 0 .9.13 1.56.4 1.98.27.41.68.62 1.22.62Zm-23.04 2.23a7.1 7.1 0 0 1-3.34-.73 5.35 5.35 0 0 1-2.12-1.96 5.32 5.32 0 0 1-.74-2.77h3.16c0 .82.27 1.48.8 1.99.56.49 1.3.73 2.24.73.63 0 1.17-.11 1.61-.34a2.7 2.7 0 0 0 1.06-1c.25-.42.37-.91.37-1.47 0-.83-.27-1.5-.8-2.03a2.99 2.99 0 0 0-2.22-.8c-.46 0-.87.06-1.22.18-.34.13-.64.29-.9.49l-1.5-2.58 5.53-3.78-.2-.4h-7.24v-2.78h11v3.36l-5.7 3.78-1.77-.32c.29-.1.6-.16.94-.21a7.36 7.36 0 0 1 4.38.58 4.9 4.9 0 0 1 2.12 1.8c.49.76.74 1.64.74 2.64v.3a5.08 5.08 0 0 1-2.86 4.61 7.2 7.2 0 0 1-3.34.72Z"/>
</svg>