<svg xmlns="http://www.w3.org/2000/svg" fill="none" viewBox="0 0 1301 617" width="1301" height="617">
  <path fill="#008B73" d="M1280 529V17L646.65 226.76l-53.47 72.46-264.58 63.65-53.08 74.46H64.8V529H1280Z"/>
  <path fill="#84C08B" d="M1280 541V29L646.65 238.76l-53.47 72.46-264.58 63.65-53.08 74.46H64.8V541H1280Z"/>
  <path fill="#F5D164" d="M1280 553V41L646.65 250.76l-53.47 72.46-264.58 63.65-53.08 74.46H64.8V553H1280Z"/>
  <path fill="#E18176" d="M1280 559.4v-512L646.65 257.16l-53.47 72.46-264.58 63.65-53.08 74.46H64.8v91.67H1280Z"/>
  <path fill="#68BAC4" d="M1280 587.4v-480L646.65 317.18l-53.47 72.46-264.58 63.65-53.08 74.46H64.8v59.65H1280Z"/>
  <path fill="#ED762D" d="M1280 604.2v-480L646.65 333.98l-53.47 72.45L328.6 470.1l-53.08 74.46H64.8v59.65H1280Z"/>
  <path fill="#12B886" d="M1280 617V137L646.65 346.77l-53.47 72.47-265.38 64.45-52.28 73.26-210.72.4V617H1280Z"/>
  <path fill="#6046FF" d="M1280 617V197L647 407l-52.7 71.09-264.78 62.51L277.6 617H1280Z"/>
  <path fill="#F1BE3E" d="M1280 316.2 329.52 540.6 277.6 617H1280V316.2Z"/>
  <path fill="#D8503F" d="M1280 377 329.52 556.9 277.6 617H1280V377Z"/>
  <path fill="#46A6FF" d="m1280 496.2-951.27 91.1L277.6 617H1280V496.2Z"/>
  <path fill="#2C353F" d="M64 16.2h1216.8v.8H64z"/>
  <path fill="#fff" d="M2.42 9V1.14l.5.4H.55V.59h2.97V9h-1.1Zm3.67 1.8-.89-.33L6.27 7.5l.91.35L6.1 10.8Zm6.11-1.6c-.63 0-1.16-.1-1.6-.32-.45-.22-.8-.52-1.08-.9a3.8 3.8 0 0 1-.59-1.3 6.58 6.58 0 0 1-.18-1.57v-.63c0-.77.12-1.47.36-2.1A3.2 3.2 0 0 1 10.23.92 3.3 3.3 0 0 1 12.2.36c.8 0 1.46.18 1.96.55.5.36.88.86 1.12 1.48.25.62.37 1.32.37 2.1v.62c0 .55-.06 1.08-.19 1.57-.12.5-.32.93-.6 1.3-.26.38-.62.68-1.05.9a3.6 3.6 0 0 1-1.6.33Zm0-1c.8 0 1.39-.28 1.76-.81.37-.55.56-1.4.56-2.58 0-1.23-.2-2.11-.58-2.64-.37-.53-.95-.8-1.74-.8s-1.37.27-1.76.8c-.37.53-.56 1.4-.56 2.61 0 1.19.19 2.05.56 2.6.38.54.97.81 1.76.81Zm8.57 1c-.63 0-1.17-.1-1.62-.32-.44-.22-.8-.52-1.07-.9a3.8 3.8 0 0 1-.59-1.3 6.58 6.58 0 0 1-.18-1.57v-.63c0-.77.12-1.47.36-2.1A3.2 3.2 0 0 1 18.8.92a3.3 3.3 0 0 1 1.97-.55c.8 0 1.45.18 1.95.55.51.36.88.86 1.12 1.48.25.62.37 1.32.37 2.1v.62c0 .55-.06 1.08-.18 1.57-.13.5-.33.93-.6 1.3a2.9 2.9 0 0 1-1.06.9 3.6 3.6 0 0 1-1.6.33Zm0-1c.8 0 1.38-.28 1.75-.81.37-.55.56-1.4.56-2.58 0-1.23-.2-2.11-.57-2.64-.38-.53-.96-.8-1.74-.8-.8 0-1.38.27-1.77.8-.37.53-.56 1.4-.56 2.61 0 1.19.19 2.05.56 2.6.38.54.97.81 1.77.81Zm8.56 1c-.63 0-1.17-.1-1.62-.32-.43-.22-.8-.52-1.07-.9a3.8 3.8 0 0 1-.59-1.3 6.58 6.58 0 0 1-.18-1.57v-.63c0-.77.12-1.47.36-2.1A3.2 3.2 0 0 1 27.36.92a3.3 3.3 0 0 1 1.97-.55c.8 0 1.45.18 1.96.55.5.36.87.86 1.11 1.48.25.62.37 1.32.37 2.1v.62c0 .55-.06 1.08-.18 1.57-.13.5-.33.93-.6 1.3-.27.38-.62.68-1.06.9a3.6 3.6 0 0 1-1.6.33Zm0-1c.8 0 1.38-.28 1.75-.81.37-.55.56-1.4.56-2.58 0-1.23-.19-2.11-.57-2.64-.38-.53-.96-.8-1.74-.8-.8 0-1.38.27-1.77.8-.37.53-.56 1.4-.56 2.61 0 1.19.19 2.05.56 2.6.38.54.97.81 1.77.81Zm5.46 2.6-.89-.33 1.07-2.97.91.35-1.1 2.96Zm6.11-1.6c-.63 0-1.16-.1-1.61-.32-.44-.22-.8-.52-1.07-.9a3.8 3.8 0 0 1-.59-1.3 6.58 6.58 0 0 1-.18-1.57v-.63c0-.77.12-1.47.35-2.1A3.2 3.2 0 0 1 38.93.92 3.3 3.3 0 0 1 40.9.36c.8 0 1.45.18 1.96.55.5.36.88.86 1.12 1.48.24.62.37 1.32.37 2.1v.62c0 .55-.06 1.08-.19 1.57-.12.5-.32.93-.6 1.3-.26.38-.62.68-1.06.9a3.6 3.6 0 0 1-1.6.33Zm0-1c.8 0 1.39-.28 1.75-.81.38-.55.57-1.4.57-2.58 0-1.23-.2-2.11-.58-2.64-.37-.53-.95-.8-1.74-.8s-1.38.27-1.76.8c-.38.53-.56 1.4-.56 2.61 0 1.19.18 2.05.56 2.6.38.54.96.81 1.76.81Zm8.56 1c-.63 0-1.16-.1-1.6-.32-.45-.22-.8-.52-1.08-.9a3.8 3.8 0 0 1-.59-1.3 6.58 6.58 0 0 1-.18-1.57v-.63c0-.77.12-1.47.36-2.1A3.2 3.2 0 0 1 47.49.92a3.3 3.3 0 0 1 1.97-.55c.8 0 1.46.18 1.96.55.5.36.88.86 1.12 1.48.25.62.37 1.32.37 2.1v.62c0 .55-.06 1.08-.19 1.57-.12.5-.32.93-.6 1.3-.26.38-.62.68-1.05.9a3.6 3.6 0 0 1-1.6.33Zm0-1c.8 0 1.39-.28 1.76-.81.37-.55.56-1.4.56-2.58 0-1.23-.2-2.11-.58-2.64-.37-.53-.95-.8-1.74-.8s-1.37.27-1.76.8c-.37.53-.56 1.4-.56 2.61 0 1.19.19 2.05.56 2.6.38.54.97.81 1.76.81Zm8.57 1c-.63 0-1.17-.1-1.62-.32-.44-.22-.8-.52-1.07-.9a3.8 3.8 0 0 1-.59-1.3 6.58 6.58 0 0 1-.18-1.57v-.63c0-.77.12-1.47.36-2.1A3.2 3.2 0 0 1 56.06.92a3.3 3.3 0 0 1 1.97-.55c.8 0 1.45.18 1.95.55.51.36.88.86 1.12 1.48.25.62.37 1.32.37 2.1v.62c0 .55-.06 1.08-.18 1.57-.13.5-.33.93-.6 1.3a2.9 2.9 0 0 1-1.06.9 3.6 3.6 0 0 1-1.6.33Zm0-1c.8 0 1.38-.28 1.75-.81.37-.55.56-1.4.56-2.58 0-1.23-.2-2.11-.58-2.64-.37-.53-.95-.8-1.73-.8-.8 0-1.38.27-1.77.8-.37.53-.56 1.4-.56 2.61 0 1.19.19 2.05.56 2.6.38.54.97.81 1.77.81Zm5.46 2.6-.89-.33 1.07-2.97.91.35-1.1 2.96Zm6.11-1.6c-.63 0-1.17-.1-1.61-.32-.44-.22-.8-.52-1.07-.9a3.8 3.8 0 0 1-.59-1.3 6.58 6.58 0 0 1-.18-1.57v-.63c0-.77.11-1.47.35-2.1A3.2 3.2 0 0 1 67.63.92 3.3 3.3 0 0 1 69.6.36c.8 0 1.45.18 1.96.55.5.36.88.86 1.12 1.48.24.62.37 1.32.37 2.1v.62c0 .55-.07 1.08-.19 1.57-.12.5-.32.93-.6 1.3-.27.38-.62.68-1.06.9a3.6 3.6 0 0 1-1.6.33Zm0-1c.8 0 1.38-.28 1.75-.81.38-.55.57-1.4.57-2.58 0-1.23-.2-2.11-.58-2.64-.38-.53-.95-.8-1.74-.8s-1.38.27-1.76.8c-.38.53-.57 1.4-.57 2.61 0 1.19.2 2.05.57 2.6.38.54.96.81 1.76.81Zm8.56 1c-.63 0-1.16-.1-1.61-.32-.44-.22-.8-.52-1.07-.9a3.8 3.8 0 0 1-.59-1.3 6.58 6.58 0 0 1-.18-1.57v-.63c0-.77.12-1.47.35-2.1A3.2 3.2 0 0 1 76.2.92a3.3 3.3 0 0 1 1.97-.55c.8 0 1.45.18 1.96.55.5.36.88.86 1.12 1.48.24.62.37 1.32.37 2.1v.62c0 .55-.06 1.08-.19 1.57-.12.5-.32.93-.6 1.3-.26.38-.62.68-1.06.9a3.6 3.6 0 0 1-1.6.33Zm0-1c.8 0 1.39-.28 1.75-.81.38-.55.57-1.4.57-2.58 0-1.23-.2-2.11-.58-2.64-.37-.53-.95-.8-1.74-.8s-1.38.27-1.76.8c-.38.53-.56 1.4-.56 2.61 0 1.19.18 2.05.56 2.6.38.54.96.81 1.76.81Zm8.56 1c-.63 0-1.16-.1-1.6-.32-.45-.22-.8-.52-1.08-.9a3.8 3.8 0 0 1-.59-1.3 6.58 6.58 0 0 1-.18-1.57v-.63c0-.77.12-1.47.36-2.1A3.2 3.2 0 0 1 84.75.92a3.3 3.3 0 0 1 1.97-.55c.8 0 1.46.18 1.96.55.5.36.88.86 1.12 1.48.25.62.37 1.32.37 2.1v.62c0 .55-.06 1.08-.19 1.57-.12.5-.32.93-.6 1.3-.26.38-.62.68-1.05.9a3.6 3.6 0 0 1-1.6.33Zm0-1c.8 0 1.39-.28 1.76-.81.37-.55.56-1.4.56-2.58 0-1.23-.2-2.11-.58-2.64-.37-.53-.95-.8-1.74-.8s-1.37.27-1.76.8c-.37.53-.56 1.4-.56 2.61 0 1.19.19 2.05.56 2.6.38.54.97.81 1.76.81Z" opacity=".4"/>
  <path fill="#2C353F" d="M1280 616.2V17h.8v599.2z"/>
  <path fill="#fff" fill-rule="evenodd" d="M64 616.12h-.16v.72h800.64v-.72h-6.08V468.2h52v148h.8v-148h52v148h.8v-148h52v148h.8v-148h52v148h.8v-148h52v148h.8v-148h52v148h.8v-148h52v148h.8v-148h52v-.8h-52V317h52v-.8h-52v-148h52v-.8h-52V17h-.8v150.4h-52V17h-.8v150.4h-52V17h-.8v150.4h-52V17h-.8v150.4h-52V17h-.8v150.4h-52V17h-.8v150.4h-52V17h-.8v150.4h-52V17h-.8v150.4h-52V17h-.8v150.4h-52V17h-.8v150.4h-52V17h-.8v150.4h-52V17h-.8v150.4h-52V17h-.8v150.4h-52V17h-.8v150.4h-52V17h-.8v150.4h-52V17h-.8v150.4h-52V17h-.8v150.4h-52V17h-.8v150.4h-52V17h-.8v150.4h-52V17h-.8v150.4h-52V17h-.8v150.4h-52V17h-.8v150.4H64.8V17H64v599.12Zm793.6 0V468.2h-52v147.92h52Zm-52.8 0V468.2h-52v147.92h52Zm-52.8 0V468.2h-52v147.92h52Zm-52.8 0V468.2h-52v147.92h52Zm-52.8 0V468.2h-52v147.92h52Zm-52.8 0V468.2h-52v147.92h52Zm-52.8 0V468.2h-52v147.92h52Zm-52.8 0V468.2h-52v147.92h52Zm-52.8 0V468.2h-52v147.92h52Zm-52.8 0V468.2h-52v147.92h52Zm-52.8 0V468.2h-52v147.92h52Zm-52.8 0V468.2h-52v147.92h52Zm-52.8 0V468.2h-52v147.92h52Zm-52.8 0V468.2h-52v147.92h52Zm-52.8 0V468.2H64.8v147.92h53.6Zm0-148.72H64.8V317h53.6v150.4Zm52.8 0h-52V317h52v150.4Zm52.8 0h-52V317h52v150.4Zm52.8 0h-52V317h52v150.4Zm52.8 0h-52V317h52v150.4Zm52.8 0h-52V317h52v150.4Zm52.8 0h-52V317h52v150.4Zm52.8 0h-52V317h52v150.4Zm52.8 0h-52V317h52v150.4Zm52.8 0h-52V317h52v150.4Zm52.8 0h-52V317h52v150.4Zm52.8 0h-52V317h52v150.4Zm52.8 0h-52V317h52v150.4Zm52.8 0h-52V317h52v150.4Zm52.8 0h-52V317h52v150.4Zm52.8 0h-52V317h52v150.4Zm52.8 0h-52V317h52v150.4Zm52.8 0h-52V317h52v150.4Zm52.8 0h-52V317h52v150.4Zm52.8 0h-52V317h52v150.4Zm52.8 0h-52V317h52v150.4Zm52.8 0h-52V317h52v150.4Zm0-299.2h-52v148h52v-148Zm-52.8 0v148h-52v-148h52Zm-52.8 0h-52v148h52v-148Zm-52.8 0v148h-52v-148h52Zm-52.8 0h-52v148h52v-148Zm-52.8 0v148h-52v-148h52Zm-52.8 0h-52v148h52v-148Zm-52.8 0v148h-52v-148h52Zm-52.8 0h-52v148h52v-148Zm-52.8 0v148h-52v-148h52Zm-52.8 0h-52v148h52v-148Zm-52.8 0v148h-52v-148h52Zm-52.8 0h-52v148h52v-148Zm-52.8 0v148h-52v-148h52Zm-52.8 0h-52v148h52v-148Zm-52.8 0v148h-52v-148h52Zm-52.8 0h-52v148h52v-148Zm-52.8 0v148h-52v-148h52Zm-52.8 0h-52v148h52v-148Zm-52.8 0v148h-52v-148h52Zm-52.8 0h-52v148h52v-148Zm-52.8 0v148H64.8v-148h53.6Z" clip-rule="evenodd" opacity=".1"/>
  <path fill="#fff" d="m13.1 160.2 3.57-7.36-.07-.1H12v-.95h5.65v1.34l-3.4 7.07h-1.14Zm-1.1-6.13v-2.28h.92v2.28H12Zm9.7 6.34c-.64 0-1.19-.13-1.63-.4a2.7 2.7 0 0 1-1.02-1.04 2.86 2.86 0 0 1-.34-1.37h1.08c0 .35.08.66.23.94.16.28.39.5.67.66.28.16.62.24 1.01.24s.72-.08 1-.23a1.75 1.75 0 0 0 .93-1.61c0-.36-.08-.67-.24-.96a1.72 1.72 0 0 0-.67-.68 1.95 1.95 0 0 0-1.02-.25c-.28 0-.57.05-.86.15-.3.09-.53.22-.7.4h-1.02l.43-4.47h4.41v.95H20.2l.28-.39-.32 3.27-.3-.1a2.5 2.5 0 0 1 1.9-.74c.64 0 1.19.14 1.62.4a2.74 2.74 0 0 1 1.34 2.33v.17a2.71 2.71 0 0 1-1.37 2.34c-.45.26-1 .39-1.64.39Zm7.83 0a3.8 3.8 0 0 1-1.62-.32c-.43-.23-.8-.53-1.07-.9a3.8 3.8 0 0 1-.59-1.3 6.6 6.6 0 0 1-.18-1.58v-.63c0-.77.12-1.47.36-2.1.24-.61.62-1.1 1.13-1.47a3.3 3.3 0 0 1 1.97-.55c.8 0 1.45.19 1.95.55.51.36.88.86 1.12 1.48.25.62.37 1.32.37 2.1v.62a6.6 6.6 0 0 1-.18 1.57c-.13.5-.33.93-.6 1.3a2.9 2.9 0 0 1-1.06.9 3.6 3.6 0 0 1-1.6.33Zm0-1.02c.8 0 1.38-.26 1.75-.8.37-.55.56-1.4.56-2.58 0-1.23-.2-2.11-.57-2.64-.38-.53-.96-.8-1.74-.8-.8 0-1.38.27-1.77.8-.37.53-.56 1.4-.56 2.61 0 1.19.19 2.05.56 2.6.38.54.97.81 1.77.81Zm5.46 2.62-.89-.33 1.07-2.98.91.35-1.1 2.96Zm6.11-1.6c-.63 0-1.17-.11-1.61-.32-.44-.23-.8-.53-1.07-.9a3.8 3.8 0 0 1-.59-1.3 6.6 6.6 0 0 1-.18-1.58v-.63c0-.77.12-1.47.35-2.1.25-.61.63-1.1 1.13-1.47a3.3 3.3 0 0 1 1.97-.55c.8 0 1.45.19 1.96.55.5.36.88.86 1.12 1.48.24.62.37 1.32.37 2.1v.62a6.6 6.6 0 0 1-.19 1.57c-.12.5-.32.93-.6 1.3-.27.38-.62.68-1.06.9a3.6 3.6 0 0 1-1.6.33Zm0-1.02c.8 0 1.38-.26 1.75-.8.38-.55.57-1.4.57-2.58 0-1.23-.2-2.11-.58-2.64-.37-.53-.95-.8-1.74-.8s-1.38.27-1.76.8c-.38.53-.56 1.4-.56 2.61 0 1.19.18 2.05.56 2.6.38.54.96.81 1.76.81Zm8.56 1.02c-.63 0-1.16-.11-1.6-.32-.45-.23-.8-.53-1.08-.9a3.8 3.8 0 0 1-.59-1.3 6.6 6.6 0 0 1-.18-1.58v-.63c0-.77.12-1.47.35-2.1.25-.61.63-1.1 1.13-1.47a3.3 3.3 0 0 1 1.97-.55c.8 0 1.45.19 1.96.55.5.36.88.86 1.12 1.48.24.62.37 1.32.37 2.1v.62a6.6 6.6 0 0 1-.19 1.57c-.12.5-.32.93-.6 1.3-.26.38-.62.68-1.06.9a3.6 3.6 0 0 1-1.6.33Zm0-1.02c.8 0 1.39-.26 1.75-.8.38-.55.57-1.4.57-2.58 0-1.23-.2-2.11-.58-2.64-.37-.53-.95-.8-1.74-.8s-1.38.27-1.76.8c-.38.53-.56 1.4-.56 2.61 0 1.19.18 2.05.56 2.6.38.54.96.81 1.76.81Zm8.56 1.02c-.63 0-1.16-.11-1.6-.32-.45-.23-.8-.53-1.08-.9a3.8 3.8 0 0 1-.59-1.3 6.6 6.6 0 0 1-.18-1.58v-.63c0-.77.12-1.47.36-2.1a3.3 3.3 0 0 1 1.12-1.47 3.3 3.3 0 0 1 1.97-.55c.8 0 1.46.19 1.96.55.51.36.88.86 1.12 1.48.25.62.37 1.32.37 2.1v.62a6.6 6.6 0 0 1-.19 1.57c-.12.5-.32.93-.6 1.3-.26.38-.62.68-1.05.9a3.6 3.6 0 0 1-1.6.33Zm0-1.02c.8 0 1.39-.26 1.76-.8.37-.55.56-1.4.56-2.58 0-1.23-.2-2.11-.58-2.64-.37-.53-.95-.8-1.74-.8s-1.37.27-1.76.8c-.37.53-.56 1.4-.56 2.61 0 1.19.19 2.05.56 2.6.38.54.97.81 1.76.81Zm5.47 2.62-.89-.33 1.07-2.98.91.35-1.1 2.96Zm6.11-1.6c-.63 0-1.17-.11-1.61-.32-.44-.23-.8-.53-1.07-.9a3.8 3.8 0 0 1-.6-1.3 6.6 6.6 0 0 1-.18-1.58v-.63c0-.77.12-1.47.36-2.1.25-.61.62-1.1 1.13-1.47a3.3 3.3 0 0 1 1.97-.55c.8 0 1.45.19 1.96.55.5.36.88.86 1.12 1.48.24.62.37 1.32.37 2.1v.62a6.6 6.6 0 0 1-.19 1.57c-.12.5-.32.93-.6 1.3-.27.38-.62.68-1.06.9a3.6 3.6 0 0 1-1.6.33Zm0-1.02c.8 0 1.38-.26 1.75-.8.38-.55.57-1.4.57-2.58 0-1.23-.2-2.11-.58-2.64-.38-.53-.96-.8-1.74-.8-.79 0-1.38.27-1.76.8-.38.53-.57 1.4-.57 2.61 0 1.19.2 2.05.57 2.6.37.54.96.81 1.76.81Zm8.56 1.02c-.63 0-1.17-.11-1.61-.32-.44-.23-.8-.53-1.07-.9a3.8 3.8 0 0 1-.59-1.3 6.6 6.6 0 0 1-.18-1.58v-.63c0-.77.12-1.47.35-2.1.25-.61.63-1.1 1.13-1.47a3.3 3.3 0 0 1 1.97-.55c.8 0 1.45.19 1.96.55.5.36.88.86 1.12 1.48.24.62.37 1.32.37 2.1v.62a6.6 6.6 0 0 1-.19 1.57c-.12.5-.32.93-.6 1.3-.27.38-.62.68-1.06.9a3.6 3.6 0 0 1-1.6.33Zm0-1.02c.8 0 1.38-.26 1.75-.8.38-.55.57-1.4.57-2.58 0-1.23-.2-2.11-.58-2.64-.37-.53-.95-.8-1.74-.8s-1.38.27-1.76.8c-.38.53-.56 1.4-.56 2.61 0 1.19.18 2.05.56 2.6.38.54.96.81 1.76.81Zm8.56 1.02c-.63 0-1.16-.11-1.6-.32-.45-.23-.8-.53-1.08-.9a3.8 3.8 0 0 1-.59-1.3 6.6 6.6 0 0 1-.18-1.58v-.63c0-.77.12-1.47.35-2.1.25-.61.63-1.1 1.13-1.47a3.3 3.3 0 0 1 1.97-.55c.8 0 1.45.19 1.96.55.5.36.88.86 1.12 1.48.25.62.37 1.32.37 2.1v.62a6.6 6.6 0 0 1-.19 1.57c-.12.5-.32.93-.6 1.3-.26.38-.62.68-1.06.9a3.6 3.6 0 0 1-1.6.33Zm0-1.02c.8 0 1.39-.26 1.75-.8.38-.55.57-1.4.57-2.58 0-1.23-.2-2.11-.58-2.64-.37-.53-.95-.8-1.74-.8s-1.38.27-1.76.8c-.38.53-.56 1.4-.56 2.61 0 1.19.18 2.05.56 2.6.38.54.96.81 1.76.81ZM12.74 309.2c-.64 0-1.19-.12-1.63-.38a2.71 2.71 0 0 1-1.02-1.05 2.86 2.86 0 0 1-.34-1.37h1.08c0 .35.08.67.23.94.16.28.39.5.67.66.28.16.62.24 1.01.24s.72-.08 1-.23a1.75 1.75 0 0 0 .93-1.61c0-.36-.08-.68-.24-.96a1.72 1.72 0 0 0-.67-.68 1.95 1.95 0 0 0-1.02-.25c-.28 0-.57.05-.86.15-.3.09-.53.22-.7.4h-1.02l.43-4.47H15v.95h-3.77l.28-.39-.32 3.27-.3-.1a2.5 2.5 0 0 1 1.9-.74c.64 0 1.19.14 1.62.4a2.74 2.74 0 0 1 1.34 2.33v.17a2.7 2.7 0 0 1-1.37 2.34c-.45.26-1 .39-1.64.39Zm7.83 0a3.8 3.8 0 0 1-1.62-.31c-.43-.23-.8-.53-1.07-.9a3.8 3.8 0 0 1-.59-1.3 6.58 6.58 0 0 1-.18-1.58v-.63c0-.77.12-1.47.36-2.1a3.2 3.2 0 0 1 1.13-1.47 3.3 3.3 0 0 1 1.97-.55c.8 0 1.45.18 1.95.55.51.36.88.85 1.12 1.48.25.62.37 1.32.37 2.1v.62c0 .55-.06 1.07-.18 1.57-.13.5-.33.93-.6 1.3-.27.38-.62.68-1.06.9a3.6 3.6 0 0 1-1.6.33Zm0-1c.8 0 1.38-.27 1.75-.81.37-.55.56-1.4.56-2.58 0-1.23-.19-2.11-.57-2.64-.38-.53-.96-.8-1.74-.8-.8 0-1.38.27-1.77.8-.37.53-.56 1.4-.56 2.61 0 1.19.19 2.05.56 2.6.38.54.97.81 1.77.81Zm8.56 1a3.8 3.8 0 0 1-1.62-.31 3.24 3.24 0 0 1-1.07-.9 3.8 3.8 0 0 1-.58-1.3 6.58 6.58 0 0 1-.19-1.58v-.63c0-.77.12-1.47.36-2.1a3.2 3.2 0 0 1 1.13-1.47 3.3 3.3 0 0 1 1.97-.55c.8 0 1.45.18 1.96.55.5.36.88.85 1.11 1.48.25.62.37 1.32.37 2.1v.62c0 .55-.06 1.07-.18 1.57-.13.5-.32.93-.6 1.3-.27.38-.62.68-1.06.9a3.6 3.6 0 0 1-1.6.33Zm0-1c.8 0 1.38-.27 1.75-.81.37-.55.56-1.4.56-2.58 0-1.23-.19-2.11-.57-2.64-.38-.53-.96-.8-1.74-.8-.8 0-1.38.27-1.77.8-.37.53-.56 1.4-.56 2.61 0 1.19.19 2.05.56 2.6.38.54.97.81 1.77.81Zm5.46 2.6-.89-.32 1.07-2.98.91.35-1.09 2.96Zm6.11-1.6c-.63 0-1.16-.1-1.6-.31-.45-.23-.8-.53-1.08-.9a3.8 3.8 0 0 1-.59-1.3 6.58 6.58 0 0 1-.18-1.58v-.63c0-.77.12-1.47.35-2.1a3.2 3.2 0 0 1 1.13-1.47 3.3 3.3 0 0 1 1.97-.55c.8 0 1.46.18 1.96.55.5.36.88.85 1.12 1.48.25.62.37 1.32.37 2.1v.62a6.2 6.2 0 0 1-.19 1.57c-.12.5-.32.93-.6 1.3-.26.38-.62.68-1.05.9a3.6 3.6 0 0 1-1.6.33Zm0-1c.8 0 1.39-.27 1.75-.81.38-.55.57-1.4.57-2.58 0-1.23-.2-2.11-.58-2.64-.37-.53-.95-.8-1.74-.8s-1.37.27-1.76.8c-.38.53-.56 1.4-.56 2.61 0 1.19.18 2.05.56 2.6.38.54.97.81 1.76.81Zm8.56 1c-.62 0-1.16-.1-1.6-.31-.45-.23-.8-.53-1.08-.9a3.8 3.8 0 0 1-.59-1.3 6.58 6.58 0 0 1-.18-1.58v-.63c0-.77.12-1.47.36-2.1a3.2 3.2 0 0 1 1.13-1.47 3.3 3.3 0 0 1 1.97-.55c.8 0 1.45.18 1.95.55.51.36.88.85 1.12 1.48.25.62.37 1.32.37 2.1v.62c0 .55-.06 1.07-.18 1.57-.13.5-.33.93-.6 1.3a2.9 2.9 0 0 1-1.06.9 3.6 3.6 0 0 1-1.6.33Zm0-1c.8 0 1.39-.27 1.76-.81.37-.55.56-1.4.56-2.58 0-1.23-.2-2.11-.58-2.64-.37-.53-.95-.8-1.73-.8-.8 0-1.38.27-1.77.8-.37.53-.56 1.4-.56 2.61 0 1.19.19 2.05.56 2.6.38.54.97.81 1.77.81Zm8.57 1a3.8 3.8 0 0 1-1.62-.31c-.43-.23-.8-.53-1.07-.9a3.8 3.8 0 0 1-.59-1.3 6.58 6.58 0 0 1-.18-1.58v-.63c0-.77.12-1.47.36-2.1a3.2 3.2 0 0 1 1.13-1.47 3.3 3.3 0 0 1 1.97-.55c.8 0 1.45.18 1.95.55.51.36.88.85 1.12 1.48.25.62.37 1.32.37 2.1v.62c0 .55-.06 1.07-.18 1.57-.13.5-.33.93-.6 1.3-.27.38-.62.68-1.06.9a3.6 3.6 0 0 1-1.6.33Zm0-1c.8 0 1.38-.27 1.75-.81.37-.55.56-1.4.56-2.58 0-1.23-.19-2.11-.57-2.64-.38-.53-.96-.8-1.74-.8-.8 0-1.38.27-1.77.8-.37.53-.56 1.4-.56 2.61 0 1.19.19 2.05.56 2.6.38.54.97.81 1.77.81Zm5.46 2.6-.89-.32 1.07-2.98.91.35-1.1 2.96Zm6.11-1.6c-.63 0-1.16-.1-1.61-.31-.44-.23-.8-.53-1.07-.9a3.8 3.8 0 0 1-.59-1.3 6.58 6.58 0 0 1-.18-1.58v-.63c0-.77.12-1.47.35-2.1a3.2 3.2 0 0 1 1.13-1.47 3.3 3.3 0 0 1 1.97-.55c.8 0 1.45.18 1.96.55.5.36.88.85 1.12 1.48.24.62.37 1.32.37 2.1v.62a6.2 6.2 0 0 1-.19 1.57c-.12.5-.32.93-.6 1.3-.27.38-.62.68-1.06.9a3.6 3.6 0 0 1-1.6.33Zm0-1c.8 0 1.38-.27 1.75-.81.38-.55.57-1.4.57-2.58 0-1.23-.2-2.11-.58-2.64-.37-.53-.95-.8-1.74-.8s-1.38.27-1.76.8c-.38.53-.56 1.4-.56 2.61 0 1.19.18 2.05.56 2.6.38.54.96.81 1.76.81Zm8.56 1c-.63 0-1.16-.1-1.6-.31-.45-.23-.8-.53-1.08-.9a3.8 3.8 0 0 1-.59-1.3 6.58 6.58 0 0 1-.18-1.58v-.63c0-.77.12-1.47.35-2.1a3.2 3.2 0 0 1 1.13-1.47 3.3 3.3 0 0 1 1.97-.55c.8 0 1.46.18 1.96.55.5.36.88.85 1.12 1.48.25.62.37 1.32.37 2.1v.62a6.2 6.2 0 0 1-.19 1.57c-.12.5-.32.93-.6 1.3-.26.38-.62.68-1.06.9a3.6 3.6 0 0 1-1.6.33Zm0-1c.8 0 1.39-.27 1.75-.81.38-.55.57-1.4.57-2.58 0-1.23-.2-2.11-.58-2.64-.37-.53-.95-.8-1.74-.8s-1.37.27-1.76.8c-.38.53-.56 1.4-.56 2.61 0 1.19.18 2.05.56 2.6.38.54.97.81 1.76.81Zm8.57 1a3.8 3.8 0 0 1-1.62-.31c-.44-.23-.8-.53-1.07-.9a3.8 3.8 0 0 1-.59-1.3 6.58 6.58 0 0 1-.18-1.58v-.63c0-.77.12-1.47.36-2.1a3.2 3.2 0 0 1 1.13-1.47 3.3 3.3 0 0 1 1.97-.55c.8 0 1.45.18 1.95.55.51.36.88.85 1.12 1.48.25.62.37 1.32.37 2.1v.62c0 .55-.06 1.07-.18 1.57-.13.5-.33.93-.6 1.3a2.9 2.9 0 0 1-1.06.9 3.6 3.6 0 0 1-1.6.33Zm0-1c.8 0 1.38-.27 1.75-.81.37-.55.56-1.4.56-2.58 0-1.23-.2-2.11-.58-2.64-.37-.53-.95-.8-1.73-.8-.8 0-1.38.27-1.77.8-.37.53-.56 1.4-.56 2.61 0 1.19.19 2.05.56 2.6.38.54.97.81 1.77.81Zm-74.51 152v-1.38c0-.34.04-.63.14-.87.1-.23.27-.45.5-.64.24-.2.56-.4.97-.58l1.58-.72c.38-.18.69-.4.9-.68.23-.29.34-.65.34-1.1 0-.54-.15-.95-.45-1.25-.3-.3-.72-.45-1.26-.45s-.96.15-1.27.45c-.3.3-.46.71-.46 1.25h-1.08c0-.48.1-.93.3-1.33.2-.41.51-.73.93-.97a3 3 0 0 1 1.58-.37 3 3 0 0 1 1.56.37c.42.24.73.55.93.94.2.4.3.82.3 1.28v.16c0 .61-.17 1.12-.52 1.54-.35.41-.82.75-1.4 1.02l-1.59.73c-.35.16-.59.32-.71.48-.12.16-.19.38-.19.65v1.06l-.3-.53h4.82v.94h-5.62Zm9.88.2c-.64 0-1.19-.12-1.63-.38a2.7 2.7 0 0 1-1.02-1.05 2.86 2.86 0 0 1-.34-1.37h1.08c0 .35.08.66.23.94.16.28.39.5.67.66.28.16.62.24 1.01.24s.72-.08 1-.23a1.75 1.75 0 0 0 .93-1.61c0-.36-.08-.68-.24-.96a1.72 1.72 0 0 0-.67-.68 1.95 1.95 0 0 0-1.02-.25c-.28 0-.57.05-.86.15-.3.09-.53.22-.7.4h-1.02l.43-4.47h4.41v.94H20.4l.27-.38-.32 3.26-.3-.1a2.6 2.6 0 0 1 1.9-.73c.65 0 1.19.14 1.62.4a2.74 2.74 0 0 1 1.34 2.33v.17a2.71 2.71 0 0 1-1.37 2.34c-.45.26-.99.39-1.64.39Zm7.83 0a3.8 3.8 0 0 1-1.62-.31c-.43-.23-.8-.53-1.07-.9a3.8 3.8 0 0 1-.58-1.3 6.6 6.6 0 0 1-.19-1.58v-.63c0-.77.12-1.47.36-2.1.24-.61.62-1.1 1.13-1.47a3.3 3.3 0 0 1 1.97-.55c.8 0 1.45.19 1.96.55.5.36.87.86 1.11 1.48.25.62.37 1.32.37 2.1v.62a6.6 6.6 0 0 1-.18 1.57c-.13.5-.33.93-.6 1.3-.27.38-.62.68-1.06.9a3.6 3.6 0 0 1-1.6.33Zm0-1c.8 0 1.38-.27 1.75-.81.37-.55.56-1.4.56-2.58 0-1.23-.19-2.11-.57-2.64-.38-.53-.96-.8-1.74-.8-.8 0-1.38.27-1.77.8-.37.53-.56 1.4-.56 2.61 0 1.19.19 2.05.56 2.6.38.54.97.81 1.77.81Zm5.46 2.6-.89-.32 1.07-2.98.91.35-1.1 2.96Zm6.11-1.6c-.63 0-1.16-.1-1.6-.31-.45-.23-.8-.53-1.08-.9a3.8 3.8 0 0 1-.59-1.3 6.6 6.6 0 0 1-.18-1.58v-.63c0-.77.12-1.47.35-2.1a3.2 3.2 0 0 1 1.13-1.47 3.3 3.3 0 0 1 1.97-.55c.8 0 1.45.19 1.96.55.5.36.88.86 1.12 1.48.24.62.37 1.32.37 2.1v.62a6.6 6.6 0 0 1-.19 1.57c-.12.5-.32.93-.6 1.3-.26.38-.62.68-1.06.9a3.6 3.6 0 0 1-1.6.33Zm0-1c.8 0 1.39-.27 1.75-.81.38-.55.57-1.4.57-2.58 0-1.23-.2-2.11-.58-2.64-.37-.53-.95-.8-1.74-.8s-1.38.27-1.76.8c-.38.53-.56 1.4-.56 2.61 0 1.19.18 2.05.56 2.6.38.54.96.81 1.76.81Zm8.56 1c-.63 0-1.16-.1-1.6-.31-.45-.23-.8-.53-1.08-.9a3.8 3.8 0 0 1-.59-1.3 6.6 6.6 0 0 1-.18-1.58v-.63c0-.77.12-1.47.36-2.1a3.3 3.3 0 0 1 1.12-1.47 3.3 3.3 0 0 1 1.97-.55c.8 0 1.46.19 1.96.55.51.36.88.86 1.12 1.48.25.62.37 1.32.37 2.1v.62a6.6 6.6 0 0 1-.19 1.57c-.12.5-.32.93-.6 1.3-.26.38-.62.68-1.05.9a3.6 3.6 0 0 1-1.6.33Zm0-1c.8 0 1.39-.27 1.76-.81.37-.55.56-1.4.56-2.58 0-1.23-.2-2.11-.58-2.64-.37-.53-.95-.8-1.74-.8s-1.37.27-1.76.8c-.37.53-.56 1.4-.56 2.61 0 1.19.19 2.05.56 2.6.38.54.97.81 1.76.81Zm8.57 1a3.8 3.8 0 0 1-1.62-.31c-.43-.23-.8-.53-1.07-.9a3.8 3.8 0 0 1-.59-1.3 6.6 6.6 0 0 1-.18-1.58v-.63c0-.77.12-1.47.36-2.1.24-.61.62-1.1 1.13-1.47a3.3 3.3 0 0 1 1.97-.55c.8 0 1.45.19 1.95.55.51.36.88.86 1.12 1.48.25.62.37 1.32.37 2.1v.62a6.6 6.6 0 0 1-.18 1.57c-.13.5-.33.93-.6 1.3a2.9 2.9 0 0 1-1.06.9 3.6 3.6 0 0 1-1.6.33Zm0-1c.8 0 1.38-.27 1.75-.81.37-.55.56-1.4.56-2.58 0-1.23-.2-2.11-.57-2.64-.38-.53-.96-.8-1.74-.8-.8 0-1.38.27-1.77.8-.37.53-.56 1.4-.56 2.61 0 1.19.19 2.05.56 2.6.38.54.97.81 1.77.81Zm5.46 2.6-.89-.32 1.07-2.98.91.35-1.1 2.96Zm6.11-1.6c-.63 0-1.17-.1-1.61-.31-.44-.23-.8-.53-1.07-.9a3.8 3.8 0 0 1-.59-1.3 6.6 6.6 0 0 1-.18-1.58v-.63c0-.77.12-1.47.35-2.1.25-.61.63-1.1 1.13-1.47a3.3 3.3 0 0 1 1.97-.55c.8 0 1.45.19 1.96.55.5.36.88.86 1.12 1.48.24.62.37 1.32.37 2.1v.62a6.6 6.6 0 0 1-.19 1.57c-.12.5-.32.93-.6 1.3-.27.38-.62.68-1.06.9a3.6 3.6 0 0 1-1.6.33Zm0-1c.8 0 1.38-.27 1.75-.81.38-.55.57-1.4.57-2.58 0-1.23-.2-2.11-.58-2.64-.37-.53-.95-.8-1.74-.8s-1.38.27-1.76.8c-.38.53-.56 1.4-.56 2.61 0 1.19.18 2.05.56 2.6.38.54.96.81 1.76.81Zm8.56 1c-.63 0-1.16-.1-1.6-.31-.45-.23-.8-.53-1.08-.9a3.8 3.8 0 0 1-.59-1.3 6.6 6.6 0 0 1-.18-1.58v-.63c0-.77.12-1.47.35-2.1.25-.61.63-1.1 1.13-1.47a3.3 3.3 0 0 1 1.97-.55c.8 0 1.45.19 1.96.55.5.36.88.86 1.12 1.48.24.62.37 1.32.37 2.1v.62a6.6 6.6 0 0 1-.19 1.57c-.12.5-.32.93-.6 1.3-.26.38-.62.68-1.06.9a3.6 3.6 0 0 1-1.6.33Zm0-1c.8 0 1.39-.27 1.75-.81.38-.55.57-1.4.57-2.58 0-1.23-.2-2.11-.58-2.64-.37-.53-.95-.8-1.74-.8s-1.38.27-1.76.8c-.38.53-.56 1.4-.56 2.61 0 1.19.18 2.05.56 2.6.38.54.96.81 1.76.81Zm8.56 1c-.63 0-1.16-.1-1.6-.31-.45-.23-.8-.53-1.08-.9a3.8 3.8 0 0 1-.59-1.3 6.6 6.6 0 0 1-.18-1.58v-.63c0-.77.12-1.47.36-2.1a3.3 3.3 0 0 1 1.12-1.47 3.3 3.3 0 0 1 1.97-.55c.8 0 1.46.19 1.96.55.51.36.88.86 1.12 1.48.25.62.37 1.32.37 2.1v.62a6.6 6.6 0 0 1-.19 1.57c-.12.5-.32.93-.6 1.3-.26.38-.62.68-1.05.9a3.6 3.6 0 0 1-1.6.33Zm0-1c.8 0 1.39-.27 1.76-.81.37-.55.56-1.4.56-2.58 0-1.23-.2-2.11-.58-2.64-.37-.53-.95-.8-1.74-.8s-1.37.27-1.76.8c-.37.53-.56 1.4-.56 2.61 0 1.19.19 2.05.56 2.6.38.54.97.81 1.76.81ZM75.8 262.33h-7v-1.24l4.67-2.08v-.15l-4.68-2.06v-1.26h7.01v.94h-5.98l.02-.07 4.51 1.99v1.15l-4.51 2-.02-.08h5.98v.86Zm.17-11.05a2.73 2.73 0 0 1-.84 2.04c-.25.23-.53.4-.85.53-.31.11-.63.17-.96.17h-.17a2.63 2.63 0 0 1-2.42-1.58 2.8 2.8 0 0 1-.23-1.16 2.8 2.8 0 0 1 .84-2.03 2.63 2.63 0 0 1 1.81-.72h.17c.33 0 .65.06.96.18a2.53 2.53 0 0 1 1.46 1.38c.16.34.23.74.23 1.19Zm-.82 0a1.67 1.67 0 0 0-.94-1.6 2.1 2.1 0 0 0-.97-.23c-.37 0-.7.08-.98.22a1.75 1.75 0 0 0-.93 1.61c0 .37.08.69.25.97.16.27.39.48.68.63.29.15.61.22.98.22.36 0 .68-.07.97-.21.29-.15.52-.36.69-.63.16-.27.25-.6.25-.98Zm.65-4.13h-5.13v-.73h2.2v.12c-.5 0-.93-.07-1.27-.2a1.62 1.62 0 0 1-.8-.64 1.9 1.9 0 0 1-.28-1.06v-.04c0-.65.2-1.13.6-1.43.4-.32 1-.47 1.75-.47h2.93v.92h-3.12c-.4 0-.71.1-.95.33a1.2 1.2 0 0 0-.36.93c0 .4.12.72.37.97s.58.38 1 .38h3.06v.92Zm.06-8.14c0 .39-.06.72-.16 1-.11.28-.3.5-.56.64-.27.15-.63.22-1.09.22h-4.93V240h5.05a.9.9 0 0 0 .64-.22.9.9 0 0 0 .22-.64v-.9h.83v.78Zm-4.5 2.75h-.69v-3.53h.7v3.53Zm4.44-4.84h-7V236h4.18v.23c-.5 0-.94-.06-1.3-.2a1.76 1.76 0 0 1-.86-.6c-.2-.28-.3-.63-.3-1.06v-.04c0-.62.2-1.08.62-1.4.4-.3.98-.46 1.73-.46h2.93v.92h-3.12c-.42 0-.74.12-.97.35-.23.23-.34.53-.34.9 0 .42.13.75.4 1 .28.24.63.36 1.07.36h2.96v.92Zm0-9.4h-6.55l.33-.42v1.98h-.79v-2.48h7.01v.92ZM55.12 609.2c-.63 0-1.16-.1-1.6-.32-.45-.22-.8-.52-1.08-.9a3.8 3.8 0 0 1-.59-1.3 6.58 6.58 0 0 1-.18-1.57v-.63c0-.77.12-1.47.36-2.1a3.2 3.2 0 0 1 1.12-1.47 3.3 3.3 0 0 1 1.97-.55c.8 0 1.46.18 1.96.55.51.36.88.86 1.12 1.48.25.62.37 1.32.37 2.1v.62a6.2 6.2 0 0 1-.19 1.57c-.12.5-.32.93-.6 1.3-.26.38-.62.68-1.05.9a3.6 3.6 0 0 1-1.6.33Zm0-1c.8 0 1.39-.28 1.76-.81.37-.55.56-1.4.56-2.58 0-1.23-.2-2.11-.58-2.64-.37-.53-.95-.8-1.74-.8s-1.37.27-1.76.8c-.37.53-.56 1.4-.56 2.61 0 1.19.19 2.05.56 2.6.38.54.97.81 1.76.81Zm75.08-345.11h-7v-1.25l4.67-2.08v-.15l-4.68-2.06v-1.26h7v.94h-5.97l.02-.07 4.51 1.99v1.15l-4.51 2-.02-.08h5.98v.87Zm.17-11.06a2.74 2.74 0 0 1-.84 2.05 2.76 2.76 0 0 1-1.82.7h-.16a2.62 2.62 0 0 1-1.81-.73 2.8 2.8 0 0 1-.83-2.03 2.8 2.8 0 0 1 .83-2.02 2.62 2.62 0 0 1 1.81-.72h.17c.33 0 .65.06.96.18a2.53 2.53 0 0 1 1.46 1.39c.16.34.23.73.23 1.18Zm-.82 0a1.67 1.67 0 0 0-.94-1.6 2.1 2.1 0 0 0-.97-.23c-.37 0-.7.08-.98.22-.3.15-.52.36-.69.64-.16.27-.24.59-.24.97a1.67 1.67 0 0 0 .93 1.6c.28.15.61.22.98.22.35 0 .68-.07.97-.21.28-.15.51-.35.69-.62.16-.28.25-.6.25-1Zm.65-4.13h-5.13v-.73h2.2v.12c-.5 0-.93-.07-1.28-.2a1.62 1.62 0 0 1-.8-.64 1.9 1.9 0 0 1-.27-1.06v-.04c0-.65.2-1.13.6-1.43.4-.32.99-.47 1.75-.47h2.93v.92h-3.12c-.4 0-.71.11-.95.34a1.2 1.2 0 0 0-.37.92 1.3 1.3 0 0 0 1.38 1.35h3.06v.92Zm.06-8.14c0 .39-.06.72-.17 1-.1.28-.3.5-.55.65-.27.14-.63.22-1.09.22h-4.93v-.89h5.05c.27 0 .49-.07.64-.22a.89.89 0 0 0 .22-.64v-.9h.83v.78Zm-4.5 2.75h-.69v-3.53h.7v3.53Zm4.44-4.84h-7v-.92h4.18v.23c-.5 0-.94-.06-1.3-.19a1.75 1.75 0 0 1-.86-.61c-.2-.28-.3-.63-.3-1.06v-.04c0-.61.2-1.08.61-1.4.4-.3.99-.46 1.74-.46h2.93v.92h-3.12c-.42 0-.74.12-.97.36-.23.23-.35.53-.35.9 0 .4.14.74.42.99.27.24.62.36 1.06.36h2.96v.92Zm0-8.17h-1.15c-.28 0-.52-.04-.72-.11-.2-.09-.38-.23-.54-.43-.17-.2-.33-.46-.48-.8l-.6-1.32a2.05 2.05 0 0 0-.57-.76 1.43 1.43 0 0 0-.91-.27c-.45 0-.8.12-1.05.37s-.37.6-.37 1.06c0 .44.12.8.37 1.05.25.26.6.39 1.05.39v.9c-.4 0-.78-.09-1.12-.25-.34-.17-.6-.43-.8-.78-.2-.34-.31-.78-.31-1.31s.1-.97.3-1.3c.2-.35.47-.61.8-.78.32-.17.68-.26 1.06-.26h.13c.5 0 .93.15 1.28.44.35.3.63.68.86 1.18l.6 1.31c.13.3.27.5.4.6.14.1.32.15.54.15h.88l-.44.25v-4.01h.79v4.68Zm52.8 33.57h-7v-1.25l4.67-2.07v-.16l-4.68-2.06v-1.26H183v.94h-5.98l.02-.07 4.51 2v1.14l-4.51 2-.02-.08H183v.87Zm.17-11.06a2.73 2.73 0 0 1-.84 2.04 2.74 2.74 0 0 1-1.8.7h-.18a2.65 2.65 0 0 1-2.65-2.74 2.8 2.8 0 0 1 .84-2.03 2.65 2.65 0 0 1 1.81-.72h.17a2.64 2.64 0 0 1 2.42 1.57c.16.34.23.73.23 1.18Zm-.82 0a1.67 1.67 0 0 0-.94-1.6 2.1 2.1 0 0 0-.97-.23c-.37 0-.7.08-.98.22-.29.15-.52.36-.68.64-.17.27-.25.6-.25.97s.08.7.25.97c.16.27.39.48.68.63a2.37 2.37 0 0 0 1.95.02c.28-.16.52-.36.69-.63.16-.28.25-.6.25-1Zm.65-4.13h-5.13v-.73h2.2v.12c-.5 0-.93-.07-1.28-.2a1.63 1.63 0 0 1-.8-.64 1.9 1.9 0 0 1-.27-1.06v-.04c0-.65.2-1.12.6-1.43.4-.31.99-.47 1.75-.47H183v.92h-3.12c-.4 0-.71.11-.95.34a1.2 1.2 0 0 0-.37.92c0 .4.13.73.38.98s.58.37 1 .37H183v.92Zm.06-8.13c0 .38-.06.71-.17 1-.1.27-.29.48-.55.64-.27.14-.63.22-1.09.22h-4.93v-.89h5.05c.27 0 .49-.07.64-.22a.9.9 0 0 0 .22-.64v-.9h.83v.78Zm-4.5 2.74h-.69v-3.53h.7v3.53Zm4.44-4.84h-7v-.92h4.18v.23c-.5 0-.94-.06-1.3-.19a1.75 1.75 0 0 1-.86-.61c-.2-.28-.3-.63-.3-1.06v-.04c0-.61.2-1.08.61-1.39.4-.31.99-.47 1.74-.47H183v.92h-3.12c-.42 0-.74.12-.97.36-.23.23-.34.53-.34.9 0 .4.13.74.4.99.28.24.63.36 1.07.36H183v.92Zm.17-10.3c0 .52-.1.96-.3 1.33a2.14 2.14 0 0 1-1.92 1.11v-.9c.43 0 .78-.14 1.03-.41.26-.29.39-.66.39-1.14 0-.31-.06-.58-.18-.81a1.3 1.3 0 0 0-1.24-.73c-.44 0-.8.14-1.06.42-.27.27-.4.65-.4 1.11a1.58 1.58 0 0 0 .25.9l-.83.46-1.96-2.68-.17.1v3.4h-.79v-4.27h1.28l1.61 2.22.03.67a2.68 2.68 0 0 1 .15-2.13 2.02 2.02 0 0 1 1.82-1.1h.13a2.08 2.08 0 0 1 1.86 1.1c.2.37.3.81.3 1.34Zm52.63 35.35h-7v-1.25l4.67-2.07v-.16l-4.68-2.06v-1.26h7.01v.94h-5.98l.02-.06 4.51 1.98v1.15l-4.51 2-.02-.08h5.98v.87Zm.17-11.06a2.71 2.71 0 0 1-.84 2.05 2.77 2.77 0 0 1-1.81.7h-.17a2.63 2.63 0 0 1-2.42-1.59 2.78 2.78 0 0 1-.23-1.16 2.78 2.78 0 0 1 .84-2.03 2.63 2.63 0 0 1 1.81-.72h.17c.33 0 .65.07.96.19a2.53 2.53 0 0 1 1.46 1.38c.16.34.23.73.23 1.18Zm-.82 0c0-.38-.09-.71-.25-.98-.17-.28-.4-.48-.7-.62a2.09 2.09 0 0 0-.96-.22c-.37 0-.7.07-.98.22a1.6 1.6 0 0 0-.68.63c-.17.27-.25.6-.25.97s.08.7.25.97c.16.27.39.49.68.63a2.34 2.34 0 0 0 1.95.02c.28-.16.52-.36.69-.63.16-.28.25-.6.25-.99Zm.65-4.13h-5.13v-.73h2.2v.12c-.5 0-.93-.07-1.27-.2a1.62 1.62 0 0 1-.8-.64 1.9 1.9 0 0 1-.28-1.06v-.04c0-.65.2-1.12.6-1.43.4-.31 1-.47 1.75-.47h2.93v.92h-3.12c-.4 0-.71.11-.95.34a1.2 1.2 0 0 0-.36.92c0 .4.12.73.37.98s.58.37 1 .37h3.06v.92Zm.06-8.13c0 .38-.06.71-.17 1-.1.27-.29.48-.55.64-.27.14-.63.22-1.09.22h-4.93v-.88h5.05a.9.9 0 0 0 .64-.23.9.9 0 0 0 .22-.64v-.9h.83v.79Zm-4.5 2.74h-.69v-3.53h.7v3.53Zm4.44-4.83h-7v-.93h4.18v.23c-.5 0-.94-.06-1.3-.19a1.76 1.76 0 0 1-.86-.61c-.2-.28-.3-.63-.3-1.06v-.04c0-.61.2-1.07.61-1.39.4-.31.99-.47 1.74-.47h2.93v.92h-3.12c-.42 0-.74.12-.97.36-.23.23-.34.53-.34.9 0 .41.13.74.4.99.28.24.63.36 1.07.36h2.96v.93Zm-1.66-7.9h-1.13l-4.39-2.92.5-.64 4.12 2.72.17-.09v-4.53h.73v5.45Zm1.66-3.66h-4.96v-.87h4.96v.87Zm52.8 37.37h-7v-1.24l4.67-2.07v-.16l-4.68-2.06v-1.26h7.01v.94h-5.98l.02-.06 4.51 1.98v1.15l-4.51 2-.02-.07h5.98v.86Zm.17-11.05a2.73 2.73 0 0 1-.83 2.05 2.77 2.77 0 0 1-1.81.7h-.18a2.63 2.63 0 0 1-2.42-1.59 2.78 2.78 0 0 1-.23-1.16 2.78 2.78 0 0 1 .84-2.03 2.63 2.63 0 0 1 1.81-.72h.17c.33 0 .65.07.96.19a2.54 2.54 0 0 1 1.46 1.38c.16.34.23.73.23 1.18Zm-.82 0a1.66 1.66 0 0 0-.94-1.6 2.09 2.09 0 0 0-.97-.22c-.37 0-.7.07-.98.22-.3.15-.52.36-.68.63-.17.27-.25.6-.25.97s.08.7.25.97c.16.28.39.49.68.63a2.37 2.37 0 0 0 1.95.02c.28-.15.51-.36.69-.63.16-.28.25-.6.25-.99Zm.65-4.13h-5.13v-.72h2.2v.11c-.5 0-.93-.07-1.28-.2a1.62 1.62 0 0 1-.8-.64 1.9 1.9 0 0 1-.27-1.06v-.04c0-.65.2-1.12.6-1.43.4-.31.99-.47 1.75-.47h2.93v.92h-3.12c-.4 0-.71.11-.95.34a1.2 1.2 0 0 0-.37.92c0 .4.13.73.38.98s.58.37 1 .37h3.06v.93Zm.06-8.13c0 .38-.06.71-.17 1-.1.27-.29.49-.55.64-.27.15-.63.22-1.09.22h-4.93v-.88h5.05a.9.9 0 0 0 .64-.22.9.9 0 0 0 .22-.65v-.9h.83v.79Zm-4.5 2.74h-.69V239h.7v3.53Zm4.44-4.83h-7v-.92h4.18v.22c-.5 0-.94-.06-1.3-.19a1.75 1.75 0 0 1-.86-.61c-.2-.28-.3-.63-.3-1.06v-.03c0-.62.2-1.08.61-1.4.4-.31.99-.47 1.74-.47h2.93v.92h-3.12c-.42 0-.74.12-.97.36-.23.23-.35.53-.35.9 0 .41.14.74.42.99.27.24.62.37 1.06.37h2.96v.92Zm.17-10.48c0 .54-.1 1-.32 1.36a2.3 2.3 0 0 1-2.02 1.14v-.9a1.47 1.47 0 0 0 1.33-.75c.14-.24.2-.52.2-.85 0-.32-.06-.6-.19-.83a1.45 1.45 0 0 0-1.34-.77 1.53 1.53 0 0 0-1.36.76c-.14.23-.21.52-.21.84 0 .24.04.48.12.72.08.24.19.44.34.59v.84l-3.73-.35v-3.68h.79v3.14l-.32-.23 2.72.27-.09.25a2.07 2.07 0 0 1-.44-.68c-.1-.26-.16-.57-.16-.9 0-.54.11-1 .33-1.36.22-.37.5-.64.86-.83.34-.19.7-.28 1.08-.28h.14a2.26 2.26 0 0 1 1.95 1.14c.21.37.32.82.32 1.36Zm52.63 35.56h-7v-1.24l4.67-2.08v-.15l-4.68-2.07V256h7.01v.94h-5.98l.02-.07 4.51 1.99V260l-4.51 2-.02-.08h5.98v.86Zm.17-11.06a2.73 2.73 0 0 1-.83 2.05 2.77 2.77 0 0 1-1.81.7h-.18a2.62 2.62 0 0 1-2.42-1.58 2.78 2.78 0 0 1-.23-1.17 2.78 2.78 0 0 1 .84-2.02 2.62 2.62 0 0 1 1.81-.72h.17a2.63 2.63 0 0 1 1.82.7 2.6 2.6 0 0 1 .83 2.04Zm-.82 0a1.67 1.67 0 0 0-.94-1.6 2.1 2.1 0 0 0-.97-.22c-.37 0-.7.07-.98.22-.29.15-.52.36-.68.63-.17.27-.25.6-.25.97 0 .38.08.7.25.97.16.28.39.49.68.64.29.14.61.22.98.22.36 0 .68-.07.97-.21.29-.15.51-.36.69-.63.16-.27.25-.6.25-.99Zm.65-4.12h-5.13v-.73h2.2v.11c-.5 0-.93-.06-1.27-.2a1.63 1.63 0 0 1-.8-.63 1.9 1.9 0 0 1-.28-1.07v-.04c0-.64.2-1.12.6-1.43.4-.3 1-.47 1.75-.47h2.93v.93h-3.12c-.4 0-.71.1-.95.33a1.2 1.2 0 0 0-.37.92c0 .4.13.73.38.98s.58.38 1 .38h3.06v.92Zm.06-8.14a3 3 0 0 1-.16 1c-.11.27-.3.49-.56.64-.27.15-.63.22-1.09.22h-4.93v-.88h5.05a.9.9 0 0 0 .64-.22.9.9 0 0 0 .22-.64v-.9h.83v.78Zm-4.5 2.75h-.69v-3.54h.7v3.54Zm4.44-4.84h-7v-.92h4.18v.23c-.5 0-.94-.06-1.3-.2a1.75 1.75 0 0 1-.86-.6c-.2-.28-.3-.63-.3-1.06v-.04c0-.62.2-1.08.62-1.4.4-.3.98-.46 1.73-.46h2.93v.92h-3.12c-.42 0-.74.12-.97.35-.23.23-.35.53-.35.9 0 .41.14.74.42 1 .27.24.62.36 1.06.36h2.96v.92Zm.2-10.8c0 .52-.1.95-.28 1.3a2.2 2.2 0 0 1-.73.81c-.31.2-.67.34-1.07.43-.4.09-.83.13-1.27.13h-.46c-1.1 0-1.96-.28-2.55-.83-.6-.55-.9-1.35-.9-2.39a8.67 8.67 0 0 1 .07-1.2h.79a11.8 11.8 0 0 0-.08 1.24c0 .58.11 1.04.33 1.38.22.34.53.58.94.73.4.15.9.22 1.47.22h.43l.85.23c-.5 0-.92-.1-1.25-.28-.34-.2-.59-.46-.75-.78a2.52 2.52 0 0 1-.25-1.15c0-.5.1-.92.3-1.26.2-.35.48-.6.83-.78.35-.18.75-.27 1.2-.27.46 0 .86.1 1.22.28a2 2 0 0 1 .85.84c.2.36.3.81.3 1.36Zm-.81 0c0-.34-.07-.64-.2-.88a1.27 1.27 0 0 0-.55-.52 1.68 1.68 0 0 0-.82-.19c-.3 0-.58.06-.82.18-.23.11-.41.28-.54.52-.14.22-.2.5-.2.83 0 .33.06.62.18.88s.3.46.54.6c.23.16.51.23.85.23.28 0 .54-.06.78-.17.24-.12.42-.3.56-.54.15-.24.22-.55.22-.93Zm53.41 36.31h-7v-1.25l4.67-2.08v-.15l-4.68-2.06v-1.26h7v.94h-5.97l.02-.07 4.51 1.99v1.15l-4.51 2-.02-.08h5.98v.87Zm.17-11.06a2.74 2.74 0 0 1-.84 2.04 2.74 2.74 0 0 1-1.8.7h-.18a2.64 2.64 0 0 1-2.42-1.58 2.8 2.8 0 0 1-.23-1.16 2.8 2.8 0 0 1 .84-2.03 2.64 2.64 0 0 1 1.81-.72h.17a2.64 2.64 0 0 1 2.42 1.57c.16.34.23.73.23 1.18Zm-.82 0a1.67 1.67 0 0 0-.94-1.6 2.1 2.1 0 0 0-.97-.23c-.37 0-.7.08-.98.22-.3.15-.52.36-.69.64-.16.27-.24.59-.24.97 0 .37.08.7.25.97.16.27.39.48.68.63.28.15.61.22.98.22.35 0 .68-.07.97-.21.28-.15.51-.36.69-.63.16-.27.25-.6.25-.98Zm.65-4.13h-5.13v-.73h2.2v.12c-.5 0-.93-.07-1.28-.2a1.62 1.62 0 0 1-.8-.64 1.9 1.9 0 0 1-.27-1.06v-.04c0-.65.2-1.13.6-1.43.4-.32.99-.47 1.75-.47h2.93v.92h-3.12c-.4 0-.71.11-.95.33a1.2 1.2 0 0 0-.37.92c0 .4.13.74.38.98.25.25.58.38 1 .38h3.06v.92Zm.06-8.14c0 .39-.06.72-.17 1-.1.28-.3.5-.55.64-.27.15-.63.22-1.09.22h-4.93v-.88h5.05c.27 0 .49-.07.64-.22a.89.89 0 0 0 .22-.64v-.9h.83v.78Zm-4.5 2.75h-.69v-3.53h.7v3.53Zm4.44-4.84h-7v-.92h4.18v.23c-.5 0-.94-.06-1.3-.2a1.75 1.75 0 0 1-.86-.6c-.2-.28-.3-.63-.3-1.06v-.04c0-.61.2-1.08.61-1.4.4-.3.99-.46 1.74-.46h2.93v.92h-3.12c-.42 0-.74.12-.97.35-.23.23-.35.54-.35.9 0 .42.14.75.42 1 .27.24.62.36 1.06.36h2.96v.92Zm0-8.82-6.13-2.97-.1.06v3.83h-.78v-4.7h1.12l5.89 2.82v.96Zm-5.1.92h-1.9v-.77h1.9v.77Zm57.9 33.62h-7v-1.25l4.67-2.08v-.15l-4.68-2.06v-1.26H447v.94h-5.98l.02-.07 4.51 1.99v1.15l-4.51 2-.02-.08H447v.87Zm.17-11.06a2.73 2.73 0 0 1-.83 2.04 2.76 2.76 0 0 1-1.81.7h-.18a2.63 2.63 0 0 1-2.42-1.58 2.8 2.8 0 0 1-.23-1.16 2.8 2.8 0 0 1 .84-2.03 2.63 2.63 0 0 1 1.81-.72h.17c.33 0 .65.06.96.18a2.53 2.53 0 0 1 1.46 1.38c.16.34.23.74.23 1.19Zm-.82 0a1.67 1.67 0 0 0-.94-1.6 2.1 2.1 0 0 0-.97-.23c-.37 0-.7.08-.98.22a1.75 1.75 0 0 0-.93 1.61c0 .37.08.7.25.97.16.27.39.48.68.63.29.15.61.22.98.22.36 0 .68-.07.97-.21.28-.15.51-.36.69-.63.16-.27.25-.6.25-.98Zm.65-4.13h-5.13v-.73h2.2v.12c-.5 0-.93-.07-1.27-.2a1.63 1.63 0 0 1-.8-.64 1.9 1.9 0 0 1-.28-1.06v-.04c0-.65.2-1.13.6-1.43.4-.32.99-.47 1.75-.47H447v.92h-3.12c-.4 0-.71.1-.95.33s-.37.53-.37.93.13.72.38.97.58.38 1 .38H447v.92Zm.06-8.14c0 .39-.06.72-.17 1-.1.28-.29.5-.55.64-.27.15-.63.22-1.09.22h-4.93v-.88h5.05a.9.9 0 0 0 .64-.22.9.9 0 0 0 .22-.64v-.9h.83v.78Zm-4.5 2.75h-.69v-3.53h.7v3.53Zm4.44-4.84h-7v-.92h4.18v.23c-.5 0-.94-.06-1.3-.2a1.75 1.75 0 0 1-.86-.6c-.2-.28-.3-.63-.3-1.06v-.04c0-.61.2-1.08.61-1.4.4-.3.99-.46 1.74-.46H447v.92h-3.12c-.42 0-.74.12-.97.36a1.2 1.2 0 0 0-.35.9c0 .4.14.74.42.99.27.24.62.36 1.06.36H447v.92Zm.17-10.5c0 .5-.09.95-.27 1.34-.17.39-.42.69-.75.91-.31.22-.69.33-1.1.33a1.71 1.71 0 0 1-1.36-.61 2.1 2.1 0 0 1-.39-.66h-.1a1.7 1.7 0 0 1-.84.9c-.18.1-.4.14-.64.14-.4 0-.75-.1-1.03-.32-.28-.21-.5-.5-.64-.85a2.94 2.94 0 0 1-.23-1.17c0-.43.08-.82.23-1.17.15-.36.36-.65.64-.86.28-.2.63-.31 1.03-.31a1.52 1.52 0 0 1 1.15.5c.14.16.25.33.34.53h.1a1.98 1.98 0 0 1 .98-1.11c.23-.11.48-.16.75-.16.42 0 .8.1 1.11.33.33.22.58.52.75.91.18.39.27.83.27 1.34Zm-.78 0c0-.34-.06-.64-.17-.9a1.34 1.34 0 0 0-.48-.57c-.2-.13-.45-.2-.74-.2-.28 0-.52.06-.73.2-.2.13-.36.32-.47.57-.11.24-.17.55-.17.9 0 .36.06.66.17.91.11.25.27.44.47.58.2.12.45.19.73.19.29 0 .53-.07.74-.2.2-.13.37-.32.48-.57.11-.25.17-.55.17-.9Zm-3.49 0c0-.43-.1-.78-.28-1.04-.19-.26-.48-.4-.87-.4-.4 0-.69.14-.87.41-.18.26-.27.6-.27 1.04 0 .43.09.77.27 1.04.19.27.48.4.87.4s.68-.13.87-.4c.19-.27.28-.61.28-1.04Zm56.9 35.52h-7v-1.24l4.67-2.08v-.15l-4.68-2.07V256h7.01v.94h-5.98l.02-.07 4.51 1.99V260l-4.51 2-.02-.08h5.98v.86Zm.17-11.06a2.71 2.71 0 0 1-.84 2.05c-.25.23-.53.4-.85.53-.31.11-.63.17-.96.17h-.17a2.63 2.63 0 0 1-2.42-1.58 2.78 2.78 0 0 1-.23-1.17 2.78 2.78 0 0 1 .84-2.02 2.63 2.63 0 0 1 1.81-.72h.17a2.63 2.63 0 0 1 1.82.7 2.66 2.66 0 0 1 .83 2.04Zm-.82 0a1.66 1.66 0 0 0-.94-1.6 2.1 2.1 0 0 0-.97-.22c-.37 0-.7.07-.98.22-.29.15-.52.36-.68.63-.17.27-.25.6-.25.97 0 .38.08.7.25.97.16.28.39.49.68.64.29.14.61.22.98.22.36 0 .68-.07.97-.21.29-.15.52-.36.69-.63.17-.27.25-.6.25-.99Zm.65-4.12h-5.13v-.73h2.2v.11c-.5 0-.93-.06-1.27-.2a1.63 1.63 0 0 1-.8-.63 1.9 1.9 0 0 1-.28-1.07v-.04c0-.64.2-1.12.6-1.43.4-.3 1-.47 1.75-.47h2.93v.93h-3.12c-.4 0-.71.1-.95.33a1.2 1.2 0 0 0-.36.92c0 .4.12.73.37.98s.58.38 1 .38h3.06v.92Zm.06-8.14c0 .38-.06.72-.17 1-.1.27-.29.49-.55.64-.27.15-.63.22-1.09.22h-4.93v-.88h5.05a.9.9 0 0 0 .64-.22.9.9 0 0 0 .22-.64v-.9h.83v.78Zm-4.5 2.75h-.69v-3.54h.7v3.54Zm4.44-4.84h-7v-.92h4.18v.23c-.5 0-.94-.06-1.3-.2a1.76 1.76 0 0 1-.86-.6c-.2-.28-.3-.63-.3-1.06v-.04c0-.62.2-1.08.62-1.4.4-.3.98-.46 1.73-.46h2.93v.92h-3.12c-.42 0-.74.12-.97.35-.23.23-.34.53-.34.9 0 .41.13.74.4 1 .28.24.63.36 1.07.36h2.96v.92Zm-7.2-10.42c0-.51.09-.94.27-1.27.18-.35.43-.62.74-.82.3-.2.66-.35 1.06-.43.4-.1.83-.14 1.27-.14h.46a3.7 3.7 0 0 1 2.57.83c.6.55.89 1.35.89 2.39a8.7 8.7 0 0 1-.08 1.2H499a11.76 11.76 0 0 0 .08-1.24c0-.58-.1-1.04-.32-1.38a1.8 1.8 0 0 0-.94-.73 4.4 4.4 0 0 0-1.48-.22h-.43l-.85-.23c.5 0 .92.1 1.26.3.33.18.58.44.75.77.16.33.25.7.25 1.14 0 .5-.1.92-.3 1.26a2 2 0 0 1-.84.79c-.35.17-.75.26-1.2.26-.45 0-.86-.1-1.22-.28a2.02 2.02 0 0 1-.84-.83 2.8 2.8 0 0 1-.3-1.37Zm.8 0c0 .35.07.65.2.89.14.23.33.41.57.53.23.12.5.18.8.18.3 0 .58-.06.82-.18.23-.11.42-.28.56-.5.12-.24.19-.52.19-.85a2 2 0 0 0-.19-.87c-.12-.27-.3-.47-.52-.62a1.6 1.6 0 0 0-.87-.22c-.28 0-.54.06-.77.17-.24.12-.43.3-.57.54-.14.24-.21.55-.21.93Zm59.2 38.15h-7v-1.25l4.67-2.07v-.15l-4.68-2.07v-1.26h7.01v.94h-5.98l.02-.06 4.51 1.99v1.15l-4.51 2-.02-.08h5.98v.86Zm.17-11.06a2.73 2.73 0 0 1-.84 2.04 2.74 2.74 0 0 1-1.8.7h-.18a2.65 2.65 0 0 1-2.65-2.74 2.78 2.78 0 0 1 .84-2.02 2.65 2.65 0 0 1 1.81-.72h.17a2.65 2.65 0 0 1 2.65 2.74Zm-.82 0c0-.38-.09-.7-.25-.98-.18-.27-.4-.48-.7-.62a2.1 2.1 0 0 0-.96-.22c-.37 0-.7.07-.98.22-.3.15-.52.36-.68.63-.17.27-.25.6-.25.97s.08.7.25.97c.16.28.39.49.68.64.29.14.61.22.98.22.36 0 .68-.07.97-.22.28-.14.51-.35.69-.62.16-.27.25-.6.25-.99Zm.65-4.12h-5.13v-.73h2.2v.11c-.5 0-.93-.06-1.27-.2a1.62 1.62 0 0 1-.8-.63 1.9 1.9 0 0 1-.28-1.07v-.04c0-.64.2-1.12.6-1.43.4-.31.99-.47 1.75-.47h2.93v.92h-3.12c-.4 0-.71.12-.95.34a1.2 1.2 0 0 0-.37.92c0 .4.13.73.38.98s.58.38 1 .38h3.06v.92Zm.06-8.14c0 .38-.06.72-.17 1-.1.27-.29.49-.55.64-.27.15-.63.22-1.09.22h-4.93v-.88h5.05c.27 0 .49-.07.64-.22a.9.9 0 0 0 .22-.65v-.9h.83v.79Zm-4.5 2.75h-.69v-3.54h.7v3.53Zm4.44-4.84h-7v-.92h4.18v.23c-.5 0-.94-.07-1.3-.2a1.75 1.75 0 0 1-.86-.6 1.8 1.8 0 0 1-.3-1.06v-.04c0-.62.2-1.08.61-1.4.4-.3.99-.47 1.74-.47h2.93v.93h-3.12c-.42 0-.74.11-.97.35-.23.23-.35.53-.35.9 0 .41.14.74.42 1 .27.24.62.36 1.06.36h2.96v.92Zm0-9.4h-6.55l.33-.42v1.97h-.79v-2.47h7.01v.92Zm.17-5.65c0 .53-.09.98-.27 1.35a2.5 2.5 0 0 1-.75.9c-.3.22-.67.38-1.08.48-.42.1-.85.15-1.31.15h-.52c-.65 0-1.23-.1-1.75-.3-.52-.2-.93-.51-1.23-.93-.3-.43-.46-.98-.46-1.65 0-.66.15-1.2.46-1.63.3-.42.71-.73 1.23-.93.52-.2 1.1-.3 1.75-.3h.51c.47 0 .9.04 1.32.15.41.1.77.27 1.09.5.3.22.56.51.74.88a3 3 0 0 1 .27 1.33Zm-.84 0c0-.66-.23-1.15-.67-1.45a3.85 3.85 0 0 0-2.15-.48c-1.03 0-1.76.16-2.2.48-.44.32-.67.8-.67 1.45 0 .66.23 1.15.67 1.47.44.32 1.17.47 2.18.47.98 0 1.7-.15 2.16-.47.45-.31.68-.8.68-1.47Zm53.47 39.31h-7v-1.25l4.67-2.07v-.16l-4.68-2.06v-1.26h7.01v.94h-5.98l.02-.06 4.51 1.98v1.16l-4.51 2-.02-.08h5.98v.86Zm.17-11.06a2.73 2.73 0 0 1-.83 2.05 2.77 2.77 0 0 1-1.81.7h-.18a2.62 2.62 0 0 1-2.42-1.59 2.78 2.78 0 0 1-.23-1.16 2.78 2.78 0 0 1 .84-2.02 2.62 2.62 0 0 1 1.81-.72h.17a2.63 2.63 0 0 1 1.82.7 2.6 2.6 0 0 1 .83 2.04Zm-.82 0c0-.38-.09-.7-.25-.98-.17-.27-.4-.48-.7-.62a2.1 2.1 0 0 0-.96-.22c-.37 0-.7.07-.98.22-.29.15-.52.36-.68.63-.17.27-.25.6-.25.97s.08.7.25.97c.16.28.39.49.68.63.29.15.61.22.98.22.36 0 .68-.06.97-.2.29-.15.52-.36.69-.63.16-.28.25-.6.25-.99Zm.65-4.13h-5.13v-.72h2.2v.11c-.5 0-.93-.07-1.27-.2a1.63 1.63 0 0 1-.8-.63 1.9 1.9 0 0 1-.28-1.07v-.04c0-.65.2-1.12.6-1.43.4-.31 1-.47 1.75-.47h2.93v.92h-3.12c-.4 0-.71.11-.95.34a1.2 1.2 0 0 0-.37.92c0 .4.13.73.38.98s.58.37 1 .37h3.06v.92Zm.06-8.13c0 .38-.06.72-.17 1-.1.27-.29.49-.55.64-.27.15-.63.22-1.09.22h-4.93v-.88h5.05a.9.9 0 0 0 .64-.22.9.9 0 0 0 .22-.65v-.9h.83v.79Zm-4.5 2.74h-.69v-3.53h.7v3.53Zm4.44-4.83h-7v-.92h4.18v.23c-.5 0-.94-.07-1.3-.2a1.75 1.75 0 0 1-.86-.61c-.2-.28-.3-.63-.3-1.06v-.03c0-.62.2-1.08.62-1.4.4-.31.98-.47 1.73-.47h2.93v.92h-3.12c-.42 0-.74.12-.97.36-.23.23-.34.53-.34.9 0 .41.13.74.4 1 .28.23.63.36 1.07.36h2.96v.92Zm0-9.4h-6.55l.33-.42v1.97h-.79v-2.47h7.01v.92Zm0-4.03h-6.55l.33-.43v1.98h-.79v-2.48h7.01v.93Zm52.8 39.59h-7v-1.25l4.67-2.07v-.15l-4.68-2.07v-1.26h7v.95h-5.97l.02-.07 4.51 1.99v1.15l-4.51 2-.02-.08h5.98v.86Zm.17-11.06a2.72 2.72 0 0 1-.83 2.04 2.74 2.74 0 0 1-1.82.7h-.17a2.64 2.64 0 0 1-2.42-1.58 2.8 2.8 0 0 1-.23-1.16 2.8 2.8 0 0 1 .84-2.02 2.64 2.64 0 0 1 1.81-.72h.17a2.64 2.64 0 0 1 2.42 1.56c.15.34.23.73.23 1.18Zm-.82 0c0-.38-.09-.7-.25-.98-.18-.27-.4-.48-.7-.62a2.1 2.1 0 0 0-.96-.22c-.37 0-.7.07-.98.22-.3.15-.52.36-.68.63-.17.27-.25.6-.25.97s.08.7.25.97c.16.28.39.49.68.64.29.14.61.22.98.22.35 0 .68-.07.97-.22.28-.14.51-.35.69-.62.16-.27.25-.6.25-.99Zm.65-4.12h-5.13v-.73h2.2v.11c-.5 0-.93-.06-1.28-.2a1.62 1.62 0 0 1-.8-.63 1.9 1.9 0 0 1-.27-1.07v-.04c0-.64.2-1.12.6-1.43.4-.31.99-.47 1.75-.47h2.93v.92h-3.12c-.4 0-.71.12-.95.34a1.2 1.2 0 0 0-.37.92c0 .4.13.73.38.98s.58.38 1 .38h3.06v.92Zm.06-8.14c0 .38-.06.72-.17 1-.1.27-.3.49-.55.64-.27.15-.63.22-1.09.22h-4.93v-.88h5.05a.9.9 0 0 0 .64-.22.89.89 0 0 0 .22-.65v-.9h.83v.79Zm-4.5 2.75h-.69v-3.54h.7v3.53Zm4.44-4.84h-7v-.92h4.18v.23c-.5 0-.94-.07-1.3-.2a1.75 1.75 0 0 1-.86-.6 1.8 1.8 0 0 1-.3-1.06v-.04c0-.62.2-1.08.61-1.4.4-.3.99-.47 1.74-.47h2.93v.93h-3.12c-.42 0-.74.11-.97.35-.23.23-.35.53-.35.9 0 .41.14.74.42 1 .27.24.62.36 1.06.36h2.96v.92Zm0-9.4h-6.55l.33-.42v1.97h-.79v-2.47h7v.92Zm0-2.8h-1.15c-.28 0-.52-.04-.72-.12-.2-.08-.38-.22-.54-.42-.17-.2-.33-.47-.48-.8l-.6-1.32a2.05 2.05 0 0 0-.57-.76 1.43 1.43 0 0 0-.91-.28c-.45 0-.8.13-1.05.37-.25.25-.37.6-.37 1.06 0 .45.12.8.37 1.06.25.25.6.38 1.05.38v.9c-.4 0-.78-.08-1.12-.25-.34-.17-.6-.43-.8-.78-.2-.34-.31-.78-.31-1.31s.1-.97.3-1.3a2.1 2.1 0 0 1 1.86-1.03h.13c.5 0 .94.14 1.28.44.35.29.63.68.85 1.17l.61 1.31c.13.3.27.5.4.6.14.1.32.15.54.15h.88l-.44.25v-4h.79v4.68Zm52.8 37.59h-7v-1.25l4.67-2.07v-.15l-4.68-2.07v-1.25H711v.94h-5.98l.02-.07 4.51 1.99v1.15l-4.51 2-.02-.08H711v.86Zm.17-11.06a2.73 2.73 0 0 1-.84 2.05c-.25.23-.53.4-.85.53-.31.11-.63.17-.96.17h-.17a2.63 2.63 0 0 1-2.42-1.58 2.8 2.8 0 0 1-.23-1.17 2.8 2.8 0 0 1 .84-2.02 2.63 2.63 0 0 1 1.81-.72h.17c.33 0 .65.06.96.18a2.53 2.53 0 0 1 1.46 1.38c.16.34.23.74.23 1.18Zm-.82 0a1.67 1.67 0 0 0-.94-1.6 2.1 2.1 0 0 0-.97-.22c-.37 0-.7.07-.98.22-.29.15-.52.36-.68.63-.17.27-.25.6-.25.97 0 .38.08.7.25.97.16.28.39.49.68.64.29.14.61.22.98.22.35 0 .68-.07.97-.21.28-.15.51-.36.69-.63.16-.27.25-.6.25-.99Zm.65-4.12h-5.13v-.73h2.2v.11c-.5 0-.93-.06-1.28-.2a1.63 1.63 0 0 1-.8-.63 1.9 1.9 0 0 1-.27-1.07v-.04c0-.64.2-1.12.6-1.43.4-.31.99-.47 1.75-.47H711v.93h-3.12c-.4 0-.71.1-.95.33-.24.22-.36.53-.36.92 0 .4.12.73.37.98s.58.38 1 .38H711v.92Zm.06-8.14c0 .38-.06.72-.17 1-.1.27-.29.49-.55.64-.27.15-.63.22-1.09.22h-4.93v-.88h5.05a.9.9 0 0 0 .64-.22.9.9 0 0 0 .22-.64v-.9h.83v.78Zm-4.5 2.75h-.69v-3.54h.7v3.54Zm4.44-4.84h-7v-.92h4.18v.23c-.5 0-.94-.07-1.3-.2a1.75 1.75 0 0 1-.86-.6c-.2-.28-.3-.63-.3-1.06v-.04c0-.62.2-1.08.61-1.4.4-.3.99-.46 1.74-.46H711v.92h-3.12c-.42 0-.74.12-.97.35-.23.23-.34.53-.34.9 0 .41.13.74.4 1 .28.24.63.36 1.07.36H711v.92Zm0-9.4h-6.55l.33-.42v1.98h-.79v-2.48H711v.92Zm.17-4.94c0 .52-.1.97-.3 1.33a2.14 2.14 0 0 1-1.92 1.11v-.9c.43 0 .78-.14 1.03-.41.26-.28.39-.66.39-1.13 0-.32-.06-.59-.18-.82a1.3 1.3 0 0 0-1.24-.73c-.44 0-.8.14-1.06.42-.27.28-.4.65-.4 1.12a1.58 1.58 0 0 0 .25.89l-.83.46-1.96-2.68-.17.1v3.4h-.79v-4.27h1.28l1.61 2.22.03.67c-.04-.1-.07-.22-.1-.35a3.38 3.38 0 0 1 .25-1.77 2.02 2.02 0 0 1 1.82-1.11h.13a2.08 2.08 0 0 1 1.86 1.11c.2.36.3.8.3 1.34Zm52.63 40.18h-7v-1.25l4.67-2.07v-.15l-4.68-2.07v-1.25h7.01v.94h-5.98l.02-.07 4.51 1.99v1.15l-4.51 2-.02-.08h5.98v.86Zm.17-11.06a2.71 2.71 0 0 1-.84 2.05c-.25.23-.53.4-.85.53-.31.11-.63.17-.96.17h-.17a2.63 2.63 0 0 1-2.42-1.58 2.78 2.78 0 0 1-.23-1.16 2.78 2.78 0 0 1 .84-2.03 2.63 2.63 0 0 1 1.81-.72h.17c.33 0 .65.06.96.18a2.53 2.53 0 0 1 1.46 1.38c.16.34.23.74.23 1.19Zm-.82 0c0-.38-.08-.7-.25-.97-.17-.28-.4-.49-.7-.63a2.09 2.09 0 0 0-.96-.22c-.37 0-.7.07-.98.22a1.75 1.75 0 0 0-.93 1.61 1.76 1.76 0 0 0 .93 1.6c.29.15.61.22.98.22.36 0 .68-.07.97-.21.28-.15.52-.36.69-.63.17-.27.25-.6.25-.98Zm.65-4.12h-5.13v-.73h2.2v.12c-.5 0-.93-.07-1.27-.2a1.62 1.62 0 0 1-.8-.64 1.9 1.9 0 0 1-.28-1.07v-.03c0-.65.2-1.13.6-1.44.4-.3 1-.47 1.75-.47h2.93v.93h-3.12c-.4 0-.71.1-.95.33a1.2 1.2 0 0 0-.36.92c0 .4.12.73.37.98s.58.38 1 .38h3.06v.92Zm.06-8.14c0 .39-.06.72-.16 1-.11.28-.3.49-.56.64-.27.15-.63.22-1.09.22h-4.93v-.88h5.05a.9.9 0 0 0 .64-.22.9.9 0 0 0 .22-.64v-.9h.83v.78Zm-4.5 2.75h-.69V241h.7v3.54Zm4.44-4.84h-7v-.92h4.18v.23c-.5 0-.94-.06-1.3-.2a1.76 1.76 0 0 1-.86-.6c-.2-.28-.3-.63-.3-1.06v-.04c0-.62.2-1.08.62-1.4.4-.3.98-.46 1.73-.46h2.93v.92h-3.12c-.41 0-.74.12-.97.35-.23.23-.34.53-.34.9 0 .42.13.75.4 1 .28.24.63.36 1.07.36h2.96v.92Zm0-9.4h-6.55l.33-.42v1.98h-.79v-2.48h7.01v.92Zm-1.66-2.53h-1.13l-4.39-2.91.5-.65 4.12 2.72.17-.09v-4.53h.73v5.46Zm1.66-3.66h-4.96v-.87h4.96v.87Zm52.8 40.61h-7v-1.24l4.67-2.08v-.15l-4.68-2.06v-1.26h7.01v.94h-5.98l.02-.07 4.51 1.99v1.15l-4.51 2-.02-.08h5.98v.86Zm.17-11.05a2.73 2.73 0 0 1-.84 2.05 2.77 2.77 0 0 1-1.81.7h-.17a2.63 2.63 0 0 1-2.42-1.6 2.79 2.79 0 0 1-.23-1.15 2.79 2.79 0 0 1 .84-2.03 2.63 2.63 0 0 1 1.81-.72h.17c.33 0 .65.06.96.18a2.54 2.54 0 0 1 1.46 1.39c.16.33.23.73.23 1.18Zm-.82 0a1.67 1.67 0 0 0-.94-1.6 2.1 2.1 0 0 0-.97-.23c-.37 0-.7.08-.98.22-.3.15-.52.36-.68.64-.17.27-.25.59-.25.97 0 .37.08.69.25.97.16.27.39.48.68.63.29.15.61.22.98.22.36 0 .68-.07.97-.21.28-.15.51-.36.69-.63.16-.27.25-.6.25-.98Zm.65-4.13h-5.13v-.73h2.2v.12c-.5 0-.93-.07-1.27-.2a1.62 1.62 0 0 1-.8-.64 1.9 1.9 0 0 1-.28-1.06v-.04c0-.65.2-1.13.6-1.43.4-.32.99-.47 1.75-.47h2.93v.92h-3.12c-.4 0-.71.1-.95.33a1.2 1.2 0 0 0-.37.92c0 .4.13.73.38.98s.58.38 1 .38h3.06v.92Zm.06-8.14c0 .39-.06.72-.17 1-.1.28-.29.5-.55.64-.27.15-.63.22-1.09.22h-4.93v-.88h5.05a.9.9 0 0 0 .64-.22.9.9 0 0 0 .22-.64v-.9h.83v.78Zm-4.5 2.75h-.69v-3.53h.7v3.53Zm4.44-4.84h-7v-.92h4.18v.23c-.5 0-.94-.06-1.3-.2a1.75 1.75 0 0 1-.86-.6c-.2-.28-.3-.63-.3-1.06v-.04c0-.61.2-1.08.61-1.4.4-.3.99-.46 1.74-.46h2.93v.92h-3.12c-.42 0-.74.12-.97.35-.23.24-.35.54-.35.9 0 .42.14.75.42 1 .27.24.62.36 1.06.36h2.96v.92Zm0-9.4h-6.55l.33-.42v1.98h-.79v-2.48h7.01v.92Zm.17-5.1c0 .53-.1.99-.32 1.36a2.38 2.38 0 0 1-2.02 1.13v-.9a1.47 1.47 0 0 0 1.33-.75c.14-.24.2-.52.2-.84 0-.32-.06-.6-.19-.84a1.45 1.45 0 0 0-1.34-.77 1.5 1.5 0 0 0-1.36.76c-.14.24-.21.52-.21.84 0 .24.04.48.12.72.08.25.19.44.34.6v.84l-3.73-.36v-3.68h.79v3.14l-.32-.23 2.72.27-.09.25a2.07 2.07 0 0 1-.44-.67c-.1-.27-.16-.57-.16-.91 0-.54.11-1 .33-1.36.22-.36.5-.64.86-.82.34-.2.7-.29 1.08-.29h.14a2.26 2.26 0 0 1 1.95 1.14c.21.37.32.83.32 1.37Zm52.63 40.39h-7v-1.25l4.67-2.07v-.16l-4.68-2.06v-1.26h7.01v.94h-5.98l.02-.07 4.51 2v1.14l-4.51 2-.02-.08h5.98v.87Zm.17-11.06a2.73 2.73 0 0 1-.83 2.05 2.77 2.77 0 0 1-1.81.7h-.18a2.62 2.62 0 0 1-2.42-1.59 2.78 2.78 0 0 1-.23-1.16 2.78 2.78 0 0 1 .84-2.03 2.62 2.62 0 0 1 1.81-.72h.17a2.63 2.63 0 0 1 1.82.71 2.6 2.6 0 0 1 .83 2.04Zm-.82 0a1.67 1.67 0 0 0-.94-1.6 2.1 2.1 0 0 0-.97-.22c-.37 0-.7.07-.98.22-.29.14-.52.35-.68.63-.17.27-.25.6-.25.97s.08.7.25.97c.16.27.39.48.68.63a2.34 2.34 0 0 0 1.95.02c.29-.16.52-.36.69-.63.16-.28.25-.6.25-1Zm.65-4.13h-5.13v-.73h2.2v.12c-.5 0-.93-.07-1.27-.2a1.63 1.63 0 0 1-.8-.64 1.9 1.9 0 0 1-.28-1.06v-.04c0-.65.2-1.12.6-1.43.4-.31 1-.47 1.75-.47h2.93v.92h-3.12c-.4 0-.71.11-.95.34a1.2 1.2 0 0 0-.37.92c0 .4.13.73.38.98s.58.37 1 .37h3.06v.92Zm.06-8.13c0 .38-.06.71-.17 1-.1.27-.29.48-.55.64-.27.14-.63.22-1.09.22h-4.93v-.89h5.05a.9.9 0 0 0 .64-.22.9.9 0 0 0 .22-.64v-.9h.83v.79Zm-4.5 2.74h-.69v-3.53h.7v3.53Zm4.44-4.84h-7v-.92h4.18v.23c-.5 0-.94-.06-1.3-.19a1.75 1.75 0 0 1-.86-.61c-.2-.28-.3-.63-.3-1.06v-.04c0-.61.2-1.07.62-1.39.4-.31.98-.47 1.73-.47h2.93v.92h-3.12c-.42 0-.74.12-.97.36-.23.23-.34.53-.34.9 0 .41.13.74.4.99.28.24.63.36 1.07.36h2.96v.92Zm0-9.4h-6.55l.33-.42v1.98h-.79v-2.48h7.01v.92Zm.2-5.42c0 .51-.1.94-.28 1.29a2.2 2.2 0 0 1-.73.81c-.31.2-.67.35-1.07.44-.4.08-.83.12-1.27.12h-.46c-1.1 0-1.96-.27-2.55-.83-.6-.54-.9-1.34-.9-2.38a8.7 8.7 0 0 1 .07-1.2h.79a11.68 11.68 0 0 0-.08 1.23c0 .59.11 1.05.33 1.39.22.33.53.58.94.72.4.15.9.23 1.47.23h.43l.85.23c-.5-.01-.92-.1-1.25-.3a1.7 1.7 0 0 1-.75-.77 2.53 2.53 0 0 1-.25-1.14c0-.5.1-.92.3-1.27.2-.34.48-.6.83-.78.35-.18.75-.26 1.2-.26.46 0 .86.09 1.22.27a2 2 0 0 1 .84.84c.21.36.31.82.31 1.36Zm-.81 0c0-.35-.07-.65-.2-.88a1.27 1.27 0 0 0-.55-.53 1.97 1.97 0 0 0-1.64-.01c-.23.12-.41.29-.54.52-.14.22-.2.5-.2.84 0 .32.06.61.18.88.12.25.3.46.54.6.23.15.51.22.85.22.28 0 .54-.05.78-.17.24-.12.42-.3.57-.54.14-.24.2-.55.2-.93Zm53.41 39.53h-7v-1.25l4.67-2.07V261l-4.68-2.06v-1.26h7v.94h-5.97l.02-.06 4.51 1.98v1.16l-4.51 2-.02-.08h5.98v.86Zm.17-11.06a2.72 2.72 0 0 1-.83 2.04 2.74 2.74 0 0 1-1.82.7h-.17a2.64 2.64 0 0 1-2.42-1.58 2.8 2.8 0 0 1-.23-1.16 2.8 2.8 0 0 1 .84-2.02 2.64 2.64 0 0 1 1.81-.72h.17a2.64 2.64 0 0 1 2.42 1.56c.15.34.23.73.23 1.18Zm-.82 0c0-.38-.09-.7-.25-.98-.18-.27-.4-.48-.7-.62a2.1 2.1 0 0 0-.96-.22c-.37 0-.7.07-.98.22-.3.15-.52.36-.68.63-.17.27-.25.6-.25.97s.08.7.25.97c.16.28.39.49.68.63.29.15.61.23.98.23.35 0 .68-.07.97-.22.28-.14.51-.35.69-.62.16-.27.25-.6.25-.99Zm.65-4.12h-5.13v-.73h2.2v.11c-.5 0-.93-.07-1.28-.2a1.62 1.62 0 0 1-.8-.63 1.9 1.9 0 0 1-.27-1.07v-.04c0-.64.2-1.12.6-1.43.4-.31.99-.47 1.75-.47h2.93v.92h-3.12c-.4 0-.71.11-.95.34a1.2 1.2 0 0 0-.37.92c0 .4.13.73.38.98s.58.37 1 .37h3.06v.93Zm.06-8.14c0 .38-.06.72-.17 1-.1.27-.3.49-.55.64-.27.15-.63.22-1.09.22h-4.93v-.88h5.05a.9.9 0 0 0 .64-.22.89.89 0 0 0 .22-.65v-.9h.83v.79Zm-4.5 2.74h-.69v-3.53h.7v3.53Zm4.44-4.83h-7v-.92h4.18v.23c-.5 0-.94-.07-1.3-.2a1.75 1.75 0 0 1-.86-.61c-.2-.28-.3-.63-.3-1.06v-.03c0-.62.2-1.08.61-1.4.4-.31.99-.47 1.74-.47h2.93v.92h-3.12c-.42 0-.74.12-.97.36-.23.23-.35.53-.35.9 0 .41.14.74.42 1 .27.23.62.36 1.06.36h2.96v.92Zm0-9.4h-6.55l.33-.43v1.98h-.79v-2.47h7v.92Zm0-3.46-6.13-2.96-.1.05v3.83h-.78v-4.7h1.11l5.9 2.82v.96Zm-5.1.92h-1.9v-.76h1.9v.76Zm57.9 37.95h-7v-1.25l4.67-2.07v-.15l-4.68-2.07v-1.26H975v.94h-5.98l.02-.06 4.51 1.98v1.16l-4.51 2-.02-.08H975v.86Zm.17-11.06a2.73 2.73 0 0 1-.84 2.05 2.74 2.74 0 0 1-1.8.7h-.18a2.65 2.65 0 0 1-2.65-2.75 2.8 2.8 0 0 1 .84-2.02 2.65 2.65 0 0 1 1.81-.72h.17a2.64 2.64 0 0 1 2.42 1.56c.16.34.23.73.23 1.18Zm-.82 0c0-.38-.09-.7-.25-.98-.18-.27-.4-.48-.7-.62a2.1 2.1 0 0 0-.96-.22c-.37 0-.7.07-.98.22a1.6 1.6 0 0 0-.68.63c-.17.27-.25.6-.25.97s.08.7.25.97c.16.28.39.49.68.63.29.15.61.22.98.22.35 0 .68-.06.97-.2.28-.15.51-.36.69-.63.16-.28.25-.6.25-.99Zm.65-4.13h-5.13v-.72h2.2v.11c-.5 0-.93-.07-1.28-.2a1.63 1.63 0 0 1-.8-.63 1.9 1.9 0 0 1-.27-1.07v-.04c0-.64.2-1.12.6-1.43.4-.31.99-.47 1.75-.47H975v.92h-3.12c-.4 0-.71.12-.95.34-.24.22-.36.53-.36.92 0 .4.12.73.37.98s.58.37 1 .37H975v.93Zm.06-8.13c0 .38-.06.72-.17 1-.1.27-.29.49-.55.64-.27.15-.63.22-1.09.22h-4.93v-.88h5.05c.27 0 .49-.08.64-.22a.9.9 0 0 0 .22-.65v-.9h.83v.79Zm-4.5 2.74h-.69v-3.53h.7v3.53Zm4.44-4.83h-7v-.92h4.18v.23c-.5 0-.94-.07-1.3-.2a1.75 1.75 0 0 1-.86-.61c-.2-.28-.3-.63-.3-1.06v-.03c0-.62.2-1.08.61-1.4.4-.31.99-.47 1.74-.47H975v.93h-3.12c-.42 0-.74.11-.97.35-.23.23-.34.53-.34.9 0 .41.13.74.4 1 .28.23.63.36 1.07.36H975v.92Zm0-9.4h-6.55l.33-.43v1.98h-.79v-2.47H975v.92Zm.17-5.13c0 .5-.09.94-.27 1.34-.17.38-.42.68-.75.9-.31.23-.69.33-1.1.33a1.71 1.71 0 0 1-1.36-.61c-.17-.2-.3-.41-.39-.65h-.1a1.7 1.7 0 0 1-.83.9c-.19.09-.4.13-.65.13-.4 0-.75-.1-1.03-.31a2 2 0 0 1-.64-.86 2.94 2.94 0 0 1-.23-1.17c0-.43.08-.82.23-1.17.15-.36.36-.64.64-.85.28-.22.63-.32 1.03-.32.24 0 .46.04.65.13a1.79 1.79 0 0 1 .83.9h.1a1.98 1.98 0 0 1 1-1.1 1.9 1.9 0 0 1 1.86.17c.32.21.57.52.74.9.18.4.27.84.27 1.34Zm-.78 0c0-.35-.06-.65-.17-.9a1.33 1.33 0 0 0-.48-.58c-.2-.13-.46-.2-.74-.2-.28 0-.52.07-.73.2-.2.13-.36.32-.47.57-.11.25-.17.55-.17.91 0 .35.06.65.17.9.11.25.27.44.47.58.2.13.45.2.73.2.28 0 .53-.07.74-.2.2-.13.37-.33.48-.58.11-.25.17-.55.17-.9Zm-3.49 0c0-.43-.1-.78-.28-1.05-.19-.26-.48-.39-.87-.39-.4 0-.69.14-.87.4-.18.27-.27.61-.27 1.04 0 .43.09.78.27 1.05.19.26.48.4.87.4s.68-.14.87-.4c.19-.27.28-.62.28-1.05Zm56.9 40.05h-7.01v-1.25l4.68-2.07v-.16l-4.68-2.06v-1.26h7.01v.94h-5.98l.02-.07 4.51 2v1.14l-4.51 2-.02-.08h5.98v.87Zm.17-11.06a2.74 2.74 0 0 1-.83 2.04 2.77 2.77 0 0 1-1.82.7h-.17a2.6 2.6 0 0 1-1.81-.71 2.54 2.54 0 0 1-.61-.87 2.85 2.85 0 0 1-.23-1.16c0-.44.08-.82.23-1.16.15-.34.35-.63.61-.87a2.6 2.6 0 0 1 1.81-.72h.17c.33 0 .65.06.96.19a2.53 2.53 0 0 1 1.46 1.38c.16.34.23.73.23 1.18Zm-.82 0c0-.38-.09-.71-.25-.98a1.6 1.6 0 0 0-.69-.62 2.1 2.1 0 0 0-.97-.22c-.37 0-.69.07-.98.22a1.6 1.6 0 0 0-.68.63c-.17.27-.25.6-.25.97s.08.7.25.97c.16.27.39.48.68.63a2.34 2.34 0 0 0 1.95.02c.29-.16.52-.36.69-.63.16-.28.25-.6.25-1Zm.65-4.13h-5.13v-.73h2.2v.12c-.5 0-.93-.07-1.27-.2a1.6 1.6 0 0 1-.8-.64 1.87 1.87 0 0 1-.28-1.06v-.04c0-.65.2-1.12.61-1.43.4-.31.98-.47 1.74-.47h2.93v.92h-3.12c-.4 0-.71.11-.95.34a1.2 1.2 0 0 0-.36.92c0 .4.12.73.37.98s.58.37 1 .37h3.06v.92Zm.06-8.13c0 .38-.06.71-.16 1-.11.27-.3.48-.56.64-.27.14-.63.22-1.09.22h-4.93v-.89h5.05c.27 0 .49-.07.64-.22.15-.15.22-.36.22-.64v-.9h.83v.79Zm-4.49 2.74h-.7v-3.53h.7v3.53Zm4.43-4.84h-7.01v-.92h4.19v.23c-.51 0-.94-.06-1.31-.19a1.75 1.75 0 0 1-.85-.61c-.2-.28-.3-.63-.3-1.06v-.04c0-.61.21-1.07.62-1.39.4-.31.98-.47 1.73-.47h2.93v.92h-3.12c-.42 0-.74.12-.97.36-.23.23-.34.53-.34.9 0 .41.13.74.41.99.27.24.62.36 1.06.36h2.96v.92Zm0-9.4h-6.55l.33-.42v1.98h-.79v-2.48h7.01v.92Zm-7.2-5.04c0-.52.09-.94.27-1.28.18-.35.43-.62.74-.82.31-.2.66-.34 1.06-.43.41-.09.83-.13 1.27-.13h.46a3.7 3.7 0 0 1 2.57.82c.59.55.89 1.35.89 2.4a10.71 10.71 0 0 1-.08 1.2h-.79a6.9 6.9 0 0 0 .08-1.25c0-.58-.11-1.04-.33-1.38a1.75 1.75 0 0 0-.93-.73 4.3 4.3 0 0 0-1.47-.22h-.44l-.85-.23c.5 0 .92.1 1.26.3.33.19.58.44.75.78.16.32.24.7.24 1.13 0 .5-.09.92-.29 1.27-.21.34-.49.6-.84.78-.35.18-.75.26-1.2.26-.45 0-.86-.09-1.22-.28a1.97 1.97 0 0 1-.84-.82 2.75 2.75 0 0 1-.31-1.37Zm.81 0c0 .35.06.64.2.88.13.24.32.41.56.54.23.11.49.17.8.17.31 0 .58-.06.82-.17.23-.12.42-.29.55-.51.13-.23.2-.51.2-.85 0-.32-.06-.61-.19-.87a1.4 1.4 0 0 0-.52-.62 1.63 1.63 0 0 0-.87-.22c-.28 0-.54.06-.78.18-.23.11-.42.3-.56.53a1.9 1.9 0 0 0-.21.94Zm59.19 41.01h-7.01v-1.25l4.68-2.07v-.15l-4.68-2.07v-1.25h7.01v.94h-5.98l.02-.07 4.51 1.99v1.15l-4.51 2-.02-.08h5.98v.86Zm.17-11.06a2.74 2.74 0 0 1-.83 2.05 2.74 2.74 0 0 1-1.82.7h-.17a2.62 2.62 0 0 1-2.42-1.58 2.84 2.84 0 0 1-.23-1.16c0-.44.08-.83.23-1.17.15-.34.35-.62.61-.86a2.62 2.62 0 0 1 1.81-.72h.17c.33 0 .65.06.96.18a2.56 2.56 0 0 1 1.46 1.38c.16.34.23.74.23 1.18Zm-.82 0c0-.38-.09-.7-.25-.97a1.76 1.76 0 0 0-.69-.63 2.13 2.13 0 0 0-.97-.22c-.37 0-.69.07-.98.22-.29.15-.52.36-.68.63-.17.27-.25.6-.25.97 0 .38.08.7.25.97.16.28.39.5.68.64.29.15.61.22.98.22.35 0 .68-.07.97-.21.28-.15.51-.36.69-.63.16-.27.25-.6.25-.98Zm.65-4.12h-5.13v-.73h2.2v.11c-.5 0-.93-.06-1.28-.2a1.62 1.62 0 0 1-.79-.63 1.86 1.86 0 0 1-.28-1.07v-.03c0-.65.2-1.13.6-1.44.41-.3.99-.47 1.75-.47h2.93v.93h-3.12c-.4 0-.71.1-.95.33a1.2 1.2 0 0 0-.37.92c0 .4.13.73.38.98s.58.38 1 .38h3.06v.92Zm.06-8.14c0 .38-.06.72-.17 1-.1.28-.29.49-.55.64-.27.15-.63.22-1.09.22h-4.93v-.88h5.05c.27 0 .49-.07.64-.22.15-.15.22-.37.22-.64v-.9h.83v.78Zm-4.5 2.75h-.69v-3.54h.69v3.54Zm4.44-4.84h-7.01v-.92h4.19v.23c-.51 0-.94-.06-1.31-.2a1.75 1.75 0 0 1-.85-.6c-.2-.28-.3-.63-.3-1.06v-.04c0-.62.2-1.08.61-1.4.41-.3.99-.46 1.74-.46h2.93v.92h-3.12c-.42 0-.74.12-.97.35-.23.23-.35.53-.35.9 0 .41.14.75.42 1 .27.24.62.36 1.06.36h2.96v.92Zm0-8.17h-1.15a2 2 0 0 1-.72-.12c-.2-.08-.38-.22-.54-.42a3.3 3.3 0 0 1-.48-.8l-.6-1.32a2.09 2.09 0 0 0-.57-.76 1.43 1.43 0 0 0-.91-.28c-.45 0-.8.13-1.05.38s-.37.6-.37 1.05c0 .45.12.8.37 1.06s.6.38 1.05.38v.9a2.5 2.5 0 0 1-1.12-.24 2 2 0 0 1-.8-.78 2.5 2.5 0 0 1-.31-1.32c0-.53.1-.96.31-1.3.2-.35.46-.6.78-.77.33-.17.69-.26 1.07-.26h.13c.51 0 .94.15 1.28.44.35.29.63.68.86 1.17l.6 1.32c.13.3.27.5.4.6.14.1.32.15.54.15h.88l-.44.25v-4.02h.79v4.69Zm.17-8.78c0 .53-.09.98-.27 1.35a2.4 2.4 0 0 1-.75.89c-.31.22-.67.39-1.08.49-.42.1-.85.15-1.32.15h-.51c-.65 0-1.23-.1-1.75-.3-.52-.2-.93-.51-1.23-.94a2.73 2.73 0 0 1-.46-1.64c0-.66.15-1.2.46-1.63.3-.42.71-.73 1.23-.93.52-.2 1.1-.3 1.75-.3h.51c.47 0 .9.04 1.32.15.41.1.77.26 1.08.5.32.22.57.51.75.88a3 3 0 0 1 .27 1.33Zm-.84 0c0-.66-.23-1.15-.67-1.46a3.88 3.88 0 0 0-2.15-.47c-1.03 0-1.76.16-2.2.48-.44.32-.67.8-.67 1.45 0 .66.23 1.15.67 1.47.44.32 1.16.47 2.18.47.98 0 1.7-.15 2.16-.47.45-.31.68-.8.68-1.47Zm53.47 40.71h-7.01v-1.25l4.68-2.07v-.15l-4.68-2.07v-1.26h7.01v.95h-5.98l.02-.07 4.51 1.99v1.15l-4.51 2-.02-.08h5.98v.86Zm.17-11.06a2.74 2.74 0 0 1-.83 2.05 2.74 2.74 0 0 1-1.82.7h-.17a2.62 2.62 0 0 1-2.42-1.59 2.84 2.84 0 0 1-.23-1.16c0-.43.08-.82.23-1.16.15-.34.35-.63.61-.86a2.62 2.62 0 0 1 1.81-.72h.17c.33 0 .65.06.96.18a2.56 2.56 0 0 1 1.46 1.38c.16.34.23.73.23 1.18Zm-.82 0c0-.38-.09-.7-.25-.98a1.76 1.76 0 0 0-.69-.62 2.1 2.1 0 0 0-.97-.22c-.37 0-.69.07-.98.22-.29.15-.52.36-.68.63-.17.27-.25.6-.25.97s.08.7.25.97c.16.28.39.49.68.64.29.14.61.22.98.22.36 0 .68-.07.97-.22.28-.14.51-.35.69-.62.16-.27.25-.6.25-.99Zm.65-4.12h-5.13v-.73h2.2v.11c-.5 0-.93-.06-1.27-.2a1.6 1.6 0 0 1-.8-.63 1.86 1.86 0 0 1-.28-1.07v-.04c0-.64.2-1.12.6-1.43.41-.31.99-.47 1.75-.47h2.93v.92h-3.12c-.4 0-.71.12-.95.34a1.2 1.2 0 0 0-.37.92c0 .4.13.73.38.98s.58.38 1 .38h3.06v.92Zm.06-8.14c0 .38-.06.72-.17 1-.1.27-.29.49-.55.64-.27.15-.63.22-1.09.22h-4.93v-.88h5.05c.27 0 .49-.08.64-.22a.89.89 0 0 0 .22-.64v-.9h.83v.78Zm-4.5 2.75h-.69v-3.54h.69v3.53Zm4.44-4.84h-7.01v-.92h4.19v.23c-.51 0-.94-.07-1.31-.2a1.75 1.75 0 0 1-.85-.6 1.8 1.8 0 0 1-.3-1.06v-.04c0-.62.2-1.08.61-1.4.41-.3.99-.47 1.74-.47h2.93v.93h-3.12c-.42 0-.74.11-.97.35-.23.23-.35.53-.35.9 0 .41.14.74.42 1 .27.24.62.36 1.06.36h2.96v.92Zm0-8.17h-1.15a2 2 0 0 1-.72-.12c-.2-.08-.38-.22-.54-.42a3.3 3.3 0 0 1-.48-.8l-.6-1.32a2.09 2.09 0 0 0-.57-.76 1.43 1.43 0 0 0-.91-.28c-.45 0-.8.13-1.05.38-.25.24-.37.6-.37 1.05 0 .45.12.8.37 1.06.25.25.6.38 1.05.38v.9a2.5 2.5 0 0 1-1.12-.25c-.34-.17-.6-.43-.8-.77a2.5 2.5 0 0 1-.31-1.32c0-.53.1-.97.31-1.3.2-.35.46-.6.78-.77a2.2 2.2 0 0 1 1.07-.26h.13c.51 0 .94.15 1.28.44.35.29.63.68.86 1.17l.6 1.32c.13.3.27.49.4.6.14.1.32.15.54.15h.88l-.44.25v-4.02h.79v4.69Zm0-7.17h-6.55l.33-.42v1.98h-.79v-2.48h7.01v.92Zm52.8 42.3h-7.01V265l4.68-2.07v-.15l-4.68-2.07v-1.25h7.01v.94h-5.98l.02-.07 4.51 1.99v1.15l-4.51 2-.02-.08h5.98v.86Zm.17-11.06a2.74 2.74 0 0 1-.83 2.05 2.74 2.74 0 0 1-1.82.7h-.17a2.62 2.62 0 0 1-2.42-1.58 2.84 2.84 0 0 1-.23-1.17c0-.43.08-.82.23-1.16.15-.34.35-.62.61-.86a2.62 2.62 0 0 1 1.81-.72h.17c.33 0 .65.06.96.18a2.56 2.56 0 0 1 1.46 1.38c.16.34.23.74.23 1.19Zm-.82 0c0-.38-.09-.7-.25-.97a1.76 1.76 0 0 0-.69-.63 2.13 2.13 0 0 0-.97-.22c-.37 0-.7.07-.98.22-.29.15-.52.36-.68.63-.17.27-.25.6-.25.97 0 .38.08.7.25.97.16.28.39.5.68.64.28.14.61.22.98.22.35 0 .68-.07.97-.21.28-.15.51-.36.69-.63.16-.27.25-.6.25-.99Zm.65-4.12h-5.13v-.73h2.2v.11c-.5 0-.93-.06-1.28-.2a1.62 1.62 0 0 1-.79-.63 1.86 1.86 0 0 1-.28-1.07v-.04c0-.64.2-1.12.6-1.42.41-.32.99-.48 1.75-.48h2.93v.93h-3.12c-.4 0-.71.1-.95.33a1.2 1.2 0 0 0-.37.92c0 .4.13.73.38.98s.58.38 1 .38h3.06v.92Zm.06-8.14c0 .38-.06.72-.17 1-.11.28-.29.49-.55.64-.27.15-.63.22-1.09.22h-4.93v-.88h5.05c.27 0 .49-.07.64-.22.15-.15.22-.37.22-.64v-.9h.83v.78Zm-4.5 2.75h-.69v-3.54h.69v3.54Zm4.44-4.84h-7.01v-.92h4.19v.23c-.51 0-.94-.06-1.31-.2a1.75 1.75 0 0 1-.85-.6c-.2-.28-.3-.63-.3-1.06v-.04c0-.62.2-1.08.61-1.4.41-.3.99-.46 1.74-.46h2.93v.92h-3.12c-.42 0-.74.12-.97.35-.23.23-.35.53-.35.9 0 .41.14.75.42 1 .27.24.62.36 1.06.36h2.96v.92Zm0-8.17h-1.15a2 2 0 0 1-.72-.12c-.2-.08-.38-.22-.54-.42a3.3 3.3 0 0 1-.48-.8l-.61-1.32a1.96 1.96 0 0 0-.56-.76 1.43 1.43 0 0 0-.91-.28c-.45 0-.8.13-1.05.38s-.37.6-.37 1.05c0 .45.12.8.37 1.06s.6.38 1.05.38v.9a2.5 2.5 0 0 1-1.12-.24 1.86 1.86 0 0 1-.8-.78 2.5 2.5 0 0 1-.31-1.32c0-.53.1-.96.31-1.3.19-.35.46-.6.78-.77.33-.17.69-.26 1.07-.26h.13c.51 0 .93.15 1.28.44.35.29.63.68.85 1.17l.61 1.32c.13.3.27.5.4.6.14.1.32.15.54.15h.88l-.44.25v-4.02h.79v4.69Zm0-5.93h-1.15c-.28 0-.52-.04-.72-.12-.2-.08-.38-.22-.54-.42-.17-.2-.33-.47-.48-.8l-.61-1.32a1.98 1.98 0 0 0-.56-.76 1.44 1.44 0 0 0-.91-.28c-.45 0-.8.12-1.05.37s-.37.6-.37 1.06c0 .45.12.8.37 1.06.25.25.6.38 1.05.38v.9a2.5 2.5 0 0 1-1.12-.25 1.86 1.86 0 0 1-.8-.78 2.5 2.5 0 0 1-.31-1.31c0-.53.1-.97.31-1.3.19-.35.46-.6.78-.77a2.2 2.2 0 0 1 1.07-.26h.13c.51 0 .93.14 1.28.44.35.29.63.68.85 1.17l.61 1.31c.13.3.27.5.4.6.14.1.32.15.54.15h.88l-.44.25v-4.01h.79v4.69Zm52.8 39.49h-7.01V265l4.68-2.08v-.15l-4.68-2.06v-1.26h7.01v.94h-5.98l.02-.07 4.51 1.99v1.15l-4.51 2-.02-.08h5.98v.86Zm.17-11.05a2.74 2.74 0 0 1-.83 2.04 2.77 2.77 0 0 1-1.82.7h-.17a2.6 2.6 0 0 1-1.81-.72 2.54 2.54 0 0 1-.61-.86 2.85 2.85 0 0 1-.23-1.16 2.64 2.64 0 0 1 .84-2.03 2.6 2.6 0 0 1 1.81-.72h.17c.33 0 .65.06.96.18a2.53 2.53 0 0 1 1.46 1.38c.16.34.23.74.23 1.19Zm-.82 0c0-.39-.09-.71-.25-.98a1.76 1.76 0 0 0-.69-.63 2.1 2.1 0 0 0-.97-.22c-.37 0-.69.08-.98.22a1.75 1.75 0 0 0-.93 1.61c0 .37.08.69.25.97.16.27.39.48.68.63.29.15.61.22.98.22.36 0 .68-.07.97-.21.28-.15.51-.36.69-.63.16-.27.25-.6.25-.98Zm.65-4.13h-5.13v-.73h2.2v.12c-.5 0-.93-.07-1.27-.2a1.6 1.6 0 0 1-.8-.64 1.86 1.86 0 0 1-.28-1.06v-.04c0-.65.2-1.13.6-1.43.41-.32.99-.47 1.75-.47h2.93v.92h-3.12c-.4 0-.71.1-.95.33a1.2 1.2 0 0 0-.37.93c0 .4.13.72.38.97s.58.38 1 .38h3.06v.92Zm.06-8.14c0 .39-.06.72-.17 1-.1.28-.29.5-.55.64-.27.15-.63.22-1.09.22h-4.93v-.88h5.05c.27 0 .49-.07.64-.22.15-.15.22-.37.22-.64v-.9h.83v.78Zm-4.5 2.75h-.69v-3.53h.69v3.53Zm4.44-4.84h-7.01v-.92h4.19v.23c-.51 0-.94-.06-1.31-.2a1.76 1.76 0 0 1-.85-.6c-.2-.28-.3-.63-.3-1.06v-.04c0-.61.2-1.08.61-1.4.41-.3.99-.46 1.74-.46h2.93v.92h-3.12c-.42 0-.74.12-.97.35-.23.24-.35.54-.35.9 0 .42.14.75.42 1 .27.24.62.36 1.06.36h2.96v.92Zm0-8.17h-1.15a2 2 0 0 1-.72-.12c-.2-.08-.38-.22-.54-.42-.17-.2-.33-.46-.48-.8l-.6-1.32a2.09 2.09 0 0 0-.57-.76 1.43 1.43 0 0 0-.91-.28c-.45 0-.8.13-1.05.38s-.37.6-.37 1.05c0 .45.12.8.37 1.06s.6.38 1.05.38v.9a2.5 2.5 0 0 1-1.12-.24c-.34-.17-.6-.43-.8-.78a2.5 2.5 0 0 1-.31-1.31c0-.54.1-.97.31-1.31.2-.35.46-.6.78-.77.33-.17.69-.26 1.07-.26h.13c.51 0 .94.15 1.28.44.35.3.63.68.86 1.17l.6 1.32c.13.3.27.5.4.6.14.1.32.15.54.15h.88l-.44.25v-4.01h.79v4.68Zm.17-8.08c0 .53-.1.97-.3 1.34a2.2 2.2 0 0 1-.82.84c-.34.18-.71.27-1.1.27v-.9c.43 0 .78-.14 1.03-.41.26-.28.39-.66.39-1.14 0-.3-.06-.58-.18-.81a1.2 1.2 0 0 0-.49-.54 1.42 1.42 0 0 0-.75-.19c-.44 0-.79.14-1.06.42-.27.28-.4.65-.4 1.12 0 .2.02.37.07.51s.11.27.18.38l-.83.46-1.96-2.68-.17.1v3.4h-.79v-4.27h1.28l1.61 2.22.03.67c-.04-.1-.07-.23-.1-.35a3.38 3.38 0 0 1 .25-1.77 2.08 2.08 0 0 1 1.82-1.11h.13a2.1 2.1 0 0 1 1.86 1.11c.2.36.3.8.3 1.33Zm52.63 41.8h-7.01v-1.25l4.68-2.08v-.15l-4.68-2.06v-1.26h7.01v.94h-5.98l.02-.07 4.51 1.99v1.15l-4.51 2-.02-.08h5.98v.87Zm.17-11.06a2.74 2.74 0 0 1-.83 2.04 2.77 2.77 0 0 1-1.82.7h-.17a2.6 2.6 0 0 1-1.81-.72 2.54 2.54 0 0 1-.61-.86 2.85 2.85 0 0 1-.23-1.16c0-.44.08-.82.23-1.16.15-.34.35-.63.61-.87a2.6 2.6 0 0 1 1.81-.72h.17c.33 0 .65.06.96.18a2.53 2.53 0 0 1 1.46 1.39c.16.34.23.73.23 1.18Zm-.82 0c0-.39-.09-.71-.25-.98-.17-.28-.4-.49-.69-.63a2.1 2.1 0 0 0-.97-.22c-.37 0-.69.08-.98.22a1.6 1.6 0 0 0-.68.64c-.17.27-.25.59-.25.97 0 .37.08.7.25.97.16.27.39.48.68.63.29.15.61.22.98.22.36 0 .68-.07.97-.21.29-.15.52-.36.69-.62.16-.28.25-.6.25-1Zm.65-4.13h-5.13v-.73h2.2v.12c-.5 0-.93-.07-1.27-.2a1.6 1.6 0 0 1-.8-.64 1.87 1.87 0 0 1-.28-1.06v-.04c0-.65.2-1.13.61-1.43.4-.32.98-.47 1.74-.47h2.93v.92h-3.12c-.4 0-.71.11-.95.33a1.2 1.2 0 0 0-.36.93c0 .4.12.73.37.97.25.25.58.38 1 .38h3.06v.92Zm.06-8.14c0 .39-.06.72-.16 1-.11.28-.3.5-.56.65-.27.14-.63.22-1.09.22h-4.93v-.89h5.05c.27 0 .49-.07.64-.22.15-.15.22-.37.22-.64v-.9h.83v.78Zm-4.49 2.75h-.7v-3.53h.7v3.53Zm4.43-4.84h-7.01v-.92h4.19v.23c-.51 0-.94-.06-1.31-.19a1.75 1.75 0 0 1-.85-.61c-.2-.28-.3-.63-.3-1.06v-.04c0-.61.21-1.08.62-1.4.4-.3.98-.46 1.73-.46h2.93v.92h-3.12c-.42 0-.74.12-.97.36-.23.23-.34.53-.34.9 0 .4.13.74.41.99.27.24.62.36 1.06.36h2.96v.92Zm0-8.17h-1.15c-.28 0-.52-.04-.72-.11-.2-.09-.38-.23-.54-.43-.17-.2-.33-.46-.48-.8l-.6-1.32a2.1 2.1 0 0 0-.57-.76 1.44 1.44 0 0 0-.91-.27c-.45 0-.8.12-1.05.37s-.37.6-.37 1.06c0 .44.12.8.37 1.05.25.26.6.39 1.05.39v.9a2.5 2.5 0 0 1-1.12-.25c-.33-.17-.6-.43-.8-.78a2.5 2.5 0 0 1-.31-1.31c0-.53.1-.97.31-1.3.2-.35.46-.61.79-.78.32-.17.68-.26 1.06-.26h.14c.5 0 .93.15 1.27.44.35.3.63.68.86 1.18l.6 1.31c.14.3.27.5.4.6.14.1.32.15.54.15h.89l-.45.25v-4.01h.79v4.68Zm-1.66-5.66h-1.13l-4.39-2.91.51-.65 4.11 2.72.17-.09v-4.53h.73v5.46Zm1.66-3.66h-4.96v-.87h4.96v.87Z" opacity=".4"/>
</svg>