<svg xmlns="http://www.w3.org/2000/svg" fill="none" viewBox="0 0 390 352" width="390" height="352">
    <path fill="#00B0F3" d="M246.06 164.57c1.07.02 10.05 1.98 13.68 6.84 3.63 4.85-2.79 15.56 13.69 35.2 16.45 19.66 52.14 22.64 63.9-8.81-2.56-3.83-6.84-11.34-3.32-15.44 3.53-4.1 16.67-4.43 16.67-4.43l3.1 10.9s-9.84 4.66-2.34 9.51c7.5 4.86 11.21-4.58 5.13-8.46l4.7-11.67s23.1 8.84 8.88 25.28c9.4.79 15.5-4.47 15.5-4.47 4.81 6.52 4.37 16.63 4.37 16.63-7.58 2.43-20.19 1.08-20.19 1.08s5.98 5.26 14.95 6.8c-2.45 8.06-7.37 12.94-7.37 12.94-9.4-.87-20.95-5.83-20.95-5.83s-25.97 29.32-62.5 22.02c-36.56-7.28-46.34-39.69-46.34-39.69l-1.54-48.4h-.03Z"/>
    <path fill="#0063A2" d="M259.72 171.4c1.22 1.66 1.3 3.98 1.52 7.1a80.05 80.05 0 0 0 .61 44.25c6.13 20.58 30.6 28.1 49.3 30.8-5.41.5-11.18.31-17.24-.91-36.56-7.3-46.34-39.69-46.34-39.69l-1.54-48.4c1.08.02 10.06 1.98 13.69 6.84v.02Zm96.83 18.48s11.65 4.37 9.08 18.87c-2.58 14.5-10.26 19.17-16.45 14-6.2-5.15-1.08-13.56-1.08-13.56-10.26-6.48-4.06-20.77 5.66-20.37 0 0-9.84 4.67-2.34 9.53 7.5 4.85 11.21-4.59 5.13-8.47Z"/>
    <path fill="#0063A2" d="M278.73 211.66a44.72 44.72 0 0 0 4.11 3c-8.32 6.27-14.48 14.55-17.65 23.86a77.89 77.89 0 0 1-2.66-2.47c3-9.27 8.53-17.72 16.2-24.36v-.03Zm32.82 29.01c.92 4.24 2.49 8.3 4.56 12.14-1.19.2-2.37.38-3.57.5a55.46 55.46 0 0 1-3.83-32.19c1.08-.1 2.16-.25 3.22-.46a43.55 43.55 0 0 0-.38 20ZM178.22 109.56l4.73 33.25h20.7l2.83-33.25h-28.26Z"/>
    <path fill="#E88000" d="M174.14 10.51s1.6-8.93 1.76-9.26c.72-1.36 20.76-2.2 23.76.65a86.9 86.9 0 0 1 1.24 8.36l-26.78.25h.02Z"/>
    <path fill="#FFAD00" d="M159.15 20.5s-.49-9.04 1.44-12.12c1.92-3.08 43.04-6.2 54.17-.6 5.85 4.17 4.81 15.55 4.81 15.55l-60.42-2.85v.02Z"/>
    <path fill="#E88000" d="M137.99 68.67s-6.89 1.8-7.22 2.24c-.34.44-.89 10.74 3.04 16.88.97.62 6.65 0 6.65 0l-2.5-19.12h.03Z"/>
    <path fill="#FFAD00" d="M150.36 49.84s-13.13 1.3-14.31 9.6c-1.19 8.49.5 30.97 5.66 37.58 3.97 3.48 14.65 1.84 14.65 1.84l-5.98-49.02h-.02Z"/>
    <path fill="#E88000" d="M243.56 68.67s6.89 1.8 7.22 2.24c.34.44.9 10.74-3.04 16.88-.97.62-6.65 0-6.65 0l2.5-19.12h-.03Z"/>
    <path fill="#FFAD00" d="M231.2 49.84s13.15 1.3 14.33 9.6c1.18 8.49-.51 30.97-5.66 37.58-3.97 3.48-14.66 1.84-14.66 1.84l5.98-49.02h.02Z"/>
    <path fill="#00B0F3" d="M141.77 27.42c.04.44 8.8 70.32 7.69 85.62 1.29 9.92 75.01 8.9 78.7 4.22 4.5-19.99 8.5-87.07 7.38-93.2-2.56-8.31-96.7-21.74-93.77 3.36Z"/>
    <path fill="#232A33" d="M172.24 59.8c-4.16 4.6-11.19 4.65-15.8.57-.97-.86-1.7 1.59-1.77 2-.2 1.21-.08 2.71.91 3.62a12.75 12.75 0 0 0 17.97-1.12c1.16-1.27.3-6.86-1.33-5.07h.02Zm53.43.49a11.12 11.12 0 0 1-14.74-.34c-1.83-1.75-2.78 3.8-1.52 5.02 5.05 4.8 12.31 4.92 17.6.38 1.3-1.14.63-6.73-1.34-5.06Z"/>
    <path fill="#F5F2F9" d="M168.84 79.5s34.62-2.05 44.46.97c.53 9.63-1.5 13.32-6.74 15.26-5.24 1.94-25.64 1.86-33.77-1.56-7.1-2.98-3.95-14.7-3.95-14.7v.03Z"/>
    <path fill="#D3CCE0" d="m205.57 79.27-.9 16.99a12.1 12.1 0 0 0 1.94-.5l.92-.39.85-15.83c-.89-.1-1.82-.19-2.81-.27ZM176 79.16c-1.03.04-1.98.08-2.83.13.1 5.04.22 10.1.3 15.15.84.32 1.8.6 2.85.85L176 79.16Zm9.82-.27c-.97 0-1.94.04-2.87.06 0 5.83.04 11.65.04 17.48.95.1 1.9.19 2.88.27 0-5.93-.05-11.88-.05-17.81Zm11.24 18.07c-.1-6.04-.23-12.08-.34-18.1-.93 0-1.88-.02-2.83-.04.1 6.06.23 12.12.34 18.18.97 0 1.92 0 2.83-.04Z"/>
    <path fill="#0063A2" d="M228.1 117.39c-24.81 3.06-73.57-2.2-73.47-12.29-.17-9.35-6.86-43.95-11.55-67 2.4 20.25 7.26 63.35 6.4 74.98 1.27 9.86 74.15 8.91 78.62 4.31Z"/>
    <path fill="#0063A2" d="M178.22 100s13.3 1.96 25.58.65c-9.9 5.97-23.09 1.6-25.58-.65Zm-14.91-54.34s11.62-4.6 19.16.87c-1.93-10.29-15.32-9.99-19.16-.87Zm40.4.89s6.42-6.06 15.86-1.16c-3.2-8.91-15.06-9.12-15.86 1.16Z"/>
    <path fill="#00B0F3" d="M143.94 164.57c-1.07.02-10.05 1.98-13.68 6.84-3.63 4.85 2.79 15.56-13.68 35.2-16.46 19.66-52.15 22.64-63.91-8.82 2.56-3.81 6.84-11.33 3.32-15.43-3.53-4.1-16.67-4.43-16.67-4.43l-3.1 10.9s9.84 4.66 2.34 9.51c-7.5 4.86-11.21-4.58-5.13-8.46l-4.7-11.67s-23.1 8.84-8.88 25.28c-9.4.79-15.5-4.47-15.5-4.47C-.42 205.52 0 215.63 0 215.63c7.58 2.43 20.19 1.08 20.19 1.08s-5.98 5.26-14.95 6.8c2.45 8.06 7.37 12.94 7.37 12.94 9.4-.87 20.95-5.83 20.95-5.83s25.97 29.32 62.5 22.02c36.54-7.3 46.34-39.69 46.34-39.69l1.54-48.4v.02Z"/>
    <path fill="#0063A2" d="M130.28 171.4c-1.22 1.66-1.3 3.98-1.52 7.1a80.07 80.07 0 0 1-.61 44.25c-6.15 20.58-30.6 28.1-49.3 30.8 5.41.5 11.18.31 17.24-.91 36.56-7.3 46.34-39.69 46.34-39.69l1.54-48.4c-1.08.02-10.06 1.98-13.69 6.84v.02Zm-96.83 18.48s-11.66 4.37-9.08 18.87c2.56 14.48 10.26 19.17 16.45 14 6.19-5.15 1.08-13.56 1.08-13.56 10.26-6.48 4.05-20.77-5.66-20.37 0 0 9.84 4.67 2.34 9.52-7.47 4.86-11.21-4.58-5.13-8.46Z"/>
    <path fill="#0063A2" d="M111.25 211.66a44.53 44.53 0 0 1-4.11 3c8.32 6.27 14.48 14.55 17.65 23.86.93-.83 1.82-1.65 2.66-2.47a54.46 54.46 0 0 0-16.2-24.37v-.02Zm-32.82 29.01a46.6 46.6 0 0 1-4.56 12.14c1.19.2 2.37.38 3.57.5a55.46 55.46 0 0 0 3.82-32.19 32.5 32.5 0 0 1-3.2-.46 43.56 43.56 0 0 1 .37 20Z"/>
    <path fill="#00B0F3" d="m137.44 161.49 5.64 105.6c23.84 9.63 104.64 4.97 106.56 1.47 1.3-9.63 1.38-103.57 1.38-103.57s-12.59-31.98-57.13-31.79c-43.1.2-56.45 28.3-56.45 28.3v-.01Z"/>
    <path fill="#0063A2" d="M196.38 204.93c11.54 0 20.9-10.64 20.9-23.77 0-13.13-9.36-23.77-20.9-23.77-11.53 0-20.88 10.64-20.88 23.77 0 13.13 9.35 23.77 20.88 23.77Z"/>
    <path fill="#0063A2" d="M193.95 133.18c-1.75 0-3.46.06-5.1.17 2.47 19.84 8.4 76.12 5.57 139.45h5.85c-.4-16.28-2.34-100.46-.28-139.43a80.33 80.33 0 0 0-6.04-.17v-.02Z"/>
    <path fill="#6988B0" d="M196.38 199.5c8.26 0 14.96-8.2 14.96-18.34 0-10.13-6.7-18.34-14.96-18.34-8.25 0-14.95 8.21-14.95 18.34 0 10.13 6.7 18.35 14.95 18.35Z"/>
    <path fill="#C6EBD8" d="M209.16 181.16c0 9.18-5.72 16.62-12.78 16.62-7.05 0-12.77-7.44-12.77-16.62s5.72-16.61 12.77-16.61c7.06 0 12.78 7.43 12.78 16.61Z"/>
    <path fill="#A4DBCF" d="M193.62 186.31c-4.06-3.5-5.4-8.34-5.2-13.17a15.47 15.47 0 0 0-2.78 9.1c0 7.28 4.51 13.2 10.09 13.2 3.21 0 6.06-1.97 7.92-5.01a18.07 18.07 0 0 1-10.03-4.1v-.02Z"/>
    <path fill="#fff" d="M203.08 173.12c0 2.74-1.99 4.96-4.44 4.96s-4.43-2.22-4.43-4.96c0-2.75 1.98-4.96 4.43-4.96 2.45 0 4.44 2.22 4.44 4.96Zm.57 12.66c1.56 0 2.83-1.54 2.83-3.44s-1.27-3.44-2.83-3.44-2.83 1.54-2.83 3.44 1.27 3.44 2.83 3.44Z"/>
    <path fill="#0063A2" d="m142.93 262.86.23 4.22c23.85 9.62 104.65 4.96 106.57 1.45.32-2.38.57-9.96.76-19.99-10.8 3.82-24.16 8.02-24.16 8.02s4.81-4.37 10.26-16.33c-32.25 15.83-63.78 3.88-93.64 22.6l-.02.03Z"/>
    <path fill="#00B0F3" d="M153.15 270.73a50.5 50.5 0 0 1 26.27-12.4c4.3 0 12.23 3.11 23.49 14.43a156.1 156.1 0 0 1 12.33 14.16c24.5 31.52 60.61 35.4 56.13 10.11-3.31-18.66-25.23-24.61-36.5-26.45 5.92-.87 11.01-2 14.71-3.5l.76-14.4c16.56 1.6 63.38 10.09 61.54 54.46-2.22 53.87-59.34 53.68-95.46 28.4-36.1-25.3-64.11-42.98-76.7-47.27.15-.7 4.35-9.56 13.41-17.56l.02.02Z"/>
    <path fill="#0063A2" d="M265.27 312.25c4.94-2.24 7.52-7.3 6.1-15.22-3.31-18.66-25.23-24.61-36.5-26.45 5.93-.87 11.01-2 14.71-3.5l.76-14.4c6.5.63 17.72 2.32 28.79 6.86 11.08 15.7 21.07 40.72-13.9 52.71h.04Z"/>
    <path fill="#00B0F3" d="M239.57 270.73a50.5 50.5 0 0 0-26.27-12.4c-4.29 0-12.23 3.11-23.49 14.43a156.89 156.89 0 0 0-12.33 14.16c-24.5 31.52-60.61 35.4-56.13 10.11 3.31-18.66 25.23-24.61 36.51-26.45-5.93-.87-11.02-2-14.72-3.5l-.76-14.4c-16.55 1.6-63.38 10.09-61.54 54.46 2.22 53.87 59.34 53.68 95.46 28.4 36.11-25.3 64.11-42.98 76.7-47.27-.15-.7-4.35-9.56-13.4-17.56l-.03.02Z"/>
    <path fill="#0063A2" d="M241.77 293.38c-11.56-17.42-37.4-25.27-44.73-27.19a89.92 89.92 0 0 0-7.25 6.56 156.86 156.86 0 0 0-12.33 14.17 84.14 84.14 0 0 1-15.63 15.54 66.77 66.77 0 0 1 16.01 31.98c27.01-18.88 49.35-33.38 63.93-41.06Zm-114.32 18.87c-4.94-2.24-7.52-7.3-6.1-15.22 3.31-18.66 25.24-24.61 36.51-26.45-5.93-.87-11.02-2-14.72-3.5l-.76-14.4c-6.5.63-17.72 2.32-28.78 6.86-11.09 15.7-21.08 40.72 13.9 52.71h-.05Z"/>
    <path fill="#00B0F3" d="M227.11 341.97c8.93-8.99 15.97-19.12 18.63-31.03-9.9-3.86-21.06-11.88-30.48-24.02-4.47-5.74-8.6-10.4-12.33-14.17-11.28-11.3-19.2-14.41-23.48-14.41a50.51 50.51 0 0 0-26.28 12.39c-9.06 8-13.26 16.87-13.4 17.56 12.58 4.29 40.58 21.98 76.7 47.27a91.88 91.88 0 0 0 10.64 6.41Z"/>
    <path fill="#0063A2" d="M269.01 351.94a62.13 62.13 0 0 0-8.66-38.42 24.6 24.6 0 0 1-4.96-.07c6.76 9.02 10.9 19.62 11.3 30.61.1 2.66-.05 5.32-.36 7.96.9 0 1.8-.02 2.68-.06v-.02Zm-.02-61.94c.88 1.73 1.6 3.59 2.09 5.64 12.02-.89 24.24 1.56 34.61 7.39 2.2 1.22 4.27 2.6 6.23 4.07.09-2.2.04-4.3-.08-6.33a64.45 64.45 0 0 0-3.65-2.43c-11.47-6.99-25.58-9.82-39.2-8.34Zm-180.61 8.26c10.05-5.39 22.39-6.44 33.45-3.4.51-1.9 1.23-3.66 2.1-5.28-12.76-3.99-27.35-2.62-38.61 4.43a43.03 43.03 0 0 0-4.03 2.87 55.7 55.7 0 0 0-.55 6.7 39.42 39.42 0 0 1 7.62-5.32h.02Zm31.52 44.94a65.2 65.2 0 0 1 9.81-30.17c-1.29-.34-2.45-.8-3.48-1.43a74.78 74.78 0 0 0-9.21 39.64c.93.15 1.86.27 2.8.38a72.4 72.4 0 0 1 .1-8.42h-.03Z"/>
  
</svg>