<svg xmlns="http://www.w3.org/2000/svg" fill="none" viewBox="0 0 1038 700" width="1038" height="700">
  <path fill="#0063A2" d="m830.27 642.44 48.83-2.82-.5-30.75s-39.16 10.03-48.34 33.56h.01Z"/>
  <path fill="#00B0F3" d="M954.75 600.73s-36.51-5.88-70.75 9.06c-5.72 3.58-16.14 29.64-4.9 101.28h100.78s-.8-67.5-25.13-110.34Z"/>
  <path fill="#0063A2" d="m884.78 609.46-.79.33c-5.72 3.58-16.14 29.64-4.9 101.28h23.12c-21.92-37.4-18.8-87.8-17.43-101.6Z"/>
  <path fill="#0063A2" d="M893.15 650.77s-4.66 42.2 24.87 40.72c29.52-1.48 18.13-56.85.96-61.27-20.72-5.35-25.56 14.64-25.83 20.56Z"/>
  <path fill="#0063A2" d="m954.9 634-5.53-2.53s-5.32-11.07-5.72-12.95c-.4-1.87-16.7-1.7-22.55 3.5.4 2.85 1.4 5.96 1.4 5.96s-10.31.3-15.16 7.38c-4.86 7.1 12.91 45.91 12.91 45.91s34.27.51 58.19 7.1l-2.54-28.1L954.88 634h.01Z"/>
  <path fill="#0063A2" d="M961.14 640.6s-15.7-1.03-15.55-18.12c.13-17.09 9.17-21.75 9.17-21.75s11.44 2.59 13.3 7.25c1.86 4.66-6.92 32.62-6.92 32.62Zm-33.48 70.47c-8.77-34.01-14.4-69.32-5.18-103.75 1.71-6.4-8.32-9.87-10.06-3.4-9.55 35.72-4.49 71.94 4.34 107.15h10.9Z"/>
  <path fill="#6887AF" d="M895.7 652s-3.87 36.88 20.6 35.6c24.48-1.28 15.03-49.71.8-53.58-17.17-4.67-21.18 12.8-21.4 17.97Z"/>
  <path fill="#D8FFEE" d="M897.16 652.81s-3.45 34.31 18.43 33.11c21.89-1.2 13.44-46.23.71-49.82-15.35-4.34-18.94 11.9-19.14 16.72Z"/>
  <path fill="#A4DBCF" d="M899.84 655.74s8.42 11.78 27.57 10.86c-2.39 24.98-31.67 23.24-27.57-10.86Z"/>
  <path fill="#fff" d="M910.54 649.53c3.41 0 6.18-2.54 6.18-5.66 0-3.13-2.77-5.67-6.18-5.67-3.41 0-6.18 2.54-6.18 5.66 0 3.13 2.76 5.67 6.18 5.67Z"/>
  <path fill="#00B0F3" d="M947.18 633.74s-4.44-8.47-5.94-10.96c-1.5-2.5-7.8-3.7-15.16 0 .06 1.68 2.08 6.95 2.08 6.95s-11.74-.3-16.18 4.02c.18 10.87 2.04 13.72 3.46 14.75 9.31-1.55 14.81-1.63 14.9 0-6.65.52-14.19 4.75-14.19 4.75-2.04 6.99 3.73 15.87 6.04 16.13 9.13-.95 23.58 1.3 23.58 1.3s42.3 12.43 48.5 13.8c6.2 1.38 21.1-11.39 16.14-24.51-4.97-13.12-37.83-54.55-48.7-56.62-8.4-1.03-11.95 23.3-7.33 29.17l5.4 6.33-12.58-5.11h-.02Z"/>
  <path fill="#0063A2" d="m959.75 638.85 13.2 6.4s-6.1-9.68-17.34-11.24l4.14 4.84Z"/>
  <path fill="#0063A2" d="M958.2 637c-.62-.83-1.3-1.64-2.06-2.41l2.06 2.42Zm-6.46 34.06-.61 1.2 6.12 1.77c2.3-4.5 4.04-9.26 4.96-14.2 1.43-7.58.8-15.06-2.9-21.15l-7.79-3.17c2.17 2.97 4.3 5.83 5 9.66.82 4.43.46 9.3-.41 13.68a47.42 47.42 0 0 1-4.37 12.21Zm31.72 10.51c2.57-7.22 3.82-14.98 2.47-22.06a24.34 24.34 0 0 0-5.68-11.87c5.96-.04 11.83.3 17.63 1.96 3.12.9 6.21 2.05 9.07 3.59-1.42-2.4-3.17-5.09-5.15-7.95-7.9-2.37-16.62-2.85-24.53-.46a39.48 39.48 0 0 0-9.2-5.45c3.7-5.83 8.1-10.24 14.56-13.37 1.03-.5 2.1-.96 3.17-1.38a229.82 229.82 0 0 0-3.2-3.65c-.48.21-.95.42-1.37.64-7.02 3.47-14.03 8.96-15.93 16.64-.85-.19-1.32 1.03-.6 1.52l.47.31c.18.33.52.53.92.62 3.63 2.37 7.6 4.55 10.38 7.86 3.32 3.95 4.63 9.35 4.88 14.35.32 6.2-1.36 11.7-3.5 17.1l5.62 1.6h-.01Zm-55.31-51.84s2.6-.03 5.36.49c-3.23-2.37-5.86-1.85-5.86-1.85l.5 1.36Zm1.65 18.82s3.9-.25 5.06 0c-2.04-2.21-8.29-1.67-8.65-1.25 3.3.38 3.58 1.25 3.58 1.25Z"/>
  <path fill="#BB7C3D" d="m857.9 642.46.87 13.63h45.4l.62-13.63h-46.9Zm16.87-10.34.45 10.34h16.57l.33-10.34h-17.35Z"/>
  <path fill="#91552F" d="M875.23 642.46h16.56l.04-1.5-16.6.35v1.15Z"/>
  <path fill="#BB7C3D" d="m860.6 656.09.46 10.33h16.57l.33-10.33H860.6Z"/>
  <path fill="#91552F" d="M861.06 666.42h16.57l.04-1.49-16.6.35v1.14Zm-.46-10.33h17.36l-.07 2.01-17.22-.42-.07-1.6Z"/>
  <path fill="#BB7C3D" d="m884.82 656.09.47 10.33h16.55l.34-10.33h-17.36Z"/>
  <path fill="#91552F" d="M885.29 666.42h16.55l.06-1.49-16.61.35v1.14Zm-.47-10.33h17.36l-.07 2.01-17.22-.42-.07-1.6Z"/>
  <path fill="#BB7C3D" d="m873.37 666.42.47 10.34h16.55l.33-10.34h-17.35Z"/>
  <path fill="#91552F" d="M873.84 676.76h16.55l.06-1.5-16.61.36v1.14Zm-.47-10.34h17.35l-.06 2.02-17.21-.42-.08-1.6Z"/>
  <path fill="#BB7C3D" d="m857.9 676.76.87 13.64h45.4l.62-13.64h-46.9Zm3.3 14.01.46 9.23h16.77l.34-9.23h-17.58Z"/>
  <path fill="#91552F" d="M861.72 700.73h16.57l.04-1.5-16.6.35v1.15Zm-.46-10.33h17.36l-.07 2.02-17.22-.43-.07-1.6Z"/>
  <path fill="#BB7C3D" d="m885.46 690.77.48 9.23h16.75l.35-9.23h-17.58Z"/>
  <path fill="#91552F" d="M885.95 700.73h16.55l.06-1.5-16.61.35v1.15Zm-.47-10.33h17.36l-.07 2.01-17.22-.42-.07-1.6Z"/>
  <path fill="#C98742" d="M858.15 646.37s25.85 1.15 28.3-1.18c2.47-2.33 18.34-1.95 18.34-1.95l-.34 6.6s-16.4.91-18.73 3.1c-2.33 2.2-27.15.07-27.15.07l-.43-6.66v.02Zm46.61 31.13s-14.43 1.71-18.81 3.88c-4.38 2.15-27.76 0-27.76 0l.33 5.13s25.6-.56 28 1.3c2.4 1.85 17.73.77 17.73.77l.18-4s-12.73.94-11.83-.53c.9-1.47 11.96-2.28 11.96-2.28l.19-4.28Z"/>
  <path fill="#0063A2" d="M873.1 597.27s16.02 3.84 17.42 6.75c0 4.08-4.32 8.29-4.32 8.29l-13.1-15.04Z"/>
  <path fill="#BB7C3D" d="m855.01 615.27 3.77 13.16 44.42-9.12-2.29-13.47-45.9 9.43Z"/>
  <path fill="#C98742" d="M856.1 619.06s25.54-4.07 27.46-6.84c1.91-2.78 17.52-5.6 17.52-5.6l1.08 6.53s-15.86 4.2-17.66 6.81c-1.81 2.62-26.56 5.53-26.56 5.53l-1.84-6.42Z"/>
  <path fill="#00B0F3" d="M826.33 612.33c.36-.25 24.23-16.05 38.49-16.75 14.26-.69 24.73 15.36 24.2 17.53-4.08 8.1-12.6 6.47-12.6 6.47s-1.76 9.43-15.81 9.68l-2.09-1.4s-23.23 19.34-35.46 13.47c-12.24-5.87-8.16-21.15 3.28-29h-.01Z"/>
  <path fill="#0063A2" d="M831.64 642.16a17.67 17.67 0 0 1-6.34-9.06c-2.16-7.12-.27-14.93 2.45-21.67l-1.44.92-.64.47c-3.39 7.06-6.15 15.25-3.7 22.91a21.05 21.05 0 0 0 3.48 6.44c1.92.41 4.01.35 6.18-.01h.01Zm21.66-12.79c-2.79-2.83-4.92-6.68-6.3-10.33-2.65-6.99-.84-13.03 2.04-19.03-2.12.9-4.2 1.88-6.21 2.88-2.4 6.4-3.3 13.26-.84 19.67a32.66 32.66 0 0 0 7.63 11.72 94.43 94.43 0 0 0 5.24-3.59 11.3 11.3 0 0 1-1.56-1.32Z"/>
  <path fill="#0063A2" d="M854.77 621.86c-.76-.74-2.35.11-1.68 1.1a52.23 52.23 0 0 1 3.72 6.27c1.07-.83 1.69-1.35 1.69-1.35l1.49 1a27.96 27.96 0 0 0-5.23-7.03h.01Zm11.76-13.73c-1.1-.77-2.14.89-1.13 1.68a38.29 38.29 0 0 1 8.23 8.8 23.86 23.86 0 0 1 1.83 3.4c.76-1.38.96-2.41.96-2.41s.45.08 1.18.11a40.99 40.99 0 0 0-11.07-11.6v.01Z"/>
  <path fill="#91552F" d="m900.9 605.84-10.8 2.22 3.29 13.26 9.8-2.01-2.28-13.47Z"/>
  <path fill="#0063A2" d="m897.8 591.2 6.4 12.13s-2.86 15.21 8.83 12.2c11.69-3.01 18.2-15.84 18.2-15.84l-9.05-16.05-24.38 7.55Z"/>
  <path fill="#FFAD00" d="M855.88 541.37s-5.53 1.61-1.38 16.65c3.14 11.38 10.05 8.15 10.05 8.15l-8.67-24.8Z"/>
  <path fill="#E88000" d="M857.01 532.8s-5.6 6.74 1.72 26.8c7.31 20.08 15.97 15.02 15.97 15.02L857 532.8Z"/>
  <path fill="#00B0F3" d="M851.86 526.03s17.56 47.64 18.8 64.73c4.6 9.14 49.83 12.08 68.27-14.5 3.38-3.63-12.05-42.98-17.73-71.8-4.6-16.57-75.1 5.16-69.34 21.57Z"/>
  <path fill="#0063A2" d="M921.2 504.45c-.06-.2-.13-.37-.2-.56-2.25 3.12-6.07 6.93-12.52 10.48-3.54 3.57 7.73 50.78 23.85 69.26a41.7 41.7 0 0 0 6.6-7.38c3.38-3.63-12.05-42.98-17.73-71.8Z"/>
  <path fill="#E88000" d="M920.14 518.26s-8.87 5.94-4.26 29.64c3.7 18.96 16.83 20.77 21.83 10.63 1.26-2.54 1.68-5.31 1.7-9.36.04-14.81-3.73-28.11-10.34-31.48-2.4-1.22-6.29-1.31-8.93.57Z"/>
  <path fill="#FFAD00" d="M923.56 518.93s-7.78 5.5-3.73 27.5c4.04 21.98 20.6 19.9 20.64 1.16.05-18.73-8.2-35.23-16.9-28.66Z"/>
  <path fill="#E88000" d="M929 524.14s-6.09 4.16-2.92 20.77c2.53 13.29 11.57 14.55 15.01 7.45.87-1.78 1.16-3.73 1.16-6.56.04-10.38-2.56-19.7-7.1-22.06a6.22 6.22 0 0 0-6.14.4Z"/>
  <path fill="#FFAD00" d="M931.36 524.6s-5.35 3.86-2.56 19.26c2.77 15.41 14.15 13.96 14.19.82.04-13.13-5.64-24.69-11.62-20.09Z"/>
  <path fill="#E88000" d="M861.56 520.83s8.15 6.85 30.54-3.5c17.9-8.27 16.37-21.1 5.02-23.25-2.84-.54-5.71-.24-9.73.78-14.73 3.7-26.99 10.63-28.66 17.7-.6 2.59.3 6.26 2.83 8.28Z"/>
  <path fill="#FFAD00" d="M861.35 517.45s7.45 5.93 28.27-3.45c20.83-9.39 14.57-24.44-4.06-19.74-18.63 4.7-32.94 16.64-24.2 23.19Z"/>
  <path fill="#E88000" d="M865.15 511s5.68 4.67 21.38-2.51c12.57-5.75 11.54-14.58 3.6-16.02-1.99-.37-4-.15-6.82.57-10.32 2.6-18.93 7.4-20.12 12.27a5.84 5.84 0 0 0 1.96 5.68Z"/>
  <path fill="#FFAD00" d="M865.01 508.66s5.2 4.06 19.8-2.46c14.6-6.53 10.28-16.86-2.78-13.57-13.05 3.3-23.1 11.56-17.02 16.03Z"/>
  <path fill="#0063A2" d="M893.31 572.77s9.61-4.08 26-5.51c-5.64-6.59-26-4.97-26 5.5Zm-25.53-2.47c-.03.14 9.98 1.1 16.22 3.43-3.78-7.76-15.24-7.35-16.22-3.43Z"/>
  <path fill="#F5F2F9" d="M868.62 569.27s8.03.26 13.46 2.15c-1.05-14.15-13.46-34.96-18.69-32.15-5.23 2.8 2.58 22.22 5.24 29.99h-.01Zm25.35.6s13.85-3.8 23.24-4.06c-1.68-10.96-11.22-36.41-23.9-29.86-12.68 6.56.65 33.92.65 33.92h.01Z"/>
  <path fill="#232A32" d="M880.53 563.37a5.52 5.52 0 0 0-1.83-.3c-4.03 0-5.85 3.63-5.24 6.58 2.66.3 5.96.84 8.63 1.77-.2-2.52-.75-5.27-1.56-8.05Zm10.86.2a86.17 86.17 0 0 0 2.58 6.3s2.63-.73 6.38-1.55c1.68-3.06.4-7.66-4.18-7.66a5.1 5.1 0 0 0-4.78 2.91Z"/>
  <path fill="#0063A2" d="M889.86 584.87s10.57-2.66 16.96-11.14l2 2.91s-7.98 8.74-18.42 9.2l-.53-.98h-.01Z"/>
  <path fill="#D66B92" d="M897.8 581.48s3.24 5.76 8.3 4.59c5.04-1.17 7.1-7.02-.5-10.86-3.29 3.45-7.8 6.26-7.8 6.26Z"/>
  <path fill="#4C2634" d="M901.55 578.84s4.3 2.33 5.8 3.83c-1.47-3.39-4.53-4.86-4.53-4.86l-1.27 1.02Z"/>
  <path fill="#0063A2" d="M856.74 526.42s19.62 4.32 42.6-6.21c-17.73 18.78-40.2 10.36-42.6 6.21Z"/>
  <rect width="243" height="55" x="397.5" y="32.5" fill="#0B0F14" rx="15.5"/>
  <rect width="243" height="55" x="397.5" y="32.5" stroke="#12B886" rx="15.5"/>
  <path fill="#fff" d="M423.11 67V53.04h1.6V65.6h5.3V67h-6.9Zm15.52 0c-.99 0-1.48-.5-1.48-1.48v-.2h-.2c-.17.63-.5 1.1-.96 1.44-.45.32-1 .48-1.64.48-1 0-1.75-.25-2.24-.76-.5-.5-.74-1.25-.74-2.24 0-.96.31-1.72.94-2.28.64-.56 1.63-.84 2.98-.84h1.86v-1.14c0-.76-.17-1.32-.52-1.68-.33-.36-.87-.54-1.6-.54-.6 0-1.08.13-1.46.4-.36.25-.67.63-.94 1.12l-.9-.84a3.7 3.7 0 0 1 3.36-1.98c1.18 0 2.06.29 2.66.86.62.56.92 1.4.92 2.5v5.84h1.04V67h-1.08Zm-3.9-1.08a2.64 2.64 0 0 0 1.74-.64c.22-.2.38-.42.5-.66.12-.25.18-.51.18-.78v-1.56h-1.9c-.8 0-1.38.13-1.76.4-.36.27-.54.65-.54 1.16v.56c0 .52.16.9.48 1.16.32.24.75.36 1.3.36Zm12.75-.6h-.2c-.2.64-.51 1.12-.94 1.44a2.7 2.7 0 0 1-1.7.48 2.7 2.7 0 0 1-2.18-.94c-.52-.63-.78-1.6-.78-2.9v-6.72h1.52v6.62c0 .83.17 1.46.5 1.9.35.44.87.66 1.58.66.61 0 1.13-.19 1.56-.56.43-.37.64-.9.64-1.58v-7.04H449V67h-1.52v-1.68Zm4.55 1.68V56.68h1.52v1.68h.2c.2-.64.51-1.12.92-1.44.43-.32 1-.48 1.72-.48.92 0 1.64.31 2.16.94.54.63.8 1.6.8 2.9V67h-1.52v-6.62c0-.83-.17-1.46-.52-1.9-.33-.44-.85-.66-1.56-.66-.61 0-1.13.19-1.56.56a2 2 0 0 0-.64 1.58V67h-1.52Zm13.66.24a3.8 3.8 0 0 1-3.02-1.26c-.72-.84-1.08-2.22-1.08-4.14 0-1.92.36-3.3 1.08-4.14a3.8 3.8 0 0 1 3.02-1.26 3.64 3.64 0 0 1 3.6 2.38l-1.26.64a2.4 2.4 0 0 0-.82-1.22 2.4 2.4 0 0 0-1.52-.44c-.84 0-1.46.25-1.86.74-.4.5-.6 1.25-.6 2.26v2.08c0 1.01.2 1.77.6 2.26.4.5 1.02.74 1.86.74.66 0 1.2-.15 1.6-.44.41-.3.74-.74.98-1.34l1.12.78c-.3.72-.78 1.3-1.4 1.72-.62.43-1.38.64-2.3.64Zm5.68-15.04h1.52v6.16h.2c.2-.64.5-1.12.92-1.44.43-.32 1-.48 1.72-.48.92 0 1.64.31 2.16.94.53.63.8 1.6.8 2.9V67h-1.52v-6.62c0-.83-.17-1.46-.52-1.9-.33-.44-.85-.66-1.56-.66-.61 0-1.13.19-1.56.56-.43.37-.64.9-.64 1.58V67h-1.52V52.2Zm18.01 15.04c-.6 0-1.16-.1-1.68-.3-.52-.2-.96-.52-1.34-.96-.37-.44-.67-1-.88-1.68a8.26 8.26 0 0 1-.32-2.46c0-.96.1-1.78.32-2.46.21-.68.5-1.24.88-1.68.38-.44.82-.76 1.34-.96.52-.2 1.08-.3 1.68-.3.6 0 1.16.1 1.68.3.52.2.97.52 1.34.96.38.44.67 1 .88 1.68.22.68.32 1.5.32 2.46s-.1 1.78-.32 2.46c-.21.68-.5 1.24-.88 1.68-.37.44-.82.76-1.34.96-.52.2-1.08.3-1.68.3Zm0-1.36c.83 0 1.46-.25 1.9-.74.46-.5.68-1.25.68-2.26V60.8c0-1.01-.22-1.77-.68-2.26-.44-.5-1.07-.74-1.9-.74a2.5 2.5 0 0 0-1.92.74c-.44.5-.66 1.25-.66 2.26v2.08c0 1.01.22 1.77.66 2.26.46.5 1.1.74 1.92.74Zm7-7.86h-1.5v-1.34h1.5v-2.52c0-.68.16-1.17.46-1.48.32-.32.82-.48 1.5-.48h1.54v1.34h-1.98v3.14h1.98v1.34h-1.98V67h-1.52v-8.98Zm17.9 5.06a3.9 3.9 0 0 1-.98 2.84 4.26 4.26 0 0 1-2.72 1.14v1.58h-1.28v-1.6a5.36 5.36 0 0 1-3.86-2.22l1.1-1.02c.3.47.7.88 1.18 1.24a3.9 3.9 0 0 0 1.62.68V60.4a5.51 5.51 0 0 1-2.72-1.36 3.4 3.4 0 0 1-.82-2.42c0-1.08.32-1.93.96-2.54A4.15 4.15 0 0 1 509.3 53v-1.6h1.28V53a4.54 4.54 0 0 1 3.58 2.1l-1.12.86a3.8 3.8 0 0 0-.98-1.04c-.4-.3-.9-.5-1.52-.6v4.88c.64.16 1.2.35 1.66.58.48.21.87.48 1.18.8.3.3.53.67.68 1.08.15.4.22.87.22 1.42Zm-6.98-6.6c0 .72.16 1.26.5 1.62.34.36.86.63 1.54.8v-4.58a2.6 2.6 0 0 0-1.52.7c-.35.37-.52.86-.52 1.46Zm5.5 6.74c0-.68-.18-1.21-.54-1.6-.35-.4-.92-.71-1.72-.94v5.04c.73-.1 1.3-.35 1.68-.76.38-.43.58-1 .58-1.74Zm12.22 1.84h-.2a2.6 2.6 0 0 1-1.08 1.56c-.56.41-1.35.62-2.38.62-.76 0-1.45-.14-2.08-.42a4.22 4.22 0 0 1-1.6-1.32 6.73 6.73 0 0 1-1.04-2.24c-.24-.92-.36-2-.36-3.24 0-2.5.47-4.32 1.4-5.48a4.77 4.77 0 0 1 3.94-1.74c1.23 0 2.2.27 2.94.8.73.52 1.3 1.24 1.72 2.16l-1.32.8a3.65 3.65 0 0 0-1.22-1.72 3.42 3.42 0 0 0-2.12-.62c-1.16 0-2.05.39-2.68 1.16a4.7 4.7 0 0 0-.94 3.08v3.12c0 1.3.31 2.33.94 3.1a3.28 3.28 0 0 0 2.68 1.14c.45 0 .88-.07 1.28-.2a2.84 2.84 0 0 0 2.04-2.84v-1.52h-2.76v-1.4h4.32V67h-1.48v-1.94Zm5.92-12.02v9.04c0 .63.05 1.17.14 1.64.1.47.27.86.5 1.18.23.3.53.54.9.7.39.15.85.22 1.4.22 1.1 0 1.85-.3 2.28-.92.44-.63.66-1.57.66-2.82v-9.04h1.6v8.72c0 .93-.08 1.75-.24 2.44a4.26 4.26 0 0 1-.78 1.7c-.35.45-.81.8-1.4 1.02-.57.21-1.28.32-2.12.32a6.3 6.3 0 0 1-2.14-.32 3.3 3.3 0 0 1-1.4-1.02 4.44 4.44 0 0 1-.76-1.7c-.16-.7-.24-1.5-.24-2.44v-8.72h1.6ZM543.27 67h-1.6V53.04h5.14c2.3 0 3.46 1.33 3.46 3.98 0 2.24-.83 3.53-2.48 3.88l2.82 6.1h-1.8l-2.62-6h-2.92v6Zm3.5-7.36c1.18 0 1.78-.64 1.78-1.92v-1.36c0-1.28-.6-1.92-1.78-1.92h-3.5v5.2h3.5Zm7.76-6.6v9.04c0 .63.05 1.17.14 1.64.11.47.28.86.5 1.18.23.3.53.54.9.7.39.15.86.22 1.4.22 1.1 0 1.86-.3 2.28-.92.44-.63.66-1.57.66-2.82v-9.04h1.6v8.72c0 .93-.08 1.75-.24 2.44a4.26 4.26 0 0 1-.78 1.7c-.34.45-.81.8-1.4 1.02-.57.21-1.28.32-2.12.32a6.3 6.3 0 0 1-2.14-.32 3.3 3.3 0 0 1-1.4-1.02 4.43 4.43 0 0 1-.76-1.7c-.16-.7-.24-1.5-.24-2.44v-8.72h1.6Zm19.27 1.4V67h-1.6V54.44h-3.94v-1.4h9.48v1.4h-3.94Zm8.2 12.8c-.6 0-1.16-.1-1.68-.3-.52-.2-.97-.52-1.34-.96-.37-.44-.67-1-.88-1.68a8.3 8.3 0 0 1-.32-2.46c0-.96.1-1.78.32-2.46.21-.68.5-1.24.88-1.68.37-.44.82-.76 1.34-.96.52-.2 1.08-.3 1.68-.3.6 0 1.16.1 1.68.3.52.2.97.52 1.34.96.37.44.67 1 .88 1.68.21.68.32 1.5.32 2.46s-.1 1.78-.32 2.46c-.21.68-.5 1.24-.88 1.68-.37.44-.82.76-1.34.96-.52.2-1.08.3-1.68.3Zm0-1.36c.83 0 1.46-.25 1.9-.74.45-.5.68-1.25.68-2.26V60.8c0-1.01-.23-1.77-.68-2.26-.44-.5-1.07-.74-1.9-.74-.83 0-1.47.25-1.92.74-.44.5-.66 1.25-.66 2.26v2.08c0 1.01.22 1.77.66 2.26.45.5 1.1.74 1.92.74Zm6.56-13.68h1.52v7.6l-.12 2.02h.16l1.44-1.94 2.58-3.2h1.84l-3.42 4.1 3.72 6.22h-1.82l-3.02-5.32-1.36 1.6V67h-1.52V52.2Zm12.87 15.04c-.6 0-1.16-.1-1.68-.3-.52-.2-.96-.52-1.34-.96-.37-.44-.66-1-.88-1.68a8.26 8.26 0 0 1-.32-2.46c0-.96.1-1.78.32-2.46.22-.68.5-1.24.88-1.68.38-.44.82-.76 1.34-.96a4.64 4.64 0 0 1 3.32 0c.5.2.94.52 1.28.96.35.44.62 1 .8 1.68.2.68.3 1.5.3 2.46v.38h-6.62v.66c0 1.01.23 1.77.68 2.28.47.5 1.1.74 1.92.74a3 3 0 0 0 1.7-.44c.44-.3.79-.76 1.04-1.36l1.04.76a3.94 3.94 0 0 1-3.78 2.38Zm0-9.52c-.82 0-1.46.26-1.92.78-.45.52-.68 1.29-.68 2.3v.26h5v-.26c0-2.05-.8-3.08-2.4-3.08Zm6.39 9.28V56.68h1.51v1.68h.2c.2-.64.51-1.12.93-1.44.42-.32 1-.48 1.71-.48.93 0 1.65.31 2.17.94.53.63.8 1.6.8 2.9V67h-1.52v-6.62c0-.83-.18-1.46-.52-1.9-.34-.44-.86-.66-1.57-.66-.6 0-1.13.19-1.55.56-.43.37-.64.9-.64 1.58V67h-1.52Z"/>
  <path fill="#0B0F14" d="M480 16a16 16 0 0 1 16-16h46a16 16 0 0 1 16 16v16h-78V16Z"/>
  <path fill="#8D9EB0" d="M497.16 21v-9.77h3.6c1.62 0 2.42.93 2.42 2.78 0 1.86-.8 2.79-2.42 2.79h-2.48V21h-1.12Zm1.12-5.18h2.45c.83 0 1.25-.45 1.25-1.34v-.93c0-.9-.42-1.34-1.25-1.34h-2.45v3.61Zm6.45-5.18h1.07v4.31h.14c.14-.45.35-.78.64-1 .3-.23.7-.34 1.2-.34.65 0 1.15.22 1.52.66.37.43.56 1.11.56 2.03V21h-1.07v-4.63a2.1 2.1 0 0 0-.36-1.33c-.23-.31-.6-.47-1.1-.47-.42 0-.78.13-1.08.4-.3.26-.45.63-.45 1.1V21h-1.07V10.64ZM516.48 21c-.7 0-1.04-.35-1.04-1.04v-.14h-.14c-.12.44-.35.78-.67 1.01-.32.23-.7.34-1.15.34-.7 0-1.22-.18-1.57-.53-.34-.36-.52-.88-.52-1.57 0-.67.22-1.2.66-1.6.45-.39 1.15-.59 2.09-.59h1.3v-.8c0-.53-.12-.92-.36-1.17-.24-.25-.61-.38-1.12-.38-.42 0-.76.1-1.03.28-.25.18-.47.44-.65.79l-.63-.6c.18-.38.48-.71.9-.97.4-.27.89-.4 1.45-.4.82 0 1.44.2 1.86.6.43.39.64.97.64 1.74v4.1h.73V21h-.75Zm-2.73-.76a1.85 1.85 0 0 0 1.22-.45c.14-.13.26-.29.34-.46.09-.17.13-.36.13-.54v-1.1h-1.33c-.56 0-.97.1-1.23.29a.95.95 0 0 0-.38.8v.4c0 .36.11.63.34.81.22.17.52.25.9.25Zm6.93.93c-.6 0-1.1-.12-1.54-.37a3.36 3.36 0 0 1-1.08-1l.75-.62c.25.35.52.63.8.81.3.19.66.28 1.07.28.42 0 .75-.1 1-.3.25-.22.37-.52.37-.92 0-.31-.08-.57-.23-.77-.16-.2-.46-.33-.89-.4l-.54-.1a3.22 3.22 0 0 1-1.57-.66c-.34-.3-.5-.77-.5-1.4 0-.36.05-.67.16-.94a1.82 1.82 0 0 1 1.2-1.04c.3-.08.6-.12.94-.12a2.7 2.7 0 0 1 2.32 1.12l-.68.63a2.23 2.23 0 0 0-.63-.59c-.26-.17-.6-.26-1-.26-.85 0-1.28.39-1.28 1.16 0 .35.09.62.27.78.18.16.48.28.9.35l.54.1c.74.13 1.26.36 1.57.69.3.32.46.77.46 1.33 0 .7-.2 1.25-.62 1.65-.4.4-1 .59-1.79.59Zm6.62 0c-.42 0-.82-.07-1.18-.21a2.3 2.3 0 0 1-.94-.67c-.26-.31-.46-.7-.61-1.18a5.78 5.78 0 0 1-.23-1.72c0-.67.08-1.25.23-1.72.14-.48.35-.87.61-1.18.26-.3.58-.53.94-.67a3.25 3.25 0 0 1 2.32 0c.36.14.66.36.9.67.24.3.43.7.56 1.18.14.47.21 1.05.21 1.72v.26h-4.63v.47c0 .7.15 1.24.47 1.6.33.34.78.51 1.35.51.48 0 .88-.1 1.19-.3.3-.22.55-.54.72-.96l.73.53a2.77 2.77 0 0 1-2.65 1.67Zm0-6.67c-.58 0-1.03.19-1.35.55-.32.36-.47.9-.47 1.61v.18h3.5v-.18c0-1.44-.56-2.16-1.68-2.16Zm7.47 6.5v-.98h2.44v-7.97h-.09l-2.07 1.92-.63-.68 2.21-2.06h1.7v8.79h2.24V21h-5.8Z"/>
  <rect width="283" height="83" x="199.5" y="196.5" fill="#0B0F14" rx="15.5"/>
  <rect width="283" height="83" x="199.5" y="196.5" stroke="#46A6FF" rx="15.5"/>
  <path fill="#fff" d="M225.78 231v-13.96h1.6v12.56h5.3v1.4h-6.9Zm15.52 0c-1 0-1.48-.5-1.48-1.48v-.2h-.2a2.6 2.6 0 0 1-.96 1.44c-.46.32-1 .48-1.64.48-1 0-1.75-.25-2.24-.76-.5-.5-.74-1.25-.74-2.24 0-.96.3-1.72.94-2.28.64-.56 1.63-.84 2.98-.84h1.86v-1.14c0-.76-.18-1.32-.52-1.68-.34-.36-.87-.54-1.6-.54-.6 0-1.1.13-1.46.4-.36.25-.68.63-.94 1.12l-.9-.84a3.7 3.7 0 0 1 3.36-1.98c1.17 0 2.06.29 2.66.86.6.56.92 1.4.92 2.5v5.84h1.04V231h-1.08Zm-3.9-1.08a2.72 2.72 0 0 0 1.74-.64c.2-.2.38-.42.5-.66.12-.25.18-.51.18-.78v-1.56h-1.9c-.8 0-1.4.13-1.76.4-.36.27-.54.65-.54 1.16v.56c0 .52.16.9.48 1.16.32.24.75.36 1.3.36Zm12.74-.6h-.2c-.2.64-.51 1.12-.94 1.44a2.7 2.7 0 0 1-1.7.48c-.92 0-1.64-.31-2.18-.94-.52-.63-.78-1.6-.78-2.9v-6.72h1.52v6.62c0 .83.17 1.46.5 1.9.35.44.88.66 1.58.66.62 0 1.14-.19 1.56-.56.43-.37.64-.9.64-1.58v-7.04h1.52V231h-1.52v-1.68Zm4.56 1.68v-10.32h1.52v1.68h.2c.2-.64.5-1.12.92-1.44.42-.32 1-.48 1.72-.48.92 0 1.64.31 2.16.94.53.63.8 1.6.8 2.9V231h-1.52v-6.62c0-.83-.18-1.46-.52-1.9-.34-.44-.86-.66-1.56-.66-.62 0-1.14.19-1.56.56-.43.37-.64.9-.64 1.58V231h-1.52Zm13.65.24a3.8 3.8 0 0 1-3.02-1.26c-.72-.84-1.08-2.22-1.08-4.14 0-1.92.36-3.3 1.08-4.14a3.8 3.8 0 0 1 3.02-1.26 3.64 3.64 0 0 1 3.6 2.38l-1.26.64a2.4 2.4 0 0 0-.82-1.22 2.4 2.4 0 0 0-1.52-.44c-.84 0-1.46.25-1.86.74-.4.5-.6 1.25-.6 2.26v2.08c0 1.01.2 1.77.6 2.26.4.5 1.02.74 1.86.74.67 0 1.2-.15 1.6-.44.42-.3.74-.74.98-1.34l1.12.78a3.76 3.76 0 0 1-3.7 2.36Zm5.68-15.04h1.52v6.16h.2c.2-.64.51-1.12.92-1.44.43-.32 1-.48 1.72-.48.92 0 1.64.31 2.16.94.54.63.8 1.6.8 2.9V231h-1.52v-6.62c0-.83-.17-1.46-.52-1.9-.33-.44-.85-.66-1.56-.66-.61 0-1.13.19-1.56.56a2 2 0 0 0-.64 1.58V231h-1.52v-14.8Zm22.76 12.86h-.2a2.64 2.64 0 0 1-1.08 1.56c-.56.41-1.36.62-2.38.62-.76 0-1.46-.14-2.08-.42a4.21 4.21 0 0 1-1.6-1.32 6.71 6.71 0 0 1-1.04-2.24c-.24-.92-.36-2-.36-3.24 0-2.5.46-4.32 1.4-5.48a4.77 4.77 0 0 1 3.94-1.74c1.22 0 2.2.27 2.94.8.73.52 1.3 1.24 1.72 2.16l-1.32.8a3.66 3.66 0 0 0-1.22-1.72 3.42 3.42 0 0 0-2.12-.62c-1.16 0-2.06.39-2.68 1.16a4.7 4.7 0 0 0-.94 3.08v3.12c0 1.3.3 2.33.94 3.1a3.28 3.28 0 0 0 2.68 1.14c.45 0 .88-.07 1.28-.2s.76-.33 1.06-.58a2.84 2.84 0 0 0 .98-2.26v-1.52h-2.76v-1.4h4.32V231h-1.48v-1.94Zm5.91-12.02v9.04c0 .63.05 1.17.15 1.64.1.47.27.86.5 1.18.22.3.52.54.9.7.38.15.85.22 1.4.22 1.09 0 1.85-.3 2.28-.92.44-.63.65-1.57.65-2.82v-9.04h1.6v8.72c0 .93-.07 1.75-.24 2.44a4.26 4.26 0 0 1-.77 1.7c-.35.45-.82.8-1.4 1.02-.58.21-1.28.32-2.13.32a6.3 6.3 0 0 1-2.13-.32 3.3 3.3 0 0 1-1.4-1.02 4.43 4.43 0 0 1-.76-1.7c-.17-.7-.25-1.5-.25-2.44v-8.72h1.6ZM315.03 231h-1.6v-13.96h5.14c2.3 0 3.46 1.33 3.46 3.98 0 2.24-.82 3.53-2.48 3.88l2.82 6.1h-1.8l-2.62-6h-2.92v6Zm3.5-7.36c1.19 0 1.78-.64 1.78-1.92v-1.36c0-1.28-.6-1.92-1.78-1.92h-3.5v5.2h3.5Zm7.77-6.6v9.04c0 .63.05 1.17.14 1.64.1.47.27.86.5 1.18.23.3.52.54.9.7.39.15.85.22 1.4.22 1.1 0 1.85-.3 2.28-.92.44-.63.66-1.57.66-2.82v-9.04h1.6v8.72c0 .93-.08 1.75-.24 2.44a4.26 4.26 0 0 1-.78 1.7c-.35.45-.81.8-1.4 1.02-.57.21-1.28.32-2.12.32a6.3 6.3 0 0 1-2.14-.32 3.3 3.3 0 0 1-1.4-1.02 4.43 4.43 0 0 1-.76-1.7c-.16-.7-.24-1.5-.24-2.44v-8.72h1.6ZM341.26 231v-13.96h7.54v1.4h-5.94v4.8h5.4v1.4h-5.4V231h-1.6Zm9.57 0v-10.32h1.52v1.92h.2c.17-.6.47-1.07.88-1.4.43-.35.98-.52 1.66-.52h.56v1.54h-1a2.7 2.7 0 0 0-1.7.48c-.4.32-.6.8-.6 1.44V231h-1.52Zm13.02 0c-.98 0-1.48-.5-1.48-1.48v-.2h-.2a2.5 2.5 0 0 1-.96 1.44c-.45.32-1 .48-1.64.48-1 0-1.74-.25-2.24-.76-.49-.5-.74-1.25-.74-2.24 0-.96.32-1.72.94-2.28.64-.56 1.64-.84 2.98-.84h1.86v-1.14c0-.76-.17-1.32-.52-1.68-.33-.36-.86-.54-1.6-.54-.6 0-1.08.13-1.46.4-.36.25-.67.63-.94 1.12l-.9-.84a3.7 3.7 0 0 1 3.36-1.98c1.18 0 2.06.29 2.66.86.62.56.92 1.4.92 2.5v5.84h1.04V231h-1.08Zm-3.9-1.08c.35 0 .67-.06.96-.18a2.22 2.22 0 0 0 1.28-1.12c.12-.25.18-.51.18-.78v-1.56h-1.9c-.8 0-1.38.13-1.76.4-.36.27-.54.65-.54 1.16v.56c0 .52.16.9.48 1.16.32.24.76.36 1.3.36ZM367 231v-10.32h1.52v1.68h.2a3 3 0 0 1 .88-1.44 2.5 2.5 0 0 1 1.64-.48c.64 0 1.18.16 1.62.48.46.3.8.79 1.02 1.44h.2c.22-.64.55-1.12 1-1.44a3.06 3.06 0 0 1 1.8-.48c.88 0 1.59.31 2.12.94.54.63.8 1.6.8 2.9V231h-1.52v-6.62a3.1 3.1 0 0 0-.5-1.9c-.32-.44-.82-.66-1.5-.66-.6 0-1.1.19-1.52.56-.4.37-.6.9-.6 1.58V231h-1.52v-6.62a3.1 3.1 0 0 0-.5-1.9c-.32-.44-.82-.66-1.5-.66-.6 0-1.1.19-1.52.56-.4.37-.6.9-.6 1.58V231H367Zm19.26.24c-.6 0-1.15-.1-1.68-.3a3.3 3.3 0 0 1-1.33-.96c-.38-.44-.67-1-.88-1.68a8.26 8.26 0 0 1-.32-2.46c0-.96.1-1.78.31-2.46.22-.68.51-1.24.88-1.68.38-.44.82-.76 1.34-.96a4.64 4.64 0 0 1 3.32 0c.51.2.94.52 1.29.96.34.44.6 1 .8 1.68.2.68.3 1.5.3 2.46v.38h-6.63v.66c0 1.01.23 1.77.69 2.28.46.5 1.1.74 1.91.74.7 0 1.26-.15 1.7-.44a3 3 0 0 0 1.05-1.36l1.04.76a3.95 3.95 0 0 1-3.78 2.38Zm0-9.52a2.4 2.4 0 0 0-1.91.78c-.46.52-.69 1.29-.69 2.3v.26h5v-.26c0-2.05-.8-3.08-2.4-3.08Zm5.3-1.04h1.49l1 4.48.88 4.5h.2l1.02-4.5 1.04-4.48h1.76l1.04 4.48 1.02 4.5h.2l.88-4.5 1-4.48h1.44L402.05 231h-1.92l-1.26-5-.7-3.78h-.2l-.74 3.78-1.26 5h-1.92l-2.48-10.32Zm18.38 10.56c-.6 0-1.16-.1-1.68-.3-.52-.2-.97-.52-1.34-.96-.38-.44-.67-1-.88-1.68a8.3 8.3 0 0 1-.32-2.46c0-.96.1-1.78.32-2.46.21-.68.5-1.24.88-1.68.37-.44.82-.76 1.34-.96.52-.2 1.08-.3 1.68-.3.6 0 1.16.1 1.68.3.52.2.96.52 1.34.96.37.44.66 1 .88 1.68.21.68.32 1.5.32 2.46s-.11 1.78-.32 2.46a4.94 4.94 0 0 1-.88 1.68c-.38.44-.82.76-1.34.96-.52.2-1.08.3-1.68.3Zm0-1.36c.82 0 1.46-.25 1.9-.74.45-.5.68-1.25.68-2.26v-2.08c0-1.01-.23-1.77-.68-2.26-.44-.5-1.08-.74-1.9-.74-.83 0-1.47.25-1.92.74-.44.5-.66 1.25-.66 2.26v2.08c0 1.01.22 1.77.66 2.26.45.5 1.09.74 1.92.74Zm6.56 1.12v-10.32h1.5v1.92h.2c.18-.6.47-1.07.89-1.4.42-.35.97-.52 1.65-.52h.56v1.54h-1c-.71 0-1.28.16-1.7.48-.4.32-.6.8-.6 1.44V231h-1.51Zm6.63-14.8h1.52v7.6l-.11 2.02h.15l1.44-1.94 2.58-3.2h1.85l-3.43 4.1 3.73 6.22h-1.82l-3.03-5.32-1.36 1.6V231h-1.51v-14.8Zm14.27 5.82h-1.5v-1.34h1.5v-2.52c0-.68.16-1.17.47-1.48.31-.32.81-.48 1.5-.48h1.53v1.34h-1.97v3.14h1.97v1.34h-1.97V231h-1.53v-8.98Zm8.8 9.22c-.6 0-1.15-.1-1.67-.3-.52-.2-.97-.52-1.34-.96-.38-.44-.67-1-.88-1.68a8.3 8.3 0 0 1-.32-2.46c0-.96.1-1.78.32-2.46.2-.68.5-1.24.88-1.68.37-.44.82-.76 1.34-.96.52-.2 1.08-.3 1.68-.3.6 0 1.16.1 1.68.3.52.2.96.52 1.34.96.37.44.66 1 .88 1.68.2.68.32 1.5.32 2.46s-.11 1.78-.32 2.46a4.94 4.94 0 0 1-.88 1.68c-.38.44-.82.76-1.34.96-.52.2-1.08.3-1.68.3Zm0-1.36c.83 0 1.47-.25 1.9-.74.46-.5.69-1.25.69-2.26v-2.08c0-1.01-.23-1.77-.68-2.26-.44-.5-1.08-.74-1.9-.74-.83 0-1.47.25-1.92.74-.44.5-.66 1.25-.66 2.26v2.08c0 1.01.22 1.77.66 2.26.45.5 1.09.74 1.92.74Zm6.56 1.12v-10.32h1.52v1.92h.2c.18-.6.47-1.07.88-1.4.43-.35.98-.52 1.66-.52h.56v1.54h-1c-.72 0-1.28.16-1.7.48-.4.32-.6.8-.6 1.44V231h-1.52ZM263.7 259v-13.96h7.71v1.4h-6.11v4.8h5.73v1.4h-5.73v4.96h6.11v1.4h-7.71Zm13.59.24a3.8 3.8 0 0 1-3.02-1.26c-.72-.84-1.08-2.22-1.08-4.14 0-1.92.36-3.3 1.08-4.14a3.8 3.8 0 0 1 3.02-1.26 3.64 3.64 0 0 1 3.6 2.38l-1.26.64a2.4 2.4 0 0 0-.82-1.22 2.4 2.4 0 0 0-1.52-.44c-.84 0-1.46.25-1.86.74-.4.5-.6 1.25-.6 2.26v2.08c0 1.01.2 1.77.6 2.26.4.5 1.02.74 1.86.74.66 0 1.2-.15 1.6-.44.41-.3.74-.74.98-1.34l1.12.78c-.3.72-.78 1.3-1.4 1.72-.62.43-1.38.64-2.3.64Zm9.06 0c-.6 0-1.16-.1-1.68-.3-.52-.2-.96-.52-1.34-.96-.37-.44-.66-1-.88-1.68a8.26 8.26 0 0 1-.32-2.46c0-.96.1-1.78.32-2.46.22-.68.5-1.24.88-1.68.38-.44.82-.76 1.34-.96.52-.2 1.08-.3 1.68-.3.6 0 1.16.1 1.68.3.52.2.97.52 1.34.96.38.44.67 1 .88 1.68.22.68.32 1.5.32 2.46s-.1 1.78-.32 2.46c-.21.68-.5 1.24-.88 1.68-.37.44-.82.76-1.34.96-.52.2-1.08.3-1.68.3Zm0-1.36c.83 0 1.46-.25 1.9-.74.46-.5.68-1.25.68-2.26v-2.08c0-1.01-.22-1.77-.68-2.26-.44-.5-1.07-.74-1.9-.74a2.5 2.5 0 0 0-1.92.74c-.44.5-.66 1.25-.66 2.26v2.08c0 1.01.22 1.77.66 2.26.46.5 1.1.74 1.92.74Zm9.42 1.36a4.4 4.4 0 0 1-2.2-.52 4.8 4.8 0 0 1-1.54-1.44l1.06-.88c.36.5.75.9 1.16 1.16.43.27.93.4 1.52.4.6 0 1.07-.15 1.42-.44.36-.3.54-.74.54-1.3 0-.45-.11-.82-.34-1.1-.23-.28-.65-.47-1.26-.58l-.78-.14a4.6 4.6 0 0 1-2.24-.94c-.48-.44-.72-1.1-.72-2 0-.52.08-.97.24-1.34.16-.39.39-.7.68-.94.3-.25.64-.43 1.04-.54.41-.12.86-.18 1.34-.18a3.88 3.88 0 0 1 3.32 1.6l-.98.9a3.3 3.3 0 0 0-.9-.84 2.51 2.51 0 0 0-1.44-.38c-1.21 0-1.82.55-1.82 1.66 0 .5.13.88.38 1.12.27.23.7.4 1.28.5l.78.14c1.05.19 1.8.51 2.24.98.44.47.66 1.1.66 1.9 0 1-.3 1.79-.88 2.36-.57.56-1.43.84-2.56.84Zm11.31-10.56h1.49l-4.08 12.96c-.09.27-.17.49-.27.66a.92.92 0 0 1-.35.42c-.14.1-.3.18-.5.22-.2.04-.43.06-.73.06h-1.12v-1.34h1.59l.6-2.1-3.43-10.88h1.53l1.57 5.2.96 3.78h.2l.97-3.78 1.57-5.2Zm6.23 10.56a4.4 4.4 0 0 1-2.2-.52 4.8 4.8 0 0 1-1.54-1.44l1.06-.88c.36.5.75.9 1.16 1.16.43.27.93.4 1.52.4.6 0 1.07-.15 1.42-.44.36-.3.54-.74.54-1.3 0-.45-.11-.82-.34-1.1-.23-.28-.65-.47-1.26-.58l-.78-.14a4.6 4.6 0 0 1-2.24-.94c-.48-.44-.72-1.1-.72-2 0-.52.08-.97.24-1.34.16-.39.39-.7.68-.94.3-.25.64-.43 1.04-.54.41-.12.86-.18 1.34-.18a3.88 3.88 0 0 1 3.32 1.6l-.98.9a3.3 3.3 0 0 0-.9-.84 2.51 2.51 0 0 0-1.44-.38c-1.21 0-1.82.55-1.82 1.66 0 .5.13.88.38 1.12.27.23.7.4 1.28.5l.78.14c1.05.19 1.8.51 2.24.98.44.47.66 1.1.66 1.9 0 1-.3 1.79-.88 2.36-.57.56-1.43.84-2.56.84Zm7.97-.24c-.55 0-.95-.12-1.2-.36-.24-.25-.36-.65-.36-1.2v-7.42h-1.52v-1.34h.9c.3 0 .5-.07.6-.22.1-.16.16-.4.16-.7v-1.92h1.38v2.84h2v1.34h-2v7.64h1.9V259h-1.86Zm7.73.24c-.6 0-1.16-.1-1.68-.3-.52-.2-.97-.52-1.34-.96-.37-.44-.67-1-.88-1.68a8.3 8.3 0 0 1-.32-2.46c0-.96.1-1.78.32-2.46.21-.68.5-1.24.88-1.68.37-.44.82-.76 1.34-.96a4.64 4.64 0 0 1 3.32 0c.5.2.93.52 1.28.96.35.44.61 1 .8 1.68.2.68.3 1.5.3 2.46v.38h-6.62v.66c0 1.01.23 1.77.68 2.28.47.5 1.1.74 1.92.74.7 0 1.26-.15 1.7-.44.44-.3.79-.76 1.04-1.36l1.04.76a3.94 3.94 0 0 1-3.78 2.38Zm0-9.52a2.4 2.4 0 0 0-1.92.78c-.45.52-.68 1.29-.68 2.3v.26h5v-.26c0-2.05-.8-3.08-2.4-3.08Zm6.38 9.28v-10.32h1.52v1.68h.2a3 3 0 0 1 .88-1.44 2.5 2.5 0 0 1 1.64-.48c.64 0 1.18.16 1.62.48.45.3.8.79 1.02 1.44h.2c.22-.64.55-1.12 1-1.44a3.06 3.06 0 0 1 1.8-.48c.88 0 1.59.31 2.12.94.54.63.8 1.6.8 2.9V259h-1.52v-6.62a3.1 3.1 0 0 0-.5-1.9c-.32-.44-.82-.66-1.5-.66-.6 0-1.1.19-1.52.56-.4.37-.6.9-.6 1.58V259h-1.52v-6.62a3.1 3.1 0 0 0-.5-1.9c-.32-.44-.82-.66-1.5-.66-.6 0-1.1.19-1.52.56-.4.37-.6.9-.6 1.58V259h-1.52Zm20.12 0v-13.96h5.14c2.3 0 3.46 1.33 3.46 3.98s-1.15 3.98-3.46 3.98h-3.54v6h-1.6Zm1.6-7.4h3.5c1.19 0 1.78-.64 1.78-1.92v-1.32c0-1.28-.6-1.92-1.78-1.92h-3.5v5.16Zm9.02 7.4v-10.32h1.52v1.92h.2c.18-.6.47-1.07.88-1.4.43-.35.98-.52 1.66-.52h.56v1.54h-1c-.72 0-1.28.16-1.7.48-.4.32-.6.8-.6 1.44V259h-1.52Zm10.13.24c-.6 0-1.17-.1-1.69-.3a3.3 3.3 0 0 1-1.33-.96c-.38-.44-.67-1-.88-1.68a8.3 8.3 0 0 1-.33-2.46c0-.96.11-1.78.33-2.46.2-.68.5-1.24.88-1.68.37-.44.81-.76 1.33-.96.52-.2 1.08-.3 1.69-.3.6 0 1.15.1 1.68.3.51.2.96.52 1.33.96.38.44.67 1 .88 1.68.22.68.32 1.5.32 2.46s-.1 1.78-.31 2.46a4.94 4.94 0 0 1-.88 1.68c-.38.44-.82.76-1.34.96-.53.2-1.08.3-1.69.3Zm0-1.36c.82 0 1.45-.25 1.9-.74.45-.5.68-1.25.68-2.26v-2.08c0-1.01-.23-1.77-.69-2.26-.44-.5-1.07-.74-1.9-.74a2.5 2.5 0 0 0-1.92.74c-.44.5-.65 1.25-.65 2.26v2.08c0 1.01.21 1.77.65 2.26.46.5 1.1.74 1.93.74Zm6.55-9.2h1.52v12.36c0 .68-.16 1.17-.48 1.48-.3.32-.8.48-1.48.48h-1.08v-1.34h1.52v-12.98Zm.76-2.5c-.62 0-.94-.27-.94-.82v-.32c0-.55.32-.82.94-.82.63 0 .94.27.94.82v.32c0 .55-.31.82-.94.82Zm7.31 13.06c-.6 0-1.16-.1-1.68-.3-.52-.2-.96-.52-1.34-.96-.37-.44-.66-1-.88-1.68a8.3 8.3 0 0 1-.32-2.46c0-.96.11-1.78.32-2.46.22-.68.51-1.24.88-1.68.38-.44.82-.76 1.34-.96a4.64 4.64 0 0 1 3.32 0c.51.2.94.52 1.28.96.35.44.62 1 .8 1.68.2.68.3 1.5.3 2.46v.38h-6.62v.66c0 1.01.23 1.77.68 2.28.47.5 1.11.74 1.92.74.7 0 1.26-.15 1.7-.44.44-.3.8-.76 1.04-1.36l1.04.76a3.95 3.95 0 0 1-3.78 2.38Zm0-9.52c-.82 0-1.46.26-1.92.78-.45.52-.68 1.29-.68 2.3v.26h5v-.26c0-2.05-.8-3.08-2.4-3.08Zm9.79 9.52a3.8 3.8 0 0 1-3.02-1.26c-.72-.84-1.08-2.22-1.08-4.14 0-1.92.36-3.3 1.08-4.14a3.8 3.8 0 0 1 3.02-1.26 3.64 3.64 0 0 1 3.6 2.38l-1.26.64a2.4 2.4 0 0 0-.82-1.22 2.4 2.4 0 0 0-1.52-.44c-.84 0-1.46.25-1.86.74-.4.5-.6 1.25-.6 2.26v2.08c0 1.01.2 1.77.6 2.26.4.5 1.02.74 1.86.74.66 0 1.2-.15 1.6-.44.41-.3.74-.74.98-1.34l1.12.78a3.9 3.9 0 0 1-1.4 1.72c-.62.43-1.38.64-2.3.64Zm7.76-.24c-.55 0-.95-.12-1.2-.36-.24-.25-.36-.65-.36-1.2v-7.42h-1.52v-1.34h.9c.3 0 .5-.07.6-.22.1-.16.16-.4.16-.7v-1.92h1.38v2.84h2v1.34h-2v7.64h1.9V259h-1.86Zm7.15.24a4.4 4.4 0 0 1-2.2-.52 4.79 4.79 0 0 1-1.54-1.44l1.06-.88c.36.5.74.9 1.16 1.16.42.27.93.4 1.52.4.6 0 1.07-.15 1.42-.44.36-.3.54-.74.54-1.3 0-.45-.12-.82-.34-1.1-.23-.28-.65-.47-1.26-.58l-.78-.14a4.6 4.6 0 0 1-2.24-.94c-.48-.44-.72-1.1-.72-2 0-.52.08-.97.24-1.34.16-.39.38-.7.68-.94.29-.25.64-.43 1.04-.54.4-.12.86-.18 1.34-.18a3.88 3.88 0 0 1 3.32 1.6l-.98.9a3.3 3.3 0 0 0-.9-.84 2.52 2.52 0 0 0-1.44-.38c-1.22 0-1.82.55-1.82 1.66 0 .5.12.88.38 1.12.26.23.69.4 1.28.5l.78.14c1.05.19 1.8.51 2.24.98.44.47.66 1.1.66 1.9 0 1-.3 1.79-.88 2.36-.58.56-1.43.84-2.56.84Z"/>
  <path fill="#0B0F14" d="M302 180a16 16 0 0 1 16-16h46a16 16 0 0 1 16 16v16h-78v-16Z"/>
  <path fill="#8D9EB0" d="M319.16 185v-9.77h3.6c1.62 0 2.42.93 2.42 2.78 0 1.86-.8 2.79-2.42 2.79h-2.48v4.2h-1.12Zm1.12-5.18h2.45c.83 0 1.25-.45 1.25-1.34v-.93c0-.9-.42-1.34-1.25-1.34h-2.45v3.61Zm6.45-5.18h1.07v4.31h.14c.14-.45.35-.78.64-1 .3-.23.7-.34 1.2-.34.65 0 1.15.22 1.52.66.37.44.56 1.11.56 2.03v4.7h-1.07v-4.63a2.1 2.1 0 0 0-.36-1.33c-.23-.31-.6-.47-1.1-.47-.42 0-.78.14-1.08.4-.3.26-.45.63-.45 1.1V185h-1.07v-10.36ZM338.48 185c-.7 0-1.04-.34-1.04-1.04v-.14h-.14c-.12.44-.35.78-.67 1.01-.32.23-.7.34-1.15.34-.7 0-1.22-.18-1.57-.53-.34-.36-.52-.88-.52-1.57 0-.67.22-1.2.66-1.6.45-.39 1.14-.59 2.09-.59h1.3v-.8c0-.53-.12-.92-.36-1.17-.24-.25-.61-.38-1.12-.38-.42 0-.76.1-1.03.28-.25.18-.47.44-.65.79l-.63-.6c.18-.38.48-.71.9-.97.4-.27.89-.4 1.45-.4.82 0 1.44.2 1.86.6.43.39.64.97.64 1.74v4.1h.73v.93h-.75Zm-2.73-.76a1.85 1.85 0 0 0 1.22-.45c.14-.13.26-.29.34-.46.09-.17.13-.36.13-.54v-1.1h-1.33c-.56 0-.97.1-1.23.29a.95.95 0 0 0-.38.8v.4c0 .36.11.63.34.81.22.17.52.25.9.25Zm6.93.93c-.6 0-1.1-.12-1.54-.37a3.36 3.36 0 0 1-1.08-1l.75-.62c.25.35.52.63.8.81.3.19.66.28 1.07.28.42 0 .75-.1 1-.3.25-.22.37-.52.37-.92 0-.31-.08-.57-.24-.77-.15-.2-.45-.33-.88-.4l-.54-.1a3.23 3.23 0 0 1-1.57-.66c-.34-.3-.5-.77-.5-1.4 0-.36.05-.68.16-.94a1.82 1.82 0 0 1 1.2-1.04c.3-.08.6-.12.94-.12a2.7 2.7 0 0 1 2.32 1.12l-.68.63a2.23 2.23 0 0 0-.63-.59c-.26-.17-.6-.26-1-.26-.85 0-1.28.38-1.28 1.16 0 .35.09.62.27.78.18.16.48.28.9.35l.54.1c.74.13 1.26.36 1.57.69.3.33.46.77.46 1.33 0 .7-.2 1.25-.62 1.65-.4.4-1 .59-1.79.59Zm6.62 0c-.42 0-.82-.07-1.18-.21a2.3 2.3 0 0 1-.94-.67c-.26-.31-.47-.7-.61-1.18a5.78 5.78 0 0 1-.23-1.72c0-.67.08-1.25.23-1.72.14-.48.35-.87.61-1.18.26-.3.58-.53.94-.67a3.25 3.25 0 0 1 2.32 0c.36.14.66.36.9.67.24.3.43.7.56 1.18.14.47.21 1.05.21 1.72v.26h-4.63v.47c0 .7.15 1.24.47 1.6.33.34.78.51 1.35.51.48 0 .88-.1 1.19-.3.3-.22.55-.54.72-.96l.73.53a2.77 2.77 0 0 1-2.65 1.67Zm0-6.67c-.58 0-1.03.19-1.35.55-.32.36-.47.9-.47 1.61v.18h3.5v-.18c0-1.44-.56-2.16-1.68-2.16Zm13.1 6.5h-5.81v-1.16l2.97-3.08c.47-.49.81-.94 1.02-1.35.22-.42.32-.83.32-1.24v-.37c0-1.16-.5-1.75-1.52-1.75-.5 0-.91.13-1.22.4-.3.26-.51.63-.63 1.1l-.98-.39a3.19 3.19 0 0 1 1-1.5 3.01 3.01 0 0 1 1.86-.6c.9 0 1.58.24 2.01.71.44.47.66 1.16.66 2.08 0 .31-.03.61-.09.9-.05.26-.15.54-.29.82a5.5 5.5 0 0 1-.57.87c-.24.3-.54.63-.9 1.02l-2.44 2.56h4.61v.98Z"/>
  <rect width="322" height="55" x=".5" y="380.5" fill="#0B0F14" rx="15.5"/>
  <rect width="322" height="55" x=".5" y="380.5" stroke="#9488F0" rx="15.5"/>
  <path fill="#fff" d="M25.87 415v-13.96h1.6v12.56h5.3v1.4h-6.9Zm15.52 0c-1 0-1.48-.5-1.48-1.48v-.2h-.2a2.6 2.6 0 0 1-.96 1.44c-.46.32-1 .48-1.64.48-1 0-1.75-.25-2.24-.76-.5-.5-.74-1.25-.74-2.24 0-.96.3-1.72.94-2.28.64-.56 1.63-.84 2.98-.84h1.86v-1.14c0-.76-.18-1.32-.52-1.68-.34-.36-.87-.54-1.6-.54-.6 0-1.1.13-1.46.4-.36.25-.68.63-.94 1.12l-.9-.84a3.69 3.69 0 0 1 3.36-1.98c1.17 0 2.06.29 2.66.86.6.56.92 1.4.92 2.5v5.84h1.04V415h-1.08Zm-3.9-1.08a2.72 2.72 0 0 0 1.74-.64c.2-.2.38-.42.5-.66.12-.25.18-.51.18-.78v-1.56H38c-.8 0-1.4.13-1.76.4-.36.27-.54.65-.54 1.16v.56c0 .52.16.9.48 1.16.32.24.75.36 1.3.36Zm12.74-.6h-.2c-.2.64-.51 1.12-.94 1.44a2.7 2.7 0 0 1-1.7.48c-.92 0-1.64-.31-2.18-.94-.52-.63-.78-1.6-.78-2.9v-6.72h1.52v6.62c0 .83.17 1.46.5 1.9.35.44.88.66 1.58.66.62 0 1.14-.19 1.56-.56.43-.37.64-.9.64-1.58v-7.04h1.52V415h-1.52v-1.68ZM54.8 415v-10.32h1.52v1.68h.2c.2-.64.5-1.12.92-1.44.42-.32 1-.48 1.72-.48.92 0 1.64.31 2.16.94.53.63.8 1.6.8 2.9V415H60.6v-6.62c0-.83-.18-1.46-.52-1.9-.34-.44-.86-.66-1.56-.66-.62 0-1.14.19-1.56.56-.43.37-.64.9-.64 1.58V415H54.8Zm13.65.24a3.8 3.8 0 0 1-3.02-1.26c-.72-.84-1.08-2.22-1.08-4.14 0-1.92.36-3.3 1.08-4.14a3.8 3.8 0 0 1 3.02-1.26 3.64 3.64 0 0 1 3.6 2.38l-1.26.64a2.4 2.4 0 0 0-.82-1.22 2.4 2.4 0 0 0-1.52-.44c-.84 0-1.46.25-1.86.74-.4.5-.6 1.25-.6 2.26v2.08c0 1.01.2 1.77.6 2.26.4.5 1.02.74 1.86.74.67 0 1.2-.15 1.6-.44.41-.3.74-.74.98-1.34l1.12.78a3.76 3.76 0 0 1-3.7 2.36Zm5.68-15.04h1.52v6.16h.2c.2-.64.51-1.12.92-1.44.43-.32 1-.48 1.72-.48.92 0 1.64.31 2.16.94.54.63.8 1.6.8 2.9V415h-1.52v-6.62c0-.83-.17-1.46-.52-1.9-.33-.44-.85-.66-1.56-.66-.61 0-1.13.19-1.56.56a2 2 0 0 0-.64 1.58V415h-1.52v-14.8Zm18.02 15.04c-.6 0-1.16-.1-1.68-.3-.52-.2-.97-.52-1.34-.96-.38-.44-.67-1-.88-1.68a8.28 8.28 0 0 1-.32-2.46c0-.96.1-1.78.32-2.46.2-.68.5-1.24.88-1.68.37-.44.82-.76 1.34-.96.52-.2 1.08-.3 1.68-.3.6 0 1.16.1 1.68.3.52.2.96.52 1.34.96.37.44.66 1 .88 1.68.2.68.32 1.5.32 2.46s-.11 1.78-.32 2.46a4.94 4.94 0 0 1-.88 1.68c-.38.44-.82.76-1.34.96-.52.2-1.08.3-1.68.3Zm0-1.36c.82 0 1.46-.25 1.9-.74.45-.5.68-1.25.68-2.26v-2.08c0-1.01-.23-1.77-.68-2.26-.44-.5-1.08-.74-1.9-.74-.83 0-1.47.25-1.92.74-.44.5-.66 1.25-.66 2.26v2.08c0 1.01.22 1.77.66 2.26.45.5 1.09.74 1.92.74Zm7-7.86h-1.5v-1.34h1.5v-2.52c0-.68.15-1.17.46-1.48.32-.32.82-.48 1.5-.48h1.54v1.34h-1.98v3.14h1.98v1.34h-1.98V415h-1.52v-8.98Zm17.87 7.04h-.2c-.14.63-.5 1.15-1.08 1.56-.56.41-1.35.62-2.38.62-.76 0-1.45-.14-2.08-.42a4.22 4.22 0 0 1-1.6-1.32 6.73 6.73 0 0 1-1.04-2.24c-.24-.92-.36-2-.36-3.24 0-2.5.47-4.32 1.4-5.48a4.77 4.77 0 0 1 3.94-1.74c1.23 0 2.2.27 2.94.8.74.52 1.3 1.24 1.72 2.16l-1.32.8a3.65 3.65 0 0 0-1.22-1.72 3.42 3.42 0 0 0-2.12-.62c-1.16 0-2.05.39-2.68 1.16a4.7 4.7 0 0 0-.94 3.08v3.12c0 1.3.32 2.33.94 3.1a3.28 3.28 0 0 0 2.68 1.14c.46 0 .88-.07 1.28-.2a2.84 2.84 0 0 0 2.04-2.84v-1.52h-2.76v-1.4h4.32V415h-1.48v-1.94Zm5.92-12.02v9.04c0 .63.05 1.17.14 1.64.1.47.28.86.5 1.18.23.3.53.54.9.7.39.15.86.22 1.4.22 1.1 0 1.85-.3 2.28-.92.44-.63.66-1.57.66-2.82v-9.04h1.6v8.72c0 .93-.08 1.75-.24 2.44a4.26 4.26 0 0 1-.78 1.7c-.34.45-.81.8-1.4 1.02-.57.21-1.28.32-2.12.32a6.3 6.3 0 0 1-2.14-.32 3.3 3.3 0 0 1-1.4-1.02 4.44 4.44 0 0 1-.76-1.7c-.16-.7-.24-1.5-.24-2.44v-8.72h1.6ZM135.26 415h-1.6v-13.96h5.14c2.3 0 3.46 1.33 3.46 3.98 0 2.24-.83 3.53-2.48 3.88l2.82 6.1h-1.8l-2.62-6h-2.92v6Zm3.5-7.36c1.19 0 1.78-.64 1.78-1.92v-1.36c0-1.28-.6-1.92-1.78-1.92h-3.5v5.2h3.5Zm7.77-6.6v9.04c0 .63.04 1.17.13 1.64.11.47.28.86.5 1.18.23.3.53.54.9.7.4.15.86.22 1.4.22 1.1 0 1.86-.3 2.28-.92.44-.63.66-1.57.66-2.82v-9.04h1.6v8.72c0 .93-.07 1.75-.24 2.44a4.26 4.26 0 0 1-.77 1.7c-.35.45-.82.8-1.4 1.02-.58.21-1.28.32-2.13.32a6.3 6.3 0 0 1-2.14-.32 3.3 3.3 0 0 1-1.4-1.02 4.44 4.44 0 0 1-.75-1.7c-.16-.7-.24-1.5-.24-2.44v-8.72h1.6Zm17.8 4.9-1.22-2.88h-.2l.14 2.88V415h-1.56v-13.96h1.96l4.64 9.06 1.22 2.88h.2l-.14-2.88v-9.06h1.56V415h-1.96l-4.64-9.06Zm13.27 9.3c-.6 0-1.16-.1-1.68-.3-.52-.2-.96-.52-1.34-.96-.37-.44-.66-1-.88-1.68a8.3 8.3 0 0 1-.32-2.46c0-.96.11-1.78.32-2.46.22-.68.51-1.24.88-1.68.38-.44.82-.76 1.34-.96a4.64 4.64 0 0 1 3.32 0c.51.2.94.52 1.28.96.35.44.62 1 .8 1.68.2.68.3 1.5.3 2.46v.38H175v.66c0 1.01.23 1.77.68 2.28.47.5 1.11.74 1.92.74a3 3 0 0 0 1.7-.44c.44-.3.8-.76 1.04-1.36l1.04.76a3.95 3.95 0 0 1-3.78 2.38Zm0-9.52c-.82 0-1.46.26-1.92.78-.45.52-.68 1.29-.68 2.3v.26h5v-.26c0-2.05-.8-3.08-2.4-3.08Zm8.47 9.28c-.55 0-.95-.12-1.2-.36-.24-.25-.36-.65-.36-1.2v-7.42h-1.52v-1.34h.9c.3 0 .5-.07.6-.22.1-.16.16-.4.16-.7v-1.92h1.38v2.84h2v1.34h-2v7.64h1.9V415h-1.86Zm3.3-10.32h1.48l1 4.48.88 4.5h.2l1.02-4.5 1.04-4.48h1.76l1.04 4.48 1.02 4.5h.2l.88-4.5 1-4.48h1.44L199.85 415h-1.92l-1.26-5-.7-3.78h-.2l-.74 3.78-1.26 5h-1.92l-2.48-10.32Zm18.37 10.56c-.6 0-1.16-.1-1.68-.3-.52-.2-.97-.52-1.34-.96-.37-.44-.66-1-.88-1.68a8.3 8.3 0 0 1-.32-2.46c0-.96.1-1.78.32-2.46.22-.68.5-1.24.88-1.68.38-.44.82-.76 1.34-.96.52-.2 1.08-.3 1.68-.3.6 0 1.16.1 1.68.3.52.2.97.52 1.34.96.38.44.67 1 .88 1.68.22.68.32 1.5.32 2.46s-.1 1.78-.32 2.46c-.21.68-.5 1.24-.88 1.68-.37.44-.82.76-1.34.96-.52.2-1.08.3-1.68.3Zm0-1.36c.83 0 1.46-.25 1.9-.74.46-.5.68-1.25.68-2.26v-2.08c0-1.01-.22-1.77-.68-2.26-.44-.5-1.07-.74-1.9-.74-.83 0-1.47.25-1.92.74-.44.5-.66 1.25-.66 2.26v2.08c0 1.01.22 1.77.66 2.26.46.5 1.1.74 1.92.74Zm6.56 1.12v-10.32h1.52v1.92h.2c.17-.6.47-1.07.88-1.4.43-.35.98-.52 1.66-.52h.56v1.54h-1a2.7 2.7 0 0 0-1.7.48c-.4.32-.6.8-.6 1.44V415h-1.52Zm6.64-14.8h1.52v7.6l-.12 2.02h.16l1.44-1.94 2.58-3.2h1.84l-3.42 4.1 3.72 6.22h-1.82l-3.02-5.32-1.36 1.6V415h-1.52v-14.8Zm23.65 5.22.14-2.4h-.2l-1.04 2.4-3 6.16-3-6.16-1.04-2.36h-.2l.14 2.36V415h-1.56v-13.96h2.12l2.52 5.42.94 2.58h.16l.94-2.58 2.52-5.42h2.12V415h-1.56v-9.58Zm11.25 9.58c-.99 0-1.48-.5-1.48-1.48v-.2h-.2c-.17.63-.5 1.1-.96 1.44-.45.32-1 .48-1.64.48-1 0-1.75-.25-2.24-.76-.5-.5-.74-1.25-.74-2.24 0-.96.31-1.72.94-2.28.64-.56 1.63-.84 2.98-.84h1.86v-1.14c0-.76-.18-1.32-.52-1.68-.34-.36-.87-.54-1.6-.54-.6 0-1.09.13-1.46.4-.36.25-.68.63-.94 1.12l-.9-.84a3.69 3.69 0 0 1 3.36-1.98c1.17 0 2.06.29 2.66.86.61.56.92 1.4.92 2.5v5.84h1.04V415h-1.08Zm-3.9-1.08a2.63 2.63 0 0 0 1.74-.64c.21-.2.38-.42.5-.66.12-.25.18-.51.18-.78v-1.56h-1.9c-.8 0-1.39.13-1.76.4-.36.27-.54.65-.54 1.16v.56c0 .52.16.9.48 1.16.32.24.75.36 1.3.36Zm7.8-11.74c-.62 0-.93-.27-.93-.82v-.32c0-.55.31-.82.94-.82.62 0 .94.27.94.82v.32c0 .55-.32.82-.94.82Zm-.75 2.5h1.52V415h-1.52v-10.32Zm4.55 10.32v-10.32h1.52v1.68h.2c.2-.64.5-1.12.92-1.44.42-.32 1-.48 1.72-.48.92 0 1.64.31 2.16.94.53.63.8 1.6.8 2.9V415h-1.52v-6.62c0-.83-.18-1.46-.52-1.9-.34-.44-.86-.66-1.56-.66-.62 0-1.14.19-1.56.56-.43.37-.64.9-.64 1.58V415h-1.52Zm10.25 0v-10.32h1.52v1.68h.2c.2-.64.5-1.12.92-1.44.43-.32 1-.48 1.72-.48.92 0 1.64.31 2.16.94.54.63.8 1.6.8 2.9V415h-1.52v-6.62c0-.83-.17-1.46-.52-1.9-.33-.44-.85-.66-1.56-.66-.61 0-1.13.19-1.56.56-.43.37-.64.9-.64 1.58V415h-1.52Zm13.77.24c-.6 0-1.16-.1-1.68-.3a3.3 3.3 0 0 1-1.33-.96c-.38-.44-.67-1-.88-1.68a8.3 8.3 0 0 1-.32-2.46c0-.96.1-1.78.31-2.46.22-.68.51-1.24.88-1.68.38-.44.82-.76 1.34-.96a4.64 4.64 0 0 1 3.32 0c.51.2.94.52 1.29.96.34.44.6 1 .8 1.68.2.68.3 1.5.3 2.46v.38h-6.63v.66c0 1.01.23 1.77.69 2.28.46.5 1.1.74 1.92.74a3 3 0 0 0 1.7-.44c.44-.3.78-.76 1.04-1.36l1.04.76a3.95 3.95 0 0 1-3.78 2.38Zm0-9.52c-.82 0-1.46.26-1.92.78-.45.52-.68 1.29-.68 2.3v.26h5v-.26c0-2.05-.8-3.08-2.4-3.08Zm8.47 9.28c-.55 0-.95-.12-1.2-.36-.24-.25-.36-.65-.36-1.2v-7.42h-1.52v-1.34h.9c.3 0 .5-.07.6-.22.1-.16.16-.4.16-.7v-1.92h1.38v2.84h2v1.34h-2v7.64h1.9V415h-1.86Z"/>
  <path fill="#0B0F14" d="M122.5 364a16 16 0 0 1 16-16h46a16 16 0 0 1 16 16v16h-78v-16Z"/>
  <path fill="#8D9EB0" d="M139.66 369v-9.77h3.6c1.62 0 2.42.93 2.42 2.78 0 1.86-.8 2.79-2.42 2.79h-2.48v4.2h-1.12Zm1.12-5.18h2.45c.83 0 1.25-.45 1.25-1.34v-.93c0-.9-.42-1.34-1.25-1.34h-2.45v3.61Zm6.45-5.18h1.07v4.31h.14c.14-.45.35-.78.64-1 .3-.23.7-.34 1.2-.34.65 0 1.15.22 1.52.66.37.44.56 1.11.56 2.03v4.7h-1.07v-4.63a2.1 2.1 0 0 0-.36-1.33c-.23-.31-.6-.47-1.1-.47-.42 0-.79.13-1.08.4-.3.26-.45.63-.45 1.1V369h-1.07v-10.36ZM158.98 369c-.7 0-1.04-.35-1.04-1.04v-.14h-.14c-.12.44-.35.78-.67 1.01-.32.23-.7.34-1.15.34-.7 0-1.22-.18-1.57-.53-.34-.36-.52-.88-.52-1.57 0-.67.22-1.2.66-1.6.45-.39 1.14-.59 2.09-.59h1.3v-.8c0-.53-.12-.92-.36-1.17-.24-.25-.61-.38-1.12-.38-.42 0-.77.1-1.03.28-.25.18-.47.44-.65.79l-.63-.6c.18-.38.48-.71.9-.97.4-.27.89-.4 1.45-.4.82 0 1.44.2 1.86.6.43.39.64.97.64 1.74v4.1h.73v.93h-.75Zm-2.73-.76a1.85 1.85 0 0 0 1.22-.45c.14-.13.26-.29.34-.46.09-.17.13-.35.13-.54v-1.1h-1.33c-.56 0-.97.1-1.23.29a.95.95 0 0 0-.38.8v.4c0 .36.11.63.34.81.22.17.52.25.9.25Zm6.93.93c-.6 0-1.1-.12-1.54-.37a3.36 3.36 0 0 1-1.08-1l.75-.62c.25.36.52.63.8.81.3.19.66.28 1.07.28.42 0 .75-.1 1-.3.25-.22.37-.52.37-.92 0-.31-.08-.57-.24-.77-.15-.2-.45-.33-.88-.4l-.54-.1a3.23 3.23 0 0 1-1.57-.66c-.34-.3-.5-.77-.5-1.4 0-.36.05-.68.16-.94a1.82 1.82 0 0 1 1.2-1.04c.3-.08.6-.12.94-.12a2.7 2.7 0 0 1 2.32 1.12l-.68.63a2.23 2.23 0 0 0-.63-.59c-.26-.17-.6-.26-1-.26-.85 0-1.28.38-1.28 1.16 0 .36.09.62.27.78.18.16.48.28.9.35l.54.1c.74.13 1.26.36 1.57.69.3.32.46.77.46 1.33 0 .7-.2 1.25-.62 1.65-.4.4-1 .59-1.79.59Zm6.62 0c-.42 0-.82-.07-1.18-.21a2.3 2.3 0 0 1-.94-.67c-.26-.31-.47-.7-.61-1.18a5.78 5.78 0 0 1-.23-1.72c0-.67.08-1.25.23-1.72.15-.48.35-.87.61-1.18.26-.3.58-.53.94-.67a3.25 3.25 0 0 1 2.32 0c.36.14.66.36.9.67.24.3.43.7.56 1.18.14.47.21 1.05.21 1.72v.26h-4.63v.47c0 .7.15 1.24.47 1.6.33.34.78.51 1.35.51.48 0 .88-.1 1.19-.3.3-.22.55-.54.72-.96l.73.53a2.77 2.77 0 0 1-2.65 1.67Zm0-6.67c-.58 0-1.03.19-1.35.55-.32.36-.47.9-.47 1.61v.18h3.5v-.18c0-1.44-.56-2.16-1.68-2.16Zm9.66.89c.58 0 1.02-.14 1.31-.42.3-.3.45-.69.45-1.18v-.21c0-.55-.14-.94-.42-1.18a1.72 1.72 0 0 0-1.13-.35c-.45 0-.82.1-1.1.31-.28.2-.5.5-.7.9l-.8-.63c.1-.2.24-.39.4-.58a2.82 2.82 0 0 1 1.32-.85 3.62 3.62 0 0 1 2.04.01 2 2 0 0 1 1.37 1.21c.13.3.2.67.2 1.09 0 .33-.05.62-.14.88a2.05 2.05 0 0 1-.94 1.13c-.2.13-.43.21-.67.26v.14a1.98 1.98 0 0 1 1.76 1.4 3 3 0 0 1 .15 1c0 .88-.26 1.58-.78 2.1-.51.5-1.25.75-2.21.75a3.44 3.44 0 0 1-1.82-.5 3.18 3.18 0 0 1-.6-.52 8.2 8.2 0 0 1-.47-.6l.84-.64c.23.39.48.7.77.93.3.22.72.33 1.25.33.6 0 1.06-.14 1.37-.43.32-.3.48-.75.48-1.36v-.22c0-.6-.16-1.06-.48-1.35-.3-.3-.76-.44-1.37-.44h-1.04v-.98h.96Z"/>
  <rect width="462" height="83" x="287.5" y="536.5" fill="#0B0F14" rx="15.5"/>
  <rect width="462" height="83" x="287.5" y="536.5" stroke="#12B886" rx="15.5"/>
  <path fill="#fff" d="M315.8 571v-13.96h5.14c2.31 0 3.46 1.33 3.46 3.98s-1.15 3.98-3.45 3.98h-3.55v6h-1.6Zm1.6-7.4h3.5c1.2 0 1.79-.64 1.79-1.92v-1.32c0-1.28-.6-1.92-1.79-1.92h-3.5v5.16Zm10.96 7.4h-1.6v-13.96h5.14c2.3 0 3.46 1.33 3.46 3.98 0 2.24-.82 3.53-2.48 3.88l2.82 6.1h-1.8l-2.62-6h-2.92v6Zm3.5-7.36c1.19 0 1.78-.64 1.78-1.92v-1.36c0-1.28-.6-1.92-1.78-1.92h-3.5v5.2h3.5Zm11.05 7.6c-1.7 0-3-.58-3.94-1.74-.94-1.16-1.4-2.99-1.4-5.48 0-2.5.46-4.32 1.4-5.48a4.77 4.77 0 0 1 3.94-1.74c1.7 0 3 .58 3.94 1.74.93 1.16 1.4 2.99 1.4 5.48 0 2.5-.47 4.32-1.4 5.48a4.77 4.77 0 0 1-3.94 1.74Zm0-1.42c1.16 0 2.05-.38 2.68-1.14.62-.77.94-1.8.94-3.1v-3.12a4.7 4.7 0 0 0-.94-3.08 3.25 3.25 0 0 0-2.68-1.16c-1.16 0-2.06.39-2.68 1.16a4.7 4.7 0 0 0-.94 3.08v3.12c0 1.3.31 2.33.94 3.1a3.28 3.28 0 0 0 2.68 1.14Zm8.03-12.78h4.38c1.62 0 2.86.56 3.74 1.68.88 1.1 1.32 2.87 1.32 5.3 0 2.43-.44 4.2-1.32 5.32a4.5 4.5 0 0 1-3.74 1.66h-4.38v-13.96Zm4.38 12.56c1 0 1.8-.35 2.42-1.04.62-.7.92-1.69.92-2.98v-3.12c0-1.3-.3-2.29-.92-2.98a3.08 3.08 0 0 0-2.42-1.04h-2.78v11.16h2.78Zm13.6 1.4h-1.6v-13.96h5.15c2.3 0 3.46 1.33 3.46 3.98 0 2.24-.83 3.53-2.48 3.88l2.82 6.1h-1.8l-2.62-6h-2.92v6Zm3.5-7.36c1.2 0 1.79-.64 1.79-1.92v-1.36c0-1.28-.6-1.92-1.78-1.92h-3.5v5.2h3.5Zm6.47 7.36v-13.96h7.72v1.4h-6.12v4.8h5.74v1.4h-5.74v4.96h6.12v1.4h-7.72Zm10.53 0v-13.96h1.6v12.56h5.3v1.4h-6.9Zm9.06 0v-13.96h7.72v1.4h-6.12v4.8h5.74v1.4h-5.74v4.96h6.12v1.4h-7.72Zm18.39 0-1.24-4.18h-5.02l-1.24 4.18h-1.6l4.36-13.96h2L418.5 571h-1.64Zm-3.22-10.8-.44-1.74h-.2l-.44 1.74-1.58 5.3h4.28l-1.62-5.3Zm10.5 11.04c-1 0-1.87-.2-2.62-.62a5.45 5.45 0 0 1-1.86-1.76l1.16-.96c.43.63.9 1.11 1.44 1.46.53.33 1.16.5 1.88.5 1.9 0 2.84-.89 2.84-2.66 0-.72-.17-1.27-.52-1.64a3.65 3.65 0 0 0-1.8-.88l-1.04-.26a5.77 5.77 0 0 1-2.72-1.34 3.5 3.5 0 0 1-.86-2.52c0-1.24.39-2.17 1.16-2.8.77-.64 1.8-.96 3.08-.96a5 5 0 0 1 2.44.54c.67.36 1.25.93 1.74 1.7l-1.18.84a3.87 3.87 0 0 0-1.24-1.26 3.32 3.32 0 0 0-1.82-.44c-.85 0-1.5.19-1.96.56-.44.37-.66.98-.66 1.82 0 .68.18 1.2.54 1.54a4 4 0 0 0 1.78.82l1.04.26a8 8 0 0 1 1.66.58c.45.21.82.48 1.1.8.3.32.5.7.62 1.14.13.43.2.93.2 1.5 0 1.32-.4 2.33-1.18 3.02a4.71 4.71 0 0 1-3.22 1.02Zm6.95-.24v-13.96h7.72v1.4h-6.12v4.8h5.74v1.4h-5.74v4.96h6.12v1.4h-7.72Zm14.76 0v-13.96h7.54v1.4h-5.94v4.8h5.4v1.4h-5.4V571h-1.6Zm11.52 0c-.55 0-.95-.12-1.2-.36-.24-.25-.36-.65-.36-1.2V556.2h1.52v13.46h1.3V571h-1.26Zm6.9.24c-.6 0-1.16-.1-1.68-.3-.52-.2-.96-.52-1.34-.96-.37-.44-.66-1-.88-1.68a8.3 8.3 0 0 1-.32-2.46c0-.96.1-1.78.32-2.46.22-.68.5-1.24.88-1.68.38-.44.82-.76 1.34-.96.52-.2 1.08-.3 1.68-.3.6 0 1.16.1 1.68.3.52.2.97.52 1.34.96.38.44.67 1 .88 1.68.22.68.32 1.5.32 2.46s-.1 1.78-.32 2.46c-.21.68-.5 1.24-.88 1.68-.37.44-.82.76-1.34.96-.52.2-1.08.3-1.68.3Zm0-1.36c.83 0 1.46-.25 1.9-.74.46-.5.68-1.25.68-2.26v-2.08c0-1.01-.22-1.77-.68-2.26-.44-.5-1.07-.74-1.9-.74a2.5 2.5 0 0 0-1.92.74c-.44.5-.66 1.25-.66 2.26v2.08c0 1.01.22 1.77.66 2.26.46.5 1.1.74 1.92.74Zm5.48-9.2h1.48l1 4.48.88 4.5h.2l1.02-4.5 1.04-4.48h1.76l1.04 4.48 1.02 4.5h.2l.88-4.5 1-4.48h1.44L480.24 571h-1.92l-1.26-5-.7-3.78h-.2l-.74 3.78-1.26 5h-1.92l-2.48-10.32Zm19.8 10.56c-1.69 0-3-.58-3.93-1.74-.94-1.16-1.4-2.99-1.4-5.48 0-2.5.46-4.32 1.4-5.48a4.77 4.77 0 0 1 3.94-1.74c1.7 0 3 .58 3.94 1.74.93 1.16 1.4 2.99 1.4 5.48 0 2.5-.47 4.32-1.4 5.48a4.77 4.77 0 0 1-3.94 1.74Zm0-1.42c1.17 0 2.06-.38 2.69-1.14.62-.77.94-1.8.94-3.1v-3.12a4.7 4.7 0 0 0-.94-3.08 3.25 3.25 0 0 0-2.68-1.16c-1.16 0-2.06.39-2.68 1.16a4.7 4.7 0 0 0-.94 3.08v3.12c0 1.3.31 2.33.94 3.1a3.28 3.28 0 0 0 2.68 1.14Zm7.9 1.18v-10.32h1.52v1.92h.2c.18-.6.47-1.07.88-1.4.43-.35.98-.52 1.66-.52h.56v1.54h-1c-.72 0-1.28.16-1.7.48-.4.32-.6.8-.6 1.44V571h-1.52Zm10 .24a3.8 3.8 0 0 1-3.02-1.26c-.72-.84-1.08-2.22-1.08-4.14 0-1.92.36-3.3 1.08-4.14a3.8 3.8 0 0 1 3.02-1.26 3.64 3.64 0 0 1 3.6 2.38l-1.26.64a2.4 2.4 0 0 0-.82-1.22 2.4 2.4 0 0 0-1.52-.44c-.84 0-1.46.25-1.86.74-.4.5-.6 1.25-.6 2.26v2.08c0 1.01.2 1.77.6 2.26.4.5 1.02.74 1.86.74.67 0 1.2-.15 1.6-.44.42-.3.74-.74.98-1.34l1.12.78a3.76 3.76 0 0 1-3.7 2.36Zm5.69-15.04h1.51v6.16h.2c.2-.64.51-1.12.92-1.44.43-.32 1-.48 1.73-.48.91 0 1.63.31 2.15.94.54.63.8 1.6.8 2.9V571h-1.51v-6.62c0-.83-.18-1.46-.53-1.9-.33-.44-.85-.66-1.55-.66-.62 0-1.14.19-1.57.56a2 2 0 0 0-.63 1.58V571h-1.52v-14.8Zm13.77 15.04c-.6 0-1.16-.1-1.68-.3-.52-.2-.97-.52-1.34-.96-.37-.44-.67-1-.88-1.68a8.3 8.3 0 0 1-.32-2.46c0-.96.1-1.78.32-2.46.21-.68.5-1.24.88-1.68.37-.44.82-.76 1.34-.96a4.64 4.64 0 0 1 3.32 0c.5.2.93.52 1.28.96.35.44.61 1 .8 1.68.2.68.3 1.5.3 2.46v.38h-6.62v.66c0 1.01.23 1.77.68 2.28.47.5 1.1.74 1.92.74.7 0 1.26-.15 1.7-.44.44-.3.79-.76 1.04-1.36l1.04.76a3.94 3.94 0 0 1-3.78 2.38Zm0-9.52a2.4 2.4 0 0 0-1.92.78c-.45.52-.68 1.29-.68 2.3v.26h5v-.26c0-2.05-.8-3.08-2.4-3.08Zm9.24 9.52a4.4 4.4 0 0 1-2.2-.52 4.8 4.8 0 0 1-1.54-1.44l1.06-.88c.36.5.75.9 1.16 1.16.43.27.94.4 1.52.4.6 0 1.08-.15 1.42-.44.36-.3.54-.74.54-1.3 0-.45-.11-.82-.34-1.1-.23-.28-.64-.47-1.26-.58l-.78-.14a4.6 4.6 0 0 1-2.24-.94c-.48-.44-.72-1.1-.72-2 0-.52.08-.97.24-1.34.16-.39.39-.7.68-.94.3-.25.64-.43 1.04-.54a4.8 4.8 0 0 1 1.34-.18 3.86 3.86 0 0 1 3.32 1.6l-.98.9a3.2 3.2 0 0 0-.9-.84 2.51 2.51 0 0 0-1.44-.38c-1.21 0-1.82.55-1.82 1.66 0 .5.13.88.38 1.12.27.23.7.4 1.28.5l.78.14c1.05.19 1.8.51 2.24.98.44.47.66 1.1.66 1.9 0 1-.3 1.79-.88 2.36-.57.56-1.43.84-2.56.84Zm7.97-.24c-.54 0-.95-.12-1.2-.36-.24-.25-.36-.65-.36-1.2v-7.42h-1.52v-1.34h.9c.3 0 .5-.07.6-.22.1-.16.16-.4.16-.7v-1.92h1.38v2.84h2v1.34h-2v7.64h1.9V571h-1.86Zm4.29 0v-10.32h1.52v1.92h.2c.17-.6.47-1.07.88-1.4.43-.35.98-.52 1.66-.52h.56v1.54h-1a2.7 2.7 0 0 0-1.7.48c-.4.32-.6.8-.6 1.44V571h-1.52Zm13.02 0c-.98 0-1.48-.5-1.48-1.48v-.2h-.2c-.17.63-.5 1.1-.96 1.44-.45.32-1 .48-1.64.48-1 0-1.74-.25-2.24-.76-.5-.5-.74-1.25-.74-2.24 0-.96.32-1.72.94-2.28.64-.56 1.64-.84 2.98-.84h1.86v-1.14c0-.76-.17-1.32-.52-1.68-.33-.36-.86-.54-1.6-.54-.6 0-1.08.13-1.46.4-.36.25-.67.63-.94 1.12l-.9-.84a3.7 3.7 0 0 1 3.36-1.98c1.18 0 2.06.29 2.66.86.62.56.92 1.4.92 2.5v5.84h1.04V571h-1.08Zm-3.9-1.08c.35 0 .67-.06.96-.18a2.22 2.22 0 0 0 1.28-1.12c.12-.25.18-.51.18-.78v-1.56h-1.9c-.8 0-1.38.13-1.76.4-.36.27-.54.65-.54 1.16v.56c0 .52.16.9.48 1.16.32.24.76.36 1.3.36Zm9.11 1.08c-.55 0-.95-.12-1.2-.36-.24-.25-.36-.65-.36-1.2v-7.42h-1.52v-1.34h.9c.3 0 .5-.07.6-.22.1-.16.16-.4.16-.7v-1.92h1.38v2.84h2v1.34h-2v7.64h1.9V571h-1.86Zm7.73.24c-.6 0-1.16-.1-1.68-.3-.52-.2-.97-.52-1.34-.96-.37-.44-.67-1-.88-1.68a8.3 8.3 0 0 1-.32-2.46c0-.96.1-1.78.32-2.46.21-.68.5-1.24.88-1.68.37-.44.82-.76 1.34-.96.52-.2 1.08-.3 1.68-.3.6 0 1.16.1 1.68.3.52.2.97.52 1.34.96.37.44.67 1 .88 1.68.21.68.32 1.5.32 2.46s-.1 1.78-.32 2.46c-.21.68-.5 1.24-.88 1.68-.37.44-.82.76-1.34.96-.52.2-1.08.3-1.68.3Zm0-1.36c.83 0 1.46-.25 1.9-.74.45-.5.68-1.25.68-2.26v-2.08c0-1.01-.23-1.77-.68-2.26-.44-.5-1.07-.74-1.9-.74-.83 0-1.47.25-1.92.74-.44.5-.66 1.25-.66 2.26v2.08c0 1.01.22 1.77.66 2.26.45.5 1.1.74 1.92.74Zm6.56 1.12v-10.32h1.52v1.92h.2c.17-.6.47-1.07.88-1.4.43-.35.98-.52 1.66-.52h.56v1.54h-1a2.7 2.7 0 0 0-1.7.48c-.4.32-.6.8-.6 1.44V571h-1.52Zm6.1-2.12c.78 0 1.18.34 1.18 1.02v.32a5.75 5.75 0 0 1-1.72 3.42h-1.25c.37-.43.66-.83.88-1.2.23-.36.4-.77.5-1.24-.51-.12-.77-.45-.77-.98v-.32c0-.68.39-1.02 1.17-1.02Zm12.81 2.36c-.78 0-1.49-.14-2.12-.42a4.21 4.21 0 0 1-1.6-1.32 6.69 6.69 0 0 1-1-2.24c-.22-.92-.34-2-.34-3.24 0-1.24.12-2.31.34-3.22.24-.92.58-1.67 1-2.26.44-.59.98-1.02 1.6-1.3.63-.3 1.34-.44 2.12-.44 1.15 0 2.07.25 2.76.74a4.7 4.7 0 0 1 1.64 2.22l-1.28.78a3.6 3.6 0 0 0-1.1-1.72c-.46-.4-1.14-.6-2.02-.6-1.06 0-1.89.39-2.48 1.16a5 5 0 0 0-.86 3.08v3.12c0 1.3.3 2.33.86 3.1a2.95 2.95 0 0 0 2.48 1.14c.91 0 1.61-.2 2.1-.62.5-.43.87-1.04 1.12-1.84l1.28.8a5.1 5.1 0 0 1-1.7 2.3c-.72.52-1.65.78-2.8.78Zm10.33 0c-1 0-1.87-.2-2.61-.62a5.45 5.45 0 0 1-1.87-1.76l1.16-.96c.43.63.91 1.11 1.44 1.46.54.33 1.17.5 1.88.5 1.9 0 2.85-.89 2.85-2.66 0-.72-.18-1.27-.52-1.64a3.65 3.65 0 0 0-1.8-.88l-1.05-.26a5.77 5.77 0 0 1-2.71-1.34 3.5 3.5 0 0 1-.87-2.52c0-1.24.4-2.17 1.16-2.8a4.7 4.7 0 0 1 3.09-.96 5 5 0 0 1 2.43.54 4.8 4.8 0 0 1 1.75 1.7l-1.18.84a3.86 3.86 0 0 0-1.25-1.26 3.31 3.31 0 0 0-1.82-.44c-.85 0-1.5.19-1.96.56-.43.37-.65.98-.65 1.82 0 .68.18 1.2.53 1.54.38.35.97.62 1.79.82l1.03.26a7.6 7.6 0 0 1 1.66.58 3.1 3.1 0 0 1 1.73 1.94c.13.43.2.93.2 1.5 0 1.32-.4 2.33-1.19 3.02a4.71 4.71 0 0 1-3.22 1.02Zm8.55-.24h-1.6v-13.96h5.14c2.3 0 3.46 1.33 3.46 3.98 0 2.24-.82 3.53-2.48 3.88l2.82 6.1h-1.8l-2.62-6h-2.92v6Zm3.5-7.36c1.19 0 1.78-.64 1.78-1.92v-1.36c0-1.28-.6-1.92-1.78-1.92h-3.5v5.2h3.5Zm7.19 5.24c.78 0 1.18.34 1.18 1.02v.32c0 .52-.16 1.1-.48 1.72-.3.64-.72 1.2-1.24 1.7h-1.24c.36-.43.65-.83.88-1.2.22-.36.4-.77.5-1.24-.52-.12-.78-.45-.78-.98v-.32c0-.68.4-1.02 1.18-1.02Zm16.24 2.12-1.24-4.18h-5.02l-1.24 4.18h-1.6l4.36-13.96h2L647.3 571h-1.64Zm-3.22-10.8-.44-1.74h-.2l-.44 1.74-1.58 5.3h4.28l-1.62-5.3Zm6.34 10.8v-1.32h1.76v-11.32h-1.76v-1.32h5.12v1.32h-1.76v11.32h1.76V571h-5.12Zm21.82-9.58.14-2.4h-.2l-1.04 2.4-3 6.16-3-6.16-1.04-2.36h-.2l.14 2.36V571h-1.56v-13.96h2.12l2.52 5.42.94 2.58h.16l.94-2.58 2.52-5.42h2.12V571h-1.56v-9.58Zm8.25 9.82c-.6 0-1.16-.1-1.68-.3-.52-.2-.96-.52-1.34-.96-.37-.44-.66-1-.88-1.68a8.26 8.26 0 0 1-.32-2.46c0-.96.1-1.78.32-2.46.22-.68.5-1.24.88-1.68.38-.44.82-.76 1.34-.96.52-.2 1.08-.3 1.68-.3.6 0 1.16.1 1.68.3.52.2.97.52 1.34.96.38.44.67 1 .88 1.68.22.68.32 1.5.32 2.46s-.1 1.78-.32 2.46c-.21.68-.5 1.24-.88 1.68-.37.44-.82.76-1.34.96-.52.2-1.08.3-1.68.3Zm0-1.36c.83 0 1.46-.25 1.9-.74.46-.5.68-1.25.68-2.26v-2.08c0-1.01-.22-1.77-.68-2.26-.44-.5-1.07-.74-1.9-.74a2.5 2.5 0 0 0-1.92.74c-.44.5-.66 1.25-.66 2.26v2.08c0 1.01.22 1.77.66 2.26.46.5 1.1.74 1.92.74Zm12.48-.56h-.2c-.2.68-.53 1.17-.98 1.48-.44.3-.98.44-1.62.44a3.4 3.4 0 0 1-1.62-.38 3.36 3.36 0 0 1-1.18-1.08 5.07 5.07 0 0 1-.72-1.7 9.62 9.62 0 0 1-.24-2.24c0-.83.08-1.57.24-2.24.16-.67.4-1.23.72-1.7a3.28 3.28 0 0 1 4.42-1c.45.3.78.78.98 1.46h.2v-6.16h1.52V571h-1.52v-1.68Zm-2.34.56c.32 0 .62-.05.9-.14a2.08 2.08 0 0 0 1.24-1.02c.13-.24.2-.5.2-.8v-4.16a1.87 1.87 0 0 0-.7-1.42 2.65 2.65 0 0 0-1.64-.54c-.84 0-1.48.27-1.92.8a3.3 3.3 0 0 0-.66 2.2v2.08c0 .95.22 1.69.66 2.22.44.52 1.08.78 1.92.78Zm10.43 1.36c-.6 0-1.16-.1-1.68-.3-.52-.2-.97-.52-1.34-.96-.37-.44-.67-1-.88-1.68a8.3 8.3 0 0 1-.32-2.46c0-.96.1-1.78.32-2.46.21-.68.5-1.24.88-1.68.37-.44.82-.76 1.34-.96a4.64 4.64 0 0 1 3.32 0c.5.2.93.52 1.28.96.35.44.61 1 .8 1.68.2.68.3 1.5.3 2.46v.38h-6.62v.66c0 1.01.23 1.77.68 2.28.47.5 1.1.74 1.92.74.7 0 1.26-.15 1.7-.44.44-.3.79-.76 1.04-1.36l1.04.76a3.94 3.94 0 0 1-3.78 2.38Zm0-9.52a2.4 2.4 0 0 0-1.92.78c-.45.52-.68 1.29-.68 2.3v.26h5v-.26c0-2.05-.8-3.08-2.4-3.08Zm7.94 9.28c-.54 0-.95-.12-1.2-.36-.24-.25-.36-.65-.36-1.2V556.2h1.52v13.46h1.3V571h-1.26Zm6.24.24a4.4 4.4 0 0 1-2.2-.52 4.79 4.79 0 0 1-1.54-1.44l1.06-.88c.36.5.75.9 1.16 1.16.43.27.94.4 1.52.4.6 0 1.08-.15 1.42-.44.36-.3.54-.74.54-1.3 0-.45-.11-.82-.34-1.1-.22-.28-.64-.47-1.26-.58l-.78-.14a4.6 4.6 0 0 1-2.24-.94c-.48-.44-.72-1.1-.72-2 0-.52.08-.97.24-1.34.16-.39.39-.7.68-.94.3-.25.64-.43 1.04-.54.42-.12.86-.18 1.34-.18a3.88 3.88 0 0 1 3.32 1.6l-.98.9c-.22-.32-.52-.6-.9-.84a2.52 2.52 0 0 0-1.44-.38c-1.21 0-1.82.55-1.82 1.66 0 .5.13.88.38 1.12.27.23.7.4 1.28.5l.78.14c1.06.19 1.8.51 2.24.98.44.47.66 1.1.66 1.9 0 1-.3 1.79-.88 2.36-.57.56-1.42.84-2.56.84Zm6.77-2.36c.8 0 1.18.34 1.18 1.02v.32c0 .52-.15 1.1-.47 1.72-.31.64-.73 1.2-1.25 1.7h-1.24c.37-.43.66-.83.88-1.2.23-.36.4-.77.5-1.24-.51-.12-.77-.45-.77-.98v-.32c0-.68.39-1.02 1.17-1.02Zm-328.96 17.56V599h-1.6v-12.56h-3.94v-1.4h9.48v1.4h-3.94ZM402.5 599c-.99 0-1.48-.5-1.48-1.48v-.2h-.2a2.6 2.6 0 0 1-.96 1.44c-.46.32-1 .48-1.64.48-1 0-1.75-.25-2.24-.76-.5-.5-.74-1.25-.74-2.24 0-.96.31-1.72.94-2.28.64-.56 1.63-.84 2.98-.84h1.86v-1.14c0-.76-.18-1.32-.52-1.68-.34-.36-.87-.54-1.6-.54-.6 0-1.09.13-1.46.4-.36.25-.68.63-.94 1.12l-.9-.84a3.7 3.7 0 0 1 3.36-1.98c1.17 0 2.06.29 2.66.86.61.56.92 1.4.92 2.5v5.84h1.04V599h-1.08Zm-3.9-1.08a2.72 2.72 0 0 0 1.74-.64c.21-.2.38-.42.5-.66.12-.25.18-.51.18-.78v-1.56h-1.9c-.8 0-1.39.13-1.76.4-.36.27-.54.65-.54 1.16v.56c0 .52.16.9.48 1.16.32.24.75.36 1.3.36Zm9.9 1.32a4.4 4.4 0 0 1-2.2-.52 4.8 4.8 0 0 1-1.54-1.44l1.06-.88c.37.5.75.9 1.17 1.16.42.27.93.4 1.51.4.6 0 1.08-.15 1.43-.44.36-.3.53-.74.53-1.3 0-.45-.1-.82-.33-1.1-.23-.28-.65-.47-1.26-.58l-.79-.14a4.6 4.6 0 0 1-2.23-.94c-.49-.44-.73-1.1-.73-2 0-.52.08-.97.25-1.34.15-.39.38-.7.68-.94a2.6 2.6 0 0 1 1.03-.54 4.9 4.9 0 0 1 1.35-.18 3.88 3.88 0 0 1 3.32 1.6l-.99.9c-.22-.32-.52-.6-.9-.84a2.51 2.51 0 0 0-1.44-.38c-1.2 0-1.81.55-1.81 1.66 0 .5.12.88.38 1.12.26.23.69.4 1.27.5l.79.14c1.05.19 1.8.51 2.24.98.44.47.65 1.1.65 1.9 0 1-.29 1.79-.88 2.36-.57.56-1.42.84-2.56.84Zm5.93-15.04h1.52v7.6l-.12 2.02h.16l1.44-1.94 2.58-3.2h1.84l-3.42 4.1 3.72 6.22h-1.82l-3.02-5.32-1.36 1.6V599h-1.52v-14.8Zm11.1 14.8c-.55 0-.95-.12-1.2-.36-.25-.25-.37-.65-.37-1.2V584.2h1.53v13.46h1.3V599h-1.27Zm4.14-12.82c-.63 0-.94-.27-.94-.82v-.32c0-.55.31-.82.94-.82.62 0 .94.27.94.82v.32c0 .55-.32.82-.94.82Zm-.76 2.5h1.52V599h-1.52v-10.32Zm7.4 10.56a4.4 4.4 0 0 1-2.2-.52 4.79 4.79 0 0 1-1.53-1.44l1.06-.88c.36.5.74.9 1.16 1.16.42.27.93.4 1.52.4.6 0 1.07-.15 1.42-.44.36-.3.54-.74.54-1.3 0-.45-.12-.82-.34-1.1-.23-.28-.65-.47-1.26-.58l-.78-.14a4.6 4.6 0 0 1-2.24-.94c-.48-.44-.72-1.1-.72-2 0-.52.08-.97.24-1.34.16-.39.38-.7.68-.94.3-.25.64-.43 1.04-.54.41-.12.86-.18 1.34-.18a3.88 3.88 0 0 1 3.32 1.6l-.98.9a3.3 3.3 0 0 0-.9-.84 2.52 2.52 0 0 0-1.44-.38c-1.22 0-1.82.55-1.82 1.66 0 .5.12.88.38 1.12.26.23.7.4 1.28.5l.78.14c1.05.19 1.8.51 2.24.98.44.47.66 1.1.66 1.9 0 1-.3 1.79-.88 2.36-.58.56-1.43.84-2.56.84Zm7.98-.24c-.55 0-.95-.12-1.2-.36-.24-.25-.36-.65-.36-1.2v-7.42h-1.52v-1.34h.9c.3 0 .5-.07.6-.22.1-.16.16-.4.16-.7v-1.92h1.38v2.84h2v1.34h-2v7.64h1.9V599h-1.86Zm15.04 0c-.98 0-1.48-.5-1.48-1.48v-.2h-.2a2.5 2.5 0 0 1-.96 1.44c-.45.32-1 .48-1.64.48-1 0-1.74-.25-2.24-.76-.49-.5-.74-1.25-.74-2.24 0-.96.32-1.72.94-2.28.64-.56 1.64-.84 2.98-.84h1.86v-1.14c0-.76-.17-1.32-.52-1.68-.33-.36-.86-.54-1.6-.54-.6 0-1.08.13-1.46.4-.36.25-.67.63-.94 1.12l-.9-.84a3.7 3.7 0 0 1 3.36-1.98c1.18 0 2.06.29 2.66.86.62.56.92 1.4.92 2.5v5.84h1.04V599h-1.08Zm-3.9-1.08c.35 0 .67-.06.96-.18a2.22 2.22 0 0 0 1.28-1.12c.12-.25.18-.51.18-.78v-1.56h-1.9c-.8 0-1.38.13-1.76.4-.36.27-.54.65-.54 1.16v.56c0 .52.16.9.48 1.16.32.24.76.36 1.3.36Zm7.05 1.08v-10.32H464v1.68h.2c.2-.64.5-1.12.92-1.44.43-.32 1-.48 1.72-.48.92 0 1.64.31 2.16.94.53.63.8 1.6.8 2.9V599h-1.52v-6.62c0-.83-.17-1.46-.52-1.9-.33-.44-.85-.66-1.56-.66-.61 0-1.13.19-1.56.56-.43.37-.64.9-.64 1.58V599h-1.52Zm16.17-1.68h-.2a2.6 2.6 0 0 1-.97 1.48c-.44.3-.99.44-1.63.44-.6 0-1.15-.13-1.62-.38a3.36 3.36 0 0 1-1.18-1.08 5.07 5.07 0 0 1-.72-1.7 9.62 9.62 0 0 1-.23-2.24c0-.83.07-1.57.23-2.24.17-.67.4-1.23.73-1.7.31-.47.7-.83 1.18-1.08.46-.25 1-.38 1.62-.38.63 0 1.18.15 1.62.46.45.3.77.78.97 1.46h.2v-6.16h1.53V599h-1.53v-1.68Zm-2.33.56c.31 0 .62-.05.9-.14a2.08 2.08 0 0 0 1.23-1.02c.14-.24.2-.5.2-.8v-4.16c0-.3-.06-.56-.2-.8a2.08 2.08 0 0 0-1.24-1.02c-.27-.1-.57-.14-.9-.14-.83 0-1.48.27-1.92.8a3.3 3.3 0 0 0-.65 2.2v2.08c0 .95.21 1.69.65 2.22.44.52 1.09.78 1.93.78Zm14.84 1.36c-1 0-1.87-.2-2.62-.62a5.46 5.46 0 0 1-1.86-1.76l1.16-.96c.43.63.9 1.11 1.44 1.46.54.33 1.16.5 1.88.5 1.9 0 2.84-.89 2.84-2.66 0-.72-.17-1.27-.52-1.64a3.64 3.64 0 0 0-1.8-.88l-1.04-.26a5.78 5.78 0 0 1-2.72-1.34 3.5 3.5 0 0 1-.86-2.52c0-1.24.39-2.17 1.16-2.8.77-.64 1.8-.96 3.08-.96a5 5 0 0 1 2.44.54 4.8 4.8 0 0 1 1.74 1.7l-1.18.84a3.86 3.86 0 0 0-1.24-1.26 3.31 3.31 0 0 0-1.82-.44c-.85 0-1.5.19-1.96.56-.44.37-.66.98-.66 1.82 0 .68.18 1.2.54 1.54.38.35.97.62 1.78.82l1.04.26a8 8 0 0 1 1.66.58c.46.21.82.48 1.1.8.3.32.5.7.62 1.14.13.43.2.93.2 1.5 0 1.32-.4 2.33-1.18 3.02a4.71 4.71 0 0 1-3.22 1.02Zm6.8-.24v-10.32h1.53v1.68h.2c.2-.64.5-1.12.92-1.44.43-.32 1-.48 1.72-.48.92 0 1.64.31 2.16.94.53.63.8 1.6.8 2.9V599h-1.52v-6.62c0-.83-.17-1.46-.52-1.9-.33-.44-.85-.66-1.56-.66-.61 0-1.13.19-1.56.56-.43.37-.64.9-.64 1.58V599h-1.52Zm11.02-12.82c-.62 0-.94-.27-.94-.82v-.32c0-.55.32-.82.94-.82.63 0 .94.27.94.82v.32c0 .55-.31.82-.94.82Zm-.76 2.5h1.52V599h-1.52v-10.32Zm4.55 0h1.52v1.68h.2c.2-.68.52-1.17.96-1.46.46-.3 1-.46 1.64-.46a3.28 3.28 0 0 1 2.8 1.46c.32.47.56 1.03.72 1.7.16.67.24 1.41.24 2.24 0 .83-.08 1.57-.24 2.24-.16.67-.4 1.23-.72 1.7a3.2 3.2 0 0 1-2.8 1.46 3 3 0 0 1-1.64-.44 2.6 2.6 0 0 1-.96-1.48h-.2V603h-1.52v-14.32Zm3.86 9.2c.84 0 1.48-.26 1.92-.78.44-.53.66-1.27.66-2.22v-2.08a3.3 3.3 0 0 0-.66-2.2c-.44-.53-1.08-.8-1.92-.8a2.63 2.63 0 0 0-1.66.54 1.74 1.74 0 0 0-.68 1.42v4.16a1.76 1.76 0 0 0 .68 1.42 2.63 2.63 0 0 0 1.66.54Zm6.63-9.2h1.52v1.68h.2c.2-.68.52-1.17.96-1.46.46-.3 1-.46 1.64-.46a3.28 3.28 0 0 1 2.8 1.46c.32.47.56 1.03.72 1.7.16.67.24 1.41.24 2.24 0 .83-.08 1.57-.24 2.24-.16.67-.4 1.23-.72 1.7a3.28 3.28 0 0 1-2.8 1.46 3 3 0 0 1-1.64-.44 2.6 2.6 0 0 1-.96-1.48h-.2V603h-1.52v-14.32Zm3.86 9.2c.84 0 1.48-.26 1.92-.78.44-.53.66-1.27.66-2.22v-2.08a3.3 3.3 0 0 0-.66-2.2c-.44-.53-1.08-.8-1.92-.8a2.63 2.63 0 0 0-1.66.54 1.74 1.74 0 0 0-.68 1.42v4.16a1.76 1.76 0 0 0 .68 1.42 2.63 2.63 0 0 0 1.66.54Zm10.15 1.36c-.6 0-1.16-.1-1.68-.3-.52-.2-.97-.52-1.34-.96-.37-.44-.67-1-.88-1.68a8.3 8.3 0 0 1-.32-2.46c0-.96.1-1.78.32-2.46.21-.68.5-1.24.88-1.68.37-.44.82-.76 1.34-.96a4.64 4.64 0 0 1 3.32 0c.5.2.93.52 1.28.96.35.44.61 1 .8 1.68.2.68.3 1.5.3 2.46v.38h-6.62v.66c0 1.01.23 1.77.68 2.28.47.5 1.1.74 1.92.74a3 3 0 0 0 1.7-.44c.44-.3.79-.76 1.04-1.36l1.04.76a3.94 3.94 0 0 1-3.78 2.38Zm0-9.52a2.4 2.4 0 0 0-1.92.78c-.45.52-.68 1.29-.68 2.3v.26h5v-.26c0-2.05-.8-3.08-2.4-3.08Zm8.46 9.28c-.54 0-.94-.12-1.2-.36-.24-.25-.36-.65-.36-1.2v-7.42h-1.52v-1.34h.9c.3 0 .5-.07.6-.22.1-.16.16-.4.16-.7v-1.92h1.38v2.84h2v1.34h-2v7.64h1.9V599h-1.86Zm7.15.24a4.4 4.4 0 0 1-2.2-.52 4.8 4.8 0 0 1-1.54-1.44l1.06-.88c.36.5.75.9 1.16 1.16.43.27.93.4 1.52.4.6 0 1.07-.15 1.42-.44.36-.3.54-.74.54-1.3 0-.45-.11-.82-.34-1.1-.23-.28-.65-.47-1.26-.58l-.78-.14a4.6 4.6 0 0 1-2.24-.94c-.48-.44-.72-1.1-.72-2 0-.52.08-.97.24-1.34.16-.39.39-.7.68-.94.3-.25.64-.43 1.04-.54.41-.12.86-.18 1.34-.18a3.88 3.88 0 0 1 3.32 1.6l-.98.9a3.3 3.3 0 0 0-.9-.84 2.51 2.51 0 0 0-1.44-.38c-1.21 0-1.82.55-1.82 1.66 0 .5.13.88.38 1.12.27.23.7.4 1.28.5l.78.14c1.05.19 1.8.51 2.24.98.44.47.66 1.1.66 1.9 0 1-.3 1.79-.88 2.36-.57.56-1.43.84-2.56.84Zm14.75 0c-.79 0-1.5-.14-2.12-.42a4.22 4.22 0 0 1-1.6-1.32 6.7 6.7 0 0 1-1-2.24c-.23-.92-.34-2-.34-3.24 0-1.24.11-2.31.34-3.22a6.7 6.7 0 0 1 1-2.26 4 4 0 0 1 1.6-1.3c.62-.3 1.33-.44 2.12-.44 1.14 0 2.06.25 2.76.74a4.7 4.7 0 0 1 1.64 2.22l-1.28.78a3.6 3.6 0 0 0-1.1-1.72c-.47-.4-1.14-.6-2.02-.6-1.07 0-1.9.39-2.48 1.16a5 5 0 0 0-.86 3.08v3.12c0 1.3.28 2.33.86 3.1a2.95 2.95 0 0 0 2.48 1.14c.9 0 1.6-.2 2.1-.62.5-.43.86-1.04 1.12-1.84l1.28.8a5.1 5.1 0 0 1-1.7 2.3c-.72.52-1.66.78-2.8.78Zm10.15 0c-.6 0-1.16-.1-1.68-.3-.52-.2-.97-.52-1.34-.96-.38-.44-.67-1-.88-1.68a8.3 8.3 0 0 1-.32-2.46c0-.96.1-1.78.32-2.46.21-.68.5-1.24.88-1.68.37-.44.82-.76 1.34-.96.52-.2 1.08-.3 1.68-.3.6 0 1.16.1 1.68.3.52.2.96.52 1.34.96.37.44.67 1 .88 1.68.21.68.32 1.5.32 2.46s-.1 1.78-.32 2.46c-.21.68-.5 1.24-.88 1.68-.38.44-.82.76-1.34.96-.52.2-1.08.3-1.68.3Zm0-1.36c.83 0 1.46-.25 1.9-.74.45-.5.68-1.25.68-2.26v-2.08c0-1.01-.23-1.77-.68-2.26-.44-.5-1.07-.74-1.9-.74-.83 0-1.47.25-1.92.74-.44.5-.66 1.25-.66 2.26v2.08c0 1.01.22 1.77.66 2.26.45.5 1.1.74 1.92.74Zm8.12 1.12c-.55 0-.95-.12-1.2-.36-.24-.25-.36-.65-.36-1.2V584.2h1.52v13.46h1.3V599h-1.26Zm4.76 0c-.54 0-.94-.12-1.2-.36-.24-.25-.36-.65-.36-1.2V584.2h1.52v13.46h1.3V599h-1.26Zm6.9.24c-.6 0-1.16-.1-1.68-.3-.52-.2-.96-.52-1.34-.96-.37-.44-.66-1-.88-1.68a8.3 8.3 0 0 1-.32-2.46c0-.96.11-1.78.32-2.46.22-.68.51-1.24.88-1.68.38-.44.82-.76 1.34-.96a4.64 4.64 0 0 1 3.32 0c.51.2.94.52 1.28.96.35.44.62 1 .8 1.68.2.68.3 1.5.3 2.46v.38h-6.62v.66c0 1.01.23 1.77.68 2.28.47.5 1.11.74 1.92.74a3 3 0 0 0 1.7-.44c.44-.3.79-.76 1.04-1.36l1.04.76a3.95 3.95 0 0 1-3.78 2.38Zm0-9.52c-.82 0-1.46.26-1.92.78-.45.52-.68 1.29-.68 2.3v.26h5v-.26c0-2.05-.8-3.08-2.4-3.08Zm9.79 9.52a3.8 3.8 0 0 1-3.02-1.26c-.72-.84-1.08-2.22-1.08-4.14 0-1.92.36-3.3 1.08-4.14a3.8 3.8 0 0 1 3.02-1.26 3.64 3.64 0 0 1 3.6 2.38l-1.26.64a2.4 2.4 0 0 0-.82-1.22 2.4 2.4 0 0 0-1.52-.44c-.84 0-1.46.25-1.86.74-.4.5-.6 1.25-.6 2.26v2.08c0 1.01.2 1.77.6 2.26.4.5 1.02.74 1.86.74.66 0 1.2-.15 1.6-.44.4-.3.74-.74.98-1.34l1.12.78a3.9 3.9 0 0 1-1.4 1.72c-.62.43-1.38.64-2.3.64Zm7.76-.24c-.55 0-.95-.12-1.2-.36-.24-.25-.36-.65-.36-1.2v-7.42h-1.52v-1.34h.9c.3 0 .5-.07.6-.22.1-.16.16-.4.16-.7v-1.92h1.38v2.84h2v1.34h-2v7.64h1.9V599h-1.86Zm5.04-12.82c-.62 0-.93-.27-.93-.82v-.32c0-.55.3-.82.93-.82.63 0 .95.27.95.82v.32c0 .55-.32.82-.95.82Zm-.75 2.5h1.51V599h-1.51v-10.32Zm8.07 10.56c-.6 0-1.16-.1-1.68-.3-.52-.2-.97-.52-1.34-.96-.38-.44-.67-1-.88-1.68a8.26 8.26 0 0 1-.32-2.46c0-.96.1-1.78.32-2.46.2-.68.5-1.24.88-1.68.37-.44.82-.76 1.34-.96.52-.2 1.08-.3 1.68-.3.6 0 1.16.1 1.68.3.52.2.96.52 1.34.96.37.44.66 1 .88 1.68.2.68.32 1.5.32 2.46s-.11 1.78-.32 2.46a4.94 4.94 0 0 1-.88 1.68c-.38.44-.82.76-1.34.96-.52.2-1.08.3-1.68.3Zm0-1.36c.82 0 1.46-.25 1.9-.74.45-.5.68-1.25.68-2.26v-2.08c0-1.01-.23-1.77-.68-2.26-.44-.5-1.08-.74-1.9-.74-.83 0-1.47.25-1.92.74-.44.5-.66 1.25-.66 2.26v2.08c0 1.01.22 1.77.66 2.26.45.5 1.09.74 1.92.74Zm6.55 1.12v-10.32h1.52v1.68h.2c.2-.64.51-1.12.92-1.44.43-.32 1-.48 1.72-.48.92 0 1.64.31 2.16.94.54.63.8 1.6.8 2.9V599h-1.52v-6.62c0-.83-.17-1.46-.52-1.9-.33-.44-.85-.66-1.56-.66-.6 0-1.13.19-1.56.56a2 2 0 0 0-.64 1.58V599h-1.52Zm13.12.24a4.4 4.4 0 0 1-2.2-.52 4.79 4.79 0 0 1-1.54-1.44l1.06-.88c.36.5.74.9 1.16 1.16.42.27.93.4 1.52.4.6 0 1.07-.15 1.42-.44.36-.3.54-.74.54-1.3 0-.45-.12-.82-.34-1.1-.23-.28-.65-.47-1.26-.58l-.78-.14a4.6 4.6 0 0 1-2.24-.94c-.48-.44-.72-1.1-.72-2 0-.52.08-.97.24-1.34.16-.39.38-.7.68-.94.3-.25.64-.43 1.04-.54.41-.12.86-.18 1.34-.18a3.88 3.88 0 0 1 3.32 1.6l-.98.9a3.3 3.3 0 0 0-.9-.84 2.52 2.52 0 0 0-1.44-.38c-1.22 0-1.82.55-1.82 1.66 0 .5.12.88.38 1.12.26.23.7.4 1.28.5l.78.14c1.05.19 1.8.51 2.24.98.44.47.66 1.1.66 1.9 0 1-.3 1.79-.88 2.36-.58.56-1.43.84-2.56.84Z"/>
  <path fill="#0B0F14" d="M479.5 520a16 16 0 0 1 16-16h46a16 16 0 0 1 16 16v16h-78v-16Z"/>
  <path fill="#8D9EB0" d="M496.66 525v-9.77h3.6c1.62 0 2.42.93 2.42 2.78 0 1.86-.8 2.79-2.42 2.79h-2.48v4.2h-1.12Zm1.12-5.18h2.45c.83 0 1.25-.45 1.25-1.34v-.93c0-.9-.42-1.34-1.25-1.34h-2.45v3.61Zm6.45-5.18h1.07v4.31h.14c.14-.45.35-.78.64-1 .3-.23.7-.34 1.2-.34.65 0 1.15.22 1.52.66.37.44.56 1.11.56 2.03v4.7h-1.07v-4.63a2.1 2.1 0 0 0-.36-1.33c-.23-.31-.6-.47-1.1-.47-.42 0-.78.13-1.08.4-.3.26-.45.63-.45 1.1V525h-1.07v-10.36ZM515.98 525c-.7 0-1.04-.35-1.04-1.04v-.14h-.14c-.12.44-.35.78-.67 1.01-.32.23-.7.34-1.15.34-.7 0-1.22-.18-1.57-.53-.34-.36-.52-.88-.52-1.57 0-.67.22-1.2.66-1.6.45-.39 1.15-.59 2.09-.59h1.3v-.8c0-.53-.12-.92-.36-1.17-.24-.25-.61-.38-1.12-.38-.42 0-.76.1-1.03.28-.25.18-.47.44-.65.79l-.63-.6c.18-.38.48-.71.9-.97.4-.27.89-.4 1.45-.4.82 0 1.44.2 1.86.6.43.39.64.97.64 1.74v4.1h.73v.93h-.75Zm-2.73-.76a1.85 1.85 0 0 0 1.22-.45c.14-.13.26-.29.34-.46.09-.17.13-.36.13-.54v-1.1h-1.33c-.56 0-.97.1-1.23.29a.95.95 0 0 0-.38.8v.4c0 .36.11.64.34.81.22.17.52.25.9.25Zm6.93.93c-.6 0-1.1-.12-1.54-.37a3.36 3.36 0 0 1-1.08-1l.75-.62c.25.36.52.63.8.81.3.19.66.28 1.07.28.42 0 .75-.1 1-.3.25-.22.37-.52.37-.92 0-.31-.08-.57-.23-.77-.16-.2-.46-.33-.89-.4l-.54-.1a3.23 3.23 0 0 1-1.57-.66c-.34-.3-.5-.77-.5-1.4 0-.36.05-.68.16-.94a1.82 1.82 0 0 1 1.2-1.04c.3-.08.6-.12.94-.12a2.7 2.7 0 0 1 2.32 1.12l-.68.63a2.23 2.23 0 0 0-.63-.59c-.26-.17-.6-.26-1-.26-.85 0-1.28.38-1.28 1.16 0 .36.09.62.27.78.18.16.48.28.9.35l.54.1c.74.13 1.26.36 1.57.69.3.32.46.77.46 1.33 0 .7-.2 1.25-.62 1.65-.4.4-1 .59-1.79.59Zm6.62 0c-.42 0-.82-.07-1.18-.21a2.3 2.3 0 0 1-.94-.67c-.26-.31-.46-.7-.61-1.18a5.78 5.78 0 0 1-.23-1.72c0-.67.08-1.25.23-1.72.14-.48.35-.87.61-1.18.26-.3.58-.53.94-.67a3.25 3.25 0 0 1 2.32 0c.36.14.66.36.9.67.24.3.43.7.56 1.18.14.47.21 1.05.21 1.72v.26h-4.63v.47c0 .7.15 1.24.47 1.6.33.34.78.51 1.35.51.48 0 .88-.1 1.19-.3.3-.22.55-.54.72-.96l.73.53a2.77 2.77 0 0 1-2.65 1.67Zm0-6.67c-.58 0-1.03.19-1.35.55-.32.36-.47.9-.47 1.61v.18h3.5v-.18c0-1.44-.56-2.16-1.68-2.16Zm11.06 6.5v-1.92h-4.22v-1l3.64-6.85h1.64v6.91h1.26v.94h-1.26V525h-1.06Zm-3.2-2.86h3.2v-6.02h-.14l-3.06 6.02Z"/>
  <rect width="304" height="55" x="368.5" y="380.5" fill="#0B0F14" rx="15.5"/>
  <rect width="304" height="55" x="368.5" y="380.5" stroke="#46A6FF" rx="15.5"/>
  <path fill="#fff" d="M398.45 415.24c-1.7 0-3-.58-3.94-1.74-.93-1.16-1.4-2.99-1.4-5.48 0-2.5.47-4.32 1.4-5.48a4.77 4.77 0 0 1 3.94-1.74c1.7 0 3 .58 3.94 1.74.94 1.16 1.4 2.99 1.4 5.48 0 2.5-.46 4.32-1.4 5.48a4.77 4.77 0 0 1-3.94 1.74Zm0-1.42c1.16 0 2.06-.38 2.68-1.14.63-.77.94-1.8.94-3.1v-3.12a4.7 4.7 0 0 0-.94-3.08 3.25 3.25 0 0 0-2.68-1.16c-1.16 0-2.05.39-2.68 1.16a4.7 4.7 0 0 0-.94 3.08v3.12c0 1.3.32 2.33.94 3.1a3.28 3.28 0 0 0 2.68 1.14Zm7.9 1.18v-10.32h1.52v1.68h.2c.2-.64.5-1.12.92-1.44.42-.32 1-.48 1.72-.48.92 0 1.64.31 2.16.94.53.63.8 1.6.8 2.9V415h-1.52v-6.62c0-.83-.18-1.46-.52-1.9-.34-.44-.86-.66-1.56-.66-.62 0-1.14.19-1.56.56-.43.37-.64.9-.64 1.58V415h-1.52Zm10.25-14.8h1.52v6.16h.2c.2-.68.52-1.17.96-1.46a3.4 3.4 0 0 1 3.26-.08c.47.25.86.61 1.18 1.08.32.47.56 1.03.72 1.7.16.67.24 1.41.24 2.24 0 .83-.08 1.57-.24 2.24-.16.67-.4 1.23-.72 1.7a3.28 3.28 0 0 1-2.8 1.46c-.64 0-1.19-.15-1.64-.44a2.6 2.6 0 0 1-.96-1.48h-.2V415h-1.52v-14.8Zm3.86 13.68c.84 0 1.48-.26 1.92-.78.44-.53.66-1.27.66-2.22v-2.08a3.3 3.3 0 0 0-.66-2.2c-.44-.53-1.08-.8-1.92-.8a2.5 2.5 0 0 0-1.66.54 1.76 1.76 0 0 0-.68 1.42v4.16a1.76 1.76 0 0 0 .68 1.42 2.5 2.5 0 0 0 1.66.54Zm10.15 1.36c-.6 0-1.16-.1-1.68-.3-.52-.2-.97-.52-1.34-.96-.38-.44-.67-1-.88-1.68a8.3 8.3 0 0 1-.32-2.46c0-.96.1-1.78.32-2.46.21-.68.5-1.24.88-1.68.37-.44.82-.76 1.34-.96.52-.2 1.08-.3 1.68-.3.6 0 1.16.1 1.68.3.52.2.96.52 1.34.96.37.44.67 1 .88 1.68.21.68.32 1.5.32 2.46s-.1 1.78-.32 2.46c-.21.68-.5 1.24-.88 1.68-.38.44-.82.76-1.34.96-.52.2-1.08.3-1.68.3Zm0-1.36c.82 0 1.46-.25 1.9-.74.45-.5.68-1.25.68-2.26v-2.08c0-1.01-.23-1.77-.68-2.26-.44-.5-1.07-.74-1.9-.74-.83 0-1.47.25-1.92.74-.44.5-.66 1.25-.66 2.26v2.08c0 1.01.22 1.77.66 2.26.45.5 1.1.74 1.92.74Zm13.08 1.12c-.99 0-1.48-.5-1.48-1.48v-.2h-.2a2.6 2.6 0 0 1-.96 1.44c-.46.32-1 .48-1.64.48-1 0-1.75-.25-2.24-.76-.5-.5-.74-1.25-.74-2.24 0-.96.31-1.72.94-2.28.64-.56 1.63-.84 2.98-.84h1.86v-1.14c0-.76-.18-1.32-.52-1.68-.34-.36-.87-.54-1.6-.54-.6 0-1.09.13-1.46.4-.36.25-.68.63-.94 1.12l-.9-.84a3.7 3.7 0 0 1 3.36-1.98c1.17 0 2.06.29 2.66.86.61.56.92 1.4.92 2.5v5.84h1.04V415h-1.08Zm-3.9-1.08a2.72 2.72 0 0 0 1.74-.64c.21-.2.38-.42.5-.66.12-.25.18-.51.18-.78v-1.56h-1.9c-.8 0-1.39.13-1.76.4-.36.27-.54.65-.54 1.16v.56c0 .52.16.9.48 1.16.32.24.75.36 1.3.36Zm7.04 1.08v-10.32h1.52v1.92h.2c.18-.6.47-1.07.88-1.4.43-.35.98-.52 1.66-.52h.56v1.54h-1c-.72 0-1.28.16-1.7.48-.4.32-.6.8-.6 1.44V415h-1.52Zm12.53-1.68h-.2c-.2.68-.53 1.17-.98 1.48-.44.3-.98.44-1.62.44-.62 0-1.16-.13-1.62-.38a3.36 3.36 0 0 1-1.18-1.08 5.07 5.07 0 0 1-.72-1.7 9.62 9.62 0 0 1-.24-2.24c0-.83.08-1.57.24-2.24.16-.67.4-1.23.72-1.7a3.2 3.2 0 0 1 2.8-1.46c.64 0 1.18.15 1.62.46.45.3.78.78.98 1.46h.2v-6.16h1.52V415h-1.52v-1.68Zm-2.34.56c.32 0 .62-.05.9-.14a2.08 2.08 0 0 0 1.24-1.02c.13-.24.2-.5.2-.8v-4.16a1.87 1.87 0 0 0-.7-1.42 2.65 2.65 0 0 0-1.64-.54c-.84 0-1.48.27-1.92.8a3.3 3.3 0 0 0-.66 2.2v2.08c0 .95.22 1.69.66 2.22.44.52 1.08.78 1.92.78Zm7.66-11.7c-.62 0-.94-.27-.94-.82v-.32c0-.55.32-.82.94-.82.63 0 .94.27.94.82v.32c0 .55-.3.82-.94.82Zm-.76 2.5h1.52V415h-1.52v-10.32Zm4.56 10.32v-10.32h1.51v1.68h.2c.2-.64.51-1.12.93-1.44.42-.32 1-.48 1.71-.48.93 0 1.65.31 2.17.94.53.63.8 1.6.8 2.9V415h-1.53v-6.62c0-.83-.17-1.46-.51-1.9-.34-.44-.86-.66-1.56-.66-.62 0-1.14.19-1.56.56-.43.37-.64.9-.64 1.58V415h-1.52Zm18.13 1.16c0 1.1-.37 1.88-1.12 2.36-.73.48-1.87.72-3.42.72-1.48 0-2.54-.22-3.18-.66a2.18 2.18 0 0 1-.94-1.9c0-.56.14-1 .42-1.32.28-.32.64-.52 1.08-.6v-.28a1.87 1.87 0 0 1-.64-.56 1.58 1.58 0 0 1-.22-.84c0-.43.12-.8.36-1.1.25-.3.66-.5 1.22-.56v-.22a3 3 0 0 1-1.26-1.18c-.3-.53-.44-1.2-.44-2 0-1.17.32-2.06.96-2.66.64-.6 1.5-.9 2.58-.9.64 0 1.22.11 1.74.34v-.36c0-.39.09-.67.26-.84.17-.17.45-.26.84-.26h1.38v1.34h-1.78v.56c.35.3.61.69.8 1.14.2.45.3 1 .3 1.64 0 1.17-.32 2.06-.96 2.66-.64.6-1.5.9-2.58.9-.32 0-.65-.03-.98-.1a1.4 1.4 0 0 0-.86.46 1.1 1.1 0 0 0-.28.7c0 .27.1.47.28.6.19.13.5.2.92.2h2.26c1.16 0 2 .23 2.5.7s.76 1.14.76 2.02Zm-1.42.1c0-.45-.14-.8-.42-1.04-.28-.23-.76-.34-1.44-.34h-3.14c-.3.15-.53.33-.66.56-.12.23-.18.51-.18.86 0 .52.16.93.48 1.22.32.3.83.46 1.54.46h1.32c.83 0 1.45-.14 1.86-.42.43-.27.64-.7.64-1.3Zm-3.18-5.92c.63 0 1.11-.16 1.46-.48.35-.32.52-.81.52-1.48v-.74c0-.67-.17-1.16-.52-1.48a2.07 2.07 0 0 0-1.46-.48c-.63 0-1.11.16-1.46.48-.35.32-.52.81-.52 1.48v.74c0 .67.17 1.16.52 1.48.35.32.83.48 1.46.48Zm10.63 4.66v-13.96h7.72v1.4h-6.12v4.8h5.74v1.4h-5.74v4.96h6.12v1.4h-7.72Zm13.6.24a3.8 3.8 0 0 1-3.03-1.26c-.72-.84-1.08-2.22-1.08-4.14 0-1.92.36-3.3 1.08-4.14a3.8 3.8 0 0 1 3.02-1.26 3.64 3.64 0 0 1 3.6 2.38l-1.26.64a2.4 2.4 0 0 0-.82-1.22 2.4 2.4 0 0 0-1.52-.44c-.84 0-1.46.25-1.86.74-.4.5-.6 1.25-.6 2.26v2.08c0 1.01.2 1.77.6 2.26.4.5 1.02.74 1.86.74.67 0 1.2-.15 1.6-.44.41-.3.74-.74.98-1.34l1.12.78a3.76 3.76 0 0 1-3.7 2.36Zm9.06 0c-.6 0-1.16-.1-1.68-.3-.52-.2-.97-.52-1.34-.96-.38-.44-.67-1-.88-1.68a8.3 8.3 0 0 1-.32-2.46c0-.96.1-1.78.32-2.46.2-.68.5-1.24.88-1.68.37-.44.82-.76 1.34-.96.52-.2 1.08-.3 1.68-.3.6 0 1.16.1 1.68.3.52.2.96.52 1.34.96.37.44.66 1 .88 1.68.2.68.32 1.5.32 2.46s-.11 1.78-.32 2.46a4.94 4.94 0 0 1-.88 1.68c-.38.44-.82.76-1.34.96-.52.2-1.08.3-1.68.3Zm0-1.36c.82 0 1.46-.25 1.9-.74.45-.5.68-1.25.68-2.26v-2.08c0-1.01-.23-1.77-.68-2.26-.44-.5-1.08-.74-1.9-.74-.83 0-1.47.25-1.92.74-.44.5-.66 1.25-.66 2.26v2.08c0 1.01.22 1.77.66 2.26.45.5 1.09.74 1.92.74Zm9.41 1.36a4.4 4.4 0 0 1-2.2-.52 4.8 4.8 0 0 1-1.54-1.44l1.06-.88c.36.5.75.9 1.16 1.16.43.27.94.4 1.52.4.6 0 1.08-.15 1.42-.44.36-.3.54-.74.54-1.3 0-.45-.1-.82-.34-1.1-.22-.28-.64-.47-1.26-.58l-.78-.14a4.6 4.6 0 0 1-2.24-.94c-.48-.44-.72-1.1-.72-2 0-.52.08-.97.24-1.34.16-.39.4-.7.68-.94.3-.25.64-.43 1.04-.54.42-.12.86-.18 1.34-.18a3.88 3.88 0 0 1 3.32 1.6l-.98.9c-.22-.32-.52-.6-.9-.84a2.51 2.51 0 0 0-1.44-.38c-1.2 0-1.82.55-1.82 1.66 0 .5.13.88.38 1.12.27.23.7.4 1.28.5l.78.14c1.06.19 1.8.51 2.24.98.44.47.66 1.1.66 1.9 0 1-.29 1.79-.88 2.36-.57.56-1.42.84-2.56.84Zm11.32-10.56h1.48l-4.08 12.96c-.08.27-.17.49-.26.66a1 1 0 0 1-.36.42c-.13.1-.3.18-.5.22-.19.04-.43.06-.72.06h-1.12v-1.34h1.58l.6-2.1-3.42-10.88h1.52l1.58 5.2.96 3.78h.2l.96-3.78 1.58-5.2Zm6.22 10.56a4.4 4.4 0 0 1-2.2-.52 4.8 4.8 0 0 1-1.54-1.44l1.06-.88c.36.5.75.9 1.16 1.16.43.27.94.4 1.52.4.6 0 1.08-.15 1.42-.44.36-.3.54-.74.54-1.3 0-.45-.11-.82-.34-1.1-.22-.28-.64-.47-1.26-.58l-.78-.14a4.6 4.6 0 0 1-2.24-.94c-.48-.44-.72-1.1-.72-2 0-.52.08-.97.24-1.34.16-.39.39-.7.68-.94.3-.25.64-.43 1.04-.54.42-.12.86-.18 1.34-.18a3.88 3.88 0 0 1 3.32 1.6l-.98.9c-.22-.32-.52-.6-.9-.84a2.51 2.51 0 0 0-1.44-.38c-1.21 0-1.82.55-1.82 1.66 0 .5.13.88.38 1.12.27.23.7.4 1.28.5l.78.14c1.06.19 1.8.51 2.24.98.44.47.66 1.1.66 1.9 0 1-.29 1.79-.88 2.36-.57.56-1.42.84-2.56.84Zm7.97-.24c-.54 0-.94-.12-1.2-.36-.24-.25-.36-.65-.36-1.2v-7.42h-1.52v-1.34h.9c.31 0 .51-.07.6-.22.11-.16.16-.4.16-.7v-1.92h1.38v2.84h2v1.34h-2v7.64h1.9V415h-1.86Zm7.73.24c-.6 0-1.16-.1-1.68-.3-.52-.2-.97-.52-1.34-.96-.37-.44-.66-1-.88-1.68a8.3 8.3 0 0 1-.32-2.46c0-.96.1-1.78.32-2.46.22-.68.5-1.24.88-1.68.38-.44.82-.76 1.34-.96a4.64 4.64 0 0 1 3.32 0c.5.2.93.52 1.28.96.35.44.62 1 .8 1.68.2.68.3 1.5.3 2.46v.38h-6.62v.66c0 1.01.23 1.77.68 2.28.47.5 1.1.74 1.92.74.7 0 1.26-.15 1.7-.44.44-.3.79-.76 1.04-1.36l1.04.76a3.94 3.94 0 0 1-3.78 2.38Zm0-9.52a2.4 2.4 0 0 0-1.92.78c-.45.52-.68 1.29-.68 2.3v.26h5v-.26c0-2.05-.8-3.08-2.4-3.08Zm6.38 9.28v-10.32h1.52v1.68h.2a3 3 0 0 1 .88-1.44 2.5 2.5 0 0 1 1.64-.48c.64 0 1.18.16 1.62.48.46.3.8.79 1.02 1.44h.2c.22-.64.55-1.12 1-1.44a3.06 3.06 0 0 1 1.8-.48c.88 0 1.6.31 2.12.94.54.63.8 1.6.8 2.9V415h-1.52v-6.62a3.1 3.1 0 0 0-.5-1.9c-.32-.44-.82-.66-1.5-.66-.6 0-1.1.19-1.52.56-.4.37-.6.9-.6 1.58V415h-1.52v-6.62a3.1 3.1 0 0 0-.5-1.9c-.32-.44-.82-.66-1.5-.66-.6 0-1.1.19-1.52.56-.4.37-.6.9-.6 1.58V415h-1.52Zm20.13 0v-13.96h5.13c2.31 0 3.46 1.33 3.46 3.98S591.9 409 589.6 409h-3.55v6h-1.6Zm1.6-7.4h3.5c1.18 0 1.78-.64 1.78-1.92v-1.32c0-1.28-.6-1.92-1.79-1.92h-3.5v5.16Zm9.02 7.4v-10.32h1.52v1.92h.2c.17-.6.46-1.07.88-1.4.42-.35.98-.52 1.66-.52h.56v1.54h-1a2.7 2.7 0 0 0-1.7.48c-.4.32-.6.8-.6 1.44V415h-1.52Zm10.12.24c-.6 0-1.16-.1-1.68-.3-.52-.2-.97-.52-1.34-.96-.38-.44-.67-1-.88-1.68a8.3 8.3 0 0 1-.32-2.46c0-.96.1-1.78.32-2.46.21-.68.5-1.24.88-1.68.37-.44.82-.76 1.34-.96.52-.2 1.08-.3 1.68-.3.6 0 1.16.1 1.68.3.52.2.97.52 1.34.96.37.44.66 1 .88 1.68.21.68.32 1.5.32 2.46s-.1 1.78-.32 2.46c-.22.68-.5 1.24-.88 1.68-.38.44-.82.76-1.34.96-.52.2-1.08.3-1.68.3Zm0-1.36c.82 0 1.46-.25 1.9-.74.45-.5.68-1.25.68-2.26v-2.08c0-1.01-.23-1.77-.68-2.26-.44-.5-1.08-.74-1.9-.74-.83 0-1.47.25-1.92.74-.44.5-.66 1.25-.66 2.26v2.08c0 1.01.22 1.77.66 2.26.45.5 1.1.74 1.92.74Zm6.56-9.2h1.52v12.36c0 .68-.16 1.17-.48 1.48-.31.32-.8.48-1.48.48h-1.08v-1.34h1.52v-12.98Zm.76-2.5c-.63 0-.94-.27-.94-.82v-.32c0-.55.31-.82.94-.82.62 0 .94.27.94.82v.32c0 .55-.32.82-.94.82Zm7.3 13.06c-.6 0-1.15-.1-1.67-.3-.52-.2-.97-.52-1.34-.96-.38-.44-.67-1-.88-1.68a8.3 8.3 0 0 1-.32-2.46c0-.96.1-1.78.32-2.46.21-.68.5-1.24.88-1.68.37-.44.82-.76 1.34-.96a4.64 4.64 0 0 1 3.32 0c.5.2.93.52 1.28.96.34.44.61 1 .8 1.68.2.68.3 1.5.3 2.46v.38h-6.62v.66c0 1.01.22 1.77.68 2.28.46.5 1.1.74 1.92.74.69 0 1.26-.15 1.7-.44.44-.3.78-.76 1.04-1.36l1.04.76c-.32.7-.8 1.28-1.42 1.72-.62.44-1.4.66-2.36.66Zm0-9.52a2.4 2.4 0 0 0-1.91.78c-.46.52-.68 1.29-.68 2.3v.26h5v-.26c0-2.05-.8-3.08-2.4-3.08Zm9.79 9.52a3.8 3.8 0 0 1-3.02-1.26c-.72-.84-1.08-2.22-1.08-4.14 0-1.92.36-3.3 1.08-4.14a3.8 3.8 0 0 1 3.02-1.26 3.64 3.64 0 0 1 3.6 2.38l-1.26.64a2.4 2.4 0 0 0-.82-1.22 2.4 2.4 0 0 0-1.52-.44c-.84 0-1.46.25-1.86.74-.4.5-.6 1.25-.6 2.26v2.08c0 1.01.2 1.77.6 2.26.4.5 1.02.74 1.86.74.67 0 1.2-.15 1.6-.44.41-.3.74-.74.98-1.34l1.12.78a3.76 3.76 0 0 1-3.7 2.36Zm7.76-.24c-.54 0-.95-.12-1.2-.36-.24-.25-.36-.65-.36-1.2v-7.42h-1.52v-1.34h.9c.3 0 .5-.07.6-.22.1-.16.16-.4.16-.7v-1.92h1.38v2.84h2v1.34h-2v7.64h1.9V415h-1.86Zm7.15.24a4.4 4.4 0 0 1-2.2-.52 4.79 4.79 0 0 1-1.54-1.44l1.06-.88c.36.5.75.9 1.16 1.16.42.27.93.4 1.52.4.6 0 1.07-.15 1.42-.44.36-.3.54-.74.54-1.3 0-.45-.12-.82-.34-1.1-.23-.28-.65-.47-1.26-.58l-.78-.14a4.6 4.6 0 0 1-2.24-.94c-.48-.44-.72-1.1-.72-2 0-.52.08-.97.24-1.34.16-.39.38-.7.68-.94.3-.25.64-.43 1.04-.54.41-.12.86-.18 1.34-.18a3.88 3.88 0 0 1 3.32 1.6l-.98.9a3.3 3.3 0 0 0-.9-.84 2.52 2.52 0 0 0-1.44-.38c-1.22 0-1.82.55-1.82 1.66 0 .5.13.88.38 1.12.26.23.7.4 1.28.5l.78.14c1.05.19 1.8.51 2.24.98.44.47.66 1.1.66 1.9 0 1-.3 1.79-.88 2.36-.58.56-1.43.84-2.56.84Z"/>
  <path fill="#0B0F14" d="M481.5 364a16 16 0 0 1 16-16h46a16 16 0 0 1 16 16v16h-78v-16Z"/>
  <path fill="#8D9EB0" d="M498.66 369v-9.77h3.6c1.62 0 2.42.93 2.42 2.78 0 1.86-.8 2.79-2.42 2.79h-2.48v4.2h-1.12Zm1.12-5.18h2.45c.83 0 1.25-.45 1.25-1.34v-.93c0-.9-.42-1.34-1.25-1.34h-2.45v3.61Zm6.45-5.18h1.07v4.31h.14c.14-.45.35-.78.64-1 .3-.23.7-.34 1.2-.34.65 0 1.15.22 1.52.66.37.44.56 1.11.56 2.03v4.7h-1.07v-4.63a2.1 2.1 0 0 0-.36-1.33c-.23-.31-.6-.47-1.1-.47-.42 0-.78.13-1.08.4-.3.26-.45.63-.45 1.1V369h-1.07v-10.36ZM517.98 369c-.7 0-1.04-.35-1.04-1.04v-.14h-.14c-.12.44-.35.78-.67 1.01-.32.23-.7.34-1.15.34-.7 0-1.22-.18-1.57-.53-.34-.36-.52-.88-.52-1.57 0-.67.22-1.2.66-1.6.45-.39 1.15-.59 2.09-.59h1.3v-.8c0-.53-.12-.92-.36-1.17-.24-.25-.61-.38-1.12-.38-.42 0-.76.1-1.03.28-.25.18-.47.44-.65.79l-.63-.6c.18-.38.48-.71.9-.97.4-.27.89-.4 1.45-.4.82 0 1.44.2 1.86.6.43.39.64.97.64 1.74v4.1h.73v.93h-.75Zm-2.73-.76a1.85 1.85 0 0 0 1.22-.45c.14-.13.26-.29.34-.46.09-.17.13-.35.13-.54v-1.1h-1.33c-.56 0-.97.1-1.23.29a.95.95 0 0 0-.38.8v.4c0 .36.11.63.34.81.22.17.52.25.9.25Zm6.93.93c-.6 0-1.1-.12-1.54-.37a3.36 3.36 0 0 1-1.08-1l.75-.62c.25.36.52.63.8.81.3.19.66.28 1.07.28.42 0 .75-.1 1-.3.25-.22.37-.52.37-.92 0-.31-.08-.57-.23-.77-.16-.2-.46-.33-.89-.4l-.54-.1a3.23 3.23 0 0 1-1.57-.66c-.34-.3-.5-.77-.5-1.4 0-.36.05-.68.16-.94a1.82 1.82 0 0 1 1.2-1.04c.3-.08.6-.12.94-.12a2.7 2.7 0 0 1 2.32 1.12l-.68.63a2.23 2.23 0 0 0-.63-.59c-.26-.17-.6-.26-1-.26-.85 0-1.28.38-1.28 1.16 0 .36.09.62.27.78.18.16.48.28.9.35l.54.1c.74.13 1.26.36 1.57.69.3.32.46.77.46 1.33 0 .7-.2 1.25-.62 1.65-.4.4-1 .59-1.79.59Zm6.62 0c-.42 0-.82-.07-1.18-.21a2.3 2.3 0 0 1-.94-.67c-.26-.31-.46-.7-.61-1.18a5.78 5.78 0 0 1-.23-1.72c0-.67.08-1.25.23-1.72.14-.48.35-.87.61-1.18.26-.3.58-.53.94-.67a3.25 3.25 0 0 1 2.32 0c.36.14.66.36.9.67.24.3.43.7.56 1.18.14.47.21 1.05.21 1.72v.26h-4.63v.47c0 .7.15 1.24.47 1.6.33.34.78.51 1.35.51.48 0 .88-.1 1.19-.3.3-.22.55-.54.72-.96l.73.53a2.77 2.77 0 0 1-2.65 1.67Zm0-6.67c-.58 0-1.03.19-1.35.55-.32.36-.47.9-.47 1.61v.18h3.5v-.18c0-1.44-.56-2.16-1.68-2.16Zm9.66.89c.58 0 1.02-.14 1.31-.42.3-.3.45-.69.45-1.18v-.21c0-.55-.14-.94-.42-1.18a1.72 1.72 0 0 0-1.13-.35c-.45 0-.82.1-1.1.31-.28.2-.5.5-.7.9l-.8-.63c.1-.2.24-.39.4-.58a2.82 2.82 0 0 1 1.32-.85 3.62 3.62 0 0 1 2.04.01 2 2 0 0 1 1.37 1.21c.13.3.2.67.2 1.09 0 .33-.05.62-.14.88a2.05 2.05 0 0 1-.94 1.13c-.2.13-.43.21-.67.26v.14a1.98 1.98 0 0 1 1.76 1.4 3 3 0 0 1 .15 1c0 .88-.26 1.58-.78 2.1-.51.5-1.25.75-2.21.75a3.44 3.44 0 0 1-1.82-.5 3.18 3.18 0 0 1-.6-.52 8.2 8.2 0 0 1-.47-.6l.84-.64c.23.39.49.7.77.93.3.22.72.33 1.25.33.6 0 1.06-.14 1.37-.43.32-.3.48-.75.48-1.36v-.22c0-.6-.16-1.06-.48-1.35-.3-.3-.76-.44-1.37-.44h-1.04v-.98h.96Z"/>
  <rect width="297" height="55" x="552.5" y="196.5" fill="#0B0F14" rx="15.5"/>
  <rect width="297" height="55" x="552.5" y="196.5" stroke="#9488F0" rx="15.5"/>
  <path fill="#fff" d="M577.9 231v-13.96h1.6v12.56h5.3v1.4h-6.9Zm15.52 0c-.98 0-1.47-.5-1.47-1.48v-.2h-.2c-.18.63-.5 1.1-.97 1.44-.45.32-1 .48-1.63.48-1 0-1.75-.25-2.25-.76-.49-.5-.74-1.25-.74-2.24 0-.96.32-1.72.95-2.28.63-.56 1.63-.84 2.98-.84h1.86v-1.14c0-.76-.18-1.32-.53-1.68-.33-.36-.86-.54-1.6-.54-.6 0-1.08.13-1.46.4-.36.25-.67.63-.94 1.12l-.9-.84a3.69 3.69 0 0 1 3.36-1.98c1.18 0 2.07.29 2.66.86.62.56.93 1.4.93 2.5v5.84h1.03V231h-1.08Zm-3.9-1.08a2.63 2.63 0 0 0 1.74-.64c.22-.2.38-.42.5-.66.13-.25.19-.51.19-.78v-1.56h-1.9c-.8 0-1.4.13-1.76.4-.37.27-.54.65-.54 1.16v.56c0 .52.15.9.48 1.16.31.24.75.36 1.3.36Zm12.75-.6h-.2c-.2.64-.51 1.12-.94 1.44a2.7 2.7 0 0 1-1.7.48c-.92 0-1.64-.31-2.18-.94-.52-.63-.78-1.6-.78-2.9v-6.72H598v6.62c0 .83.17 1.46.5 1.9.35.44.88.66 1.58.66.62 0 1.14-.19 1.56-.56.43-.37.64-.9.64-1.58v-7.04h1.52V231h-1.52v-1.68Zm4.56 1.68v-10.32h1.52v1.68h.2c.2-.64.5-1.12.92-1.44.42-.32 1-.48 1.72-.48.92 0 1.64.31 2.16.94.53.63.8 1.6.8 2.9V231h-1.52v-6.62c0-.83-.18-1.46-.52-1.9-.34-.44-.86-.66-1.56-.66-.62 0-1.14.19-1.56.56-.43.37-.64.9-.64 1.58V231h-1.52Zm13.65.24a3.8 3.8 0 0 1-3.02-1.26c-.72-.84-1.08-2.22-1.08-4.14 0-1.92.36-3.3 1.08-4.14a3.8 3.8 0 0 1 3.02-1.26 3.64 3.64 0 0 1 3.6 2.38l-1.26.64a2.4 2.4 0 0 0-.82-1.22 2.4 2.4 0 0 0-1.52-.44c-.84 0-1.46.25-1.86.74-.4.5-.6 1.25-.6 2.26v2.08c0 1.01.2 1.77.6 2.26.4.5 1.02.74 1.86.74.67 0 1.2-.15 1.6-.44.41-.3.74-.74.98-1.34l1.12.78a3.76 3.76 0 0 1-3.7 2.36Zm5.68-15.04h1.52v6.16h.2c.2-.64.5-1.12.92-1.44.43-.32 1-.48 1.72-.48.92 0 1.64.31 2.16.94.54.63.8 1.6.8 2.9V231h-1.52v-6.62c0-.83-.17-1.46-.52-1.9-.33-.44-.85-.66-1.56-.66-.61 0-1.13.19-1.56.56a2 2 0 0 0-.64 1.58V231h-1.52v-14.8Zm22.75 12.86h-.2c-.14.63-.5 1.15-1.08 1.56-.55.41-1.35.62-2.38.62-.75 0-1.45-.14-2.08-.42a4.21 4.21 0 0 1-1.6-1.32 6.71 6.71 0 0 1-1.04-2.24c-.24-.92-.36-2-.36-3.24 0-2.5.47-4.32 1.4-5.48a4.77 4.77 0 0 1 3.94-1.74c1.23 0 2.21.27 2.95.8.73.52 1.3 1.24 1.71 2.16l-1.31.8a3.66 3.66 0 0 0-1.23-1.72 3.42 3.42 0 0 0-2.12-.62c-1.15 0-2.05.39-2.67 1.16a4.7 4.7 0 0 0-.95 3.08v3.12c0 1.3.32 2.33.95 3.1a3.28 3.28 0 0 0 2.67 1.14c.46 0 .88-.07 1.28-.2a2.87 2.87 0 0 0 2.04-2.84v-1.52h-2.75v-1.4h4.31V231h-1.48v-1.94Zm5.92-12.02v9.04c0 .63.05 1.17.14 1.64.11.47.28.86.5 1.18.23.3.53.54.9.7.39.15.86.22 1.4.22 1.1 0 1.86-.3 2.28-.92.44-.63.66-1.57.66-2.82v-9.04h1.6v8.72c0 .93-.08 1.75-.24 2.44a4.26 4.26 0 0 1-.78 1.7c-.34.45-.81.8-1.4 1.02-.57.21-1.28.32-2.12.32a6.3 6.3 0 0 1-2.14-.32 3.3 3.3 0 0 1-1.4-1.02 4.43 4.43 0 0 1-.76-1.7c-.16-.7-.24-1.5-.24-2.44v-8.72h1.6ZM667.16 231h-1.6v-13.96h5.14c2.3 0 3.46 1.33 3.46 3.98 0 2.24-.83 3.53-2.48 3.88l2.82 6.1h-1.8l-2.62-6h-2.92v6Zm3.5-7.36c1.19 0 1.78-.64 1.78-1.92v-1.36c0-1.28-.6-1.92-1.78-1.92h-3.5v5.2h3.5Zm7.77-6.6v9.04c0 .63.04 1.17.14 1.64s.27.86.5 1.18c.22.3.52.54.9.7.38.15.85.22 1.4.22 1.1 0 1.85-.3 2.28-.92.44-.63.66-1.57.66-2.82v-9.04h1.6v8.72c0 .93-.08 1.75-.24 2.44a4.26 4.26 0 0 1-.78 1.7c-.35.45-.82.8-1.4 1.02-.58.21-1.28.32-2.12.32a6.3 6.3 0 0 1-2.14-.32 3.3 3.3 0 0 1-1.4-1.02 4.43 4.43 0 0 1-.76-1.7c-.16-.7-.24-1.5-.24-2.44v-8.72h1.6Zm17.8 4.9-1.22-2.88h-.2l.14 2.88V231h-1.56v-13.96h1.96l4.64 9.06 1.22 2.88h.2l-.14-2.88v-9.06h1.56V231h-1.96l-4.64-9.06Zm13.28 9.3c-.6 0-1.16-.1-1.68-.3-.52-.2-.97-.52-1.34-.96-.38-.44-.67-1-.88-1.68a8.26 8.26 0 0 1-.32-2.46c0-.96.1-1.78.32-2.46.21-.68.5-1.24.88-1.68.37-.44.82-.76 1.34-.96a4.64 4.64 0 0 1 3.32 0c.5.2.93.52 1.28.96.34.44.61 1 .8 1.68.2.68.3 1.5.3 2.46v.38h-6.62v.66c0 1.01.22 1.77.68 2.28.46.5 1.1.74 1.92.74.69 0 1.26-.15 1.7-.44.44-.3.78-.76 1.04-1.36l1.04.76c-.32.7-.8 1.28-1.42 1.72-.62.44-1.4.66-2.36.66Zm0-9.52a2.4 2.4 0 0 0-1.92.78c-.46.52-.68 1.29-.68 2.3v.26h5v-.26c0-2.05-.8-3.08-2.4-3.08Zm8.46 9.28c-.55 0-.95-.12-1.2-.36-.24-.25-.36-.65-.36-1.2v-7.42h-1.52v-1.34h.9c.3 0 .5-.07.6-.22.1-.16.16-.4.16-.7v-1.92h1.38v2.84h2v1.34h-2v7.64h1.9V231h-1.86Zm3.3-10.32h1.49l1 4.48.88 4.5h.2l1.02-4.5 1.04-4.48h1.76l1.04 4.48 1.02 4.5h.2l.88-4.5 1-4.48h1.44L731.76 231h-1.92l-1.26-5-.7-3.78h-.2l-.74 3.78-1.26 5h-1.92l-2.48-10.32Zm18.37 10.56c-.6 0-1.16-.1-1.68-.3-.52-.2-.96-.52-1.34-.96-.37-.44-.66-1-.88-1.68a8.26 8.26 0 0 1-.32-2.46c0-.96.11-1.78.32-2.46.22-.68.51-1.24.88-1.68.38-.44.82-.76 1.34-.96.52-.2 1.08-.3 1.68-.3.6 0 1.16.1 1.68.3.52.2.97.52 1.34.96.38.44.67 1 .88 1.68.22.68.32 1.5.32 2.46s-.1 1.78-.32 2.46c-.21.68-.5 1.24-.88 1.68-.37.44-.82.76-1.34.96-.52.2-1.08.3-1.68.3Zm0-1.36c.83 0 1.46-.25 1.9-.74.46-.5.68-1.25.68-2.26v-2.08c0-1.01-.22-1.77-.68-2.26-.44-.5-1.07-.74-1.9-.74a2.5 2.5 0 0 0-1.92.74c-.44.5-.66 1.25-.66 2.26v2.08c0 1.01.22 1.77.66 2.26.46.5 1.1.74 1.92.74Zm6.56 1.12v-10.32h1.52v1.92h.2c.18-.6.47-1.07.88-1.4.43-.35.98-.52 1.66-.52h.56v1.54h-1c-.72 0-1.28.16-1.7.48-.4.32-.6.8-.6 1.44V231h-1.52Zm6.64-14.8h1.52v7.6l-.12 2.02h.16l1.44-1.94 2.58-3.2h1.84l-3.42 4.1 3.72 6.22h-1.82l-3.02-5.32-1.36 1.6V231h-1.52v-14.8Zm18.21 2.24V231h-1.6v-12.56h-3.94v-1.4H775v1.4h-3.94Zm8.2 12.8c-.6 0-1.16-.1-1.68-.3-.52-.2-.96-.52-1.34-.96-.37-.44-.66-1-.88-1.68a8.3 8.3 0 0 1-.32-2.46c0-.96.11-1.78.32-2.46.22-.68.51-1.24.88-1.68.38-.44.82-.76 1.34-.96a4.64 4.64 0 0 1 3.32 0c.51.2.94.52 1.28.96.35.44.62 1 .8 1.68.2.68.3 1.5.3 2.46v.38h-6.62v.66c0 1.01.23 1.77.68 2.28.47.5 1.11.74 1.92.74.7 0 1.26-.15 1.7-.44.44-.3.79-.76 1.04-1.36l1.04.76a3.95 3.95 0 0 1-3.78 2.38Zm0-9.52c-.82 0-1.46.26-1.92.78-.45.52-.68 1.29-.68 2.3v.26h5v-.26c0-2.05-.8-3.08-2.4-3.08Zm9.25 9.52a4.4 4.4 0 0 1-2.2-.52 4.8 4.8 0 0 1-1.54-1.44l1.06-.88c.35.5.74.9 1.15 1.16.43.27.94.4 1.52.4.6 0 1.08-.15 1.42-.44.37-.3.55-.74.55-1.3 0-.45-.12-.82-.35-1.1-.22-.28-.64-.47-1.25-.58l-.78-.14a4.6 4.6 0 0 1-2.25-.94c-.48-.44-.72-1.1-.72-2 0-.52.09-.97.25-1.34.15-.39.38-.7.67-.94.3-.25.64-.43 1.05-.54a4.8 4.8 0 0 1 1.33-.18 3.86 3.86 0 0 1 3.32 1.6l-.98.9a3.2 3.2 0 0 0-.9-.84 2.51 2.51 0 0 0-1.44-.38c-1.2 0-1.81.55-1.81 1.66 0 .5.12.88.38 1.12.26.23.69.4 1.27.5l.78.14c1.06.19 1.8.51 2.25.98.44.47.65 1.1.65 1.9 0 1-.29 1.79-.88 2.36-.57.56-1.42.84-2.55.84Zm7.97-.24c-.55 0-.95-.12-1.2-.36-.25-.25-.37-.65-.37-1.2v-7.42h-1.51v-1.34h.9c.3 0 .5-.07.6-.22.1-.16.15-.4.15-.7v-1.92h1.38v2.84h2v1.34h-2v7.64h1.9V231h-1.86Zm4.28 0v-10.32h1.52v1.68h.2c.2-.64.5-1.12.92-1.44.43-.32 1-.48 1.72-.48.92 0 1.64.31 2.16.94.54.63.8 1.6.8 2.9V231h-1.52v-6.62c0-.83-.17-1.46-.52-1.9-.33-.44-.85-.66-1.56-.66-.61 0-1.13.19-1.56.56a2 2 0 0 0-.64 1.58V231h-1.52Zm13.78.24c-.6 0-1.16-.1-1.68-.3-.52-.2-.97-.52-1.34-.96-.38-.44-.67-1-.88-1.68a8.3 8.3 0 0 1-.32-2.46c0-.96.1-1.78.32-2.46.21-.68.5-1.24.88-1.68.37-.44.82-.76 1.34-.96a4.64 4.64 0 0 1 3.32 0c.5.2.93.52 1.28.96.34.44.61 1 .8 1.68.2.68.3 1.5.3 2.46v.38h-6.62v.66c0 1.01.22 1.77.68 2.28.46.5 1.1.74 1.92.74a3 3 0 0 0 1.7-.44c.44-.3.78-.76 1.04-1.36l1.04.76c-.32.7-.8 1.28-1.42 1.72-.62.44-1.4.66-2.36.66Zm0-9.52a2.4 2.4 0 0 0-1.92.78c-.46.52-.68 1.29-.68 2.3v.26h5v-.26c0-2.05-.8-3.08-2.4-3.08Zm8.46 9.28c-.55 0-.95-.12-1.2-.36-.24-.25-.36-.65-.36-1.2v-7.42h-1.52v-1.34h.9c.3 0 .5-.07.6-.22.1-.16.16-.4.16-.7v-1.92h1.38v2.84h2v1.34h-2v7.64h1.9V231h-1.86Z"/>
  <path fill="#0B0F14" d="M662 180a16 16 0 0 1 16-16h46a16 16 0 0 1 16 16v16h-78v-16Z"/>
  <path fill="#8D9EB0" d="M679.16 185v-9.77h3.6c1.62 0 2.42.93 2.42 2.78 0 1.86-.8 2.79-2.42 2.79h-2.48v4.2h-1.12Zm1.12-5.18h2.45c.83 0 1.25-.45 1.25-1.34v-.93c0-.9-.42-1.34-1.25-1.34h-2.45v3.61Zm6.45-5.18h1.07v4.31h.14c.14-.45.35-.78.64-1 .3-.23.7-.34 1.2-.34.65 0 1.15.22 1.52.66.37.44.56 1.11.56 2.03v4.7h-1.07v-4.63a2.1 2.1 0 0 0-.36-1.33c-.23-.31-.6-.47-1.1-.47-.42 0-.79.14-1.08.4-.3.26-.45.63-.45 1.1V185h-1.07v-10.36ZM698.48 185c-.7 0-1.04-.34-1.04-1.04v-.14h-.14c-.12.44-.35.78-.67 1.01-.32.23-.7.34-1.15.34-.7 0-1.22-.18-1.57-.53-.34-.36-.52-.88-.52-1.57 0-.67.22-1.2.66-1.6.45-.39 1.15-.59 2.09-.59h1.3v-.8c0-.53-.12-.92-.36-1.17-.24-.25-.61-.38-1.12-.38-.42 0-.76.1-1.03.28-.25.18-.47.44-.65.79l-.63-.6c.18-.38.48-.71.9-.97.4-.27.89-.4 1.45-.4.82 0 1.44.2 1.86.6.43.39.64.97.64 1.74v4.1h.73v.93h-.75Zm-2.73-.76a1.85 1.85 0 0 0 1.22-.45c.14-.13.26-.29.34-.46.09-.17.13-.36.13-.54v-1.1h-1.33c-.56 0-.97.1-1.23.29a.95.95 0 0 0-.38.8v.4c0 .36.11.63.34.81.22.17.52.25.9.25Zm6.93.93c-.6 0-1.1-.12-1.54-.37a3.36 3.36 0 0 1-1.08-1l.75-.62c.25.35.52.63.8.81.3.19.66.28 1.07.28.42 0 .75-.1 1-.3.25-.22.37-.52.37-.92 0-.31-.08-.57-.23-.77-.16-.2-.46-.33-.89-.4l-.54-.1a3.23 3.23 0 0 1-1.57-.66c-.34-.3-.5-.77-.5-1.4 0-.36.05-.68.16-.94a1.82 1.82 0 0 1 1.2-1.04c.3-.08.6-.12.94-.12a2.7 2.7 0 0 1 2.32 1.12l-.68.63a2.23 2.23 0 0 0-.63-.59c-.26-.17-.6-.26-1-.26-.85 0-1.28.38-1.28 1.16 0 .35.09.62.27.78.18.16.48.28.9.35l.54.1c.74.13 1.26.36 1.57.69.3.33.46.77.46 1.33 0 .7-.2 1.25-.62 1.65-.4.4-1 .59-1.79.59Zm6.62 0c-.42 0-.82-.07-1.18-.21a2.3 2.3 0 0 1-.94-.67c-.26-.31-.46-.7-.61-1.18a5.78 5.78 0 0 1-.23-1.72c0-.67.08-1.25.23-1.72.14-.48.35-.87.61-1.18.26-.3.58-.53.94-.67a3.25 3.25 0 0 1 2.32 0c.36.14.66.36.9.67.24.3.43.7.56 1.18.14.47.21 1.05.21 1.72v.26h-4.63v.47c0 .7.15 1.24.47 1.6.33.34.78.51 1.35.51.48 0 .88-.1 1.19-.3.3-.22.55-.54.72-.96l.73.53a2.77 2.77 0 0 1-2.65 1.67Zm0-6.67c-.58 0-1.03.19-1.35.55-.32.36-.47.9-.47 1.61v.18h3.5v-.18c0-1.44-.56-2.16-1.68-2.16Zm13.1 6.5h-5.81v-1.16l2.97-3.08c.47-.49.82-.94 1.02-1.35.21-.42.32-.83.32-1.24v-.37c0-1.16-.5-1.75-1.52-1.75-.5 0-.91.13-1.22.4-.3.26-.51.63-.63 1.1l-.98-.39a3.19 3.19 0 0 1 1-1.5 3.01 3.01 0 0 1 1.86-.6c.9 0 1.58.24 2.01.71.44.47.66 1.16.66 2.08 0 .31-.03.61-.09.9-.05.26-.15.54-.29.82a5.5 5.5 0 0 1-.57.87c-.24.3-.54.63-.9 1.02l-2.44 2.56h4.61v.98Z"/>
  <path stroke="#3E4854" stroke-width="2" d="M521 98v7.4c0 8.96 0 13.44 1.74 16.86a16 16 0 0 0 7 7c3.42 1.74 7.9 1.74 16.86 1.74h128.8c8.96 0 13.44 0 16.86 1.74a16 16 0 0 1 7 7c1.74 3.42 1.74 7.9 1.74 16.86v5.4M341 282v7.4c0 8.96 0 13.44 1.74 16.86a16 16 0 0 0 7 7c3.42 1.74 7.9 1.74 16.86 1.74h128.8c8.96 0 13.44 0 16.86 1.74a16 16 0 0 1 7 7c1.74 3.42 1.74 7.9 1.74 16.86v5.4m0-248v7.4c0 8.96 0 13.44-1.74 16.86a16 16 0 0 1-7 7c-3.42 1.74-7.9 1.74-16.86 1.74H366.6c-8.96 0-13.44 0-16.86 1.74a16 16 0 0 0-7 7c-1.74 3.42-1.74 7.9-1.74 16.86v5.4m0 120v7.4c0 8.96 0 13.44-1.74 16.86a16 16 0 0 1-7 7c-3.42 1.74-7.9 1.74-16.86 1.74H186.6c-8.96 0-13.44 0-16.86 1.74a16 16 0 0 0-7 7c-1.74 3.42-1.74 7.9-1.74 16.86v5.4m358 92v64"/>
</svg>