<svg xmlns="http://www.w3.org/2000/svg" fill="none" viewBox="0 0 992 840" width="992" height="840">
  <rect width="258" height="92" x="369" y="21" fill="#181D23" rx="23"/>
  <rect width="258" height="92" x="369" y="21" stroke="#12B886" stroke-width="2" rx="23"/>
  <path fill="#fff" d="M402.11 75V61.04h1.6V73.6h5.3V75h-6.9Zm15.52 0c-.99 0-1.48-.5-1.48-1.48v-.2h-.2c-.17.63-.5 1.1-.96 1.44-.45.32-1 .48-1.64.48-1 0-1.75-.25-2.24-.76-.5-.5-.74-1.25-.74-2.24 0-.96.31-1.72.94-2.28.64-.56 1.63-.84 2.98-.84h1.86v-1.14c0-.76-.17-1.32-.52-1.68-.33-.36-.87-.54-1.6-.54-.6 0-1.08.13-1.46.4-.36.25-.67.63-.94 1.12l-.9-.84a3.7 3.7 0 0 1 3.36-1.98c1.18 0 2.06.29 2.66.86.62.56.92 1.4.92 2.5v5.84h1.04V75h-1.08Zm-3.9-1.08a2.64 2.64 0 0 0 1.74-.64c.22-.2.38-.42.5-.66.12-.25.18-.51.18-.78v-1.56h-1.9c-.8 0-1.38.13-1.76.4-.36.27-.54.65-.54 1.16v.56c0 .52.16.9.48 1.16.32.24.75.36 1.3.36Zm12.75-.6h-.2c-.2.64-.51 1.12-.94 1.44a2.7 2.7 0 0 1-1.7.48 2.7 2.7 0 0 1-2.18-.94c-.52-.63-.78-1.6-.78-2.9v-6.72h1.52v6.62c0 .83.17 1.46.5 1.9.35.44.87.66 1.58.66.61 0 1.13-.19 1.56-.56.43-.37.64-.9.64-1.58v-7.04H428V75h-1.52v-1.68Zm4.55 1.68V64.68h1.52v1.68h.2c.2-.64.51-1.12.92-1.44.43-.32 1-.48 1.72-.48.92 0 1.64.31 2.16.94.54.63.8 1.6.8 2.9V75h-1.52v-6.62c0-.83-.17-1.46-.52-1.9-.33-.44-.85-.66-1.56-.66-.61 0-1.13.19-1.56.56a2 2 0 0 0-.64 1.58V75h-1.52Zm13.66.24a3.8 3.8 0 0 1-3.02-1.26c-.72-.84-1.08-2.22-1.08-4.14 0-1.92.36-3.3 1.08-4.14a3.8 3.8 0 0 1 3.02-1.26 3.64 3.64 0 0 1 3.6 2.38l-1.26.64a2.4 2.4 0 0 0-.82-1.22 2.4 2.4 0 0 0-1.52-.44c-.84 0-1.46.25-1.86.74-.4.5-.6 1.25-.6 2.26v2.08c0 1.01.2 1.77.6 2.26.4.5 1.02.74 1.86.74.66 0 1.2-.15 1.6-.44.41-.3.74-.74.98-1.34l1.12.78c-.3.72-.78 1.3-1.4 1.72-.62.43-1.38.64-2.3.64Zm5.68-15.04h1.52v6.16h.2c.2-.64.5-1.12.92-1.44.43-.32 1-.48 1.72-.48.92 0 1.64.31 2.16.94.53.63.8 1.6.8 2.9V75h-1.52v-6.62c0-.83-.17-1.46-.52-1.9-.33-.44-.85-.66-1.56-.66-.61 0-1.13.19-1.56.56-.43.37-.64.9-.64 1.58V75h-1.52V60.2Zm18.01 15.04c-.6 0-1.16-.1-1.68-.3-.52-.2-.96-.52-1.34-.96-.37-.44-.67-1-.88-1.68a8.26 8.26 0 0 1-.32-2.46c0-.96.1-1.78.32-2.46.21-.68.5-1.24.88-1.68.38-.44.82-.76 1.34-.96.52-.2 1.08-.3 1.68-.3.6 0 1.16.1 1.68.3.52.2.97.52 1.34.96.38.44.67 1 .88 1.68.22.68.32 1.5.32 2.46s-.1 1.78-.32 2.46c-.21.68-.5 1.24-.88 1.68-.37.44-.82.76-1.34.96-.52.2-1.08.3-1.68.3Zm0-1.36c.83 0 1.46-.25 1.9-.74.46-.5.68-1.25.68-2.26V68.8c0-1.01-.22-1.77-.68-2.26-.44-.5-1.07-.74-1.9-.74a2.5 2.5 0 0 0-1.92.74c-.44.5-.66 1.25-.66 2.26v2.08c0 1.01.22 1.77.66 2.26.46.5 1.1.74 1.92.74Zm7-7.86h-1.5v-1.34h1.5v-2.52c0-.68.16-1.17.46-1.48.32-.32.82-.48 1.5-.48h1.54v1.34h-1.98v3.14h1.98v1.34h-1.98V75h-1.52v-8.98Zm17.9 5.06a3.9 3.9 0 0 1-.98 2.84 4.26 4.26 0 0 1-2.72 1.14v1.58h-1.28v-1.6a5.36 5.36 0 0 1-3.86-2.22l1.1-1.02c.3.47.7.88 1.18 1.24a3.9 3.9 0 0 0 1.62.68V68.4a5.51 5.51 0 0 1-2.72-1.36 3.4 3.4 0 0 1-.82-2.42c0-1.08.32-1.93.96-2.54A4.15 4.15 0 0 1 488.3 61v-1.6h1.28V61a4.54 4.54 0 0 1 3.58 2.1l-1.12.86a3.8 3.8 0 0 0-.98-1.04c-.4-.3-.9-.5-1.52-.6v4.88c.64.16 1.2.35 1.66.58.48.21.87.48 1.18.8.3.3.53.67.68 1.08.14.4.22.87.22 1.42Zm-6.98-6.6c0 .72.16 1.26.5 1.62.34.36.86.63 1.54.8v-4.58a2.6 2.6 0 0 0-1.52.7c-.35.37-.52.86-.52 1.46Zm5.5 6.74c0-.68-.18-1.21-.54-1.6-.35-.4-.92-.71-1.72-.94v5.04c.73-.1 1.3-.35 1.68-.76.38-.43.58-1 .58-1.74Zm12.22 1.84h-.2a2.6 2.6 0 0 1-1.08 1.56c-.56.41-1.35.62-2.38.62-.76 0-1.45-.14-2.08-.42a4.22 4.22 0 0 1-1.6-1.32 6.73 6.73 0 0 1-1.04-2.24c-.24-.92-.36-2-.36-3.24 0-2.5.47-4.32 1.4-5.48a4.77 4.77 0 0 1 3.94-1.74c1.23 0 2.2.27 2.94.8.73.52 1.3 1.24 1.72 2.16l-1.32.8a3.65 3.65 0 0 0-1.22-1.72 3.42 3.42 0 0 0-2.12-.62c-1.16 0-2.05.39-2.68 1.16a4.7 4.7 0 0 0-.94 3.08v3.12c0 1.3.31 2.33.94 3.1a3.28 3.28 0 0 0 2.68 1.14c.45 0 .88-.07 1.28-.2a2.84 2.84 0 0 0 2.04-2.84v-1.52h-2.76v-1.4h4.32V75h-1.48v-1.94Zm5.92-12.02v9.04c0 .63.05 1.17.14 1.64.1.47.27.86.5 1.18.23.3.53.54.9.7.39.15.85.22 1.4.22 1.1 0 1.85-.3 2.28-.92.44-.63.66-1.57.66-2.82v-9.04h1.6v8.72c0 .93-.08 1.75-.24 2.44a4.26 4.26 0 0 1-.78 1.7c-.35.45-.81.8-1.4 1.02-.57.21-1.28.32-2.12.32a6.3 6.3 0 0 1-2.14-.32 3.3 3.3 0 0 1-1.4-1.02 4.44 4.44 0 0 1-.76-1.7c-.16-.7-.24-1.5-.24-2.44v-8.72h1.6ZM522.27 75h-1.6V61.04h5.14c2.3 0 3.46 1.33 3.46 3.98 0 2.24-.83 3.53-2.48 3.88l2.82 6.1h-1.8l-2.62-6h-2.92v6Zm3.5-7.36c1.18 0 1.78-.64 1.78-1.92v-1.36c0-1.28-.6-1.92-1.78-1.92h-3.5v5.2h3.5Zm7.76-6.6v9.04c0 .63.05 1.17.14 1.64.11.47.28.86.5 1.18.23.3.53.54.9.7.39.15.86.22 1.4.22 1.1 0 1.86-.3 2.28-.92.44-.63.66-1.57.66-2.82v-9.04h1.6v8.72c0 .93-.08 1.75-.24 2.44a4.26 4.26 0 0 1-.78 1.7c-.34.45-.81.8-1.4 1.02-.57.21-1.28.32-2.12.32a6.3 6.3 0 0 1-2.14-.32 3.3 3.3 0 0 1-1.4-1.02 4.43 4.43 0 0 1-.76-1.7c-.16-.7-.24-1.5-.24-2.44v-8.72h1.6Zm19.27 1.4V75h-1.6V62.44h-3.94v-1.4h9.48v1.4h-3.94Zm8.2 12.8c-.6 0-1.16-.1-1.68-.3-.52-.2-.97-.52-1.34-.96-.37-.44-.67-1-.88-1.68a8.3 8.3 0 0 1-.32-2.46c0-.96.1-1.78.32-2.46.21-.68.5-1.24.88-1.68.37-.44.82-.76 1.34-.96.52-.2 1.08-.3 1.68-.3.6 0 1.16.1 1.68.3.52.2.97.52 1.34.96.37.44.67 1 .88 1.68.21.68.32 1.5.32 2.46s-.1 1.78-.32 2.46c-.21.68-.5 1.24-.88 1.68-.37.44-.82.76-1.34.96-.52.2-1.08.3-1.68.3Zm0-1.36c.83 0 1.46-.25 1.9-.74.45-.5.68-1.25.68-2.26V68.8c0-1.01-.23-1.77-.68-2.26-.44-.5-1.07-.74-1.9-.74-.83 0-1.47.25-1.92.74-.44.5-.66 1.25-.66 2.26v2.08c0 1.01.22 1.77.66 2.26.45.5 1.1.74 1.92.74Zm6.56-13.68h1.52v7.6l-.12 2.02h.16l1.44-1.94 2.58-3.2h1.84l-3.42 4.1 3.72 6.22h-1.82l-3.02-5.32-1.36 1.6V75h-1.52V60.2Zm12.87 15.04c-.6 0-1.16-.1-1.68-.3-.52-.2-.96-.52-1.34-.96-.37-.44-.66-1-.88-1.68a8.26 8.26 0 0 1-.32-2.46c0-.96.1-1.78.32-2.46.22-.68.5-1.24.88-1.68.38-.44.82-.76 1.34-.96a4.64 4.64 0 0 1 3.32 0c.5.2.94.52 1.28.96.35.44.62 1 .8 1.68.2.68.3 1.5.3 2.46v.38h-6.62v.66c0 1.01.23 1.77.68 2.28.47.5 1.1.74 1.92.74a3 3 0 0 0 1.7-.44c.44-.3.79-.76 1.04-1.36l1.04.76a3.94 3.94 0 0 1-3.78 2.38Zm0-9.52c-.82 0-1.46.26-1.92.78-.45.52-.68 1.29-.68 2.3v.26h5v-.26c0-2.05-.8-3.08-2.4-3.08Zm6.39 9.28V64.68h1.51v1.68h.2c.2-.64.51-1.12.93-1.44.42-.32 1-.48 1.71-.48.93 0 1.65.31 2.17.94.53.63.8 1.6.8 2.9V75h-1.52v-6.62c0-.83-.18-1.46-.52-1.9-.34-.44-.86-.66-1.57-.66-.6 0-1.13.19-1.55.56-.43.37-.64.9-.64 1.58V75h-1.52Z"/>
  <rect width="100" height="40" x="448" fill="#0B0F14" rx="20"/>
  <path fill="#fff" d="M473.33 26V14.83h4.11c1.85 0 2.77 1.06 2.77 3.19 0 2.12-.92 3.18-2.77 3.18h-2.83V26h-1.28Zm1.28-5.92h2.8c.95 0 1.42-.51 1.42-1.54V17.5c0-1.03-.47-1.54-1.42-1.54h-2.8v4.13Zm7.37-5.92h1.22v4.93h.16c.16-.51.4-.9.73-1.15.35-.26.8-.39 1.38-.39.74 0 1.31.25 1.73.75.42.5.64 1.28.64 2.32V26h-1.22v-5.3c0-.66-.14-1.16-.41-1.52-.27-.35-.69-.52-1.25-.52-.5 0-.9.15-1.25.44-.34.3-.51.72-.51 1.27V26h-1.22V14.16ZM495.4 26c-.79 0-1.18-.4-1.18-1.18v-.16h-.16c-.14.5-.4.88-.77 1.15-.36.25-.8.38-1.31.38-.8 0-1.4-.2-1.8-.6-.39-.41-.59-1-.59-1.8 0-.77.25-1.37.76-1.82.5-.45 1.3-.67 2.38-.67h1.49v-.92c0-.6-.14-1.05-.42-1.34-.27-.29-.7-.43-1.28-.43-.48 0-.87.1-1.17.32-.29.2-.54.5-.75.9l-.72-.68a2.95 2.95 0 0 1 2.69-1.58c.94 0 1.65.23 2.13.69.49.44.73 1.11.73 2v4.67h.83V26h-.86Zm-3.12-.86a2.22 2.22 0 0 0 1.39-.52c.17-.16.3-.33.4-.52.1-.2.15-.41.15-.63v-1.25h-1.52c-.64 0-1.11.11-1.41.32a1.1 1.1 0 0 0-.43.93v.45c0 .42.13.73.38.93.26.19.6.29 1.04.29Zm7.93 1.05c-.69 0-1.27-.14-1.76-.41a3.9 3.9 0 0 1-1.24-1.16l.85-.7c.3.4.6.71.93.93.34.21.75.32 1.22.32.48 0 .86-.12 1.13-.35.3-.25.44-.6.44-1.04 0-.37-.1-.66-.28-.88-.18-.23-.51-.38-1-.47l-.63-.11c-.8-.15-1.4-.4-1.8-.75-.38-.35-.57-.89-.57-1.6 0-.42.07-.78.2-1.07.12-.31.3-.56.54-.76.23-.2.51-.34.83-.43.33-.1.69-.14 1.07-.14a3.09 3.09 0 0 1 2.66 1.28l-.79.72a2.56 2.56 0 0 0-.71-.67c-.3-.2-.69-.3-1.16-.3-.97 0-1.45.43-1.45 1.32 0 .4.1.7.3.9.21.18.56.31 1.02.4l.63.1c.84.16 1.44.42 1.8.8.34.37.52.87.52 1.51 0 .8-.24 1.43-.7 1.89-.46.45-1.15.67-2.05.67Zm7.56 0c-.48 0-.93-.08-1.35-.24a2.63 2.63 0 0 1-1.07-.77c-.3-.35-.53-.8-.7-1.34a6.65 6.65 0 0 1-.26-1.97c0-.77.09-1.42.26-1.97.17-.54.4-.99.7-1.34.3-.35.66-.6 1.07-.77a3.71 3.71 0 0 1 2.66 0c.4.16.75.42 1.02.77.28.35.5.8.64 1.34.16.55.24 1.2.24 1.97v.3h-5.3v.53c0 .81.19 1.42.55 1.83a2 2 0 0 0 1.54.59c.55 0 1-.12 1.36-.35.35-.25.63-.61.83-1.09l.83.6a3.16 3.16 0 0 1-3.02 1.9Zm0-7.61c-.66 0-1.18.2-1.54.62-.36.42-.54 1.03-.54 1.84v.2h4v-.2c0-1.64-.64-2.46-1.92-2.46ZM516.3 26v-1.12h2.79v-9.1h-.1l-2.37 2.19-.72-.79 2.53-2.35h1.93v10.05h2.56V26h-6.62Z"/>
  <rect width="278" height="122" x="180" y="231" fill="#181D23" rx="23"/>
  <rect width="278" height="122" x="180" y="231" stroke="#46A6FF" stroke-width="2" rx="23"/>
  <path fill="#fff" d="M214.55 285v-13.96h1.6v12.56h5.3v1.4h-6.9Zm15.52 0c-.99 0-1.48-.5-1.48-1.48v-.2h-.2a2.6 2.6 0 0 1-.96 1.44c-.46.32-1 .48-1.64.48-1 0-1.75-.25-2.24-.76-.5-.5-.74-1.25-.74-2.24 0-.96.31-1.72.94-2.28.64-.56 1.63-.84 2.98-.84h1.86v-1.14c0-.76-.18-1.32-.52-1.68-.34-.36-.87-.54-1.6-.54-.6 0-1.09.13-1.46.4-.36.25-.68.63-.94 1.12l-.9-.84a3.7 3.7 0 0 1 3.36-1.98c1.17 0 2.06.29 2.66.86.61.56.92 1.4.92 2.5v5.84h1.04V285h-1.08Zm-3.9-1.08a2.72 2.72 0 0 0 1.74-.64c.21-.2.38-.42.5-.66.12-.25.18-.51.18-.78v-1.56h-1.9c-.8 0-1.39.13-1.76.4-.36.27-.54.65-.54 1.16v.56c0 .52.16.9.48 1.16.32.24.75.36 1.3.36Zm12.75-.6h-.2a2.8 2.8 0 0 1-.94 1.44c-.42.32-.99.48-1.7.48-.93 0-1.65-.31-2.19-.94-.51-.63-.77-1.6-.77-2.9v-6.72h1.51v6.62c0 .83.17 1.46.5 1.9.35.44.88.66 1.59.66.6 0 1.13-.19 1.56-.56a2 2 0 0 0 .63-1.58v-7.04h1.53V285h-1.53v-1.68Zm4.55 1.68v-10.32h1.52v1.68h.2c.2-.64.5-1.12.92-1.44.43-.32 1-.48 1.72-.48.92 0 1.64.31 2.16.94.53.63.8 1.6.8 2.9V285h-1.52v-6.62c0-.83-.17-1.46-.52-1.9-.33-.44-.85-.66-1.56-.66-.61 0-1.13.19-1.56.56-.43.37-.64.9-.64 1.58V285h-1.52Zm13.65.24a3.8 3.8 0 0 1-3.02-1.26c-.72-.84-1.08-2.22-1.08-4.14 0-1.92.36-3.3 1.08-4.14a3.8 3.8 0 0 1 3.02-1.26 3.64 3.64 0 0 1 3.6 2.38l-1.26.64a2.4 2.4 0 0 0-.82-1.22 2.4 2.4 0 0 0-1.52-.44c-.84 0-1.46.25-1.86.74-.4.5-.6 1.25-.6 2.26v2.08c0 1.01.2 1.77.6 2.26.4.5 1.02.74 1.86.74.67 0 1.2-.15 1.6-.44.42-.3.74-.74.98-1.34l1.12.78a3.76 3.76 0 0 1-3.7 2.36Zm5.69-15.04h1.51v6.16h.2c.2-.64.51-1.12.93-1.44.42-.32 1-.48 1.72-.48.91 0 1.63.31 2.15.94.54.63.8 1.6.8 2.9V285h-1.51v-6.62c0-.83-.18-1.46-.53-1.9-.33-.44-.85-.66-1.56-.66-.6 0-1.13.19-1.56.56a2 2 0 0 0-.63 1.58V285h-1.52v-14.8Zm22.75 12.86h-.2a2.6 2.6 0 0 1-1.08 1.56c-.56.41-1.36.62-2.38.62-.76 0-1.46-.14-2.08-.42a4.22 4.22 0 0 1-1.6-1.32 6.73 6.73 0 0 1-1.04-2.24c-.24-.92-.36-2-.36-3.24 0-2.5.46-4.32 1.4-5.48a4.77 4.77 0 0 1 3.94-1.74c1.22 0 2.2.27 2.94.8.73.52 1.3 1.24 1.72 2.16l-1.32.8a3.65 3.65 0 0 0-1.22-1.72 3.42 3.42 0 0 0-2.12-.62c-1.16 0-2.06.39-2.68 1.16a4.7 4.7 0 0 0-.94 3.08v3.12c0 1.3.31 2.33.94 3.1a3.28 3.28 0 0 0 2.68 1.14c.45 0 .88-.07 1.28-.2a2.84 2.84 0 0 0 2.04-2.84v-1.52h-2.76v-1.4h4.32V285h-1.48v-1.94Zm5.92-12.02v9.04c0 .63.04 1.17.14 1.64s.27.86.5 1.18c.22.3.52.54.9.7.38.15.85.22 1.4.22 1.09 0 1.85-.3 2.28-.92.44-.63.66-1.57.66-2.82v-9.04h1.6v8.72c0 .93-.08 1.75-.24 2.44a4.26 4.26 0 0 1-.78 1.7c-.35.45-.82.8-1.4 1.02-.58.21-1.28.32-2.12.32a6.3 6.3 0 0 1-2.14-.32 3.3 3.3 0 0 1-1.4-1.02 4.44 4.44 0 0 1-.76-1.7c-.16-.7-.24-1.5-.24-2.44v-8.72h1.6ZM303.8 285h-1.6v-13.96h5.14c2.31 0 3.46 1.33 3.46 3.98 0 2.24-.82 3.53-2.48 3.88l2.82 6.1h-1.8l-2.62-6h-2.92v6Zm3.5-7.36c1.19 0 1.78-.64 1.78-1.92v-1.36c0-1.28-.59-1.92-1.78-1.92h-3.5v5.2h3.5Zm7.77-6.6v9.04c0 .63.05 1.17.14 1.64.1.47.27.86.5 1.18.23.3.53.54.9.7.39.15.85.22 1.4.22 1.1 0 1.85-.3 2.28-.92.44-.63.66-1.57.66-2.82v-9.04h1.6v8.72c0 .93-.08 1.75-.24 2.44a4.26 4.26 0 0 1-.78 1.7c-.35.45-.81.8-1.4 1.02-.57.21-1.28.32-2.12.32a6.3 6.3 0 0 1-2.14-.32 3.3 3.3 0 0 1-1.4-1.02 4.43 4.43 0 0 1-.76-1.7c-.16-.7-.24-1.5-.24-2.44v-8.72h1.6ZM330.04 285v-13.96h5.13c2.31 0 3.46 1.33 3.46 3.98s-1.15 3.98-3.45 3.98h-3.55v6h-1.6Zm1.6-7.4h3.5c1.18 0 1.78-.64 1.78-1.92v-1.32c0-1.28-.6-1.92-1.79-1.92h-3.5v5.16Zm10.77 7.4c-.55 0-.95-.12-1.2-.36-.24-.25-.36-.65-.36-1.2V270.2h1.52v13.46h1.3V285h-1.26Zm9.9 0c-.98 0-1.48-.5-1.48-1.48v-.2h-.2a2.5 2.5 0 0 1-.96 1.44c-.45.32-1 .48-1.64.48-1 0-1.74-.25-2.24-.76-.49-.5-.74-1.25-.74-2.24 0-.96.32-1.72.94-2.28.64-.56 1.64-.84 2.98-.84h1.86v-1.14c0-.76-.17-1.32-.52-1.68-.33-.36-.86-.54-1.6-.54-.6 0-1.08.13-1.46.4-.36.25-.67.63-.94 1.12l-.9-.84a3.7 3.7 0 0 1 3.36-1.98c1.18 0 2.06.29 2.66.86.62.56.92 1.4.92 2.5v5.84h1.04V285h-1.08Zm-3.9-1.08c.35 0 .67-.06.96-.18a2.22 2.22 0 0 0 1.28-1.12c.12-.25.18-.51.18-.78v-1.56h-1.9c-.8 0-1.38.13-1.76.4-.36.27-.54.65-.54 1.16v.56c0 .52.16.9.48 1.16.32.24.76.36 1.3.36Zm9.11 1.08c-.54 0-.94-.12-1.2-.36-.24-.25-.36-.65-.36-1.2v-7.42h-1.52v-1.34h.9c.3 0 .5-.07.6-.22.1-.16.16-.4.16-.7v-1.92h1.38v2.84h2v1.34h-2v7.64h1.9V285h-1.86Zm4.63-8.98h-1.5v-1.34h1.5v-2.52c0-.68.16-1.17.46-1.48.32-.32.82-.48 1.5-.48h1.54v1.34h-1.98v3.14h1.98v1.34h-1.98V285h-1.52v-8.98Zm8.8 9.22c-.6 0-1.16-.1-1.68-.3-.52-.2-.96-.52-1.34-.96-.37-.44-.66-1-.88-1.68a8.3 8.3 0 0 1-.32-2.46c0-.96.11-1.78.32-2.46.22-.68.51-1.24.88-1.68.38-.44.82-.76 1.34-.96.52-.2 1.08-.3 1.68-.3.6 0 1.16.1 1.68.3.52.2.97.52 1.34.96.38.44.67 1 .88 1.68.22.68.32 1.5.32 2.46s-.1 1.78-.32 2.46c-.2.68-.5 1.24-.88 1.68-.37.44-.82.76-1.34.96-.52.2-1.08.3-1.68.3Zm0-1.36c.83 0 1.46-.25 1.9-.74.46-.5.68-1.25.68-2.26v-2.08c0-1.01-.22-1.77-.68-2.26-.44-.5-1.07-.74-1.9-.74a2.5 2.5 0 0 0-1.92.74c-.44.5-.66 1.25-.66 2.26v2.08c0 1.01.22 1.77.66 2.26.46.5 1.1.74 1.92.74Zm6.56 1.12v-10.32h1.52v1.92h.2c.18-.6.47-1.07.88-1.4.43-.35.98-.52 1.66-.52h.56v1.54h-1c-.72 0-1.28.16-1.7.48-.4.32-.6.8-.6 1.44V285h-1.52Zm6.64 0v-10.32h1.52v1.68h.2a3 3 0 0 1 .88-1.44 2.5 2.5 0 0 1 1.64-.48c.64 0 1.18.16 1.62.48.46.3.8.79 1.02 1.44h.2c.22-.64.55-1.12 1-1.44a3.06 3.06 0 0 1 1.8-.48c.88 0 1.59.31 2.12.94.54.63.8 1.6.8 2.9V285h-1.52v-6.62a3.1 3.1 0 0 0-.5-1.9c-.32-.44-.82-.66-1.5-.66-.6 0-1.1.19-1.52.56-.4.37-.6.9-.6 1.58V285h-1.52v-6.62a3.1 3.1 0 0 0-.5-1.9c-.32-.44-.82-.66-1.5-.66-.6 0-1.1.19-1.52.56-.4.37-.6.9-.6 1.58V285h-1.52Zm20.48-8.98h-1.5v-1.34h1.5v-2.52c0-.68.16-1.17.46-1.48.32-.32.82-.48 1.5-.48h1.54v1.34h-1.98v3.14h1.98v1.34h-1.98V285h-1.52v-8.98Zm8.8 9.22c-.6 0-1.16-.1-1.68-.3a3.3 3.3 0 0 1-1.33-.96c-.38-.44-.67-1-.88-1.68a8.26 8.26 0 0 1-.33-2.46c0-.96.11-1.78.33-2.46.2-.68.5-1.24.88-1.68.37-.44.81-.76 1.33-.96.52-.2 1.08-.3 1.69-.3.6 0 1.16.1 1.68.3.51.2.96.52 1.33.96.38.44.67 1 .88 1.68.22.68.32 1.5.32 2.46s-.1 1.78-.31 2.46a4.94 4.94 0 0 1-.88 1.68c-.38.44-.82.76-1.34.96-.52.2-1.08.3-1.69.3Zm0-1.36c.83 0 1.46-.25 1.9-.74.46-.5.69-1.25.69-2.26v-2.08c0-1.01-.23-1.77-.69-2.26-.44-.5-1.07-.74-1.9-.74a2.5 2.5 0 0 0-1.92.74c-.44.5-.65 1.25-.65 2.26v2.08c0 1.01.21 1.77.65 2.26.46.5 1.1.74 1.93.74ZM420 285v-10.32h1.52v1.92h.2c.18-.6.47-1.07.88-1.4.43-.35.98-.52 1.66-.52h.56v1.54h-1c-.72 0-1.28.16-1.7.48-.4.32-.6.8-.6 1.44V285H420Zm-178.3 30v-13.96h7.72v1.4h-6.13v4.8h5.75v1.4h-5.75v4.96h6.13v1.4h-7.72Zm13.59.24a3.8 3.8 0 0 1-3.02-1.26c-.72-.84-1.08-2.22-1.08-4.14 0-1.92.36-3.3 1.08-4.14a3.8 3.8 0 0 1 3.02-1.26 3.64 3.64 0 0 1 3.6 2.38l-1.26.64a2.4 2.4 0 0 0-.82-1.22 2.4 2.4 0 0 0-1.52-.44c-.84 0-1.46.25-1.86.74-.4.5-.6 1.25-.6 2.26v2.08c0 1.01.2 1.77.6 2.26.4.5 1.02.74 1.86.74.66 0 1.2-.15 1.6-.44.41-.3.74-.74.98-1.34l1.12.78c-.3.72-.78 1.3-1.4 1.72-.62.43-1.38.64-2.3.64Zm9.06 0c-.6 0-1.16-.1-1.68-.3-.52-.2-.96-.52-1.34-.96-.37-.44-.66-1-.88-1.68a8.26 8.26 0 0 1-.32-2.46c0-.96.1-1.78.32-2.46.22-.68.5-1.24.88-1.68.38-.44.82-.76 1.34-.96.52-.2 1.08-.3 1.68-.3.6 0 1.16.1 1.68.3.52.2.97.52 1.34.96.38.44.67 1 .88 1.68.22.68.32 1.5.32 2.46s-.1 1.78-.32 2.46c-.21.68-.5 1.24-.88 1.68-.37.44-.82.76-1.34.96-.52.2-1.08.3-1.68.3Zm0-1.36c.83 0 1.46-.25 1.9-.74.46-.5.68-1.25.68-2.26v-2.08c0-1.01-.22-1.77-.68-2.26-.44-.5-1.07-.74-1.9-.74a2.5 2.5 0 0 0-1.92.74c-.44.5-.66 1.25-.66 2.26v2.08c0 1.01.22 1.77.66 2.26.46.5 1.1.74 1.92.74Zm9.42 1.36a4.4 4.4 0 0 1-2.2-.52 4.8 4.8 0 0 1-1.54-1.44l1.06-.88c.36.5.75.9 1.16 1.16.43.27.93.4 1.52.4.6 0 1.07-.15 1.42-.44.36-.3.54-.74.54-1.3 0-.45-.11-.82-.34-1.1-.23-.28-.65-.47-1.26-.58l-.78-.14a4.6 4.6 0 0 1-2.24-.94c-.48-.44-.72-1.1-.72-2 0-.52.08-.97.24-1.34.16-.39.39-.7.68-.94.3-.25.64-.43 1.04-.54.41-.12.86-.18 1.34-.18a3.88 3.88 0 0 1 3.32 1.6l-.98.9a3.3 3.3 0 0 0-.9-.84 2.51 2.51 0 0 0-1.44-.38c-1.21 0-1.82.55-1.82 1.66 0 .5.13.88.38 1.12.27.23.7.4 1.28.5l.78.14c1.05.19 1.8.51 2.24.98.44.47.66 1.1.66 1.9 0 1-.3 1.79-.88 2.36-.57.56-1.43.84-2.56.84Zm11.31-10.56h1.49l-4.08 12.96c-.09.27-.17.49-.27.66a.92.92 0 0 1-.35.42c-.14.1-.3.18-.5.22-.2.04-.43.06-.73.06h-1.12v-1.34h1.59l.6-2.1-3.43-10.88h1.53l1.57 5.2.96 3.78h.2l.97-3.78 1.57-5.2Zm6.23 10.56a4.4 4.4 0 0 1-2.2-.52 4.8 4.8 0 0 1-1.54-1.44l1.06-.88c.36.5.75.9 1.16 1.16.43.27.93.4 1.52.4.6 0 1.07-.15 1.42-.44.36-.3.54-.74.54-1.3 0-.45-.11-.82-.34-1.1-.23-.28-.65-.47-1.26-.58l-.78-.14a4.6 4.6 0 0 1-2.24-.94c-.48-.44-.72-1.1-.72-2 0-.52.08-.97.24-1.34.16-.39.39-.7.68-.94.3-.25.64-.43 1.04-.54.41-.12.86-.18 1.34-.18a3.88 3.88 0 0 1 3.32 1.6l-.98.9a3.3 3.3 0 0 0-.9-.84 2.51 2.51 0 0 0-1.44-.38c-1.21 0-1.82.55-1.82 1.66 0 .5.13.88.38 1.12.27.23.7.4 1.28.5l.78.14c1.05.19 1.8.51 2.24.98.44.47.66 1.1.66 1.9 0 1-.3 1.79-.88 2.36-.57.56-1.43.84-2.56.84Zm7.97-.24c-.55 0-.95-.12-1.2-.36-.24-.25-.36-.65-.36-1.2v-7.42h-1.52v-1.34h.9c.3 0 .5-.07.6-.22.1-.16.16-.4.16-.7v-1.92h1.38v2.84h2v1.34h-2v7.64h1.9V315h-1.86Zm7.73.24c-.6 0-1.16-.1-1.68-.3-.52-.2-.97-.52-1.34-.96-.37-.44-.67-1-.88-1.68a8.3 8.3 0 0 1-.32-2.46c0-.96.1-1.78.32-2.46.21-.68.5-1.24.88-1.68.37-.44.82-.76 1.34-.96a4.64 4.64 0 0 1 3.32 0c.5.2.93.52 1.28.96.35.44.61 1 .8 1.68.2.68.3 1.5.3 2.46v.38h-6.62v.66c0 1.01.23 1.77.68 2.28.47.5 1.1.74 1.92.74.7 0 1.26-.15 1.7-.44.44-.3.79-.76 1.04-1.36l1.04.76a3.94 3.94 0 0 1-3.78 2.38Zm0-9.52a2.4 2.4 0 0 0-1.92.78c-.45.52-.68 1.29-.68 2.3v.26h5v-.26c0-2.05-.8-3.08-2.4-3.08Zm6.38 9.28v-10.32h1.52v1.68h.2a3 3 0 0 1 .88-1.44 2.5 2.5 0 0 1 1.64-.48c.64 0 1.18.16 1.62.48.45.3.8.79 1.02 1.44h.2c.22-.64.55-1.12 1-1.44a3.06 3.06 0 0 1 1.8-.48c.88 0 1.59.31 2.12.94.54.63.8 1.6.8 2.9V315h-1.52v-6.62a3.1 3.1 0 0 0-.5-1.9c-.32-.44-.82-.66-1.5-.66-.6 0-1.1.19-1.52.56-.4.37-.6.9-.6 1.58V315h-1.52v-6.62a3.1 3.1 0 0 0-.5-1.9c-.32-.44-.82-.66-1.5-.66-.6 0-1.1.19-1.52.56-.4.37-.6.9-.6 1.58V315h-1.52Zm20.12 0v-13.96h5.14c2.3 0 3.46 1.33 3.46 3.98s-1.15 3.98-3.46 3.98h-3.54v6h-1.6Zm1.6-7.4h3.5c1.19 0 1.78-.64 1.78-1.92v-1.32c0-1.28-.6-1.92-1.78-1.92h-3.5v5.16Zm9.02 7.4v-10.32h1.52v1.92h.2c.18-.6.47-1.07.88-1.4.43-.35.98-.52 1.66-.52h.56v1.54h-1c-.72 0-1.28.16-1.7.48-.4.32-.6.8-.6 1.44V315h-1.52Zm10.13.24c-.6 0-1.17-.1-1.69-.3a3.3 3.3 0 0 1-1.33-.96c-.38-.44-.67-1-.88-1.68a8.3 8.3 0 0 1-.33-2.46c0-.96.11-1.78.33-2.46.2-.68.5-1.24.88-1.68.37-.44.81-.76 1.33-.96.52-.2 1.08-.3 1.69-.3.6 0 1.15.1 1.68.3.51.2.96.52 1.33.96.38.44.67 1 .88 1.68.22.68.32 1.5.32 2.46s-.1 1.78-.31 2.46a4.94 4.94 0 0 1-.88 1.68c-.38.44-.82.76-1.34.96-.53.2-1.08.3-1.69.3Zm0-1.36c.82 0 1.45-.25 1.9-.74.45-.5.68-1.25.68-2.26v-2.08c0-1.01-.23-1.77-.69-2.26-.44-.5-1.07-.74-1.9-.74a2.5 2.5 0 0 0-1.92.74c-.44.5-.65 1.25-.65 2.26v2.08c0 1.01.21 1.77.65 2.26.46.5 1.1.74 1.93.74Zm6.55-9.2h1.52v12.36c0 .68-.16 1.17-.48 1.48-.3.32-.8.48-1.48.48h-1.08v-1.34h1.52v-12.98Zm.76-2.5c-.62 0-.94-.27-.94-.82v-.32c0-.55.32-.82.94-.82.63 0 .94.27.94.82v.32c0 .55-.31.82-.94.82Zm7.31 13.06c-.6 0-1.16-.1-1.68-.3-.52-.2-.96-.52-1.34-.96-.37-.44-.66-1-.88-1.68a8.3 8.3 0 0 1-.32-2.46c0-.96.11-1.78.32-2.46.22-.68.51-1.24.88-1.68.38-.44.82-.76 1.34-.96a4.64 4.64 0 0 1 3.32 0c.51.2.94.52 1.28.96.35.44.62 1 .8 1.68.2.68.3 1.5.3 2.46v.38h-6.62v.66c0 1.01.23 1.77.68 2.28.47.5 1.11.74 1.92.74.7 0 1.26-.15 1.7-.44.44-.3.8-.76 1.04-1.36l1.04.76a3.95 3.95 0 0 1-3.78 2.38Zm0-9.52c-.82 0-1.46.26-1.92.78-.45.52-.68 1.29-.68 2.3v.26h5v-.26c0-2.05-.8-3.08-2.4-3.08Zm9.79 9.52a3.8 3.8 0 0 1-3.02-1.26c-.72-.84-1.08-2.22-1.08-4.14 0-1.92.36-3.3 1.08-4.14a3.8 3.8 0 0 1 3.02-1.26 3.64 3.64 0 0 1 3.6 2.38l-1.26.64a2.4 2.4 0 0 0-.82-1.22 2.4 2.4 0 0 0-1.52-.44c-.84 0-1.46.25-1.86.74-.4.5-.6 1.25-.6 2.26v2.08c0 1.01.2 1.77.6 2.26.4.5 1.02.74 1.86.74.66 0 1.2-.15 1.6-.44.41-.3.74-.74.98-1.34l1.12.78a3.9 3.9 0 0 1-1.4 1.72c-.62.43-1.38.64-2.3.64Zm7.76-.24c-.55 0-.95-.12-1.2-.36-.24-.25-.36-.65-.36-1.2v-7.42h-1.52v-1.34h.9c.3 0 .5-.07.6-.22.1-.16.16-.4.16-.7v-1.92h1.38v2.84h2v1.34h-2v7.64h1.9V315h-1.86Zm7.15.24a4.4 4.4 0 0 1-2.2-.52 4.79 4.79 0 0 1-1.54-1.44l1.06-.88c.36.5.74.9 1.16 1.16.42.27.93.4 1.52.4.6 0 1.07-.15 1.42-.44.36-.3.54-.74.54-1.3 0-.45-.12-.82-.34-1.1-.23-.28-.65-.47-1.26-.58l-.78-.14a4.6 4.6 0 0 1-2.24-.94c-.48-.44-.72-1.1-.72-2 0-.52.08-.97.24-1.34.16-.39.38-.7.68-.94.29-.25.64-.43 1.04-.54.4-.12.86-.18 1.34-.18a3.88 3.88 0 0 1 3.32 1.6l-.98.9a3.3 3.3 0 0 0-.9-.84 2.52 2.52 0 0 0-1.44-.38c-1.22 0-1.82.55-1.82 1.66 0 .5.12.88.38 1.12.26.23.69.4 1.28.5l.78.14c1.05.19 1.8.51 2.24.98.44.47.66 1.1.66 1.9 0 1-.3 1.79-.88 2.36-.58.56-1.43.84-2.56.84Z"/>
  <rect width="100" height="40" x="269" y="210" fill="#0B0F14" rx="20"/>
  <path fill="#fff" d="M294.33 236v-11.17h4.11c1.85 0 2.77 1.06 2.77 3.19 0 2.12-.92 3.18-2.77 3.18h-2.83v4.8h-1.28Zm1.28-5.92h2.8c.95 0 1.42-.51 1.42-1.54v-1.05c0-1.03-.47-1.54-1.42-1.54h-2.8v4.13Zm7.37-5.92h1.22v4.93h.16c.16-.51.4-.9.73-1.15.35-.26.8-.39 1.38-.39.74 0 1.31.25 1.73.75.42.5.64 1.28.64 2.32V236h-1.22v-5.3c0-.66-.14-1.16-.41-1.52-.27-.35-.69-.52-1.25-.52-.5 0-.9.15-1.25.44-.34.3-.51.72-.51 1.27V236h-1.22v-11.84ZM316.4 236c-.79 0-1.18-.4-1.18-1.18v-.16h-.16c-.14.5-.4.88-.77 1.15-.36.25-.8.38-1.31.38-.8 0-1.4-.2-1.8-.6-.39-.41-.59-1-.59-1.8 0-.77.25-1.37.76-1.82.5-.45 1.3-.67 2.38-.67h1.49v-.92c0-.6-.14-1.05-.42-1.34-.27-.29-.7-.43-1.28-.43-.48 0-.87.1-1.17.32-.29.2-.54.5-.75.9l-.72-.68a2.96 2.96 0 0 1 2.69-1.58c.94 0 1.65.23 2.13.69.49.44.73 1.11.73 2v4.67h.83V236h-.86Zm-3.12-.86a2.22 2.22 0 0 0 1.39-.52c.17-.16.3-.33.4-.52.1-.2.15-.41.15-.63v-1.25h-1.52c-.64 0-1.11.11-1.41.32a1.1 1.1 0 0 0-.43.93v.45c0 .42.13.73.38.93.26.19.6.29 1.04.29Zm7.93 1.05c-.69 0-1.27-.14-1.76-.41a3.8 3.8 0 0 1-1.24-1.16l.85-.7c.3.4.6.72.93.93.34.21.75.32 1.22.32.48 0 .86-.12 1.13-.35.3-.25.44-.6.44-1.04 0-.37-.1-.66-.28-.88-.18-.23-.51-.38-1-.47l-.63-.11c-.8-.15-1.4-.4-1.8-.75-.38-.35-.57-.89-.57-1.6 0-.42.07-.78.2-1.07.12-.31.3-.56.54-.76.23-.2.51-.34.83-.43.33-.1.69-.14 1.07-.14a3.09 3.09 0 0 1 2.66 1.28l-.79.72a2.56 2.56 0 0 0-.71-.67c-.3-.2-.69-.3-1.16-.3-.97 0-1.45.44-1.45 1.32 0 .4.1.7.3.9.21.18.56.31 1.02.4l.63.1c.84.16 1.44.42 1.8.8.34.37.52.87.52 1.51 0 .8-.24 1.43-.7 1.89-.46.45-1.15.67-2.05.67Zm7.56 0c-.48 0-.93-.08-1.35-.24a2.63 2.63 0 0 1-1.07-.77c-.3-.35-.53-.8-.7-1.34a6.65 6.65 0 0 1-.26-1.97c0-.77.09-1.42.26-1.97.17-.54.4-.99.7-1.34.3-.35.66-.6 1.07-.77a3.71 3.71 0 0 1 2.66 0c.4.16.75.42 1.02.77.28.35.5.8.64 1.34.16.55.24 1.2.24 1.97v.3h-5.3v.53c0 .81.19 1.42.55 1.83a2 2 0 0 0 1.54.59c.55 0 1-.12 1.36-.35.35-.25.63-.61.83-1.09l.83.6a3.16 3.16 0 0 1-3.02 1.9Zm0-7.61c-.66 0-1.18.2-1.54.62-.36.42-.54 1.03-.54 1.84v.2h4v-.2c0-1.64-.64-2.46-1.92-2.46Zm14.97 7.42h-6.64v-1.33l3.4-3.52c.54-.55.93-1.06 1.16-1.53.25-.48.37-.96.37-1.43v-.41c0-1.34-.58-2-1.74-2-.58 0-1.04.15-1.4.44-.34.3-.58.72-.71 1.27l-1.13-.45a3.68 3.68 0 0 1 1.14-1.71 3.45 3.45 0 0 1 2.13-.69c1.04 0 1.81.27 2.3.82.5.53.75 1.32.75 2.36a3.87 3.87 0 0 1-.43 1.97c-.16.31-.38.64-.65 1-.27.34-.61.72-1.03 1.16l-2.78 2.93h5.26V236Z"/>
  <rect width="278" height="122" x="1" y="471" fill="#181D23" rx="23"/>
  <rect width="278" height="122" x="1" y="471" stroke="#9488F0" stroke-width="2" rx="23"/>
  <path fill="#fff" d="M39.29 525v-13.96h1.6v12.56h5.3v1.4h-6.9Zm15.52 0c-.99 0-1.48-.5-1.48-1.48v-.2h-.2a2.6 2.6 0 0 1-.96 1.44c-.46.32-1 .48-1.64.48-1 0-1.75-.25-2.24-.76-.5-.5-.74-1.25-.74-2.24 0-.96.31-1.72.94-2.28.64-.56 1.63-.84 2.98-.84h1.86v-1.14c0-.76-.18-1.32-.52-1.68-.34-.36-.87-.54-1.6-.54-.6 0-1.09.13-1.46.4-.36.25-.68.63-.94 1.12l-.9-.84a3.69 3.69 0 0 1 3.36-1.98c1.17 0 2.06.29 2.66.86.61.56.92 1.4.92 2.5v5.84h1.04V525H54.8Zm-3.9-1.08a2.72 2.72 0 0 0 1.74-.64c.21-.2.38-.42.5-.66.12-.25.18-.51.18-.78v-1.56h-1.9c-.8 0-1.39.13-1.76.4-.36.27-.54.65-.54 1.16v.56c0 .52.16.9.48 1.16.32.24.75.36 1.3.36Zm12.75-.6h-.2a2.8 2.8 0 0 1-.94 1.44c-.42.32-.98.48-1.7.48a2.7 2.7 0 0 1-2.18-.94c-.52-.63-.78-1.6-.78-2.9v-6.72h1.52v6.62c0 .83.16 1.46.5 1.9.34.44.87.66 1.58.66.6 0 1.13-.19 1.56-.56a2 2 0 0 0 .64-1.58v-7.04h1.52V525h-1.52v-1.68ZM68.2 525v-10.32h1.52v1.68h.2c.2-.64.5-1.12.92-1.44.43-.32 1-.48 1.72-.48.92 0 1.64.31 2.16.94.53.63.8 1.6.8 2.9V525H74v-6.62c0-.83-.17-1.46-.52-1.9-.33-.44-.85-.66-1.56-.66-.61 0-1.13.19-1.56.56-.43.37-.64.9-.64 1.58V525H68.2Zm13.65.24a3.8 3.8 0 0 1-3.02-1.26c-.72-.84-1.08-2.22-1.08-4.14 0-1.92.36-3.3 1.08-4.14a3.8 3.8 0 0 1 3.02-1.26 3.64 3.64 0 0 1 3.6 2.38l-1.26.64a2.4 2.4 0 0 0-.82-1.22 2.4 2.4 0 0 0-1.52-.44c-.84 0-1.46.25-1.86.74-.4.5-.6 1.25-.6 2.26v2.08c0 1.01.2 1.77.6 2.26.4.5 1.02.74 1.86.74.67 0 1.2-.15 1.6-.44.42-.3.74-.74.98-1.34l1.12.78a3.76 3.76 0 0 1-3.7 2.36Zm5.69-15.04h1.52v6.16h.2c.2-.64.5-1.12.92-1.44.42-.32 1-.48 1.72-.48.92 0 1.64.31 2.16.94.53.63.8 1.6.8 2.9V525h-1.52v-6.62c0-.83-.18-1.46-.52-1.9-.34-.44-.86-.66-1.56-.66-.62 0-1.14.19-1.56.56-.43.37-.64.9-.64 1.58V525h-1.52v-14.8Zm18 15.04c-.6 0-1.15-.1-1.67-.3-.52-.2-.97-.52-1.34-.96-.38-.44-.67-1-.88-1.68a8.26 8.26 0 0 1-.32-2.46c0-.96.1-1.78.32-2.46.21-.68.5-1.24.88-1.68.37-.44.82-.76 1.34-.96.52-.2 1.08-.3 1.68-.3.6 0 1.16.1 1.68.3.52.2.96.52 1.34.96.37.44.66 1 .88 1.68.21.68.32 1.5.32 2.46s-.1 1.78-.32 2.46c-.22.68-.5 1.24-.88 1.68-.38.44-.82.76-1.34.96-.52.2-1.08.3-1.68.3Zm0-1.36c.83 0 1.47-.25 1.9-.74.46-.5.69-1.25.69-2.26v-2.08c0-1.01-.23-1.77-.68-2.26-.44-.5-1.08-.74-1.9-.74-.83 0-1.47.25-1.92.74-.44.5-.66 1.25-.66 2.26v2.08c0 1.01.22 1.77.66 2.26.45.5 1.1.74 1.92.74Zm7-7.86h-1.5v-1.34h1.5v-2.52c0-.68.16-1.17.47-1.48.32-.32.82-.48 1.5-.48h1.54v1.34h-1.98v3.14h1.98v1.34h-1.98V525h-1.52v-8.98Zm17.88 7.04h-.2c-.14.63-.5 1.15-1.08 1.56-.56.41-1.35.62-2.38.62-.76 0-1.45-.14-2.08-.42a4.22 4.22 0 0 1-1.6-1.32 6.73 6.73 0 0 1-1.04-2.24c-.24-.92-.36-2-.36-3.24 0-2.5.47-4.32 1.4-5.48a4.77 4.77 0 0 1 3.94-1.74 4.9 4.9 0 0 1 2.94.8 5.1 5.1 0 0 1 1.72 2.16l-1.32.8a3.65 3.65 0 0 0-1.22-1.72 3.42 3.42 0 0 0-2.12-.62c-1.16 0-2.05.39-2.68 1.16a4.7 4.7 0 0 0-.94 3.08v3.12c0 1.3.32 2.33.94 3.1a3.28 3.28 0 0 0 2.68 1.14c.46 0 .88-.07 1.28-.2a2.84 2.84 0 0 0 2.04-2.84v-1.52h-2.76v-1.4h4.32V525h-1.48v-1.94Zm5.92-12.02v9.04c0 .63.05 1.17.14 1.64.11.47.28.86.5 1.18.23.3.53.54.9.7.39.15.86.22 1.4.22 1.1 0 1.86-.3 2.28-.92.44-.63.66-1.57.66-2.82v-9.04h1.6v8.72c0 .93-.08 1.75-.24 2.44a4.26 4.26 0 0 1-.78 1.7c-.34.45-.81.8-1.4 1.02-.57.21-1.28.32-2.12.32a6.3 6.3 0 0 1-2.14-.32 3.3 3.3 0 0 1-1.4-1.02 4.44 4.44 0 0 1-.76-1.7c-.16-.7-.24-1.5-.24-2.44v-8.72h1.6ZM148.68 525h-1.6v-13.96h5.14c2.3 0 3.46 1.33 3.46 3.98 0 2.24-.83 3.53-2.48 3.88l2.82 6.1h-1.8l-2.62-6h-2.92v6Zm3.5-7.36c1.19 0 1.78-.64 1.78-1.92v-1.36c0-1.28-.6-1.92-1.78-1.92h-3.5v5.2h3.5Zm7.77-6.6v9.04c0 .63.04 1.17.14 1.64s.27.86.5 1.18c.22.3.52.54.9.7.38.15.85.22 1.4.22 1.09 0 1.85-.3 2.28-.92.44-.63.66-1.57.66-2.82v-9.04h1.6v8.72c0 .93-.08 1.75-.24 2.44a4.26 4.26 0 0 1-.78 1.7c-.35.45-.82.8-1.4 1.02-.58.21-1.28.32-2.12.32a6.3 6.3 0 0 1-2.14-.32 3.3 3.3 0 0 1-1.4-1.02 4.43 4.43 0 0 1-.76-1.7c-.16-.7-.24-1.5-.24-2.44v-8.72h1.6Zm17.8 4.9-1.22-2.88h-.2l.14 2.88V525h-1.56v-13.96h1.96l4.64 9.06 1.22 2.88h.2l-.14-2.88v-9.06h1.56V525h-1.96l-4.64-9.06Zm13.28 9.3c-.6 0-1.16-.1-1.68-.3-.52-.2-.97-.52-1.34-.96-.38-.44-.67-1-.88-1.68a8.3 8.3 0 0 1-.32-2.46c0-.96.1-1.78.32-2.46.21-.68.5-1.24.88-1.68.37-.44.82-.76 1.34-.96a4.64 4.64 0 0 1 3.32 0c.5.2.93.52 1.28.96.34.44.61 1 .8 1.68.2.68.3 1.5.3 2.46v.38h-6.62v.66c0 1.01.22 1.77.68 2.28.46.5 1.1.74 1.92.74a3 3 0 0 0 1.7-.44c.44-.3.78-.76 1.04-1.36l1.04.76c-.32.7-.8 1.28-1.42 1.72-.62.44-1.4.66-2.36.66Zm0-9.52a2.4 2.4 0 0 0-1.92.78c-.46.52-.68 1.29-.68 2.3v.26h5v-.26c0-2.05-.8-3.08-2.4-3.08Zm8.46 9.28c-.55 0-.95-.12-1.2-.36-.24-.25-.36-.65-.36-1.2v-7.42h-1.52v-1.34h.9c.3 0 .5-.07.6-.22.1-.16.16-.4.16-.7v-1.92h1.38v2.84h2v1.34h-2v7.64h1.9V525h-1.86Zm3.3-10.32h1.49l1 4.48.88 4.5h.2l1.02-4.5 1.04-4.48h1.76l1.04 4.48 1.02 4.5h.2l.88-4.5 1-4.48h1.44L213.28 525h-1.92l-1.26-5-.7-3.78h-.2l-.74 3.78-1.26 5h-1.92l-2.48-10.32Zm18.37 10.56c-.6 0-1.16-.1-1.68-.3-.52-.2-.96-.52-1.34-.96-.37-.44-.66-1-.88-1.68a8.3 8.3 0 0 1-.32-2.46c0-.96.11-1.78.32-2.46.22-.68.51-1.24.88-1.68.38-.44.82-.76 1.34-.96.52-.2 1.08-.3 1.68-.3.6 0 1.16.1 1.68.3.52.2.97.52 1.34.96.38.44.67 1 .88 1.68.22.68.32 1.5.32 2.46s-.1 1.78-.32 2.46c-.21.68-.5 1.24-.88 1.68-.37.44-.82.76-1.34.96-.52.2-1.08.3-1.68.3Zm0-1.36c.83 0 1.46-.25 1.9-.74.46-.5.68-1.25.68-2.26v-2.08c0-1.01-.22-1.77-.68-2.26-.44-.5-1.07-.74-1.9-.74a2.5 2.5 0 0 0-1.92.74c-.44.5-.66 1.25-.66 2.26v2.08c0 1.01.22 1.77.66 2.26.46.5 1.1.74 1.92.74Zm6.56 1.12v-10.32h1.52v1.92h.2c.18-.6.47-1.07.88-1.4.43-.35.98-.52 1.66-.52h.56v1.54h-1c-.72 0-1.28.16-1.7.48-.4.32-.6.8-.6 1.44V525h-1.52Zm6.64-14.8h1.52v7.6l-.12 2.02h.16l1.44-1.94 2.58-3.2h1.84l-3.42 4.1 3.72 6.22h-1.82l-3.02-5.32-1.36 1.6V525h-1.52v-14.8ZM118.6 545.42l.14-2.4h-.2l-1.04 2.4-3 6.16-3-6.16-1.04-2.36h-.2l.14 2.36V555h-1.56v-13.96h2.12l2.52 5.42.94 2.58h.16l.94-2.58 2.52-5.42h2.12V555h-1.56v-9.58Zm11.25 9.58c-.99 0-1.48-.5-1.48-1.48v-.2h-.2a2.6 2.6 0 0 1-.96 1.44c-.46.32-1 .48-1.64.48-1 0-1.75-.25-2.24-.76-.5-.5-.74-1.25-.74-2.24 0-.96.31-1.72.94-2.28.64-.56 1.63-.84 2.98-.84h1.86v-1.14c0-.76-.18-1.32-.52-1.68-.34-.36-.87-.54-1.6-.54-.6 0-1.09.13-1.46.4-.36.25-.68.63-.94 1.12l-.9-.84a3.69 3.69 0 0 1 3.36-1.98c1.17 0 2.06.29 2.66.86.61.56.92 1.4.92 2.5v5.84h1.04V555h-1.08Zm-3.9-1.08a2.63 2.63 0 0 0 1.74-.64c.21-.2.38-.42.5-.66.12-.25.18-.51.18-.78v-1.56h-1.9c-.8 0-1.39.13-1.76.4-.36.27-.54.65-.54 1.16v.56c0 .52.16.9.48 1.16.32.24.75.36 1.3.36Zm7.8-11.74c-.62 0-.94-.27-.94-.82v-.32c0-.55.32-.82.94-.82.63 0 .94.27.94.82v.32c0 .55-.3.82-.94.82Zm-.75 2.5h1.51V555H133v-10.32Zm4.54 10.32v-10.32h1.53v1.68h.2c.2-.64.5-1.12.91-1.44.43-.32 1-.48 1.72-.48.92 0 1.64.31 2.16.94.54.63.8 1.6.8 2.9V555h-1.52v-6.62c0-.83-.17-1.46-.52-1.9-.33-.44-.85-.66-1.56-.66-.6 0-1.13.19-1.55.56-.43.37-.65.9-.65 1.58V555h-1.52Zm10.26 0v-10.32h1.52v1.68h.2c.2-.64.5-1.12.92-1.44.43-.32 1-.48 1.72-.48.92 0 1.64.31 2.16.94.53.63.8 1.6.8 2.9V555h-1.52v-6.62c0-.83-.17-1.46-.52-1.9-.33-.44-.85-.66-1.56-.66-.61 0-1.13.19-1.56.56-.43.37-.64.9-.64 1.58V555h-1.52Zm13.77.24c-.6 0-1.16-.1-1.68-.3-.52-.2-.96-.52-1.34-.96-.37-.44-.66-1-.88-1.68a8.3 8.3 0 0 1-.32-2.46c0-.96.11-1.78.32-2.46.22-.68.51-1.24.88-1.68.38-.44.82-.76 1.34-.96a4.64 4.64 0 0 1 3.32 0c.51.2.94.52 1.28.96.35.44.62 1 .8 1.68.2.68.3 1.5.3 2.46v.38h-6.62v.66c0 1.01.23 1.77.68 2.28.47.5 1.11.74 1.92.74a3 3 0 0 0 1.7-.44c.44-.3.79-.76 1.04-1.36l1.04.76a3.95 3.95 0 0 1-3.78 2.38Zm0-9.52c-.82 0-1.46.26-1.92.78-.45.52-.68 1.29-.68 2.3v.26h5v-.26c0-2.05-.8-3.08-2.4-3.08Zm8.47 9.28c-.55 0-.95-.12-1.2-.36-.24-.25-.36-.65-.36-1.2v-7.42h-1.52v-1.34h.9c.3 0 .5-.07.6-.22.1-.16.16-.4.16-.7v-1.92H170v2.84h2v1.34h-2v7.64h1.9V555h-1.86Z"/>
  <rect width="100" height="40" x="90" y="450" fill="#0B0F14" rx="20"/>
  <path fill="#fff" d="M115.33 476v-11.17h4.11c1.84 0 2.77 1.06 2.77 3.19 0 2.12-.92 3.18-2.77 3.18h-2.83v4.8h-1.28Zm1.28-5.92h2.8c.95 0 1.42-.51 1.42-1.54v-1.05c0-1.03-.47-1.54-1.42-1.54h-2.8v4.13Zm7.37-5.92h1.22v4.93h.16c.16-.51.4-.9.73-1.15.34-.26.8-.39 1.38-.39.74 0 1.31.25 1.73.75.42.5.64 1.28.64 2.32V476h-1.22v-5.3c0-.66-.14-1.16-.41-1.52-.27-.35-.69-.52-1.25-.52-.5 0-.9.14-1.25.44-.34.3-.51.72-.51 1.27V476h-1.22v-11.84ZM137.4 476c-.79 0-1.18-.4-1.18-1.18v-.16h-.16c-.14.5-.4.88-.77 1.15-.36.25-.8.38-1.31.38-.8 0-1.4-.2-1.8-.6-.39-.41-.59-1-.59-1.8 0-.77.25-1.37.75-1.82.52-.45 1.31-.67 2.39-.67h1.49v-.92c0-.6-.14-1.05-.42-1.34-.27-.29-.7-.43-1.28-.43-.48 0-.87.1-1.17.32-.28.2-.54.5-.75.9l-.72-.68a2.96 2.96 0 0 1 2.69-1.58c.94 0 1.65.23 2.13.69.49.44.73 1.11.73 2v4.67h.83V476h-.86Zm-3.12-.86a2.22 2.22 0 0 0 1.39-.52c.17-.16.3-.33.4-.52.1-.2.15-.42.15-.63v-1.25h-1.52c-.64 0-1.11.11-1.41.32a1.1 1.1 0 0 0-.43.93v.45c0 .42.13.72.38.93.26.19.6.29 1.04.29Zm7.93 1.05c-.69 0-1.27-.14-1.76-.41-.48-.28-.9-.66-1.23-1.16l.84-.7c.3.4.6.71.93.93.34.21.75.32 1.22.32.48 0 .86-.12 1.13-.35.3-.25.44-.6.44-1.04 0-.37-.1-.66-.28-.88-.18-.23-.51-.38-1-.47l-.63-.11c-.8-.15-1.4-.4-1.8-.75-.38-.35-.57-.89-.57-1.6 0-.42.07-.78.2-1.07.12-.31.3-.56.54-.76.23-.2.51-.34.83-.43.33-.1.69-.14 1.07-.14a3.09 3.09 0 0 1 2.66 1.28l-.78.72a2.56 2.56 0 0 0-.73-.67c-.3-.2-.68-.3-1.15-.3-.97 0-1.45.44-1.45 1.32 0 .4.1.7.3.9.21.18.56.31 1.02.4l.63.1c.84.16 1.44.42 1.8.8.34.37.52.87.52 1.51 0 .8-.24 1.43-.7 1.89-.46.45-1.15.67-2.05.67Zm7.56 0c-.48 0-.93-.08-1.35-.24a2.63 2.63 0 0 1-1.07-.77c-.3-.35-.53-.8-.7-1.34a6.65 6.65 0 0 1-.26-1.97c0-.77.09-1.42.26-1.97.17-.54.4-.99.7-1.34.3-.35.66-.6 1.07-.77a3.71 3.71 0 0 1 2.66 0c.4.16.74.42 1.02.77.28.35.5.8.64 1.34.16.55.24 1.2.24 1.97v.3h-5.3v.53c0 .81.19 1.42.55 1.83a2 2 0 0 0 1.54.59c.55 0 1-.12 1.36-.35.35-.25.63-.61.83-1.09l.83.6a3.16 3.16 0 0 1-3.02 1.9Zm0-7.61c-.67 0-1.18.2-1.54.62-.36.42-.54 1.03-.54 1.84v.2h4v-.2c0-1.64-.64-2.46-1.92-2.46Zm11.04 1c.67 0 1.17-.16 1.5-.48.34-.33.51-.78.51-1.34v-.24c0-.63-.16-1.08-.48-1.34-.32-.27-.75-.4-1.3-.4-.5 0-.92.11-1.24.35-.32.23-.59.57-.8 1.02l-.93-.72c.13-.22.28-.44.47-.65a3.2 3.2 0 0 1 1.5-.98 4.16 4.16 0 0 1 2.34.02c.37.1.69.27.96.5.26.23.46.52.6.87.15.35.23.77.23 1.25 0 .37-.06.7-.16 1a2.36 2.36 0 0 1-1.07 1.3c-.24.14-.5.24-.77.3v.15c.3.03.58.11.84.24a2.26 2.26 0 0 1 1.17 1.36c.12.33.18.72.18 1.15 0 1-.3 1.8-.9 2.39-.58.57-1.43.86-2.53.86a3.9 3.9 0 0 1-2.08-.57 3.69 3.69 0 0 1-.68-.6c-.2-.22-.37-.45-.53-.68l.96-.72c.25.43.55.78.88 1.05.34.26.81.39 1.42.39.7 0 1.22-.17 1.57-.5.36-.34.54-.86.54-1.55v-.26c0-.7-.18-1.2-.54-1.53-.35-.35-.87-.52-1.57-.52h-1.18v-1.12h1.09Z"/>
  <rect width="345" height="152" x="326" y="687" fill="#181D23" rx="23"/>
  <rect width="345" height="152" x="326" y="687" stroke="#12B886" stroke-width="2" rx="23"/>
  <path fill="#fff" d="M362.47 741v-13.96h5.14c2.31 0 3.46 1.33 3.46 3.98s-1.15 3.98-3.46 3.98h-3.54v6h-1.6Zm1.6-7.4h3.5c1.2 0 1.78-.64 1.78-1.92v-1.32c0-1.28-.59-1.92-1.78-1.92h-3.5v5.16Zm10.96 7.4h-1.6v-13.96h5.14c2.3 0 3.46 1.33 3.46 3.98 0 2.24-.82 3.53-2.48 3.88l2.82 6.1h-1.8l-2.62-6h-2.92v6Zm3.5-7.36c1.19 0 1.78-.64 1.78-1.92v-1.36c0-1.28-.6-1.92-1.78-1.92h-3.5v5.2h3.5Zm11.05 7.6c-1.7 0-3-.58-3.94-1.74-.94-1.16-1.4-2.99-1.4-5.48 0-2.5.46-4.32 1.4-5.48a4.77 4.77 0 0 1 3.94-1.74c1.7 0 3 .58 3.94 1.74.93 1.16 1.4 2.99 1.4 5.48 0 2.5-.47 4.32-1.4 5.48a4.77 4.77 0 0 1-3.94 1.74Zm0-1.42c1.16 0 2.05-.38 2.68-1.14.62-.77.94-1.8.94-3.1v-3.12a4.7 4.7 0 0 0-.94-3.08 3.25 3.25 0 0 0-2.68-1.16c-1.16 0-2.06.39-2.68 1.16a4.7 4.7 0 0 0-.94 3.08v3.12c0 1.3.31 2.33.94 3.1a3.28 3.28 0 0 0 2.68 1.14Zm8.03-12.78H402c1.62 0 2.86.56 3.74 1.68.88 1.1 1.32 2.87 1.32 5.3 0 2.43-.44 4.2-1.32 5.32A4.5 4.5 0 0 1 402 741h-4.38v-13.96ZM402 739.6c1 0 1.8-.35 2.42-1.04.61-.7.92-1.69.92-2.98v-3.12c0-1.3-.3-2.29-.92-2.98a3.08 3.08 0 0 0-2.42-1.04h-2.78v11.16H402Zm13.6 1.4H414v-13.96h5.15c2.3 0 3.46 1.33 3.46 3.98 0 2.24-.83 3.53-2.48 3.88l2.82 6.1h-1.8l-2.62-6h-2.92v6Zm3.5-7.36c1.2 0 1.79-.64 1.79-1.92v-1.36c0-1.28-.6-1.92-1.78-1.92h-3.5v5.2h3.5Zm6.47 7.36v-13.96h7.72v1.4h-6.12v4.8h5.74v1.4h-5.74v4.96h6.12v1.4h-7.72Zm10.53 0v-13.96h1.6v12.56h5.3v1.4h-6.9Zm9.06 0v-13.96h7.72v1.4h-6.12v4.8h5.74v1.4h-5.74v4.96h6.12v1.4h-7.72Zm18.39 0-1.24-4.18h-5.02l-1.24 4.18h-1.6l4.36-13.96h2l4.38 13.96h-1.64Zm-3.22-10.8-.44-1.74h-.2l-.44 1.74-1.58 5.3h4.28l-1.62-5.3Zm10.5 11.04c-1 0-1.87-.2-2.62-.62a5.45 5.45 0 0 1-1.86-1.76l1.16-.96c.43.63.9 1.11 1.44 1.46.53.33 1.16.5 1.88.5 1.9 0 2.84-.89 2.84-2.66 0-.72-.17-1.27-.52-1.64a3.65 3.65 0 0 0-1.8-.88l-1.04-.26a5.77 5.77 0 0 1-2.72-1.34 3.5 3.5 0 0 1-.86-2.52c0-1.24.39-2.17 1.16-2.8.77-.64 1.8-.96 3.08-.96a5 5 0 0 1 2.44.54c.67.36 1.25.93 1.74 1.7l-1.18.84a3.87 3.87 0 0 0-1.24-1.26 3.32 3.32 0 0 0-1.82-.44c-.85 0-1.5.19-1.96.56-.44.37-.66.98-.66 1.82 0 .68.18 1.2.54 1.54a4 4 0 0 0 1.78.82l1.04.26a8 8 0 0 1 1.66.58c.45.21.82.48 1.1.8.3.32.5.7.62 1.14.13.43.2.93.2 1.5 0 1.32-.4 2.33-1.18 3.02a4.71 4.71 0 0 1-3.22 1.02Zm6.95-.24v-13.96h7.72v1.4h-6.12v4.8h5.74v1.4h-5.74v4.96h6.12v1.4h-7.72Zm14.76 0v-13.96h7.54v1.4h-5.94v4.8h5.4v1.4h-5.4V741h-1.6Zm11.52 0c-.55 0-.95-.12-1.2-.36-.24-.25-.36-.65-.36-1.2V726.2h1.52v13.46h1.3V741h-1.26Zm6.9.24c-.6 0-1.16-.1-1.68-.3-.52-.2-.96-.52-1.34-.96-.37-.44-.67-1-.88-1.68a8.3 8.3 0 0 1-.32-2.46c0-.96.1-1.78.32-2.46.21-.68.5-1.24.88-1.68.38-.44.82-.76 1.34-.96.52-.2 1.08-.3 1.68-.3.6 0 1.16.1 1.68.3.52.2.97.52 1.34.96.38.44.67 1 .88 1.68.22.68.32 1.5.32 2.46s-.1 1.78-.32 2.46c-.21.68-.5 1.24-.88 1.68-.37.44-.82.76-1.34.96-.52.2-1.08.3-1.68.3Zm0-1.36c.83 0 1.46-.25 1.9-.74.45-.5.68-1.25.68-2.26v-2.08c0-1.01-.23-1.77-.68-2.26-.44-.5-1.07-.74-1.9-.74a2.5 2.5 0 0 0-1.92.74c-.44.5-.66 1.25-.66 2.26v2.08c0 1.01.22 1.77.66 2.26.46.5 1.1.74 1.92.74Zm5.48-9.2h1.48l1 4.48.88 4.5h.2l1.02-4.5 1.04-4.48h1.76l1.04 4.48 1.02 4.5h.2l.88-4.5 1-4.48h1.44L526.91 741H525l-1.26-5-.7-3.78h-.2l-.74 3.78-1.26 5h-1.92l-2.48-10.32Zm19.8 10.56c-1.69 0-3-.58-3.93-1.74-.94-1.16-1.4-2.99-1.4-5.48 0-2.5.46-4.32 1.4-5.48a4.77 4.77 0 0 1 3.94-1.74c1.7 0 3 .58 3.94 1.74.93 1.16 1.4 2.99 1.4 5.48 0 2.5-.47 4.32-1.4 5.48a4.77 4.77 0 0 1-3.94 1.74Zm0-1.42c1.17 0 2.06-.38 2.69-1.14.62-.77.94-1.8.94-3.1v-3.12a4.7 4.7 0 0 0-.94-3.08 3.25 3.25 0 0 0-2.68-1.16c-1.16 0-2.06.39-2.68 1.16a4.7 4.7 0 0 0-.94 3.08v3.12c0 1.3.31 2.33.94 3.1a3.28 3.28 0 0 0 2.68 1.14Zm7.9 1.18v-10.32h1.52v1.92h.2c.17-.6.47-1.07.88-1.4.43-.35.98-.52 1.66-.52h.56v1.54h-1a2.7 2.7 0 0 0-1.7.48c-.4.32-.6.8-.6 1.44V741h-1.52Zm10 .24a3.8 3.8 0 0 1-3.02-1.26c-.72-.84-1.08-2.22-1.08-4.14 0-1.92.36-3.3 1.08-4.14a3.8 3.8 0 0 1 3.02-1.26 3.64 3.64 0 0 1 3.6 2.38l-1.26.64a2.4 2.4 0 0 0-.82-1.22 2.4 2.4 0 0 0-1.52-.44c-.84 0-1.46.25-1.86.74-.4.5-.6 1.25-.6 2.26v2.08c0 1.01.2 1.77.6 2.26.4.5 1.02.74 1.86.74.67 0 1.2-.15 1.6-.44.42-.3.74-.74.98-1.34l1.12.78a3.76 3.76 0 0 1-3.7 2.36Zm5.69-15.04h1.51v6.16h.2c.2-.64.51-1.12.93-1.44.42-.32 1-.48 1.71-.48.93 0 1.65.31 2.17.94.53.63.8 1.6.8 2.9V741h-1.52v-6.62c0-.83-.18-1.46-.52-1.9-.34-.44-.86-.66-1.57-.66-.6 0-1.13.19-1.55.56-.43.37-.64.9-.64 1.58V741h-1.52v-14.8Zm13.77 15.04c-.6 0-1.16-.1-1.68-.3-.52-.2-.97-.52-1.34-.96-.38-.44-.67-1-.88-1.68a8.26 8.26 0 0 1-.32-2.46c0-.96.1-1.78.32-2.46.21-.68.5-1.24.88-1.68.37-.44.82-.76 1.34-.96a4.64 4.64 0 0 1 3.32 0c.5.2.93.52 1.28.96.35.44.61 1 .8 1.68.2.68.3 1.5.3 2.46v.38H571v.66c0 1.01.23 1.77.68 2.28.47.5 1.1.74 1.92.74.7 0 1.26-.15 1.7-.44.44-.3.79-.76 1.04-1.36l1.04.76c-.32.7-.8 1.28-1.42 1.72-.62.44-1.4.66-2.36.66Zm0-9.52a2.4 2.4 0 0 0-1.92.78c-.45.52-.68 1.29-.68 2.3v.26h5v-.26c0-2.05-.8-3.08-2.4-3.08Zm9.24 9.52a4.4 4.4 0 0 1-2.2-.52 4.8 4.8 0 0 1-1.54-1.44l1.06-.88c.36.5.75.9 1.16 1.16.43.27.94.4 1.52.4.6 0 1.07-.15 1.42-.44.36-.3.54-.74.54-1.3 0-.45-.11-.82-.34-1.1-.23-.28-.65-.47-1.26-.58l-.78-.14a4.6 4.6 0 0 1-2.24-.94c-.48-.44-.72-1.1-.72-2 0-.52.08-.97.24-1.34.16-.39.39-.7.68-.94.3-.25.64-.43 1.04-.54a4.8 4.8 0 0 1 1.34-.18 3.86 3.86 0 0 1 3.32 1.6l-.98.9a3.2 3.2 0 0 0-.9-.84 2.51 2.51 0 0 0-1.44-.38c-1.21 0-1.82.55-1.82 1.66 0 .5.13.88.38 1.12.27.23.7.4 1.28.5l.78.14c1.05.19 1.8.51 2.24.98.44.47.66 1.1.66 1.9 0 1-.3 1.79-.88 2.36-.57.56-1.42.84-2.56.84Zm7.97-.24c-.54 0-.94-.12-1.2-.36-.24-.25-.36-.65-.36-1.2v-7.42h-1.52v-1.34h.9c.3 0 .5-.07.6-.22.1-.16.16-.4.16-.7v-1.92h1.38v2.84h2v1.34h-2v7.64h1.9V741h-1.86Zm4.29 0v-10.32h1.52v1.92h.2c.17-.6.47-1.07.88-1.4.42-.35.98-.52 1.66-.52h.56v1.54h-1a2.7 2.7 0 0 0-1.7.48c-.4.32-.6.8-.6 1.44V741h-1.52Zm13.02 0c-.98 0-1.48-.5-1.48-1.48v-.2h-.2c-.17.63-.5 1.1-.96 1.44-.45.32-1 .48-1.64.48-1 0-1.74-.25-2.24-.76-.5-.5-.74-1.25-.74-2.24 0-.96.32-1.72.94-2.28.64-.56 1.64-.84 2.98-.84h1.86v-1.14c0-.76-.17-1.32-.52-1.68-.33-.36-.86-.54-1.6-.54-.6 0-1.08.13-1.46.4-.36.25-.67.63-.94 1.12l-.9-.84a3.7 3.7 0 0 1 3.36-1.98c1.18 0 2.06.29 2.66.86.62.56.92 1.4.92 2.5v5.84h1.04V741h-1.08Zm-3.9-1.08c.35 0 .67-.06.96-.18a2.22 2.22 0 0 0 1.28-1.12c.12-.25.18-.51.18-.78v-1.56h-1.9c-.8 0-1.38.13-1.76.4-.36.27-.54.65-.54 1.16v.56c0 .52.16.9.48 1.16.32.24.76.36 1.3.36Zm9.11 1.08c-.55 0-.95-.12-1.2-.36-.24-.25-.36-.65-.36-1.2v-7.42h-1.52v-1.34h.9c.3 0 .5-.07.6-.22.1-.16.16-.4.16-.7v-1.92h1.38v2.84h2v1.34h-2v7.64h1.9V741h-1.86Zm7.73.24c-.6 0-1.16-.1-1.68-.3-.52-.2-.97-.52-1.34-.96-.37-.44-.67-1-.88-1.68a8.26 8.26 0 0 1-.32-2.46c0-.96.1-1.78.32-2.46.21-.68.5-1.24.88-1.68.37-.44.82-.76 1.34-.96.52-.2 1.08-.3 1.68-.3.6 0 1.16.1 1.68.3.52.2.97.52 1.34.96.37.44.67 1 .88 1.68.21.68.32 1.5.32 2.46s-.1 1.78-.32 2.46c-.21.68-.5 1.24-.88 1.68-.37.44-.82.76-1.34.96-.52.2-1.08.3-1.68.3Zm0-1.36c.83 0 1.46-.25 1.9-.74.45-.5.68-1.25.68-2.26v-2.08c0-1.01-.23-1.77-.68-2.26-.44-.5-1.07-.74-1.9-.74-.83 0-1.47.25-1.92.74-.44.5-.66 1.25-.66 2.26v2.08c0 1.01.22 1.77.66 2.26.45.5 1.1.74 1.92.74Zm6.56 1.12v-10.32h1.52v1.92h.2c.17-.6.46-1.07.88-1.4.42-.35.98-.52 1.66-.52h.56v1.54h-1a2.7 2.7 0 0 0-1.7.48c-.4.32-.6.8-.6 1.44V741h-1.52Zm6.1-2.12c.78 0 1.17.34 1.17 1.02v.32c0 .52-.15 1.1-.48 1.72-.3.64-.72 1.2-1.24 1.7h-1.24c.37-.43.66-.83.88-1.2.23-.36.4-.77.5-1.24-.51-.12-.77-.45-.77-.98v-.32c0-.68.39-1.02 1.18-1.02Zm-243.9 32.36c-.8 0-1.5-.14-2.13-.42a4.21 4.21 0 0 1-1.6-1.32 6.69 6.69 0 0 1-1-2.24c-.22-.92-.33-2-.33-3.24 0-1.24.1-2.31.33-3.22.25-.92.58-1.67 1-2.26.44-.59.98-1.02 1.6-1.3.63-.3 1.34-.44 2.13-.44 1.14 0 2.06.25 2.75.74.7.48 1.25 1.22 1.64 2.22l-1.27.78a3.6 3.6 0 0 0-1.1-1.72c-.47-.4-1.14-.6-2.02-.6-1.07 0-1.9.39-2.49 1.16a5 5 0 0 0-.86 3.08v3.12c0 1.3.3 2.33.87 3.1a2.95 2.95 0 0 0 2.48 1.14c.9 0 1.6-.2 2.1-.62.49-.43.86-1.04 1.11-1.84l1.29.8a5.1 5.1 0 0 1-1.7 2.3 4.7 4.7 0 0 1-2.8.78Zm10.33 0c-1 0-1.88-.2-2.62-.62a5.45 5.45 0 0 1-1.86-1.76l1.16-.96c.42.63.9 1.11 1.44 1.46.53.33 1.16.5 1.88.5 1.89 0 2.84-.89 2.84-2.66 0-.72-.18-1.27-.52-1.64a3.65 3.65 0 0 0-1.8-.88l-1.04-.26a5.77 5.77 0 0 1-2.72-1.34 3.5 3.5 0 0 1-.86-2.52c0-1.24.38-2.17 1.16-2.8.77-.64 1.8-.96 3.08-.96a5 5 0 0 1 2.44.54 4.8 4.8 0 0 1 1.74 1.7l-1.18.84a3.86 3.86 0 0 0-1.24-1.26 3.31 3.31 0 0 0-1.82-.44c-.86 0-1.51.19-1.96.56-.44.37-.66.98-.66 1.82 0 .68.18 1.2.54 1.54.37.35.96.62 1.78.82l1.04.26a8 8 0 0 1 1.66.58c.45.21.82.48 1.1.8.29.32.5.7.62 1.14.13.43.2.93.2 1.5 0 1.32-.4 2.33-1.18 3.02a4.71 4.71 0 0 1-3.22 1.02Zm8.54-.24h-1.6v-13.96h5.14c2.31 0 3.46 1.33 3.46 3.98 0 2.24-.82 3.53-2.48 3.88l2.82 6.1h-1.8l-2.62-6h-2.92v6Zm3.5-7.36c1.19 0 1.78-.64 1.78-1.92v-1.36c0-1.28-.59-1.92-1.78-1.92h-3.5v5.2h3.5Zm7.19 5.24c.78 0 1.18.34 1.18 1.02v.32c0 .52-.16 1.1-.48 1.72-.3.64-.72 1.2-1.24 1.7h-1.24c.36-.43.65-.83.88-1.2.22-.36.4-.77.5-1.24-.52-.12-.78-.45-.78-.98v-.32c0-.68.4-1.02 1.18-1.02ZM435.6 771l-1.24-4.18h-5.02L428.1 771h-1.6l4.36-13.96h2l4.38 13.96h-1.64Zm-3.22-10.8-.44-1.74h-.2l-.44 1.74-1.58 5.3H434l-1.62-5.3Zm6.34 10.8v-1.32h1.76v-11.32h-1.76v-1.32h5.12v1.32h-1.76v11.32h1.76V771h-5.12Zm21.82-9.58.14-2.4h-.2l-1.04 2.4-3 6.16-3-6.16-1.04-2.36h-.2l.14 2.36V771h-1.56v-13.96h2.12l2.52 5.42.94 2.58h.16l.94-2.58 2.52-5.42h2.12V771h-1.56v-9.58Zm8.25 9.82c-.6 0-1.16-.1-1.68-.3-.52-.2-.96-.52-1.34-.96-.37-.44-.66-1-.88-1.68a8.26 8.26 0 0 1-.32-2.46c0-.96.11-1.78.32-2.46.22-.68.51-1.24.88-1.68.38-.44.82-.76 1.34-.96.52-.2 1.08-.3 1.68-.3.6 0 1.16.1 1.68.3.52.2.97.52 1.34.96.38.44.67 1 .88 1.68.22.68.32 1.5.32 2.46s-.1 1.78-.32 2.46c-.21.68-.5 1.24-.88 1.68-.37.44-.82.76-1.34.96-.52.2-1.08.3-1.68.3Zm0-1.36c.83 0 1.46-.25 1.9-.74.46-.5.68-1.25.68-2.26v-2.08c0-1.01-.22-1.77-.68-2.26-.44-.5-1.07-.74-1.9-.74a2.5 2.5 0 0 0-1.92.74c-.44.5-.66 1.25-.66 2.26v2.08c0 1.01.22 1.77.66 2.26.46.5 1.1.74 1.92.74Zm12.48-.56h-.2c-.2.68-.52 1.17-.98 1.48-.44.3-.98.44-1.62.44a3.4 3.4 0 0 1-1.62-.38 3.36 3.36 0 0 1-1.18-1.08 5.07 5.07 0 0 1-.72-1.7 9.62 9.62 0 0 1-.24-2.24c0-.83.08-1.57.24-2.24.16-.67.4-1.23.72-1.7a3.28 3.28 0 0 1 4.42-1c.45.3.78.78.98 1.46h.2v-6.16h1.52V771h-1.52v-1.68Zm-2.34.56c.32 0 .62-.05.9-.14a2.08 2.08 0 0 0 1.24-1.02c.13-.24.2-.5.2-.8v-4.16c0-.3-.06-.56-.2-.8a2.08 2.08 0 0 0-1.24-1.02c-.28-.1-.58-.14-.9-.14-.84 0-1.48.27-1.92.8a3.3 3.3 0 0 0-.66 2.2v2.08c0 .95.22 1.69.66 2.22.44.52 1.08.78 1.92.78Zm10.43 1.36c-.6 0-1.16-.1-1.68-.3-.52-.2-.97-.52-1.34-.96-.37-.44-.67-1-.88-1.68a8.3 8.3 0 0 1-.32-2.46c0-.96.1-1.78.32-2.46.21-.68.5-1.24.88-1.68.37-.44.82-.76 1.34-.96a4.64 4.64 0 0 1 3.32 0c.5.2.93.52 1.28.96.35.44.61 1 .8 1.68.2.68.3 1.5.3 2.46v.38h-6.62v.66c0 1.01.23 1.77.68 2.28.47.5 1.1.74 1.92.74.7 0 1.26-.15 1.7-.44.44-.3.79-.76 1.04-1.36l1.04.76a3.94 3.94 0 0 1-3.78 2.38Zm0-9.52a2.4 2.4 0 0 0-1.92.78c-.45.52-.68 1.29-.68 2.3v.26h5v-.26c0-2.05-.8-3.08-2.4-3.08Zm7.94 9.28c-.54 0-.94-.12-1.2-.36-.24-.25-.36-.65-.36-1.2V756.2h1.52v13.46h1.3V771h-1.26Zm6.24.24a4.4 4.4 0 0 1-2.2-.52 4.79 4.79 0 0 1-1.54-1.44l1.06-.88c.36.5.75.9 1.16 1.16.43.27.94.4 1.52.4.6 0 1.08-.15 1.42-.44.36-.3.54-.74.54-1.3 0-.45-.11-.82-.34-1.1-.22-.28-.64-.47-1.26-.58l-.78-.14a4.6 4.6 0 0 1-2.24-.94c-.48-.44-.72-1.1-.72-2 0-.52.08-.97.24-1.34.16-.39.39-.7.68-.94.3-.25.64-.43 1.04-.54.42-.12.86-.18 1.34-.18a3.88 3.88 0 0 1 3.32 1.6l-.98.9c-.22-.32-.52-.6-.9-.84a2.52 2.52 0 0 0-1.44-.38c-1.21 0-1.82.55-1.82 1.66 0 .5.13.88.38 1.12.27.23.7.4 1.28.5l.78.14c1.06.19 1.8.51 2.24.98.44.47.66 1.1.66 1.9 0 1-.29 1.79-.88 2.36-.57.56-1.42.84-2.56.84Zm6.78-2.36c.78 0 1.18.34 1.18 1.02v.32c0 .52-.16 1.1-.48 1.72a5.9 5.9 0 0 1-1.24 1.7h-1.24c.36-.43.65-.83.88-1.2.22-.36.39-.77.5-1.24-.52-.12-.78-.45-.78-.98v-.32c0-.68.39-1.02 1.18-1.02ZM523 758.44V771h-1.6v-12.56h-3.94v-1.4h9.48v1.4H523ZM534.09 771c-.99 0-1.48-.5-1.48-1.48v-.2h-.2c-.17.63-.5 1.1-.96 1.44-.46.32-1 .48-1.64.48-1 0-1.75-.25-2.24-.76-.5-.5-.74-1.25-.74-2.24 0-.96.31-1.72.94-2.28.64-.56 1.63-.84 2.98-.84h1.86v-1.14c0-.76-.18-1.32-.52-1.68-.34-.36-.87-.54-1.6-.54-.6 0-1.09.13-1.46.4-.36.25-.67.63-.94 1.12l-.9-.84a3.69 3.69 0 0 1 3.36-1.98c1.17 0 2.06.29 2.66.86.61.56.92 1.4.92 2.5v5.84h1.04V771h-1.08Zm-3.9-1.08a2.63 2.63 0 0 0 1.74-.64c.21-.2.38-.42.5-.66.12-.25.18-.51.18-.78v-1.56h-1.9c-.8 0-1.39.13-1.76.4-.36.27-.54.65-.54 1.16v.56c0 .52.16.9.48 1.16.32.24.75.36 1.3.36Zm9.9 1.32a4.4 4.4 0 0 1-2.2-.52 4.79 4.79 0 0 1-1.53-1.44l1.06-.88c.36.5.74.9 1.16 1.16.42.27.93.4 1.52.4.6 0 1.07-.15 1.42-.44.36-.3.54-.74.54-1.3 0-.45-.12-.82-.34-1.1-.23-.28-.65-.47-1.26-.58l-.78-.14a4.6 4.6 0 0 1-2.24-.94c-.48-.44-.72-1.1-.72-2 0-.52.08-.97.24-1.34.16-.39.38-.7.68-.94.29-.25.64-.43 1.04-.54.41-.12.86-.18 1.34-.18a3.88 3.88 0 0 1 3.32 1.6l-.98.9a3.3 3.3 0 0 0-.9-.84 2.52 2.52 0 0 0-1.44-.38c-1.22 0-1.82.55-1.82 1.66 0 .5.12.88.38 1.12.26.23.69.4 1.28.5l.78.14c1.05.19 1.8.51 2.24.98.44.47.66 1.1.66 1.9 0 1-.3 1.79-.88 2.36-.58.56-1.43.84-2.56.84Zm5.94-15.04h1.52v7.6l-.12 2.02h.16l1.44-1.94 2.58-3.2h1.84l-3.42 4.1 3.72 6.22h-1.82l-3.02-5.32-1.36 1.6V771h-1.52v-14.8Zm11.09 14.8c-.55 0-.95-.12-1.2-.36-.24-.25-.36-.65-.36-1.2V756.2h1.52v13.46h1.3V771h-1.26Zm4.14-12.82c-.63 0-.94-.27-.94-.82v-.32c0-.55.31-.82.94-.82.63 0 .94.27.94.82v.32c0 .55-.32.82-.94.82Zm-.76 2.5h1.52V771h-1.52v-10.32Zm7.4 10.56a4.4 4.4 0 0 1-2.2-.52 4.8 4.8 0 0 1-1.53-1.44l1.06-.88c.36.5.75.9 1.16 1.16.43.27.93.4 1.52.4.6 0 1.07-.15 1.42-.44.36-.3.54-.74.54-1.3 0-.45-.11-.82-.34-1.1-.23-.28-.65-.47-1.26-.58l-.78-.14a4.6 4.6 0 0 1-2.24-.94c-.48-.44-.72-1.1-.72-2 0-.52.08-.97.24-1.34.16-.39.39-.7.68-.94.3-.25.64-.43 1.04-.54a4.8 4.8 0 0 1 1.34-.18 3.86 3.86 0 0 1 3.32 1.6l-.98.9a3.2 3.2 0 0 0-.9-.84 2.51 2.51 0 0 0-1.44-.38c-1.21 0-1.82.55-1.82 1.66 0 .5.13.88.38 1.12.27.23.7.4 1.28.5l.78.14c1.05.19 1.8.51 2.24.98.44.47.66 1.1.66 1.9 0 1-.3 1.79-.88 2.36-.57.56-1.43.84-2.56.84Zm7.98-.24c-.55 0-.95-.12-1.2-.36-.24-.25-.36-.65-.36-1.2v-7.42h-1.52v-1.34h.9c.3 0 .5-.07.6-.22.1-.16.16-.4.16-.7v-1.92h1.38v2.84h2v1.34h-2v7.64h1.9V771h-1.86Zm15.04 0c-.98 0-1.47-.5-1.47-1.48v-.2h-.2c-.18.63-.5 1.1-.97 1.44-.45.32-1 .48-1.63.48-1 0-1.75-.25-2.25-.76-.49-.5-.74-1.25-.74-2.24 0-.96.32-1.72.95-2.28.63-.56 1.63-.84 2.98-.84h1.86v-1.14c0-.76-.18-1.32-.53-1.68-.33-.36-.86-.54-1.6-.54-.6 0-1.08.13-1.46.4-.36.25-.67.63-.94 1.12l-.9-.84a3.69 3.69 0 0 1 3.36-1.98c1.18 0 2.07.29 2.66.86.62.56.93 1.4.93 2.5v5.84H592V771h-1.08Zm-3.9-1.08a2.63 2.63 0 0 0 1.74-.64c.22-.2.38-.42.5-.66.13-.25.19-.51.19-.78v-1.56h-1.9c-.8 0-1.4.13-1.76.4-.37.27-.54.65-.54 1.16v.56c0 .52.15.9.48 1.16.31.24.75.36 1.3.36Zm7.05 1.08v-10.32h1.52v1.68h.2c.2-.64.5-1.12.92-1.44.43-.32 1-.48 1.72-.48.92 0 1.64.31 2.16.94.54.63.8 1.6.8 2.9V771h-1.52v-6.62c0-.83-.17-1.46-.52-1.9-.33-.44-.85-.66-1.56-.66-.61 0-1.13.19-1.56.56a2 2 0 0 0-.64 1.58V771h-1.52Zm16.18-1.68h-.2c-.2.68-.53 1.17-.98 1.48-.44.3-.98.44-1.62.44-.62 0-1.16-.13-1.62-.38a3.36 3.36 0 0 1-1.18-1.08 5.07 5.07 0 0 1-.72-1.7 9.62 9.62 0 0 1-.24-2.24c0-.83.08-1.57.24-2.24.16-.67.4-1.23.72-1.7a3.28 3.28 0 0 1 4.42-1c.45.3.78.78.98 1.46h.2v-6.16h1.52V771h-1.52v-1.68Zm-2.34.56c.32 0 .62-.05.9-.14a2.08 2.08 0 0 0 1.24-1.02c.13-.24.2-.5.2-.8v-4.16a1.87 1.87 0 0 0-.7-1.42 2.65 2.65 0 0 0-1.64-.54c-.84 0-1.48.27-1.92.8a3.3 3.3 0 0 0-.66 2.2v2.08c0 .95.22 1.69.66 2.22.44.52 1.08.78 1.92.78Zm-187 31.36c-1 0-1.87-.2-2.61-.62a5.46 5.46 0 0 1-1.86-1.76l1.16-.96c.42.63.9 1.11 1.44 1.46.53.33 1.16.5 1.88.5 1.9 0 2.84-.89 2.84-2.66 0-.72-.18-1.27-.52-1.64a3.64 3.64 0 0 0-1.8-.88l-1.04-.26a5.78 5.78 0 0 1-2.72-1.34 3.5 3.5 0 0 1-.86-2.52c0-1.24.38-2.17 1.16-2.8.77-.64 1.8-.96 3.08-.96a5 5 0 0 1 2.44.54 4.8 4.8 0 0 1 1.74 1.7l-1.18.84a3.86 3.86 0 0 0-1.24-1.26 3.31 3.31 0 0 0-1.82-.44c-.86 0-1.5.19-1.96.56-.44.37-.66.98-.66 1.82 0 .68.18 1.2.54 1.54.37.35.96.62 1.78.82l1.04.26a8 8 0 0 1 1.66.58c.45.21.82.48 1.1.8.3.32.5.7.62 1.14.13.43.2.93.2 1.5 0 1.32-.4 2.33-1.18 3.02a4.71 4.71 0 0 1-3.22 1.02Zm6.81-.24v-10.32h1.52v1.68h.2c.2-.64.51-1.12.93-1.44.42-.32 1-.48 1.71-.48.93 0 1.65.31 2.17.94.53.63.8 1.6.8 2.9V801h-1.53v-6.62c0-.83-.17-1.46-.51-1.9-.34-.44-.86-.66-1.56-.66-.62 0-1.14.19-1.56.56-.43.37-.64.9-.64 1.58V801h-1.52Zm11.02-12.82c-.63 0-.94-.27-.94-.82v-.32c0-.55.31-.82.94-.82.63 0 .94.27.94.82v.32c0 .55-.31.82-.94.82Zm-.76 2.5h1.52V801h-1.52v-10.32Zm4.55 0h1.52v1.68h.2c.2-.68.52-1.17.96-1.46a3.4 3.4 0 0 1 3.26-.08c.47.25.86.61 1.18 1.08.32.47.56 1.03.72 1.7.16.67.24 1.41.24 2.24 0 .83-.08 1.57-.24 2.24-.16.67-.4 1.23-.72 1.7a3.28 3.28 0 0 1-2.8 1.46c-.64 0-1.19-.15-1.64-.44a2.6 2.6 0 0 1-.96-1.48h-.2V805h-1.52v-14.32Zm3.86 9.2c.84 0 1.48-.26 1.92-.78.44-.53.66-1.27.66-2.22v-2.08a3.3 3.3 0 0 0-.66-2.2c-.44-.53-1.08-.8-1.92-.8a2.5 2.5 0 0 0-1.66.54 1.76 1.76 0 0 0-.68 1.42v4.16a1.76 1.76 0 0 0 .68 1.42 2.5 2.5 0 0 0 1.66.54Zm6.63-9.2h1.52v1.68h.2c.2-.68.52-1.17.96-1.46a3.4 3.4 0 0 1 3.26-.08c.47.25.86.61 1.18 1.08.32.47.56 1.03.72 1.7.16.67.24 1.41.24 2.24 0 .83-.08 1.57-.24 2.24-.16.67-.4 1.23-.72 1.7a3.28 3.28 0 0 1-2.8 1.46c-.64 0-1.19-.15-1.64-.44a2.6 2.6 0 0 1-.96-1.48h-.2V805h-1.52v-14.32Zm3.86 9.2c.84 0 1.48-.26 1.92-.78.44-.53.66-1.27.66-2.22v-2.08a3.3 3.3 0 0 0-.66-2.2c-.44-.53-1.08-.8-1.92-.8a2.5 2.5 0 0 0-1.66.54 1.76 1.76 0 0 0-.68 1.42v4.16a1.76 1.76 0 0 0 .68 1.42 2.5 2.5 0 0 0 1.66.54Zm10.15 1.36c-.6 0-1.16-.1-1.68-.3-.52-.2-.97-.52-1.34-.96-.38-.44-.67-1-.88-1.68a8.3 8.3 0 0 1-.32-2.46c0-.96.1-1.78.32-2.46.21-.68.5-1.24.88-1.68.37-.44.82-.76 1.34-.96a4.64 4.64 0 0 1 3.32 0c.5.2.93.52 1.28.96.34.44.61 1 .8 1.68.2.68.3 1.5.3 2.46v.38h-6.62v.66c0 1.01.22 1.77.68 2.28.46.5 1.1.74 1.92.74a3 3 0 0 0 1.7-.44c.44-.3.78-.76 1.04-1.36l1.04.76c-.32.7-.8 1.28-1.42 1.72-.62.44-1.4.66-2.36.66Zm0-9.52a2.4 2.4 0 0 0-1.92.78c-.46.52-.68 1.29-.68 2.3v.26h5v-.26c0-2.05-.8-3.08-2.4-3.08Zm8.46 9.28c-.55 0-.95-.12-1.2-.36-.24-.25-.36-.65-.36-1.2v-7.42h-1.52v-1.34h.9c.3 0 .5-.07.6-.22.1-.16.16-.4.16-.7v-1.92h1.38v2.84h2v1.34h-2v7.64h1.9V801h-1.86Zm7.15.24a4.4 4.4 0 0 1-2.2-.52 4.8 4.8 0 0 1-1.54-1.44l1.06-.88c.36.5.74.9 1.16 1.16.42.27.93.4 1.52.4.6 0 1.07-.15 1.42-.44.36-.3.54-.74.54-1.3 0-.45-.12-.82-.34-1.1-.23-.28-.65-.47-1.26-.58l-.78-.14a4.6 4.6 0 0 1-2.24-.94c-.48-.44-.72-1.1-.72-2 0-.52.08-.97.24-1.34.16-.39.38-.7.68-.94.29-.25.64-.43 1.04-.54.4-.12.86-.18 1.34-.18a3.88 3.88 0 0 1 3.32 1.6l-.98.9a3.3 3.3 0 0 0-.9-.84 2.51 2.51 0 0 0-1.44-.38c-1.22 0-1.82.55-1.82 1.66 0 .5.12.88.38 1.12.26.23.69.4 1.28.5l.78.14c1.05.19 1.8.51 2.24.98.44.47.66 1.1.66 1.9 0 1-.3 1.79-.88 2.36-.58.56-1.43.84-2.56.84Zm14.74 0c-.78 0-1.49-.14-2.12-.42a4.22 4.22 0 0 1-1.6-1.32 6.7 6.7 0 0 1-1-2.24c-.22-.92-.34-2-.34-3.24 0-1.24.12-2.31.34-3.22a6.7 6.7 0 0 1 1-2.26c.44-.59.98-1.02 1.6-1.3.63-.3 1.34-.44 2.12-.44 1.15 0 2.07.25 2.76.74a4.7 4.7 0 0 1 1.64 2.22l-1.28.78a3.6 3.6 0 0 0-1.1-1.72c-.46-.4-1.14-.6-2.02-.6-1.06 0-1.89.39-2.48 1.16a5 5 0 0 0-.86 3.08v3.12c0 1.3.29 2.33.86 3.1a2.95 2.95 0 0 0 2.48 1.14c.91 0 1.61-.2 2.1-.62.5-.43.87-1.04 1.12-1.84l1.28.8c-.4 1-.96 1.77-1.7 2.3-.72.52-1.65.78-2.8.78Zm10.15 0c-.6 0-1.16-.1-1.68-.3-.52-.2-.96-.52-1.34-.96-.37-.44-.66-1-.88-1.68a8.3 8.3 0 0 1-.32-2.46c0-.96.11-1.78.32-2.46.22-.68.51-1.24.88-1.68.38-.44.82-.76 1.34-.96.52-.2 1.08-.3 1.68-.3.6 0 1.16.1 1.68.3.52.2.97.52 1.34.96.38.44.67 1 .88 1.68.22.68.32 1.5.32 2.46s-.1 1.78-.32 2.46c-.2.68-.5 1.24-.88 1.68-.37.44-.82.76-1.34.96-.52.2-1.08.3-1.68.3Zm0-1.36c.83 0 1.46-.25 1.9-.74.46-.5.68-1.25.68-2.26v-2.08c0-1.01-.22-1.77-.68-2.26-.44-.5-1.07-.74-1.9-.74a2.5 2.5 0 0 0-1.92.74c-.44.5-.66 1.25-.66 2.26v2.08c0 1.01.22 1.77.66 2.26.46.5 1.1.74 1.92.74Zm8.12 1.12c-.54 0-.94-.12-1.2-.36-.24-.25-.36-.65-.36-1.2V786.2h1.52v13.46h1.3V801h-1.26Zm4.77 0c-.55 0-.95-.12-1.2-.36-.24-.25-.36-.65-.36-1.2V786.2h1.52v13.46h1.3V801h-1.26Zm6.9.24c-.6 0-1.16-.1-1.68-.3-.52-.2-.97-.52-1.34-.96-.37-.44-.67-1-.88-1.68a8.3 8.3 0 0 1-.32-2.46c0-.96.1-1.78.32-2.46.21-.68.5-1.24.88-1.68.37-.44.82-.76 1.34-.96a4.64 4.64 0 0 1 3.32 0c.5.2.93.52 1.28.96.35.44.61 1 .8 1.68.2.68.3 1.5.3 2.46v.38h-6.62v.66c0 1.01.23 1.77.68 2.28.47.5 1.1.74 1.92.74a3 3 0 0 0 1.7-.44c.44-.3.79-.76 1.04-1.36l1.04.76a3.94 3.94 0 0 1-3.78 2.38Zm0-9.52a2.4 2.4 0 0 0-1.92.78c-.45.52-.68 1.29-.68 2.3v.26h5v-.26c0-2.05-.8-3.08-2.4-3.08Zm9.78 9.52a3.8 3.8 0 0 1-3.02-1.26c-.72-.84-1.08-2.22-1.08-4.14 0-1.92.36-3.3 1.08-4.14a3.8 3.8 0 0 1 3.02-1.26 3.64 3.64 0 0 1 3.6 2.38l-1.26.64a2.4 2.4 0 0 0-.82-1.22 2.4 2.4 0 0 0-1.52-.44c-.84 0-1.46.25-1.86.74-.4.5-.6 1.25-.6 2.26v2.08c0 1.01.2 1.77.6 2.26.4.5 1.02.74 1.86.74.67 0 1.2-.15 1.6-.44.41-.3.74-.74.98-1.34l1.12.78a3.76 3.76 0 0 1-3.7 2.36Zm7.76-.24c-.54 0-.94-.12-1.2-.36-.24-.25-.36-.65-.36-1.2v-7.42h-1.52v-1.34h.9c.31 0 .51-.07.6-.22.11-.16.16-.4.16-.7v-1.92h1.38v2.84h2v1.34h-2v7.64h1.9V801h-1.86Zm5.05-12.82c-.63 0-.94-.27-.94-.82v-.32c0-.55.31-.82.94-.82.63 0 .94.27.94.82v.32c0 .55-.31.82-.94.82Zm-.76 2.5h1.52V801h-1.52v-10.32Zm8.07 10.56c-.6 0-1.16-.1-1.68-.3-.52-.2-.96-.52-1.34-.96-.37-.44-.67-1-.88-1.68a8.26 8.26 0 0 1-.32-2.46c0-.96.1-1.78.32-2.46.21-.68.5-1.24.88-1.68.38-.44.82-.76 1.34-.96.52-.2 1.08-.3 1.68-.3.6 0 1.16.1 1.68.3.52.2.97.52 1.34.96.38.44.67 1 .88 1.68.22.68.32 1.5.32 2.46s-.1 1.78-.32 2.46c-.21.68-.5 1.24-.88 1.68-.37.44-.82.76-1.34.96-.52.2-1.08.3-1.68.3Zm0-1.36c.83 0 1.46-.25 1.9-.74.46-.5.68-1.25.68-2.26v-2.08c0-1.01-.22-1.77-.68-2.26-.44-.5-1.07-.74-1.9-.74-.83 0-1.47.25-1.92.74-.44.5-.66 1.25-.66 2.26v2.08c0 1.01.22 1.77.66 2.26.46.5 1.1.74 1.92.74Zm6.56 1.12v-10.32h1.52v1.68h.2c.2-.64.5-1.12.92-1.44.43-.32 1-.48 1.72-.48.92 0 1.64.31 2.16.94.53.63.8 1.6.8 2.9V801h-1.52v-6.62c0-.83-.17-1.46-.52-1.9-.33-.44-.85-.66-1.56-.66-.61 0-1.13.19-1.56.56-.43.37-.64.9-.64 1.58V801h-1.52Zm13.11.24a4.4 4.4 0 0 1-2.2-.52 4.79 4.79 0 0 1-1.54-1.44l1.06-.88c.36.5.75.9 1.16 1.16.43.27.94.4 1.52.4.6 0 1.08-.15 1.42-.44.36-.3.54-.74.54-1.3 0-.45-.11-.82-.34-1.1-.22-.28-.64-.47-1.26-.58l-.78-.14a4.6 4.6 0 0 1-2.24-.94c-.48-.44-.72-1.1-.72-2 0-.52.08-.97.24-1.34.16-.39.39-.7.68-.94.3-.25.64-.43 1.04-.54.42-.12.86-.18 1.34-.18a3.88 3.88 0 0 1 3.32 1.6l-.98.9c-.22-.32-.52-.6-.9-.84a2.52 2.52 0 0 0-1.44-.38c-1.21 0-1.82.55-1.82 1.66 0 .5.13.88.38 1.12.27.23.7.4 1.28.5l.78.14c1.06.19 1.8.51 2.24.98.44.47.66 1.1.66 1.9 0 1-.29 1.79-.88 2.36-.57.56-1.42.84-2.56.84Z"/>
  <rect width="100" height="40" x="448.5" y="666" fill="#0B0F14" rx="20"/>
  <path fill="#fff" d="M473.83 692v-11.17h4.11c1.85 0 2.77 1.06 2.77 3.19 0 2.12-.92 3.18-2.77 3.18h-2.83v4.8h-1.28Zm1.28-5.92h2.8c.95 0 1.42-.51 1.42-1.54v-1.05c0-1.03-.47-1.54-1.42-1.54h-2.8v4.13Zm7.37-5.92h1.22v4.93h.16c.16-.51.4-.9.73-1.15.35-.26.8-.39 1.38-.39.74 0 1.31.25 1.73.75.42.5.64 1.28.64 2.32V692h-1.22v-5.3c0-.66-.14-1.16-.41-1.52-.27-.35-.69-.52-1.25-.52-.5 0-.9.14-1.25.44-.34.3-.51.72-.51 1.27V692h-1.22v-11.84ZM495.9 692c-.79 0-1.18-.4-1.18-1.18v-.16h-.16c-.14.5-.4.88-.77 1.15-.36.25-.8.38-1.31.38-.8 0-1.4-.2-1.8-.6-.39-.41-.59-1-.59-1.8 0-.77.25-1.37.76-1.82.5-.45 1.3-.67 2.38-.67h1.49v-.92c0-.6-.14-1.05-.42-1.34-.27-.29-.7-.43-1.28-.43-.48 0-.87.1-1.17.32-.29.2-.54.5-.75.9l-.72-.68a2.96 2.96 0 0 1 2.69-1.58c.94 0 1.65.23 2.13.69.49.44.73 1.11.73 2v4.67h.83V692h-.86Zm-3.12-.86a2.22 2.22 0 0 0 1.39-.52c.17-.16.3-.33.4-.52.1-.2.15-.42.15-.63v-1.25h-1.52c-.64 0-1.11.11-1.41.32a1.1 1.1 0 0 0-.43.93v.45c0 .42.13.73.38.93.26.19.6.29 1.04.29Zm7.93 1.05c-.69 0-1.27-.14-1.76-.41a3.8 3.8 0 0 1-1.24-1.16l.85-.7c.3.4.6.72.93.93.34.21.75.32 1.22.32.48 0 .86-.12 1.13-.35.3-.25.44-.6.44-1.04 0-.37-.1-.66-.28-.88-.18-.23-.51-.38-1-.47l-.63-.11c-.8-.15-1.4-.4-1.8-.75-.38-.35-.57-.89-.57-1.6 0-.42.07-.77.2-1.07.12-.31.3-.56.54-.76.23-.2.51-.34.83-.43.33-.1.69-.14 1.07-.14a3.09 3.09 0 0 1 2.66 1.28l-.79.72a2.56 2.56 0 0 0-.71-.67c-.3-.2-.69-.3-1.16-.3-.97 0-1.45.43-1.45 1.32 0 .4.1.7.3.9.21.18.56.31 1.02.4l.63.1c.84.16 1.44.42 1.8.8.34.37.52.87.52 1.51 0 .8-.24 1.43-.7 1.89-.46.45-1.15.67-2.05.67Zm7.56 0c-.48 0-.93-.08-1.35-.24a2.63 2.63 0 0 1-1.07-.77c-.3-.35-.53-.8-.7-1.34a6.65 6.65 0 0 1-.26-1.97c0-.77.09-1.42.26-1.97.17-.54.4-.99.7-1.34.3-.35.66-.6 1.07-.77a3.71 3.71 0 0 1 2.66 0c.4.16.75.42 1.02.77.28.35.5.8.64 1.34.16.55.24 1.2.24 1.97v.3h-5.3v.53c0 .81.19 1.42.55 1.83a2 2 0 0 0 1.54.59c.55 0 1-.12 1.36-.35.35-.25.63-.61.83-1.09l.83.6a3.16 3.16 0 0 1-3.02 1.9Zm0-7.61c-.66 0-1.18.2-1.54.62-.36.42-.54 1.03-.54 1.84v.2h4v-.2c0-1.64-.64-2.46-1.92-2.46ZM520.9 692v-2.2h-4.82v-1.13l4.16-7.84h1.87v7.9h1.44v1.08h-1.44V692h-1.21Zm-3.65-3.26h3.65v-6.88h-.16l-3.5 6.88Z"/>
  <rect width="278" height="122" x="358" y="471" fill="#181D23" rx="23"/>
  <rect width="278" height="122" x="358" y="471" stroke="#46A6FF" stroke-width="2" rx="23"/>
  <path fill="#fff" d="M410.14 525.24c-1.7 0-3-.58-3.94-1.74-.94-1.16-1.4-2.99-1.4-5.48 0-2.5.46-4.32 1.4-5.48a4.77 4.77 0 0 1 3.94-1.74c1.7 0 3 .58 3.94 1.74.93 1.16 1.4 2.99 1.4 5.48 0 2.5-.47 4.32-1.4 5.48a4.77 4.77 0 0 1-3.94 1.74Zm0-1.42c1.16 0 2.05-.38 2.68-1.14.62-.77.94-1.8.94-3.1v-3.12a4.7 4.7 0 0 0-.94-3.08 3.25 3.25 0 0 0-2.68-1.16c-1.16 0-2.06.39-2.68 1.16a4.7 4.7 0 0 0-.94 3.08v3.12c0 1.3.31 2.33.94 3.1a3.28 3.28 0 0 0 2.68 1.14Zm7.9 1.18v-10.32h1.51v1.68h.2c.2-.64.5-1.12.92-1.44.43-.32 1-.48 1.72-.48.92 0 1.64.31 2.16.94.53.63.8 1.6.8 2.9V525h-1.52v-6.62c0-.83-.17-1.46-.52-1.9-.33-.44-.85-.66-1.56-.66-.61 0-1.13.19-1.56.56-.43.37-.64.9-.64 1.58V525h-1.52Zm10.25-14.8h1.52v6.16h.2c.2-.68.52-1.17.96-1.46a3.43 3.43 0 0 1 3.26-.08c.46.25.86.61 1.18 1.08.32.47.56 1.03.72 1.7.16.67.24 1.41.24 2.24 0 .83-.08 1.57-.24 2.24-.16.67-.4 1.23-.72 1.7-.32.47-.72.83-1.18 1.08a3.4 3.4 0 0 1-1.62.38c-.64 0-1.2-.15-1.64-.44a2.6 2.6 0 0 1-.96-1.48h-.2V525h-1.52v-14.8Zm3.86 13.68c.84 0 1.48-.26 1.92-.78.44-.53.66-1.27.66-2.22v-2.08a3.3 3.3 0 0 0-.66-2.2c-.44-.53-1.08-.8-1.92-.8a2.5 2.5 0 0 0-1.66.54 1.76 1.76 0 0 0-.68 1.42v4.16a1.76 1.76 0 0 0 .68 1.42c.2.17.46.3.74.4.29.1.6.14.92.14Zm10.14 1.36c-.6 0-1.16-.1-1.68-.3-.52-.2-.96-.52-1.34-.96-.37-.44-.66-1-.88-1.68a8.3 8.3 0 0 1-.32-2.46c0-.96.11-1.78.32-2.46.22-.68.51-1.24.88-1.68.38-.44.82-.76 1.34-.96.52-.2 1.08-.3 1.68-.3.6 0 1.16.1 1.68.3.52.2.97.52 1.34.96.38.44.67 1 .88 1.68.22.68.32 1.5.32 2.46s-.1 1.78-.32 2.46c-.2.68-.5 1.24-.88 1.68-.37.44-.82.76-1.34.96-.52.2-1.08.3-1.68.3Zm0-1.36c.83 0 1.46-.25 1.9-.74.46-.5.68-1.25.68-2.26v-2.08c0-1.01-.22-1.77-.68-2.26-.44-.5-1.07-.74-1.9-.74a2.5 2.5 0 0 0-1.92.74c-.44.5-.66 1.25-.66 2.26v2.08c0 1.01.22 1.77.66 2.26.46.5 1.1.74 1.92.74Zm13.08 1.12c-.99 0-1.48-.5-1.48-1.48v-.2h-.2c-.17.63-.5 1.1-.96 1.44-.45.32-1 .48-1.64.48-1 0-1.74-.25-2.24-.76-.5-.5-.74-1.25-.74-2.24 0-.96.31-1.72.94-2.28.64-.56 1.63-.84 2.98-.84h1.86v-1.14c0-.76-.17-1.32-.52-1.68-.33-.36-.87-.54-1.6-.54-.6 0-1.08.13-1.46.4-.36.25-.67.63-.94 1.12l-.9-.84a3.7 3.7 0 0 1 3.36-1.98c1.18 0 2.06.29 2.66.86.62.56.92 1.4.92 2.5v5.84h1.04V525h-1.08Zm-3.9-1.08c.35 0 .67-.06.96-.18a2.22 2.22 0 0 0 1.28-1.12c.12-.25.18-.51.18-.78v-1.56H452c-.8 0-1.38.13-1.76.4-.36.27-.54.65-.54 1.16v.56c0 .52.16.9.48 1.16.32.24.75.36 1.3.36Zm7.05 1.08v-10.32h1.52v1.92h.2c.17-.6.47-1.07.88-1.4.43-.35.98-.52 1.66-.52h.56v1.54h-1a2.7 2.7 0 0 0-1.7.48c-.4.32-.6.8-.6 1.44V525h-1.52Zm12.52-1.68h-.2c-.2.68-.52 1.17-.98 1.48-.44.3-.98.44-1.62.44a3.4 3.4 0 0 1-1.62-.38 3.36 3.36 0 0 1-1.18-1.08 5.07 5.07 0 0 1-.72-1.7 9.62 9.62 0 0 1-.24-2.24c0-.83.08-1.57.24-2.24.16-.67.4-1.23.72-1.7a3.28 3.28 0 0 1 4.42-1c.45.3.78.78.98 1.46h.2v-6.16h1.52V525h-1.52v-1.68Zm-2.34.56c.32 0 .62-.05.9-.14a2.08 2.08 0 0 0 1.24-1.02c.14-.24.2-.5.2-.8v-4.16c0-.3-.06-.56-.2-.8a2.08 2.08 0 0 0-1.24-1.02c-.28-.1-.58-.14-.9-.14-.84 0-1.48.27-1.92.8a3.3 3.3 0 0 0-.66 2.2v2.08c0 .95.22 1.69.66 2.22.44.52 1.08.78 1.92.78Zm7.67-11.7c-.63 0-.94-.27-.94-.82v-.32c0-.55.31-.82.94-.82.63 0 .94.27.94.82v.32c0 .55-.31.82-.94.82Zm-.76 2.5h1.52V525h-1.52v-10.32Zm4.55 10.32v-10.32h1.52v1.68h.2c.2-.64.5-1.12.92-1.44.43-.32 1-.48 1.72-.48.92 0 1.64.31 2.16.94.53.63.8 1.6.8 2.9V525h-1.52v-6.62c0-.83-.17-1.46-.52-1.9-.33-.44-.85-.66-1.56-.66-.61 0-1.13.19-1.56.56-.43.37-.64.9-.64 1.58V525h-1.52Zm18.13 1.16c0 1.1-.37 1.88-1.12 2.36-.73.48-1.87.72-3.42.72-1.48 0-2.54-.22-3.18-.66a2.18 2.18 0 0 1-.94-1.9c0-.56.14-1 .43-1.32.27-.32.63-.52 1.07-.6v-.28a1.87 1.87 0 0 1-.63-.56 1.58 1.58 0 0 1-.23-.84c0-.43.13-.8.37-1.1.25-.3.66-.5 1.22-.56v-.22a2.98 2.98 0 0 1-1.26-1.18 4.1 4.1 0 0 1-.45-2c0-1.17.33-2.06.97-2.66.63-.6 1.5-.9 2.57-.9.64 0 1.23.11 1.75.34v-.36c0-.39.08-.67.25-.84.18-.17.46-.26.85-.26h1.38v1.34h-1.79v.56c.35.3.62.69.8 1.14.2.45.3 1 .3 1.64 0 1.17-.31 2.06-.96 2.66-.63.6-1.5.9-2.57.9-.32 0-.65-.03-.99-.1a1.4 1.4 0 0 0-.85.46 1.1 1.1 0 0 0-.29.7c0 .27.1.47.29.6.18.13.49.2.91.2h2.27c1.15 0 1.99.23 2.5.7.5.47.75 1.14.75 2.02Zm-1.42.1c0-.45-.13-.8-.42-1.04-.27-.23-.75-.34-1.44-.34h-3.13c-.31.15-.53.33-.67.56-.11.23-.17.51-.17.86 0 .52.15.93.47 1.22.32.3.84.46 1.55.46h1.31c.83 0 1.45-.14 1.87-.42.42-.27.63-.7.63-1.3Zm-3.18-5.92c.63 0 1.12-.16 1.46-.48.35-.32.53-.81.53-1.48v-.74c0-.67-.18-1.16-.53-1.48a2.07 2.07 0 0 0-1.45-.48c-.63 0-1.12.16-1.46.48-.35.32-.53.81-.53 1.48v.74c0 .67.18 1.16.53 1.48.34.32.83.48 1.45.48Zm10.63 4.66v-13.96h7.72v1.4h-6.12v4.8h5.74v1.4h-5.74v4.96h6.12v1.4h-7.72Zm13.6.24a3.8 3.8 0 0 1-3.02-1.26c-.72-.84-1.08-2.22-1.08-4.14 0-1.92.36-3.3 1.08-4.14a3.8 3.8 0 0 1 3.02-1.26 3.64 3.64 0 0 1 3.6 2.38l-1.26.64a2.4 2.4 0 0 0-.82-1.22 2.4 2.4 0 0 0-1.52-.44c-.84 0-1.46.25-1.86.74-.4.5-.6 1.25-.6 2.26v2.08c0 1.01.2 1.77.6 2.26.4.5 1.02.74 1.86.74.66 0 1.2-.15 1.6-.44.4-.3.74-.74.98-1.34l1.12.78a3.9 3.9 0 0 1-1.4 1.72c-.62.43-1.38.64-2.3.64Zm9.06 0c-.6 0-1.16-.1-1.68-.3-.52-.2-.96-.52-1.34-.96-.37-.44-.67-1-.88-1.68a8.3 8.3 0 0 1-.32-2.46c0-.96.1-1.78.32-2.46.21-.68.5-1.24.88-1.68.38-.44.82-.76 1.34-.96.52-.2 1.08-.3 1.68-.3.6 0 1.16.1 1.68.3.52.2.97.52 1.34.96.38.44.67 1 .88 1.68.22.68.32 1.5.32 2.46s-.1 1.78-.32 2.46c-.21.68-.5 1.24-.88 1.68-.37.44-.82.76-1.34.96-.52.2-1.08.3-1.68.3Zm0-1.36c.83 0 1.46-.25 1.9-.74.46-.5.68-1.25.68-2.26v-2.08c0-1.01-.22-1.77-.68-2.26-.44-.5-1.07-.74-1.9-.74-.83 0-1.47.25-1.92.74-.44.5-.66 1.25-.66 2.26v2.08c0 1.01.22 1.77.66 2.26.46.5 1.1.74 1.92.74Zm9.42 1.36a4.4 4.4 0 0 1-2.2-.52 4.79 4.79 0 0 1-1.54-1.44l1.06-.88c.36.5.75.9 1.16 1.16.43.27.93.4 1.52.4.6 0 1.07-.15 1.42-.44.36-.3.54-.74.54-1.3 0-.45-.11-.82-.34-1.1-.23-.28-.65-.47-1.26-.58l-.78-.14a4.6 4.6 0 0 1-2.24-.94c-.48-.44-.72-1.1-.72-2 0-.52.08-.97.24-1.34.16-.39.39-.7.68-.94.3-.25.64-.43 1.04-.54.41-.12.86-.18 1.34-.18a3.88 3.88 0 0 1 3.32 1.6l-.98.9a3.3 3.3 0 0 0-.9-.84 2.52 2.52 0 0 0-1.44-.38c-1.21 0-1.82.55-1.82 1.66 0 .5.13.88.38 1.12.27.23.7.4 1.28.5l.78.14c1.05.19 1.8.51 2.24.98.44.47.66 1.1.66 1.9 0 1-.3 1.79-.88 2.36-.57.56-1.43.84-2.56.84Zm11.31-10.56h1.48l-4.08 12.96c-.08.27-.16.49-.26.66a.94.94 0 0 1-.36.42c-.13.1-.3.18-.5.22-.18.04-.42.06-.72.06h-1.12v-1.34h1.58l.6-2.1-3.42-10.88h1.52l1.58 5.2.96 3.78h.2l.96-3.78 1.58-5.2Zm6.23 10.56a4.4 4.4 0 0 1-2.2-.52 4.79 4.79 0 0 1-1.54-1.44l1.06-.88c.36.5.75.9 1.16 1.16.43.27.93.4 1.52.4.6 0 1.07-.15 1.42-.44.36-.3.54-.74.54-1.3 0-.45-.12-.82-.34-1.1-.23-.28-.65-.47-1.26-.58l-.78-.14a4.6 4.6 0 0 1-2.24-.94c-.48-.44-.72-1.1-.72-2 0-.52.08-.97.24-1.34.16-.39.38-.7.68-.94.3-.25.64-.43 1.04-.54.41-.12.86-.18 1.34-.18a3.88 3.88 0 0 1 3.32 1.6l-.98.9a3.3 3.3 0 0 0-.9-.84 2.52 2.52 0 0 0-1.44-.38c-1.22 0-1.82.55-1.82 1.66 0 .5.13.88.38 1.12.26.23.7.4 1.28.5l.78.14c1.05.19 1.8.51 2.24.98.44.47.66 1.1.66 1.9 0 1-.3 1.79-.88 2.36-.58.56-1.43.84-2.56.84Zm7.97-.24c-.55 0-.95-.12-1.2-.36-.24-.25-.36-.65-.36-1.2v-7.42h-1.52v-1.34h.9c.3 0 .5-.07.6-.22.1-.16.16-.4.16-.7v-1.92h1.38v2.84h2v1.34h-2v7.64h1.9V525h-1.86Zm7.73.24c-.6 0-1.16-.1-1.68-.3-.52-.2-.97-.52-1.34-.96-.38-.44-.67-1-.88-1.68a8.26 8.26 0 0 1-.32-2.46c0-.96.1-1.78.32-2.46.21-.68.5-1.24.88-1.68.37-.44.82-.76 1.34-.96a4.64 4.64 0 0 1 3.32 0c.5.2.93.52 1.28.96.34.44.61 1 .8 1.68.2.68.3 1.5.3 2.46v.38h-6.62v.66c0 1.01.22 1.77.68 2.28.46.5 1.1.74 1.92.74.7 0 1.26-.15 1.7-.44.44-.3.78-.76 1.04-1.36l1.04.76c-.32.7-.8 1.28-1.42 1.72-.62.44-1.4.66-2.36.66Zm0-9.52a2.4 2.4 0 0 0-1.92.78c-.46.52-.68 1.29-.68 2.3v.26h5v-.26c0-2.05-.8-3.08-2.4-3.08Zm6.38 9.28v-10.32h1.52v1.68h.2a3 3 0 0 1 .88-1.44 2.5 2.5 0 0 1 1.64-.48c.64 0 1.18.16 1.62.48.45.3.8.79 1.02 1.44h.2c.21-.64.55-1.12 1-1.44a3.06 3.06 0 0 1 1.8-.48c.88 0 1.59.31 2.12.94.53.63.8 1.6.8 2.9V525h-1.52v-6.62a3.1 3.1 0 0 0-.5-1.9c-.32-.44-.82-.66-1.5-.66-.6 0-1.1.19-1.52.56-.4.37-.6.9-.6 1.58V525h-1.52v-6.62a3.1 3.1 0 0 0-.5-1.9c-.32-.44-.82-.66-1.5-.66-.6 0-1.1.19-1.52.56-.4.37-.6.9-.6 1.58V525h-1.52Zm-110.43 30v-13.96h5.14c2.31 0 3.46 1.33 3.46 3.98s-1.15 3.98-3.46 3.98h-3.54v6h-1.6Zm1.6-7.4h3.5c1.19 0 1.78-.64 1.78-1.92v-1.32c0-1.28-.59-1.92-1.78-1.92h-3.5v5.16Zm9.02 7.4v-10.32h1.53v1.92h.2c.17-.6.46-1.07.88-1.4.42-.35.98-.52 1.66-.52h.56v1.54h-1c-.73 0-1.3.16-1.7.48-.4.32-.6.8-.6 1.44V555h-1.53Zm10.13.24c-.6 0-1.16-.1-1.68-.3-.52-.2-.97-.52-1.34-.96-.38-.44-.67-1-.88-1.68a8.3 8.3 0 0 1-.32-2.46c0-.96.1-1.78.32-2.46.21-.68.5-1.24.88-1.68.37-.44.82-.76 1.34-.96.52-.2 1.08-.3 1.68-.3.6 0 1.16.1 1.68.3.52.2.96.52 1.34.96.37.44.66 1 .88 1.68.21.68.32 1.5.32 2.46s-.11 1.78-.32 2.46a4.94 4.94 0 0 1-.88 1.68c-.38.44-.82.76-1.34.96-.52.2-1.08.3-1.68.3Zm0-1.36c.82 0 1.46-.25 1.9-.74.45-.5.68-1.25.68-2.26v-2.08c0-1.01-.23-1.77-.68-2.26-.44-.5-1.08-.74-1.9-.74-.83 0-1.47.25-1.92.74-.44.5-.66 1.25-.66 2.26v2.08c0 1.01.22 1.77.66 2.26.45.5 1.09.74 1.92.74Zm6.56-9.2h1.52v12.36c0 .68-.17 1.17-.49 1.48-.3.32-.8.48-1.48.48h-1.07v-1.34h1.51v-12.98Zm.75-2.5c-.62 0-.94-.27-.94-.82v-.32c0-.55.32-.82.94-.82.63 0 .95.27.95.82v.32c0 .55-.32.82-.95.82Zm7.32 13.06c-.6 0-1.16-.1-1.68-.3-.52-.2-.97-.52-1.34-.96-.38-.44-.67-1-.88-1.68a8.26 8.26 0 0 1-.32-2.46c0-.96.1-1.78.32-2.46.2-.68.5-1.24.88-1.68.37-.44.82-.76 1.34-.96a4.64 4.64 0 0 1 3.32 0c.5.2.93.52 1.28.96.34.44.6 1 .8 1.68.2.68.3 1.5.3 2.46v.38h-6.62v.66c0 1.01.22 1.77.68 2.28.46.5 1.1.74 1.92.74.69 0 1.26-.15 1.7-.44.44-.3.78-.76 1.04-1.36l1.04.76c-.32.7-.8 1.28-1.42 1.72-.62.44-1.4.66-2.36.66Zm0-9.52a2.4 2.4 0 0 0-1.92.78c-.46.52-.68 1.29-.68 2.3v.26h5v-.26c0-2.05-.8-3.08-2.4-3.08Zm9.78 9.52a3.8 3.8 0 0 1-3.02-1.26c-.72-.84-1.08-2.22-1.08-4.14 0-1.92.36-3.3 1.08-4.14a3.8 3.8 0 0 1 3.02-1.26 3.64 3.64 0 0 1 3.6 2.38l-1.26.64a2.4 2.4 0 0 0-.82-1.22 2.4 2.4 0 0 0-1.52-.44c-.84 0-1.46.25-1.86.74-.4.5-.6 1.25-.6 2.26v2.08c0 1.01.2 1.77.6 2.26.4.5 1.02.74 1.86.74.67 0 1.2-.15 1.6-.44.41-.3.74-.74.98-1.34l1.12.78c-.3.72-.78 1.3-1.4 1.72-.62.43-1.38.64-2.3.64Zm7.76-.24c-.55 0-.95-.12-1.2-.36-.24-.25-.36-.65-.36-1.2v-7.42h-1.52v-1.34h.9c.3 0 .5-.07.6-.22.1-.16.16-.4.16-.7v-1.92h1.38v2.84h2v1.34h-2v7.64h1.9V555h-1.86Zm7.15.24a4.4 4.4 0 0 1-2.2-.52 4.8 4.8 0 0 1-1.54-1.44l1.06-.88c.36.5.74.9 1.16 1.16.42.27.93.4 1.52.4.6 0 1.07-.15 1.42-.44.36-.3.54-.74.54-1.3 0-.45-.12-.82-.34-1.1-.23-.28-.65-.47-1.26-.58l-.78-.14a4.6 4.6 0 0 1-2.24-.94c-.48-.44-.72-1.1-.72-2 0-.52.08-.97.24-1.34.16-.39.38-.7.68-.94.3-.25.64-.43 1.04-.54a4.8 4.8 0 0 1 1.34-.18 3.86 3.86 0 0 1 3.32 1.6l-.98.9a3.2 3.2 0 0 0-.9-.84 2.51 2.51 0 0 0-1.44-.38c-1.22 0-1.82.55-1.82 1.66 0 .5.12.88.38 1.12.26.23.7.4 1.28.5l.78.14c1.05.19 1.8.51 2.24.98.44.47.66 1.1.66 1.9 0 1-.3 1.79-.88 2.36-.58.56-1.43.84-2.56.84Z"/>
  <rect width="100" height="40" x="447" y="450" fill="#0B0F14" rx="20"/>
  <path fill="#fff" d="M472.33 476v-11.17h4.11c1.85 0 2.77 1.06 2.77 3.19 0 2.12-.92 3.18-2.77 3.18h-2.83v4.8h-1.28Zm1.28-5.92h2.8c.95 0 1.42-.51 1.42-1.54v-1.05c0-1.03-.47-1.54-1.42-1.54h-2.8v4.13Zm7.37-5.92h1.22v4.93h.16c.16-.51.4-.9.73-1.15.35-.26.8-.39 1.38-.39.74 0 1.31.25 1.73.75.42.5.64 1.28.64 2.32V476h-1.22v-5.3c0-.66-.14-1.16-.41-1.52-.27-.35-.69-.52-1.25-.52-.5 0-.9.14-1.25.44-.34.3-.51.72-.51 1.27V476h-1.22v-11.84ZM494.4 476c-.79 0-1.18-.4-1.18-1.18v-.16h-.16c-.14.5-.4.88-.77 1.15-.36.25-.8.38-1.31.38-.8 0-1.4-.2-1.8-.6-.39-.41-.59-1-.59-1.8 0-.77.25-1.37.76-1.82.5-.45 1.3-.67 2.38-.67h1.49v-.92c0-.6-.14-1.05-.42-1.34-.27-.29-.7-.43-1.28-.43-.48 0-.87.1-1.17.32-.29.2-.54.5-.75.9l-.72-.68a2.96 2.96 0 0 1 2.69-1.58c.94 0 1.65.23 2.13.69.49.44.73 1.11.73 2v4.67h.83V476h-.86Zm-3.12-.86a2.22 2.22 0 0 0 1.39-.52c.17-.16.3-.33.4-.52.1-.2.15-.42.15-.63v-1.25h-1.52c-.64 0-1.11.11-1.41.32a1.1 1.1 0 0 0-.43.93v.45c0 .42.13.72.38.93.26.19.6.29 1.04.29Zm7.93 1.05c-.69 0-1.27-.14-1.76-.41a3.8 3.8 0 0 1-1.24-1.16l.85-.7c.3.4.6.71.93.93.34.21.75.32 1.22.32.48 0 .86-.12 1.13-.35.3-.25.44-.6.44-1.04 0-.37-.1-.66-.28-.88-.18-.23-.51-.38-1-.47l-.63-.11c-.8-.15-1.4-.4-1.8-.75-.38-.35-.57-.89-.57-1.6 0-.42.07-.78.2-1.07.12-.31.3-.56.54-.76.23-.2.51-.34.83-.43.33-.1.69-.14 1.07-.14a3.09 3.09 0 0 1 2.66 1.28l-.79.72a2.56 2.56 0 0 0-.71-.67c-.3-.2-.69-.3-1.16-.3-.97 0-1.45.44-1.45 1.32 0 .4.1.7.3.9.21.18.56.31 1.02.4l.63.1c.84.16 1.44.42 1.8.8.34.37.52.87.52 1.51 0 .8-.24 1.43-.7 1.89-.46.45-1.15.67-2.05.67Zm7.56 0c-.48 0-.93-.08-1.35-.24a2.63 2.63 0 0 1-1.07-.77c-.3-.35-.53-.8-.7-1.34a6.65 6.65 0 0 1-.26-1.97c0-.77.09-1.42.26-1.97.17-.54.4-.99.7-1.34.3-.35.66-.6 1.07-.77a3.71 3.71 0 0 1 2.66 0c.4.16.75.42 1.02.77.28.35.5.8.64 1.34.16.55.24 1.2.24 1.97v.3h-5.3v.53c0 .81.19 1.42.55 1.83a2 2 0 0 0 1.54.59c.55 0 1-.12 1.36-.35.35-.25.63-.61.83-1.09l.83.6a3.16 3.16 0 0 1-3.02 1.9Zm0-7.61c-.66 0-1.18.2-1.54.62-.36.42-.54 1.03-.54 1.84v.2h4v-.2c0-1.64-.64-2.46-1.92-2.46Zm11.04 1c.67 0 1.17-.16 1.5-.48.34-.33.51-.78.51-1.34v-.24c0-.63-.16-1.08-.48-1.34-.32-.27-.75-.4-1.3-.4-.5 0-.92.11-1.24.35-.32.23-.59.57-.8 1.02l-.93-.72c.13-.22.28-.44.46-.65a3.2 3.2 0 0 1 1.5-.98 4.16 4.16 0 0 1 2.34.02c.38.1.7.27.97.5.26.23.46.52.6.87.15.35.23.77.23 1.25 0 .37-.06.7-.16 1-.11.3-.25.56-.43.78a2.75 2.75 0 0 1-1.41.82v.15c.3.03.58.11.85.24a2.26 2.26 0 0 1 1.16 1.36c.12.33.18.72.18 1.15 0 1-.3 1.8-.9 2.39-.58.57-1.43.86-2.53.86a3.9 3.9 0 0 1-2.07-.57 3.69 3.69 0 0 1-.7-.6c-.18-.22-.36-.45-.52-.68l.96-.72c.25.43.55.78.88 1.05.34.26.81.39 1.42.39.7 0 1.22-.17 1.57-.5.36-.34.54-.86.54-1.55v-.26c0-.7-.18-1.2-.54-1.53-.35-.35-.87-.52-1.57-.52h-1.18v-1.12h1.09Z"/>
  <rect width="278" height="122" x="537" y="231" fill="#181D23" rx="23"/>
  <rect width="278" height="122" x="537" y="231" stroke="#9488F0" stroke-width="2" rx="23"/>
  <path fill="#fff" d="M585.36 285v-13.96h1.6v12.56h5.3v1.4h-6.9Zm15.52 0c-1 0-1.48-.5-1.48-1.48v-.2h-.2a2.6 2.6 0 0 1-.96 1.44c-.46.32-1 .48-1.64.48-1 0-1.75-.25-2.24-.76-.5-.5-.74-1.25-.74-2.24 0-.96.3-1.72.94-2.28.64-.56 1.63-.84 2.98-.84h1.86v-1.14c0-.76-.18-1.32-.52-1.68-.34-.36-.87-.54-1.6-.54-.6 0-1.1.13-1.46.4-.36.25-.68.63-.94 1.12l-.9-.84a3.7 3.7 0 0 1 3.36-1.98c1.17 0 2.06.29 2.66.86.6.56.92 1.4.92 2.5v5.84h1.04V285h-1.08Zm-3.9-1.08a2.72 2.72 0 0 0 1.74-.64c.2-.2.38-.42.5-.66.12-.25.18-.51.18-.78v-1.56h-1.9c-.8 0-1.4.13-1.76.4-.36.27-.54.65-.54 1.16v.56c0 .52.16.9.48 1.16.32.24.75.36 1.3.36Zm12.74-.6h-.2c-.2.64-.5 1.12-.94 1.44-.4.32-.98.48-1.7.48-.92 0-1.64-.31-2.18-.94-.52-.63-.78-1.6-.78-2.9v-6.72h1.52v6.62c0 .83.17 1.46.5 1.9.35.44.88.66 1.58.66.62 0 1.14-.19 1.56-.56.43-.37.64-.9.64-1.58v-7.04h1.52V285h-1.52v-1.68Zm4.56 1.68v-10.32h1.52v1.68h.2c.2-.64.5-1.12.92-1.44.42-.32 1-.48 1.72-.48.92 0 1.64.31 2.16.94.53.63.8 1.6.8 2.9V285h-1.52v-6.62c0-.83-.18-1.46-.52-1.9-.34-.44-.86-.66-1.56-.66-.62 0-1.14.19-1.56.56-.43.37-.64.9-.64 1.58V285h-1.52Zm13.65.24a3.8 3.8 0 0 1-3.02-1.26c-.72-.84-1.08-2.22-1.08-4.14 0-1.92.36-3.3 1.08-4.14a3.8 3.8 0 0 1 3.02-1.26 3.64 3.64 0 0 1 3.6 2.38l-1.26.64a2.4 2.4 0 0 0-.82-1.22 2.4 2.4 0 0 0-1.52-.44c-.84 0-1.46.25-1.86.74-.4.5-.6 1.25-.6 2.26v2.08c0 1.01.2 1.77.6 2.26.4.5 1.02.74 1.86.74.67 0 1.2-.15 1.6-.44.42-.3.74-.74.98-1.34l1.12.78a3.76 3.76 0 0 1-3.7 2.36Zm5.68-15.04h1.52v6.16h.2c.2-.64.51-1.12.92-1.44.43-.32 1-.48 1.72-.48.92 0 1.64.31 2.16.94.54.63.8 1.6.8 2.9V285h-1.52v-6.62c0-.83-.17-1.46-.52-1.9-.33-.44-.85-.66-1.56-.66-.61 0-1.13.19-1.56.56a2 2 0 0 0-.64 1.58V285h-1.52v-14.8Zm22.76 12.86h-.2a2.64 2.64 0 0 1-1.08 1.56c-.56.41-1.36.62-2.38.62-.76 0-1.46-.14-2.08-.42a4.21 4.21 0 0 1-1.6-1.32 6.71 6.71 0 0 1-1.04-2.24c-.24-.92-.36-2-.36-3.24 0-2.5.46-4.32 1.4-5.48a4.77 4.77 0 0 1 3.94-1.74c1.22 0 2.2.27 2.94.8.73.52 1.3 1.24 1.72 2.16l-1.32.8a3.66 3.66 0 0 0-1.22-1.72 3.42 3.42 0 0 0-2.12-.62c-1.16 0-2.06.39-2.68 1.16a4.7 4.7 0 0 0-.94 3.08v3.12c0 1.3.3 2.33.94 3.1a3.28 3.28 0 0 0 2.68 1.14c.45 0 .88-.07 1.28-.2s.76-.33 1.06-.58a2.84 2.84 0 0 0 .98-2.26v-1.52h-2.76v-1.4h4.32V285h-1.48v-1.94Zm5.91-12.02v9.04c0 .63.05 1.17.14 1.64.11.47.28.86.5 1.18.23.3.53.54.9.7.4.15.86.22 1.4.22 1.1 0 1.86-.3 2.28-.92.45-.63.66-1.57.66-2.82v-9.04h1.6v8.72c0 .93-.08 1.75-.24 2.44a4.26 4.26 0 0 1-.77 1.7c-.35.45-.82.8-1.4 1.02-.58.21-1.28.32-2.13.32a6.3 6.3 0 0 1-2.13-.32 3.3 3.3 0 0 1-1.4-1.02 4.43 4.43 0 0 1-.77-1.7c-.15-.7-.24-1.5-.24-2.44v-8.72h1.6ZM674.62 285h-1.6v-13.96h5.14c2.3 0 3.46 1.33 3.46 3.98 0 2.24-.83 3.53-2.48 3.88l2.82 6.1h-1.8l-2.62-6h-2.92v6Zm3.5-7.36c1.19 0 1.78-.64 1.78-1.92v-1.36c0-1.28-.6-1.92-1.78-1.92h-3.5v5.2h3.5Zm7.77-6.6v9.04c0 .63.04 1.17.14 1.64s.27.86.5 1.18c.23.3.52.54.9.7.38.15.85.22 1.4.22 1.1 0 1.85-.3 2.28-.92.44-.63.66-1.57.66-2.82v-9.04h1.6v8.72c0 .93-.08 1.75-.24 2.44a4.26 4.26 0 0 1-.78 1.7c-.35.45-.82.8-1.4 1.02-.58.21-1.28.32-2.12.32a6.3 6.3 0 0 1-2.14-.32 3.3 3.3 0 0 1-1.4-1.02 4.43 4.43 0 0 1-.76-1.7c-.16-.7-.24-1.5-.24-2.44v-8.72h1.6Zm17.8 4.9-1.22-2.88h-.2l.14 2.88V285h-1.56v-13.96h1.96l4.64 9.06 1.22 2.88h.2l-.14-2.88v-9.06h1.56V285h-1.96l-4.64-9.06Zm13.28 9.3c-.6 0-1.16-.1-1.68-.3-.52-.2-.97-.52-1.34-.96-.38-.44-.67-1-.88-1.68a8.3 8.3 0 0 1-.32-2.46c0-.96.1-1.78.32-2.46.21-.68.5-1.24.88-1.68.37-.44.82-.76 1.34-.96a4.64 4.64 0 0 1 3.32 0c.5.2.93.52 1.28.96.35.44.61 1 .8 1.68.2.68.3 1.5.3 2.46v.38h-6.62v.66c0 1.01.23 1.77.68 2.28.47.5 1.1.74 1.92.74.7 0 1.26-.15 1.7-.44.44-.3.79-.76 1.04-1.36l1.04.76c-.32.7-.8 1.28-1.42 1.72-.62.44-1.4.66-2.36.66Zm0-9.52a2.4 2.4 0 0 0-1.92.78c-.45.52-.68 1.29-.68 2.3v.26h5v-.26c0-2.05-.8-3.08-2.4-3.08Zm8.46 9.28c-.55 0-.95-.12-1.2-.36-.24-.25-.36-.65-.36-1.2v-7.42h-1.52v-1.34h.9c.3 0 .5-.07.6-.22.1-.16.16-.4.16-.7v-1.92h1.38v2.84h2v1.34h-2v7.64h1.9V285h-1.86Zm3.3-10.32h1.49l1 4.48.88 4.5h.2l1.02-4.5 1.04-4.48h1.76l1.04 4.48 1.02 4.5h.2l.88-4.5 1-4.48h1.44L739.2 285h-1.92l-1.26-5-.7-3.78h-.2l-.74 3.78-1.26 5h-1.92l-2.48-10.32Zm18.38 10.56c-.6 0-1.17-.1-1.69-.3a3.3 3.3 0 0 1-1.33-.96c-.38-.44-.67-1-.88-1.68a8.26 8.26 0 0 1-.33-2.46c0-.96.11-1.78.33-2.46.2-.68.5-1.24.88-1.68.37-.44.81-.76 1.33-.96a4.7 4.7 0 0 1 3.36 0c.52.2.97.52 1.35.96.37.44.66 1 .88 1.68.2.68.32 1.5.32 2.46s-.11 1.78-.33 2.46c-.2.68-.5 1.24-.88 1.68-.37.44-.82.76-1.34.96-.51.2-1.07.3-1.67.3Zm0-1.36c.82 0 1.45-.25 1.9-.74.45-.5.67-1.25.67-2.26v-2.08c0-1.01-.22-1.77-.67-2.26-.45-.5-1.08-.74-1.9-.74-.83 0-1.47.25-1.93.74-.43.5-.65 1.25-.65 2.26v2.08c0 1.01.22 1.77.65 2.26.46.5 1.1.74 1.93.74Zm6.55 1.12v-10.32h1.52v1.92h.2c.18-.6.47-1.07.88-1.4.43-.35.98-.52 1.66-.52h.56v1.54h-1c-.72 0-1.28.16-1.7.48-.4.32-.6.8-.6 1.44V285h-1.52Zm6.64-14.8h1.52v7.6l-.12 2.02h.16l1.44-1.94 2.58-3.2h1.84l-3.42 4.1 3.72 6.22h-1.82l-3.02-5.32-1.36 1.6V285h-1.52v-14.8Zm-113.61 32.24V315h-1.6v-12.56h-3.94v-1.4h9.48v1.4h-3.94Zm8.2 12.8c-.6 0-1.16-.1-1.68-.3-.52-.2-.97-.52-1.34-.96-.38-.44-.67-1-.88-1.68a8.3 8.3 0 0 1-.32-2.46c0-.96.1-1.78.32-2.46.21-.68.5-1.24.88-1.68.37-.44.82-.76 1.34-.96a4.64 4.64 0 0 1 3.32 0c.5.2.93.52 1.28.96.35.44.61 1 .8 1.68.2.68.3 1.5.3 2.46v.38h-6.62v.66c0 1.01.23 1.77.68 2.28.46.5 1.1.74 1.92.74.7 0 1.26-.15 1.7-.44.44-.3.78-.76 1.04-1.36l1.04.76c-.32.7-.8 1.28-1.42 1.72-.62.44-1.4.66-2.36.66Zm0-9.52a2.4 2.4 0 0 0-1.92.78c-.46.52-.68 1.29-.68 2.3v.26h5v-.26c0-2.05-.8-3.08-2.4-3.08Zm9.9 9.52c-.6 0-1.16-.1-1.68-.3-.52-.2-.97-.52-1.34-.96-.37-.44-.67-1-.88-1.68a8.3 8.3 0 0 1-.32-2.46c0-.96.1-1.78.32-2.46.21-.68.5-1.24.88-1.68.37-.44.82-.76 1.34-.96a4.64 4.64 0 0 1 3.32 0c.5.2.93.52 1.28.96.35.44.61 1 .8 1.68.2.68.3 1.5.3 2.46v.38h-6.62v.66c0 1.01.23 1.77.68 2.28.47.5 1.1.74 1.92.74a3 3 0 0 0 1.7-.44c.44-.3.79-.76 1.04-1.36l1.04.76a3.94 3.94 0 0 1-3.78 2.38Zm0-9.52a2.4 2.4 0 0 0-1.92.78c-.45.52-.68 1.29-.68 2.3v.26h5v-.26c0-2.05-.8-3.08-2.4-3.08Zm9.24 9.52a4.4 4.4 0 0 1-2.2-.52 4.79 4.79 0 0 1-1.54-1.44l1.06-.88c.36.5.75.9 1.16 1.16.43.27.94.4 1.52.4.6 0 1.08-.15 1.42-.44.36-.3.54-.74.54-1.3 0-.45-.11-.82-.34-1.1-.22-.28-.64-.47-1.26-.58l-.78-.14a4.6 4.6 0 0 1-2.24-.94c-.48-.44-.72-1.1-.72-2 0-.52.08-.97.24-1.34.16-.39.39-.7.68-.94.3-.25.64-.43 1.04-.54.42-.12.86-.18 1.34-.18a3.88 3.88 0 0 1 3.32 1.6l-.98.9c-.22-.32-.52-.6-.9-.84a2.52 2.52 0 0 0-1.44-.38c-1.21 0-1.82.55-1.82 1.66 0 .5.13.88.38 1.12.27.23.7.4 1.28.5l.78.14c1.06.19 1.8.51 2.24.98.44.47.66 1.1.66 1.9 0 1-.3 1.79-.88 2.36-.57.56-1.42.84-2.56.84ZM682 315c-.54 0-.94-.12-1.2-.36-.24-.25-.36-.65-.36-1.2v-7.42h-1.52v-1.34h.9c.3 0 .5-.07.6-.22.1-.16.16-.4.16-.7v-1.92h1.38v2.84h2v1.34h-2v7.64h1.9V315H682Zm4.29 0v-10.32h1.52v1.68h.2c.2-.64.5-1.12.92-1.44.43-.32 1-.48 1.72-.48.92 0 1.64.31 2.16.94.53.63.8 1.6.8 2.9V315h-1.52v-6.62c0-.83-.17-1.46-.52-1.9-.33-.44-.85-.66-1.56-.66-.61 0-1.13.19-1.56.56-.43.37-.64.9-.64 1.58V315h-1.52Zm13.77.24c-.6 0-1.16-.1-1.68-.3-.52-.2-.96-.52-1.34-.96-.37-.44-.66-1-.88-1.68a8.26 8.26 0 0 1-.32-2.46c0-.96.11-1.78.32-2.46.22-.68.51-1.24.88-1.68.38-.44.82-.76 1.34-.96a4.64 4.64 0 0 1 3.32 0c.51.2.94.52 1.28.96.35.44.62 1 .8 1.68.2.68.3 1.5.3 2.46v.38h-6.62v.66c0 1.01.23 1.77.68 2.28.47.5 1.11.74 1.92.74.7 0 1.26-.15 1.7-.44.44-.3.79-.76 1.04-1.36l1.04.76a3.95 3.95 0 0 1-3.78 2.38Zm0-9.52c-.82 0-1.46.26-1.92.78-.45.52-.68 1.29-.68 2.3v.26h5v-.26c0-2.05-.8-3.08-2.4-3.08Zm8.47 9.28c-.55 0-.95-.12-1.2-.36-.24-.25-.36-.65-.36-1.2v-7.42h-1.52v-1.34h.9c.3 0 .5-.07.6-.22.1-.16.16-.4.16-.7v-1.92h1.38v2.84h2v1.34h-2v7.64h1.9V315h-1.86Z"/>
  <rect width="100" height="40" x="626" y="210" fill="#0B0F14" rx="20"/>
  <path fill="#fff" d="M651.33 236v-11.17h4.11c1.84 0 2.77 1.06 2.77 3.19 0 2.12-.93 3.18-2.77 3.18h-2.83v4.8h-1.28Zm1.28-5.92h2.8c.95 0 1.42-.51 1.42-1.54v-1.05c0-1.03-.47-1.54-1.42-1.54h-2.8v4.13Zm7.37-5.92h1.22v4.93h.16c.16-.51.4-.9.73-1.15.34-.26.8-.39 1.38-.39.74 0 1.31.25 1.73.75.42.5.64 1.28.64 2.32V236h-1.22v-5.3c0-.66-.14-1.16-.41-1.52-.27-.35-.69-.52-1.25-.52-.5 0-.9.15-1.25.44-.34.3-.51.72-.51 1.27V236h-1.22v-11.84ZM673.4 236c-.79 0-1.18-.4-1.18-1.18v-.16h-.16c-.14.5-.4.88-.77 1.15-.36.25-.8.38-1.31.38-.8 0-1.4-.2-1.8-.6-.39-.41-.59-1-.59-1.8 0-.77.25-1.37.75-1.82.52-.45 1.31-.67 2.39-.67h1.49v-.92c0-.6-.14-1.05-.42-1.34-.27-.29-.7-.43-1.28-.43-.48 0-.87.1-1.17.32-.28.2-.54.5-.75.9l-.72-.68a2.96 2.96 0 0 1 2.69-1.58c.94 0 1.65.23 2.13.69.49.44.73 1.11.73 2v4.67h.84V236h-.87Zm-3.12-.86a2.22 2.22 0 0 0 1.39-.52c.17-.16.3-.33.4-.52.1-.2.15-.41.15-.63v-1.25h-1.52c-.64 0-1.11.11-1.41.32a1.1 1.1 0 0 0-.43.93v.45c0 .42.13.73.38.93.26.19.6.29 1.04.29Zm7.93 1.05c-.69 0-1.27-.14-1.76-.41a3.8 3.8 0 0 1-1.24-1.16l.85-.7c.3.4.6.72.93.93.34.21.75.32 1.22.32.48 0 .86-.12 1.13-.35.3-.25.43-.6.43-1.04 0-.37-.09-.66-.27-.88-.18-.23-.51-.38-1-.47l-.63-.11c-.8-.15-1.4-.4-1.8-.75-.38-.35-.57-.89-.57-1.6 0-.42.07-.78.2-1.07.12-.31.3-.56.54-.76.23-.2.51-.34.83-.43.33-.1.69-.14 1.07-.14a3.09 3.09 0 0 1 2.66 1.28l-.79.72a2.56 2.56 0 0 0-.72-.67c-.3-.2-.68-.3-1.15-.3-.97 0-1.45.44-1.45 1.32 0 .4.1.7.3.9.21.18.56.31 1.02.4l.63.1c.84.16 1.44.42 1.8.8.34.37.52.87.52 1.51 0 .8-.24 1.43-.7 1.89-.46.45-1.15.67-2.05.67Zm7.56 0c-.48 0-.93-.08-1.35-.24a2.63 2.63 0 0 1-1.07-.77c-.3-.35-.53-.8-.7-1.34a6.65 6.65 0 0 1-.26-1.97c0-.77.09-1.42.26-1.97.17-.54.4-.99.7-1.34.3-.35.66-.6 1.07-.77a3.71 3.71 0 0 1 2.66 0c.4.16.75.42 1.02.77.28.35.5.8.64 1.34.16.55.24 1.2.24 1.97v.3h-5.3v.53c0 .81.19 1.42.55 1.83a2 2 0 0 0 1.54.59c.55 0 1-.12 1.36-.35.35-.25.63-.61.83-1.09l.83.6a3.16 3.16 0 0 1-3.02 1.9Zm0-7.61c-.66 0-1.18.2-1.54.62-.36.42-.54 1.03-.54 1.84v.2h4v-.2c0-1.64-.64-2.46-1.92-2.46Zm14.97 7.42h-6.64v-1.33l3.4-3.52c.54-.55.93-1.06 1.16-1.53.25-.48.37-.96.37-1.43v-.41c0-1.34-.58-2-1.74-2-.58 0-1.04.15-1.4.44-.34.3-.58.72-.72 1.27l-1.12-.45a3.68 3.68 0 0 1 1.14-1.71 3.45 3.45 0 0 1 2.13-.69c1.04 0 1.81.27 2.3.82.5.53.75 1.32.75 2.36a3.87 3.87 0 0 1-.43 1.97c-.16.31-.38.64-.65 1-.27.34-.61.72-1.03 1.16l-2.78 2.93h5.26V236Z"/>
  <path stroke="#55606F" stroke-width="4" d="M498 114v4.1c0 13.44 0 20.16 2.62 25.3a24 24 0 0 0 10.48 10.48c5.14 2.62 11.86 2.62 25.3 2.62h101.2c13.44 0 20.16 0 25.3 2.62a24 24 0 0 1 10.48 10.48c2.62 5.14 2.62 11.86 2.62 25.3V210M320 354v4.1c0 13.44 0 20.16 2.62 25.3a24 24 0 0 0 10.48 10.48c5.14 2.62 11.86 2.62 25.3 2.62h101.2c13.44 0 20.16 0 25.3 2.62a24 24 0 0 1 10.48 10.48c2.62 5.14 2.62 11.86 2.62 25.3V450m0 144v72m0-552v4.1c0 13.44 0 20.16-2.62 25.3a24 24 0 0 1-10.48 10.48c-5.14 2.62-11.86 2.62-25.3 2.62H358.4c-13.44 0-20.16 0-25.3 2.62a24 24 0 0 0-10.48 10.48c-2.62 5.14-2.62 11.86-2.62 25.3V210m0 144v4.1c0 13.44 0 20.16-2.62 25.3a24 24 0 0 1-10.48 10.48c-5.14 2.62-11.86 2.62-25.3 2.62H180.4c-13.44 0-20.16 0-25.3 2.62a24 24 0 0 0-10.48 10.48c-2.62 5.14-2.62 11.86-2.62 25.3V450"/>
</svg>