<svg xmlns="http://www.w3.org/2000/svg" fill="none" viewBox="0 0 1172 491">
  <path fill="#2C353F" d="M334 86a81 81 0 1 1 162 0 81 81 0 0 1-162 0Zm344 0a81 81 0 1 1 162 0 81 81 0 0 1-162 0Z"/>
  <path fill="#55606F" d="M358 86a57 57 0 1 1 114 0 57 57 0 0 1-114 0Z"/>
  <circle cx="114" cy="352" r="65" fill="#181D23"/>
  <path fill="#12B886" d="M124 259h-20l10 16 10-16Z"/>
  <path fill="#FF646D" d="M69.32 391.12a2.33 2.33 0 0 1 2.34 2.33v8.49a1.56 1.56 0 1 0 3.11 0v-8.49a2.33 2.33 0 0 1 2.34-2.33 2.33 2.33 0 0 0 2.33-2.33v-15.63a2.33 2.33 0 0 0-2.33-2.34 2.33 2.33 0 0 1-2.34-2.33v-4.52a1.56 1.56 0 1 0-3.11 0v4.52a2.33 2.33 0 0 1-2.34 2.33 2.33 2.33 0 0 0-2.33 2.34v15.63a2.33 2.33 0 0 0 2.33 2.33Z"/>
  <path fill="#12B886" d="M53.02 371.87c1.23 0 2.22.99 2.22 2.21v8.02a1.48 1.48 0 0 0 2.96 0v-8.02c0-1.22 1-2.21 2.22-2.21 1.22 0 2.21-1 2.21-2.22v-7.76c0-1.23-.99-2.22-2.21-2.22-1.23 0-2.22-1-2.22-2.22v-8.5a1.48 1.48 0 1 0-2.96 0v8.5c0 1.23-1 2.22-2.22 2.22-1.22 0-2.21 1-2.21 2.22v7.76c0 1.22.99 2.22 2.21 2.22Zm-16.72 7.91c1.05 0 1.9.85 1.9 1.9v.5a1.4 1.4 0 1 0 2.8 0v-.5c0-1.05.85-1.9 1.9-1.9h.2a2.1 2.1 0 0 0 2.1-2.1v-7.66a2.1 2.1 0 0 0-2.1-2.1 2.1 2.1 0 0 1-2.1-2.1v-.76a1.4 1.4 0 0 0-2.8 0v.76a2.1 2.1 0 0 1-2.1 2.1 2.1 2.1 0 0 0-2.1 2.1v7.66c0 1.16.94 2.1 2.1 2.1h.2Zm49.6-8.76c1.16 0 2.1.94 2.1 2.1v4.7a1.4 1.4 0 1 0 2.8 0v-4.7c0-1.16.94-2.1 2.1-2.1a2.1 2.1 0 0 0 2.1-2.1v-18a2.1 2.1 0 0 0-2.1-2.1 2.1 2.1 0 0 1-2.1-2.1v-4.7a1.4 1.4 0 1 0-2.8 0v4.7a2.1 2.1 0 0 1-2.1 2.1 2.1 2.1 0 0 0-2.1 2.1v18c0 1.16.94 2.1 2.1 2.1Zm16.3-16.32c1.22 0 2.22.99 2.22 2.21v20.2a1.48 1.48 0 1 0 2.95 0v-20.2c0-1.22 1-2.22 2.22-2.22 1.23 0 2.22-.99 2.22-2.21V317.4c0-1.22-1-2.21-2.22-2.21h-1.24a.98.98 0 0 1-.98-.98.97.97 0 0 0-.97-.97h-1a.97.97 0 0 0-.98.97c0 .54-.44.98-.98.98h-1.24c-1.23 0-2.22.99-2.22 2.21v35.08c0 1.22 1 2.21 2.22 2.21Z"/>
  <path fill="#FF646D" d="M119 368.31c1.23 0 2.22 1 2.22 2.22v4.72a1.48 1.48 0 1 0 2.96 0v-4.72c0-1.22 1-2.22 2.22-2.22 1.22 0 2.22-.99 2.22-2.21v-19.82c0-1.23-1-2.22-2.22-2.22-1.23 0-2.22-1-2.22-2.22v-4.72a1.48 1.48 0 0 0-2.96 0v4.72c0 1.23-.99 2.22-2.21 2.22-1.23 0-2.22 1-2.22 2.22v19.82c0 1.22 1 2.21 2.22 2.21Zm16.81 7.59c1.23 0 2.22 1 2.22 2.22v4.6a1.48 1.48 0 1 0 2.96 0v-4.6c0-1.23 1-2.22 2.22-2.22 1.22 0 2.22-1 2.22-2.22v-3.86c0-1.23-1-2.22-2.22-2.22-1.23 0-2.22-1-2.22-2.22v-4.6a1.48 1.48 0 1 0-2.96 0v4.6c0 1.23-.99 2.22-2.22 2.22-1.22 0-2.21 1-2.21 2.22v3.86c0 1.22 1 2.22 2.22 2.22Zm32.88 16.07c1.16 0 2.1.94 2.1 2.1v4.91a1.4 1.4 0 1 0 2.8 0v-4.91c0-1.16.94-2.1 2.1-2.1a2.1 2.1 0 0 0 2.1-2.1V369.8a2.1 2.1 0 0 0-2.1-2.1 2.1 2.1 0 0 1-2.1-2.1v-4.91a1.4 1.4 0 1 0-2.8 0v4.91a2.1 2.1 0 0 1-2.1 2.1 2.1 2.1 0 0 0-2.1 2.1v20.06c0 1.16.94 2.1 2.1 2.1Z"/>
  <path fill="#12B886" d="M185.6 368.36a2 2 0 0 1 2 2v.61a1.4 1.4 0 0 0 2.8 0v-.6a2 2 0 0 1 2-2h.1a2.1 2.1 0 0 0 2.1-2.1v-8.33a2.1 2.1 0 0 0-2.1-2.1h-.1a2 2 0 0 1-2-2v-.61a1.4 1.4 0 0 0-2.8 0v.6a2 2 0 0 1-2 2h-.1a2.1 2.1 0 0 0-2.1 2.1v8.33c0 1.16.94 2.1 2.1 2.1h.1Zm-32.98-1.34c1.23 0 2.22 1 2.22 2.22v8.5a1.48 1.48 0 1 0 2.96 0v-8.5c0-1.22.99-2.22 2.21-2.22 1.23 0 2.22-.99 2.22-2.21v-58.5c0-1.22-1-2.21-2.22-2.21-1.22 0-2.21-1-2.21-2.22v-4.6a1.48 1.48 0 1 0-2.96 0v4.6c0 1.23-1 2.22-2.22 2.22-1.22 0-2.22 1-2.22 2.21v58.5c0 1.22 1 2.21 2.22 2.21Z"/>
  <path fill="#8D9EB0" d="M78.18 443.04h4.38c1.61 0 2.86.56 3.74 1.68.88 1.1 1.32 2.87 1.32 5.3 0 2.43-.44 4.2-1.32 5.32a4.5 4.5 0 0 1-3.74 1.66h-4.38v-13.96Zm4.38 12.56c1 0 1.8-.35 2.42-1.04.61-.7.92-1.69.92-2.98v-3.12c0-1.3-.3-2.29-.92-2.98a3.08 3.08 0 0 0-2.42-1.04h-2.78v11.16h2.78Zm11.15 1.64c-.6 0-1.16-.1-1.68-.3-.52-.2-.97-.52-1.34-.96-.38-.44-.67-1-.88-1.68a8.28 8.28 0 0 1-.32-2.46c0-.96.1-1.78.32-2.46.21-.68.5-1.24.88-1.68.37-.44.82-.76 1.34-.96a4.64 4.64 0 0 1 3.32 0c.5.2.93.52 1.28.96.34.44.61 1 .8 1.68.2.68.3 1.5.3 2.46v.38H91.1v.66c0 1.01.22 1.77.68 2.28.46.5 1.1.74 1.92.74.7 0 1.26-.15 1.7-.44.44-.3.78-.76 1.04-1.36l1.04.76c-.32.7-.8 1.28-1.42 1.72-.62.44-1.4.66-2.36.66Zm0-9.52a2.4 2.4 0 0 0-1.92.78c-.46.52-.68 1.29-.68 2.3v.26h5v-.26c0-2.05-.8-3.08-2.4-3.08Zm5.05 9.28 3.4-5.26-3.27-5.06h1.72l2.3 3.76h.2l2.34-3.76h1.66l-3.23 5 3.34 5.32h-1.72l-2.39-4.04h-.2l-2.5 4.04h-1.66Zm18.57-1.94h-.2c-.14.63-.5 1.15-1.07 1.56a4 4 0 0 1-2.39.62c-.75 0-1.45-.14-2.08-.42a4.21 4.21 0 0 1-1.6-1.32 6.71 6.71 0 0 1-1.03-2.24c-.24-.92-.36-2-.36-3.24 0-2.5.46-4.32 1.4-5.48a4.77 4.77 0 0 1 3.94-1.74c1.22 0 2.2.27 2.94.8.73.52 1.3 1.24 1.72 2.16l-1.32.8a3.66 3.66 0 0 0-1.22-1.72 3.42 3.42 0 0 0-2.13-.62c-1.16 0-2.05.39-2.68 1.16a4.7 4.7 0 0 0-.94 3.08v3.12c0 1.3.32 2.33.94 3.1a3.28 3.28 0 0 0 2.69 1.14c.45 0 .88-.07 1.28-.2s.76-.33 1.06-.58a2.87 2.87 0 0 0 .97-2.26v-1.52h-2.75v-1.4h4.31V457h-1.48v-1.94Zm9.98.26h-.2c-.2.64-.51 1.12-.94 1.44a2.7 2.7 0 0 1-1.7.48c-.92 0-1.64-.31-2.18-.94-.52-.63-.78-1.6-.78-2.9v-6.72h1.52v6.62c0 .83.17 1.46.5 1.9.35.44.88.66 1.58.66.62 0 1.14-.19 1.56-.56.43-.37.64-.9.64-1.58v-7.04h1.52V457h-1.52v-1.68Zm4.56 1.68v-10.32h1.52v1.92h.2c.17-.6.46-1.07.88-1.4.42-.35.98-.52 1.66-.52h.56v1.54h-1a2.7 2.7 0 0 0-1.7.48c-.4.32-.6.8-.6 1.44V457h-1.52Zm12.34-1.68h-.2c-.2.64-.51 1.12-.94 1.44a2.7 2.7 0 0 1-1.7.48 2.7 2.7 0 0 1-2.18-.94c-.52-.63-.78-1.6-.78-2.9v-6.72h1.52v6.62c0 .83.16 1.46.5 1.9.34.44.87.66 1.58.66.61 0 1.13-.19 1.56-.56.43-.37.64-.9.64-1.58v-7.04h1.52V457h-1.52v-1.68Zm-91.98 17.12V485h-1.6v-12.56h-3.94v-1.4h9.48v1.4h-3.94ZM57.2 485v-10.32h1.52v1.92h.2c.17-.6.47-1.07.88-1.4.43-.35.98-.52 1.66-.52h.56v1.54h-1a2.7 2.7 0 0 0-1.7.48c-.4.32-.6.8-.6 1.44V485H57.2Zm13.02 0c-.98 0-1.48-.5-1.48-1.48v-.2h-.2a2.5 2.5 0 0 1-.96 1.44c-.45.32-1 .48-1.64.48-1 0-1.74-.25-2.24-.76-.49-.5-.74-1.25-.74-2.24 0-.96.32-1.72.94-2.28.64-.56 1.64-.84 2.98-.84h1.86v-1.14c0-.76-.17-1.32-.52-1.68-.33-.36-.86-.54-1.6-.54-.6 0-1.08.13-1.46.4-.36.25-.67.63-.94 1.12l-.9-.84a3.69 3.69 0 0 1 3.36-1.98c1.18 0 2.06.29 2.66.86.62.56.92 1.4.92 2.5v5.84h1.04V485h-1.08Zm-3.9-1.08c.35 0 .67-.06.96-.18a2.22 2.22 0 0 0 1.28-1.12c.12-.25.18-.51.18-.78v-1.56h-1.9c-.8 0-1.38.13-1.76.4-.36.27-.54.65-.54 1.16v.56c0 .52.16.9.48 1.16.32.24.76.36 1.3.36Zm12.97-.6h-.2c-.2.68-.53 1.17-.98 1.48-.44.3-.98.44-1.62.44a3.4 3.4 0 0 1-1.62-.38 3.37 3.37 0 0 1-1.18-1.08 5.07 5.07 0 0 1-.72-1.7 9.62 9.62 0 0 1-.24-2.24c0-.83.08-1.57.24-2.24.16-.67.4-1.23.72-1.7a3.28 3.28 0 0 1 2.8-1.46 2.49 2.49 0 0 1 2.6 1.92h.2v-6.16h1.52V485H79.3v-1.68Zm-2.34.56c.32 0 .62-.05.9-.14a2.07 2.07 0 0 0 1.24-1.02c.13-.24.2-.5.2-.8v-4.16a1.87 1.87 0 0 0-.7-1.42 2.65 2.65 0 0 0-1.64-.54c-.84 0-1.48.27-1.92.8a3.3 3.3 0 0 0-.66 2.2v2.08c0 .95.22 1.69.66 2.22.44.52 1.08.78 1.92.78Zm7.67-11.7c-.63 0-.94-.27-.94-.82v-.32c0-.55.31-.82.94-.82.63 0 .94.27.94.82v.32c0 .55-.31.82-.94.82Zm-.76 2.5h1.52V485h-1.52v-10.32ZM88.41 485v-10.32h1.52v1.68h.2c.2-.64.5-1.12.92-1.44.43-.32 1-.48 1.72-.48.92 0 1.64.31 2.16.94.53.63.8 1.6.8 2.9V485h-1.52v-6.62c0-.83-.17-1.46-.52-1.9-.33-.44-.85-.66-1.56-.66-.61 0-1.13.19-1.56.56-.43.37-.64.9-.64 1.58V485h-1.52Zm18.14 1.16c0 1.1-.38 1.88-1.13 2.36-.73.48-1.87.72-3.42.72-1.47 0-2.54-.22-3.18-.66a2.18 2.18 0 0 1-.94-1.9c0-.56.14-1 .42-1.32.28-.32.64-.52 1.08-.6v-.28a1.87 1.87 0 0 1-.64-.56 1.58 1.58 0 0 1-.22-.84c0-.43.12-.8.36-1.1.26-.3.66-.5 1.23-.56v-.22a2.99 2.99 0 0 1-1.27-1.18 4.14 4.14 0 0 1-.44-2c0-1.17.32-2.06.96-2.66.64-.6 1.5-.9 2.58-.9.64 0 1.23.11 1.75.34v-.36c0-.39.08-.67.25-.84.18-.17.46-.26.84-.26h1.39v1.34h-1.78v.56c.34.3.6.69.8 1.14.2.45.3 1 .3 1.64 0 1.17-.32 2.06-.96 2.66-.64.6-1.5.9-2.59.9a4.7 4.7 0 0 1-.97-.1 1.4 1.4 0 0 0-.86.46 1.1 1.1 0 0 0-.29.7c0 .27.1.47.29.6.18.13.49.2.92.2h2.25c1.16 0 2 .23 2.5.7.51.47.77 1.14.77 2.02Zm-1.42.1c0-.45-.14-.8-.42-1.04-.28-.23-.77-.34-1.44-.34h-3.14c-.31.15-.53.33-.67.56-.12.23-.18.51-.18.86 0 .52.16.93.48 1.22.32.3.84.46 1.55.46h1.31c.83 0 1.45-.14 1.86-.42.43-.27.64-.7.64-1.3Zm-3.19-5.92a2.1 2.1 0 0 0 1.47-.48c.34-.32.52-.81.52-1.48v-.74c0-.67-.18-1.16-.53-1.48a2.07 2.07 0 0 0-1.46-.48c-.62 0-1.1.16-1.45.48-.35.32-.53.81-.53 1.48v.74c0 .67.18 1.16.53 1.48.34.32.83.48 1.45.48Zm14.93-7.9V485h-1.6v-12.56h-3.94v-1.4h9.48v1.4h-3.94Zm8.2 12.8c-.6 0-1.15-.1-1.67-.3a3.2 3.2 0 0 1-1.34-.96c-.38-.44-.67-1-.89-1.68a8.3 8.3 0 0 1-.31-2.46c0-.96.1-1.78.31-2.46.22-.68.51-1.24.89-1.68.37-.44.81-.76 1.33-.96a4.64 4.64 0 0 1 3.33 0c.5.2.93.52 1.28.96.34.44.6 1 .8 1.68.2.68.3 1.5.3 2.46v.38h-6.63v.66c0 1.01.23 1.77.69 2.28.46.5 1.1.74 1.92.74.69 0 1.25-.15 1.7-.44.44-.3.78-.76 1.03-1.36l1.04.76c-.31.7-.79 1.28-1.41 1.72-.62.44-1.4.66-2.36.66Zm0-9.52a2.4 2.4 0 0 0-1.91.78c-.46.52-.69 1.29-.69 2.3v.26h5v-.26c0-2.05-.8-3.08-2.4-3.08Zm6.39 9.28v-10.32h1.52v1.92h.2c.17-.6.46-1.07.88-1.4.42-.35.98-.52 1.66-.52h.56v1.54h-1a2.7 2.7 0 0 0-1.7.48c-.4.32-.6.8-.6 1.44V485h-1.52Zm6.64 0v-10.32h1.52v1.68h.2a3 3 0 0 1 .88-1.44 2.5 2.5 0 0 1 1.64-.48c.64 0 1.18.16 1.62.48.45.3.8.79 1.02 1.44h.2a2.7 2.7 0 0 1 1-1.44 3.06 3.06 0 0 1 1.8-.48c.88 0 1.59.31 2.12.94.53.63.8 1.6.8 2.9V485h-1.52v-6.62a3.1 3.1 0 0 0-.5-1.9c-.32-.44-.82-.66-1.5-.66-.6 0-1.1.19-1.52.56-.4.37-.6.9-.6 1.58V485h-1.52v-6.62a3.1 3.1 0 0 0-.5-1.9c-.32-.44-.82-.66-1.5-.66-.6 0-1.1.19-1.52.56-.4.37-.6.9-.6 1.58V485h-1.52Zm16.5-12.82c-.63 0-.94-.27-.94-.82v-.32c0-.55.31-.82.94-.82.63 0 .94.27.94.82v.32c0 .55-.31.82-.94.82Zm-.76 2.5h1.52V485h-1.52v-10.32Zm4.55 10.32v-10.32h1.52v1.68h.2c.2-.64.5-1.12.92-1.44.43-.32 1-.48 1.72-.48.92 0 1.64.31 2.16.94.53.63.8 1.6.8 2.9V485h-1.52v-6.62c0-.83-.17-1.46-.52-1.9-.33-.44-.85-.66-1.56-.66-.61 0-1.13.19-1.56.56-.43.37-.64.9-.64 1.58V485h-1.52Zm16.78 0c-1 0-1.48-.5-1.48-1.48v-.2h-.2c-.18.63-.5 1.1-.97 1.44-.45.32-1 .48-1.64.48-1 0-1.74-.25-2.23-.76-.5-.5-.75-1.25-.75-2.24 0-.96.32-1.72.94-2.28.65-.56 1.64-.84 2.98-.84h1.87v-1.14c0-.76-.18-1.32-.53-1.68-.33-.36-.86-.54-1.6-.54-.6 0-1.08.13-1.46.4-.35.25-.67.63-.94 1.12l-.9-.84a3.7 3.7 0 0 1 3.36-1.98c1.18 0 2.06.29 2.66.86.62.56.93 1.4.93 2.5v5.84h1.03V485h-1.08Zm-3.9-1.08c.34 0 .66-.06.95-.18a2.22 2.22 0 0 0 1.28-1.12c.13-.25.19-.51.19-.78v-1.56h-1.9c-.8 0-1.4.13-1.76.4-.37.27-.54.65-.54 1.16v.56c0 .52.16.9.47 1.16.32.24.76.36 1.3.36Zm8.6 1.08c-.54 0-.94-.12-1.2-.36-.24-.25-.36-.65-.36-1.2V470.2h1.52v13.46h1.3V485h-1.26Z"/>
  <circle cx="350" cy="352" r="65" fill="#181D23"/>
  <path fill="#9488F0" d="M360 259h-20l10 15 10-15Z"/>
  <path fill="#FF646D" fill-rule="evenodd" d="M324.26 320.9a16.83 16.83 0 0 0-16.7 16.93c0 9.35 7.48 16.94 16.7 16.94 9.24 0 16.72-7.59 16.72-16.94 0-9.36-7.49-16.94-16.72-16.94Zm-29.75 16.93c0-16.66 13.32-30.16 29.75-30.16 16.44 0 29.76 13.5 29.76 30.16 0 16.65-13.32 30.16-29.75 30.16-16.44 0-29.76-13.5-29.76-30.16Z" clip-rule="evenodd"/>
  <path fill="#00AEE9" fill-rule="evenodd" d="M325.07 354.94c8.98 0 16.26-7.48 16.26-16.7h12.7c0 16.42-12.97 29.75-28.96 29.75v-13.05Z" clip-rule="evenodd"/>
  <path fill="#129A6D" fill-rule="evenodd" d="M336.33 350.88a17.44 17.44 0 0 0 5.3-12.65h12.39c0 8.95-3.65 17-9.42 22.52l-8.27-9.87Z" clip-rule="evenodd"/>
  <path fill="#9488F0" fill-rule="evenodd" d="M341.33 338.23c0-9.48-7.28-17.16-16.26-17.16v-13.4c15.99 0 28.95 13.68 28.95 30.56h-12.69Z" clip-rule="evenodd"/>
  <path fill="#FFBC52" fill-rule="evenodd" d="M338.74 347.7a17.41 17.41 0 0 0 2.76-9.47h12.52c0 6.25-1.81 12.07-4.92 16.89l-10.36-7.41Z" clip-rule="evenodd"/>
  <path fill="#FF646D" d="M370.9 313.3a3.22 3.22 0 1 1 6.44 0 3.22 3.22 0 0 1-6.43 0Z"/>
  <path fill="#AFA5FB" d="M370.9 324.56a3.22 3.22 0 1 1 6.44 0 3.22 3.22 0 0 1-6.43 0Z"/>
  <path fill="#FFBC52" d="M370.9 335.82a3.22 3.22 0 1 1 6.44 0 3.22 3.22 0 0 1-6.43 0Z"/>
  <path fill="#129A6D" d="M370.9 347.08a3.22 3.22 0 1 1 6.44 0 3.22 3.22 0 0 1-6.43 0Z"/>
  <path fill="#00AEE9" d="M370.9 358.34a3.22 3.22 0 1 1 6.44 0 3.22 3.22 0 0 1-6.43 0Z"/>
  <path fill="#55606F" d="M370.1 296.81c0-1.55 1.11-2.81 2.48-2.81h28.83c1.36 0 2.47 1.26 2.47 2.81 0 1.56-1.1 2.82-2.47 2.82h-28.83c-1.37 0-2.47-1.26-2.47-2.81Zm-86.04 89.67c0-1.33 1.1-2.41 2.44-2.41h18.43a2.43 2.43 0 0 1 2.45 2.41c0 1.33-1.1 2.41-2.45 2.41H286.5a2.43 2.43 0 0 1-2.44-2.4Zm74.79 0a2.39 2.39 0 0 1 2.36-2.41h12.96a2.4 2.4 0 0 1 2.37 2.41 2.39 2.39 0 0 1-2.37 2.41h-12.96a2.39 2.39 0 0 1-2.36-2.4Zm-75.6-21.31c0-1.55 1.18-2.81 2.63-2.81h4.39c1.45 0 2.63 1.26 2.63 2.81 0 1.56-1.18 2.82-2.63 2.82h-4.39c-1.45 0-2.63-1.26-2.63-2.82Zm0-68.36c0-1.55 1.47-2.81 3.29-2.81h27.2c1.82 0 3.29 1.26 3.29 2.81 0 1.56-1.47 2.82-3.29 2.82h-27.2c-1.82 0-3.29-1.26-3.29-2.81Zm.81 105.76c0-3.56 2.9-6.44 6.47-6.44h22.44a6.45 6.45 0 0 1 6.47 6.44c0 3.55-2.9 6.43-6.47 6.43h-22.44a6.45 6.45 0 0 1-6.47-6.43Z"/>
  <path fill="#12B886" d="M323.46 396.13a2.41 2.41 0 0 1 2.41-2.41h8.85a2.41 2.41 0 0 1 0 4.82h-8.85a2.41 2.41 0 0 1-2.4-2.4Z"/>
  <path fill="#55606F" d="M358.85 402.57a6.47 6.47 0 0 1 6.5-6.44h17.55c3.6 0 6.5 2.88 6.5 6.44a6.47 6.47 0 0 1-6.5 6.43h-17.55c-3.6 0-6.5-2.88-6.5-6.43Z"/>
  <path fill="#FF646D" d="M393.43 396.13a2.49 2.49 0 0 1 2.55-2.41h9.37a2.49 2.49 0 0 1 2.55 2.41 2.49 2.49 0 0 1-2.55 2.42h-9.37a2.49 2.49 0 0 1-2.55-2.42Z"/>
  <path fill="#12161C" d="M331.5 311.58v-.22a7 7 0 0 1 6.9-6.9h13.55a7 7 0 0 1 6.9 6.9v.5a6.85 6.85 0 0 1-6.85 6.85h-.3a6.2 6.2 0 0 0-4.66 2.11 2.48 2.48 0 0 1-3.73 0 6.2 6.2 0 0 0-4.66-2.11h-.3a6.85 6.85 0 0 1-6.85-6.85v-.28Z"/>
  <rect width="14.48" height="3.22" x="337.94" y="310.08" fill="#fff" rx="1.61"/>
  <rect width="35.38" height="4.83" x="381.36" y="333.41" fill="#55606F" rx="2.41"/>
  <rect width="20.91" height="4.83" x="381.36" y="322.15" fill="#55606F" rx="2.41"/>
  <rect width="12.87" height="4.83" x="381.36" y="344.66" fill="#55606F" rx="2.41"/>
  <rect width="21.71" height="4.83" x="381.36" y="355.92" fill="#55606F" rx="2.41"/>
  <rect width="25.73" height="4.83" x="381.36" y="310.89" fill="#55606F" rx="2.41"/>
  <path fill="#8D9EB0" d="M292.66 443.04h5.28c1.05 0 1.86.3 2.42.9.57.59.86 1.49.86 2.7 0 .56-.07 1.03-.2 1.4-.14.36-.31.65-.52.88a2.2 2.2 0 0 1-1.42.66v.2c.24 0 .5.05.8.16.3.1.58.27.84.52.26.24.48.57.66.98.18.4.28.9.28 1.52 0 1.28-.3 2.27-.88 2.98a2.85 2.85 0 0 1-2.3 1.06h-5.82v-13.96Zm1.6 12.56H298c.64 0 1.12-.17 1.44-.5.33-.35.5-.88.5-1.6v-.92c0-.72-.17-1.25-.5-1.58-.32-.35-.8-.52-1.44-.52h-3.74v5.12Zm0-6.52h3.48c.57 0 1-.15 1.32-.44.3-.3.46-.78.46-1.42v-.92c0-.64-.16-1.1-.46-1.4-.31-.3-.75-.46-1.32-.46h-3.48v4.64Zm11.6 7.92c-.55 0-.95-.12-1.2-.36-.25-.25-.37-.65-.37-1.2V442.2h1.52v13.46h1.3V457h-1.26Zm6.9.24c-.6 0-1.16-.1-1.69-.3a3.3 3.3 0 0 1-1.33-.96c-.38-.44-.67-1-.88-1.68a8.3 8.3 0 0 1-.32-2.46c0-.96.1-1.78.31-2.46.22-.68.51-1.24.88-1.68.38-.44.82-.76 1.34-.96a4.7 4.7 0 0 1 1.69-.3c.6 0 1.16.1 1.68.3.51.2.96.52 1.33.96.38.44.67 1 .88 1.68.22.68.33 1.5.33 2.46s-.11 1.78-.33 2.46c-.2.68-.5 1.24-.88 1.68-.37.44-.81.76-1.33.96-.52.2-1.08.3-1.69.3Zm0-1.36c.82 0 1.45-.25 1.9-.74.45-.5.67-1.25.67-2.26v-2.08c0-1.01-.22-1.77-.68-2.26-.44-.5-1.07-.74-1.9-.74a2.5 2.5 0 0 0-1.92.74c-.44.5-.65 1.25-.65 2.26v2.08c0 1.01.21 1.77.65 2.26.46.5 1.1.74 1.93.74Zm9.95 1.36a3.8 3.8 0 0 1-3.02-1.26c-.72-.84-1.08-2.22-1.08-4.14 0-1.92.36-3.3 1.08-4.14a3.8 3.8 0 0 1 3.02-1.26 3.64 3.64 0 0 1 3.6 2.38l-1.26.64a2.4 2.4 0 0 0-.82-1.22 2.4 2.4 0 0 0-1.52-.44c-.84 0-1.46.25-1.86.74-.4.5-.6 1.25-.6 2.26v2.08c0 1.01.2 1.77.6 2.26.4.5 1.02.74 1.86.74.67 0 1.2-.15 1.6-.44.42-.3.74-.74.98-1.34l1.12.78a3.76 3.76 0 0 1-3.7 2.36Zm5.69-15.04h1.52v7.6l-.13 2.02h.16l1.44-1.94 2.59-3.2h1.83l-3.42 4.1 3.73 6.22h-1.82l-3.03-5.32-1.35 1.6V457h-1.53v-14.8Zm13.9 14.8v-13.96h7.72v1.4h-6.12v4.8h5.75v1.4h-5.75v4.96h6.13v1.4h-7.72Zm9.25 0 3.4-5.26-3.26-5.06h1.72l2.3 3.76h.2l2.34-3.76h1.66l-3.24 5 3.34 5.32h-1.72l-2.38-4.04h-.2l-2.5 4.04h-1.66Zm10.32-10.32h1.52v1.68h.2c.2-.68.52-1.17.96-1.46.45-.3 1-.46 1.64-.46a3.28 3.28 0 0 1 2.8 1.46c.32.47.56 1.03.72 1.7.16.67.24 1.41.24 2.24 0 .83-.08 1.57-.24 2.24-.16.67-.4 1.23-.72 1.7a3.28 3.28 0 0 1-2.8 1.46c-.64 0-1.19-.15-1.64-.44a2.6 2.6 0 0 1-.96-1.48h-.2V461h-1.52v-14.32Zm3.86 9.2c.84 0 1.48-.26 1.92-.78.44-.53.66-1.27.66-2.22v-2.08a3.3 3.3 0 0 0-.66-2.2c-.44-.53-1.08-.8-1.92-.8a2.63 2.63 0 0 0-1.66.54 1.76 1.76 0 0 0-.68 1.42v4.16a1.76 1.76 0 0 0 .68 1.42 2.63 2.63 0 0 0 1.66.54Zm8.19 1.12c-.55 0-.95-.12-1.2-.36-.24-.25-.36-.65-.36-1.2V442.2h1.52v13.46h1.3V457h-1.26Zm6.9.24c-.6 0-1.16-.1-1.68-.3-.52-.2-.96-.52-1.34-.96-.37-.44-.67-1-.88-1.68a8.3 8.3 0 0 1-.32-2.46c0-.96.1-1.78.32-2.46.21-.68.5-1.24.88-1.68.38-.44.82-.76 1.34-.96.52-.2 1.08-.3 1.68-.3.6 0 1.16.1 1.68.3.52.2.97.52 1.34.96.38.44.67 1 .88 1.68.21.68.32 1.5.32 2.46s-.1 1.78-.32 2.46c-.21.68-.5 1.24-.88 1.68-.37.44-.82.76-1.34.96-.52.2-1.08.3-1.68.3Zm0-1.36c.83 0 1.46-.25 1.9-.74.45-.5.68-1.25.68-2.26v-2.08c0-1.01-.22-1.77-.68-2.26-.44-.5-1.07-.74-1.9-.74a2.5 2.5 0 0 0-1.92.74c-.44.5-.66 1.25-.66 2.26v2.08c0 1.01.22 1.77.66 2.26.46.5 1.1.74 1.92.74Zm6.56 1.12v-10.32h1.52v1.92h.2c.17-.6.47-1.07.88-1.4.43-.35.98-.52 1.66-.52h.56v1.54h-1a2.7 2.7 0 0 0-1.7.48c-.4.32-.6.8-.6 1.44V457h-1.52Zm10.12.24c-.6 0-1.16-.1-1.68-.3-.52-.2-.97-.52-1.34-.96-.37-.44-.67-1-.88-1.68a8.3 8.3 0 0 1-.32-2.46c0-.96.1-1.78.32-2.46.21-.68.5-1.24.88-1.68.37-.44.82-.76 1.34-.96a4.64 4.64 0 0 1 3.32 0c.5.2.93.52 1.28.96.35.44.61 1 .8 1.68.2.68.3 1.5.3 2.46v.38h-6.62v.66c0 1.01.23 1.77.68 2.28.47.5 1.1.74 1.92.74.7 0 1.26-.15 1.7-.44.44-.3.79-.76 1.04-1.36l1.04.76a3.94 3.94 0 0 1-3.78 2.38Zm0-9.52a2.4 2.4 0 0 0-1.92.78c-.45.52-.68 1.29-.68 2.3v.26h5v-.26c0-2.05-.8-3.08-2.4-3.08Zm6.38 9.28v-10.32h1.52v1.92h.2c.18-.6.47-1.07.88-1.4.43-.35.98-.52 1.66-.52h.56v1.54h-1c-.72 0-1.28.16-1.7.48-.4.32-.6.8-.6 1.44V457h-1.52Z"/>
  <circle cx="586" cy="352" r="65" fill="#181D23"/>
  <path fill="#46A6FF" d="M596 259h-20l10 16 10-16Z"/>
  <rect width="24.86" height="19.71" x="573.14" y="370.86" fill="#9488F0" rx="2.8"/>
  <rect width="24.86" height="72" x="605.72" y="318.57" fill="#46A6FF" rx="2.8"/>
  <rect width="24.86" height="48" x="639.14" y="342.57" fill="#46A6FF" rx="2.8"/>
  <path fill="#6B7A8A" d="M605.72 306.8a2.8 2.8 0 0 1 2.8-2.8h19.25a2.8 2.8 0 0 1 2.8 2.8v25.49h-24.86V306.8Zm33.42 38.57a2.8 2.8 0 0 1 2.8-2.8h19.26a2.8 2.8 0 0 1 2.8 2.8v10.06h-24.86v-10.06Z"/>
  <rect width="24.86" height="29.14" x="540.57" y="361.43" fill="#46A6FF" rx="2.8"/>
  <path fill="#6B7A8A" d="M540.57 352.23a2.8 2.8 0 0 1 2.8-2.8h19.26a2.8 2.8 0 0 1 2.8 2.8v16.91h-24.86v-16.91Z"/>
  <rect width="24.86" height="49.71" x="508" y="340.86" fill="#46A6FF" rx="2.8"/>
  <path fill="#6B7A8A" d="M508 343.66a2.8 2.8 0 0 1 2.8-2.8h19.26a2.8 2.8 0 0 1 2.8 2.8v10.91H508v-10.91Z"/>
  <rect width="12" height="3.43" x="580" y="396.57" fill="#9488F0" rx="1.71"/>
  <rect width="12" height="3.43" x="547.43" y="396.57" fill="#465160" rx="1.71"/>
  <rect width="11.14" height="3.43" x="514.86" y="396.57" fill="#465160" rx="1.71"/>
  <rect width="12" height="3.43" x="612.57" y="396.57" fill="#465160" rx="1.71"/>
  <rect width="11.14" height="3.43" x="646" y="396.57" fill="#465160" rx="1.71"/>
  <path fill="#12161C" d="M572.28 355.31c0-.55 0-.83.02-1.06a7 7 0 0 1 6.52-6.52c.23-.02.5-.02 1.06-.02h12.24c.55 0 .83 0 1.06.02a7 7 0 0 1 6.52 6.52l.01 1.06v.8a6.79 6.79 0 0 1-6.78 6.8h-.31c-1.83 0-3.57.81-4.73 2.22a2.45 2.45 0 0 1-3.78 0 6.12 6.12 0 0 0-4.73-2.23h-.3a6.79 6.79 0 0 1-6.8-6.78v-.81Z"/>
  <rect width="15.43" height="3.43" x="578.28" y="353.71" fill="#fff" rx="1.71"/>
  <path fill="#8D9EB0" d="M521.02 443.04h4.38c1.61 0 2.86.56 3.74 1.68.88 1.1 1.32 2.87 1.32 5.3 0 2.43-.44 4.2-1.32 5.32a4.5 4.5 0 0 1-3.74 1.66h-4.38v-13.96Zm4.38 12.56c1 0 1.8-.35 2.42-1.04.61-.7.92-1.69.92-2.98v-3.12c0-1.3-.3-2.29-.92-2.98a3.08 3.08 0 0 0-2.42-1.04h-2.78v11.16h2.78Zm14.15 1.4c-.99 0-1.48-.5-1.48-1.48v-.2h-.2a2.6 2.6 0 0 1-.96 1.44c-.46.32-1 .48-1.64.48-1 0-1.75-.25-2.24-.76-.5-.5-.74-1.25-.74-2.24 0-.96.31-1.72.94-2.28.64-.56 1.63-.84 2.98-.84h1.86v-1.14c0-.76-.18-1.32-.52-1.68-.34-.36-.87-.54-1.6-.54-.6 0-1.09.13-1.46.4-.36.25-.68.63-.94 1.12l-.9-.84a3.69 3.69 0 0 1 3.36-1.98c1.17 0 2.06.29 2.66.86.61.56.92 1.4.92 2.5v5.84h1.04V457h-1.08Zm-3.9-1.08a2.63 2.63 0 0 0 1.74-.64c.21-.2.38-.42.5-.66.12-.25.18-.51.18-.78v-1.56h-1.9c-.8 0-1.39.13-1.76.4-.36.27-.54.65-.54 1.16v.56c0 .52.16.9.48 1.16.32.24.75.36 1.3.36Zm9.1 1.08c-.54 0-.94-.12-1.2-.36-.23-.25-.35-.65-.35-1.2v-7.42h-1.52v-1.34h.9c.3 0 .5-.07.6-.22.1-.16.16-.4.16-.7v-1.92h1.38v2.84h2v1.34h-2v7.64h1.9V457h-1.86Zm10.81 0c-.98 0-1.48-.5-1.48-1.48v-.2h-.2a2.5 2.5 0 0 1-.96 1.44c-.45.32-1 .48-1.64.48-1 0-1.74-.25-2.24-.76-.49-.5-.74-1.25-.74-2.24 0-.96.32-1.72.94-2.28.64-.56 1.64-.84 2.98-.84h1.86v-1.14c0-.76-.17-1.32-.52-1.68-.33-.36-.86-.54-1.6-.54-.6 0-1.08.13-1.46.4-.36.25-.67.63-.94 1.12l-.9-.84a3.7 3.7 0 0 1 3.36-1.98c1.18 0 2.06.29 2.66.86.62.56.92 1.4.92 2.5v5.84h1.04V457h-1.08Zm-3.9-1.08c.35 0 .67-.06.96-.18a2.22 2.22 0 0 0 1.28-1.12c.12-.25.18-.51.18-.78v-1.56h-1.9c-.8 0-1.38.13-1.76.4-.36.27-.54.65-.54 1.16v.56c0 .52.16.9.48 1.16.32.24.76.36 1.3.36Zm13.21 1.08-3.06-13.96h1.66l1.88 9.02.5 3.34h.2l.5-3.34 1.9-9.02h2.16l1.9 9.02.5 3.34h.2l.5-3.34 1.88-9.02h1.62L574.03 457h-2l-1.92-9.02-.5-3.54h-.2l-.5 3.54-2.04 9.02h-2Zm20.36 0c-.99 0-1.48-.5-1.48-1.48v-.2h-.2c-.17.63-.5 1.1-.96 1.44-.45.32-1 .48-1.64.48-1 0-1.75-.25-2.24-.76-.5-.5-.74-1.25-.74-2.24 0-.96.31-1.72.94-2.28.64-.56 1.63-.84 2.98-.84h1.86v-1.14c0-.76-.17-1.32-.52-1.68-.33-.36-.87-.54-1.6-.54-.6 0-1.09.13-1.46.4-.36.25-.67.63-.94 1.12l-.9-.84a3.7 3.7 0 0 1 3.36-1.98c1.17 0 2.06.29 2.66.86.62.56.92 1.4.92 2.5v5.84h1.04V457h-1.08Zm-3.9-1.08c.35 0 .67-.06.96-.18.3-.12.57-.27.78-.46.21-.2.38-.42.5-.66.12-.25.18-.51.18-.78v-1.56h-1.9c-.8 0-1.38.13-1.76.4-.36.27-.54.65-.54 1.16v.56c0 .52.16.9.48 1.16.32.24.75.36 1.3.36Zm7.05 1.08v-10.32h1.52v1.92h.2c.17-.6.47-1.07.88-1.4.43-.35.98-.52 1.66-.52h.56v1.54h-1a2.7 2.7 0 0 0-1.7.48c-.4.32-.6.8-.6 1.44V457h-1.52Zm10.12.24c-.6 0-1.16-.1-1.68-.3-.52-.2-.97-.52-1.34-.96-.37-.44-.67-1-.88-1.68a8.3 8.3 0 0 1-.32-2.46c0-.96.1-1.78.32-2.46.21-.68.5-1.24.88-1.68.37-.44.82-.76 1.34-.96a4.64 4.64 0 0 1 3.32 0c.5.2.93.52 1.28.96.35.44.61 1 .8 1.68.2.68.3 1.5.3 2.46v.38h-6.62v.66c0 1.01.23 1.77.68 2.28.47.5 1.1.74 1.92.74.7 0 1.26-.15 1.7-.44.44-.3.79-.76 1.04-1.36l1.04.76a3.94 3.94 0 0 1-3.78 2.38Zm0-9.52a2.4 2.4 0 0 0-1.92.78c-.45.52-.68 1.29-.68 2.3v.26h5v-.26c0-2.05-.8-3.08-2.4-3.08Zm6.38-5.52h1.52v6.16h.2c.2-.64.51-1.12.92-1.44.43-.32 1-.48 1.72-.48.92 0 1.64.31 2.16.94.54.63.8 1.6.8 2.9V457h-1.52v-6.62c0-.83-.17-1.46-.52-1.9-.33-.44-.85-.66-1.56-.66-.61 0-1.13.19-1.56.56a2 2 0 0 0-.64 1.58V457h-1.52v-14.8Zm13.78 15.04c-.6 0-1.16-.1-1.68-.3-.52-.2-.97-.52-1.34-.96-.38-.44-.67-1-.88-1.68a8.3 8.3 0 0 1-.32-2.46c0-.96.1-1.78.32-2.46.21-.68.5-1.24.88-1.68.37-.44.82-.76 1.34-.96.52-.2 1.08-.3 1.68-.3.6 0 1.16.1 1.68.3.52.2.96.52 1.34.96.37.44.66 1 .88 1.68.21.68.32 1.5.32 2.46s-.1 1.78-.32 2.46c-.22.68-.5 1.24-.88 1.68-.38.44-.82.76-1.34.96-.52.2-1.08.3-1.68.3Zm0-1.36c.82 0 1.46-.25 1.9-.74.45-.5.68-1.25.68-2.26v-2.08c0-1.01-.23-1.77-.68-2.26-.44-.5-1.08-.74-1.9-.74-.83 0-1.47.25-1.92.74-.44.5-.66 1.25-.66 2.26v2.08c0 1.01.22 1.77.66 2.26.45.5 1.1.74 1.92.74Zm12.25-.56h-.2c-.2.64-.5 1.12-.94 1.44-.4.32-.98.48-1.7.48-.92 0-1.64-.31-2.18-.94-.51-.63-.77-1.6-.77-2.9v-6.72h1.51v6.62c0 .83.17 1.46.5 1.9.35.44.88.66 1.59.66.6 0 1.13-.19 1.55-.56.43-.37.64-.9.64-1.58v-7.04h1.52V457h-1.51v-1.68Zm7.42 1.92a4.4 4.4 0 0 1-2.2-.52 4.8 4.8 0 0 1-1.54-1.44l1.06-.88c.36.5.75.9 1.16 1.16.43.27.93.4 1.52.4.6 0 1.07-.15 1.42-.44.36-.3.54-.74.54-1.3 0-.45-.11-.82-.34-1.1-.23-.28-.65-.47-1.26-.58l-.78-.14a4.6 4.6 0 0 1-2.24-.94c-.48-.44-.72-1.1-.72-2 0-.52.08-.97.24-1.34.16-.39.39-.7.68-.94.3-.25.64-.43 1.04-.54a4.8 4.8 0 0 1 1.34-.18 3.86 3.86 0 0 1 3.32 1.6l-.98.9a3.2 3.2 0 0 0-.9-.84 2.51 2.51 0 0 0-1.44-.38c-1.21 0-1.82.55-1.82 1.66 0 .5.13.88.38 1.12.27.23.7.4 1.28.5l.78.14c1.05.19 1.8.51 2.24.98.44.47.66 1.1.66 1.9 0 1-.3 1.79-.88 2.36-.57.56-1.43.84-2.56.84Zm9.45 0c-.6 0-1.16-.1-1.68-.3-.52-.2-.97-.52-1.34-.96-.38-.44-.67-1-.88-1.68a8.3 8.3 0 0 1-.32-2.46c0-.96.1-1.78.32-2.46.21-.68.5-1.24.88-1.68.37-.44.82-.76 1.34-.96a4.64 4.64 0 0 1 3.32 0c.5.2.93.52 1.28.96.34.44.61 1 .8 1.68.2.68.3 1.5.3 2.46v.38h-6.62v.66c0 1.01.23 1.77.68 2.28.47.5 1.1.74 1.92.74a3 3 0 0 0 1.7-.44c.44-.3.78-.76 1.04-1.36l1.04.76c-.32.7-.8 1.28-1.42 1.72-.62.44-1.4.66-2.36.66Zm0-9.52a2.4 2.4 0 0 0-1.92.78c-.46.52-.68 1.29-.68 2.3v.26h5v-.26c0-2.05-.8-3.08-2.4-3.08Z"/>
  <circle cx="822" cy="352" r="65" fill="#181D23"/>
  <path fill="#FF8A1F" d="M832 259h-20l10 16 10-16Z"/>
  <rect width="55.29" height="8.78" x="748" y="309" fill="#55606F" rx="4.39"/>
  <rect width="19.31" height="8.78" x="868.61" y="395" fill="#FF646D" rx="4.39" transform="rotate(-180 868.61 395)"/>
  <rect width="17.55" height="8.78" x="895.43" y="395" fill="#55606F" rx="4.39" transform="rotate(-180 895.43 395)"/>
  <rect width="17.55" height="8.78" x="895.43" y="375.69" fill="#55606F" rx="4.39" transform="rotate(-180 895.43 375.7)"/>
  <rect width="17.55" height="8.78" x="895.43" y="356.39" fill="#55606F" rx="4.39" transform="rotate(-180 895.43 356.39)"/>
  <rect width="17.55" height="8.78" x="895.43" y="337.08" fill="#55606F" rx="4.39" transform="rotate(-180 895.43 337.08)"/>
  <rect width="17.55" height="8.78" x="895.43" y="317.77" fill="#55606F" rx="4.39" transform="rotate(-180 895.43 317.77)"/>
  <rect width="27.2" height="8.78" x="748" y="328.31" fill="#55606F" rx="4.39"/>
  <rect width="28.08" height="8.78" x="868.61" y="375.69" fill="#12B886" rx="4.39" transform="rotate(-180 868.61 375.7)"/>
  <rect width="37.73" height="8.78" x="748" y="347.61" fill="#55606F" rx="4.39"/>
  <rect width="45.63" height="8.78" x="868.61" y="356.39" fill="#12B886" rx="4.39" transform="rotate(-180 868.61 356.39)"/>
  <rect width="67.57" height="8.78" x="748" y="366.92" fill="#55606F" rx="4.39"/>
  <rect width="12.29" height="8.78" x="868.61" y="337.08" fill="#FF646D" rx="4.39" transform="rotate(-180 868.61 337.08)"/>
  <rect width="22.82" height="8.78" x="748" y="386.23" fill="#55606F" rx="4.39"/>
  <rect width="29.84" height="8.78" x="868.61" y="317.77" fill="#12B886" rx="4.39" transform="rotate(-180 868.61 317.77)"/>
  <path fill="#8D9EB0" d="M770.68 443.04h4.38c1.62 0 2.86.56 3.74 1.68.88 1.1 1.32 2.87 1.32 5.3 0 2.43-.44 4.2-1.32 5.32a4.5 4.5 0 0 1-3.74 1.66h-4.38v-13.96Zm4.38 12.56c1 0 1.8-.35 2.42-1.04.62-.7.92-1.69.92-2.98v-3.12c0-1.3-.3-2.29-.92-2.98a3.08 3.08 0 0 0-2.42-1.04h-2.78v11.16h2.78Zm14.15 1.4c-.99 0-1.48-.5-1.48-1.48v-.2h-.2c-.17.63-.5 1.1-.96 1.44-.45.32-1 .48-1.64.48-1 0-1.75-.25-2.24-.76-.5-.5-.74-1.25-.74-2.24 0-.96.31-1.72.94-2.28.64-.56 1.63-.84 2.98-.84h1.86v-1.14c0-.76-.17-1.32-.52-1.68-.33-.36-.87-.54-1.6-.54-.6 0-1.09.13-1.46.4-.36.25-.67.63-.94 1.12l-.9-.84a3.7 3.7 0 0 1 3.36-1.98c1.17 0 2.06.29 2.66.86.61.56.92 1.4.92 2.5v5.84h1.04V457h-1.08Zm-3.9-1.08c.35 0 .67-.06.96-.18.3-.12.57-.27.78-.46.21-.2.38-.42.5-.66.12-.25.18-.51.18-.78v-1.56h-1.9c-.8 0-1.39.13-1.76.4-.36.27-.54.65-.54 1.16v.56c0 .52.16.9.48 1.16.32.24.75.36 1.3.36Zm9.1 1.08c-.54 0-.94-.12-1.2-.36-.23-.25-.35-.65-.35-1.2v-7.42h-1.52v-1.34h.9c.3 0 .5-.07.6-.22.1-.16.16-.4.16-.7v-1.92h1.38v2.84h2v1.34h-2v7.64h1.9V457h-1.86Zm10.82 0c-1 0-1.48-.5-1.48-1.48v-.2h-.2a2.6 2.6 0 0 1-.96 1.44c-.46.32-1 .48-1.64.48-1 0-1.75-.25-2.24-.76-.5-.5-.74-1.25-.74-2.24 0-.96.3-1.72.94-2.28.64-.56 1.63-.84 2.98-.84h1.86v-1.14c0-.76-.18-1.32-.52-1.68-.34-.36-.87-.54-1.6-.54-.6 0-1.1.13-1.46.4-.36.25-.68.63-.94 1.12l-.9-.84a3.69 3.69 0 0 1 3.36-1.98c1.17 0 2.06.29 2.66.86.6.56.92 1.4.92 2.5v5.84h1.04V457h-1.08Zm-3.9-1.08a2.63 2.63 0 0 0 1.74-.64c.2-.2.38-.42.5-.66.12-.25.18-.51.18-.78v-1.56h-1.9c-.8 0-1.4.13-1.76.4-.36.27-.54.65-.54 1.16v.56c0 .52.16.9.48 1.16.32.24.75.36 1.3.36Zm14.98 1.32c-1 0-1.87-.2-2.62-.62a5.45 5.45 0 0 1-1.86-1.76l1.16-.96c.43.63.9 1.11 1.44 1.46.54.33 1.16.5 1.88.5 1.9 0 2.84-.89 2.84-2.66 0-.72-.17-1.27-.52-1.64a3.65 3.65 0 0 0-1.8-.88l-1.04-.26a5.77 5.77 0 0 1-2.72-1.34 3.5 3.5 0 0 1-.86-2.52c0-1.24.39-2.17 1.16-2.8.77-.64 1.8-.96 3.08-.96a5 5 0 0 1 2.44.54c.67.36 1.25.93 1.74 1.7l-1.18.84a3.87 3.87 0 0 0-1.24-1.26 3.32 3.32 0 0 0-1.82-.44c-.85 0-1.5.19-1.96.56-.44.37-.66.98-.66 1.82 0 .68.18 1.2.54 1.54.38.35.97.62 1.78.82l1.04.26a8 8 0 0 1 1.66.58c.46.21.82.48 1.1.8.3.32.5.7.62 1.14.13.43.2.93.2 1.5 0 1.32-.4 2.33-1.18 3.02a4.71 4.71 0 0 1-3.22 1.02Zm10.33 0c-.6 0-1.16-.1-1.68-.3-.52-.2-.97-.52-1.34-.96-.37-.44-.67-1-.88-1.68a8.26 8.26 0 0 1-.32-2.46c0-.96.1-1.78.32-2.46.21-.68.5-1.24.88-1.68.37-.44.82-.76 1.34-.96a4.64 4.64 0 0 1 3.32 0c.5.2.93.52 1.28.96.35.44.61 1 .8 1.68.2.68.3 1.5.3 2.46v.38h-6.62v.66c0 1.01.23 1.77.68 2.28.47.5 1.1.74 1.92.74.7 0 1.26-.15 1.7-.44.44-.3.79-.76 1.04-1.36l1.04.76a3.94 3.94 0 0 1-3.78 2.38Zm0-9.52a2.4 2.4 0 0 0-1.92.78c-.45.52-.68 1.29-.68 2.3v.26h5v-.26c0-2.05-.8-3.08-2.4-3.08Zm6.38 9.28v-10.32h1.52v1.92h.2c.17-.6.47-1.07.88-1.4.43-.35.98-.52 1.66-.52h.56v1.54h-1a2.7 2.7 0 0 0-1.7.48c-.4.32-.6.8-.6 1.44V457h-1.52Zm8.98 0-3.24-10.32h1.52l1.58 5.2.96 3.78h.2l.96-3.78 1.58-5.2h1.48L843.8 457H842Zm7.62-12.82c-.63 0-.94-.27-.94-.82v-.32c0-.55.32-.82.94-.82.63 0 .94.27.94.82v.32c0 .55-.31.82-.94.82Zm-.76 2.5h1.52V457h-1.52v-10.32Zm7.95 10.56a3.8 3.8 0 0 1-3.02-1.26c-.72-.84-1.08-2.22-1.08-4.14 0-1.92.36-3.3 1.08-4.14a3.8 3.8 0 0 1 3.02-1.26 3.64 3.64 0 0 1 3.6 2.38l-1.26.64a2.4 2.4 0 0 0-.82-1.22 2.4 2.4 0 0 0-1.52-.44c-.84 0-1.46.25-1.86.74-.4.5-.6 1.25-.6 2.26v2.08c0 1.01.2 1.77.6 2.26.4.5 1.02.74 1.86.74.67 0 1.2-.15 1.6-.44.42-.3.74-.74.98-1.34l1.12.78a3.76 3.76 0 0 1-3.7 2.36Zm9.07 0c-.6 0-1.16-.1-1.68-.3-.52-.2-.97-.52-1.34-.96-.38-.44-.67-1-.88-1.68a8.3 8.3 0 0 1-.32-2.46c0-.96.1-1.78.32-2.46.21-.68.5-1.24.88-1.68.37-.44.82-.76 1.34-.96a4.64 4.64 0 0 1 3.32 0c.5.2.93.52 1.28.96.35.44.61 1 .8 1.68.2.68.3 1.5.3 2.46v.38h-6.62v.66c0 1.01.23 1.77.68 2.28.46.5 1.1.74 1.92.74.7 0 1.26-.15 1.7-.44.44-.3.78-.76 1.04-1.36l1.04.76c-.32.7-.8 1.28-1.42 1.72-.62.44-1.4.66-2.36.66Zm0-9.52a2.4 2.4 0 0 0-1.92.78c-.46.52-.68 1.29-.68 2.3v.26h5v-.26c0-2.05-.8-3.08-2.4-3.08ZM812.25 485l-1.24-4.18H806l-1.24 4.18h-1.6l4.36-13.96h2L813.9 485h-1.64Zm-3.22-10.8-.44-1.74h-.2l-.44 1.74-1.58 5.3h4.28l-1.62-5.3Zm6.94 10.8v-13.96h5.14c2.31 0 3.46 1.33 3.46 3.98s-1.15 3.98-3.46 3.98h-3.54v6h-1.6Zm1.6-7.4h3.5c1.2 0 1.78-.64 1.78-1.92v-1.32c0-1.28-.59-1.92-1.78-1.92h-3.5v5.16Zm8.76 7.4v-1.32h1.76v-11.32h-1.76v-1.32h5.12v1.32h-1.76v11.32h1.76V485h-5.12Zm10.53.24a4.4 4.4 0 0 1-2.2-.52 4.79 4.79 0 0 1-1.54-1.44l1.06-.88c.36.5.75.9 1.16 1.16.42.27.93.4 1.52.4.6 0 1.07-.15 1.42-.44.36-.3.54-.74.54-1.3 0-.45-.12-.82-.34-1.1-.23-.28-.65-.47-1.26-.58l-.78-.14a4.6 4.6 0 0 1-2.24-.94c-.48-.44-.72-1.1-.72-2 0-.52.08-.97.24-1.34.16-.39.38-.7.68-.94.3-.25.64-.43 1.04-.54.41-.12.86-.18 1.34-.18a3.88 3.88 0 0 1 3.32 1.6l-.98.9a3.3 3.3 0 0 0-.9-.84 2.52 2.52 0 0 0-1.44-.38c-1.21 0-1.82.55-1.82 1.66 0 .5.13.88.38 1.12.26.23.7.4 1.28.5l.78.14c1.05.19 1.8.51 2.24.98.44.47.66 1.1.66 1.9 0 1-.3 1.79-.88 2.36-.57.56-1.43.84-2.56.84Z"/>
  <circle cx="1058" cy="352" r="65" fill="#181D23"/>
  <path fill="#6046FF" d="M1068 259h-20l10 16 10-16Z"/>
  <rect width="6.66" height="3.33" x="1118.83" y="292" fill="#55606F" rx="1.66"/>
  <rect width="81.55" height="41.61" x="984.85" y="309.48" fill="#0B0F14" rx="7.7"/>
  <rect width="62.41" height="41.61" x="1069.73" y="309.48" fill="#0B0F14" rx="7.7"/>
  <path stroke="#3AFDAE" stroke-width="2" d="M1127.15 325.28c-6.82 0-12.66 29-16.61 10.45-3.95-18.56-8.35 11.63-17-10.45s-11.38 11.74-17.98 11.74" opacity=".8"/>
  <rect width="19.97" height="2.5" x="1026.46" y="315.3" fill="#29313A" rx="1.25"/>
  <rect width="8.32" height="2.5" x="992.34" y="315.3" fill="#29313A" rx="1.25"/>
  <rect width="22.47" height="5.83" x="1026.46" y="338.6" fill="#55606F" rx="2.91"/>
  <rect width="9.15" height="5.83" x="992.34" y="338.6" fill="#55606F" rx="2.91"/>
  <rect width="6.66" height="3.33" x="1026.46" y="330.28" fill="#2C353F" rx="1.66"/>
  <rect width="17.48" height="3.33" x="992.34" y="330.28" fill="#2C353F" rx="1.66"/>
  <rect width="29.96" height="6.66" x="1026.46" y="321.13" fill="#6046FF" rx="3.33"/>
  <rect width="14.98" height="6.66" x="992.34" y="321.13" fill="#6046FF" rx="3.33"/>
  <rect width="44.94" height="4.99" x="992.34" y="297.82" fill="#55606F" rx="2.5"/>
  <rect width="10.82" height="4.99" x="1109.68" y="297.82" fill="#55606F" rx="2.5"/>
  <rect width="14.98" height="4.99" x="1063.91" y="360.24" fill="#6046FF" rx="2.5"/>
  <rect width="14.98" height="4.99" x="1063.91" y="400.18" fill="#6046FF" rx="2.5"/>
  <rect width="24.96" height="2.5" x="1085.54" y="368.56" fill="#55606F" rx="1.25"/>
  <rect width="13.31" height="2.5" x="1085.54" y="388.53" fill="#55606F" rx="1.25"/>
  <rect width="9.15" height="2.5" x="1085.54" y="408.5" fill="#55606F" rx="1.25"/>
  <rect width="19.14" height="4.99" x="1085.54" y="360.24" fill="#55606F" rx="2.5"/>
  <rect width="31.62" height="4.99" x="1085.54" y="380.21" fill="#55606F" rx="2.5"/>
  <rect width="23.3" height="4.99" x="1085.54" y="400.18" fill="#55606F" rx="2.5"/>
  <rect width="19.14" height="4.99" x="1021.47" y="360.24" fill="#55606F" rx="2.5"/>
  <rect width="28.29" height="4.99" x="1021.47" y="380.21" fill="#55606F" rx="2.5"/>
  <rect width="15.81" height="4.99" x="1021.47" y="400.18" fill="#55606F" rx="2.5"/>
  <rect width="8.32" height="4.99" x="1063.91" y="380.21" fill="#6046FF" rx="2.5"/>
  <circle cx="1008.99" cy="362.73" r="4.99" fill="#55606F"/>
  <circle cx="1008.99" cy="382.71" r="4.99" fill="#55606F"/>
  <circle cx="1008.99" cy="402.68" r="4.99" fill="#55606F"/>
  <path fill="#8D9EB0" d="M1036.4 455.06h-.2c-.14.63-.5 1.15-1.08 1.56-.56.41-1.35.62-2.38.62a4.26 4.26 0 0 1-3.68-1.74 6.85 6.85 0 0 1-1.04-2.24c-.24-.92-.36-2-.36-3.24 0-2.5.47-4.32 1.4-5.48a4.78 4.78 0 0 1 3.94-1.74 4.9 4.9 0 0 1 2.94.8 5.1 5.1 0 0 1 1.72 2.16l-1.32.8a3.6 3.6 0 0 0-1.22-1.72 3.4 3.4 0 0 0-2.12-.62c-1.16 0-2.05.39-2.68 1.16a4.73 4.73 0 0 0-.94 3.08v3.12c0 1.3.32 2.33.94 3.1a3.28 3.28 0 0 0 2.68 1.14 4 4 0 0 0 1.28-.2 2.82 2.82 0 0 0 2.04-2.84v-1.52h-2.76v-1.4h4.32V457h-1.48v-1.94Zm9.98.26h-.2c-.2.64-.51 1.12-.94 1.44a2.7 2.7 0 0 1-1.7.48c-.92 0-1.64-.31-2.18-.94-.52-.63-.78-1.6-.78-2.9v-6.72h1.52v6.62c0 .83.17 1.46.5 1.9.35.44.88.66 1.58.66.62 0 1.14-.19 1.56-.56.43-.37.64-.9.64-1.58v-7.04h1.52V457h-1.52v-1.68Zm4.56 1.68v-10.32h1.52v1.92h.2c.17-.6.46-1.07.88-1.4.42-.35.98-.52 1.66-.52h.56v1.54h-1a2.7 2.7 0 0 0-1.7.48c-.4.32-.6.8-.6 1.44V457h-1.52Zm12.34-1.68h-.2a2.8 2.8 0 0 1-.94 1.44c-.42.32-.98.48-1.7.48a2.7 2.7 0 0 1-2.18-.94c-.52-.63-.78-1.6-.78-2.9v-6.72h1.52v6.62c0 .83.16 1.46.5 1.9.34.44.87.66 1.58.66a2.3 2.3 0 0 0 1.56-.56 2 2 0 0 0 .64-1.58v-7.04h1.52V457h-1.52v-1.68Zm16.79 1.68-1.24-4.18h-5.02l-1.24 4.18h-1.6l4.36-13.96h2l4.38 13.96h-1.64Zm-3.22-10.8-.44-1.74h-.2l-.44 1.74-1.58 5.3h4.28l-1.62-5.3Zm6.34 10.8v-1.32h1.76v-11.32h-1.76v-1.32h5.12v1.32h-1.76v11.32h1.76V457h-5.12Z"/>
  <path stroke="#3E4854" stroke-width="2" d="M586 257V104m0 53v49.43c0 8.96 0 13.44 1.74 16.87a16 16 0 0 0 7 6.99c3.42 1.74 7.9 1.74 16.86 1.74h185.43c8.37 0 12.55 0 15.79 1.53a16 16 0 0 1 7.65 7.65C822 244.45 822 248.63 822 257M586 157v49.43c0 8.96 0 13.44-1.74 16.87a16 16 0 0 1-7 6.99c-3.42 1.74-7.9 1.74-16.86 1.74H374.97c-8.37 0-12.55 0-15.79 1.53a16 16 0 0 0-7.65 7.65C350 244.45 350 248.63 350 257"/>
  <path stroke="#3E4854" stroke-width="2" d="M114 257c0-8.19 0-12.28 1.46-15.46a16 16 0 0 1 7.86-7.86c3.18-1.46 7.27-1.46 15.46-1.46H560.4c8.96 0 13.44 0 16.86-1.74a16 16 0 0 0 7-7c1.74-3.42 1.74-7.9 1.74-16.86V112.6c0-8.96 0-13.44-1.74-16.86a16 16 0 0 0-7-7C573.84 87 569.36 87 560.4 87h-61.9M1058 257c0-8.19 0-12.28-1.46-15.46a16 16 0 0 0-7.86-7.86c-3.18-1.46-7.27-1.46-15.46-1.46H611.6c-8.96 0-13.44 0-16.86-1.74a16 16 0 0 1-7-7c-1.74-3.42-1.74-7.9-1.74-16.86V112.6c0-8.96 0-13.44 1.74-16.86a16 16 0 0 1 7-7C598.16 87 602.64 87 611.6 87H670"/>
  <rect width="170" height="170" x="674" y="2" stroke="#12B886" stroke-dasharray="1.4 9.8" stroke-linecap="round" stroke-width="2.8" rx="85"/>
  <circle cx="760" cy="87" r="60" fill="#1E242C"/>
  <circle cx="759.92" cy="87.47" r="31.22" fill="#3E4854"/>
  <circle cx="3.78" cy="3.78" r="3.78" fill="#3E4854" transform="matrix(1 0 0 -1 798.47 48.21)"/>
  <circle cx="3.78" cy="3.78" r="3.78" fill="#3E4854" transform="matrix(1 0 0 -1 798.47 133.36)"/>
  <circle cx="3.78" cy="3.78" r="3.78" fill="#3E4854" transform="matrix(1 0 0 -1 713.32 48.21)"/>
  <circle cx="3.78" cy="3.78" r="3.78" fill="#3E4854" transform="matrix(1 0 0 -1 713.32 133.36)"/>
  <circle cx="785.5" cy="72.5" r="11.5" fill="#46A6FF" transform="rotate(-90 785.5 72.5)"/>
  <circle cx="11.5" cy="11.5" r="11.5" fill="#FF646D" transform="matrix(0 -1 -1 0 746 84)"/>
  <circle cx="760" cy="117" r="11" fill="#12B886"/>
  <circle cx="760.15" cy="116.8" r="4.02" fill="#232A32"/>
  <circle cx="760.15" cy="87.47" r="8.04" fill="#232A32"/>
  <path fill="#9488F0" fill-rule="evenodd" d="M760.15 88.98c1.13 0 2.04.91 2.04 2.04v25.66a2.04 2.04 0 0 1-4.08 0V91.02c0-1.13.91-2.04 2.04-2.04Z" clip-rule="evenodd"/>
  <circle cx="785.7" cy="72.81" r="4.02" fill="#232A32" transform="rotate(-90 785.7 72.8)"/>
  <path fill="#9488F0" fill-rule="evenodd" d="M761.46 86.84a2.04 2.04 0 0 1 .75-2.79l22.3-12.87a2.04 2.04 0 0 1 2.04 3.53l-22.3 12.87c-.98.57-2.22.23-2.79-.74Z" clip-rule="evenodd"/>
  <circle cx="4.02" cy="4.02" r="4.02" fill="#232A32" transform="matrix(0 -1 -1 0 738.63 76.83)"/>
  <path fill="#9488F0" fill-rule="evenodd" d="M758.85 86.84c.56-.98.23-2.23-.75-2.79l-22.3-12.87a2.04 2.04 0 1 0-2.03 3.53l22.3 12.87c.97.57 2.22.23 2.78-.74Z" clip-rule="evenodd"/>
  <path fill="#FF646D" d="M580.08 20V6.04h7.72v1.4h-6.12v4.8h5.74v1.4h-5.74v4.96h6.12V20h-7.72Zm13.6.24a3.8 3.8 0 0 1-3.03-1.26c-.72-.84-1.08-2.22-1.08-4.14 0-1.92.36-3.3 1.08-4.14a3.8 3.8 0 0 1 3.02-1.26 3.64 3.64 0 0 1 3.6 2.38l-1.26.64a2.4 2.4 0 0 0-.82-1.22 2.4 2.4 0 0 0-1.52-.44c-.84 0-1.46.25-1.86.74-.4.5-.6 1.25-.6 2.26v2.08c0 1.01.2 1.77.6 2.26.4.5 1.02.74 1.86.74.67 0 1.2-.15 1.6-.44.42-.3.74-.74.98-1.34l1.12.78a3.76 3.76 0 0 1-3.7 2.36Zm9.06 0c-.6 0-1.16-.1-1.68-.3-.52-.2-.97-.52-1.34-.96-.37-.44-.67-1-.88-1.68a8.3 8.3 0 0 1-.32-2.46c0-.96.1-1.78.32-2.46.21-.68.5-1.24.88-1.68.37-.44.82-.76 1.34-.96.52-.2 1.08-.3 1.68-.3.6 0 1.16.1 1.68.3.52.2.97.52 1.34.96.37.44.67 1 .88 1.68.21.68.32 1.5.32 2.46s-.1 1.78-.32 2.46c-.21.68-.5 1.24-.88 1.68-.37.44-.82.76-1.34.96-.52.2-1.08.3-1.68.3Zm0-1.36c.83 0 1.46-.25 1.9-.74.45-.5.68-1.25.68-2.26V13.8c0-1.01-.23-1.77-.68-2.26-.44-.5-1.07-.74-1.9-.74-.83 0-1.47.25-1.92.74-.44.5-.66 1.25-.66 2.26v2.08c0 1.01.22 1.77.66 2.26.45.5 1.1.74 1.92.74Zm9.42 1.36a4.4 4.4 0 0 1-2.2-.52 4.8 4.8 0 0 1-1.54-1.44l1.06-.88c.36.5.74.9 1.16 1.16.42.27.93.4 1.52.4.6 0 1.07-.15 1.42-.44.36-.3.54-.74.54-1.3 0-.45-.12-.82-.34-1.1-.23-.28-.65-.47-1.26-.58l-.78-.14a4.6 4.6 0 0 1-2.24-.94c-.48-.44-.72-1.1-.72-2 0-.52.08-.97.24-1.34.16-.39.38-.7.68-.94.3-.25.64-.43 1.04-.54a4.8 4.8 0 0 1 1.34-.18 3.86 3.86 0 0 1 3.32 1.6l-.98.9a3.2 3.2 0 0 0-.9-.84 2.51 2.51 0 0 0-1.44-.38c-1.22 0-1.82.55-1.82 1.66 0 .5.12.88.38 1.12.26.23.7.4 1.28.5l.78.14c1.05.19 1.8.51 2.24.98.44.47.66 1.1.66 1.9 0 1-.3 1.79-.88 2.36-.58.56-1.43.84-2.56.84Zm11.31-10.56h1.48l-4.08 12.96a3.6 3.6 0 0 1-.26.66 1 1 0 0 1-.36.42c-.13.1-.3.18-.5.22-.18.04-.42.06-.72.06h-1.12v-1.34h1.58l.6-2.1-3.42-10.88h1.52l1.58 5.2.96 3.78h.2l.96-3.78 1.58-5.2Zm6.23 10.56a4.4 4.4 0 0 1-2.2-.52 4.8 4.8 0 0 1-1.54-1.44l1.06-.88c.36.5.74.9 1.16 1.16.42.27.93.4 1.52.4.6 0 1.07-.15 1.42-.44.36-.3.54-.74.54-1.3 0-.45-.12-.82-.34-1.1-.23-.28-.65-.47-1.26-.58l-.78-.14a4.6 4.6 0 0 1-2.24-.94c-.48-.44-.72-1.1-.72-2 0-.52.08-.97.24-1.34.16-.39.38-.7.68-.94.29-.25.64-.43 1.04-.54a4.8 4.8 0 0 1 1.34-.18 3.86 3.86 0 0 1 3.32 1.6l-.98.9a3.2 3.2 0 0 0-.9-.84 2.51 2.51 0 0 0-1.44-.38c-1.22 0-1.82.55-1.82 1.66 0 .5.12.88.38 1.12.26.23.69.4 1.28.5l.78.14c1.05.19 1.8.51 2.24.98.44.47.66 1.1.66 1.9 0 1-.3 1.79-.88 2.36-.58.56-1.43.84-2.56.84Zm7.97-.24c-.55 0-.95-.12-1.2-.36-.24-.25-.36-.65-.36-1.2v-7.42h-1.52V9.68h.9c.3 0 .5-.07.6-.22.1-.16.16-.4.16-.7V6.84h1.38v2.84h2v1.34h-2v7.64h1.9V20h-1.86Zm7.73.24c-.6 0-1.16-.1-1.68-.3-.52-.2-.97-.52-1.35-.96-.37-.44-.66-1-.88-1.68a8.3 8.3 0 0 1-.32-2.46c0-.96.11-1.78.33-2.46.2-.68.5-1.24.88-1.68.37-.44.82-.76 1.34-.96a4.64 4.64 0 0 1 3.31 0c.51.2.94.52 1.29.96.34.44.6 1 .8 1.68.2.68.3 1.5.3 2.46v.38h-6.63v.66c0 1.01.23 1.77.69 2.28.46.5 1.1.74 1.91.74a3 3 0 0 0 1.7-.44c.44-.3.8-.76 1.04-1.36l1.04.76c-.31.7-.79 1.28-1.41 1.72-.62.44-1.4.66-2.37.66Zm0-9.52a2.4 2.4 0 0 0-1.92.78c-.46.52-.69 1.29-.69 2.3v.26h5v-.26c0-2.05-.8-3.08-2.4-3.08Zm6.38 9.28V9.68h1.52v1.68h.2a3 3 0 0 1 .88-1.44 2.5 2.5 0 0 1 1.64-.48c.64 0 1.18.16 1.62.48.45.3.8.79 1.02 1.44h.2a2.7 2.7 0 0 1 1-1.44 3.06 3.06 0 0 1 1.8-.48c.88 0 1.58.31 2.12.94.53.63.8 1.6.8 2.9V20h-1.52v-6.62a3.1 3.1 0 0 0-.5-1.9c-.32-.44-.82-.66-1.5-.66-.6 0-1.1.19-1.52.56-.4.37-.6.9-.6 1.58V20h-1.52v-6.62a3.1 3.1 0 0 0-.5-1.9c-.32-.44-.82-.66-1.5-.66-.6 0-1.1.19-1.52.56-.4.37-.6.9-.6 1.58V20h-1.52ZM574.7 48l-1.24-4.18h-5.02L567.2 48h-1.6l4.36-13.96h2L576.34 48h-1.64Zm-3.22-10.8-.44-1.74h-.2l-.44 1.74-1.58 5.3h4.28l-1.62-5.3Zm6.8.48h1.52v1.68h.2c.2-.68.52-1.17.96-1.46.45-.3 1-.46 1.64-.46a3.28 3.28 0 0 1 2.8 1.46c.32.47.56 1.03.72 1.7.16.67.24 1.41.24 2.24 0 .83-.08 1.57-.24 2.24-.16.67-.4 1.23-.72 1.7a3.28 3.28 0 0 1-2.8 1.46c-.64 0-1.19-.15-1.64-.44a2.6 2.6 0 0 1-.96-1.48h-.2V52h-1.52V37.68Zm3.86 9.2c.84 0 1.48-.26 1.92-.78a3.4 3.4 0 0 0 .66-2.22V41.8a3.3 3.3 0 0 0-.66-2.2c-.44-.53-1.08-.8-1.92-.8a2.63 2.63 0 0 0-1.66.54 1.76 1.76 0 0 0-.68 1.42v4.16a1.76 1.76 0 0 0 .68 1.42 2.63 2.63 0 0 0 1.66.54Zm6.63-9.2h1.52v1.68h.2c.2-.68.52-1.17.96-1.46a3.4 3.4 0 0 1 3.26-.08c.47.25.86.61 1.18 1.08.32.47.56 1.03.72 1.7.16.67.24 1.41.24 2.24 0 .83-.08 1.57-.24 2.24-.16.67-.4 1.23-.72 1.7a3.28 3.28 0 0 1-2.8 1.46c-.64 0-1.19-.15-1.64-.44a2.6 2.6 0 0 1-.96-1.48h-.2V52h-1.52V37.68Zm3.86 9.2c.84 0 1.48-.26 1.92-.78a3.4 3.4 0 0 0 .66-2.22V41.8a3.3 3.3 0 0 0-.66-2.2c-.44-.53-1.08-.8-1.92-.8a2.5 2.5 0 0 0-1.66.54 1.76 1.76 0 0 0-.68 1.42v4.16a1.76 1.76 0 0 0 .68 1.42 2.5 2.5 0 0 0 1.66.54Zm8.19 1.12c-.55 0-.95-.12-1.2-.36-.24-.25-.36-.65-.36-1.2V33.2h1.52v13.46h1.3V48h-1.26Zm4.14-12.82c-.63 0-.94-.27-.94-.82v-.32c0-.55.31-.82.94-.82.63 0 .94.27.94.82v.32c0 .55-.31.82-.94.82Zm-.76 2.5h1.52V48h-1.52V37.68Zm7.95 10.56a3.8 3.8 0 0 1-3.02-1.26c-.72-.84-1.08-2.22-1.08-4.14 0-1.92.36-3.3 1.08-4.14a3.8 3.8 0 0 1 3.02-1.26 3.64 3.64 0 0 1 3.6 2.38l-1.26.64a2.39 2.39 0 0 0-.82-1.22 2.4 2.4 0 0 0-1.52-.44c-.84 0-1.46.25-1.86.74-.4.5-.6 1.25-.6 2.26v2.08c0 1.01.2 1.77.6 2.26.4.5 1.02.74 1.86.74.67 0 1.2-.15 1.6-.44.41-.3.74-.74.98-1.34l1.12.78a3.76 3.76 0 0 1-3.7 2.36Zm12.2-.24c-.98 0-1.48-.5-1.48-1.48v-.2h-.2c-.17.63-.5 1.1-.96 1.44-.45.32-1 .48-1.64.48-1 0-1.74-.25-2.24-.76-.5-.5-.74-1.25-.74-2.24 0-.96.32-1.72.94-2.28.64-.56 1.64-.84 2.98-.84h1.86v-1.14c0-.76-.17-1.32-.52-1.68-.33-.36-.86-.54-1.6-.54-.6 0-1.08.13-1.46.4-.36.25-.67.63-.94 1.12l-.9-.84a3.7 3.7 0 0 1 3.36-1.98c1.18 0 2.06.29 2.66.86.62.56.92 1.4.92 2.5v5.84h1.04V48h-1.08Zm-3.9-1.08a2.62 2.62 0 0 0 1.74-.64c.22-.2.38-.42.5-.66.12-.25.18-.51.18-.78v-1.56h-1.9c-.8 0-1.38.13-1.76.4-.36.27-.54.65-.54 1.16v.56c0 .52.16.9.48 1.16.32.24.76.36 1.3.36Zm9.11 1.08c-.55 0-.95-.12-1.2-.36-.24-.25-.36-.65-.36-1.2v-7.42h-1.52v-1.34h.9c.3 0 .5-.07.6-.22.1-.16.16-.4.16-.7v-1.92h1.38v2.84h2v1.34h-2v7.64h1.9V48h-1.86Zm5.05-12.82c-.63 0-.94-.27-.94-.82v-.32c0-.55.31-.82.94-.82.63 0 .94.27.94.82v.32c0 .55-.31.82-.94.82Zm-.76 2.5h1.52V48h-1.52V37.68Zm8.07 10.56c-.6 0-1.16-.1-1.68-.3-.52-.2-.97-.52-1.34-.96-.37-.44-.67-1-.88-1.68a8.3 8.3 0 0 1-.32-2.46c0-.96.1-1.78.32-2.46.21-.68.5-1.24.88-1.68.37-.44.82-.76 1.34-.96.52-.2 1.08-.3 1.68-.3.6 0 1.16.1 1.68.3.52.2.97.52 1.34.96.37.44.67 1 .88 1.68.21.68.32 1.5.32 2.46s-.1 1.78-.32 2.46c-.21.68-.5 1.24-.88 1.68-.37.44-.82.76-1.34.96-.52.2-1.08.3-1.68.3Zm0-1.36c.83 0 1.46-.25 1.9-.74.45-.5.68-1.25.68-2.26V41.8c0-1.01-.23-1.77-.68-2.26-.44-.5-1.07-.74-1.9-.74-.83 0-1.47.25-1.92.74-.44.5-.66 1.25-.66 2.26v2.08c0 1.01.22 1.77.66 2.26.45.5 1.1.74 1.92.74Zm6.56 1.12V37.68H650v1.68h.2c.2-.64.5-1.12.92-1.44.42-.32 1-.48 1.72-.48.92 0 1.64.31 2.16.94.53.63.8 1.6.8 2.9V48h-1.52v-6.62c0-.83-.18-1.46-.52-1.9-.34-.44-.86-.66-1.56-.66-.62 0-1.14.19-1.56.56-.43.37-.64.9-.64 1.58V48h-1.52Zm13.11.24a4.4 4.4 0 0 1-2.2-.52 4.8 4.8 0 0 1-1.54-1.44l1.06-.88c.36.5.75.9 1.16 1.16.43.27.93.4 1.52.4.6 0 1.07-.15 1.42-.44.36-.3.54-.74.54-1.3 0-.45-.11-.82-.34-1.1-.23-.28-.65-.47-1.26-.58l-.78-.14a4.6 4.6 0 0 1-2.24-.94c-.48-.44-.72-1.1-.72-2 0-.52.08-.97.24-1.34a2.58 2.58 0 0 1 1.72-1.48c.41-.12.86-.18 1.34-.18a3.88 3.88 0 0 1 3.32 1.6l-.98.9a3.3 3.3 0 0 0-.9-.84 2.51 2.51 0 0 0-1.44-.38c-1.21 0-1.82.55-1.82 1.66 0 .5.13.88.38 1.12.27.23.7.4 1.28.5l.78.14c1.05.19 1.8.51 2.24.98.44.47.66 1.1.66 1.9 0 1-.3 1.79-.88 2.36-.57.56-1.43.84-2.56.84Z"/>
  <path fill="#12B886" d="M690.78 202.06h-.2a2.6 2.6 0 0 1-1.08 1.56c-.56.41-1.35.62-2.38.62-.76 0-1.45-.14-2.08-.42a4.21 4.21 0 0 1-1.6-1.32 6.71 6.71 0 0 1-1.04-2.24c-.24-.92-.36-2-.36-3.24 0-2.5.47-4.32 1.4-5.48a4.77 4.77 0 0 1 3.94-1.74c1.23 0 2.2.27 2.94.8.73.52 1.3 1.24 1.72 2.16l-1.32.8a3.66 3.66 0 0 0-1.22-1.72 3.42 3.42 0 0 0-2.12-.62c-1.16 0-2.05.39-2.68 1.16a4.7 4.7 0 0 0-.94 3.08v3.12c0 1.3.31 2.33.94 3.1a3.28 3.28 0 0 0 2.68 1.14c.45 0 .88-.07 1.28-.2a2.84 2.84 0 0 0 2.04-2.84v-1.52h-2.76v-1.4h4.32V204h-1.48v-1.94Zm5.92-12.02v9.04c0 .63.05 1.17.14 1.64.1.47.27.86.5 1.18.23.3.53.54.9.7.39.15.85.22 1.4.22 1.1 0 1.85-.3 2.28-.92.44-.63.66-1.57.66-2.82v-9.04h1.6v8.72c0 .93-.08 1.75-.24 2.44a4.26 4.26 0 0 1-.78 1.7c-.35.45-.81.8-1.4 1.02-.57.21-1.28.32-2.12.32a6.3 6.3 0 0 1-2.14-.32 3.3 3.3 0 0 1-1.4-1.02 4.43 4.43 0 0 1-.76-1.7c-.16-.7-.24-1.5-.24-2.44v-8.72h1.6ZM709.03 204h-1.6v-13.96h5.14c2.3 0 3.46 1.33 3.46 3.98 0 2.24-.83 3.53-2.48 3.88l2.82 6.1h-1.8l-2.62-6h-2.92v6Zm3.5-7.36c1.18 0 1.78-.64 1.78-1.92v-1.36c0-1.28-.6-1.92-1.78-1.92h-3.5v5.2h3.5Zm7.76-6.6v9.04c0 .63.05 1.17.14 1.64.1.47.28.86.5 1.18.23.3.53.54.9.7.39.15.86.22 1.4.22 1.1 0 1.86-.3 2.28-.92.44-.63.66-1.57.66-2.82v-9.04h1.6v8.72c0 .93-.08 1.75-.24 2.44a4.26 4.26 0 0 1-.78 1.7c-.34.45-.81.8-1.4 1.02-.57.21-1.28.32-2.12.32a6.3 6.3 0 0 1-2.14-.32 3.3 3.3 0 0 1-1.4-1.02 4.43 4.43 0 0 1-.76-1.7c-.16-.7-.24-1.5-.24-2.44v-8.72h1.6Zm18.53 14.2c-1 0-1.88-.2-2.62-.62a5.45 5.45 0 0 1-1.86-1.76l1.16-.96c.42.63.9 1.11 1.44 1.46.53.33 1.16.5 1.88.5 1.9 0 2.84-.89 2.84-2.66 0-.72-.18-1.27-.52-1.64a3.65 3.65 0 0 0-1.8-.88l-1.04-.26a5.77 5.77 0 0 1-2.72-1.34 3.5 3.5 0 0 1-.86-2.52c0-1.24.38-2.17 1.16-2.8.77-.64 1.8-.96 3.08-.96a5 5 0 0 1 2.44.54c.66.36 1.24.93 1.74 1.7l-1.18.84a3.87 3.87 0 0 0-1.24-1.26 3.32 3.32 0 0 0-1.82-.44c-.86 0-1.5.19-1.96.56-.44.37-.66.98-.66 1.82 0 .68.18 1.2.54 1.54.37.35.96.62 1.78.82l1.04.26a8 8 0 0 1 1.66.58c.45.21.82.48 1.1.8.3.32.5.7.62 1.14.13.43.2.93.2 1.5 0 1.32-.4 2.33-1.18 3.02a4.71 4.71 0 0 1-3.22 1.02Zm6.8-.24v-10.32h1.52v1.68h.2a3 3 0 0 1 .88-1.44 2.5 2.5 0 0 1 1.64-.48c.64 0 1.18.16 1.63.48.45.3.79.79 1.01 1.44h.2c.22-.64.55-1.12 1-1.44a3.06 3.06 0 0 1 1.8-.48c.88 0 1.6.31 2.13.94.53.63.8 1.6.8 2.9V204h-1.52v-6.62a3.1 3.1 0 0 0-.5-1.9c-.32-.44-.82-.66-1.5-.66-.6 0-1.11.19-1.52.56-.4.37-.6.9-.6 1.58V204h-1.52v-6.62a3.1 3.1 0 0 0-.5-1.9c-.32-.44-.82-.66-1.5-.66-.6 0-1.11.19-1.52.56-.4.37-.6.9-.6 1.58V204h-1.52Zm22.27 0c-.99 0-1.48-.5-1.48-1.48v-.2h-.2a2.6 2.6 0 0 1-.96 1.44c-.46.32-1 .48-1.64.48-1 0-1.75-.25-2.24-.76-.5-.5-.74-1.25-.74-2.24 0-.96.31-1.72.94-2.28.64-.56 1.63-.84 2.98-.84h1.86v-1.14c0-.76-.18-1.32-.52-1.68-.34-.36-.87-.54-1.6-.54-.6 0-1.09.13-1.46.4-.36.25-.68.63-.94 1.12l-.9-.84a3.69 3.69 0 0 1 3.36-1.98c1.17 0 2.06.29 2.66.86.61.56.92 1.4.92 2.5v5.84h1.04V204h-1.08Zm-3.9-1.08a2.63 2.63 0 0 0 1.74-.64c.21-.2.38-.42.5-.66.12-.25.18-.51.18-.78v-1.56h-1.9c-.8 0-1.39.13-1.76.4-.36.27-.54.65-.54 1.16v.56c0 .52.16.9.48 1.16.32.24.75.36 1.3.36Zm7.05 1.08v-10.32h1.52v1.92h.2c.17-.6.46-1.07.88-1.4.42-.35.98-.52 1.66-.52h.56v1.54h-1c-.72 0-1.3.16-1.7.48-.4.32-.6.8-.6 1.44V204h-1.52Zm8.95 0c-.55 0-.95-.12-1.2-.36-.24-.25-.36-.65-.36-1.2v-7.42h-1.52v-1.34h.9c.3 0 .5-.07.6-.22.1-.16.16-.4.16-.7v-1.92h1.38v2.84h2v1.34h-2v7.64h1.9V204H780Zm10.45 0-3.06-13.96h1.66l1.88 9.02.5 3.34h.2l.5-3.34 1.9-9.02h2.16l1.9 9.02.5 3.34h.2l.5-3.34 1.88-9.02h1.62L799.6 204h-2l-1.92-9.02-.5-3.54h-.2l-.5 3.54-2.04 9.02h-2Zm20.36 0c-.99 0-1.48-.5-1.48-1.48v-.2h-.2a2.6 2.6 0 0 1-.96 1.44c-.46.32-1 .48-1.64.48-1 0-1.75-.25-2.24-.76-.5-.5-.74-1.25-.74-2.24 0-.96.31-1.72.94-2.28.64-.56 1.63-.84 2.98-.84h1.86v-1.14c0-.76-.18-1.32-.52-1.68-.34-.36-.87-.54-1.6-.54-.6 0-1.09.13-1.46.4-.36.25-.68.63-.94 1.12l-.9-.84a3.69 3.69 0 0 1 3.36-1.98c1.17 0 2.06.29 2.66.86.61.56.92 1.4.92 2.5v5.84h1.04V204h-1.08Zm-3.9-1.08a2.63 2.63 0 0 0 1.74-.64c.21-.2.38-.42.5-.66.12-.25.18-.51.18-.78v-1.56h-1.9c-.8 0-1.39.13-1.76.4-.36.27-.54.65-.54 1.16v.56c0 .52.16.9.48 1.16.32.24.75.36 1.3.36Zm8.6 1.08c-.54 0-.94-.12-1.2-.36-.23-.25-.35-.65-.35-1.2V189.2h1.52v13.46h1.3V204h-1.26Zm4.77 0c-.54 0-.94-.12-1.2-.36-.24-.25-.36-.65-.36-1.2V189.2h1.52v13.46h1.3V204h-1.26Zm6.9.24c-.6 0-1.16-.1-1.68-.3-.52-.2-.96-.52-1.34-.96-.37-.44-.66-1-.88-1.68a8.26 8.26 0 0 1-.32-2.46c0-.96.1-1.78.32-2.46.22-.68.5-1.24.88-1.68.38-.44.82-.76 1.34-.96a4.64 4.64 0 0 1 3.32 0c.5.2.94.52 1.28.96.35.44.62 1 .8 1.68.2.68.3 1.5.3 2.46v.38h-6.62v.66c0 1.01.23 1.77.68 2.28.47.5 1.1.74 1.92.74.7 0 1.26-.15 1.7-.44.44-.3.79-.76 1.04-1.36l1.04.76a3.94 3.94 0 0 1-3.78 2.38Zm0-9.52c-.82 0-1.46.26-1.92.78-.45.52-.68 1.29-.68 2.3v.26h5v-.26c0-2.05-.8-3.08-2.4-3.08Zm8.47 9.28c-.55 0-.95-.12-1.2-.36-.25-.25-.37-.65-.37-1.2v-7.42h-1.52v-1.34h.9c.31 0 .51-.07.6-.22.11-.16.17-.4.17-.7v-1.92h1.38v2.84h2v1.34h-2v7.64h1.9V204h-1.87Z"/>
  <rect width="108" height="28" x="360" y="42" fill="#181D23" rx="8.4"/>
  <circle cx="371" cy="56" r="3" fill="#12B886"/>
  <rect width="3.34" height="17.02" x="417.14" y="64.28" fill="#12B886" rx="1.67" transform="rotate(-180 417.14 64.28)"/>
  <rect width="3.34" height="17.02" x="422.91" y="64.28" fill="#12B886" rx="1.67" transform="rotate(-180 422.91 64.28)"/>
  <rect width="3.34" height="17.02" x="428.69" y="64.28" fill="#12B886" rx="1.67" transform="rotate(-180 428.69 64.28)"/>
  <rect width="3.34" height="17.02" x="434.46" y="64.28" fill="#12B886" rx="1.67" transform="rotate(-180 434.46 64.28)"/>
  <rect width="3.34" height="17.02" x="440.23" y="64.28" fill="#232A32" rx="1.67" transform="rotate(-180 440.23 64.28)"/>
  <rect width="3.34" height="17.02" x="446" y="64.28" fill="#232A32" rx="1.67" transform="rotate(-180 446 64.28)"/>
  <rect width="3.4" height="5.77" x="453.29" y="57.16" fill="#465160" rx="1.7" transform="rotate(-90 453.3 57.16)"/>
  <rect width="2" height="20" x="382" y="57" fill="#465160" rx="1" transform="rotate(-90 382 57)"/>
  <rect width="2" height="10" x="382" y="62" fill="#465160" rx="1" transform="rotate(-90 382 62)"/>
  <rect width="130" height="28" x="349" y="72" fill="#181D23" rx="8.4"/>
  <circle cx="360" cy="86" r="3" fill="#12B886"/>
  <rect width="3.4" height="17.02" x="417.2" y="94.73" fill="#12B886" rx="1.7" transform="rotate(-180 417.2 94.73)"/>
  <rect width="3.4" height="17.02" x="423.08" y="94.73" fill="#12B886" rx="1.7" transform="rotate(-180 423.08 94.73)"/>
  <rect width="3.4" height="17.02" x="428.96" y="94.73" fill="#12B886" rx="1.7" transform="rotate(-180 428.96 94.73)"/>
  <rect width="3.4" height="17.02" x="434.84" y="94.73" fill="#232A32" rx="1.7" transform="rotate(-180 434.84 94.73)"/>
  <rect width="3.4" height="17.02" x="440.72" y="94.73" fill="#232A32" rx="1.7" transform="rotate(-180 440.72 94.73)"/>
  <rect width="3.4" height="17.02" x="446.59" y="94.73" fill="#232A32" rx="1.7" transform="rotate(-180 446.6 94.73)"/>
  <rect width="3.4" height="17.02" x="452.48" y="94.73" fill="#232A32" rx="1.7" transform="rotate(-180 452.48 94.73)"/>
  <rect width="3.4" height="17.02" x="458.35" y="94.73" fill="#232A32" rx="1.7" transform="rotate(-180 458.35 94.73)"/>
  <rect width="3.4" height="5.88" x="465.78" y="87.62" fill="#465160" rx="1.7" transform="rotate(-90 465.78 87.62)"/>
  <rect width="2" height="23" x="381" y="86" fill="#465160" rx="1" transform="rotate(-90 381 86)"/>
  <rect width="2" height="16" x="381" y="91" fill="#465160" rx="1" transform="rotate(-90 381 91)"/>
  <rect width="108" height="28" x="360" y="102" fill="#181D23" rx="8.4"/>
  <circle cx="371" cy="116" r="3" fill="#46A6FF"/>
  <rect width="3.4" height="17.02" x="417.2" y="125.19" fill="#FF646D" rx="1.7" transform="rotate(-180 417.2 125.19)"/>
  <rect width="3.4" height="17.02" x="423.08" y="125.19" fill="#232A32" rx="1.7" transform="rotate(-180 423.08 125.19)"/>
  <rect width="3.4" height="17.02" x="428.96" y="125.19" fill="#232A32" rx="1.7" transform="rotate(-180 428.96 125.19)"/>
  <rect width="3.4" height="17.02" x="434.84" y="125.19" fill="#232A32" rx="1.7" transform="rotate(-180 434.84 125.19)"/>
  <rect width="3.4" height="17.02" x="440.71" y="125.19" fill="#232A32" rx="1.7" transform="rotate(-180 440.71 125.19)"/>
  <rect width="3.4" height="17.02" x="446.59" y="125.19" fill="#232A32" rx="1.7" transform="rotate(-180 446.6 125.19)"/>
  <rect width="3.4" height="5.88" x="454.02" y="118.07" fill="#465160" rx="1.7" transform="rotate(-90 454.02 118.07)"/>
  <rect width="2" height="18" x="381" y="117" fill="#465160" rx="1" transform="rotate(-90 381 117)"/>
  <rect width="2" height="4" x="381" y="122" fill="#465160" rx="1" transform="rotate(-90 381 122)"/>
  <path fill="#46A6FF" d="M871.78 56.06h-.2a2.6 2.6 0 0 1-1.08 1.56c-.56.41-1.35.62-2.38.62-.76 0-1.45-.14-2.08-.42a4.22 4.22 0 0 1-1.6-1.32 6.71 6.71 0 0 1-1.04-2.24c-.24-.92-.36-2-.36-3.24 0-2.5.47-4.32 1.4-5.48a4.77 4.77 0 0 1 3.94-1.74c1.23 0 2.2.27 2.94.8.73.52 1.3 1.24 1.72 2.16l-1.32.8a3.66 3.66 0 0 0-1.22-1.72 3.42 3.42 0 0 0-2.12-.62c-1.16 0-2.05.39-2.68 1.16a4.7 4.7 0 0 0-.94 3.08v3.12c0 1.3.31 2.33.94 3.1a3.28 3.28 0 0 0 2.68 1.14c.45 0 .88-.07 1.28-.2a2.84 2.84 0 0 0 2.04-2.84v-1.52h-2.76v-1.4h4.32V58h-1.48v-1.94Zm5.92-12.02v9.04c0 .63.05 1.17.14 1.64.1.47.27.86.5 1.18.23.3.53.54.9.7.39.15.85.22 1.4.22 1.1 0 1.85-.3 2.28-.92.44-.63.66-1.57.66-2.82v-9.04h1.6v8.72c0 .93-.08 1.75-.24 2.44a4.26 4.26 0 0 1-.78 1.7c-.35.45-.81.8-1.4 1.02-.57.21-1.28.32-2.12.32a6.3 6.3 0 0 1-2.14-.32 3.3 3.3 0 0 1-1.4-1.02 4.43 4.43 0 0 1-.76-1.7c-.16-.7-.24-1.5-.24-2.44v-8.72h1.6ZM890.03 58h-1.6V44.04h5.14c2.3 0 3.46 1.33 3.46 3.98 0 2.24-.83 3.53-2.48 3.88l2.82 6.1h-1.8l-2.62-6h-2.92v6Zm3.5-7.36c1.18 0 1.78-.64 1.78-1.92v-1.36c0-1.28-.6-1.92-1.78-1.92h-3.5v5.2h3.5Zm7.76-6.6v9.04c0 .63.05 1.17.14 1.64.1.47.28.86.5 1.18.23.3.53.54.9.7.39.15.86.22 1.4.22 1.1 0 1.86-.3 2.28-.92.44-.63.66-1.57.66-2.82v-9.04h1.6v8.72c0 .93-.08 1.75-.24 2.44a4.26 4.26 0 0 1-.78 1.7c-.34.45-.81.8-1.4 1.02-.57.21-1.28.32-2.12.32a6.3 6.3 0 0 1-2.14-.32 3.3 3.3 0 0 1-1.4-1.02 4.43 4.43 0 0 1-.76-1.7c-.16-.7-.24-1.5-.24-2.44v-8.72h1.6Zm-34.79 32.9-1.22-2.88h-.2l.14 2.88V86h-1.56V72.04h1.96l4.64 9.06 1.22 2.88h.2l-.14-2.88v-9.06h1.56V86h-1.96l-4.64-9.06Zm13.27 9.3c-.6 0-1.16-.1-1.68-.3-.52-.2-.96-.52-1.34-.96-.37-.44-.66-1-.88-1.68a8.3 8.3 0 0 1-.32-2.46c0-.96.11-1.78.32-2.46.22-.68.51-1.24.88-1.68.38-.44.82-.76 1.34-.96a4.64 4.64 0 0 1 3.32 0c.51.2.94.52 1.28.96.35.44.62 1 .8 1.68.2.68.3 1.5.3 2.46v.38h-6.62v.66c0 1.01.23 1.77.68 2.28.47.5 1.11.74 1.92.74a3 3 0 0 0 1.7-.44c.44-.3.8-.76 1.04-1.36l1.04.76a3.95 3.95 0 0 1-3.78 2.38Zm0-9.52c-.82 0-1.46.26-1.92.78-.45.52-.68 1.29-.68 2.3v.26h5v-.26c0-2.05-.8-3.08-2.4-3.08Zm8.47 9.28c-.55 0-.95-.12-1.2-.36-.24-.25-.36-.65-.36-1.2v-7.42h-1.52v-1.34h.9c.3 0 .5-.07.6-.22.1-.16.16-.4.16-.7v-1.92h1.38v2.84h2v1.34h-2v7.64h1.9V86h-1.86Zm3.3-10.32h1.48l1 4.48.88 4.5h.2l1.02-4.5 1.04-4.48h1.76l1.04 4.48 1.02 4.5h.2l.88-4.5 1-4.48h1.44L902.02 86h-1.92l-1.26-5-.7-3.78h-.2L897.2 81l-1.26 5h-1.92l-2.48-10.32Zm18.37 10.56c-.6 0-1.16-.1-1.68-.3-.52-.2-.97-.52-1.34-.96-.37-.44-.67-1-.88-1.68a8.3 8.3 0 0 1-.32-2.46c0-.96.1-1.78.32-2.46.21-.68.5-1.24.88-1.68.37-.44.82-.76 1.34-.96.52-.2 1.08-.3 1.68-.3.6 0 1.16.1 1.68.3.52.2.97.52 1.34.96.37.44.67 1 .88 1.68.21.68.32 1.5.32 2.46s-.1 1.78-.32 2.46c-.21.68-.5 1.24-.88 1.68-.37.44-.82.76-1.34.96-.52.2-1.08.3-1.68.3Zm0-1.36c.83 0 1.46-.25 1.9-.74.45-.5.68-1.25.68-2.26V79.8c0-1.01-.23-1.77-.68-2.26-.44-.5-1.07-.74-1.9-.74-.83 0-1.47.25-1.92.74-.44.5-.66 1.25-.66 2.26v2.08c0 1.01.22 1.77.66 2.26.45.5 1.1.74 1.92.74Zm6.56 1.12V75.68h1.52v1.92h.2c.17-.6.47-1.07.88-1.4.43-.35.98-.52 1.66-.52h.56v1.54h-1a2.7 2.7 0 0 0-1.7.48c-.4.32-.6.8-.6 1.44V86h-1.52Zm6.64-14.8h1.52v7.6l-.12 2.02h.16l1.44-1.94 2.58-3.2h1.84l-3.42 4.1 3.72 6.22h-1.82l-3.02-5.32-1.36 1.6V86h-1.52V71.2Z"/>
  <path fill="#fff" d="M256.6 75.06h-.2a2.6 2.6 0 0 1-1.08 1.56c-.56.41-1.35.62-2.38.62-.76 0-1.45-.14-2.08-.42a4.22 4.22 0 0 1-1.6-1.32 6.73 6.73 0 0 1-1.04-2.24c-.24-.92-.36-2-.36-3.24 0-2.5.47-4.32 1.4-5.48a4.77 4.77 0 0 1 3.94-1.74c1.23 0 2.2.27 2.94.8.73.52 1.3 1.24 1.72 2.16l-1.32.8a3.65 3.65 0 0 0-1.22-1.72 3.42 3.42 0 0 0-2.12-.62c-1.16 0-2.05.39-2.68 1.16a4.7 4.7 0 0 0-.94 3.08v3.12c0 1.3.31 2.33.94 3.1a3.28 3.28 0 0 0 2.68 1.14c.45 0 .88-.07 1.28-.2a2.84 2.84 0 0 0 2.04-2.84v-1.52h-2.76v-1.4h4.32V77h-1.48v-1.94Zm5.92-12.02v9.04c0 .63.05 1.17.14 1.64.1.47.27.86.5 1.18.23.3.53.54.9.7.39.15.85.22 1.4.22 1.1 0 1.85-.3 2.28-.92.44-.63.66-1.57.66-2.82v-9.04h1.6v8.72c0 .93-.08 1.75-.24 2.44a4.26 4.26 0 0 1-.78 1.7c-.35.45-.81.8-1.4 1.02-.57.21-1.28.32-2.12.32a6.3 6.3 0 0 1-2.14-.32 3.3 3.3 0 0 1-1.4-1.02 4.44 4.44 0 0 1-.76-1.7c-.16-.7-.24-1.5-.24-2.44v-8.72h1.6ZM274.85 77h-1.6V63.04h5.14c2.3 0 3.46 1.33 3.46 3.98 0 2.24-.83 3.53-2.48 3.88l2.82 6.1h-1.8l-2.62-6h-2.92v6Zm3.5-7.36c1.18 0 1.78-.64 1.78-1.92v-1.36c0-1.28-.6-1.92-1.78-1.92h-3.5v5.2h3.5Zm7.76-6.6v9.04c0 .63.05 1.17.14 1.64.11.47.28.86.5 1.18.23.3.53.54.9.7.39.15.86.22 1.4.22 1.1 0 1.86-.3 2.28-.92.44-.63.66-1.57.66-2.82v-9.04h1.6v8.72c0 .93-.08 1.75-.24 2.44a4.26 4.26 0 0 1-.78 1.7c-.34.45-.81.8-1.4 1.02-.57.21-1.28.32-2.12.32a6.3 6.3 0 0 1-2.14-.32 3.3 3.3 0 0 1-1.4-1.02 4.43 4.43 0 0 1-.76-1.7c-.16-.7-.24-1.5-.24-2.44v-8.72h1.6ZM226.9 105V91.04h7.54v1.4h-5.94v4.8h5.4v1.4h-5.4V105h-1.6Zm9.57 0V94.68h1.52v1.92h.2c.17-.6.46-1.07.88-1.4.42-.35.98-.52 1.66-.52h.56v1.54h-1c-.72 0-1.3.16-1.7.48-.4.32-.6.8-.6 1.44V105h-1.52Zm13.02 0c-.99 0-1.48-.5-1.48-1.48v-.2h-.2c-.17.63-.5 1.1-.96 1.44-.45.32-1 .48-1.64.48-1 0-1.75-.25-2.24-.76-.5-.5-.74-1.25-.74-2.24 0-.96.31-1.72.94-2.28.64-.56 1.63-.84 2.98-.84H248v-1.14c0-.76-.17-1.32-.52-1.68-.33-.36-.87-.54-1.6-.54-.6 0-1.09.13-1.46.4-.36.25-.67.63-.94 1.12l-.9-.84a3.7 3.7 0 0 1 3.36-1.98c1.17 0 2.06.29 2.66.86.61.56.92 1.4.92 2.5v5.84h1.04V105h-1.08Zm-3.9-1.08c.35 0 .67-.06.96-.18.3-.12.57-.27.78-.46.21-.2.38-.42.5-.66.12-.25.18-.51.18-.78v-1.56h-1.9c-.8 0-1.39.13-1.76.4-.36.27-.54.65-.54 1.16v.56c0 .52.16.9.48 1.16.32.24.75.36 1.3.36Zm7.05 1.08V94.68h1.52v1.68h.2a3 3 0 0 1 .88-1.44 2.5 2.5 0 0 1 1.64-.48c.64 0 1.18.16 1.62.48.45.3.8.79 1.02 1.44h.2a2.7 2.7 0 0 1 1-1.44 3.06 3.06 0 0 1 1.8-.48c.88 0 1.58.31 2.12.94.53.63.8 1.6.8 2.9V105h-1.52v-6.62a3.1 3.1 0 0 0-.5-1.9c-.32-.44-.82-.66-1.5-.66-.6 0-1.1.19-1.52.56-.4.37-.6.9-.6 1.58V105h-1.52v-6.62a3.1 3.1 0 0 0-.5-1.9c-.32-.44-.82-.66-1.5-.66-.6 0-1.1.19-1.52.56-.4.37-.6.9-.6 1.58V105h-1.52Zm19.26.24c-.6 0-1.16-.1-1.68-.3-.52-.2-.97-.52-1.34-.96-.37-.44-.67-1-.88-1.68a8.26 8.26 0 0 1-.32-2.46c0-.96.1-1.78.32-2.46.21-.68.5-1.24.88-1.68.37-.44.82-.76 1.34-.96a4.64 4.64 0 0 1 3.32 0c.5.2.93.52 1.28.96.35.44.61 1 .8 1.68.2.68.3 1.5.3 2.46v.38h-6.62v.66c0 1.01.23 1.77.68 2.28.47.5 1.1.74 1.92.74.7 0 1.26-.15 1.7-.44.44-.3.79-.76 1.04-1.36l1.04.76a3.94 3.94 0 0 1-3.78 2.38Zm0-9.52a2.4 2.4 0 0 0-1.92.78c-.45.52-.68 1.29-.68 2.3v.26h5v-.26c0-2.05-.8-3.08-2.4-3.08Zm5.3-1.04h1.48l1 4.48.88 4.5h.2l1.02-4.5 1.04-4.48h1.76l1.04 4.48 1.02 4.5h.2l.88-4.5 1-4.48h1.44L287.67 105h-1.92l-1.26-5-.7-3.78h-.2l-.74 3.78-1.26 5h-1.92l-2.48-10.32Zm18.37 10.56c-.6 0-1.16-.1-1.68-.3-.52-.2-.96-.52-1.34-.96-.37-.44-.67-1-.88-1.68a8.3 8.3 0 0 1-.32-2.46c0-.96.1-1.78.32-2.46.21-.68.5-1.24.88-1.68.38-.44.82-.76 1.34-.96.52-.2 1.08-.3 1.68-.3.6 0 1.16.1 1.68.3.52.2.97.52 1.34.96.38.44.67 1 .88 1.68.22.68.32 1.5.32 2.46s-.1 1.78-.32 2.46c-.21.68-.5 1.24-.88 1.68-.37.44-.82.76-1.34.96-.52.2-1.08.3-1.68.3Zm0-1.36c.83 0 1.46-.25 1.9-.74.46-.5.68-1.25.68-2.26V98.8c0-1.01-.22-1.77-.68-2.26-.44-.5-1.07-.74-1.9-.74a2.5 2.5 0 0 0-1.92.74c-.44.5-.66 1.25-.66 2.26v2.08c0 1.01.22 1.77.66 2.26.46.5 1.1.74 1.92.74Zm6.56 1.12V94.68h1.52v1.92h.2c.17-.6.47-1.07.88-1.4.43-.35.98-.52 1.66-.52h.56v1.54h-1a2.7 2.7 0 0 0-1.7.48c-.4.32-.6.8-.6 1.44V105h-1.52Zm6.64-14.8h1.52v7.6l-.12 2.02h.16l1.44-1.94 2.58-3.2h1.84l-3.42 4.1 3.72 6.22h-1.82l-3.02-5.32-1.36 1.6V105h-1.52V90.2Z"/>
</svg>