<svg xmlns="http://www.w3.org/2000/svg" fill="none" viewBox="0 0 20 19" class="logo__img-logo">
  <path fill="#9488F0" fill-rule="evenodd" d="M10.16.69c-1.17 0-2.08.46-2.68 1.2a4 4 0 0 0-.83 2.53c0 .93.37 1.98.94 2.8.55.8 1.44 1.57 2.57 1.57s2.02-.77 2.57-1.57c.57-.82.94-1.87.94-2.8a4 4 0 0 0-.82-2.53 3.32 3.32 0 0 0-2.69-1.2ZM8.25 4.42c0-.61.17-1.15.47-1.52.28-.35.73-.61 1.44-.61.73 0 1.17.26 1.45.6.3.37.46.9.46 1.53 0 .56-.24 1.3-.65 1.89-.42.6-.89.88-1.26.88s-.84-.27-1.26-.89a3.57 3.57 0 0 1-.65-1.88Z" clip-rule="evenodd"/>
  <path fill="#9488F0" d="M4.82 12.4c-1.62-.18-2.96 1.12-2.96 2.45 0 1.32 1.04 2.51 3 2.51.7 0 1.42-.3 2.21-.88.93-.67 1.69-1.46 2.45-2.25.77-.79 1.54-1.58 2.46-2.25a5.4 5.4 0 0 1 3.16-1.2c2.7 0 4.6 1.79 4.6 4.13 0 2.33-2.22 4.3-4.74 4.03a5.24 5.24 0 0 1-3.15-1.38l1.12-1.15c.6.6 1.4.85 2.2.94 1.63.18 2.97-1.12 2.97-2.44 0-1.33-1.04-2.52-3-2.52-.7 0-1.42.3-2.21.88a19.1 19.1 0 0 0-2.45 2.25c-.77.79-1.54 1.58-2.46 2.25a5.4 5.4 0 0 1-3.16 1.2c-2.7 0-4.6-1.79-4.6-4.12 0-2.34 2.22-4.32 4.74-4.04 1.01.11 2.2.45 3.15 1.38l-1.12 1.15c-.6-.6-1.4-.85-2.2-.94Z"/>
</svg>