<svg xmlns="http://www.w3.org/2000/svg" fill="none" viewBox="0 0 161 25" class="logo__title">
  <path fill="#9488F0" d="M10.32 17.08h-.47c-.14.3-.32.58-.53.86-.2.26-.45.5-.79.7-.31.2-.7.37-1.15.5-.44.11-.97.17-1.6.17a6.1 6.1 0 0 1-2.26-.41 5.45 5.45 0 0 1-1.81-1.27 6.38 6.38 0 0 1-1.2-2.07 8.57 8.57 0 0 1-.43-2.8v-.47c0-1.04.15-1.96.45-2.77.31-.81.73-1.5 1.26-2.05A5.48 5.48 0 0 1 5.9 5.74c1.05 0 1.88.2 2.5.6.6.37 1.09.92 1.44 1.62h.47V6.1h3.3V25H6.5v-2.83h3.83v-5.09Zm-3.47-.88c1.04 0 1.87-.32 2.5-.96a3.5 3.5 0 0 0 .97-2.56v-.31a3.4 3.4 0 0 0-.97-2.54 3.3 3.3 0 0 0-2.5-.99c-1.03 0-1.87.32-2.52.96a3.44 3.44 0 0 0-.94 2.57v.3c0 1.1.31 1.96.94 2.6.65.62 1.5.93 2.52.93ZM25.4 6.1h3.3v12.85h-3.3v-1.87h-.48c-.58 1.49-1.82 2.23-3.73 2.23-.64 0-1.25-.1-1.8-.3a3.93 3.93 0 0 1-1.48-.97 4.66 4.66 0 0 1-1-1.6 7.05 7.05 0 0 1-.34-2.31V6.1h3.31v7.36c0 .91.22 1.63.66 2.15.44.5 1.1.75 1.97.75 1 0 1.72-.31 2.18-.93.47-.64.7-1.5.7-2.6V6.1Zm5.78 0H37v1.86h.48a3.1 3.1 0 0 1 1.23-1.63c.6-.4 1.3-.6 2.13-.6 1.3 0 2.33.41 3.12 1.22.79.8 1.18 2.02 1.18 3.66v.57l-3.41.74v-.8c0-.7-.18-1.26-.55-1.68-.37-.43-.92-.65-1.66-.65-.73 0-1.3.25-1.73.75-.42.5-.63 1.22-.63 2.15v4.15h3v3.11h-8.98v-3.11h2.67V9.21h-2.67V6.1Zm25.31 0h3.3v12.85h-3.3v-1.87h-.47c-.58 1.49-1.82 2.23-3.73 2.23-.65 0-1.25-.1-1.81-.3a3.93 3.93 0 0 1-1.47-.97 4.66 4.66 0 0 1-1-1.6 7.05 7.05 0 0 1-.34-2.31V6.1h3.3v7.36c0 .91.23 1.63.66 2.15.44.5 1.1.75 1.97.75 1 0 1.73-.31 2.18-.93.47-.64.71-1.5.71-2.6V6.1Z"/>
  <path fill="#12B886" d="M96.38.43h3.35v5.41h4.75v3.19h-4.75V19h-3.35V.43Zm56.39 10.24h.64l3.5-4.83h3.66V6l-4.24 6.03v.47l4.67 6.35V19h-3.82l-3.77-5.15h-.64V19h-3.34V.43h3.34v10.24Z"/>
  <path fill="#12B886" fill-rule="evenodd" d="M137.2 12.58c0 1.1-.19 2.07-.56 2.92a6.35 6.35 0 0 1-3.72 3.43 7.58 7.58 0 0 1-5.17 0 6.37 6.37 0 0 1-3.69-3.42 7.23 7.23 0 0 1-.56-2.93v-.32c0-1.07.19-2.03.56-2.86a6.3 6.3 0 0 1 3.69-3.48 7.58 7.58 0 0 1 5.17 0 6.29 6.29 0 0 1 3.72 3.48c.37.83.56 1.79.56 2.86v.32Zm-6.85 3.61c.47 0 .93-.08 1.35-.24a3.13 3.13 0 0 0 1.86-1.78c.2-.44.3-.93.3-1.48v-.53c0-.55-.1-1.04-.3-1.46a3.08 3.08 0 0 0-1.86-1.8 3.82 3.82 0 0 0-3.82.68 3.38 3.38 0 0 0-1.04 2.58v.53c0 .55.1 1.04.27 1.49a3.29 3.29 0 0 0 1.88 1.78c.43.15.88.23 1.36.23Z" clip-rule="evenodd"/>
  <path fill="#12B886" d="M115.2 19h5.78l.88-13.16h-3.08l-.58 9.98v1.6h-.15l-.5-1.6-.66-9.98h-5.52l-.66 9.98-.49 1.6h-.15v-1.6l-.58-9.98h-3.08l.88 13.17h5.78l.75-9.98v-1.6h.63v1.6l.75 9.98Z"/>
  <path fill="#12B886" fill-rule="evenodd" d="M84.31 14.6c-.16-.34-.25-.7-.27-1.09h9.67v-1.78a6.55 6.55 0 0 0-1.54-4.14 6.46 6.46 0 0 0-4.94-2.12 6.75 6.75 0 0 0-4.7 1.86 6.42 6.42 0 0 0-1.94 4.88v.16c0 1.1.16 2.08.48 2.95.34.86.8 1.6 1.38 2.2.6.6 1.31 1.06 2.13 1.38.81.32 1.71.48 2.7.48.87 0 1.62-.1 2.26-.3a5.8 5.8 0 0 0 1.64-.74 4.71 4.71 0 0 0 1.78-2.04l-2.86-1.6c-.2.41-.52.77-.96 1.07-.44.28-1.08.42-1.91.42a4 4 0 0 1-1.22-.18c-.37-.14-.7-.33-1.01-.56a3.17 3.17 0 0 1-.69-.85Zm.82-5.44a3.13 3.13 0 0 1 2.07-.66c.85 0 1.55.2 2.1.6.57.41.9.93 1 1.55h-6.2a2.9 2.9 0 0 1 1.03-1.5Z" clip-rule="evenodd"/>
  <path fill="#12B886" d="M69.21 19h-3.34V5.85h3.34v1.97h.48a3.5 3.5 0 0 1 1.46-1.73c.67-.4 1.46-.61 2.36-.61a4.73 4.73 0 0 1 3.27 1.25c.42.42.75.96.98 1.62.25.65.37 1.43.37 2.33v8.34H74.8v-7.49a3.2 3.2 0 0 0-.7-2.2c-.44-.55-1.08-.82-1.93-.82-1 0-1.73.33-2.23 1a4.41 4.41 0 0 0-.72 2.66V19Zm74.21 0V8.74h3.69V5.95h-6.97v13.06h3.28Z"/>
</svg>