<svg xmlns="http://www.w3.org/2000/svg" fill="none" viewBox="0 0 860 480"><g clip-path="url(#a)"><path fill="#29313A" d="M0 0h860v480H0z"/><path fill="#1E242C" d="M1295 278.25c0 298.924-242.33 541.25-541.25 541.25-298.924 0-541.25-242.326-541.25-541.25S454.826-263 753.75-263C1052.67-263 1295-20.674 1295 278.25Z"/><path fill="#0B0F14" d="M1046.5 174.5c0 192.747-156.253 349-349 349s-349-156.253-349-349 156.253-349 349-349 349 156.253 349 349Z"/><path fill="#397D0E" d="M553.387 280.839s16.342 11.849 39.644 46.207c23.303 34.357 79.562 67.104 146.879 5.541 31.158-27.018 63.031-41.923 63.031-41.923s-7.629 123.941-103.636 149.034c-96.016 25.092-151.475-98.367-151.475-98.367l5.557-60.482v-.01Z"/><path fill="#2D6309" d="M593.031 327.115c-23.302-34.358-39.644-46.207-39.644-46.207l-5.557 60.482s19.318 42.994 54.884 73.077c13.77-19.197 22.172-39.063 27.258-55.215-15.899-7.624-28.548-19.778-36.941-32.147v.01Z"/><path fill="#D3CCE0" d="M720.263 199.45s54.083 10.483 63.031 13.264c11.614 4.667 13.422 7.123 13.422 7.123s-48.724 18.284-68.24 1.248c-6.64-11.643-8.213-21.635-8.213-21.635Z"/><path fill="#813439" d="M543.621 258.566s-94.029-52.189-162.75 36.441c-61.223 78.952-24.489 186.564-24.489 186.564h50.862l136.377-223.005Z"/><path fill="#397D0E" d="M553.387 270.258s9.409-17.351 21.983-23.884c-5.416-10.316-36.733-30.457-36.733-30.457s-2.826 25.544-8.242 33.65c-32.787 9.501-85.561 29.347-111.378 77.174-20.91 38.74-32.496 109.272-15.937 154.83h47.49l102.817-211.313Z"/><path fill="#A75156" d="M553.388 270.258s-131.074 37.659-131.074 211.313h148.584s45.757-132.557-17.51-211.313Z"/><path fill="#F5F2F9" d="M651.815 336.183s45.051 8.901 110.512 3.262c38.382-53.29 34.379-119.608 34.379-119.608l-65.15-10.434-79.75 126.78h.009Z"/><path fill="#813439" d="M570.983 481.571s.066-.186.179-.52c-65.622-4.323-118.029-25.82-146.172-40.007a296.692 296.692 0 0 0-1.978 20.76c23.462 4.942 57.559 12.458 90.28 19.757h57.691v.01Zm-126.26-110.323c-3.118 6.71-6 13.833-8.59 21.398 50.683 7.143 108.572 20.986 147.782 31.214a333.822 333.822 0 0 0 2.289-21.713c-65.405 3.37-114.487-16.231-141.481-30.899Zm39.889-57.22a193.683 193.683 0 0 0-10.558 11.406c45.239 1.445 82.208 7.585 109.391 14.011a191.615 191.615 0 0 0-3.353-15.111c-41.641-.285-73.816-5.354-95.47-10.306h-.01Z"/><path fill="#2D6309" d="M715.102 351.539c8.382 11.377 27.757 26.458 68.136 13.224 17.481-37.462 19.742-74.089 19.742-74.089s-31.874 14.904-63.031 41.923c-8.468 7.752-16.766 14-24.847 18.942Z"/><path fill="#813439" d="M436.132 392.646s2.665 90.91 51.333 84.367c48.667-6.554 74.56-91.038 73.778-102.994-.782-11.957-119.695 4.745-119.695 4.745s-4.154 9.019-5.416 13.882Z"/><path fill="#2D6309" d="M438.318 311.984s-11.454 39.536-2.195 80.662c9.259-25.839 13.808-31.243 13.808-31.243l-11.623-49.419h.01Z"/><path fill="#397D0E" d="M488.557 361.069c-2.128 1.435-1.883-49.448-2.194-51.413-.311-1.965-9.108-35.448-32.025-23.295-22.916 12.153-17.895 53.418-14.439 74.708 3.457 21.291-3.767 92.383 43.958 93.7 47.726 1.307 80.061-83.875 77.866-85.506-2.194-1.631-26.655-39.555-73.156-8.184l-.01-.01Z"/><path fill="#2D6309" d="M488.558 361.069c-.829.56-2.11-48.937-2.11-48.937s-34.944 24.051-14.844 82.833c4.078-3.272 14.439-6.366 14.439-6.366s-7.695 7.525-4.238 12.094c11.142 22.312 56.353-5.856 60.752-12.094 2.788 3.35 5.302 5.413 8.646 7.663 6.998-13.912 6.236-9.805 11.604-26.468-2.194-1.641-27.748-40.086-74.249-8.715v-.01Zm53.527-133.913c-.16.295 2.364 24.169 16.719 34.751 8.853-12.596 18.602-17.37 18.602-17.37l-35.321-17.371v-.01Z"/><path fill="#4F9522" d="M517.586 148.852s-24.32 83.512 58.566 102.837c57.145 11.466 128.145-56.178 110.88-131.506-17.265-75.327-185.082-91.862-169.446 28.669Z"/><path fill="#397D0E" d="M551.504 210.749c33.292 0 60.281-27.712 60.281-61.897 0-34.184-26.989-61.896-60.281-61.896-33.293 0-60.281 27.712-60.281 61.896 0 34.185 26.988 61.897 60.281 61.897Z"/><path fill="#397D0E" d="M654.896 230.438c24.979 0 45.229-21.123 45.229-47.179s-20.25-47.179-45.229-47.179c-24.98 0-45.23 21.123-45.23 47.179s20.25 47.179 45.23 47.179Z"/><path fill="#F5F2F9" d="M554.765 206.269c29.099 0 52.689-24.607 52.689-54.961 0-30.353-23.59-54.96-52.689-54.96-29.1 0-52.69 24.607-52.69 54.96 0 30.354 23.59 54.961 52.69 54.961Zm100.13 22.076c22.462 0 40.671-18.994 40.671-42.424s-18.209-42.423-40.671-42.423c-22.461 0-40.67 18.993-40.67 42.423 0 23.43 18.209 42.424 40.67 42.424Z"/><path fill="#4C2634" d="M566.066 230.438s9.183 8.803 30.14 10.522c2.939.492-.64-19.07-3.701-22.263-3.062-3.193-29.613 8.459-26.439 11.751v-.01Z"/><path fill="#F5F2F9" d="M592.505 218.697c-1.818-1.896-11.944 1.454-19.187 5.168 2.675 2.564 9.061 7.231 15.636 1.376.188 5.217 2.091 7.948 8.015 8.311-.763-5.747-2.694-13.018-4.464-14.865v.01Z"/><path fill="#232A32" d="M569.598 199.45c7.995 0 14.477-6.761 14.477-15.101 0-8.339-6.482-15.1-14.477-15.1s-14.477 6.761-14.477 15.1c0 8.34 6.482 15.101 14.477 15.101Zm76.765 25.054c7.995 0 14.476-6.761 14.476-15.101s-6.481-15.101-14.476-15.101c-7.996 0-14.477 6.761-14.477 15.101s6.481 15.101 14.477 15.101Z"/><path fill="#397D0E" d="M607.452 106.605s36.046-3.605 53.396 21.939c-3.061-21.939-23.35-41.264-53.396-21.939Z"/><path fill="#232A32" d="M581.551 304.331s-6.857.402-4.145-6.475c23.312-17.311 40.445-23.619 40.445-23.619 4.823-2.702 19.667 7.251 15.777 17.685l-10.578 9.844-41.499 2.565Z"/><path fill="#52B1F9" d="M608.987 286.115s-146.624 85.152-142.536 118.223c.311 10.149 49.92-10.483 157.296-103.161 5.34-3.93-7.375-20.957-14.76-15.062Z"/><path fill="#232A32" d="M466.367 403.11s-5.491 4.745-4.945 6.465c.546 1.719 7.14-3.016 7.14-3.016s0-2.3-2.195-3.449Z"/><path fill="#4F9522" d="M471.736 365.078s-9.343-23.796 20.684-48.358c30.018-24.562 47.763-21.713 59.415-21.536 15.908.245 59.772 60.177 59.141 63.125-.631 2.947-48.018 33.728-50.532 34.062-2.515.334-21.231-17.685-21.231-17.685s-14.571 18.01-31.836 25.221c-17.264 7.202-18.498 2.594-19.76-.354-1.253-2.947-1.752-15.366-1.752-15.366s-9.419-9.658-14.129-19.109Z"/><path fill="#2D6309" d="M538.911 375.06c.706-2.496 1.771-12.35-2.392-22.086 22.605 17.439 11.462 30.634 11.462 30.634s-7.488-6.868-9.07-8.548Z"/><path fill="#9DC7EB" d="M587.861 471.678s-.311 7.85 0 9.323c.311 1.474.942 5.571 27.004 5.08 26.062-.491 28.257-3.272 28.888-4.097.631-.825 1.883-10.316.781-14.246-1.102-3.93-55.1-5.384-56.673 3.94Z"/><path fill="#608DB5" d="M644.536 467.738c.047 1.896-14.382 5.541-27.861 5.895-13.478.354-28.614-.668-28.614-2.574 0-3.478 15.173-6.013 28.652-6.367 13.478-.353 27.776 1.15 27.823 3.046Zm-49.78 6.868c-.452-.826-1.074-.757-1.319.167a17.428 17.428 0 0 0-.584 5.364c.038.806.141 2.535 1.008 2.918.857.373.97-1.405.951-1.847a10.196 10.196 0 0 1 .358-3.154c.292-1.071.123-2.486-.405-3.448h-.009Zm2.949-.737c-.885-.334-.932 1.365-.951 1.847l-.17 4.912c-.028.747.179 2.604 1.008 2.918.886.334.933-1.365.952-1.847l.169-4.912c.028-.747-.179-2.604-1.008-2.918Zm37.431-.236c-.405-.747-1.15-.835-1.319.167a30.388 30.388 0 0 0-.471 5.846c.019.756.151 2.594 1.008 2.918.866.324.961-1.366.951-1.847a19.553 19.553 0 0 1 .236-3.636c.197-1.129.15-2.426-.405-3.448Z"/><path fill="#fff" d="M632.036 471.452c-1.63.344-3.278.56-4.936.678-1.271.088-.819 4.971.575 4.873a34.834 34.834 0 0 0 4.935-.678c1.366-.285.678-5.139-.574-4.873Zm7.817 1.12c-.076-.57-.189-1.189-.481-1.69-.169-.295-.376-.629-.744-.629h-.235c-.33 0-.518.58-.575.796-.141.54-.141 1.218-.075 1.758.075.57.188 1.189.48 1.69.17.295.377.629.744.629h.236c.329 0 .518-.579.574-.796.142-.54.142-1.218.076-1.758Z"/><path fill="#DB7E04" d="M585.61 456.656s-.311 7.85 0 9.323c.311 1.474.942 5.571 27.004 5.08 26.062-.492 28.257-3.272 28.888-4.097.631-.825 1.883-10.316.781-14.246-1.102-3.93-55.1-5.384-56.673 3.94Z"/><path fill="#C75C04" d="M642.283 452.725c.047 1.897-14.382 5.542-27.861 5.895-13.478.354-28.614-.668-28.614-2.574 0-3.478 15.173-6.013 28.652-6.366 13.478-.354 27.776 1.149 27.823 3.045Zm-49.779 6.868c-.452-.825-1.074-.756-1.319.167a17.435 17.435 0 0 0-.584 5.365c.038.805.141 2.534 1.008 2.917.857.374.97-1.404.951-1.847-.047-1.09.076-2.102.358-3.153.292-1.071.123-2.486-.405-3.449h-.009Zm2.939-.737c-.886-.334-.933 1.366-.952 1.847l-.169 4.913c-.028.746.179 2.603 1.008 2.918.885.334.932-1.366.951-1.847l.169-4.913c.029-.747-.179-2.603-1.007-2.918Zm37.441-.236c-.405-.746-1.149-.835-1.319.167a30.395 30.395 0 0 0-.471 5.846c.019.757.151 2.594 1.008 2.918.866.324.961-1.365.951-1.847a19.548 19.548 0 0 1 .236-3.635c.197-1.13.15-2.427-.405-3.449Z"/><path fill="#fff" d="M629.785 456.439c-1.63.344-3.278.56-4.936.678-1.271.089-.819 4.972.575 4.873a34.834 34.834 0 0 0 4.935-.678c1.366-.285.679-5.138-.574-4.873Zm7.817 1.12c-.076-.57-.189-1.189-.481-1.69-.169-.294-.376-.629-.744-.629h-.235c-.33 0-.518.58-.575.796-.141.541-.141 1.219-.075 1.759.075.57.188 1.189.48 1.69.17.295.377.629.744.629h.236c.329 0 .518-.58.574-.796.142-.541.142-1.219.076-1.759Z"/><path fill="#DB7E04" d="M587.663 440.651s-.311 7.85 0 9.324c.31 1.473.941 5.57 27.004 5.079 26.062-.491 28.256-3.272 28.887-4.097.631-.825 1.884-10.316.782-14.246-1.102-3.93-55.1-5.384-56.673 3.94Z"/><path fill="#C75C04" d="M644.336 436.711c.047 1.896-14.383 5.541-27.861 5.895-13.478.354-28.615-.668-28.615-2.574 0-3.478 15.174-6.013 28.653-6.367 13.478-.353 27.776 1.15 27.823 3.046Zm-49.779 6.867c-.453-.825-1.074-.756-1.319.167a17.435 17.435 0 0 0-.584 5.365c.038.805.141 2.535 1.008 2.918.857.373.97-1.405.951-1.847a10.166 10.166 0 0 1 .358-3.154c.292-1.071.122-2.486-.405-3.449h-.009Zm2.938-.736c-.885-.334-.932 1.365-.951 1.847l-.169 4.912c-.029.747.179 2.604 1.007 2.918.886.334.933-1.366.952-1.847l.169-4.912c.028-.747-.179-2.604-1.008-2.918Zm37.441-.236c-.405-.747-1.149-.835-1.318.167a30.388 30.388 0 0 0-.471 5.846c.019.756.15 2.593 1.008 2.918.866.324.96-1.366.951-1.847a19.639 19.639 0 0 1 .235-3.636c.198-1.13.151-2.426-.405-3.448Z"/><path fill="#fff" d="M631.838 440.425c-1.63.344-3.278.56-4.936.678-1.272.088-.819 4.971.575 4.873a34.854 34.854 0 0 0 4.935-.678c1.366-.285.678-5.139-.574-4.873Zm7.816 1.12c-.075-.57-.188-1.189-.48-1.69-.169-.295-.377-.629-.744-.629h-.235c-.33 0-.519.58-.575.796-.141.54-.141 1.218-.075 1.759.075.569.188 1.188.48 1.689.17.295.377.629.744.629h.236c.329 0 .518-.58.574-.796.141-.54.141-1.218.075-1.758Z"/><path fill="#9DC7EB" d="M585.61 424.577s-.311 7.85 0 9.324c.311 1.474.942 5.571 27.004 5.08 26.062-.492 28.257-3.272 28.888-4.097.631-.826 1.883-10.316.781-14.246-1.102-3.93-55.1-5.384-56.673 3.939Z"/><path fill="#608DB5" d="M642.283 420.637c.047 1.897-14.382 5.542-27.861 5.895-13.478.354-28.614-.668-28.614-2.574 0-3.478 15.173-6.013 28.652-6.366 13.478-.354 27.776 1.149 27.823 3.045Zm-49.779 6.878c-.452-.825-1.074-.757-1.319.167a17.428 17.428 0 0 0-.584 5.364c.038.806.141 2.535 1.008 2.918.857.374.97-1.405.951-1.847-.047-1.09.076-2.102.358-3.154.292-1.071.123-2.485-.405-3.448h-.009Zm2.939-.747c-.886-.334-.933 1.366-.952 1.847l-.169 4.913c-.028.746.179 2.603 1.008 2.918.885.334.932-1.366.951-1.847l.169-4.913c.029-.747-.179-2.603-1.007-2.918Zm37.441-.236c-.405-.746-1.149-.835-1.319.168a30.378 30.378 0 0 0-.471 5.845c.019.757.151 2.594 1.008 2.918.866.324.961-1.365.951-1.847a19.548 19.548 0 0 1 .236-3.635c.197-1.13.15-2.427-.405-3.449Z"/><path fill="#fff" d="M629.785 424.361c-1.63.344-3.278.56-4.936.678-1.271.088-.819 4.971.575 4.873a34.834 34.834 0 0 0 4.935-.678c1.366-.285.679-5.138-.574-4.873Zm7.817 1.11c-.076-.57-.189-1.189-.481-1.69-.169-.294-.376-.628-.744-.628h-.235c-.33 0-.518.579-.575.795-.141.541-.141 1.219-.075 1.759.075.57.188 1.189.48 1.69.17.295.377.629.744.629h.236c.329 0 .518-.58.574-.796.142-.54.142-1.218.076-1.759Z"/><path fill="#DB7E04" d="M586.826 408.563s-.311 7.85 0 9.323c.31 1.474.942 5.571 27.004 5.08 26.062-.491 28.256-3.272 28.887-4.097.631-.825 1.884-10.316.782-14.246-1.102-3.93-55.1-5.384-56.673 3.94Z"/><path fill="#FFAD00" d="M642.717 406.264c.047 1.896-13.601 3.9-27.07 4.254-13.478.354-26.015-.884-26.062-2.781-.047-1.896 12.254-4.44 25.733-4.794 13.478-.354 27.352 1.424 27.399 3.321Z"/><path fill="#C75C04" d="M593.728 411.5c-.452-.825-1.073-.756-1.318.167a17.435 17.435 0 0 0-.584 5.365c.037.805.141 2.535 1.008 2.918.857.373.97-1.405.951-1.847a10.166 10.166 0 0 1 .358-3.154c.292-1.071.122-2.486-.405-3.449h-.01Zm2.94-.737c-.885-.334-.932 1.366-.951 1.847l-.17 4.913c-.028.747.179 2.604 1.008 2.918.886.334.933-1.366.952-1.847l.169-4.913c.028-.746-.179-2.603-1.008-2.918Zm37.431-.235c-.405-.747-1.149-.835-1.318.167a30.385 30.385 0 0 0-.471 5.845c.019.757.151 2.594 1.008 2.919.866.324.96-1.366.951-1.848a19.633 19.633 0 0 1 .235-3.635c.198-1.13.151-2.427-.405-3.448Z"/><path fill="#fff" d="M631.001 408.347a36.54 36.54 0 0 1-4.936.678c-1.271.088-.819 4.971.575 4.873a34.854 34.854 0 0 0 4.935-.678c1.366-.285.678-5.139-.574-4.873Zm7.817 1.12c-.076-.57-.189-1.189-.481-1.69-.169-.295-.377-.629-.744-.629h-.235c-.33 0-.518.58-.575.796-.141.54-.141 1.218-.075 1.758.075.57.188 1.189.48 1.69.17.295.377.629.744.629h.236c.329 0 .518-.58.574-.796.141-.54.141-1.218.076-1.758Z"/><path fill="#DB7E04" d="M660.848 472.267s-.415 7.85-.123 9.324c.292 1.474.867 5.58 26.929 5.472 26.062-.108 28.294-2.859 28.935-3.674.64-.816 2.025-10.287.979-14.236-1.045-3.95-55.025-6.19-56.72 3.114Z"/><path fill="#C75C04" d="M717.569 469.153c.019 1.896-14.458 5.325-27.936 5.492-13.479.157-28.606-1.091-28.577-2.987.047-3.478 15.258-5.787 28.737-5.954 13.478-.167 27.757 1.552 27.776 3.449Zm-49.865 6.15c-.433-.825-1.064-.776-1.328.147a17.424 17.424 0 0 0-.659 5.355c.028.805.103 2.544.97 2.928.848.383.989-1.386.97-1.838-.028-1.09.104-2.102.405-3.144.301-1.061.151-2.485-.358-3.448Zm2.948-.698c-.885-.343-.951 1.356-.97 1.838-.075 1.64-.16 3.271-.235 4.912-.038.747.151 2.604.97 2.928.885.344.951-1.356.97-1.837.076-1.641.16-3.272.236-4.913.037-.747-.151-2.603-.971-2.928Zm37.441.305c-.395-.757-1.139-.845-1.328.147-.358 1.936-.565 3.861-.546 5.846 0 .757.122 2.594.97 2.928.867.344.98-1.346.97-1.837-.009-1.219.066-2.437.292-3.636.207-1.129.189-2.416-.358-3.448Z"/><path fill="#fff" d="M705.023 472.69a35.17 35.17 0 0 1-4.945.599c-1.272.069-.886 4.952.508 4.883a36.343 36.343 0 0 0 4.945-.6c1.366-.265.744-5.128-.508-4.882Zm7.808 1.228c-.066-.57-.17-1.199-.452-1.7-.17-.295-.368-.639-.735-.639h-.236c-.329 0-.527.57-.584.786-.15.531-.16 1.209-.094 1.759.066.57.17 1.199.452 1.7.17.294.368.638.735.638h.236c.329 0 .527-.569.584-.786.15-.53.16-1.208.094-1.758Z"/><path fill="#DB7E04" d="M661.188 458.021s-.311 7.85 0 9.324c.311 1.474.942 5.571 27.004 5.079 26.062-.491 28.257-3.271 28.888-4.097.631-.825 1.884-10.316.781-14.246-1.102-3.93-55.1-5.384-56.673 3.94Z"/><path fill="#C75C04" d="M717.861 454.081c.048 1.897-14.382 5.542-27.861 5.895-13.478.354-28.614-.668-28.614-2.574 0-3.478 15.174-6.013 28.652-6.366 13.479-.354 27.776 1.149 27.823 3.045Zm-49.778 6.868c-.452-.825-1.074-.757-1.319.167a17.432 17.432 0 0 0-.584 5.364c.038.806.142 2.535 1.008 2.918.857.374.97-1.405.951-1.847-.047-1.09.076-2.102.358-3.153.292-1.071.123-2.486-.405-3.449h-.009Zm2.939-.737c-.886-.334-.933 1.366-.952 1.847l-.169 4.913c-.028.746.179 2.603 1.008 2.918.885.334.932-1.366.951-1.848l.17-4.912c.028-.747-.179-2.604-1.008-2.918Zm37.441-.236c-.405-.746-1.149-.835-1.319.167a30.395 30.395 0 0 0-.471 5.846c.019.757.151 2.594 1.008 2.918.866.324.961-1.366.951-1.847a19.548 19.548 0 0 1 .236-3.635c.198-1.13.15-2.427-.405-3.449Z"/><path fill="#fff" d="M705.363 457.795c-1.63.344-3.278.56-4.936.678-1.271.089-.819 4.971.575 4.873a34.834 34.834 0 0 0 4.935-.678c1.366-.285.679-5.138-.574-4.873Zm7.817 1.12c-.076-.57-.189-1.189-.481-1.69-.169-.294-.376-.628-.744-.628h-.235c-.33 0-.518.579-.575.795-.141.541-.141 1.219-.075 1.759.075.57.188 1.189.48 1.69.17.295.377.629.744.629h.236c.33 0 .518-.58.574-.796.142-.54.142-1.218.076-1.759Z"/><path fill="#DB7E04" d="M660.603 442.861s-.311 7.85 0 9.324c.311 1.474.942 5.571 27.004 5.08 26.062-.492 28.257-3.272 28.888-4.097.631-.826 1.884-10.316.782-14.246-1.102-3.93-55.101-5.384-56.674 3.939Z"/><path fill="#C75C04" d="M717.268 438.922c.047 1.896-14.383 5.541-27.861 5.895-13.479.353-28.615-.669-28.615-2.575 0-3.478 15.174-6.012 28.652-6.366 13.479-.354 27.777 1.149 27.824 3.046Zm-49.77 6.867c-.452-.825-1.074-.756-1.319.167a17.462 17.462 0 0 0-.584 5.364c.038.806.142 2.535 1.008 2.918.857.374.97-1.405.951-1.847-.047-1.09.076-2.102.358-3.153.292-1.071.123-2.486-.405-3.449h-.009Zm2.938-.737c-.886-.334-.933 1.366-.952 1.847l-.169 4.913c-.028.746.179 2.603 1.008 2.918.885.334.932-1.366.951-1.847l.17-4.913c.028-.747-.179-2.603-1.008-2.918Zm37.441-.235c-.405-.747-1.149-.836-1.319.167a30.465 30.465 0 0 0-.471 5.845c.019.757.151 2.594 1.008 2.918.867.325.961-1.365.951-1.847a19.548 19.548 0 0 1 .236-3.635c.198-1.13.151-2.427-.405-3.448Z"/><path fill="#fff" d="M704.778 442.635c-1.63.344-3.278.56-4.936.678-1.271.089-.819 4.972.575 4.873a34.834 34.834 0 0 0 4.935-.678c1.366-.284.679-5.138-.574-4.873Zm7.817 1.12c-.075-.569-.188-1.188-.48-1.689-.17-.295-.377-.629-.745-.629h-.235c-.33 0-.518.579-.575.796-.141.54-.141 1.218-.075 1.758.075.57.188 1.189.48 1.69.17.295.377.629.744.629h.236c.33 0 .518-.58.575-.796.141-.54.141-1.218.075-1.759Z"/><path fill="#9DC7EB" d="M658.747 428.085s-.311 7.85 0 9.323c.31 1.474.941 5.571 27.004 5.08 26.062-.491 28.256-3.272 28.887-4.097.631-.825 1.884-10.316.782-14.246-1.102-3.93-55.101-5.384-56.673 3.94Z"/><path fill="#608DB5" d="M715.42 424.155c.047 1.896-14.383 5.541-27.861 5.895-13.478.353-28.615-.668-28.615-2.574 0-3.478 15.174-6.013 28.653-6.367 13.478-.354 27.776 1.15 27.823 3.046Zm-49.779 6.867c-.452-.825-1.073-.756-1.318.167a17.435 17.435 0 0 0-.584 5.365c.038.805.141 2.535 1.008 2.918.857.373.97-1.405.951-1.847a10.166 10.166 0 0 1 .358-3.154c.292-1.071.122-2.486-.405-3.449h-.01Zm2.938-.737c-.885-.334-.932 1.366-.951 1.847l-.169 4.913c-.029.747.178 2.604 1.007 2.918.886.334.933-1.366.952-1.847l.169-4.913c.028-.746-.179-2.603-1.008-2.918Zm37.441-.235c-.405-.747-1.149-.835-1.318.167a30.388 30.388 0 0 0-.471 5.846c.019.756.15 2.593 1.008 2.918.866.324.96-1.366.951-1.847a19.639 19.639 0 0 1 .235-3.636c.198-1.13.151-2.426-.405-3.448Z"/><path fill="#fff" d="M702.922 427.869a36.54 36.54 0 0 1-4.936.678c-1.272.088-.819 4.971.575 4.873a34.854 34.854 0 0 0 4.935-.678c1.366-.285.678-5.139-.574-4.873Zm7.816 1.12c-.075-.57-.188-1.189-.48-1.69-.169-.295-.377-.629-.744-.629h-.235c-.33 0-.519.58-.575.796-.141.54-.141 1.218-.075 1.758.075.57.188 1.189.48 1.69.17.295.377.629.744.629h.236c.329 0 .518-.58.574-.796.141-.54.141-1.218.075-1.758Z"/><path fill="#DB7E04" d="M656.496 413.072s-.311 7.85 0 9.324c.31 1.474.941 5.571 27.004 5.079 26.062-.491 28.256-3.271 28.887-4.096.631-.826 1.884-10.317.782-14.247-1.102-3.929-55.1-5.384-56.673 3.94Z"/><path fill="#C75C04" d="M713.16 409.133c.047 1.896-14.382 5.541-27.861 5.895-13.478.353-28.614-.669-28.614-2.575 0-3.478 15.173-6.013 28.652-6.366 13.478-.354 27.776 1.149 27.823 3.046Zm-49.771 6.877c-.452-.825-1.073-.757-1.318.167a17.432 17.432 0 0 0-.584 5.364c.038.806.141 2.535 1.008 2.918.857.374.97-1.405.951-1.847-.047-1.09.075-2.102.358-3.154.292-1.07.122-2.485-.405-3.448h-.01Zm2.939-.747c-.885-.334-.932 1.366-.951 1.847l-.169 4.913c-.029.746.179 2.603 1.007 2.918.886.334.933-1.366.952-1.847l.169-4.913c.028-.746-.179-2.603-1.008-2.918Zm37.441-.236c-.405-.746-1.149-.835-1.318.167a30.395 30.395 0 0 0-.471 5.846c.019.757.15 2.594 1.008 2.918.866.324.96-1.365.951-1.847a19.633 19.633 0 0 1 .235-3.635c.198-1.13.151-2.427-.405-3.449Z"/><path fill="#fff" d="M700.671 412.856c-1.63.344-3.278.56-4.936.678-1.272.089-.819 4.972.575 4.873a34.854 34.854 0 0 0 4.935-.678c1.366-.285.678-5.138-.574-4.873Zm7.817 1.11c-.075-.569-.188-1.188-.48-1.689-.169-.295-.377-.629-.744-.629h-.236c-.329 0-.518.579-.574.796-.141.54-.141 1.218-.075 1.758.075.57.188 1.189.48 1.69.17.295.377.629.744.629h.236c.329 0 .518-.58.574-.796.141-.54.141-1.218.075-1.759Z"/><path fill="#DB7E04" d="M658.549 397.068s-.311 7.85 0 9.323c.311 1.474.942 5.571 27.004 5.08 26.062-.491 28.257-3.272 28.888-4.097.631-.825 1.884-10.316.782-14.246-1.102-3.93-55.101-5.384-56.674 3.94Z"/><path fill="#C75C04" d="M715.214 393.128c.047 1.896-14.383 5.541-27.861 5.895-13.479.354-28.615-.668-28.615-2.574 0-3.478 15.174-6.013 28.653-6.367 13.478-.353 27.776 1.15 27.823 3.046Zm-49.771 6.867c-.452-.825-1.074-.756-1.318.167a17.435 17.435 0 0 0-.584 5.365c.037.805.141 2.535 1.007 2.918.858.373.971-1.405.952-1.847a10.166 10.166 0 0 1 .358-3.154c.292-1.071.122-2.486-.405-3.449h-.01Zm2.939-.736c-.885-.334-.932 1.365-.951 1.847l-.17 4.912c-.028.747.179 2.604 1.008 2.918.885.334.933-1.366.951-1.847l.17-4.912c.028-.747-.179-2.604-1.008-2.918Zm37.441-.236c-.405-.747-1.149-.835-1.319.167a30.468 30.468 0 0 0-.471 5.846c.019.756.151 2.593 1.008 2.918.867.324.961-1.366.952-1.847a19.467 19.467 0 0 1 .235-3.636c.198-1.129.151-2.426-.405-3.448Z"/><path fill="#fff" d="M702.724 396.842c-1.629.344-3.278.56-4.935.678-1.272.088-.82 4.971.574 4.873a34.868 34.868 0 0 0 4.936-.678c1.366-.285.678-5.139-.575-4.873Zm7.817 1.12c-.075-.57-.188-1.189-.48-1.69-.17-.295-.377-.629-.744-.629h-.236c-.329 0-.518.58-.574.796-.142.54-.142 1.218-.076 1.759.076.569.189 1.188.481 1.689.169.295.376.629.744.629h.235c.33 0 .518-.58.575-.796.141-.54.141-1.218.075-1.758Z"/><path fill="#9DC7EB" d="M656.496 380.994s-.311 7.85 0 9.324c.31 1.474.941 5.571 27.004 5.079 26.062-.491 28.256-3.271 28.887-4.097.631-.825 1.884-10.316.782-14.246-1.102-3.93-55.1-5.384-56.673 3.94Z"/><path fill="#608DB5" d="M713.16 377.054c.047 1.897-14.382 5.542-27.861 5.895-13.478.354-28.614-.668-28.614-2.574 0-3.478 15.173-6.013 28.652-6.366 13.478-.354 27.776 1.149 27.823 3.045Zm-49.771 6.868c-.452-.825-1.073-.757-1.318.167a17.432 17.432 0 0 0-.584 5.364c.038.806.141 2.535 1.008 2.918.857.374.97-1.405.951-1.847-.047-1.09.075-2.102.358-3.154.292-1.07.122-2.485-.405-3.448h-.01Zm2.939-.737c-.885-.334-.932 1.366-.951 1.847l-.169 4.913c-.029.746.179 2.603 1.007 2.918.886.334.933-1.366.952-1.848l.169-4.912c.028-.747-.179-2.604-1.008-2.918Zm37.441-.236c-.405-.746-1.149-.835-1.318.167a30.395 30.395 0 0 0-.471 5.846c.019.757.15 2.594 1.008 2.918.866.324.96-1.366.951-1.847a19.633 19.633 0 0 1 .235-3.635c.198-1.13.151-2.427-.405-3.449Z"/><path fill="#fff" d="M700.671 380.768c-1.63.344-3.278.56-4.936.678-1.272.089-.819 4.971.575 4.873a34.854 34.854 0 0 0 4.935-.678c1.366-.285.678-5.138-.574-4.873Zm7.817 1.12c-.075-.57-.188-1.189-.48-1.69-.169-.294-.377-.629-.744-.629h-.236c-.329 0-.518.58-.574.796-.141.541-.141 1.219-.075 1.759.075.57.188 1.189.48 1.69.17.295.377.629.744.629h.236c.329 0 .518-.58.574-.796.141-.541.141-1.218.075-1.759Z"/><path fill="#DB7E04" d="M657.711 364.98s-.31 7.85 0 9.323c.311 1.474.942 5.571 27.004 5.08 26.062-.491 28.257-3.272 28.888-4.097.631-.825 1.884-10.316.782-14.246-1.102-3.93-55.101-5.384-56.674 3.94Z"/><path fill="#FFAD00" d="M713.604 362.681c.047 1.896-13.601 3.9-27.07 4.254-13.479.353-26.015-.884-26.062-2.781-.047-1.896 12.254-4.44 25.732-4.794 13.479-.354 27.353 1.424 27.4 3.321Z"/><path fill="#C75C04" d="M664.606 367.917c-.452-.825-1.073-.756-1.318.167a17.435 17.435 0 0 0-.584 5.365c.037.805.141 2.534 1.008 2.918.857.373.97-1.405.951-1.847a10.166 10.166 0 0 1 .358-3.154c.292-1.071.122-2.486-.405-3.449h-.01Zm2.948-.747c-.885-.334-.932 1.366-.951 1.848l-.17 4.912c-.028.747.179 2.604 1.008 2.918.885.334.932-1.366.951-1.847l.17-4.912c.028-.747-.179-2.604-1.008-2.919Zm37.431-.235c-.405-.747-1.149-.835-1.318.167a30.309 30.309 0 0 0-.471 5.846c.018.756.15 2.594 1.007 2.918.867.324.961-1.366.952-1.847a19.467 19.467 0 0 1 .235-3.636c.198-1.129.151-2.426-.405-3.448Z"/><path fill="#fff" d="M701.886 364.764a36.502 36.502 0 0 1-4.935.677c-1.272.089-.82 4.972.574 4.874a34.868 34.868 0 0 0 4.936-.678c1.366-.285.678-5.139-.575-4.873Zm7.817 1.11c-.075-.57-.188-1.189-.48-1.69-.17-.295-.377-.629-.744-.629h-.236c-.329 0-.518.58-.574.796-.141.54-.141 1.218-.076 1.758.076.57.189 1.189.481 1.69.169.295.377.629.744.629h.235c.33 0 .518-.579.575-.796.141-.54.141-1.218.075-1.758Z"/><path fill="#DB7E04" d="M511.397 473.191s-.311 7.85 0 9.323c.311 1.474.942 5.571 27.004 5.08 26.062-.491 28.257-3.272 28.888-4.097.631-.825 1.883-10.316.781-14.246-1.102-3.93-55.1-5.384-56.673 3.94Z"/><path fill="#C75C04" d="M568.07 469.251c.048 1.896-14.382 5.541-27.861 5.895-13.478.353-28.614-.668-28.614-2.574 0-3.478 15.174-6.013 28.652-6.367 13.479-.354 27.776 1.15 27.823 3.046Zm-49.779 6.877c-.452-.825-1.074-.756-1.319.167a17.435 17.435 0 0 0-.584 5.365c.038.805.142 2.534 1.008 2.918.857.373.97-1.405.951-1.847a10.196 10.196 0 0 1 .358-3.154c.292-1.071.123-2.486-.405-3.449h-.009Zm2.939-.746c-.886-.335-.933 1.365-.952 1.847l-.169 4.912c-.028.747.179 2.604 1.008 2.918.885.334.932-1.366.951-1.847l.17-4.913c.028-.746-.179-2.603-1.008-2.917Zm37.441-.236c-.405-.747-1.149-.835-1.319.167a30.388 30.388 0 0 0-.471 5.846c.019.756.151 2.593 1.008 2.918.866.324.961-1.366.951-1.847a19.553 19.553 0 0 1 .236-3.636c.198-1.129.15-2.426-.405-3.448Z"/><path fill="#fff" d="M555.572 472.975a36.38 36.38 0 0 1-4.936.677c-1.271.089-.819 4.972.575 4.874a34.834 34.834 0 0 0 4.935-.678c1.366-.285.679-5.139-.574-4.873Zm7.817 1.11c-.076-.57-.189-1.189-.481-1.69-.169-.295-.376-.629-.744-.629h-.235c-.33 0-.518.58-.575.796-.141.54-.141 1.218-.075 1.759.075.569.188 1.188.48 1.689.17.295.377.629.744.629h.236c.33 0 .518-.58.574-.796.142-.54.142-1.218.076-1.758Z"/><path fill="#9DC7EB" d="M509.344 457.127s-.311 7.85 0 9.324c.311 1.474.942 5.571 27.004 5.08 26.062-.492 28.257-3.272 28.888-4.098.631-.825 1.884-10.316.782-14.246-1.102-3.93-55.101-5.384-56.674 3.94Z"/><path fill="#608DB5" d="M566.018 453.187c.047 1.896-14.383 5.541-27.861 5.895-13.479.354-28.615-.668-28.615-2.574 0-3.478 15.174-6.013 28.652-6.366 13.479-.354 27.777 1.149 27.824 3.045Zm-49.78 6.868c-.452-.825-1.074-.757-1.319.167a17.462 17.462 0 0 0-.583 5.364c.037.806.141 2.535 1.007 2.918.857.374.97-1.405.952-1.847-.047-1.09.075-2.102.358-3.154.292-1.071.122-2.485-.405-3.448h-.01Zm2.939-.737c-.885-.334-.932 1.366-.951 1.847l-.17 4.912c-.028.747.179 2.604 1.008 2.918.885.334.932-1.365.951-1.847l.17-4.912c.028-.747-.179-2.604-1.008-2.918Zm37.441-.236c-.405-.746-1.149-.835-1.319.167a30.475 30.475 0 0 0-.471 5.846c.019.757.151 2.594 1.008 2.918.867.324.961-1.366.952-1.847a19.457 19.457 0 0 1 .235-3.635c.198-1.13.151-2.427-.405-3.449Z"/><path fill="#fff" d="M553.519 456.901c-1.629.344-3.278.56-4.935.678-1.272.088-.82 4.971.574 4.873a34.868 34.868 0 0 0 4.936-.678c1.365-.285.678-5.138-.575-4.873Zm7.817 1.12c-.075-.57-.188-1.189-.48-1.69-.17-.295-.377-.629-.744-.629h-.236c-.329 0-.518.58-.574.796-.142.541-.142 1.218-.076 1.759.076.57.189 1.189.481 1.69.169.294.376.628.744.628h.235c.33 0 .518-.579.575-.795.141-.541.141-1.219.075-1.759Z"/><path fill="#DB7E04" d="M510.56 441.112s-.311 7.85 0 9.324c.311 1.474.942 5.571 27.004 5.08 26.062-.492 28.257-3.272 28.888-4.097.631-.826 1.884-10.317.782-14.246-1.102-3.93-55.101-5.384-56.674 3.939Z"/><path fill="#FFAD00" d="M566.452 438.813c.048 1.897-13.6 3.901-27.069 4.255-13.479.353-26.015-.885-26.063-2.781-.047-1.896 12.254-4.441 25.733-4.794 13.478-.354 27.352 1.424 27.399 3.32Z"/><path fill="#C75C04" d="M517.463 444.04c-.452-.825-1.074-.756-1.319.167a17.435 17.435 0 0 0-.584 5.365c.038.805.141 2.534 1.008 2.918.857.373.97-1.405.951-1.847a10.196 10.196 0 0 1 .358-3.154c.292-1.071.123-2.486-.405-3.449h-.009Zm2.94-.737c-.886-.334-.933 1.366-.952 1.847l-.169 4.913c-.028.746.179 2.603 1.008 2.918.885.334.932-1.366.951-1.847l.169-4.913c.029-.746-.179-2.603-1.007-2.918Zm37.44-.235c-.405-.747-1.149-.836-1.319.167a30.385 30.385 0 0 0-.471 5.845c.019.757.151 2.594 1.008 2.918.866.325.961-1.365.951-1.847a19.548 19.548 0 0 1 .236-3.635c.197-1.13.15-2.427-.405-3.448Z"/><path fill="#fff" d="M554.735 440.886a36.36 36.36 0 0 1-4.936.678c-1.271.089-.819 4.972.575 4.873a34.868 34.868 0 0 0 4.936-.678c1.365-.284.678-5.138-.575-4.873Zm7.827 1.12c-.076-.569-.189-1.188-.481-1.689-.169-.295-.376-.629-.744-.629h-.235c-.33 0-.518.579-.575.796-.141.54-.141 1.218-.075 1.758.075.57.188 1.189.48 1.69.17.295.377.629.744.629h.236c.329 0 .518-.58.574-.796.142-.54.142-1.218.076-1.759Z"/><path fill="#9DC7EB" d="M735.983 473.043s-.311 7.85 0 9.324c.311 1.474.942 5.571 27.004 5.08 26.062-.492 28.257-3.272 28.888-4.097.631-.826 1.883-10.317.781-14.247-1.102-3.929-55.1-5.384-56.673 3.94Z"/><path fill="#608DB5" d="M792.648 469.104c.047 1.896-14.383 5.541-27.861 5.894-13.479.354-28.615-.668-28.615-2.574 0-3.478 15.174-6.012 28.652-6.366 13.479-.354 27.777 1.149 27.824 3.046Zm-49.771 6.867c-.452-.825-1.074-.756-1.319.167a17.432 17.432 0 0 0-.584 5.364c.038.806.141 2.535 1.008 2.918.857.374.97-1.404.951-1.847-.047-1.09.076-2.102.358-3.153.292-1.071.123-2.486-.405-3.449h-.009Zm2.939-.737c-.886-.334-.933 1.366-.952 1.847l-.169 4.913c-.028.746.179 2.603 1.008 2.918.885.334.932-1.366.951-1.847l.17-4.913c.028-.746-.179-2.603-1.008-2.918Zm37.441-.236c-.405-.746-1.149-.835-1.319.167a30.395 30.395 0 0 0-.471 5.846c.019.757.151 2.594 1.008 2.918.866.324.961-1.365.951-1.847a19.548 19.548 0 0 1 .236-3.635c.197-1.13.15-2.427-.405-3.449Z"/><path fill="#fff" d="M780.148 472.817c-1.629.344-3.278.56-4.935.678-1.272.089-.82 4.972.574 4.873a34.868 34.868 0 0 0 4.936-.678c1.365-.284.678-5.138-.575-4.873Zm7.828 1.12c-.076-.57-.189-1.188-.481-1.69-.169-.294-.376-.628-.744-.628h-.235c-.33 0-.518.579-.575.795-.141.541-.141 1.219-.075 1.759.075.57.188 1.189.48 1.69.17.295.377.629.744.629h.236c.329 0 .518-.58.574-.796.142-.54.142-1.218.076-1.759Z"/><path fill="#DB7E04" d="M733.723 458.021s-.311 7.85 0 9.324c.311 1.473.942 5.57 27.004 5.079 26.062-.491 28.257-3.272 28.888-4.097.631-.825 1.884-10.316.782-14.246-1.102-3.93-55.101-5.384-56.674 3.94Z"/><path fill="#C75C04" d="M790.398 454.081c.047 1.896-14.383 5.541-27.861 5.895-13.479.354-28.615-.668-28.615-2.574 0-3.478 15.174-6.013 28.652-6.367 13.479-.353 27.777 1.15 27.824 3.046Zm-49.781 6.878c-.452-.826-1.074-.757-1.319.167a17.459 17.459 0 0 0-.584 5.364c.038.806.142 2.535 1.008 2.918.857.373.97-1.405.952-1.847a10.166 10.166 0 0 1 .357-3.154c.292-1.071.123-2.486-.405-3.448h-.009Zm2.939-.737c-.885-.334-.933 1.365-.951 1.847l-.17 4.912c-.028.747.179 2.604 1.008 2.918.885.334.932-1.365.951-1.847l.17-4.912c.028-.747-.179-2.604-1.008-2.918Zm37.441-.246c-.405-.747-1.149-.835-1.319.167a30.468 30.468 0 0 0-.471 5.846c.019.756.151 2.594 1.008 2.918.867.324.961-1.366.951-1.847a19.542 19.542 0 0 1 .236-3.635c.198-1.13.151-2.427-.405-3.449Z"/><path fill="#fff" d="M777.899 457.805c-1.629.344-3.278.56-4.935.678-1.272.088-.82 4.971.574 4.873a34.868 34.868 0 0 0 4.936-.678c1.365-.285.678-5.138-.575-4.873Zm7.817 1.11c-.075-.57-.188-1.189-.48-1.69-.17-.295-.377-.629-.744-.629h-.236c-.33 0-.518.58-.575.796-.141.541-.141 1.218-.075 1.759.075.57.189 1.189.481 1.69.169.294.376.629.744.629h.235c.33 0 .518-.58.575-.796.141-.541.141-1.219.075-1.759Z"/><path fill="#9DC7EB" d="M735.776 442.016s-.311 7.85 0 9.324c.311 1.474.942 5.571 27.004 5.08 26.062-.492 28.257-3.272 28.888-4.097.631-.826 1.883-10.317.781-14.246-1.102-3.93-55.1-5.384-56.673 3.939Z"/><path fill="#608DB5" d="M792.449 438.077c.047 1.896-14.382 5.541-27.861 5.894-13.478.354-28.614-.668-28.614-2.574 0-3.478 15.173-6.012 28.652-6.366 13.478-.354 27.776 1.149 27.823 3.046Zm-49.779 6.867c-.452-.825-1.074-.756-1.319.167a17.432 17.432 0 0 0-.584 5.364c.038.806.141 2.535 1.008 2.918.857.374.97-1.405.951-1.847-.047-1.09.076-2.102.358-3.153.292-1.071.123-2.486-.405-3.449h-.009Zm2.94-.737c-.886-.334-.933 1.366-.952 1.847l-.169 4.913c-.028.746.179 2.603 1.008 2.918.885.334.932-1.366.951-1.847l.169-4.913c.029-.747-.178-2.603-1.007-2.918Zm37.44-.236c-.405-.746-1.149-.835-1.319.168a30.378 30.378 0 0 0-.471 5.845c.019.757.151 2.594 1.008 2.918.866.324.961-1.365.951-1.847a19.548 19.548 0 0 1 .236-3.635c.197-1.13.15-2.427-.405-3.449Z"/><path fill="#fff" d="M779.951 441.79c-1.63.344-3.278.56-4.936.678-1.271.089-.819 4.972.575 4.873a34.834 34.834 0 0 0 4.935-.678c1.366-.284.679-5.138-.574-4.873Zm7.817 1.12c-.076-.569-.189-1.189-.481-1.69-.169-.294-.376-.628-.744-.628h-.235c-.33 0-.518.579-.575.795-.141.541-.141 1.219-.075 1.759.075.57.188 1.189.48 1.69.17.295.377.629.744.629h.236c.329 0 .518-.58.574-.796.142-.54.142-1.218.076-1.759Z"/><path fill="#9DC7EB" d="M733.723 425.943s-.311 7.85 0 9.323c.311 1.474.942 5.571 27.004 5.08 26.062-.491 28.257-3.272 28.888-4.097.631-.825 1.884-10.316.782-14.246-1.102-3.93-55.101-5.384-56.674 3.94Z"/><path fill="#608DB5" d="M790.398 422.003c.047 1.896-14.383 5.541-27.861 5.895-13.479.354-28.615-.668-28.615-2.574 0-3.478 15.174-6.013 28.652-6.366 13.479-.354 27.777 1.149 27.824 3.045Zm-49.781 6.877c-.452-.825-1.074-.756-1.319.167a17.469 17.469 0 0 0-.584 5.365c.038.805.142 2.535 1.008 2.918.857.373.97-1.405.952-1.847a10.166 10.166 0 0 1 .357-3.154c.292-1.071.123-2.486-.405-3.449h-.009Zm2.939-.746c-.885-.334-.933 1.365-.951 1.847l-.17 4.912c-.028.747.179 2.604 1.008 2.918.885.334.932-1.365.951-1.847l.17-4.912c.028-.747-.179-2.604-1.008-2.918Zm37.441-.236c-.405-.747-1.149-.835-1.319.167a30.468 30.468 0 0 0-.471 5.846c.019.756.151 2.594 1.008 2.918.867.324.961-1.366.951-1.847a19.537 19.537 0 0 1 .236-3.635c.198-1.13.151-2.427-.405-3.449Z"/><path fill="#fff" d="M777.899 425.727c-1.629.344-3.278.56-4.935.678-1.272.088-.82 4.971.574 4.873a34.868 34.868 0 0 0 4.936-.678c1.365-.285.678-5.138-.575-4.873Zm7.817 1.11c-.075-.57-.188-1.189-.48-1.69-.17-.295-.377-.629-.744-.629h-.236c-.33 0-.518.58-.575.796-.141.54-.141 1.218-.075 1.759.075.57.189 1.188.481 1.69.169.294.376.628.744.628h.235c.33 0 .518-.579.575-.796.141-.54.141-1.218.075-1.758Z"/><path fill="#DB7E04" d="M734.948 409.928s-.311 7.85 0 9.324c.311 1.474.942 5.571 27.004 5.08 26.062-.492 28.256-3.272 28.888-4.097.631-.826 1.883-10.317.781-14.247-1.102-3.929-55.1-5.384-56.673 3.94Z"/><path fill="#FFAD00" d="M790.83 407.629c.048 1.897-13.6 3.901-27.069 4.254-13.479.354-26.016-.884-26.063-2.78-.047-1.896 12.254-4.441 25.733-4.794 13.478-.354 27.352 1.424 27.399 3.32Z"/><path fill="#C75C04" d="M741.842 412.866c-.452-.826-1.074-.757-1.319.167a17.428 17.428 0 0 0-.584 5.364c.038.806.141 2.535 1.008 2.918.857.373.97-1.405.951-1.847-.047-1.09.076-2.102.358-3.154.292-1.071.123-2.485-.405-3.448h-.009Zm2.94-.737c-.886-.334-.933 1.366-.952 1.847l-.169 4.913c-.029.746.179 2.603 1.007 2.918.886.334.933-1.366.952-1.847l.169-4.913c.029-.747-.179-2.604-1.007-2.918Zm37.44-.236c-.405-.746-1.15-.835-1.319.167a30.395 30.395 0 0 0-.471 5.846c.019.757.151 2.594 1.008 2.918.866.324.96-1.366.951-1.847a19.542 19.542 0 0 1 .236-3.635c.197-1.13.15-2.427-.405-3.449Z"/><path fill="#fff" d="M779.113 409.712c-1.63.344-3.278.56-4.936.678-1.271.088-.819 4.972.575 4.873a34.834 34.834 0 0 0 4.935-.678c1.366-.285.679-5.138-.574-4.873Zm7.828 1.12c-.076-.57-.189-1.189-.481-1.69-.169-.294-.377-.628-.744-.628h-.235c-.33 0-.518.579-.575.795-.141.541-.141 1.219-.075 1.759.075.57.188 1.189.48 1.69.17.295.377.629.744.629h.236c.329 0 .518-.58.574-.796.142-.54.142-1.218.076-1.759Z"/><path fill="#D3CCE0" d="M737.631 236.628c-2.845 29.965-19.356 79.1-28.153 104.605a504.483 504.483 0 0 0 52.793-1.778c22.765-31.597 30.611-67.782 33.239-92-14.26-7.084-33.739-12.832-57.889-10.827h.01Z"/><path fill="#4F9522" d="M738.695 305.726s-24.197 34.554-23.038 43.642c1.158 9.088 45.813 17.596 69.012-13.843 23.199-31.44 20.373-66.151 16.605-73.687-3.767-7.535-40.812-26.203-43.327-23.579-2.514 2.623-20.09 48.8-19.242 51.904.734 2.692 37.138 14.58 35.565 18.835-1.563 4.254-33.277-6.396-35.565-3.272h-.01Z"/><path fill="#2D6309" d="M536.519 352.964s4.351-5.6 7.299-3.596c2.948 2.004-1.413 10.11-1.413 10.11l-5.886-6.504v-.01Z"/><path fill="#D3CCE0" d="M720.263 199.45s-31.082 71.889-75.351 93.169c-1.573 7.202-1.253 14.895-1.253 14.895l-5.962 3.115s1.253 15.395 14.129 25.544c.442 0 56.833-32.422 79.749-126.78-3.456-4.539-11.302-9.943-11.302-9.943h-.01Z"/><path fill="#B8B1C7" d="M646.362 305.726s54.432-36.028 75.154-101.855c-6.594 54.037-46.388 89.083-75.154 101.855Z"/><path fill="#B8B1C7" d="M646.362 320.787s64.482-42.738 75.154-104.88c-3.768 64.274-52.04 98.327-75.154 104.88Z"/><path fill="#232A32" d="M790.998 210.385c-3.004-2.751-8.354-4.46-11.877-2.289a8.194 8.194 0 0 0-1.027-1.198c-2.109-1.956-7.431-4.058-11.189-3.351-2.977-2.132-8.345-3.979-11.802-2.652-4.21-3.822-11.444-5.66-14.562-.472-.254-.285-.508-.57-.782-.835-4.031-3.891-13.365-7.546-16.737-.875-.603 1.199 3.589 3.419 4.229 2.152 3.005-5.934 10.408-1.926 11.887 3.193.96 3.331.452 10.67-3.834 11.505-1.695.334 1.988 2.997 3.24 2.751 3.636-.707 5.115-5.001 5.313-8.498a12.8 12.8 0 0 0-.688-4.874c.358 0 .631-.108.716-.373.961-3.105 3.155-5.089 6.329-4.136 1.168.353 2.101 1.041 2.826 1.935-.461.58-.801 1.317-.998 2.221-.208.943 1.375 1.984 2.675 2.358.018.216.037.442.047.658.028 5.138-4.314 9.009-8.986 9.304-1.592.098 1.978 2.83 3.24 2.751 7.639-.481 12.179-8.597 8.732-15.356.904-.727 2.109-1.071 3.466-.973.932.069 2.157.599 3.193 1.376-.594.53-1.065 1.228-1.319 2.171-.301 1.11 2.082 2.436 3.4 2.515-.047.54-.141 1.081-.273 1.602-.857 3.497-3.165 6.356-5.962 8.37-1.111.796 2.731 3.36 3.862 2.545 4.681-3.38 8.486-9.953 5.594-15.258a5.921 5.921 0 0 1 1.715-.275c3.306-.049 4.992 2.063 5.208 5.178.255 3.654-.084 7.732-3.4 9.756-1.092.668 2.647 3.281 3.862 2.544 3.334-2.033 4.578-6.808 3.899-11.033.019-.02.038-.039.057-.069.744-1.444 1.799-2.397 3.325-2.741 3.598-.825 5.001 1.857 5.067 4.863.057 2.673-.443 6.819-2.788 8.42-1.102.757 2.703 3.341 3.862 2.545 4.427-3.036 4.229-12.055.48-15.494v.039Z"/></g><defs><clipPath id="a"><path fill="#fff" d="M0 0h860v480H0z"/></clipPath></defs></svg>