<svg xmlns="http://www.w3.org/2000/svg" fill="none" viewBox="0 0 860 480"><g clip-path="url(#a)"><path fill="#29313A" d="M0 0h860v480H0z"/><path fill="#1E242C" d="M1295 278.25c0 298.924-242.33 541.25-541.25 541.25-298.924 0-541.25-242.326-541.25-541.25S454.826-263 753.75-263C1052.67-263 1295-20.674 1295 278.25Z"/><path fill="#0B0F14" d="M1046.5 174.5c0 192.747-156.253 349-349 349s-349-156.253-349-349 156.253-349 349-349 349 156.253 349 349Z"/><path fill="#3F4A59" d="M260 68h218v415H260V68Z"/><path fill="#2C3640" d="M359.139 68.347h7.008v262.644h-7.008V68.347Zm0 347.43h7.008v67.485h-7.008v-67.485ZM478 68h213v415H478V68ZM737 0h213v480H737V0Z"/><path fill="#212A33" d="M737 327h172v9H737v-9Zm0 85h172v9H737v-9Zm0-149h172v9H737v-9Zm0-133h172v9H737v-9Zm0-64h172v9H737v-9Zm0 128h172v9H737v-9Zm-477-63h422v10H260v-10Zm0 280h422v10H260v-10Zm0-84h422v9H260v-9Zm0-64h422v9H260v-9Zm0-69h422v9H260v-9Z"/><path fill="#2C3640" d="M450 336h28v75h-28v-75Z"/><path fill="#3F4A59" d="M240.514 336.378h209.715v74.912H240.514v-74.912Z"/><path fill="#2C3640" d="M338.52 336.378h8.749v74.912h-8.749v-74.912Z"/><path fill="#A4DBCF" d="M419.675 99.41a9.379 9.379 0 1 1 0-18.758c5.18 0 9.379 4.2 9.379 9.38a9.379 9.379 0 0 1-9.379 9.379Z"/><path fill="#FFAD00" d="M390.848 99.41c-5.18 0-9.38-4.198-9.38-9.378s4.2-9.38 9.38-9.38a9.38 9.38 0 0 1 0 18.759Z"/><path fill="#A4DBCF" d="M305.431 99.41a9.38 9.38 0 1 1 .001-18.758 9.38 9.38 0 0 1-.001 18.759Z"/><path fill="#FFAD00" d="M276.603 99.411a9.379 9.379 0 1 1 0-18.758 9.379 9.379 0 1 1 0 18.758Z"/><path fill="#A4DBCF" d="M419.675 168.14a9.379 9.379 0 0 1-9.379-9.379 9.379 9.379 0 0 1 9.379-9.379 9.379 9.379 0 0 1 9.379 9.379 9.379 9.379 0 0 1-9.379 9.379Z"/><path fill="#FFAD00" d="M390.848 168.14c-5.18 0-9.38-4.199-9.38-9.379s4.2-9.379 9.38-9.379a9.38 9.38 0 0 1 0 18.758Z"/><path fill="#A4DBCF" d="M305.431 168.14a9.38 9.38 0 1 1 .001-18.759 9.38 9.38 0 0 1-.001 18.759Z"/><path fill="#FFAD00" d="M276.603 168.14a9.379 9.379 0 0 1-9.379-9.379 9.379 9.379 0 0 1 9.379-9.379 9.379 9.379 0 0 1 9.379 9.379 9.379 9.379 0 0 1-9.379 9.379Z"/><path fill="#A4DBCF" d="M419.36 230.913a9.38 9.38 0 1 1 .001-18.759 9.38 9.38 0 0 1-.001 18.759Z"/><path fill="#FFAD00" d="M390.533 230.913a9.379 9.379 0 0 1-9.379-9.379 9.379 9.379 0 0 1 9.379-9.379 9.379 9.379 0 0 1 9.379 9.379 9.379 9.379 0 0 1-9.379 9.379Z"/><path fill="#A4DBCF" d="M305.115 230.913a9.379 9.379 0 0 1-9.379-9.379 9.379 9.379 0 0 1 9.379-9.379 9.379 9.379 0 0 1 9.379 9.379 9.379 9.379 0 0 1-9.379 9.379Z"/><path fill="#FFAD00" d="M276.304 230.913c-5.18 0-9.38-4.199-9.38-9.379s4.2-9.379 9.38-9.379a9.38 9.38 0 0 1 0 18.758Z"/><path fill="#A4DBCF" d="M417.649 297.796a9.379 9.379 0 0 1-9.379-9.379 9.379 9.379 0 0 1 9.379-9.379 9.379 9.379 0 0 1 9.379 9.379 9.379 9.379 0 0 1-9.379 9.379Z"/><path fill="#FFAD00" d="M388.822 297.796a9.379 9.379 0 0 1-9.379-9.379 9.379 9.379 0 0 1 9.379-9.379 9.379 9.379 0 0 1 9.379 9.379 9.379 9.379 0 0 1-9.379 9.379Zm384.557 0a9.379 9.379 0 0 1-9.379-9.379 9.379 9.379 0 0 1 9.379-9.379 9.379 9.379 0 0 1 9.379 9.379 9.379 9.379 0 0 1-9.379 9.379Zm0-130.038a9.379 9.379 0 0 1-9.379-9.379 9.379 9.379 0 0 1 9.379-9.379 9.379 9.379 0 0 1 9.379 9.379 9.379 9.379 0 0 1-9.379 9.379Zm0-68A9.379 9.379 0 0 1 764 90.379a9.379 9.379 0 1 1 18.758.001 9.379 9.379 0 0 1-9.379 9.378Z"/><path fill="#A4DBCF" d="M303.42 297.796a9.379 9.379 0 0 1-9.379-9.379 9.379 9.379 0 0 1 9.379-9.379 9.379 9.379 0 0 1 9.379 9.379 9.379 9.379 0 0 1-9.379 9.379Z"/><path fill="#FFAD00" d="M274.592 297.796a9.379 9.379 0 0 1-9.379-9.379 9.379 9.379 0 0 1 9.379-9.379 9.379 9.379 0 0 1 9.379 9.379 9.379 9.379 0 0 1-9.379 9.379Z"/><path fill="#A4DBCF" d="M416.299 446.436a9.379 9.379 0 0 1-9.379-9.379 9.379 9.379 0 0 1 9.379-9.379 9.379 9.379 0 0 1 9.379 9.379 9.379 9.379 0 0 1-9.379 9.379Z"/><path fill="#FFAD00" d="M387.471 446.436c-5.18 0-9.38-4.199-9.38-9.379s4.2-9.379 9.38-9.379a9.38 9.38 0 0 1 0 18.758Z"/><path fill="#A4DBCF" d="M302.054 446.436c-5.18 0-9.38-4.199-9.38-9.379s4.2-9.379 9.38-9.379a9.38 9.38 0 0 1 0 18.758Z"/><path fill="#FFAD00" d="M273.226 446.436a9.379 9.379 0 0 1-9.379-9.379 9.379 9.379 0 0 1 9.379-9.379 9.379 9.379 0 0 1 9.379 9.379 9.379 9.379 0 0 1-9.379 9.379Z"/><path fill="#6E88A1" d="M543 57h16v426h-16V57Z"/><path fill="#6E88A1" d="M260 57h436v11H260V57Z"/><path fill="#5E748A" d="M689 57h9v426h-9V57Zm-138-.133h7.863v426.395H551V56.867Z"/><path fill="#0063A2" d="m192.701 283.12-18.203 37.892-32.264-16.102 23.545-30.328 26.922 8.538Z"/><path fill="#00B0F3" d="M189.566 388.585s18.503 7.504 26.006 0c7.503-7.503 10.504-39.767 28.017-60.776 17.513-21.009 50.527-21.504 50.527-21.504l6.753 38.521-18.383 5.748 20.889 6.003-7.713 30.568-27.297 2.701s-9.844 47.225-50.947 41.118c-41.103-6.108-27.837-42.379-27.837-42.379h-.015Z"/><path fill="#0063A2" d="M189.551 388.646s18.503 7.503 26.006 0c2.461-2.461 4.442-7.608 6.603-14.136 7.773 20.814 31.003 26.201 42.003 27.582-6.003 13.536-19.493 32.984-46.775 28.917-41.103-6.107-27.837-42.378-27.837-42.378v.015Z"/><path fill="#A4DBCF" d="M189.821 375.485c1.486 0 19.764.525 17.258 49.791-2.506 49.267-26.262 45.02-26.262 45.02l9.004-94.811Z"/><path fill="#00B0F3" d="M184.118 483.262H16.001s23.004-152.301 126.054-184.82l38.522 17.512s38.611 73.517 3.541 167.308Z"/><path fill="#0063A2" d="M188.051 471.902c-44.689-44.854-41.208-121.672-41.208-121.672s20.724-10.49 35.491-1.486c3.976 10.669 9.424 18.278 14.376 23.5 3.706 26.727 3.526 61.227-8.659 99.658Z"/><path fill="#0063A2" d="M165.045 316.119c-10.445-3.271-20.184-8.553-28.678-15.711a132.719 132.719 0 0 1 5.703-1.966l38.521 17.512s.676 1.276 1.741 3.692c-3.226-.33-6.438-.81-9.589-1.486 5.057 90.43-24.656 145.653-37.576 165.117h-10.52c41.133-78.334 42.829-138.81 40.398-167.143v-.015Z"/><path fill="#E88000" d="M243.349 118.379s-5.898-21.7-6.453-22.27c-41.433-8.478-68.58 11.81-68.58 11.81v15.502l75.033-5.027v-.015Z"/><path fill="#FFAD00" d="M260.231 134.18s-8.073-28.332-8.823-29.082c-56.65-11.075-93.791 15.412-93.791 15.412v20.228l102.599-6.573.015.015Z"/><path fill="#00B0F3" d="M274.367 127.998s3.872 130.452 9.124 156.758c-.75 8.689-114.049 10.189-131.682-7.818-1.125-11.63-6.753-142.187-6.753-145.188-.375-7.879 95.547-28.888 129.311-3.752Z"/><path fill="#0063A2" d="M151.809 276.938c-1.125-11.63-6.753-142.187-6.753-145.188-.075-1.426 3.016-3.272 8.284-5.192 1.71 9.394 3.016 19.478 3.706 25.361 26.892-8.614 60.222 1.56 68.67 34.214 14.632 56.545-36.766 70.546-36.766 70.546s1.126 9.754 0 19.508c0 0 27.012 5.628 88.163 4.127-.075-2.701.706-22.375 1.756-46.61 1.336 22.69 2.911 42.453 4.622 51.052-.75 8.689-114.049 10.189-131.682-7.818Z"/><path fill="#FFAD00" d="M130.731 211.532c-5.644-26.125 10.192-51.714 35.369-57.153 25.178-5.439 50.164 11.331 55.808 37.457 5.644 26.126-10.192 51.714-35.37 57.153-25.177 5.439-50.163-11.331-55.807-37.457Z"/><path fill="#E88000" d="M140.531 208.773c-3.809-17.635 7.78-35.103 25.885-39.014 18.106-3.911 35.872 7.215 39.682 24.85 3.81 17.636-7.779 35.104-25.885 39.015-18.106 3.911-35.872-7.215-39.682-24.851Z"/><path fill="#FFAD00" d="M143.123 206.373c-3.18-14.72 6.779-29.36 22.244-32.701 15.465-3.341 30.579 5.883 33.759 20.603 3.18 14.719-6.779 29.36-22.244 32.701-15.465 3.341-30.579-5.884-33.759-20.603Z"/><path fill="#F5F2F9" d="m268.861 215.786-32.264-1.501s-4.682-59.456 16.132-57.775c20.814 1.681 16.132 59.276 16.132 59.276Z"/><path fill="#232A32" d="M259.36 201.53c0-6.393 3.497-11.57 7.819-11.57.585 0 1.17.105 1.725.285.676 9.319.391 18.068.166 22.495a5.333 5.333 0 0 1-1.876.345c-4.322 0-7.819-5.177-7.819-11.57l-.015.015Z"/><path fill="#F5F2F9" d="M277.114 237.17s-12.875.376-20.889-6.257c-4.997 11.375-3.496 23.26-3.496 23.26s10.249 6.122 22.134 6.873c-.63-12.501 2.251-23.891 2.251-23.891v.015Z"/><path fill="#D3CCE0" d="M274.862 261.046a35.63 35.63 0 0 1-2.866-.3c-.285-2.491-.36-4.997-.375-7.308 0-5.133.315-11.03 1.771-16.433 2.25.195 3.721.165 3.721.165s-2.881 11.375-2.251 23.891v-.015Zm-12.814-26.697a33.086 33.086 0 0 0 6.227 1.906c-1.74 6.137-3.721 14.736-4.232 22.735a59.1 59.1 0 0 1-7.233-2.747c1.081-6.842 2.777-15.246 5.238-21.909v.015Z"/><path fill="#0063A2" d="M164.79 368.913c-9.921 0-17.963-8.378-17.963-18.713s8.042-18.714 17.963-18.714c9.921 0 17.963 8.379 17.963 18.714 0 10.335-8.042 18.713-17.963 18.713Z"/><path fill="#00B0F3" d="m419.675 315.579 6.003 39.392-23.635 3.751 23.635 10.505-14.632 44.644-35.265-2.251s-42.018 76.158-120.802 79.535c-78.784 3.376-107.672-121.178-102.795-141.061 4.878-19.884 23.005-12.006 24.266-3.002 0 0 19.553 76.534 80.375 63.403 60.821-13.131 80.705-78.034 101.714-89.664 21.009-11.63 61.151-5.252 61.151-5.252h-.015Z"/><path fill="#0063A2" d="M248.257 411.831c-7.698 14.811-11.03 31.483-12.455 48.036-.871 10.054-.556 20.003.99 29.757-9.244-2.055-17.648-5.972-25.271-11.224.24-6.918.96-13.791 2.176-20.529 3.001-16.717 9.979-32.174 18.008-47.001 5.102 1.081 10.609 1.471 16.552.961Zm-56.935-31.634c3.872 5.943 8.599 11.87 14.256 16.957-12.14 9.349-22.795 20.454-30.883 34.245-.27.465-.54.946-.811 1.426-4.426-8.494-8.163-17.243-11.224-25.766 8.403-10.055 18.082-19.059 28.662-26.862Zm97.617 91.375c-6.152-17.798-9.154-36.796-8.673-55.644.12-4.698.255-9.424.615-14.136 5.612-2.927 10.775-6.318 15.562-10.025.72 23.68 8.673 47.646 17.902 68.64a176.569 176.569 0 0 0 4.802 10.039c-7.743 4.922-16.267 9.334-25.541 12.831a137.929 137.929 0 0 1-4.667-11.69v-.015Zm41.149-71.041c-3.872-11-6.618-22.9-7.864-35.01 6.963-8.824 12.891-17.603 18.263-25.121a100.34 100.34 0 0 0-.645 6.768c-.946 16.072 1.906 32.774 9.529 47.075 5.432 10.19 12.515 18.818 20.634 26.397-3.797 5.522-9.484 13.085-16.987 21.219-10.085-12.215-17.678-26.397-22.93-41.328ZM263.472 329.7s17.633 2.251 19.388 2.747c1.756.495-2.656 24.64-2.656 24.64l-19.853 5.508s6.377 14.136 6.122 21.129c5.883-7.503 2.626-20.634 2.626-20.634l12.756-4.127s4.877-25.076 4.757-27.477c-6.258-1.906-21.129-5.537-21.129-7.158-2.251.63-1.996 5.372-1.996 5.372h-.015Z"/></g><defs><clipPath id="a"><path fill="#fff" d="M0 0h860v480H0z"/></clipPath></defs></svg>