<svg xmlns="http://www.w3.org/2000/svg" fill="none" viewBox="0 0 241 44">
  <circle cx="21.87" cy="22.07" r="14.26" fill="#D9D9D9"/>
  <circle cx="21.91" cy="22.11" r="21.39" fill="url(#a)"/>
  <circle cx="10.03" cy="22.11" r="3.56" fill="#fff" transform="rotate(-180 10.03 22.11)"/>
  <path fill="#fff" d="M36.17 43.5H7.65l14.26-22.58 14.26 22.57Z"/>
  <path fill="#FF4F84" d="M240.27 9.06v3.26h-4.3V9.06h4.3Zm-4.02 6.22h3.7v14.17h-3.7V15.28Zm-13.94 14.49c-1.4 0-2.69-.3-3.85-.91a7.32 7.32 0 0 1-2.74-2.6 7.45 7.45 0 0 1-1-3.87c0-1.5.35-2.8 1.03-3.91a7.06 7.06 0 0 1 2.77-2.57 8.37 8.37 0 0 1 4-.94 6.9 6.9 0 0 1 3.93 1c1 .65 1.74 1.53 2.2 2.65a9.9 9.9 0 0 1 .28 6.33 7.95 7.95 0 0 1-1.23 2.4 6.25 6.25 0 0 1-2.16 1.77c-.9.43-1.97.65-3.23.65Zm1.2-2.85c1.12 0 2.1-.19 2.9-.57a4.34 4.34 0 0 0 1.9-1.6 4.3 4.3 0 0 0 .65-2.36c0-.97-.23-1.8-.69-2.46a4 4 0 0 0-1.88-1.54 6.95 6.95 0 0 0-2.88-.54 5.1 5.1 0 0 0-3.68 1.26 4.28 4.28 0 0 0-1.31 3.28c0 .9.2 1.7.63 2.4.41.66 1 1.18 1.74 1.56a5.8 5.8 0 0 0 2.62.57Zm5.45-11.63h3.7v14.17h-3.45l-.08-.54a44.6 44.6 0 0 1-.17-3.11V15.29ZM212.25 26.2v3.26h-4.3V26.2h4.3Z"/>
  <path fill="#fff" d="M195.55 15.28h11v2.88h-11v-2.88Zm3.65-3.88h3.7v18.05h-3.7V11.4Zm-5.37 12.47c-.1 1.23-.5 2.3-1.2 3.2a6.44 6.44 0 0 1-2.85 2.05c-1.21.45-2.66.68-4.33.68-1.75 0-3.32-.27-4.7-.83a7.53 7.53 0 0 1-3.26-2.48 6.89 6.89 0 0 1-1.17-4.08c0-1.61.4-2.97 1.17-4.07a7.45 7.45 0 0 1 3.25-2.51 12.3 12.3 0 0 1 4.7-.86c1.68 0 3.12.24 4.31.71a6.35 6.35 0 0 1 2.83 2c.7.88 1.11 1.93 1.22 3.17h-3.39a4.07 4.07 0 0 0-1.8-2.23 5.97 5.97 0 0 0-3.16-.8c-1 0-1.9.17-2.71.52-.8.34-1.45.85-1.94 1.54a4.26 4.26 0 0 0-.71 2.53c0 1.01.23 1.86.71 2.54a4.41 4.41 0 0 0 1.94 1.51 7.3 7.3 0 0 0 2.7.49 6 6 0 0 0 3.26-.8 3.97 3.97 0 0 0 1.74-2.28h3.4Zm-30.53 5.9c-1.42 0-2.7-.3-3.86-.91a7.33 7.33 0 0 1-2.74-2.6 7.46 7.46 0 0 1-1-3.87c0-1.5.35-2.8 1.03-3.91a7.05 7.05 0 0 1 2.77-2.57 8.37 8.37 0 0 1 3.99-.94c1.63 0 2.95.33 3.94 1 1 .65 1.73 1.53 2.2 2.65a9.91 9.91 0 0 1 .28 6.33 7.95 7.95 0 0 1-1.23 2.4 6.25 6.25 0 0 1-2.17 1.77c-.89.43-1.96.65-3.22.65Zm1.19-2.85c1.12 0 2.09-.19 2.9-.57a4.34 4.34 0 0 0 1.89-1.6 4.3 4.3 0 0 0 .66-2.36c0-.97-.23-1.8-.69-2.46a4 4 0 0 0-1.88-1.54 6.96 6.96 0 0 0-2.88-.54 5.1 5.1 0 0 0-3.68 1.26 4.27 4.27 0 0 0-1.31 3.28c0 .9.2 1.7.63 2.4.41.66 1 1.18 1.74 1.56.75.38 1.63.57 2.62.57Zm5.44-11.63h3.71v14.17h-3.45l-.08-.54a47.3 47.3 0 0 1-.18-3.11V15.29ZM146.08 29.8a7.27 7.27 0 0 1-3.22-.66 6.31 6.31 0 0 1-2.14-1.76 8.76 8.76 0 0 1-1.63-5c0-1.04.13-2 .38-2.9.26-.9.67-1.68 1.22-2.34a5.52 5.52 0 0 1 2.14-1.6 8.3 8.3 0 0 1 3.25-.57c1.43 0 2.71.32 3.85.94a7.04 7.04 0 0 1 2.71 2.63 7.14 7.14 0 0 1 1.03 3.85 7.4 7.4 0 0 1-1.03 3.93 7.1 7.1 0 0 1-2.73 2.57 8 8 0 0 1-3.83.91Zm-1.2-2.88a5.7 5.7 0 0 0 2.63-.57 4.1 4.1 0 0 0 1.74-1.57 4.5 4.5 0 0 0 .63-2.4c0-1.36-.44-2.47-1.32-3.3-.85-.84-2.08-1.26-3.68-1.26-1 0-1.92.18-2.76.55a4.5 4.5 0 0 0-1.94 1.56 4.11 4.11 0 0 0-.71 2.46c0 .9.22 1.7.65 2.4a4.41 4.41 0 0 0 1.88 1.56c.82.38 1.78.57 2.88.57Zm-9.12-11.63h3.54l.17 3.76v16.11h-3.71V15.3Zm-7.46-5.71h3.7v19.88h-3.7V9.58Zm-6.7 15.17h3.6a5.07 5.07 0 0 1-1.23 2.6 6.49 6.49 0 0 1-2.65 1.8c-1.12.43-2.5.65-4.1.65-1.81 0-3.41-.28-4.8-.85a7.42 7.42 0 0 1-3.25-2.54 6.74 6.74 0 0 1-1.17-4 6.86 6.86 0 0 1 4.3-6.55c1.38-.6 2.97-.89 4.8-.89 1.86 0 3.41.3 4.65.89a5.68 5.68 0 0 1 2.73 2.68c.61 1.18.87 2.69.77 4.53h-13.51a4.16 4.16 0 0 0 2.62 3.37c.78.34 1.7.5 2.77.5 1.17 0 2.15-.2 2.93-.59.8-.42 1.31-.95 1.54-1.6Zm-4.67-6.96c-1.37 0-2.49.3-3.34.92a3.96 3.96 0 0 0-1.66 2.2h9.64a3 3 0 0 0-1.36-2.26c-.8-.57-1.9-.86-3.28-.86Zm-10.29-2.51-7.36 7.9-5.3 6.27h-4.54l7.67-8.3 5.02-5.87h4.5Zm-17.2 0h4.53l5.37 5.82 7.7 8.35h-4.54L97 23.27l-7.56-7.99Zm-2.23-6.22v3.26h-4.3V9.06h4.3Zm-4.02 6.22h3.7v14.17h-3.7V15.28ZM72.64 29.8a7.27 7.27 0 0 1-3.22-.66 6.32 6.32 0 0 1-2.14-1.76 7.88 7.88 0 0 1-1.22-2.43 8.8 8.8 0 0 1-.4-2.56c0-1.05.12-2.02.37-2.91.26-.9.67-1.68 1.22-2.34a5.51 5.51 0 0 1 2.14-1.6 8.3 8.3 0 0 1 3.25-.57c1.43 0 2.71.32 3.85.94a7.04 7.04 0 0 1 2.71 2.63 7.15 7.15 0 0 1 1.03 3.85 7.4 7.4 0 0 1-1.03 3.93 7.1 7.1 0 0 1-2.73 2.57 8 8 0 0 1-3.83.91Zm-1.2-2.88a5.7 5.7 0 0 0 2.63-.57 4.1 4.1 0 0 0 1.74-1.57 4.5 4.5 0 0 0 .63-2.4c0-1.36-.44-2.47-1.32-3.3-.85-.84-2.08-1.26-3.67-1.26-1.01 0-1.93.18-2.77.55-.82.36-1.46.88-1.94 1.56a4.11 4.11 0 0 0-.71 2.46c0 .9.22 1.7.65 2.4a4.4 4.4 0 0 0 1.89 1.56c.81.38 1.77.57 2.88.57ZM62.33 15.3h3.54l.17 3.76v16.11h-3.71V15.3Z"/>
  <defs>
    <linearGradient id="a" x1="7.7" x2="31.76" y1="6.12" y2="33.75" gradientUnits="userSpaceOnUse">
      <stop stop-color="#FA366E"/>
      <stop offset="1" stop-color="#171DA3"/>
    </linearGradient>
  </defs>
</svg>