<svg width="300" height="260" viewBox="0 0 300 260" fill="none" xmlns="http://www.w3.org/2000/svg"><rect width="300" height="260" rx="16" fill="#1e242c"/><path d="M16 75.5c0-.2761.2239-.5.5-.5h267c.27600000000001.0.5.2239.5.5v0c0 .2761-.22399999999999.5-.5.5H16.5c-.2761.0-.5-.2239-.5-.5v0z" fill="#29313a"/><path d="M16 150.5c0-.27600000000001.2239-.5.5-.5h267C283.776 150 284 150.224 284 150.5v0C284 150.776 283.776 151 283.5 151H16.5C16.2239 151 16 150.776 16 150.5v0z" fill="#29313a"/><path d="M16 227.5c0-.27600000000001.2239-.5.5-.5h267C283.776 227 284 227.224 284 227.5v0C284 227.776 283.776 228 283.5 228H16.5C16.2239 228 16 227.776 16 227.5v0z" fill="#29313a"/><path d="M16 28c0-2.7614 2.2386-5 5-5H85C87.7614 23 90 25.2386 90 28v0C90 30.7614 87.7614 33 85 33H21c-2.7614.0-5-2.2386-5-5v0z" fill="#3e4854"/><path d="M16 122c0-8.837 7.1634-16 16-16v0c8.8366.0 16 7.163 16 16v0C48 130.837 40.8366 138 32 138v0C23.1634 138 16 130.837 16 122v0z" fill="#1969ff"/><path d="M16 197C16 188.163 23.1634 181 32 181v0C40.8366 181 48 188.163 48 197v0C48 205.837 40.8366 213 32 213v0C23.1634 213 16 205.837 16 197v0z" fill="#96e4ff"/><path d="M264 24C264 20.2725 264 18.4087 264.609 16.9385 265.421 14.9783 266.978 13.4209 268.939 12.609 270.409 12 272.272 12 276 12v0C279.728 12 281.591 12 283.061 12.609 285.022 13.4209 286.579 14.9783 287.391 16.9385 288 18.4087 288 20.2725 288 24v0C288 27.7275 288 29.5913 287.391 31.0615 286.579 33.0217 285.022 34.5791 283.061 35.391 281.591 36 279.728 36 276 36v0C272.272 36 270.409 36 268.939 35.391 266.978 34.5791 265.421 33.0217 264.609 31.0615 264 29.5913 264 27.7275 264 24v0z" fill="#2c353f"/><path d="M273 24C273 22.3431 274.343 21 276 21v0C277.657 21 279 22.3431 279 24v0C279 25.6569 277.657 27 276 27v0C274.343 27 273 25.6569 273 24v0z" fill="#3e4854"/><path d="M16 92C16 89.7909 17.7909 88 20 88H63C65.2091 88 67 89.7909 67 92v0C67 94.2091 65.2091 96 63 96H20C17.7909 96 16 94.2091 16 92v0z" fill="#29313a"/><path d="M65 114C65 111.791 66.7909 110 69 110h98c2.209.0 4 1.791 4 4v0c0 2.209-1.791 4-4 4H69C66.7909 118 65 116.209 65 114v0z" fill="#3e4854"/><path d="M65 130C65 127.791 66.7909 126 69 126H187c2.209.0 4 1.791 4 4v0c0 2.209-1.791 4-4 4H69C66.7909 134 65 132.209 65 130v0z" fill="#3e4854"/><path d="M177 114c0-2.209 1.791-4 4-4h37c2.209.0 4 1.791 4 4v0c0 2.209-1.791 4-4 4H181c-2.209.0-4-1.791-4-4v0z" fill="#12b886"/><path d="M228 114c0-2.209 1.791-4 4-4h48c2.209.0 4 1.791 4 4v0c0 2.209-1.791 4-4 4H232c-2.209.0-4-1.791-4-4v0z" fill="#3e4854"/><path d="M16 167c0-2.209 1.7909-4 4-4H63C65.2091 163 67 164.791 67 167v0C67 169.209 65.2091 171 63 171H20c-2.2091.0-4-1.791-4-4v0z" fill="#29313a"/><path d="M65 189C65 186.791 66.7909 185 69 185h74c2.209.0 4 1.791 4 4v0c0 2.209-1.791 4-4 4H69C66.7909 193 65 191.209 65 189v0z" fill="#3e4854"/><path d="M65 205C65 202.791 66.7909 201 69 201H230c2.209.0 4 1.791 4 4v0c0 2.209-1.791 4-4 4H69C66.7909 209 65 207.209 65 205v0z" fill="#3e4854"/><path d="M153 189c0-2.209 1.791-4 4-4h19c2.209.0 4 1.791 4 4v0c0 2.209-1.791 4-4 4H157c-2.209.0-4-1.791-4-4v0z" fill="#ff646d"/><path d="M186 189c0-2.209 1.791-4 4-4h90c2.209.0 4 1.791 4 4v0c0 2.209-1.791 4-4 4H190c-2.209.0-4-1.791-4-4v0z" fill="#3e4854"/><path d="M62 56c0-2.2091 1.7909-4 4-4H90C92.2091 52 94 53.7909 94 56v0C94 58.2091 92.2091 60 90 60H66c-2.2091.0-4-1.7909-4-4v0z" fill="#3e4854"/><path d="M104 56c0-2.2091 1.791-4 4-4h24c2.209.0 4 1.7909 4 4v0c0 2.2091-1.791 4-4 4H108c-2.209.0-4-1.7909-4-4v0z" fill="#3e4854"/><path d="M16 243c0-2.209 1.7909-4 4-4H63C65.2091 239 67 240.791 67 243v0C67 245.209 65.2091 247 63 247H20c-2.2091.0-4-1.791-4-4v0z" fill="#29313a"/><path d="M16 55c0-4.4183 3.5817-8 8-8H44c4.4183.0 8 3.5817 8 8v1c0 4.4183-3.5817 8-8 8H24c-4.4183.0-8-3.5817-8-8V55z" fill="#9488f0"/><path opacity=".4" d="M25 55.5c0-1.3807 1.1193-2.5 2.5-2.5h13c1.3807.0 2.5 1.1193 2.5 2.5v0c0 1.3807-1.1193 2.5-2.5 2.5h-13c-1.3807.0-2.5-1.1193-2.5-2.5v0z" fill="#fff"/></svg>