<svg width="300" height="260" viewBox="0 0 300 260" fill="none" xmlns="http://www.w3.org/2000/svg"><path d="M0 25.6C0 16.6392.0 12.1587 1.7439 8.73615 3.27787 5.72556 5.72556 3.27787 8.73615 1.7439 12.1587.0 16.6392.0 25.6.0H274.4C283.361.0 287.841.0 291.264 1.7439 294.274 3.27787 296.722 5.72556 298.256 8.73615 3e2 12.1587 3e2 16.6392 3e2 25.6V54.4C3e2 63.3608 3e2 67.8413 298.256 71.2638 296.722 74.2744 294.274 76.7221 291.264 78.2561 287.841 80 283.361 80 274.4 80H25.6c-8.9608.0-13.4413.0-16.86385-1.7439C5.72556 76.7221 3.27787 74.2744 1.7439 71.2638.0 67.8413.0 63.3608.0 54.4V25.6z" fill="#1e242c"/><path d="M30 205.6C30 196.639 30 192.159 31.7439 188.736 33.2779 185.726 35.7256 183.278 38.7362 181.744 42.1587 180 46.6392 180 55.6 180H244.4C253.361 180 257.841 180 261.264 181.744 264.274 183.278 266.722 185.726 268.256 188.736 270 192.159 270 196.639 270 205.6v28.8C270 243.361 270 247.841 268.256 251.264 266.722 254.274 264.274 256.722 261.264 258.256 257.841 260 253.361 260 244.4 260H55.6C46.6392 260 42.1587 260 38.7362 258.256 35.7256 256.722 33.2779 254.274 31.7439 251.264 30 247.841 30 243.361 30 234.4V205.6z" fill="#29313a"/><g clip-path="url(#clip0_657_4833)"><rect x="99" y="106" width="102" height="48" rx="8" fill="#9488f0"/><path d="M134 118c0-1.657 1.34299999999999-3 3-3h29c1.65700000000001.0 3 1.343 3 3v0c0 1.657-1.34299999999999 3-3 3H137C135.343 121 134 119.657 134 118v0z" fill="#fff" fill-opacity=".3"/><path d="M121 118c0-1.657 1.343-3 3-3v0c1.657.0 3 1.343 3 3v0c0 1.657-1.343 3-3 3v0c-1.657.0-3-1.343-3-3v0z" fill="#fff" fill-opacity=".2"/><path d="M121 106c0-1.657 1.343-3 3-3v0c1.657.0 3 1.343 3 3v0c0 1.657-1.343 3-3 3v0c-1.657.0-3-1.343-3-3v0z" fill="#fff" fill-opacity=".2"/><path d="M121 130c0-1.65700000000001 1.343-3 3-3v0c1.657.0 3 1.34299999999999 3 3v0c0 1.65700000000001-1.343 3-3 3v0C122.343 133 121 131.657 121 130v0z" fill="#fff" fill-opacity=".2"/><path d="M121 142c0-1.65700000000001 1.343-3 3-3v0c1.657.0 3 1.34299999999999 3 3v0c0 1.65700000000001-1.343 3-3 3v0C122.343 145 121 143.657 121 142v0z" fill="#fff" fill-opacity=".2"/><path d="M121 154c0-1.65700000000001 1.343-3 3-3v0c1.657.0 3 1.34299999999999 3 3v0c0 1.65700000000001-1.343 3-3 3v0C122.343 157 121 155.657 121 154v0z" fill="#fff" fill-opacity=".2"/><path d="M134 142C134 140.343 135.343 139 137 139h14C152.657 139 154 140.343 154 142v0C154 143.657 152.657 145 151 145H137C135.343 145 134 143.657 134 142v0z" fill="#fff" fill-opacity=".3"/><path d="M134 130C134 128.343 135.343 127 137 127h49C187.657 127 189 128.343 189 130v0C189 131.657 187.657 133 186 133H137C135.343 133 134 131.657 134 130v0z" fill="#fff" fill-opacity=".3"/></g><path d="M230 22.8C230 18.3196 230 16.0794 230.872 14.3681 231.639 12.8628 232.863 11.6389 234.368 10.8719 236.079 10 238.32 10 242.8 10h34.4C281.68 10 283.921 10 285.632 10.8719 287.137 11.6389 288.361 12.8628 289.128 14.3681 290 16.0794 290 18.3196 290 22.8V57.2C290 61.6804 290 63.9206 289.128 65.6319 288.361 67.1372 287.137 68.3611 285.632 69.1281 283.921 70 281.68 70 277.2 70H242.8C238.32 70 236.079 70 234.368 69.1281 232.863 68.3611 231.639 67.1372 230.872 65.6319 230 63.9206 230 61.6804 230 57.2V22.8z" fill="#3e4854"/><path d="M10 22.8c0-4.4804.0-6.7206.8719-8.4319.767-1.5053 1.9909-2.7292 3.4962-3.4962C16.0794 10 18.3196 10 22.8 10H57.2c4.4804.0 6.7206.0 8.4319.8719C67.1372 11.6389 68.3611 12.8628 69.1281 14.3681 70 16.0794 70 18.3196 70 22.8V57.2C70 61.6804 70 63.9206 69.1281 65.6319 68.3611 67.1372 67.1372 68.3611 65.6319 69.1281 63.9206 70 61.6804 70 57.2 70H22.8C18.3196 70 16.0794 70 14.3681 69.1281 12.8628 68.3611 11.6389 67.1372 10.8719 65.6319 10 63.9206 10 61.6804 10 57.2V22.8z" fill="#3e4854"/><path d="M40 202.8C40 198.32 40 196.079 40.8719 194.368 41.6389 192.863 42.8628 191.639 44.3681 190.872 46.0794 190 48.3196 190 52.8 190H91.2C95.6804 190 97.9206 190 99.6319 190.872 101.137 191.639 102.361 192.863 103.128 194.368 104 196.079 104 198.32 104 202.8v34.4C104 241.68 104 243.921 103.128 245.632 102.361 247.137 101.137 248.361 99.6319 249.128 97.9206 250 95.6804 250 91.2 250H52.8C48.3196 250 46.0794 250 44.3681 249.128 42.8628 248.361 41.6389 247.137 40.8719 245.632 40 243.921 40 241.68 40 237.2V202.8z" fill="#00aee9"/><path d="M196 202.8C196 198.32 196 196.079 196.872 194.368 197.639 192.863 198.863 191.639 200.368 190.872 202.079 190 204.32 190 208.8 190h38.4C251.68 190 253.921 190 255.632 190.872 257.137 191.639 258.361 192.863 259.128 194.368 260 196.079 260 198.32 260 202.8v34.4C260 241.68 260 243.921 259.128 245.632 258.361 247.137 257.137 248.361 255.632 249.128 253.921 250 251.68 250 247.2 250H208.8C204.32 250 202.079 250 200.368 249.128 198.863 248.361 197.639 247.137 196.872 245.632 196 243.921 196 241.68 196 237.2V202.8z" fill="#ff8a1f"/><path d="M118 202.8C118 198.32 118 196.079 118.872 194.368 119.639 192.863 120.863 191.639 122.368 190.872 124.079 190 126.32 190 130.8 190h38.4C173.68 190 175.921 190 177.632 190.872 179.137 191.639 180.361 192.863 181.128 194.368 182 196.079 182 198.32 182 202.8v34.4C182 241.68 182 243.921 181.128 245.632 180.361 247.137 179.137 248.361 177.632 249.128 175.921 250 173.68 250 169.2 250H130.8C126.32 250 124.079 250 122.368 249.128 120.863 248.361 119.639 247.137 118.872 245.632 118 243.921 118 241.68 118 237.2V202.8z" fill="#6046ff"/><path fill-rule="evenodd" clip-rule="evenodd" d="M152 156v32h-4V156h4z" fill="#6046ff"/><path fill-rule="evenodd" clip-rule="evenodd" d="M142 156v5.483C142 163.093 142 164.421 141.912 165.504 141.82 166.628 141.623 167.661 141.128 168.632 140.361 170.137 139.137 171.361 137.632 172.128 136.661 172.623 135.628 172.82 134.504 172.912 133.421 173 132.093 173 130.483 173H81.6C79.8868 173 78.7223 173.002 77.8221 173.075 76.9452 173.147 76.4968 173.277 76.184 173.436 75.4314 173.819 74.8195 174.431 74.436 175.184 74.2766 175.497 74.1467 175.945 74.0751 176.822 74.0016 177.722 74 178.887 74 180.6V188H70v-7.483C70 178.907 70 177.579 70.0884 176.496 70.1802 175.372 70.3774 174.339 70.8719 173.368 71.6389 171.863 72.8628 170.639 74.3681 169.872 75.3387 169.377 76.3722 169.18 77.4963 169.088 78.5787 169 79.9075 169 81.5174 169H130.4C132.113 169 133.278 168.998 134.178 168.925 135.055 168.853 135.503 168.723 135.816 168.564 136.569 168.181 137.181 167.569 137.564 166.816 137.723 166.503 137.853 166.055 137.925 165.178 137.998 164.278 138 163.113 138 161.4V156h4z" fill="#00aee9"/><path fill-rule="evenodd" clip-rule="evenodd" d="M158 156v5.483C158 163.093 158 164.421 158.088 165.504 158.18 166.628 158.377 167.661 158.872 168.632 159.639 170.137 160.863 171.361 162.368 172.128 163.339 172.623 164.372 172.82 165.496 172.912 166.579 173 167.907 173 169.517 173H218.4C220.113 173 221.278 173.002 222.178 173.075 223.055 173.147 223.503 173.277 223.816 173.436 224.569 173.819 225.181 174.431 225.564 175.184 225.723 175.497 225.853 175.945 225.925 176.822 225.998 177.722 226 178.887 226 180.6V188h4v-7.483C230 178.907 230 177.579 229.912 176.496 229.82 175.372 229.623 174.339 229.128 173.368 228.361 171.863 227.137 170.639 225.632 169.872 224.661 169.377 223.628 169.18 222.504 169.088 221.421 169 220.093 169 218.483 169H169.6C167.887 169 166.722 168.998 165.822 168.925 164.945 168.853 164.497 168.723 164.184 168.564 163.431 168.181 162.819 167.569 162.436 166.816 162.277 166.503 162.147 166.055 162.075 165.178 162.002 164.278 162 163.113 162 161.4V156h-4z" fill="#ff8a1f"/><path d="M156 22.8C156 18.3196 156 16.0794 156.872 14.3681 157.639 12.8628 158.863 11.6389 160.368 10.8719 162.079 10 164.32 10 168.8 10h34.4C207.68 10 209.921 10 211.632 10.8719 213.137 11.6389 214.361 12.8628 215.128 14.3681 216 16.0794 216 18.3196 216 22.8V57.2C216 61.6804 216 63.9206 215.128 65.6319 214.361 67.1372 213.137 68.3611 211.632 69.1281 209.921 70 207.68 70 203.2 70H168.8C164.32 70 162.079 70 160.368 69.1281 158.863 68.3611 157.639 67.1372 156.872 65.6319 156 63.9206 156 61.6804 156 57.2V22.8z" fill="#3e4854"/><path d="M83 22.8C83 18.3196 83 16.0794 83.8719 14.3681 84.6389 12.8628 85.8628 11.6389 87.3681 10.8719 89.0794 10 91.3196 10 95.8 10h34.4C134.68 10 136.921 10 138.632 10.8719 140.137 11.6389 141.361 12.8628 142.128 14.3681 143 16.0794 143 18.3196 143 22.8V57.2C143 61.6804 143 63.9206 142.128 65.6319 141.361 67.1372 140.137 68.3611 138.632 69.1281 136.921 70 134.68 70 130.2 70H95.8C91.3196 70 89.0794 70 87.3681 69.1281 85.8628 68.3611 84.6389 67.1372 83.8719 65.6319 83 63.9206 83 61.6804 83 57.2V22.8z" fill="#3e4854"/><path d="M129 40c0 8.8366-7.163 16-16 16S97 48.8366 97 40c0-8.8366 7.163-16 16-16s16 7.1634 16 16z" fill="#d9d9d9"/><path d="M166 220C166 228.837 158.837 236 150 236S134 228.837 134 220 141.163 204 150 204 166 211.163 166 220z" fill="#9488f0"/><path fill-rule="evenodd" clip-rule="evenodd" d="M150 233C157.18 233 163 227.18 163 220S157.18 207 150 207 137 212.82 137 220 142.82 233 150 233zm0 3C158.837 236 166 228.837 166 220S158.837 204 150 204 134 211.163 134 220 141.163 236 150 236z" fill="#fff"/><path d="M244 220C244 228.837 236.837 236 228 236S212 228.837 212 220 219.163 204 228 204 244 211.163 244 220z" fill="#9488f0"/><path fill-rule="evenodd" clip-rule="evenodd" d="M228 233C235.18 233 241 227.18 241 220S235.18 207 228 207 215 212.82 215 220 220.82 233 228 233zm0 3C236.837 236 244 228.837 244 220S236.837 204 228 204 212 211.163 212 220 219.163 236 228 236z" fill="#fff"/><path d="M88 220C88 228.837 80.8366 236 72 236 63.1634 236 56 228.837 56 220s7.1634-16 16-16S88 211.163 88 220z" fill="#9488f0"/><path fill-rule="evenodd" clip-rule="evenodd" d="M72 233C79.1797 233 85 227.18 85 220s-5.8203-13-13-13S59 212.82 59 220s5.8203 13 13 13zm0 3C80.8366 236 88 228.837 88 220s-7.1634-16-16-16C63.1634 204 56 211.163 56 220s7.1634 16 16 16z" fill="#fff"/><path d="M202 40C202 48.8366 194.837 56 186 56s-16-7.1634-16-16C170 31.1634 177.163 24 186 24s16 7.1634 16 16z" fill="#d9d9d9"/><path d="M276 40C276 48.8366 268.837 56 260 56s-16-7.1634-16-16C244 31.1634 251.163 24 260 24s16 7.1634 16 16z" fill="#d9d9d9"/><path d="M56 40c0 8.8366-7.1634 16-16 16-8.8366.0-16-7.1634-16-16 0-8.8366 7.1634-16 16-16 8.8366.0 16 7.1634 16 16z" fill="#d9d9d9"/><path fill-rule="evenodd" clip-rule="evenodd" d="M43 70V82.4C43 84.1297 43.0023 85.2465 43.0718 86.0965 43.1384 86.9115 43.2514 87.2136 43.327 87.362 43.6146 87.9265 44.0735 88.3854 44.638 88.673 44.7864 88.7486 45.0885 88.8616 45.9035 88.9282 46.7535 88.9977 47.8703 89 49.6 89H110V70h6V89h67V70h6V89h61.4C252.13 89 253.246 88.9977 254.096 88.9282 254.911 88.8616 255.214 88.7486 255.362 88.673 255.926 88.3854 256.385 87.9265 256.673 87.362 256.749 87.2136 256.862 86.9115 256.928 86.0965 256.998 85.2465 257 84.1297 257 82.4V70h6V82.5157C263 84.0971 263 85.4614 262.908 86.5851 262.811 87.7711 262.597 88.9508 262.019 90.0859 261.156 91.7794 259.779 93.1562 258.086 94.0191 256.951 94.5974 255.771 94.8114 254.585 94.9083 253.461 95.0001 252.097 95.0001 250.516 95H153v7h-6V95H49.4844C47.9029 95.0001 46.5386 95.0001 45.4149 94.9083 44.2289 94.8114 43.0492 94.5974 41.9141 94.0191 40.2206 93.1562 38.8438 91.7794 37.9809 90.0859 37.4026 88.9508 37.1886 87.7711 37.0917 86.5851 36.9999 85.4614 36.9999 84.0971 37 82.5156V70h6z" fill="#3e4854"/><defs><clipPath id="clip0_657_4833"><rect x="99" y="106" width="102" height="48" rx="8" fill="#fff"/></clipPath></defs></svg>