<svg width="300" height="260" viewBox="0 0 300 260" fill="none" xmlns="http://www.w3.org/2000/svg"><rect width="300" height="260" rx="16" fill="#1e242c"/><path d="M10 49.8c0-4.4804.0-6.7206.8719-8.4319.767-1.5053 1.9909-2.7292 3.4962-3.4962C16.0794 37 18.3196 37 22.8 37H81.2C85.6804 37 87.9206 37 89.6319 37.8719 91.1372 38.6389 92.3611 39.8628 93.1281 41.3681 94 43.0794 94 45.3196 94 49.8V239.2C94 243.68 94 245.921 93.1281 247.632 92.3611 249.137 91.1372 250.361 89.6319 251.128 87.9206 252 85.6804 252 81.2 252H22.8C18.3196 252 16.0794 252 14.3681 251.128 12.8628 250.361 11.6389 249.137 10.8719 247.632 10 245.921 10 243.68 10 239.2V49.8z" fill="#29313a"/><path d="M1e2 49.8c0-4.4804.0-6.7206.872-8.4319C101.639 39.8628 102.863 38.6389 104.368 37.8719 106.079 37 108.32 37 112.8 37H279.2C283.68 37 285.921 37 287.632 37.8719 289.137 38.6389 290.361 39.8628 291.128 41.3681 292 43.0794 292 45.3196 292 49.8v59.4c0 4.48.0 6.721-.872000000000014 8.432C290.361 119.137 289.137 120.361 287.632 121.128 285.921 122 283.68 122 279.2 122H112.8c-4.48.0-6.721.0-8.432-.872-1.505-.766999999999996-2.729-1.991-3.496-3.496C1e2 115.921 1e2 113.68 1e2 109.2V49.8z" fill="#12161c"/><path d="M1e2 145H279.2C283.68 145 285.921 145 287.632 145.872 289.137 146.639 290.361 147.863 291.128 149.368 292 151.079 292 153.32 292 157.8v81.4C292 243.68 292 245.921 291.128 247.632 290.361 249.137 289.137 250.361 287.632 251.128 285.921 252 283.68 252 279.2 252H112.8C108.32 252 106.079 252 104.368 251.128 102.863 250.361 101.639 249.137 100.872 247.632 1e2 245.921 1e2 243.68 1e2 239.2V145z" fill="#29313a"/><path d="M108 164c0-2.209 1.791-4 4-4v0c2.209.0 4 1.791 4 4v0c0 2.209-1.791 4-4 4v0c-2.209.0-4-1.791-4-4v0z" fill="#343d48"/><path d="M122 164c0-1.65700000000001 1.343-3 3-3h17C143.657 161 145 162.343 145 164v0C145 165.657 143.657 167 142 167H125C123.343 167 122 165.657 122 164v0z" fill="#3e4854"/><path d="M175 164C175 162.343 176.343 161 178 161h20C199.657 161 201 162.343 201 164v0C201 165.657 199.657 167 198 167H178C176.343 167 175 165.657 175 164v0z" fill="#3e4854"/><path d="M256 164C256 162.343 257.343 161 259 161h6C266.657 161 268 162.343 268 164v0C268 165.657 266.657 167 265 167h-6C257.343 167 256 165.657 256 164v0z" fill="#3e4854"/><path d="M108 178c0-2.209 1.791-4 4-4v0c2.209.0 4 1.791 4 4v0c0 2.209-1.791 4-4 4v0c-2.209.0-4-1.791-4-4v0z" fill="#343d48"/><path d="M108 192c0-2.209 1.791-4 4-4v0c2.209.0 4 1.791 4 4v0c0 2.209-1.791 4-4 4v0c-2.209.0-4-1.791-4-4v0z" fill="#343d48"/><path d="M108 206c0-2.209 1.791-4 4-4v0c2.209.0 4 1.791 4 4v0c0 2.209-1.791 4-4 4v0c-2.209.0-4-1.791-4-4v0z" fill="#343d48"/><path d="M108 220c0-2.209 1.791-4 4-4v0c2.209.0 4 1.791 4 4v0c0 2.209-1.791 4-4 4v0c-2.209.0-4-1.791-4-4v0z" fill="#343d48"/><path d="M122 178c0-1.65700000000001 1.343-3 3-3h23C149.657 175 151 176.343 151 178v0C151 179.657 149.657 181 148 181H125C123.343 181 122 179.657 122 178v0z" fill="#3e4854"/><path d="M122 192c0-1.65700000000001 1.343-3 3-3h9C135.657 189 137 190.343 137 192v0C137 193.657 135.657 195 134 195h-9C123.343 195 122 193.657 122 192v0z" fill="#3e4854"/><path d="M122 206c0-1.65700000000001 1.343-3 3-3h29C155.657 203 157 204.343 157 206v0C157 207.657 155.657 209 154 209H125C123.343 209 122 207.657 122 206v0z" fill="#3e4854"/><path d="M122 220c0-1.65700000000001 1.343-3 3-3h17C143.657 217 145 218.343 145 220v0C145 221.657 143.657 223 142 223H125C123.343 223 122 221.657 122 220v0z" fill="#3e4854"/><path d="M122 234c0-1.65700000000001 1.343-3 3-3h9C135.657 231 137 232.343 137 234v0C137 235.657 135.657 237 134 237h-9C123.343 237 122 235.657 122 234v0z" fill="#3e4854"/><path d="M175 178C175 176.343 176.343 175 178 175h46C225.657 175 227 176.343 227 178v0C227 179.657 225.657 181 224 181H178C176.343 181 175 179.657 175 178v0z" fill="#3e4854"/><path d="M175 192C175 190.343 176.343 189 178 189h35C214.657 189 216 190.343 216 192v0C216 193.657 214.657 195 213 195H178C176.343 195 175 193.657 175 192v0z" fill="#3e4854"/><path d="M175 206C175 204.343 176.343 203 178 203h29C208.657 203 210 204.343 210 206v0C210 207.657 208.657 209 207 209H178C176.343 209 175 207.657 175 206v0z" fill="#3e4854"/><path d="M175 220C175 218.343 176.343 217 178 217h34C213.657 217 215 218.343 215 220v0C215 221.657 213.657 223 212 223H178C176.343 223 175 221.657 175 220v0z" fill="#3e4854"/><path d="M175 234C175 232.343 176.343 231 178 231h27C206.657 231 208 232.343 208 234v0C208 235.657 206.657 237 205 237H178C176.343 237 175 235.657 175 234v0z" fill="#3e4854"/><path d="M108 234c0-2.209 1.791-4 4-4v0c2.209.0 4 1.791 4 4v0c0 2.209-1.791 4-4 4v0c-2.209.0-4-1.791-4-4v0z" fill="#343d48"/><path d="M256 178C256 176.343 257.343 175 259 175h15C275.657 175 277 176.343 277 178v0C277 179.657 275.657 181 274 181H259C257.343 181 256 179.657 256 178v0z" fill="#3e4854"/><path d="M256 192C256 190.343 257.343 189 259 189h9C269.657 189 271 190.343 271 192v0C271 193.657 269.657 195 268 195h-9C257.343 195 256 193.657 256 192v0z" fill="#3e4854"/><path d="M256 206C256 204.343 257.343 203 259 203h17C277.657 203 279 204.343 279 206v0C279 207.657 277.657 209 276 209H259C257.343 209 256 207.657 256 206v0z" fill="#3e4854"/><path d="M256 220C256 218.343 257.343 217 259 217h3C263.657 217 265 218.343 265 220v0C265 221.657 263.657 223 262 223h-3C257.343 223 256 221.657 256 220v0z" fill="#3e4854"/><path d="M256 234C256 232.343 257.343 231 259 231h9C269.657 231 271 232.343 271 234v0C271 235.657 269.657 237 268 237h-9C257.343 237 256 235.657 256 234v0z" fill="#3e4854"/><path d="M16 22c0-2.7614 2.2386-5 5-5H53c2.7614.0 5 2.2386 5 5v0c0 2.7614-2.2386 5-5 5H21c-2.7614.0-5-2.2386-5-5v0z" fill="#3e4854"/><path d="M64 22C64 19.2386 66.2386 17 69 17h58c2.761.0 5 2.2386 5 5v0c0 2.7614-2.239 5-5 5H69C66.2386 27 64 24.7614 64 22v0z" fill="#3e4854"/><path d="M16 50c0-2.2091 1.7909-4 4-4v0c2.2091.0 4 1.7909 4 4v0c0 2.2091-1.7909 4-4 4v0c-2.2091.0-4-1.7909-4-4v0z" fill="#343d48"/><path d="M30 50c0-1.6569 1.3431-3 3-3H58c1.6569.0 3 1.3431 3 3v0c0 1.6569-1.3431 3-3 3H33c-1.6569.0-3-1.3431-3-3v0z" fill="#3e4854"/><path d="M105 134c0-1.65700000000001 1.343-3 3-3h16c1.657.0 3 1.34299999999999 3 3v0c0 1.65700000000001-1.343 3-3 3H108C106.343 137 105 135.657 105 134v0z" fill="#3e4854"/><path d="M1e2 145C1e2 144.448 100.448 144 101 144h30C131.552 144 132 144.448 132 145v0H1e2v0z" fill="#9488f0"/><path d="M137 134C137 132.343 138.343 131 140 131h16C157.657 131 159 132.343 159 134v0C159 135.657 157.657 137 156 137H140C138.343 137 137 135.657 137 134v0z" fill="#29313a"/><path d="M278 134C278 132.343 279.343 131 281 131v0C282.657 131 284 132.343 284 134v0C284 135.657 282.657 137 281 137v0C279.343 137 278 135.657 278 134v0z" fill="#29313a"/><path d="M64 50C64 48.3431 65.3431 47 67 47H78C79.6569 47 81 48.3431 81 50v0C81 51.6569 79.6569 53 78 53H67C65.3431 53 64 51.6569 64 50v0z" fill="#3e4854"/><path d="M116 50c0-1.6569 1.343-3 3-3h4c1.657.0 3 1.3431 3 3v0c0 1.6569-1.343 3-3 3h-4c-1.657.0-3-1.3431-3-3v0z" fill="#6046ff"/><path d="M129 62C129 60.3431 130.343 59 132 59h44C177.657 59 179 60.3431 179 62v0C179 63.6569 177.657 65 176 65H132C130.343 65 129 63.6569 129 62v0z" fill="#9488f0"/><path d="M129 86C129 84.3431 130.343 83 132 83h24C157.657 83 159 84.3431 159 86v0C159 87.6569 157.657 89 156 89H132C130.343 89 129 87.6569 129 86v0z" fill="#9488f0"/><path d="M129 98C129 96.3431 130.343 95 132 95h60C193.657 95 195 96.3431 195 98v0C195 99.6569 193.657 101 192 101H132C130.343 101 129 99.6569 129 98v0z" fill="#9488f0"/><path d="M116 74C116 72.3431 117.343 71 119 71h18C138.657 71 140 72.3431 140 74v0C140 75.6569 138.657 77 137 77H119C117.343 77 116 75.6569 116 74v0z" fill="#6046ff"/><path d="M116 110c0-1.657 1.343-3 3-3h7c1.657.0 3 1.343 3 3v0c0 1.657-1.343 3-3 3h-7c-1.657.0-3-1.343-3-3v0z" fill="#6046ff"/><path d="M105 49.5c0-1.3807 1.119-2.5 2.5-2.5v0c1.381.0 2.5 1.1193 2.5 2.5v1c0 1.3807-1.119 2.5-2.5 2.5v0c-1.381.0-2.5-1.1193-2.5-2.5v-1z" fill="#1e242c"/><path d="M105 61.5c0-1.3807 1.119-2.5 2.5-2.5v0c1.381.0 2.5 1.1193 2.5 2.5v1c0 1.3807-1.119 2.5-2.5 2.5v0c-1.381.0-2.5-1.1193-2.5-2.5v-1z" fill="#1e242c"/><path d="M105 73.5c0-1.3807 1.119-2.5 2.5-2.5v0c1.381.0 2.5 1.1193 2.5 2.5v1c0 1.3807-1.119 2.5-2.5 2.5v0c-1.381.0-2.5-1.1193-2.5-2.5v-1z" fill="#1e242c"/><path d="M105 85.5c0-1.3807 1.119-2.5 2.5-2.5v0c1.381.0 2.5 1.1193 2.5 2.5v1c0 1.3807-1.119 2.5-2.5 2.5v0c-1.381.0-2.5-1.1193-2.5-2.5v-1z" fill="#1e242c"/><path d="M105 97.5c0-1.3807 1.119-2.5 2.5-2.5v0c1.381.0 2.5 1.1193 2.5 2.5v1c0 1.3807-1.119 2.5-2.5 2.5v0c-1.381.0-2.5-1.1193-2.5-2.5v-1z" fill="#1e242c"/><path d="M105 109.5c0-1.381 1.119-2.5 2.5-2.5v0c1.381.0 2.5 1.119 2.5 2.5v1c0 1.381-1.119 2.5-2.5 2.5v0c-1.381.0-2.5-1.119-2.5-2.5v-1z" fill="#1e242c"/><path d="M129 50C129 48.3431 130.343 47 132 47h30C163.657 47 165 48.3431 165 50v0C165 51.6569 163.657 53 162 53H132C130.343 53 129 51.6569 129 50v0z" fill="#9488f0"/><path d="M168 50C168 48.3431 169.343 47 171 47h18C190.657 47 192 48.3431 192 50v0C192 51.6569 190.657 53 189 53H171C169.343 53 168 51.6569 168 50v0z" fill="#6046ff"/><path d="M195 50C195 48.3431 196.343 47 198 47h51C250.657 47 252 48.3431 252 50v0C252 51.6569 250.657 53 249 53H198C196.343 53 195 51.6569 195 50v0z" fill="#12b886"/><path d="M162 86C162 84.3431 163.343 83 165 83h8C174.657 83 176 84.3431 176 86v0C176 87.6569 174.657 89 173 89h-8C163.343 89 162 87.6569 162 86v0z" fill="#12b886"/><path d="M179 86C179 84.3431 180.343 83 182 83h30C213.657 83 215 84.3431 215 86v0C215 87.6569 213.657 89 212 89H182C180.343 89 179 87.6569 179 86v0z" fill="#6046ff"/><path d="M16 64c0-2.2091 1.7909-4 4-4v0c2.2091.0 4 1.7909 4 4v0C24 66.2091 22.2091 68 20 68v0C17.7909 68 16 66.2091 16 64v0z" fill="#343d48"/><path d="M16 78C16 75.7909 17.7909 74 20 74v0C22.2091 74 24 75.7909 24 78v0C24 80.2091 22.2091 82 20 82v0C17.7909 82 16 80.2091 16 78v0z" fill="#343d48"/><path d="M16 92C16 89.7909 17.7909 88 20 88v0C22.2091 88 24 89.7909 24 92v0C24 94.2091 22.2091 96 20 96v0C17.7909 96 16 94.2091 16 92v0z" fill="#46a6ff"/><path d="M16 106c0-2.209 1.7909-4 4-4v0c2.2091.0 4 1.791 4 4v0c0 2.209-1.7909 4-4 4v0c-2.2091.0-4-1.791-4-4v0z" fill="#343d48"/><path d="M16 120c0-2.209 1.7909-4 4-4v0c2.2091.0 4 1.791 4 4v0c0 2.209-1.7909 4-4 4v0c-2.2091.0-4-1.791-4-4v0z" fill="#343d48"/><path d="M16 134c0-2.209 1.7909-4 4-4v0c2.2091.0 4 1.791 4 4v0c0 2.209-1.7909 4-4 4v0c-2.2091.0-4-1.791-4-4v0z" fill="#343d48"/><path d="M16 148c0-2.209 1.7909-4 4-4v0c2.2091.0 4 1.791 4 4v0c0 2.209-1.7909 4-4 4v0c-2.2091.0-4-1.791-4-4v0z" fill="#343d48"/><path d="M16 162c0-2.209 1.7909-4 4-4v0c2.2091.0 4 1.791 4 4v0c0 2.209-1.7909 4-4 4v0c-2.2091.0-4-1.791-4-4v0z" fill="#343d48"/><path d="M16 176c0-2.209 1.7909-4 4-4v0c2.2091.0 4 1.791 4 4v0c0 2.209-1.7909 4-4 4v0c-2.2091.0-4-1.791-4-4v0z" fill="#343d48"/><path d="M16 190c0-2.209 1.7909-4 4-4v0c2.2091.0 4 1.791 4 4v0c0 2.209-1.7909 4-4 4v0c-2.2091.0-4-1.791-4-4v0z" fill="#343d48"/><path d="M16 204c0-2.209 1.7909-4 4-4v0c2.2091.0 4 1.791 4 4v0c0 2.209-1.7909 4-4 4v0c-2.2091.0-4-1.791-4-4v0z" fill="#343d48"/><path d="M16 218c0-2.209 1.7909-4 4-4v0c2.2091.0 4 1.791 4 4v0c0 2.209-1.7909 4-4 4v0c-2.2091.0-4-1.791-4-4v0z" fill="#343d48"/><path d="M16 232c0-2.209 1.7909-4 4-4v0c2.2091.0 4 1.791 4 4v0c0 2.209-1.7909 4-4 4v0c-2.2091.0-4-1.791-4-4v0z" fill="#343d48"/><path d="M30 64c0-1.6569 1.3431-3 3-3H47c1.6569.0 3 1.3431 3 3v0C50 65.6569 48.6569 67 47 67H33C31.3431 67 30 65.6569 30 64v0z" fill="#3e4854"/><path d="M30 78C30 76.3431 31.3431 75 33 75h3C37.6569 75 39 76.3431 39 78v0C39 79.6569 37.6569 81 36 81H33C31.3431 81 30 79.6569 30 78v0z" fill="#3e4854"/><path d="M30 92C30 90.3431 31.3431 89 33 89H50C51.6569 89 53 90.3431 53 92v0C53 93.6569 51.6569 95 50 95H33C31.3431 95 30 93.6569 30 92v0z" fill="#46a6ff"/><path d="M30 106c0-1.657 1.3431-3 3-3H59c1.6569.0 3 1.343 3 3v0c0 1.657-1.3431 3-3 3H33c-1.6569.0-3-1.343-3-3v0z" fill="#3e4854"/><path d="M30 120c0-1.657 1.3431-3 3-3H67C68.6569 117 70 118.343 70 120v0C70 121.657 68.6569 123 67 123H33c-1.6569.0-3-1.343-3-3v0z" fill="#3e4854"/><path d="M30 134C30 132.343 31.3431 131 33 131h9C43.6569 131 45 132.343 45 134v0C45 135.657 43.6569 137 42 137H33C31.3431 137 30 135.657 30 134v0z" fill="#3e4854"/><path d="M30 148C30 146.343 31.3431 145 33 145H58C59.6569 145 61 146.343 61 148v0C61 149.657 59.6569 151 58 151H33C31.3431 151 30 149.657 30 148v0z" fill="#3e4854"/><path d="M30 162C30 160.343 31.3431 159 33 159h5C39.6569 159 41 160.343 41 162v0C41 163.657 39.6569 165 38 165H33C31.3431 165 30 163.657 30 162v0z" fill="#3e4854"/><path d="M30 176C30 174.343 31.3431 173 33 173H52C53.6569 173 55 174.343 55 176v0C55 177.657 53.6569 179 52 179H33C31.3431 179 30 177.657 30 176v0z" fill="#3e4854"/><path d="M30 190C30 188.343 31.3431 187 33 187h9C43.6569 187 45 188.343 45 190v0C45 191.657 43.6569 193 42 193H33C31.3431 193 30 191.657 30 190v0z" fill="#3e4854"/><path d="M30 204C30 202.343 31.3431 201 33 201H51C52.6569 201 54 202.343 54 204v0C54 205.657 52.6569 207 51 207H33C31.3431 207 30 205.657 30 204v0z" fill="#3e4854"/><path d="M30 218C30 216.343 31.3431 215 33 215H62C63.6569 215 65 216.343 65 218v0C65 219.657 63.6569 221 62 221H33C31.3431 221 30 219.657 30 218v0z" fill="#3e4854"/><path d="M30 232C30 230.343 31.3431 229 33 229h4C38.6569 229 40 230.343 40 232v0C40 233.657 38.6569 235 37 235H33C31.3431 235 30 233.657 30 232v0z" fill="#3e4854"/><path d="M53 64c0-1.6569 1.3431-3 3-3H70C71.6569 61 73 62.3431 73 64v0C73 65.6569 71.6569 67 70 67H56C54.3431 67 53 65.6569 53 64v0z" fill="#3e4854"/><path d="M42 78C42 76.3431 43.3431 75 45 75H71C72.6569 75 74 76.3431 74 78v0C74 79.6569 72.6569 81 71 81H45C43.3431 81 42 79.6569 42 78v0z" fill="#3e4854"/><path d="M56 92C56 90.3431 57.3431 89 59 89h9C69.6569 89 71 90.3431 71 92v0C71 93.6569 69.6569 95 68 95H59C57.3431 95 56 93.6569 56 92v0z" fill="#46a6ff"/><path d="M73 120C73 118.343 74.3431 117 76 117h5C82.6569 117 84 118.343 84 120v0C84 121.657 82.6569 123 81 123H76C74.3431 123 73 121.657 73 120v0z" fill="#3e4854"/><path d="M48 134C48 132.343 49.3431 131 51 131H73C74.6569 131 76 132.343 76 134v0C76 135.657 74.6569 137 73 137H51C49.3431 137 48 135.657 48 134v0z" fill="#3e4854"/><path d="M65 148C65 146.343 66.3431 145 68 145h9C78.6569 145 80 146.343 80 148v0C80 149.657 78.6569 151 77 151H68C66.3431 151 65 149.657 65 148v0z" fill="#3e4854"/><path d="M44 162C44 160.343 45.3431 159 47 159H70C71.6569 159 73 160.343 73 162v0C73 163.657 71.6569 165 70 165H47C45.3431 165 44 163.657 44 162v0z" fill="#3e4854"/><path d="M58 176C58 174.343 59.3431 173 61 173H80C81.6569 173 83 174.343 83 176v0C83 177.657 81.6569 179 80 179H61C59.3431 179 58 177.657 58 176v0z" fill="#3e4854"/><path d="M48 190C48 188.343 49.3431 187 51 187h9C61.6569 187 63 188.343 63 190v0C63 191.657 61.6569 193 60 193H51C49.3431 193 48 191.657 48 190v0z" fill="#3e4854"/><path d="M57 204C57 202.343 58.3431 201 60 201H76C77.6569 201 79 202.343 79 204v0C79 205.657 77.6569 207 76 207H60C58.3431 207 57 205.657 57 204v0z" fill="#3e4854"/><path d="M68 218C68 216.343 69.3431 215 71 215h6C78.6569 215 80 216.343 80 218v0C80 219.657 78.6569 221 77 221H71C69.3431 221 68 219.657 68 218v0z" fill="#3e4854"/><path d="M43 232C43 230.343 44.3431 229 46 229H62C63.6569 229 65 230.343 65 232v0C65 233.657 63.6569 235 62 235H46C44.3431 235 43 233.657 43 232v0z" fill="#3e4854"/><path d="M270 20c0-2.2091 1.791-4 4-4h4c2.209.0 4 1.7909 4 4v4c0 2.2091-1.791 4-4 4h-4c-2.209.0-4-1.7909-4-4V20z" fill="#12161c"/><path d="M252 20c0-2.2091 1.791-4 4-4h4c2.209.0 4 1.7909 4 4v4c0 2.2091-1.791 4-4 4h-4c-2.209.0-4-1.7909-4-4V20z" fill="#12161c"/><path d="M234 20c0-2.2091 1.791-4 4-4h4c2.209.0 4 1.7909 4 4v4c0 2.2091-1.791 4-4 4h-4c-2.209.0-4-1.7909-4-4V20z" fill="#12161c"/></svg>