<svg width="300" height="260" viewBox="0 0 300 260" fill="none" xmlns="http://www.w3.org/2000/svg"><rect width="300" height="260" rx="16" fill="#1e242c"/><path d="M16 224.8C16 220.32 16 218.079 16.8719 216.368 17.6389 214.863 18.8628 213.639 20.3681 212.872 22.0794 212 24.3196 212 28.8 212H271.2C275.68 212 277.921 212 279.632 212.872 281.137 213.639 282.361 214.863 283.128 216.368 284 218.079 284 220.32 284 224.8V231.2C284 235.68 284 237.921 283.128 239.632 282.361 241.137 281.137 242.361 279.632 243.128 277.921 244 275.68 244 271.2 244H28.8C24.3196 244 22.0794 244 20.3681 243.128 18.8628 242.361 17.6389 241.137 16.8719 239.632 16 237.921 16 235.68 16 231.2V224.8z" fill="#12b886"/><path d="M16 176.8C16 172.32 16 170.079 16.8719 168.368 17.6389 166.863 18.8628 165.639 20.3681 164.872 22.0794 164 24.3196 164 28.8 164H271.2C275.68 164 277.921 164 279.632 164.872 281.137 165.639 282.361 166.863 283.128 168.368 284 170.079 284 172.32 284 176.8V183.2C284 187.68 284 189.921 283.128 191.632 282.361 193.137 281.137 194.361 279.632 195.128 277.921 196 275.68 196 271.2 196H28.8C24.3196 196 22.0794 196 20.3681 195.128 18.8628 194.361 17.6389 193.137 16.8719 191.632 16 189.921 16 187.68 16 183.2V176.8z" fill="#12161c"/><path d="M16 124.8c0-4.48.0-6.721.8719-8.432.767-1.505 1.9909-2.729 3.4962-3.496C22.0794 112 24.3196 112 28.8 112H271.2C275.68 112 277.921 112 279.632 112.872 281.137 113.639 282.361 114.863 283.128 116.368 284 118.079 284 120.32 284 124.8V131.2C284 135.68 284 137.921 283.128 139.632 282.361 141.137 281.137 142.361 279.632 143.128 277.921 144 275.68 144 271.2 144H28.8C24.3196 144 22.0794 144 20.3681 143.128 18.8628 142.361 17.6389 141.137 16.8719 139.632 16 137.921 16 135.68 16 131.2V124.8z" fill="#12161c"/><path d="M16 55.8c0-4.4804.0-6.7206.8719-8.4319.767-1.5053 1.9909-2.7292 3.4962-3.4962C22.0794 43 24.3196 43 28.8 43H271.2C275.68 43 277.921 43 279.632 43.8719 281.137 44.6389 282.361 45.8628 283.128 47.3681 284 49.0794 284 51.3196 284 55.8V62.2C284 66.6804 284 68.9206 283.128 70.6319 282.361 72.1372 281.137 73.3611 279.632 74.1281 277.921 75 275.68 75 271.2 75H28.8C24.3196 75 22.0794 75 20.3681 74.1281 18.8628 73.3611 17.6389 72.1372 16.8719 70.6319 16 68.9206 16 66.6804 16 62.2V55.8z" fill="#12161c"/><path d="M19 54C19 51.1997 19 49.7996 19.545 48.73 20.0243 47.7892 20.7892 47.0243 21.73 46.545 22.7996 46 24.1997 46 27 46H81C83.8003 46 85.2004 46 86.27 46.545 87.2108 47.0243 87.9757 47.7892 88.455 48.73 89 49.7996 89 51.1997 89 54V64C89 66.8003 89 68.2004 88.455 69.27 87.9757 70.2108 87.2108 70.9757 86.27 71.455 85.2004 72 83.8003 72 81 72H27C24.1997 72 22.7996 72 21.73 71.455 20.7892 70.9757 20.0243 70.2108 19.545 69.27 19 68.2004 19 66.8003 19 64V54z" fill="#29313a"/><path d="M118 229c0-2.209 1.791-4 4-4h56c2.209.0 4 1.791 4 4v0c0 2.209-1.791 4-4 4H122c-2.209.0-4-1.791-4-4v0z" fill="#3cdfaf"/><path d="M24 180c0-4.971 4.0294-9 9-9v0c4.9706.0 9 4.029 9 9v0c0 4.971-4.0294 9-9 9v0c-4.9706.0-9-4.029-9-9v0z" fill="#ff8a1f"/><path d="M48 180c0-2.209 1.7909-4 4-4H72C74.2091 176 76 177.791 76 180v0C76 182.209 74.2091 184 72 184H52c-2.2091.0-4-1.791-4-4v0z" fill="#29313a"/><path d="M24 128c0-2.209 1.7909-4 4-4H74C76.2091 124 78 125.791 78 128v0C78 130.209 76.2091 132 74 132H28c-2.2091.0-4-1.791-4-4v0z" fill="#29313a"/><path d="M40 83C40 80.7909 41.7909 79 44 79H88C90.2091 79 92 80.7909 92 83v4C92 89.2091 90.2091 91 88 91H44C41.7909 91 40 89.2091 40 87V83z" fill="#29313a"/><path d="M96 83C96 80.7909 97.7909 79 1e2 79h44C146.209 79 148 80.7909 148 83v4C148 89.2091 146.209 91 144 91H1e2C97.7909 91 96 89.2091 96 87V83z" fill="#29313a"/><path d="M152 83C152 80.7909 153.791 79 156 79h44C202.209 79 204 80.7909 204 83v4C204 89.2091 202.209 91 2e2 91H156C153.791 91 152 89.2091 152 87V83z" fill="#29313a"/><path d="M208 83C208 80.7909 209.791 79 212 79h44C258.209 79 260 80.7909 260 83v4C260 89.2091 258.209 91 256 91H212C209.791 91 208 89.2091 208 87V83z" fill="#29313a"/><path d="M238 135C238 133.895 238.895 133 240 133h18C259.105 133 260 133.895 260 135v0C260 136.105 259.105 137 258 137H240C238.895 137 238 136.105 238 135v0z" fill="#29313a"/><path d="M248 105c0-1.105.89500000000001-2 2-2h24C275.105 103 276 103.895 276 105v0c0 1.105-.894999999999982 2-2 2H250C248.895 107 248 106.105 248 105v0z" fill="#9488f0"/><path d="M24 104C24 102.895 24.8954 102 26 102H72C73.1046 102 74 102.895 74 104v0C74 105.105 73.1046 106 72 106H26C24.8954 106 24 105.105 24 104v0z" fill="#3e4854"/><path d="M62 85C62 83.8954 62.8954 83 64 83h4C69.1046 83 70 83.8954 70 85v0C70 86.1046 69.1046 87 68 87H64C62.8954 87 62 86.1046 62 85v0z" fill="#3e4854"/><path d="M118 85C118 83.8954 118.895 83 120 83h4C125.105 83 126 83.8954 126 85v0C126 86.1046 125.105 87 124 87h-4C118.895 87 118 86.1046 118 85v0z" fill="#3e4854"/><path d="M172 85C172 83.8954 172.895 83 174 83h8C183.105 83 184 83.8954 184 85v0C184 86.1046 183.105 87 182 87h-8C172.895 87 172 86.1046 172 85v0z" fill="#3e4854"/><path d="M229 85C229 83.8954 229.895 83 231 83h6C238.105 83 239 83.8954 239 85v0C239 86.1046 238.105 87 237 87h-6C229.895 87 229 86.1046 229 85v0z" fill="#3e4854"/><path d="M24 35C24 33.8954 24.8954 33 26 33H56C57.1046 33 58 33.8954 58 35v0C58 36.1046 57.1046 37 56 37H26C24.8954 37 24 36.1046 24 35v0z" fill="#3e4854"/><path d="M24 158C24 156.895 24.8954 156 26 156H40C41.1046 156 42 156.895 42 158v0C42 159.105 41.1046 160 40 160H26C24.8954 160 24 159.105 24 158v0z" fill="#3e4854"/><path d="M254 65C254 63.8954 254.895 63 256 63h18C275.105 63 276 63.8954 276 65v0C276 66.1046 275.105 67 274 67H256C254.895 67 254 66.1046 254 65v0z" fill="#29313a"/><path d="M205 124c0-2.209 1.791-4 4-4h63c2.209.0 4 1.791 4 4v0c0 2.209-1.791 4-4 4H209c-2.209.0-4-1.791-4-4v0z" fill="#3e4854"/><path d="M88 15C88 12.7909 89.7909 11 92 11h29c2.209.0 4 1.7909 4 4v0c0 2.2091-1.791 4-4 4H92C89.7909 19 88 17.2091 88 15v0z" fill="#fff"/><path d="M65 0h83V0C148 1.10457 147.105 2 146 2H67C65.8954 2 65 1.10457 65 0V0z" fill="#12b886"/><path d="M171 15c0-2.2091 1.791-4 4-4h29c2.209.0 4 1.7909 4 4v0c0 2.2091-1.791 4-4 4H175c-2.209.0-4-1.7909-4-4v0z" fill="#ff646d"/><path d="M263 135C263 133.895 263.895 133 265 133h9C275.105 133 276 133.895 276 135v0C276 136.105 275.105 137 274 137h-9C263.895 137 263 136.105 263 135v0z" fill="#12b886"/><path d="M231 54c0-2.2091 1.791-4 4-4h37c2.209.0 4 1.7909 4 4v0c0 2.2091-1.791 4-4 4H235c-2.209.0-4-1.7909-4-4v0z" fill="#3e4854"/><path d="M264 180C264 176.686 266.686 174 270 174v0C273.314 174 276 176.686 276 180v0C276 183.314 273.314 186 270 186v0C266.686 186 264 183.314 264 180v0z" fill="#29313a"/><path d="M246 180C246 176.686 248.686 174 252 174v0C255.314 174 258 176.686 258 180v0C258 183.314 255.314 186 252 186v0C248.686 186 246 183.314 246 180v0z" fill="#29313a"/><path d="M24 59c0-4.9706 4.0294-9 9-9v0c4.9706.0 9 4.0294 9 9v0c0 4.9706-4.0294 9-9 9v0c-4.9706.0-9-4.0294-9-9v0z" fill="#008b73"/><path d="M48 59c0-2.2091 1.7909-4 4-4H64C66.2091 55 68 56.7909 68 59v0C68 61.2091 66.2091 63 64 63H52c-2.2091.0-4-1.7909-4-4v0z" fill="#3e4854"/><path d="M74 59C74 56.7909 75.7909 55 78 55v0C80.2091 55 82 56.7909 82 59v0C82 61.2091 80.2091 63 78 63v0C75.7909 63 74 61.2091 74 59v0z" fill="#3e4854"/></svg>