<svg width="300" height="260" viewBox="0 0 300 260" fill="none" xmlns="http://www.w3.org/2000/svg"><rect width="300" height="260" rx="16" fill="#1e242c"/><path d="M8 48.8c0-4.4804.0-6.7206.87195-8.4319.76698-1.5053 1.99085-2.7292 3.49615-3.4962C14.0794 36 16.3196 36 20.8 36H71.2C75.6804 36 77.9206 36 79.6319 36.8719 81.1372 37.6389 82.3611 38.8628 83.1281 40.3681 84 42.0794 84 44.3196 84 48.8V61.2C84 65.6804 84 67.9206 83.1281 69.6319 82.3611 71.1372 81.1372 72.3611 79.6319 73.1281 77.9206 74 75.6804 74 71.2 74H20.8C16.3196 74 14.0794 74 12.3681 73.1281 10.8628 72.3611 9.63893 71.1372 8.87195 69.6319 8 67.9206 8 65.6804 8 61.2V48.8z" fill="#12161c"/><path d="M8 90.8C8 86.3196 8 84.0794 8.87195 82.3681 9.63893 80.8628 10.8628 79.6389 12.3681 78.8719 14.0794 78 16.3196 78 20.8 78H135.2C139.68 78 141.921 78 143.632 78.8719 145.137 79.6389 146.361 80.8628 147.128 82.3681 148 84.0794 148 86.3196 148 90.8v12.4c0 4.48.0 6.721-.872000000000014 8.432C146.361 113.137 145.137 114.361 143.632 115.128 141.921 116 139.68 116 135.2 116H20.8c-4.4804.0-6.7206.0-8.4319-.872C10.8628 114.361 9.63893 113.137 8.87195 111.632 8 109.921 8 107.68 8 103.2V90.8z" fill="#12161c"/><path d="M152 90.8C152 86.3196 152 84.0794 152.872 82.3681 153.639 80.8628 154.863 79.6389 156.368 78.8719 158.079 78 160.32 78 164.8 78H280.2C284.68 78 286.921 78 288.632 78.8719 290.137 79.6389 291.361 80.8628 292.128 82.3681 293 84.0794 293 86.3196 293 90.8v12.4c0 4.48.0 6.721-.872000000000014 8.432C291.361 113.137 290.137 114.361 288.632 115.128 286.921 116 284.68 116 280.2 116H164.8C160.32 116 158.079 116 156.368 115.128 154.863 114.361 153.639 113.137 152.872 111.632 152 109.921 152 107.68 152 103.2V90.8z" fill="#12161c"/><path d="M88 48.8C88 44.3196 88 42.0794 88.8719 40.3681 89.6389 38.8628 90.8628 37.6389 92.3681 36.8719 94.0794 36 96.3196 36 100.8 36h78.4C183.68 36 185.921 36 187.632 36.8719 189.137 37.6389 190.361 38.8628 191.128 40.3681 192 42.0794 192 44.3196 192 48.8V61.2C192 65.6804 192 67.9206 191.128 69.6319 190.361 71.1372 189.137 72.3611 187.632 73.1281 185.921 74 183.68 74 179.2 74H100.8C96.3196 74 94.0794 74 92.3681 73.1281 90.8628 72.3611 89.6389 71.1372 88.8719 69.6319 88 67.9206 88 65.6804 88 61.2V48.8z" fill="#12161c"/><path d="M196 48.8C196 44.3196 196 42.0794 196.872 40.3681 197.639 38.8628 198.863 37.6389 200.368 36.8719 202.079 36 204.32 36 208.8 36h71.4C284.68 36 286.921 36 288.632 36.8719 290.137 37.6389 291.361 38.8628 292.128 40.3681 293 42.0794 293 44.3196 293 48.8V61.2C293 65.6804 293 67.9206 292.128 69.6319 291.361 71.1372 290.137 72.3611 288.632 73.1281 286.921 74 284.68 74 280.2 74H208.8C204.32 74 202.079 74 200.368 73.1281 198.863 72.3611 197.639 71.1372 196.872 69.6319 196 67.9206 196 65.6804 196 61.2V48.8z" fill="#12161c"/><path d="M8 136.8C8 132.32 8 130.079 8.87195 128.368c.76698-1.505 1.99085-2.729 3.49615-3.496C14.0794 124 16.3196 124 20.8 124H166.2C170.68 124 172.921 124 174.632 124.872 176.137 125.639 177.361 126.863 178.128 128.368 179 130.079 179 132.32 179 136.8V239.2C179 243.68 179 245.921 178.128 247.632 177.361 249.137 176.137 250.361 174.632 251.128 172.921 252 170.68 252 166.2 252H20.8C16.3196 252 14.0794 252 12.3681 251.128 10.8628 250.361 9.63893 249.137 8.87195 247.632 8 245.921 8 243.68 8 239.2V136.8z" fill="#29313a"/><path d="M190 139C190 135.134 193.134 132 197 132v0C200.866 132 204 135.134 204 139v0C204 142.866 200.866 146 197 146v0C193.134 146 190 142.866 190 139v0z" fill="#ff8a1f"/><path d="M190 159C190 155.134 193.134 152 197 152v0C200.866 152 204 155.134 204 159v0C204 162.866 200.866 166 197 166v0C193.134 166 190 162.866 190 159v0z" fill="#008b73"/><path d="M190 179C190 175.134 193.134 172 197 172v0C200.866 172 204 175.134 204 179v0C204 182.866 200.866 186 197 186v0C193.134 186 190 182.866 190 179v0z" fill="#fef74e"/><path d="M190 199C190 195.134 193.134 192 197 192v0C200.866 192 204 195.134 204 199v0C204 202.866 200.866 206 197 206v0C193.134 206 190 202.866 190 199v0z" fill="#5241ad"/><path d="M16 47c0-1.6569 1.3431-3 3-3H36c1.6569.0 3 1.3431 3 3v0c0 1.6569-1.3431 3-3 3H19c-1.6569.0-3-1.3431-3-3v0z" fill="#232a32"/><path d="M190 219C190 215.134 193.134 212 197 212v0C200.866 212 204 215.134 204 219v0C204 222.866 200.866 226 197 226v0C193.134 226 190 222.866 190 219v0z" fill="#ea468b"/><path d="M16 89C16 87.3431 17.3431 86 19 86H55C56.6569 86 58 87.3431 58 89v0C58 90.6569 56.6569 92 55 92H19C17.3431 92 16 90.6569 16 89v0z" fill="#232a32"/><path d="M161 89C161 87.3431 162.343 86 164 86h36C201.657 86 203 87.3431 203 89v0C203 90.6569 201.657 92 2e2 92H164C162.343 92 161 90.6569 161 89v0z" fill="#232a32"/><path d="M16 20c0-1.6569 1.3431-3 3-3H55c1.6569.0 3 1.3431 3 3v0c0 1.6569-1.3431 3-3 3H19c-1.6569.0-3-1.3431-3-3v0z" fill="#3e4854"/><path d="M62 59c0-1.6569 1.3431-3 3-3h5C71.6569 56 73 57.3431 73 59v0C73 60.6569 71.6569 62 70 62H65c-1.6569.0-3-1.3431-3-3v0z" fill="#ff646d"/><path d="M16 61c0-2.7614 2.2386-5 5-5H53c2.7614.0 5 2.2386 5 5v0c0 2.7614-2.2386 5-5 5H21c-2.7614.0-5-2.2386-5-5v0z" fill="#2c353f"/><path d="M96 47C96 45.3431 97.3431 44 99 44h17c1.657.0 3 1.3431 3 3v0c0 1.6569-1.343 3-3 3H99C97.3431 50 96 48.6569 96 47v0z" fill="#232a32"/><path d="M16 103c0-2.761 2.2386-5 5-5H135c2.761.0 5 2.239 5 5v0c0 2.761-2.239 5-5 5H21c-2.7614.0-5-2.239-5-5v0z" fill="#2c353f"/><path d="M204 47C204 45.3431 205.343 44 207 44h17C225.657 44 227 45.3431 227 47v0C227 48.6569 225.657 50 224 50H207C205.343 50 204 48.6569 204 47v0z" fill="#232a32"/><path d="M161 103c0-2.761 2.239-5 5-5H280C282.761 98 285 100.239 285 103v0c0 2.761-2.23899999999998 5-5 5H166c-2.761.0-5-2.239-5-5v0z" fill="#2c353f"/><path d="M49 193H73v32C73 227.209 71.2091 229 69 229H53c-2.2091.0-4-1.791-4-4V193z" fill="#5a92e4"/><path d="M49 174H73v19H49V174z" fill="#6700e9"/><path d="M49 161c0-2.209 1.7909-4 4-4H69C71.2091 157 73 158.791 73 161v13H49V161z" fill="#78ddbf"/><path d="M81 176h24v49c0 2.209-1.791 4-4 4H85C82.7909 229 81 227.209 81 225V176z" fill="#5a92e4"/><path d="M81 163h24v13H81V163z" fill="#6700e9"/><path d="M81 136C81 133.791 82.7909 132 85 132h16c2.209.0 4 1.791 4 4v27H81V136z" fill="#78ddbf"/><path d="M113 215h24v10c0 2.209-1.791 4-4 4H117c-2.209.0-4-1.791-4-4V215z" fill="#5a92e4"/><path d="M113 210h24v5H113v-5z" fill="#6700e9"/><path d="M113 2e2c0-2.209 1.791-4 4-4h16c2.209.0 4 1.791 4 4v10H113V2e2z" fill="#78ddbf"/><path d="M145 207h24v18c0 2.209-1.791 4-4 4H149c-2.209.0-4-1.791-4-4V207z" fill="#5a92e4"/><path d="M145 192h24v15H145V192z" fill="#6700e9"/><path d="M145 164c0-2.209 1.791-4 4-4h16c2.209.0 4 1.791 4 4v28H145V164z" fill="#78ddbf"/><path d="M17 203H41v22c0 2.209-1.7909 4-4 4H21c-2.2091.0-4-1.791-4-4V203z" fill="#5a92e4"/><path d="M17 181H41v22H17V181z" fill="#6700e9"/><path d="M17 172c0-2.209 1.7909-4 4-4H37c2.2091.0 4 1.791 4 4v9H17v-9z" fill="#78ddbf"/><path d="M87 240C87 238.343 88.3431 237 90 237h6C97.6569 237 99 238.343 99 240v0C99 241.657 97.6569 243 96 243H90C88.3431 243 87 241.657 87 240v0z" fill="#3e4854"/><path d="M55 240C55 238.343 56.3431 237 58 237h6C65.6569 237 67 238.343 67 240v0C67 241.657 65.6569 243 64 243H58C56.3431 243 55 241.657 55 240v0z" fill="#3e4854"/><path d="M23 240C23 238.343 24.3431 237 26 237h6C33.6569 237 35 238.343 35 240v0C35 241.657 33.6569 243 32 243H26C24.3431 243 23 241.657 23 240v0z" fill="#3e4854"/><path d="M119 240c0-1.65700000000001 1.343-3 3-3h6C129.657 237 131 238.343 131 240v0C131 241.657 129.657 243 128 243h-6C120.343 243 119 241.657 119 240v0z" fill="#3e4854"/><path d="M151 240C151 238.343 152.343 237 154 237h6C161.657 237 163 238.343 163 240v0C163 241.657 161.657 243 160 243h-6C152.343 243 151 241.657 151 240v0z" fill="#3e4854"/><path d="M170 59C170 57.3431 171.343 56 173 56h5C179.657 56 181 57.3431 181 59v0C181 60.6569 179.657 62 178 62h-5C171.343 62 170 60.6569 170 59v0z" fill="#ff646d"/><path d="M274 59C274 57.3431 275.343 56 277 56h5C283.657 56 285 57.3431 285 59v0C285 60.6569 283.657 62 282 62h-5C275.343 62 274 60.6569 274 59v0z" fill="#12b886"/><path d="M96 61C96 58.2386 98.2386 56 101 56h26c2.761.0 5 2.2386 5 5v0c0 2.7614-2.239 5-5 5H101C98.2386 66 96 63.7614 96 61v0z" fill="#2c353f"/><path d="M140 61c0-2.7614 2.239-5 5-5h12c2.761.0 5 2.2386 5 5v0c0 2.7614-2.239 5-5 5H145c-2.761.0-5-2.2386-5-5v0z" fill="#2c353f"/><path d="M204 61c0-2.7614 2.239-5 5-5h55C266.761 56 269 58.2386 269 61v0C269 63.7614 266.761 66 264 66H209c-2.761.0-5-2.2386-5-5v0z" fill="#2c353f"/><path d="M220 20C220 15.5817 223.582 12 228 12h11C243.418 12 247 15.5817 247 20v0C247 24.4183 243.418 28 239 28H228C223.582 28 220 24.4183 220 20v0z" fill="#9488f0"/><path d="M252 20c0-2.2091 1.791-4 4-4h7c2.209.0 4 1.7909 4 4v0c0 2.2091-1.791 4-4 4h-7c-2.209.0-4-1.7909-4-4v0z" fill="#3e4854"/><path d="M273 20c0-2.2091 1.791-4 4-4h7c2.209.0 4 1.7909 4 4v0c0 2.2091-1.791 4-4 4h-7c-2.209.0-4-1.7909-4-4v0z" fill="#3e4854"/><path d="M209 242C209 237.582 212.582 234 217 234h2C223.418 234 227 237.582 227 242v2C227 248.418 223.418 252 219 252h-2C212.582 252 209 248.418 209 244v-2z" fill="#9488f0"/><path d="M235 243C235 239.686 237.686 237 241 237v0C244.314 237 247 239.686 247 243v0C247 246.314 244.314 249 241 249v0C237.686 249 235 246.314 235 243v0z" fill="#29313a"/><path d="M255 243C255 239.686 257.686 237 261 237v0C264.314 237 267 239.686 267 243v0C267 246.314 264.314 249 261 249v0C257.686 249 255 246.314 255 243v0z" fill="#29313a"/><path d="M208 139c0-2.209 1.791-4 4-4h13c2.209.0 4 1.791 4 4v0c0 2.209-1.791 4-4 4H212c-2.209.0-4-1.791-4-4v0z" fill="#29313a"/><path d="M239 134C239 132.895 239.895 132 241 132v0C242.105 132 243 132.895 243 134v10C243 145.105 242.105 146 241 146v0C239.895 146 239 145.105 239 144V134z" fill="#858585"/><path d="M239 154C239 152.895 239.895 152 241 152v0C242.105 152 243 152.895 243 154v10C243 165.105 242.105 166 241 166v0C239.895 166 239 165.105 239 164V154z" fill="#858585"/><path d="M239 174C239 172.895 239.895 172 241 172v0C242.105 172 243 172.895 243 174v10C243 185.105 242.105 186 241 186v0C239.895 186 239 185.105 239 184V174z" fill="#858585"/><path d="M239 194C239 192.895 239.895 192 241 192v0C242.105 192 243 192.895 243 194v10C243 205.105 242.105 206 241 206v0C239.895 206 239 205.105 239 204V194z" fill="#858585"/><path d="M239 214C239 212.895 239.895 212 241 212v0C242.105 212 243 212.895 243 214v10C243 225.105 242.105 226 241 226v0C239.895 226 239 225.105 239 224V214z" fill="#858585"/><path d="M245 134C245 132.895 245.895 132 247 132v0C248.105 132 249 132.895 249 134v10C249 145.105 248.105 146 247 146v0C245.895 146 245 145.105 245 144V134z" fill="#ce8546"/><path d="M245 154C245 152.895 245.895 152 247 152v0C248.105 152 249 152.895 249 154v10C249 165.105 248.105 166 247 166v0C245.895 166 245 165.105 245 164V154z" fill="#ce8546"/><path d="M245 174C245 172.895 245.895 172 247 172v0C248.105 172 249 172.895 249 174v10C249 185.105 248.105 186 247 186v0C245.895 186 245 185.105 245 184V174z" fill="#ce8546"/><path d="M245 194C245 192.895 245.895 192 247 192v0C248.105 192 249 192.895 249 194v10C249 205.105 248.105 206 247 206v0C245.895 206 245 205.105 245 204V194z" fill="#ce8546"/><path d="M251 134C251 132.895 251.895 132 253 132v0C254.105 132 255 132.895 255 134v10C255 145.105 254.105 146 253 146v0C251.895 146 251 145.105 251 144V134z" fill="#008b73"/><path d="M251 154C251 152.895 251.895 152 253 152v0C254.105 152 255 152.895 255 154v10C255 165.105 254.105 166 253 166v0C251.895 166 251 165.105 251 164V154z" fill="#008b73"/><path d="M251 174C251 172.895 251.895 172 253 172v0C254.105 172 255 172.895 255 174v10C255 185.105 254.105 186 253 186v0C251.895 186 251 185.105 251 184V174z" fill="#008b73"/><path d="M251 214C251 212.895 251.895 212 253 212v0C254.105 212 255 212.895 255 214v10C255 225.105 254.105 226 253 226v0C251.895 226 251 225.105 251 224V214z" fill="#fd0026"/><path d="M257 134C257 132.895 257.895 132 259 132v0C260.105 132 261 132.895 261 134v10C261 145.105 260.105 146 259 146v0C257.895 146 257 145.105 257 144V134z" fill="#fd0026"/><path d="M257 174C257 172.895 257.895 172 259 172v0C260.105 172 261 172.895 261 174v10C261 185.105 260.105 186 259 186v0C257.895 186 257 185.105 257 184V174z" fill="#0052ff"/><path d="M257 194C257 192.895 257.895 192 259 192v0C260.105 192 261 192.895 261 194v10C261 205.105 260.105 206 259 206v0C257.895 206 257 205.105 257 204V194z" fill="#fd0026"/><path d="M257 214C257 212.895 257.895 212 259 212v0C260.105 212 261 212.895 261 214v10C261 225.105 260.105 226 259 226v0C257.895 226 257 225.105 257 224V214z" fill="#0052ff"/><path d="M263 134C263 132.895 263.895 132 265 132v0C266.105 132 267 132.895 267 134v10C267 145.105 266.105 146 265 146v0C263.895 146 263 145.105 263 144V134z" fill="#b592ff"/><path d="M263 154C263 152.895 263.895 152 265 152v0C266.105 152 267 152.895 267 154v10C267 165.105 266.105 166 265 166v0C263.895 166 263 165.105 263 164V154z" fill="#b592ff"/><path d="M263 194C263 192.895 263.895 192 265 192v0C266.105 192 267 192.895 267 194v10C267 205.105 266.105 206 265 206v0C263.895 206 263 205.105 263 204V194z" fill="#0052ff"/><path d="M208 159c0-2.209 1.791-4 4-4h4c2.209.0 4 1.791 4 4v0c0 2.209-1.791 4-4 4h-4c-2.209.0-4-1.791-4-4v0z" fill="#29313a"/><path d="M208 179c0-2.209 1.791-4 4-4h13c2.209.0 4 1.791 4 4v0c0 2.209-1.791 4-4 4H212c-2.209.0-4-1.791-4-4v0z" fill="#29313a"/><path d="M208 199c0-2.209 1.791-4 4-4h9c2.209.0 4 1.791 4 4v0c0 2.209-1.791 4-4 4h-9c-2.209.0-4-1.791-4-4v0z" fill="#29313a"/><path d="M208 219c0-2.209 1.791-4 4-4h4c2.209.0 4 1.791 4 4v0c0 2.209-1.791 4-4 4h-4c-2.209.0-4-1.791-4-4v0z" fill="#29313a"/><path d="M277 139c0-2.209 1.791-4 4-4h8c2.209.0 4 1.791 4 4v0c0 2.209-1.791 4-4 4h-8c-2.209.0-4-1.791-4-4v0z" fill="#3e4854"/><path d="M277 159c0-2.209 1.791-4 4-4h8c2.209.0 4 1.791 4 4v0c0 2.209-1.791 4-4 4h-8c-2.209.0-4-1.791-4-4v0z" fill="#3e4854"/><path d="M275 179c0-2.209 1.791-4 4-4h10c2.209.0 4 1.791 4 4v0c0 2.209-1.791 4-4 4H279c-2.209.0-4-1.791-4-4v0z" fill="#3e4854"/><path d="M280 199c0-2.209 1.791-4 4-4h5c2.209.0 4 1.791 4 4v0c0 2.209-1.791 4-4 4h-5c-2.209.0-4-1.791-4-4v0z" fill="#3e4854"/><path d="M272 219c0-2.209 1.791-4 4-4h13c2.209.0 4 1.791 4 4v0c0 2.209-1.791 4-4 4H276c-2.209.0-4-1.791-4-4v0z" fill="#3e4854"/></svg>