<svg width="300" height="260" viewBox="0 0 300 260" fill="none" xmlns="http://www.w3.org/2000/svg"><rect width="300" height="260" rx="16" fill="#1e242c"/><path d="M99 20.8C99 16.3196 99 14.0794 99.8719 12.3681 100.639 10.8628 101.863 9.63893 103.368 8.87195 105.079 8 107.32 8 111.8 8h37.4C153.68 8 155.921 8 157.632 8.87195 159.137 9.63893 160.361 10.8628 161.128 12.3681 162 14.0794 162 16.3196 162 20.8V33.2C162 37.6804 162 39.9206 161.128 41.6319 160.361 43.1372 159.137 44.3611 157.632 45.1281 155.921 46 153.68 46 149.2 46H111.8C107.32 46 105.079 46 103.368 45.1281 101.863 44.3611 100.639 43.1372 99.8719 41.6319 99 39.9206 99 37.6804 99 33.2V20.8z" fill="#12161c"/><path d="M8 20.8c0-4.4804.0-6.7206.87195-8.4319.76698-1.5053 1.99085-2.72917 3.49615-3.49615C14.0794 8 16.3196 8 20.8 8H82.2C86.6804 8 88.9206 8 90.6319 8.87195 92.1372 9.63893 93.3611 10.8628 94.1281 12.3681 95 14.0794 95 16.3196 95 20.8V33.2C95 37.6804 95 39.9206 94.1281 41.6319 93.3611 43.1372 92.1372 44.3611 90.6319 45.1281 88.9206 46 86.6804 46 82.2 46H20.8C16.3196 46 14.0794 46 12.3681 45.1281 10.8628 44.3611 9.63893 43.1372 8.87195 41.6319 8 39.9206 8 37.6804 8 33.2V20.8z" fill="#12161c"/><path d="M166 20.8C166 16.3196 166 14.0794 166.872 12.3681 167.639 10.8628 168.863 9.63893 170.368 8.87195 172.079 8 174.32 8 178.8 8H279.2C283.68 8 285.921 8 287.632 8.87195 289.137 9.63893 290.361 10.8628 291.128 12.3681 292 14.0794 292 16.3196 292 20.8V33.2C292 37.6804 292 39.9206 291.128 41.6319 290.361 43.1372 289.137 44.3611 287.632 45.1281 285.921 46 283.68 46 279.2 46H178.8C174.32 46 172.079 46 170.368 45.1281 168.863 44.3611 167.639 43.1372 166.872 41.6319 166 39.9206 166 37.6804 166 33.2V20.8z" fill="#12161c"/><path d="M131 145c0-2.209 1.791-4 4-4h30c2.209.0 4 1.791 4 4v6c0 2.209-1.791 4-4 4H135c-2.209.0-4-1.791-4-4v-6z" fill="#46a6ff"/><path d="M131 145c0-2.209 1.791-4 4-4h30c2.209.0 4 1.791 4 4v0H131v0z" fill="#6b7a8a"/><path d="M181 69C181 66.7909 182.791 65 185 65h30C217.209 65 219 66.7909 219 69v82c0 2.209-1.791 4-4 4H185c-2.209.0-4-1.791-4-4V69z" fill="#46a6ff"/><path d="M231 109c0-2.209 1.791-4 4-4h30c2.209.0 4 1.791 4 4v42c0 2.209-1.791 4-4 4H235c-2.209.0-4-1.791-4-4V109z" fill="#46a6ff"/><path d="M181 57c0-2.2091 1.791-4 4-4h30c2.209.0 4 1.7909 4 4V67H181V57z" fill="#6b7a8a"/><path d="M231 109c0-2.209 1.791-4 4-4h30c2.209.0 4 1.791 4 4v10H231V109z" fill="#6b7a8a"/><path d="M81 115C81 112.791 82.7909 111 85 111h30c2.209.0 4 1.791 4 4v36c0 2.209-1.791 4-4 4H85C82.7909 155 81 153.209 81 151V115z" fill="#46a6ff"/><path d="M81 98C81 95.7909 82.7909 94 85 94h30C117.209 94 119 95.7909 119 98v25H81V98z" fill="#6b7a8a"/><path d="M31 84C31 81.7909 32.7909 80 35 80H65C67.2091 80 69 81.7909 69 84v67C69 153.209 67.2091 155 65 155H35c-2.2091.0-4-1.791-4-4V84z" fill="#46a6ff"/><path d="M31 84C31 81.7909 32.7909 80 35 80H65C67.2091 80 69 81.7909 69 84v17H31V84z" fill="#6b7a8a"/><path d="M141 165C141 163.343 142.343 162 144 162h12C157.657 162 159 163.343 159 165v0C159 166.657 157.657 168 156 168H144C142.343 168 141 166.657 141 165v0z" fill="#29313a"/><path d="M91 165C91 163.343 92.3431 162 94 162h12c1.657.0 3 1.34299999999999 3 3v0c0 1.65700000000001-1.343 3-3 3H94C92.3431 168 91 166.657 91 165v0z" fill="#29313a"/><path d="M41 165C41 163.343 42.3431 162 44 162H56C57.6569 162 59 163.343 59 165v0C59 166.657 57.6569 168 56 168H44C42.3431 168 41 166.657 41 165v0z" fill="#29313a"/><path d="M191 165C191 163.343 192.343 162 194 162h12C207.657 162 209 163.343 209 165v0C209 166.657 207.657 168 206 168H194C192.343 168 191 166.657 191 165v0z" fill="#29313a"/><path d="M241 165C241 163.343 242.343 162 244 162h12C257.657 162 259 163.343 259 165v0C259 166.657 257.657 168 256 168H244C242.343 168 241 166.657 241 165v0z" fill="#29313a"/><path d="M13 191c0-2.209 1.7909-4 4-4H42c2.2091.0 4 1.791 4 4v0c0 2.209-1.7909 4-4 4H17c-2.2091.0-4-1.791-4-4v0z" fill="#181d23"/><path d="M13 207c0-2.209 1.7909-4 4-4H57c2.2091.0 4 1.791 4 4v0c0 2.209-1.7909 4-4 4H17c-2.2091.0-4-1.791-4-4v0z" fill="#181d23"/><path d="M13 223c0-2.209 1.7909-4 4-4H27c2.2091.0 4 1.791 4 4v0c0 2.209-1.7909 4-4 4H17c-2.2091.0-4-1.791-4-4v0z" fill="#181d23"/><path d="M13 239c0-2.209 1.7909-4 4-4H40c2.2091.0 4 1.791 4 4v0c0 2.209-1.7909 4-4 4H17c-2.2091.0-4-1.791-4-4v0z" fill="#181d23"/><path d="M244 207c0-2.209 1.791-4 4-4h29c2.209.0 4 1.791 4 4v0c0 2.209-1.791 4-4 4H248c-2.209.0-4-1.791-4-4v0z" fill="#12b886"/><path d="M257 191c0-2.209 1.791-4 4-4h16c2.209.0 4 1.791 4 4v0c0 2.209-1.791 4-4 4H261c-2.209.0-4-1.791-4-4v0z" fill="#ff646d"/><path d="M97 207C97 204.791 98.7909 203 101 203h70c2.209.0 4 1.791 4 4v0c0 2.209-1.791 4-4 4H101C98.7909 211 97 209.209 97 207v0z" fill="#2c353f"/><path d="M269 223c0-2.209 1.791-4 4-4h4c2.209.0 4 1.791 4 4v0c0 2.209-1.791 4-4 4h-4c-2.209.0-4-1.791-4-4v0z" fill="#ff646d"/><path d="M259 239c0-2.209 1.791-4 4-4h14c2.209.0 4 1.791 4 4v0c0 2.209-1.791 4-4 4H263c-2.209.0-4-1.791-4-4v0z" fill="#12b886"/><path d="M97 191C97 188.791 98.7909 187 101 187h93c2.209.0 4 1.791 4 4v0c0 2.209-1.791 4-4 4H101C98.7909 195 97 193.209 97 191v0z" fill="#2c353f"/><path d="M97 223C97 220.791 98.7909 219 101 219h31c2.209.0 4 1.791 4 4v0c0 2.209-1.791 4-4 4H101C98.7909 227 97 225.209 97 223v0z" fill="#2c353f"/><path d="M97 239C97 236.791 98.7909 235 101 235h67c2.209.0 4 1.791 4 4v0c0 2.209-1.791 4-4 4H101C98.7909 243 97 241.209 97 239v0z" fill="#2c353f"/><path d="M107 18c0-1.6569 1.343-3 3-3h14c1.657.0 3 1.3431 3 3v0c0 1.6569-1.343 3-3 3H110c-1.657.0-3-1.3431-3-3v0z" fill="#232a32"/><path d="M174 18C174 16.3431 175.343 15 177 15h14C192.657 15 194 16.3431 194 18v0C194 19.6569 192.657 21 191 21H177C175.343 21 174 19.6569 174 18v0z" fill="#232a32"/><path d="M107 33.5c0-3.0376 2.462-5.5 5.5-5.5h29C144.538 28 147 30.4624 147 33.5v0C147 36.5376 144.538 39 141.5 39h-29c-3.038.0-5.5-2.4624-5.5-5.5v0z" fill="#5241ad"/><path d="M16 18c0-1.6569 1.3431-3 3-3H50c1.6569.0 3 1.3431 3 3v0c0 1.6569-1.3431 3-3 3H19c-1.6569.0-3-1.3431-3-3v0z" fill="#232a32"/><path d="M16 33.5c0-3.0376 2.4624-5.5 5.5-5.5h52c3.0376.0 5.5 2.4624 5.5 5.5v0c0 3.0376-2.4624 5.5-5.5 5.5h-52c-3.0376.0-5.5-2.4624-5.5-5.5v0z" fill="#00aee9"/><path d="M175 33.5C175 30.4624 177.462 28 180.5 28h95C278.538 28 281 30.4624 281 33.5v0C281 36.5376 278.538 39 275.5 39h-95C177.462 39 175 36.5376 175 33.5v0z" fill="#f55c5d"/><path d="M174 33.5C174 30.4624 176.462 28 179.5 28H210V39H179.5C176.462 39 174 36.5376 174 33.5v0z" fill="#00cebb"/><path d="M210 28h15V39H210V28z" fill="#ce8546"/><path d="M225 28h31V39H225V28z" fill="#5241ad"/></svg>