<svg width="300" height="260" viewBox="0 0 300 260" fill="none" xmlns="http://www.w3.org/2000/svg"><path d="M0 25.6C0 16.6392.0 12.1587 1.7439 8.73615 3.27787 5.72556 5.72556 3.27787 8.73615 1.7439 12.1587.0 16.6392.0 25.6.0H272.4C281.361.0 285.841.0 289.264 1.7439 292.274 3.27787 294.722 5.72556 296.256 8.73615 298 12.1587 298 16.6392 298 25.6v78.8C298 113.361 298 117.841 296.256 121.264 294.722 124.274 292.274 126.722 289.264 128.256 285.841 130 281.361 130 272.4 130H25.6c-8.9608.0-13.4413.0-16.86385-1.744C5.72556 126.722 3.27787 124.274 1.7439 121.264.0 117.841.0 113.361.0 104.4V25.6z" fill="#12161c"/><path d="M268 38.5C268 37.1193 269.119 36 270.5 36h13C284.881 36 286 37.1193 286 38.5v0C286 39.8807 284.881 41 283.5 41h-13C269.119 41 268 39.8807 268 38.5v0z" fill="#1e242c"/><path d="M12 38.5c0-.2761.2239-.5.5-.5h242c.27600000000001.0.5.2239.5.5v0c0 .2761-.22399999999999.5-.5.5H12.5c-.2761.0-.5-.2239-.5-.5v0z" fill="#1e242c"/><path d="M268 61.5C268 60.1193 269.119 59 270.5 59h13C284.881 59 286 60.1193 286 61.5v0C286 62.8807 284.881 64 283.5 64h-13C269.119 64 268 62.8807 268 61.5v0z" fill="#1e242c"/><path d="M268 84.5C268 83.1193 269.119 82 270.5 82h13C284.881 82 286 83.1193 286 84.5v0C286 85.8807 284.881 87 283.5 87h-13C269.119 87 268 85.8807 268 84.5v0z" fill="#1e242c"/><path d="M268 107.5C268 106.119 269.119 105 270.5 105h13C284.881 105 286 106.119 286 107.5v0C286 108.881 284.881 110 283.5 110h-13C269.119 110 268 108.881 268 107.5v0z" fill="#1e242c"/><path d="M225 118.5c0-1.381 1.119-2.5 2.5-2.5h7c1.381.0 2.5 1.119 2.5 2.5v0c0 1.381-1.119 2.5-2.5 2.5h-7c-1.381.0-2.5-1.119-2.5-2.5v0z" fill="#1e242c"/><path d="M185 118.5c0-1.381 1.119-2.5 2.5-2.5h7c1.381.0 2.5 1.119 2.5 2.5v0c0 1.381-1.119 2.5-2.5 2.5h-7c-1.381.0-2.5-1.119-2.5-2.5v0z" fill="#1e242c"/><path d="M145 118.5c0-1.381 1.119-2.5 2.5-2.5h7c1.381.0 2.5 1.119 2.5 2.5v0c0 1.381-1.119 2.5-2.5 2.5h-7c-1.381.0-2.5-1.119-2.5-2.5v0z" fill="#1e242c"/><path d="M105 118.5c0-1.381 1.119-2.5 2.5-2.5h7c1.381.0 2.5 1.119 2.5 2.5v0c0 1.381-1.119 2.5-2.5 2.5h-7c-1.381.0-2.5-1.119-2.5-2.5v0z" fill="#1e242c"/><path d="M65 118.5c0-1.381 1.1193-2.5 2.5-2.5h7c1.3807.0 2.5 1.119 2.5 2.5v0c0 1.381-1.1193 2.5-2.5 2.5h-7c-1.3807.0-2.5-1.119-2.5-2.5v0z" fill="#1e242c"/><path d="M25 118.5c0-1.381 1.1193-2.5 2.5-2.5h7c1.3807.0 2.5 1.119 2.5 2.5v0c0 1.381-1.1193 2.5-2.5 2.5h-7c-1.3807.0-2.5-1.119-2.5-2.5v0z" fill="#1e242c"/><path d="M12 61.5c0-.2761.2239-.5.5-.5h242c.27600000000001.0.5.2239.5.5v0c0 .2761-.22399999999999.5-.5.5H12.5c-.2761.0-.5-.2239-.5-.5v0z" fill="#1e242c"/><path d="M12 84.5c0-.2761.2239-.5.5-.5h242c.27600000000001.0.5.2239.5.5v0c0 .2761-.22399999999999.5-.5.5H12.5c-.2761.0-.5-.2239-.5-.5v0z" fill="#1e242c"/><path d="M12 107.5C12 107.224 12.2239 107 12.5 107h242C254.776 107 255 107.224 255 107.5v0C255 107.776 254.776 108 254.5 108H12.5C12.2239 108 12 107.776 12 107.5v0z" fill="#1e242c"/><path d="M12 16c0-2.2091 1.7909-4 4-4H59c2.2091.0 4 1.7909 4 4v0c0 2.2091-1.7909 4-4 4H16c-2.2091.0-4-1.7909-4-4v0z" fill="#3e4854"/><path d="M67 16C67 13.7909 68.7909 12 71 12H98c2.209.0 4 1.7909 4 4v0c0 2.2091-1.791 4-4 4H71C68.7909 20 67 18.2091 67 16v0z" fill="#1e242c"/><path d="M277 16c0-2.2091 1.791-4 4-4h1c2.209.0 4 1.7909 4 4v0c0 2.2091-1.791 4-4 4h-1c-2.209.0-4-1.7909-4-4v0z" fill="#1e242c"/><path d="M0 163.6C0 154.639.0 150.159 1.7439 146.736 3.27787 143.726 5.72556 141.278 8.73615 139.744 12.1587 138 16.6392 138 25.6 138H154.4C163.361 138 167.841 138 171.264 139.744 174.274 141.278 176.722 143.726 178.256 146.736 180 150.159 180 154.639 180 163.6v70.8C180 243.361 180 247.841 178.256 251.264 176.722 254.274 174.274 256.722 171.264 258.256 167.841 260 163.361 260 154.4 260H25.6C16.6392 260 12.1587 260 8.73615 258.256 5.72556 256.722 3.27787 254.274 1.7439 251.264.0 247.841.0 243.361.0 234.4V163.6z" fill="#1e242c"/><path fill-rule="evenodd" clip-rule="evenodd" d="M62.5 184C51.1782 184 42 193.178 42 204.5S51.1782 225 62.5 225 83 215.822 83 204.5 73.8218 184 62.5 184zM26 204.5C26 184.342 42.3416 168 62.5 168S99 184.342 99 204.5 82.6584 241 62.5 241 26 224.658 26 204.5z" fill="#ff646d"/><path fill-rule="evenodd" clip-rule="evenodd" d="M62.5 225c11.3218.0 20.5-9.178 20.5-20.5H99C99 224.658 82.6584 241 62.5 241V225z" fill="#00aee9"/><path fill-rule="evenodd" clip-rule="evenodd" d="M76.1648 219.782C80.3715 216.017 83.0001 210.571 83.0001 204.5h16c0 10.811-4.7102 20.532-12.1647 27.204L76.1648 219.782z" fill="#129a6d"/><path fill-rule="evenodd" clip-rule="evenodd" d="M83 204.5c0-11.322-9.1782-20.5-20.5-20.5V168C82.6584 168 99 184.342 99 204.5H83z" fill="#afa5fb"/><path fill-rule="evenodd" clip-rule="evenodd" d="M79.4717 216.003C81.6988 212.726 82.9999 208.777 82.9999 204.5h16C98.9999 212.085 96.6778 219.151 92.7048 224.997L79.4717 216.003z" fill="#ffbc52"/><path d="M188 228.6C188 219.639 188 215.159 189.744 211.736 191.278 208.726 193.726 206.278 196.736 204.744 200.159 203 204.639 203 213.6 203h58.8C281.361 203 285.841 203 289.264 204.744 292.274 206.278 294.722 208.726 296.256 211.736 298 215.159 298 219.639 298 228.6V234.4C298 243.361 298 247.841 296.256 251.264 294.722 254.274 292.274 256.722 289.264 258.256 285.841 260 281.361 260 272.4 260H213.6C204.639 260 200.159 260 196.736 258.256 193.726 256.722 191.278 254.274 189.744 251.264 188 247.841 188 243.361 188 234.4V228.6z" fill="#1e242c"/><path d="M188 163.6C188 154.639 188 150.159 189.744 146.736 191.278 143.726 193.726 141.278 196.736 139.744 200.159 138 204.639 138 213.6 138h58.8C281.361 138 285.841 138 289.264 139.744 292.274 141.278 294.722 143.726 296.256 146.736 298 150.159 298 154.639 298 163.6V169.4C298 178.361 298 182.841 296.256 186.264 294.722 189.274 292.274 191.722 289.264 193.256 285.841 195 281.361 195 272.4 195H213.6C204.639 195 200.159 195 196.736 193.256 193.726 191.722 191.278 189.274 189.744 186.264 188 182.841 188 178.361 188 169.4V163.6z" fill="#1e242c"/><path d="M119 174c0-2.209 1.791-4 4-4v0c2.209.0 4 1.791 4 4v0c0 2.209-1.791 4-4 4v0c-2.209.0-4-1.791-4-4v0z" fill="#ff646d"/><path d="M119 188c0-2.209 1.791-4 4-4v0c2.209.0 4 1.791 4 4v0c0 2.209-1.791 4-4 4v0c-2.209.0-4-1.791-4-4v0z" fill="#afa5fb"/><path d="M119 202c0-2.209 1.791-4 4-4v0c2.209.0 4 1.791 4 4v0c0 2.209-1.791 4-4 4v0c-2.209.0-4-1.791-4-4v0z" fill="#ffbc52"/><path d="M119 216c0-2.209 1.791-4 4-4v0c2.209.0 4 1.791 4 4v0c0 2.209-1.791 4-4 4v0c-2.209.0-4-1.791-4-4v0z" fill="#129a6d"/><path d="M119 230c0-2.209 1.791-4 4-4v0c2.209.0 4 1.791 4 4v0c0 2.209-1.791 4-4 4v0c-2.209.0-4-1.791-4-4v0z" fill="#00aee9"/><path d="M132 174C132 172.343 133.343 171 135 171h21C157.657 171 159 172.343 159 174v0C159 175.657 157.657 177 156 177H135C133.343 177 132 175.657 132 174v0z" fill="#29313a"/><path d="M118 154c0-1.65700000000001 1.343-3 3-3h35C157.657 151 159 152.343 159 154v0C159 155.657 157.657 157 156 157H121C119.343 157 118 155.657 118 154v0z" fill="#2c353f"/><path d="M202 154C202 152.343 203.343 151 205 151h35C241.657 151 243 152.343 243 154v0C243 155.657 241.657 157 240 157H205C203.343 157 202 155.657 202 154v0z" fill="#2c353f"/><path d="M202 219C202 217.343 203.343 216 205 216h25C231.657 216 233 217.343 233 219v0C233 220.657 231.657 222 230 222H205C203.343 222 202 220.657 202 219v0z" fill="#2c353f"/><path d="M12 238C12 236.343 13.3431 235 15 235h5C21.6569 235 23 236.343 23 238v0C23 239.657 21.6569 241 20 241H15C13.3431 241 12 239.657 12 238v0z" fill="#2c353f"/><path d="M132 188C132 186.343 133.343 185 135 185h9C145.657 185 147 186.343 147 188v0C147 189.657 145.657 191 144 191h-9C133.343 191 132 189.657 132 188v0z" fill="#29313a"/><path d="M12 154c0-2.209 1.7909-4 4-4H35c2.2091.0 4 1.791 4 4v0c0 2.209-1.7909 4-4 4H16c-2.2091.0-4-1.791-4-4v0z" fill="#3e4854"/><path d="M132 202C132 200.343 133.343 199 135 199h31C167.657 199 169 200.343 169 202v0C169 203.657 167.657 205 166 205H135C133.343 205 132 203.657 132 202v0z" fill="#29313a"/><path d="M132 216C132 214.343 133.343 213 135 213h18C154.657 213 156 214.343 156 216v0C156 217.657 154.657 219 153 219H135C133.343 219 132 217.657 132 216v0z" fill="#29313a"/><path d="M202 174C202 169.582 205.582 166 210 166h40C254.418 166 258 169.582 258 174v0C258 178.418 254.418 182 250 182H210C205.582 182 202 178.418 202 174v0z" fill="#3e4854"/><path d="M266 166C266 164.343 267.343 163 269 163h11C281.657 163 283 164.343 283 166v0C283 167.657 281.657 169 280 169H269C267.343 169 266 167.657 266 166v0z" fill="#12b886"/><path d="M132 230C132 228.343 133.343 227 135 227h24C160.657 227 162 228.343 162 230v0C162 231.657 160.657 233 159 233H135C133.343 233 132 231.657 132 230v0z" fill="#29313a"/><path d="M202 239C202 234.582 205.582 231 210 231h26C240.418 231 244 234.582 244 239v0C244 243.418 240.418 247 236 247H210C205.582 247 202 243.418 202 239v0z" fill="#3e4854"/><path d="M250 231C250 229.343 251.343 228 253 228h16C270.657 228 272 229.343 272 231v0C272 232.657 270.657 234 269 234H253C251.343 234 250 232.657 250 231v0z" fill="#ff646d"/><path fill-rule="evenodd" clip-rule="evenodd" d="M218.56 95.7743C210.244 93.4369 203.138 91.4395 192.127 92.1423 173.736 93.3164 165.044 94.5589 155.323 96.0085 154.961 96.0624 154.598 96.1167 154.233 96.1713 144.729 97.5905 133.898 99.2078 112.177 101.139 90.2805 103.085 79.6842 100.258 67.9004 97.1136 66.619 96.7717 65.3236 96.4261 63.9981 96.0824 53.5834 93.3823 47.1254 93.8657 40.0757 95.0294 38.8107 95.2382 37.5203 95.4707 36.1813 95.7119 29.9501 96.8344 22.667 98.1464 12 98.1464v-4c10.2831.0 17.2008-1.2443 23.4093-2.361C36.7724 91.5402 38.1014 91.3012 39.4243 91.0828 46.8746 89.853 53.9166 89.3364 65.0019 92.2104 66.3426 92.558 67.6469 92.906 68.9318 93.2489c11.6398 3.1057 21.6971 5.7893 42.8912 3.9054C133.427 95.2339 144.173 93.6292 153.634 92.2162 154.002 92.1613 154.368 92.1066 154.733 92.0522 164.531 90.5911 173.339 89.3336 191.873 88.1505 203.57 87.4037 211.235 89.5592 219.568 91.9026 219.87 91.9876 220.174 92.0729 220.478 92.1582 229.084 94.573 238.76 97.1464 255 97.1464v3.9996C238.24 101.146 228.166 98.4698 219.397 96.0095 219.117 95.9308 218.838 95.8523 218.56 95.7743z" fill="#ff646d"/><path fill-rule="evenodd" clip-rule="evenodd" d="M25.5179 85.1923C22.4626 84.4594 18.2908 84 12 84V80C18.4592 80 22.9749 80.4689 26.4509 81.3026 29.9713 82.147 32.356 83.3496 34.5527 84.7093 35.2646 85.15 35.9517 85.6034 36.6521 86.0656 40.0965 88.3384 43.865 90.8252 52.502 93.0644 65.5888 96.4573 88.1998 96.129 111.615 91.5376 124.751 88.9619 135.84 90.6155 148.027 92.5335 148.317 92.5792 148.608 92.6251 148.9 92.6711 160.861 94.556 174.085 96.64 191.873 95.5045 210.087 94.3417 218.167 94.3759 236.084 94.4517 241.364 94.474 247.499 94.5 255 94.5v4C247.455 98.5 241.298 98.474 236.011 98.4517 218.139 98.3763 210.198 98.3427 192.127 99.4963 173.895 100.66 160.306 98.5182 148.33 96.6306 148.02 96.5819 147.712 96.5333 147.405 96.4849 135.197 94.5635 124.749 93.0384 112.385 95.4629c-23.6877 4.6451-46.9737 5.0801-60.8868 1.4735C42.1985 94.5254 37.9467 91.7163 34.4391 89.399 33.7577 88.9488 33.1043 88.5171 32.4474 88.1105c-1.9283-1.1936-3.9186-2.196-6.9295-2.9182z" fill="#12b886"/><path fill-rule="evenodd" clip-rule="evenodd" d="M126.888 70.7829C125.706 72.6996 124.209 74.3928 122.268 75.1998 120.666 75.8657 119.08 75.9946 117.554 75.5898 116.065 75.1946 114.79 74.3328 113.696 73.2797 111.557 71.2202 109.757 68.0743 108.105 64.863 107.497 63.6825 106.908 62.491 106.321 61.3025 105.244 59.1249 104.173 56.957 103 54.884 101.198 51.6978 99.3416 49.0916 97.2766 47.4948 96.0008 46.5083 94.88 46.0546 93.8936 45.9181 92.9144 45.7827 91.9273 45.94 90.8795 46.3979 88.6913 47.3541 86.3979 49.5456 83.8919 52.6596 82.0953 54.892 80.3198 57.4248 78.4699 60.0636 77.7594 61.0773 77.0378 62.1065 76.2999 63.1404 73.6885 66.7994 70.897 70.4768 67.8604 73.2946c-1.2487 1.1587-2.6104 1.8904-4.1089 2.0141C62.2556 75.4321 60.9367 74.9233 59.8263 74.2182 58.7347 73.5251 57.7236 72.5659 56.7889 71.5835 56.1826 70.9462 55.5435 70.2276 54.9098 69.515 54.5789 69.143 54.2494 68.7725 53.9268 68.4161 51.9528 66.2352 49.9493 64.259 47.6001 63.1305 45.3637 62.0561 42.6994 61.6974 39.2123 63.0264 35.0474 64.6137 31.9424 65.0166 29.3925 64.4044 26.8029 63.7826 25.1484 62.1921 23.7922 60.7481 23.5726 60.5143 23.3607 60.2847 23.1531 60.0597c-1.1283-1.2225-2.1317-2.3096-3.5715-3.2083-1.6257-1.0148-3.9045-1.8246-7.5816-1.8246v-4c4.3229.0 7.3566.968800000000002 9.6996 2.4313 1.9363 1.2087 3.3372 2.7351 4.4605 3.9591C26.3502 57.6243 26.5324 57.8228 26.7078 58.0097c1.2688 1.3508 2.2393 2.1741 3.6185 2.5052C31.7451 60.8555 33.9526 60.7503 37.7877 59.2886 42.3006 57.5687 46.1062 57.9753 49.3321 59.5249 52.4453 61.0204 54.8966 63.5269 56.8924 65.7318 57.271 66.1501 57.6261 66.5496 57.967 66.9331 58.5666 67.6077 59.1227 68.2333 59.6868 68.8263 60.5599 69.7439 61.3007 70.4162 61.9704 70.8414 62.6212 71.2547 63.0731 71.3511 63.4226 71.3222 63.7696 71.2936 64.328 71.1156 65.1396 70.3625 67.853 67.8447 70.4436 64.4604 73.0441 60.8167 73.7331 59.8514 74.4251 58.8642 75.1191 57.8742 76.9971 55.1952 78.8897 52.4952 80.7757 50.1518c2.5635-3.1855 5.3674-6.0494 8.5021-7.4192C90.8914 42.0275 92.622 41.7041 94.4418 41.9559 96.2542 42.2066 98.0134 43.0082 99.7234 44.3305c2.7196 2.1027 4.8946 5.2897 6.7586 8.5841C107.704 55.0746 108.871 57.4349 109.983 59.6825 110.557 60.8437 111.117 61.9748 111.661 63.0326 113.327 66.27 114.866 68.8536 116.47 70.398 117.248 71.1468 117.947 71.5556 118.58 71.7237 119.178 71.8822 119.864 71.8673 120.732 71.5062 121.541 71.1699 122.482 70.3065 123.485 68.6821 124.467 67.0909 125.377 64.9843 126.225 62.5097 127.923 57.5584 129.259 51.4847 130.483 45.868L130.589 45.3836C131.743 40.088 132.839 35.0591 134.085 32.2414 134.413 31.4996 134.814 30.7595 135.327 30.1822 135.835 29.6108 136.703 28.9339 137.908 29.0052 139.058 29.0732 139.872 29.7915 140.383 30.4086 140.919 31.0569 141.392 31.9162 141.83 32.91 144.466 38.8869 146.832 47.2425 149.04 55.0456 149.614 57.0706 150.176 59.0584 150.731 60.9578 152.095 65.6355 153.404 69.7707 154.701 72.7754 155.352 74.2834 155.96 75.4083 156.512 76.1512 157.044 76.8654 157.33 76.9655 157.329 76.9696 157.329 76.9697 157.329 76.9697 157.328 76.9697 158.301 77.1191 159.242 76.7195 160.453 75.2139 161.595 73.7949 162.625 71.8229 163.815 69.5437 163.929 69.3268 164.043 69.1071 164.16 68.8849 165.436 66.4477 166.905 63.7302 168.784 61.6736 170.715 59.5595 173.252 57.9605 176.609 58.1442 179.35 58.2942 181.593 59.0653 183.584 59.7502 183.882 59.8525 184.174 59.9529 184.461 60.0491 186.688 60.7942 188.869 61.3891 191.871 61.1943 193.891 61.0632 195.594 60.4568 197.165 59.6893 197.96 59.301 198.706 58.8793 199.464 58.4485L199.552 58.3986C200.263 57.9946 201.009 57.5704 201.743 57.2184 203.273 56.4855 205.111 55.8823 207.163 56.4632 209.159 57.0281 210.904 58.5858 212.63 61.0153 212.967 61.4889 213.182 61.6383 213.273 61.6802 213.314 61.6675 213.408 61.6302 213.559 61.5254 213.786 61.3683 214.075 61.1046 214.42 60.6972 215.876 58.9814 217.436 55.8411 219.127 52.2401 219.311 51.8486 219.497 51.4521 219.683 51.0531 221.135 47.9472 222.658 44.6869 224.171 42.4147 225.003 41.1654 226.02 39.9116 227.257 39.2448 227.923 38.8855 228.728 38.6556 229.617 38.7688 230.505 38.8821 231.256 39.3106 231.863 39.8761 233.029 40.9625 234.091 42.1082 235.08 43.1753 235.416 43.5376 235.743 43.8908 236.063 44.2295 237.361 45.6035 238.625 46.8352 240.143 47.8922 243.103 49.9538 247.3 51.5352 255 51.5352v4C246.7 55.5352 241.647 53.8136 237.857 51.1747 236 49.8815 234.514 48.4137 233.156 46.9769 232.779 46.5787 232.418 46.1888 232.063 45.8053 231.103 44.7693 230.186 43.7806 229.137 42.8028 229.13 42.7969 229.124 42.7914 229.119 42.7862 228.793 42.9791 228.242 43.518 227.501 44.6313 226.168 46.6327 224.785 49.5883 223.3 52.7623 223.117 53.1523 222.933 53.5457 222.748 53.941 221.127 57.3907 219.343 61.0787 217.47 63.2852 216.563 64.3544 215.296 65.4941 213.666 65.6646 211.814 65.8584 210.382 64.7574 209.37 63.3324 207.846 61.1884 206.773 60.5098 206.074 60.312 205.431 60.1301 204.699 60.2376 203.472 60.8255 202.866 61.116 202.227 61.4791 201.467 61.9113L201.441 61.9261C200.69 62.3527 199.843 62.833 198.921 63.2833 197.059 64.1931 194.836 65.0103 192.129 65.1859 188.372 65.4297 185.618 64.6542 183.192 63.8423 182.866 63.7334 182.551 63.6258 182.243 63.5206 180.238 62.8356 178.54 62.2558 176.391 62.1382 174.617 62.0412 173.161 62.8125 171.737 64.3716 170.26 65.9882 169.009 68.247 167.703 70.7408 167.58 70.975 167.457 71.212 167.332 71.4509 166.195 73.6337 164.976 75.9741 163.57 77.7215 161.977 79.7012 159.747 81.4045 156.686 80.9179 155.182 80.6789 154.078 79.581 153.303 78.5388 152.481 77.4335 151.73 75.9838 151.029 74.3609 149.623 71.1038 148.254 66.7521 146.891 62.0781 146.309 60.0839 145.727 58.0288 145.141 55.9596 142.939 48.1876 140.681 40.2171 138.17 34.5243 138.035 34.2175 137.91 33.9591 137.795 33.7429 137.778 33.7804 137.761 33.8191 137.743 33.8591 136.668 36.2912 135.636 41.0123 134.392 46.7201 133.179 52.2827 131.796 58.5952 130.009 63.807 129.115 66.4139 128.092 68.833 126.888 70.7829zm10.303-37.9406C137.191 32.8418 137.196 32.8454 137.206 32.8543 137.196 32.8471 137.191 32.8427 137.191 32.8423zm91.832 9.8715C229.023 42.7137 229.025 42.7143 229.027 42.7157 229.025 42.7145 229.023 42.7138 229.023 42.7138zM213.324 61.6936C213.324 61.6962 213.311 61.6959 213.284 61.6848 213.311 61.6854 213.324 61.691 213.324 61.6936z" fill="#46a6ff"/></svg>