<svg width="300" height="260" viewBox="0 0 300 260" fill="none" xmlns="http://www.w3.org/2000/svg"><rect width="300" height="260" rx="16" fill="#1e242c"/><path d="M47 238C47 236.343 48.3431 235 50 235H61C62.6569 235 64 236.343 64 238v0C64 239.657 62.6569 241 61 241H50C48.3431 241 47 239.657 47 238v0z" fill="#29313a"/><path opacity=".4" d="M66 217C67.6569 217 69 218.343 69 220v5C69 226.657 67.6569 228 66 228v0C64.3431 228 63 226.657 63 225v-5C63 218.343 64.3431 217 66 217v0z" fill="#12b886"/><path opacity=".4" d="M76 204C77.6569 204 79 205.343 79 207v18C79 226.657 77.6569 228 76 228v0C74.3431 228 73 226.657 73 225V207C73 205.343 74.3431 204 76 204v0z" fill="#12b886"/><path opacity=".4" d="M86 210C87.6569 210 89 211.343 89 213v12C89 226.657 87.6569 228 86 228v0C84.3431 228 83 226.657 83 225V213C83 211.343 84.3431 210 86 210v0z" fill="#ff646d"/><path opacity=".4" d="M96 215C97.6569 215 99 216.343 99 218v7C99 226.657 97.6569 228 96 228v0C94.3431 228 93 226.657 93 225v-7C93 216.343 94.3431 215 96 215v0z" fill="#12b886"/><path opacity=".4" d="M106 188c1.657.0 3 1.34299999999999 3 3v34c0 1.65700000000001-1.343 3-3 3v0C104.343 228 103 226.657 103 225V191c0-1.65700000000001 1.343-3 3-3v0z" fill="#ff646d"/><path opacity=".4" d="M116.5 223c1.381.0 2.5 1.119 2.5 2.5v0c0 1.381-1.119 2.5-2.5 2.5h-1c-1.381.0-2.5-1.119-2.5-2.5v0c0-1.381 1.119-2.5 2.5-2.5h1z" fill="#12b886"/><path opacity=".4" d="M126 216c1.657.0 3 1.34299999999999 3 3v6c0 1.65700000000001-1.343 3-3 3v0C124.343 228 123 226.657 123 225v-6c0-1.65700000000001 1.343-3 3-3v0z" fill="#12b886"/><path opacity=".4" d="M136 208C137.657 208 139 209.343 139 211v14C139 226.657 137.657 228 136 228v0C134.343 228 133 226.657 133 225V211C133 209.343 134.343 208 136 208v0z" fill="#ff646d"/><path opacity=".4" d="M146 189C147.657 189 149 190.343 149 192v33C149 226.657 147.657 228 146 228v0C144.343 228 143 226.657 143 225V192C143 190.343 144.343 189 146 189v0z" fill="#12b886"/><path opacity=".4" d="M157.5 225C158.328 225 159 225.672 159 226.5v0C159 227.328 158.328 228 157.5 228h-3C153.672 228 153 227.328 153 226.5v0C153 225.672 153.672 225 154.5 225h3z" fill="#ff646d"/><path opacity=".4" d="M166 217C167.657 217 169 218.343 169 220v5C169 226.657 167.657 228 166 228v0C164.343 228 163 226.657 163 225v-5C163 218.343 164.343 217 166 217v0z" fill="#ff646d"/><path opacity=".4" d="M176 217C177.657 217 179 218.343 179 220v5C179 226.657 177.657 228 176 228v0C174.343 228 173 226.657 173 225v-5C173 218.343 174.343 217 176 217v0z" fill="#12b886"/><path opacity=".4" d="M186 222C187.657 222 189 223.343 189 225v0C189 226.657 187.657 228 186 228v0C184.343 228 183 226.657 183 225v0C183 223.343 184.343 222 186 222v0z" fill="#12b886"/><path opacity=".4" d="M196 197C197.657 197 199 198.343 199 2e2v25C199 226.657 197.657 228 196 228v0C194.343 228 193 226.657 193 225V2e2C193 198.343 194.343 197 196 197v0z" fill="#ff646d"/><path opacity=".4" d="M206 208C207.657 208 209 209.343 209 211v14C209 226.657 207.657 228 206 228v0C204.343 228 203 226.657 203 225V211C203 209.343 204.343 208 206 208v0z" fill="#ff646d"/><path opacity=".4" d="M216 217C217.657 217 219 218.343 219 220v5C219 226.657 217.657 228 216 228v0C214.343 228 213 226.657 213 225v-5C213 218.343 214.343 217 216 217v0z" fill="#12b886"/><path opacity=".4" d="M226 183C227.657 183 229 184.343 229 186v39C229 226.657 227.657 228 226 228v0C224.343 228 223 226.657 223 225V186C223 184.343 224.343 183 226 183v0z" fill="#ff646d"/><path opacity=".4" d="M236 222C237.657 222 239 223.343 239 225v0C239 226.657 237.657 228 236 228v0C234.343 228 233 226.657 233 225v0C233 223.343 234.343 222 236 222v0z" fill="#12b886"/><path opacity=".4" d="M246 215C247.657 215 249 216.343 249 218v7C249 226.657 247.657 228 246 228v0C244.343 228 243 226.657 243 225v-7C243 216.343 244.343 215 246 215v0z" fill="#ff646d"/><path d="M96 238C96 236.343 97.3431 235 99 235h11c1.657.0 3 1.34299999999999 3 3v0c0 1.65700000000001-1.343 3-3 3H99C97.3431 241 96 239.657 96 238v0z" fill="#29313a"/><path d="M145 238C145 236.343 146.343 235 148 235h11C160.657 235 162 236.343 162 238v0C162 239.657 160.657 241 159 241H148C146.343 241 145 239.657 145 238v0z" fill="#29313a"/><path d="M194 238C194 236.343 195.343 235 197 235h11C209.657 235 211 236.343 211 238v0C211 239.657 209.657 241 208 241H197C195.343 241 194 239.657 194 238v0z" fill="#29313a"/><path d="M243 238C243 236.343 244.343 235 246 235h11C258.657 235 260 236.343 260 238v0C260 239.657 258.657 241 257 241H246C244.343 241 243 239.657 243 238v0z" fill="#29313a"/><path d="M260 207C260 205.343 261.343 204 263 204h18C282.657 204 284 205.343 284 207v0C284 208.657 282.657 210 281 210H263C261.343 210 260 208.657 260 207v0z" fill="#29313a"/><path d="M260 177C260 175.343 261.343 174 263 174h18C282.657 174 284 175.343 284 177v0C284 178.657 282.657 180 281 180H263C261.343 180 260 178.657 260 177v0z" fill="#29313a"/><path d="M260 147C260 145.343 261.343 144 263 144h18C282.657 144 284 145.343 284 147v0C284 148.657 282.657 150 281 150H263C261.343 150 260 148.657 260 147v0z" fill="#29313a"/><path d="M254 87C254 82.5817 257.582 79 262 79h20C286.418 79 290 82.5817 290 87v1C290 92.4183 286.418 96 282 96H262C257.582 96 254 92.4183 254 88V87z" fill="#12b886"/><path d="M260 117c0-1.657 1.34300000000002-3 3-3h18c1.65699999999998.0 3 1.343 3 3v0c0 1.657-1.34300000000002 3-3 3H263C261.343 120 260 118.657 260 117v0z" fill="#29313a"/><path d="M260 87.5C260 86.1193 261.119 85 262.5 85h19C282.881 85 284 86.1193 284 87.5v0C284 88.8807 282.881 90 281.5 90h-19C261.119 90 260 88.8807 260 87.5v0z" fill="#29313a"/><path d="M260 57C260 55.3431 261.343 54 263 54h18C282.657 54 284 55.3431 284 57v0C284 58.6569 282.657 60 281 60H263C261.343 60 260 58.6569 260 57v0z" fill="#29313a"/><path d="M260 27C260 25.3431 261.343 24 263 24h18C282.657 24 284 25.3431 284 27v0C284 28.6569 282.657 30 281 30H263C261.343 30 260 28.6569 260 27v0z" fill="#29313a"/><path d="M273 238C273 234.686 275.686 232 279 232v0C282.314 232 285 234.686 285 238v0C285 241.314 282.314 244 279 244v0C275.686 244 273 241.314 273 238v0z" fill="#9488f0"/><path d="M8 48c0-4.4183 3.5817-8 8-8h4c4.4183.0 8 3.5817 8 8v4c0 4.4183-3.5817 8-8 8H16c-4.4183.0-8-3.5817-8-8V48z" fill="#6046ff"/><path d="M35 216C35 211.582 38.5817 208 43 208h4C51.4183 208 55 211.582 55 216v4C55 224.418 51.4183 228 47 228H43C38.5817 228 35 224.418 35 220v-4z" fill="#12161c"/><path d="M8 76c0-4.4183 3.5817-8 8-8h4c4.4183.0 8 3.5817 8 8v4c0 4.4183-3.5817 8-8 8H16c-4.4183.0-8-3.5817-8-8V76z" fill="#29313a"/><path d="M8 104c0-4.4183 3.5817-8 8-8h4c4.4183.0 8 3.5817 8 8v4C28 112.418 24.4183 116 20 116H16C11.5817 116 8 112.418 8 108v-4z" fill="#29313a"/><path d="M8 132C8 127.582 11.5817 124 16 124h4C24.4183 124 28 127.582 28 132v4C28 140.418 24.4183 144 20 144H16C11.5817 144 8 140.418 8 136v-4z" fill="#29313a"/><path d="M8 160C8 155.582 11.5817 152 16 152h4C24.4183 152 28 155.582 28 160v4C28 168.418 24.4183 172 20 172H16C11.5817 172 8 168.418 8 164v-4z" fill="#29313a"/><path d="M8 188C8 183.582 11.5817 180 16 180h4C24.4183 180 28 183.582 28 188v4C28 196.418 24.4183 2e2 20 2e2H16C11.5817 2e2 8 196.418 8 192v-4z" fill="#29313a"/><path d="M8 216C8 211.582 11.5817 208 16 208h4C24.4183 208 28 211.582 28 216v4C28 224.418 24.4183 228 20 228H16C11.5817 228 8 224.418 8 220v-4z" fill="#29313a"/><path d="M8 27c0-1.6569 1.34315-3 3-3H25c1.6569.0 3 1.3431 3 3v0c0 1.6569-1.3431 3-3 3H11c-1.65685.0-3-1.3431-3-3v0z" fill="#3e4854"/><path d="M37 27c0-1.6569 1.3431-3 3-3H81C82.6569 24 84 25.3431 84 27v0C84 28.6569 82.6569 30 81 30H40c-1.6569.0-3-1.3431-3-3v0z" fill="#3e4854"/><path d="M37 65c0-1.6569 1.3431-3 3-3H67C68.6569 62 70 63.3431 70 65v0C70 66.6569 68.6569 68 67 68H40C38.3431 68 37 66.6569 37 65v0z" fill="#2c353f"/><path d="M37 50c0-2.7614 2.2386-5 5-5h94c2.761.0 5 2.2386 5 5v0c0 2.7614-2.239 5-5 5H42c-2.7614.0-5-2.2386-5-5v0z" fill="#2c353f"/><path d="M145 50c0-2.7614 2.239-5 5-5h14c2.761.0 5 2.2386 5 5v0c0 2.7614-2.239 5-5 5H150c-2.761.0-5-2.2386-5-5v0z" fill="#12b886"/><path d="M173 50c0-2.7614 2.239-5 5-5h25c2.761.0 5 2.2386 5 5v0c0 2.7614-2.239 5-5 5H178c-2.761.0-5-2.2386-5-5v0z" fill="#ff646d"/><path d="M44 90C44 88.8954 43.1046 88 42 88v0C40.8954 88 40 88.8954 40 90v7C40 98.1046 39.1046 99 38 99H37C35.8954 99 35 99.8954 35 101v31C35 133.105 35.8954 134 37 134h1C39.1046 134 40 134.895 40 136v4C40 141.105 40.8954 142 42 142v0C43.1046 142 44 141.105 44 140v-4C44 134.895 44.8954 134 46 134h1C48.1046 134 49 133.105 49 132V101C49 99.8954 48.1046 99 47 99H46C44.8954 99 44 98.1046 44 97V90z" fill="#ff646d"/><path d="M62 122C62 120.895 61.1046 120 60 120v0C58.8954 120 58 120.895 58 122v7C58 130.105 57.1046 131 56 131H55C53.8954 131 53 131.895 53 133v39C53 173.105 53.8954 174 55 174h1C57.1046 174 58 174.895 58 176v12C58 189.105 58.8954 190 60 190v0C61.1046 190 62 189.105 62 188V176C62 174.895 62.8954 174 64 174h1C66.1046 174 67 173.105 67 172V133C67 131.895 66.1046 131 65 131H64C62.8954 131 62 130.105 62 129v-7z" fill="#ff646d"/><path d="M80 122C80 120.895 79.1046 120 78 120v0C76.8954 120 76 120.895 76 122v7C76 130.105 75.1046 131 74 131H73C71.8954 131 71 131.895 71 133v7C71 141.105 71.8954 142 73 142h1C75.1046 142 76 142.895 76 144v4C76 149.105 76.8954 150 78 150v0C79.1046 150 80 149.105 80 148v-4C80 142.895 80.8954 142 82 142h1C84.1046 142 85 141.105 85 140v-7C85 131.895 84.1046 131 83 131H82C80.8954 131 80 130.105 80 129v-7z" fill="#ff646d"/><path d="M98 88C98 86.8954 97.1046 86 96 86v0C94.8954 86 94 86.8954 94 88v23C94 112.105 93.1046 113 92 113H91C89.8954 113 89 113.895 89 115v14C89 130.105 89.8954 131 91 131h1C93.1046 131 94 131.895 94 133v7C94 141.105 94.8954 142 96 142v0C97.1046 142 98 141.105 98 140v-7C98 131.895 98.8954 131 1e2 131h1c1.105.0 2-.89500000000001 2-2V115c0-1.105-.894999999999996-2-2-2h-1C98.8954 113 98 112.105 98 111V88z" fill="#12b886"/><path d="M116 108c0-1.105-.894999999999996-2-2-2v0C112.895 106 112 106.895 112 108v0c0 1.105-.894999999999996 2-2 2h-1.5C107.672 110 107 110.672 107 111.5v0C107 112.328 107.672 113 108.5 113H110c1.105.0 2 .894999999999996 2 2v3c0 1.105.894999999999996 2 2 2v0c1.105.0 2-.894999999999996 2-2v-3c0-1.105.894999999999996-2 2-2h1.5C120.328 113 121 112.328 121 111.5v0C121 110.672 120.328 110 119.5 110H118C116.895 110 116 109.105 116 108v0z" fill="#12b886"/><path d="M134 105c0-1.105-.89500000000001-2-2-2v0C130.895 103 130 103.895 130 105v7c0 1.105-.89500000000001 2-2 2h-1C125.895 114 125 114.895 125 116v39C125 156.105 125.895 157 127 157h1C129.105 157 130 157.895 130 159v4C130 164.105 130.895 165 132 165v0C133.105 165 134 164.105 134 163v-4C134 157.895 134.895 157 136 157h1C138.105 157 139 156.105 139 155V116c0-1.105-.89500000000001-2-2-2h-1C134.895 114 134 113.105 134 112v-7z" fill="#ff646d"/><path d="M152 153C152 151.895 151.105 151 150 151v0C148.895 151 148 151.895 148 153v1C148 155.105 147.105 156 146 156h-1C143.895 156 143 156.895 143 158v1C143 160.105 143.895 161 145 161h1C147.105 161 148 161.895 148 163v12C148 176.105 148.895 177 150 177v0C151.105 177 152 176.105 152 175V163C152 161.895 152.895 161 154 161h1C156.105 161 157 160.105 157 159v-1C157 156.895 156.105 156 155 156h-1C152.895 156 152 155.105 152 154v-1z" fill="#ff646d"/><path d="M170 152C170 150.895 169.105 150 168 150v0C166.895 150 166 150.895 166 152v7C166 160.105 165.105 161 164 161h-1C161.895 161 161 161.895 161 163v13C161 177.105 161.895 178 163 178h1C165.105 178 166 178.895 166 180v4C166 185.105 166.895 186 168 186v0C169.105 186 170 185.105 170 184v-4C170 178.895 170.895 178 172 178h1C174.105 178 175 177.105 175 176V163C175 161.895 174.105 161 173 161h-1C170.895 161 170 160.105 170 159v-7z" fill="#ff646d"/><path d="M188 102c0-1.105-.89500000000001-2-2-2v0C184.895 1e2 184 100.895 184 102v15c0 1.105-.89500000000001 2-2 2h-1C179.895 119 179 119.895 179 121v38C179 160.105 179.895 161 181 161h1C183.105 161 184 161.895 184 163v20C184 184.105 184.895 185 186 185v0C187.105 185 188 184.105 188 183V163C188 161.895 188.895 161 190 161h1C192.105 161 193 160.105 193 159V121c0-1.105-.89500000000001-2-2-2h-1C188.895 119 188 118.105 188 117V102z" fill="#12b886"/><path d="M206 145C206 143.895 205.105 143 204 143v0C202.895 143 202 143.895 202 145v7C202 153.105 201.105 154 2e2 154h-1C197.895 154 197 154.895 197 156v7C197 164.105 197.895 165 199 165h1C201.105 165 202 165.895 202 167v4C202 172.105 202.895 173 204 173v0C205.105 173 206 172.105 206 171v-4C206 165.895 206.895 165 208 165h1C210.105 165 211 164.105 211 163v-7C211 154.895 210.105 154 209 154h-1C206.895 154 206 153.105 206 152v-7z" fill="#ff646d"/><path d="M224 85C224 83.8954 223.105 83 222 83v0C220.895 83 220 83.8954 220 85v7C220 93.1046 219.105 94 218 94h-1C215.895 94 215 94.8954 215 96v31C215 128.105 215.895 129 217 129h1C219.105 129 220 129.895 220 131v22C220 154.105 220.895 155 222 155v0C223.105 155 224 154.105 224 153V131C224 129.895 224.895 129 226 129h1C228.105 129 229 128.105 229 127V96C229 94.8954 228.105 94 227 94h-1C224.895 94 224 93.1046 224 92V85z" fill="#12b886"/></svg>