<svg xmlns="http://www.w3.org/2000/svg" viewBox="0 0 24 24" width="24" height="24">
    <path fill="#99AAB5" d="M22 24H2.667c2.666 0 2-6 2-6 0-1.473 1.194-10 2.666-10h14S24 8 24 10.667V22s0 2-2 2Z" />
    <path fill="#CCD6DD"
        d="M20 22c0 2 2 2 2 2H2s-2 0-2-2.667V2.667A2.667 2.667 0 0 1 2.667 0h14.666A2.667 2.667 0 0 1 20 2.667V22Z" />
    <path fill="#99AAB5"
        d="M18 13.333a.666.666 0 0 1-.667.667H12a.667.667 0 1 1 0-1.333h5.333c.369 0 .667.298.667.666Zm0-2.666a.666.666 0 0 1-.667.666H12A.666.666 0 1 1 12 10h5.333c.369 0 .667.298.667.667ZM18 8a.666.666 0 0 1-.667.667H12a.667.667 0 1 1 0-1.334h5.333c.369 0 .667.298.667.667Zm0 8a.666.666 0 0 1-.667.667H2.667a.666.666 0 1 1 0-1.334h14.666c.369 0 .667.298.667.667Zm0 2.667a.666.666 0 0 1-.667.666H2.667a.666.666 0 1 1 0-1.333h14.666c.369 0 .667.298.667.667Zm0 2.666a.666.666 0 0 1-.667.667H2.667a.666.666 0 1 1 0-1.333h14.666c.369 0 .667.298.667.666ZM16.667 6S18 6 18 4.667V3.333S18 2 16.667 2H3.333S2 2 2 3.333v1.334S2 6 3.333 6h13.334Z" />
    <path fill="#12B886"
        d="M8.667 14S10 14 10 12.667v-4s0-1.334-1.333-1.334H3.333S2 7.333 2 8.667v4S2 14 3.333 14h5.334Z" />
</svg>