<svg xmlns="http://www.w3.org/2000/svg" viewBox="0 0 24 24" width="24" height="24">
    <path fill="#67757F"
        d="M23.333 13.333c0 1.473-1.194 1.334-2.666 1.334H3.333c-1.472 0-2.666.139-2.666-1.334l1.333-8c.083-1.278 1.194-2.666 2.667-2.666h14.666c1.473 0 2.528 1.472 2.667 2.666l1.333 8Z" />
    <path fill="#CCD6DD"
        d="M18.667 8.667c0 .736-.598 1.333-1.334 1.333H6.667a1.334 1.334 0 0 1-1.334-1.333V3.333C5.333 2.597 5.931 2 6.667 2h10.666c.736 0 1.334.597 1.334 1.333v5.334Z" />
    <path fill="#E1E8ED"
        d="M20 11.333c0 .736-.597 1.334-1.333 1.334H5.333A1.334 1.334 0 0 1 4 11.333V6c0-.736.597-1.333 1.333-1.333h13.334C19.403 4.667 20 5.264 20 6v5.333Z" />
    <path fill="#F5F8FA"
        d="M21.333 14c0 .736-.597 1.333-1.333 1.333H4A1.334 1.334 0 0 1 2.667 14V8.667c0-.736.597-1.334 1.333-1.334h16c.736 0 1.333.598 1.333 1.334V14Z" />
    <path fill="#9AAAB4"
        d="M23.333 20.667a2.667 2.667 0 0 1-2.666 2.666H3.333a2.667 2.667 0 0 1-2.666-2.666v-7.334a2.667 2.667 0 0 1 2.666-2.666h17.334a2.667 2.667 0 0 1 2.666 2.666v7.334Z" />
    <path fill="#FCAB40"
        d="M14.667.667h-3.334C10.597.667 10 1.263 10 2v.667h2.667C13.403 2.667 14 3.264 14 4h.667C15.403 4 16 3.403 16 2.667V2c0-.737-.597-1.333-1.333-1.333Z" />
    <path fill="#5DADEC"
        d="M12 3.333H8.667c-.736 0-1.334.598-1.334 1.334v.666H10c.736 0 1.333.598 1.333 1.334H12c.736 0 1.333-.598 1.333-1.334v-.666c0-.736-.597-1.334-1.333-1.334Z" />
    <path fill="#E75A70"
        d="M10.667 8c0 .736-.598 1.333-1.334 1.333H6A1.334 1.334 0 0 1 4.667 8v-.667C4.667 6.597 5.264 6 6 6h3.333c.736 0 1.334.597 1.334 1.333V8Z" />
    <path fill="#67757F"
        d="M16.667 18.667c0 .736-.598 1.333-1.334 1.333H8.667a1.334 1.334 0 0 1-1.334-1.333v-3.334c0-.736.598-1.333 1.334-1.333h6.666c.736 0 1.334.597 1.334 1.333v3.334Z" />
    <path fill="#E1E8ED"
        d="M15.333 18a.666.666 0 0 1-.666.667H9.333A.666.666 0 0 1 8.667 18v-2c0-.369.298-.667.666-.667h5.334c.368 0 .666.298.666.667v2Z" />
</svg>