<svg xmlns="http://www.w3.org/2000/svg" viewBox="0 0 24 24" width="24" height="24">
    <path fill="#31373D"
        d="M2.667 24S0 24 0 21.333V2.667S0 0 2.667 0H20c.667 0 1.333.667 1.333.667l2 2S24 3.333 24 4v17.333S24 24 21.333 24H2.667Z" />
    <path fill="#55ACEE" d="M3.333 12.667V12s0-1.333 1.334-1.333h14C20 10.667 20 12 20 12v.667H3.333Z" />
    <path fill="#E1E8ED"
        d="M3.333 21.347v-8.68H20v8.666s0 1.334-1.333 1.334h-14c-1.334 0-1.334-1.32-1.334-1.32ZM6.667 2s0-.667.666-.667h12C20.032 1.333 20 2 20 2v6.667s0 .666-.667.666h-12s-.666 0-.666-.666V2Zm8 6.667H18V2h-3.333v6.667Z" />
</svg>