<svg xmlns="http://www.w3.org/2000/svg" viewBox="0 0 24 24" width="24" height="24">
    <path fill="#292F33"
        d="M19.147 8.566s2.54 1.095 3.688.3c1.149-.796 1.407-1.85.773-3.158-.634-1.307-2.415-1.821-2.475-3.528 0 0-.198 2.76 1.009 3.67 1.708 1.289-.297 2.807-2.348 2.552-2.052-.255-.647.164-.647.164Z" />
    <path fill="#8A4B38"
        d="M15.917 12.917s-.419 1.694.124 3.353c.097.227.033.37-.138.452-.171.081-2.863 1.028-3.153 1.18-.264.14-.761 1.187-.805 1.903.562.146 1.083.07 1.083.07s.017-1.277.139-1.362c.122-.084 3.79-.698 4.041-1.18.25-.482 1.074-2.592.541-3.528-.15-.264-.424-.767-.424-.767l-1.408-.121Z" />
    <path fill="#292F33"
        d="M11.945 19.805s-.411 1.329.005 1.426c.403.094 1.13-.259 1.17-.431.054-.229.144-.786.065-.91-.078-.125-1.24-.085-1.24-.085Z" />
    <path fill="#8A4B38"
        d="m7.875 14.583-.5-1.708S5.53 14.28 4.749 15.271c-.229.292-1.231 2.132-1.148 2.942.034.326.316 1.722.316 1.722l1.101-.31s-.875-1.264-.68-1.708c.951-2.175 3.537-3.334 3.537-3.334Z" />
    <path fill="#292F33"
        d="M5.12 19.616c-.115-.093-1.203.32-1.203.32s.038 1.39.464 1.347c.412-.04.986-.608.97-.783-.023-.234-.117-.791-.232-.884Z" />
    <path fill="#C1694F"
        d="M18.125 7.459c-2.291.104-4.804.292-6.333.292-2.437 0-3.48-.952-4.375-1.75C5.892 4.643 5.445 3.186 4 3.667c0 0-.421-.274-.831-.518l-.174-.102a4.821 4.821 0 0 0-.438-.231c-.109-.048-.172-.058-.152-.007A.754.754 0 0 0 2.563 3c.314.315.45.633.485.93-1.34.801-1.395 1.517-1.914 2.368-.328.538-.907 1.37-1.04 1.677-.275.632.683 1.368 1.137.938.596-.564.641-.748 1.355-1.163.655-.01 1.317-.277 1.539-.68 0 0 .625 1.389 1.292 2.389.666 1 1.666 2.083 1.666 2.083-.087.818.08 1.45.366 1.948-.256.505-.616 1.205-.944 1.83-.438.83-.982 2.15-.806 2.412.356.532 1.813 1.95 2.758 2.207.687.187 1.427.292 1.427.292l-.129-1.05s-.895.142-1.25-.055c-.951-.53-1.777-1.499-1.805-1.695-.047-.324 2.56-1.912 3.427-2.43 1.51.065 4.014-.246 5.75-1.134.639 1.24 1.986 1.675 1.986 1.675s.444 1.472.916 2.75c-.678.355-2.978 2.17-3.316 2.57-.304.36-.571 1.66-.571 1.66.547.25 1.047.124 1.047.124s.026-1.041.256-1.382c.231-.34 3.134-1.706 3.972-2.305.328-.235.27-.602.175-1.035-.214-.98-.647-3.187-.647-3.188 3.43-1.986 4.305-7.544-1.57-7.277Z" />
    <path fill="#292F33"
        d="M14.89 22.521s-.41 1.329.006 1.426c.403.094 1.13-.259 1.17-.431.054-.229.144-.786.065-.91-.078-.125-1.24-.085-1.24-.085Zm-5.117-3.53c-.111.097.11 1.239.11 1.239s1.376.2 1.407-.227c.03-.413-.431-1.076-.607-1.089-.234-.018-.798-.02-.91.077Z" />
    <path fill="#FFAC33"
        d="M16.735 7.521c-2.196.09-6.068.333-6.933-.052.042 1.281-.45 2.403.2 4.576.307.068 5.415.163 7.29-.608-.448-1.908-.26-2.662-.557-3.916Z" />
    <path fill="#623120"
        d="M10.594 7.625s-.506 2.362 1.605 2.42c2.112.058 1.862-1.498 2.03-1.67.169-.172 1.812-.26 1.812-.709 0-.155-.846-.085-1.249-.066-.202.01-2.393.136-4.198.025Z" />
    <path fill="#5C913B"
        d="M4.063 3.804c-.455.313-1.114.19-1.114.19-.396.167-1.016.771-1.286 1.292-.271.52-1.017 1.776-1.017 1.776s.73.577 1.146 1.27c0 0 .354-.353.795-.583 1.294-.042 1.538-.68 1.538-.68s.021-1.994-.062-3.265ZM2.88 5.644a.307.307 0 0 1-.307-.305.307.307 0 0 1 .613 0 .306.306 0 0 1-.306.306Z" />
    <path fill="#292F33" d="M2.833 5.597a.233.233 0 1 0 0-.465.233.233 0 0 0 0 .465Z" />
    <path fill="#F5F8FA"
        d="M2.88 4.733a.606.606 0 1 0 .002 1.213.606.606 0 0 0-.001-1.213Zm0 .912a.307.307 0 0 1-.306-.306.307.307 0 0 1 .613 0 .306.306 0 0 1-.306.306Zm-1.19 2.79L.51 7.267l.169-.259 1.227 1.211-.215.216Zm2.38-4.636.299-.006.062 3.266-.3.006-.062-3.266Z" />
    <path fill="#292F33"
        d="M8.437 6.047c1.182.964 2.098.214 2.098.214-.864-.18-1.371-.578-1.806-1.041.557-.087.858-.444.858-.444a3.126 3.126 0 0 1-1.656-.466c-.377-.41-.822-.801-1.503-1.087a3.284 3.284 0 0 0-.615-.184c-.057-.017-.118-.042-.172-.049a2.75 2.75 0 0 0-1.824.402c-.215.133-.143.426.078.415 1.16-.056 1.91.388 2.313 1.089 1.446 2.515 3.563 2.583 3.563 2.583s-.86-.458-1.334-1.432Zm3.406 8.886-.24-5.044.686.152.3 4.806c-.252.047-.746.086-.746.086Z" />
    <path fill="#623120"
        d="M1.57 8.5a.333.333 0 0 1-.136-.637C5.527 6.039 8.913 6.039 9.085 6.03a.333.333 0 0 1-.002.667h-.002c-.07 0-3.434.017-7.376 1.773a.337.337 0 0 1-.136.029Z" />
    <path fill="#F6DDCD"
        d="M12.583 3.677c-.292-.979-2.17-.82-2.051-1.727l-.08.162a1.474 1.474 0 0 0-.115-.413c-.3-.665-1.014-.991-1.596-.728-.504.227-1.158.232-.894 1.09.041.132.09.301.166.469.301.664 1.232 1.11 1.814.847.034-.014.061-.036.092-.054.138.082.56.337 1.242.803.805.549 1.712.531 1.422-.449Z" />
    <path fill="#292F33"
        d="M7.926.946c.17-.333.867-.71 1.461-.673.67.042 1.043.506 1.197 1.088.076.287.03.61-.029.847 0 0-.643-.058-.572-.1.132-.078.023-.543-.145-.605-.177-.064-.24.109-.216.243.024.134.021.216-.053.265-.075.05-.326-.334-.51-.409-.304-.123-.994.755-1.211.46-.135-.184-.133-.703.078-1.116Z" />
    <path fill="#9266CC"
        d="M8.775 1.9s1.055-.503 1.326-.58c.27-.077.402-.11.447-.168.045-.057-.069-.15-.119-.21-.05-.061-.293-.65-.85-.83a1.454 1.454 0 0 0-1.055.03c-.254.105-.79.342-.91 1.229-.065.496.025.763.025.763s-.318.09-.349.096c-.031.005-.028.084.12.12.147.037.86-.045 1.093-.153.232-.109.212-.248.272-.298Z" />
    <path fill="#000"
        d="M13.885 9.448c-.124-.355-.165-.477-.369-1.016-.067-.176-.146-.39-.246-.662l-1.29.497c.118.255.21.458.285.63.242.555.316.881.394 1.252l-.534.194c-.258.112-.54.222-.572.622-.024.308.228.282.424.258.288-.034 2.062-.337 2.148-.525.078-.171-.092-.829-.24-1.25Z" />
    <path fill="#CCD6DD"
        d="M11.98 8.267s-.133-.338-.263-.78c-.25-.854-.376-1.542 2.301-2.223a1.179 1.179 0 0 0-.066-.101c-.883-1.239-2.835-2.464-2.327-2.544 2.554-.4 3.338-.004 4.456 1.566.551.775.624 1.062.522 1.461-.393 1.552-3.433.848-3.333 2.124l-1.29.497Z" />
    <path fill="#5C913B"
        d="M11.626 4.724c1.023.703 1.56-.103 2.392.54l2.185-.881c-.854-1.644-3.253-3.036-5.24-2.016-.462.236-.79.682-.694 1.202.192 1.04.936.866 1.357 1.155Z" />
    <path fill="#A6D388"
        d="M11.958 3.435a1.084 1.084 0 0 0-.12-.237.749.749 0 0 0-.893-.27.76.76 0 0 0-.417.99c.616 1.61.761 1.768.688 1.893-.02.02-.232.19-1.549.06L9.333 6v.667l.204.531c1.282.126 2.239.076 2.738-.577.586-.768.285-1.614-.317-3.186Z" />
    <path fill="#F6DDCD" d="M9.668 5.871c-1.262-.794-1.357.167-1.393.533-.036.367-.065.663 1.262.794l.131-1.327Z" />
    <path fill="#AAB8C2"
        d="m12.182 10.319.298-.106c-.325-.812-.687-.681-.714-.671-.133.05-.617.702-.21 1.677a.167.167 0 1 0 .307-.128c-.248-.597-.094-1.1.021-1.15.115-.048.274.202.298.378Z" />
</svg>