<svg xmlns="http://www.w3.org/2000/svg" fill="none" viewBox="0 0 285 263" width="285" height="263">
    <rect width="284.45" height="263" fill="#1E242C" rx="16" />
    <rect width="14.922" height="5.596" x="34.507" y="162.277" fill="#29313A" rx="2.798" />
    <rect width="29.844" height="74.61" x="26.113" y="80.206" fill="#46A6FF" rx="3.92" />
    <rect width="86.37" height="37.473" x="9.326" y="9.326" fill="#12161C" rx="7.84" />
    <rect width="86.37" height="37.473" x="99.353" y="9.326" fill="#12161C" rx="7.84" />
    <rect width="86.37" height="37.473" x="189.379" y="9.326" fill="#12161C" rx="7.84" />
    <rect width="29.844" height="24.248" x="67.149" y="130.567" fill="#46A6FF" rx="3.92" />
    <rect width="30.777" height="41.968" x="107.252" y="112.848" fill="#46A6FF" rx="3.92" />
    <rect width="31.709" height="12.124" x="147.355" y="142.692" fill="#46A6FF" rx="3.92" />
    <rect width="30.777" height="92.33" x="188.39" y="62.486" fill="#46A6FF" rx="3.92" />
    <rect width="29.844" height="36.372" x="229.426" y="118.443" fill="#46A6FF" rx="3.92" />
    <rect width="14.922" height="5.596" x="74.61" y="162.277" fill="#29313A" rx="2.798" />
    <rect width="15.855" height="5.596" x="114.713" y="162.277" fill="#29313A" rx="2.798" />
    <rect width="15.855" height="5.596" x="154.816" y="162.277" fill="#29313A" rx="2.798" />
    <rect width="14.922" height="5.596" x="196.784" y="162.277" fill="#29313A" rx="2.798" />
    <rect width="14.922" height="5.596" x="236.886" y="162.277" fill="#29313A" rx="2.798" />
    <rect width="65.284" height="7" x="13" y="205" fill="#181D23" rx="3.5" />
    <rect width="48.496" height="7" x="13" y="187" fill="#181D23" rx="3.5" />
    <rect width="24" height="7" x="248" y="187" fill="#FF646D" rx="3.5" />
    <rect width="21.45" height="7" x="13" y="222" fill="#181D23" rx="3.5" />
    <rect width="44.766" height="7" x="13" y="239" fill="#181D23" rx="3.5" />
    <rect width="100.723" height="7" x="96" y="187" fill="#2D3642" rx="3.5" />
    <rect width="81.138" height="7" x="96" y="205" fill="#2D3642" rx="3.5" />
    <rect width="50.362" height="7" x="96" y="222" fill="#2D3642" rx="3.5" />
    <rect width="50.362" height="7" x="96" y="239" fill="#2D3642" rx="3.5" />
    <rect width="35" height="7" x="237" y="205" fill="#12B886" rx="3.5" />
    <rect width="23" height="7" x="249" y="222" fill="#FF646D" rx="3.5" />
    <rect width="16" height="7" x="256" y="239" fill="#12B886" rx="3.5" />
    <rect width="18.736" height="5.484" x="17.095" y="17.552" fill="#232A32" rx="2.742" />
    <rect width="22.849" height="5.484" x="107.121" y="17.552" fill="#232A32" rx="2.742" />
    <rect width="37.016" height="5.484" x="197.147" y="17.552" fill="#232A32" rx="2.742" />
    <rect width="54.381" height="10.968" x="17.095" y="28.977" fill="#00AEE9" rx="5.484" />
    <rect width="54.381" height="10.968" x="107.121" y="28.977" fill="#5241AD" rx="5.484" />
    <rect width="70.833" height="10.968" x="197.147" y="28.977" fill="#F55C5D" rx="5.484" />
    <path fill="#00CEBB"
        d="M197.147 34.46a5.484 5.484 0 0 1 5.484-5.483h18.28v10.967h-18.28a5.484 5.484 0 0 1-5.484-5.483Z" />
    <path fill="#CE8546" d="M220.911 28.977h9.596v10.967h-9.596V28.977Z" />
    <path fill="#5241AD" d="M230.507 28.977h21.022v10.967h-21.022V28.977Z" />
</svg>