<svg xmlns="http://www.w3.org/2000/svg" viewBox="0 0 24 24" width="24" height="24">
    <path fill="#fff" d="M10.667 6h2.666v11.333h-2.666V6Z" />
    <path fill="#DA2F47" d="M6.667 16.333a1 1 0 0 1-1 1h-2a1 1 0 0 1 0-2h2a1 1 0 0 1 1 1Z" />
    <path fill="#6B7A8A"
        d="M22.667 22c0 .736-.598 1.333-1.334 1.333H2.667A1.334 1.334 0 0 1 1.333 22v-4c0-.736.598-1.333 1.334-1.333h18.666c.736 0 1.334.597 1.334 1.333v4Z" />
    <path fill="#6B7A8A"
        d="M6.667 23a1 1 0 0 1-1 1h-2a1 1 0 1 1 0-2h2a1 1 0 0 1 1 1Zm14.666 0a1 1 0 0 1-1 1h-2a1 1 0 0 1 0-2h2a1 1 0 0 1 1 1Z" />
    <path fill="#DA2F47" d="M12 8a4 4 0 1 0 0-8 4 4 0 0 0 0 8Z" />
    <path fill="#6B7A8A"
        d="M16.667 17.333c0 .736-.598 1.334-1.334 1.334H8.667a1.334 1.334 0 0 1-1.334-1.334v-.666c0-.736 2.598-4 3.334-4h2.666c.736 0 3.334 3.264 3.334 4v.666Z" />
    <path fill="#fff"
        d="M22 18.667a.666.666 0 0 1-.667.666H2.667a.666.666 0 1 1 0-1.333h18.666c.369 0 .667.298.667.667Z" />
</svg>