<svg xmlns="http://www.w3.org/2000/svg" viewBox="0 0 24 24" width="24" height="24">

    <path fill="#553788"
        d="M6.667 8c2 3.333 0 7.128-2 6.461-2-.666-2.667 1.334-.667 2 2 .667 6.31-.31 8.667-2.666.666-.667 1.333-.667 1.333-.667L6.667 8Z" />
    <path fill="#553788"
        d="M17.333 8c-2 3.333 0 7.128 2 6.461 2-.666 2.667 1.334.667 2-2 .667-6.31-.31-8.667-2.666-.666-.667-1.333-.667-1.333-.667L17.333 8Z" />
    <path fill="#744EAA"
        d="M20.125 10.667c-2 3.333 0 7.128 2 6.461 2-.667 2.667 1.333.667 2-2 .667-6.31-.31-8.667-2.667-.666-.666-1.333-.666-1.333-.666l7.333-5.128Zm-16.25 0c2 3.333 0 7.128-2 6.461-2-.667-2.667 1.333-.667 2 2 .667 6.31-.31 8.667-2.667.666-.666 1.333-.666 1.333-.666l-7.333-5.128Z" />
    <path fill="#9266CC"
        d="M22.125 20.917c-1.819.606-4.283-3.751-3.207-7.052 1.097-2.162 1.749-4.572 1.749-6.532C20.667 2.547 16.787 0 12 0 7.214 0 3.334 2.547 3.334 7.333c0 1.96.652 4.37 1.749 6.532 1.075 3.301-1.389 7.658-3.208 7.052-2-.667-2.667 2-.667 2.666 2 .667 5.54-.418 8-2.666 1.46-1.334 2.793-1.334 2.793-1.334s1.333 0 2.792 1.334c2.46 2.248 6 3.333 8 2.666 2-.666 1.332-3.333-.668-2.666Z" />
    <path fill="#292F33"
        d="M9.333 15.333a1.333 1.333 0 1 0 0-2.666 1.333 1.333 0 0 0 0 2.666ZM14.667 15.333a1.333 1.333 0 1 0 0-2.666 1.333 1.333 0 0 0 0 2.666Z" />

</svg>