<svg xmlns="http://www.w3.org/2000/svg" fill="none" viewBox="0 0 24 24" width="24" height="24">
    <path fill="#459343"
        d="M8.897 2.075C9.983.988 10.527.445 11.152.242a2.743 2.743 0 0 1 1.696 0c.626.203 1.169.746 2.255 1.833l6.822 6.822c1.087 1.086 1.63 1.63 1.833 2.255.18.551.18 1.145 0 1.696-.203.626-.746 1.169-1.833 2.255l-6.822 6.822c-1.086 1.087-1.63 1.63-2.255 1.833a2.743 2.743 0 0 1-1.696 0c-.626-.203-1.169-.746-2.255-1.833l-6.822-6.822C.988 14.017.445 13.473.242 12.848a2.743 2.743 0 0 1 0-1.696c.203-.626.746-1.169 1.833-2.255l6.822-6.822Z" />
    <path fill="#fff" fill-rule="evenodd"
        d="m20.935 10.933-7.868-7.868c-.28-.28-.46-.46-.61-.586-.142-.12-.209-.151-.245-.163a.686.686 0 0 0-.424 0c-.036.012-.103.042-.246.163-.148.126-.33.306-.609.586l-7.868 7.868c-.28.28-.46.46-.586.61-.12.142-.151.209-.163.245a.686.686 0 0 0 0 .424c.012.036.042.103.163.246.126.148.306.33.586.609l7.868 7.868c.28.28.46.46.61.586.142.12.209.151.245.163a.686.686 0 0 0 .424 0c.036-.012.103-.042.246-.163.148-.126.33-.306.609-.586l7.868-7.868c.28-.28.46-.46.586-.61.12-.142.151-.209.163-.245a.686.686 0 0 0 0-.424c-.012-.036-.042-.103-.163-.246-.126-.148-.306-.33-.586-.609Zm-9.359-9.27c-.313.103-.585.374-1.128.917L2.58 10.448c-.543.543-.815.815-.916 1.128-.09.276-.09.572 0 .848.101.313.373.585.916 1.128l7.868 7.868c.543.543.815.814 1.128.916.276.09.572.09.848 0 .313-.101.585-.373 1.128-.916l7.868-7.868c.543-.543.814-.815.916-1.128.09-.276.09-.572 0-.848-.101-.313-.373-.585-.916-1.128L13.552 2.58c-.543-.543-.815-.815-1.128-.916a1.371 1.371 0 0 0-.848 0Z"
        clip-rule="evenodd" />
    <path fill="#fff"
        d="M8.914 8.571 12 4.457l3.086 4.114h-2.4V12c.315-.237.674-.42 1.062-.538.444-.135.959-.147 1.68-.148V9.257L19.2 12l-3.771 2.743v-2.057c-.75.003-1.049.017-1.283.088-.658.2-1.172.714-1.372 1.372-.08.267-.088.619-.088 1.625v1.715h-1.372v-1.834c0-.203 0-.391.002-.566h-.002V8.57h-2.4Z" />
</svg>