<svg xmlns="http://www.w3.org/2000/svg" viewBox="0 0 24 24" width="24" height="24">
    <path fill="#376B95"
        d="M19.088 20.375c-.119-.95-1.045-1.287-1.505-1.287-.589 0-1.994.737-2.25-.39l-.024-.122-6.607-.008-.035.123c-.25 1.138-1.662.397-2.252.397-.46 0-1.386.337-1.505 1.287 0 0 4.51 1.625 7.09 1.625 2.582 0 7.088-1.625 7.088-1.625Z" />
    <path fill="#F1CC50"
        d="M8.11 11.63c-.364-.06-.707.156-.767.519l-.55 3.04a6.552 6.552 0 0 0-.145.09c-1.175.754-1.107 2.352-1.956 3.077-.114.097-.633.51-.802.883-.224.492.147.296.03.464-.27.389-.276.985-.085 1.124l.249.066c.371.269 1.387-.89 1.52-1.534.2-.962 2.05-2.167 2.393-3.102.108-.296.15-.525.116-.716l.737-3.43c.06-.364-.377-.421-.74-.481Zm11.948 8.111c-.117-.167.291-.01.067-.502-.17-.374-.726-.786-.839-.884-.849-.724-.744-2.323-1.919-3.077a4.785 4.785 0 0 0-.162-.1l-.548-3.03c-.06-.362-.404-.578-.766-.518-.364.06-.824.117-.764.48l.768 3.481c-.019.182.024.395.122.666.342.934 2.193 2.139 2.393 3.102.134.644 1.15 1.804 1.52 1.534l.25-.066c.192-.14.15-.696-.122-1.086Z" />
    <path fill="#F1CC50"
        d="M15.171 23.88c-.693.06-1.346-.139-2 0-.316.02-.534 0-.851-.277-.317-.278-5.525-1.01-6.475-1.644-.439-.292-1.108-1.026-.931-1.643.175-.609.76-.953 1.465-.97 1.377-.034 4 1.96 5.901 2.693.345.134.632-.034 1.07.08.455.118 1.544-.37 2.099-.298.752.1 1.049.456.99 1.07-.063.649-.574.93-1.268.989Z" />
    <path fill="#F9CA55"
        d="M15.171 23.88c-.693.06-1.346-.139-2 0-.316.02-.534 0-.851-.277-.317-.278.593-1.6 1.03-1.486.455.119 1.545-.37 2.1-.297.752.1 1.049.455.99 1.07-.064.65-.575.93-1.269.99Zm-7.707-1.743c.159-.416.792-.594 1.09-.633.297-.04.791.139 1.128.277.337.139.745.156 1.003.057.257-.1.445-.083.638 0 .052.022.282 0 .364-.045 0 0 1.194.411.758.55-.436.138-3.614.349-4.05.349-.435 0-.931-.555-.931-.555Z" />
    <path fill="#E9AD38"
        d="M4.914 20.316c.004-.013.01-.025.015-.037.134.508.506 1.106.934 1.265.534.198 4.831 1.465 5.366 1.525.534.059 1.326.138 1.485.257.159.119.574.159.91.08.337-.08 1.189.237 1.625.138.435-.099 1.069-.297 1.188-.831l.007-.023c.003.064.002.13-.005.201-.062.65-.574.931-1.267.99-.693.06-1.347-.138-2 0-.317.02-.535 0-.851-.277-.317-.277-5.525-1.01-6.476-1.643-.439-.294-1.108-1.029-.931-1.645Z" />
    <path fill="#F1CC50"
        d="M8.829 23.88c.693.06 1.346-.139 2 0 .316.02.534 0 .851-.277.317-.278 5.525-1.01 6.475-1.644.439-.292 1.108-1.026.931-1.643-.175-.609-.76-.953-1.465-.97-1.377-.034-4 1.96-5.901 2.693-.345.134-.632-.034-1.07.08-.455.118-1.544-.37-2.099-.298-.752.1-1.049.456-.99 1.07.063.649.574.93 1.268.989Z" />
    <path fill="#74A9F0"
        d="M16.972 12.77s-.37-1.983-1.95-2.316C13.143 10.057 12.609 10 12 10c-.608 0-1.142.057-3.023.454-1.58.333-1.95 2.317-1.95 2.317l1.64.421s.236 1.48.236 2.787c0 1.308-.236 2.688-.236 2.688s1.354.223 3.333.223c1.98 0 3.333-.223 3.333-.223s-.236-1.381-.236-2.688c0-1.306.236-2.787.236-2.787l1.639-.421Z" />
    <path fill="#684023"
        d="M13.479.135c-.761-.246-2.55-.179-2.998.402C9.317.56 7.953 1.611 7.774 2.998c-.177 1.373.217 2.01.358 3.043.16 1.169.817 1.543 1.342 1.7.756.999 1.56.956 2.91.956 2.636 0 3.891-1.764 4.003-4.759.067-1.812-.996-3.185-2.908-3.803Z" />
    <path fill="#FFDC5D" d="M10.878 7.944v2.26a1.13 1.13 0 0 0 2.26 0v-2.26h-2.26Z" />
    <path fill="#E9AD38" d="M10.878 9.633c.397.145 1.31.374 2.26-.012V7.944h-2.26v1.689Z" />
    <path fill="#F1CC50"
        d="M14.986 4.066c-.255-.353-.581-.637-1.297-.738.268.123.526.548.559.783.033.234.067.425-.145.19-.852-.942-1.779-.571-2.698-1.146-.642-.401-.837-.846-.837-.846s-.078.593-1.051 1.197c-.282.175-.619.565-.806 1.14-.134.415-.092.784-.092 1.415 0 1.841 1.517 3.389 3.389 3.389 1.872 0 3.39-1.561 3.39-3.39-.001-1.144-.121-1.591-.412-1.994Z" />
</svg>