<svg xmlns="http://www.w3.org/2000/svg" xmlns:xlink="http://www.w3.org/1999/xlink">
    
    <symbol id="twitter" fill-rule="evenodd" clip-rule="evenodd" stroke-linejoin="round" stroke-miterlimit="1.414" viewBox="0 0 16 16"><path fill-rule="evenodd" d="M17.74 10.33c-.07 0-1.95-2.33-4.17-5.16L9.53 0H4.77C2.14 0 0 .02 0 .05 0 .08 2.78 3.67 6.17 8c3.4 4.35 6.16 7.97 6.14 8.03-.03.05-2.81 2.97-6.17 6.45A312.63 312.63 0 0 0 0 28.92c0 .05.6.08 1.36.08H2.7L8 23.48c2.92-3.03 5.4-5.58 5.5-5.66.13-.1 1.56 1.58 4.6 5.5l4.42 5.66 4.75.02c2.6 0 4.73-.05 4.73-.13 0-.07-2.94-3.87-6.52-8.45l-6.52-8.32.83-.85c.47-.45 2.84-2.9 5.25-5.42L30.07.62l.6-.62h-2.83l-4.99 5.17a144.68 144.68 0 0 1-5.11 5.16ZM14 14.72C8.75 7.98 4.37 2.35 4.3 2.23c-.13-.2.24-.23 2.03-.23h2.16l9.63 12.33c5.29 6.79 9.65 12.42 9.67 12.5.04.1-.76.17-2.09.17l-2.13-.02L14 14.72Z" clip-rule="evenodd"/>
</symbol>
<symbol id="telegram" fill-rule="evenodd" clip-rule="evenodd" stroke-linejoin="round" stroke-miterlimit="1.414" viewBox="0 0 16 16"><path
    d="M1.73 7.753 4.724 8.94l1.162 3.95c.073.253.368.345.559.18l1.668-1.443a.473.473 0 0 1 .607-.018l3.012 2.32c.208.16.503.04.555-.226l2.205-11.25c.057-.289-.212-.532-.472-.427L1.725 7.055c-.303.124-.299.579.005.698Zm3.97.556 5.854-3.822c.104-.069.213.083.121.17L6.843 9.421c-.169.165-.277.39-.312.634l-.164 1.29a.15.15 0 0 1-.295.024L5.44 9.012a.649.649 0 0 1 .26-.703Z" /></symbol>
<symbol id="discord" fill-rule="evenodd" clip-rule="evenodd" stroke-linejoin="round" stroke-miterlimit="1.414" viewBox="0 0 16 16"><path
    d="M12.86 3.796A12.59 12.59 0 0 0 9.97 3a7.07 7.07 0 0 0-.37.673 12.082 12.082 0 0 0-3.201 0A6.865 6.865 0 0 0 6.026 3a12.548 12.548 0 0 0-2.89.798C1.306 6.218.811 8.58 1.058 10.908a12.231 12.231 0 0 0 3.543 1.591c.285-.344.54-.71.759-1.095a7.942 7.942 0 0 1-1.195-.51c.1-.065.198-.133.293-.203 2.303.944 4.806.944 7.082 0 .096.07.194.138.293.203-.379.2-.78.372-1.197.51.22.385.473.752.759 1.096a12.207 12.207 0 0 0 3.544-1.592c.291-2.699-.496-5.038-2.08-7.112Zm-7.186 5.68a1.255 1.255 0 1 1 0-2.511c.704 0 1.271.566 1.259 1.256a1.253 1.253 0 0 1-1.259 1.255Zm4.652 0a1.255 1.255 0 1 1 0-2.511c.703 0 1.27.566 1.258 1.256 0 .69-.555 1.255-1.258 1.255Z" /></symbol>
<symbol id="rss" fill-rule="evenodd" clip-rule="evenodd" stroke-linejoin="round" stroke-miterlimit="1.414" viewBox="0 0 16 16"><path d="M12.8 16C12.8 8.978 7.022 3.2 0 3.2V0c8.777 0 16 7.223 16 16h-3.2zM2.194 11.61c1.21 0 2.195.985 2.195 2.196 0 1.21-.99 2.194-2.2 2.194C.98 16 0 15.017 0 13.806c0-1.21.983-2.195 2.194-2.195zM10.606 16h-3.11c0-4.113-3.383-7.497-7.496-7.497v-3.11c5.818 0 10.606 4.79 10.606 10.607z"/>
</symbol>
</svg>