<svg xmlns="http://www.w3.org/2000/svg" fill="none" viewBox="0 0 260 232">
  <circle cx="130" cy="116" r="116" fill="#181D23"/>
  <circle cx="130" cy="116" r="70" fill="#1E242C"/>
  <circle cx="130" cy="116" r="35" fill="#29313A"/>
  <rect width="28" height="28" x="116" y="102" fill="#46A6FF" rx="8"/>
  <rect width="16" height="4" x="122" y="107" fill="#74BCFF" rx="2"/>
  <rect width="8" height="4" x="126" y="93" fill="#3E4854" rx="2"/>
  <rect width="22" height="4" x="119" y="212" fill="#232A32" rx="2"/>
  <rect width="6" height="4" x="127" y="219" fill="#1E242C" rx="2"/>
  <rect width="16" height="4" x="122" y="86" fill="#3E4854" rx="2"/>
  <rect width="12" height="4" x="124" y="205" fill="#2C353F" rx="2"/>
  <rect width="4" height="4" x="128" y="79" fill="#3E4854" rx="2"/>
  <rect width="34" height="4" x="113" y="198" fill="#3E4854" rx="2"/>
  <rect width="22" height="4" x="119" y="72" fill="#3E4854" rx="2"/>
  <rect width="4" height="4" x="128" y="191" fill="#3E4854" rx="2"/>
  <rect width="14" height="4" x="123" y="65" fill="#3E4854" rx="2"/>
  <rect width="14" height="4" x="123" y="184" fill="#3E4854" rx="2"/>
  <rect width="6" height="4" x="127" y="58" fill="#3E4854" rx="2"/>
  <rect width="6" height="4" x="127" y="177" fill="#3E4854" rx="2"/>
  <rect width="28" height="4" x="116" y="51" fill="#3E4854" rx="2"/>
  <rect width="28" height="4" x="116" y="163" fill="#3E4854" rx="2"/>
  <rect width="18" height="4" x="121" y="44" fill="#3E4854" rx="2"/>
  <rect width="18" height="4" x="121" y="170" fill="#3E4854" rx="2"/>
  <rect width="4" height="4" x="128" y="37" fill="#3E4854" rx="2"/>
  <rect width="4" height="4" x="128" y="156" fill="#3E4854" rx="2"/>
  <rect width="34" height="4" x="113" y="30" fill="#3E4854" rx="2"/>
  <rect width="22" height="4" x="119" y="149" fill="#3E4854" rx="2"/>
  <rect width="12" height="4" x="124" y="23" fill="#2C353F" rx="2"/>
  <rect width="12" height="4" x="124" y="142" fill="#3E4854" rx="2"/>
  <rect width="20" height="4" x="120" y="16" fill="#232A32" rx="2"/>
  <rect width="10" height="4" x="125" y="9" fill="#1E242C" rx="2"/>
  <rect width="20" height="4" x="120" y="135" fill="#3E4854" rx="2"/>
  <rect width="6" height="4" x="127" y="114" fill="#74BCFF" rx="2"/>
  <rect width="14" height="4" x="123" y="121" fill="#74BCFF" rx="2"/>
  <path fill="#74BCFF" d="M133 130h-6c0-1.1.9-2 2-2h2a2 2 0 0 1 2 2Zm-8-28h10a2 2 0 0 1-2 2h-6a2 2 0 0 1-2-2Z"/>
  <rect width="24" height="24" x="213" y="38" fill="#FF646D" rx="8"/>
  <rect width="16" height="16" x="67" y="151" fill="#6046FF" rx="4"/>
  <rect width="8" height="8" x="161" y="112" fill="#12B886" rx="3"/>
  <rect width="8" height="8" x="39" y="36" fill="#FF8A1F" rx="3"/>
</svg>