<svg xmlns="http://www.w3.org/2000/svg" fill="none" viewBox="0 0 260 210">
  <path fill="#1E242C" d="M0 16A16 16 0 0 1 16 0h228a16 16 0 0 1 16 16v89a16 16 0 0 1-16 16H16a16 16 0 0 1-16-16V16Z"/>
  <path stroke="#9488F0" stroke-width="2" d="M85 76v14"/>
  <path stroke="#3E4854" stroke-width="2" d="M154 61h10M85 31v14"/>
  <path stroke="#9488F0" stroke-width="2" d="M116.5 100H104m25-20v10"/>
  <path fill="#1E242C" d="M0 137a8 8 0 0 1 8-8h244a8 8 0 0 1 8 8v57a16 16 0 0 1-16 16H16a16 16 0 0 1-16-16v-57Z"/>
  <path fill="#29313A" d="M8 153h151v41a8 8 0 0 1-8 8H16a8 8 0 0 1-8-8v-41Z"/>
  <rect width="85" height="65" x="167" y="137" fill="#0B0F14" rx="8"/>
  <rect width="15" height="4" x="23" y="141" fill="#3E4854" rx="2"/>
  <path fill="#6046FF" d="M12 153c0-1.1.9-2 2-2h34a2 2 0 0 1 2 2H12Z"/>
  <rect width="17" height="4" x="54" y="141" fill="#29313A" rx="2"/>
  <rect width="6" height="4" x="17" y="160" fill="#3E4854" rx="2"/>
  <rect width="4" height="4" x="125" y="160" fill="#1E242C" rx="2"/>
  <rect width="4" height="4" x="125" y="170" fill="#1E242C" rx="2"/>
  <rect width="4" height="4" x="125" y="180" fill="#1E242C" rx="2"/>
  <rect width="4" height="4" x="125" y="190" fill="#1E242C" rx="2"/>
  <rect width="49" height="4" x="31" y="160" fill="#3E4854" rx="2"/>
  <rect width="10" height="4" x="141" y="160" fill="#3E4854" rx="2"/>
  <rect width="13" height="4" x="175" y="145" fill="#1E242C" rx="2"/>
  <rect width="36" height="4" x="192" y="145" fill="#6046FF" rx="2"/>
  <rect width="9" height="4" x="175" y="154" fill="#1E242C" rx="2"/>
  <rect width="13" height="4" x="175" y="163" fill="#1E242C" rx="2"/>
  <rect width="17" height="4" x="192" y="154" fill="#6046FF" rx="2"/>
  <rect width="27" height="4" x="192" y="163" fill="#6046FF" rx="2"/>
  <rect width="69" height="1" x="175" y="194" fill="#181D23" rx=".5"/>
  <rect width="69" height="1" x="175" y="186" fill="#181D23" rx=".5"/>
  <rect width="69" height="1" x="175" y="178" fill="#181D23" rx=".5"/>
  <rect width="10" height="4" x="17" y="170" fill="#3E4854" rx="2"/>
  <rect width="6" height="4" x="17" y="180" fill="#3E4854" rx="2"/>
  <rect width="10" height="4" x="17" y="190" fill="#3E4854" rx="2"/>
  <rect width="71" height="4" x="31" y="170" fill="#3E4854" rx="2"/>
  <rect width="16" height="4" x="31" y="180" fill="#3E4854" rx="2"/>
  <rect width="29" height="4" x="31" y="190" fill="#3E4854" rx="2"/>
  <rect width="11" height="4" x="140" y="170" fill="#3E4854" rx="2"/>
  <rect width="14" height="4" x="137" y="180" fill="#3E4854" rx="2"/>
  <rect width="10" height="4" x="141" y="190" fill="#3E4854" rx="2"/>
  <rect width="7" height="4" x="152" y="141" fill="#29313A" rx="2"/>
  <rect width="7" height="4" x="140" y="141" fill="#29313A" rx="2"/>
  <rect width="32" height="20" x="19" y="30" fill="#0B0F14" rx="4"/>
  <rect width="41" height="33" x="110.5" y="44.5" fill="#0B0F14" stroke="#6046FF" rx="3.5"/>
  <rect width="32" height="20" x="205" y="30" fill="#0B0F14" rx="4"/>
  <rect width="20.61" height="20.61" x="70.57" y="60.57" fill="#6046FF" rx="4" transform="rotate(-45 70.57 60.57)"/>
  <rect width="32" height="20" x="19" y="72" fill="#0B0F14" rx="4"/>
  <rect width="32" height="20" x="205" y="72" fill="#0B0F14" rx="4"/>
  <rect width="22" height="16" x="118" y="92" fill="#12B886" rx="4"/>
  <path stroke="#3E4854" stroke-width="2" d="M53 40h8m0 0v21m0-21V24a3 3 0 0 1 3-3h2M53 82h5a3 3 0 0 0 3-3V61m0 0h9m133 21h-5a3 3 0 0 1-3-3V61m8-21h-5a3 3 0 0 0-3 3v18m0 0h-9"/>
  <rect width="34" height="16" x="68" y="92" fill="#12B886" rx="4"/>
  <rect width="34" height="16" x="68" y="13" fill="#FF646D" rx="4"/>
  <circle cx="175" cy="61" r="9" fill="#6046FF"/>
  <rect width="16" height="2" x="115" y="50" fill="#3E4854" rx="1"/>
  <rect width="14" height="2" x="115" y="60" fill="#3E4854" rx="1"/>
  <rect width="10" height="2" x="115" y="71" fill="#3E4854" rx="1"/>
  <rect width="12" height="2" x="121" y="97" fill="#3E4854" rx="1"/>
  <rect width="17" height="2" x="71" y="97" fill="#3E4854" rx="1"/>
  <rect width="17" height="2" x="71" y="18" fill="#3E4854" rx="1"/>
  <rect width="6" height="2" x="121" y="101" fill="#3E4854" rx="1"/>
  <rect width="25" height="2" x="71" y="101" fill="#3E4854" rx="1"/>
  <rect width="25" height="2" x="71" y="22" fill="#3E4854" rx="1"/>
  <rect width="5" height="2" x="141" y="71" fill="#3E4854" rx="1"/>
  <rect width="31" height="2" x="115" y="55" fill="#3E4854" rx="1"/>
  <rect width="31" height="2" x="131" y="27" fill="#3E4854" rx="1"/>
  <rect width="17" height="2" x="131" y="22" fill="#3E4854" rx="1"/>
  <rect width="39" height="2" x="131" y="17" fill="#3E4854" rx="1"/>
  <circle cx="232" cy="35" r="3" fill="#FF646D"/>
  <circle cx="232" cy="77" r="3" fill="#12B886"/>
  <circle cx="184.5" cy="186.5" r="3.5" fill="#46A6FF"/>
  <circle cx="193.5" cy="194.5" r="1.5" fill="#46A6FF"/>
  <circle cx="202.5" cy="194.5" r="1.5" fill="#46A6FF"/>
  <circle cx="211.5" cy="186.5" r="1.5" fill="#46A6FF"/>
  <circle cx="228.5" cy="186.5" r="1.5" fill="#46A6FF"/>
  <circle cx="237.5" cy="186.5" r="1.5" fill="#46A6FF"/>
  <circle cx="220.5" cy="178.5" r="4.5" fill="#46A6FF"/>
  <rect width="10" height="10" x="241" y="9" fill="#29313A" rx="3"/>
  <rect width="10" height="10" x="226" y="9" fill="#29313A" rx="3"/>
  <rect width="30" height="6" x="189" y="11" fill="#29313A" rx="3"/>
  <path fill="#29313A" d="M254 129H6a4 4 0 0 1 4-4h240a4 4 0 0 1 4 4Z"/>
</svg>