<svg xmlns="http://www.w3.org/2000/svg" fill="none" viewBox="0 0 260 210">
  <rect width="86" height="64" x="87" y="73" fill="#46A6FF" rx="8"/>
  <path fill="#FF8A1F" d="M173 91h2a4 4 0 0 1 4 4v20a4 4 0 0 1-4 4h-2V91Zm-86 28h-2a4 4 0 0 1-4-4V95a4 4 0 0 1 4-4h2v28Zm47-46v-2a4 4 0 0 1 4-4h20a4 4 0 0 1 4 4v2h-28Zm-36 0v-2a4 4 0 0 1 4-4h20a4 4 0 0 1 4 4v2H98Zm46 64v2a4 4 0 0 1-4 4h-20a4 4 0 0 1-4-4v-2h28Z"/>
  <rect width="40" height="40" x="220" fill="#1E242C" rx="8"/>
  <circle cx="240" cy="20" r="8" fill="#3E4854"/>
  <rect width="40" height="40" fill="#1E242C" rx="8"/>
  <rect width="40" height="40" x="40" y="170" fill="#1E242C" rx="8"/>
  <rect width="40" height="40" x="110" y="170" fill="#1E242C" rx="8"/>
  <rect width="40" height="40" x="110" fill="#1E242C" rx="8"/>
  <rect width="24" height="24" x="158" y="8" fill="#1E242C" rx="6"/>
  <rect width="24" height="24" x="78" y="8" fill="#1E242C" rx="6"/>
  <rect width="40" height="40" x="179" y="170" fill="#1E242C" rx="8"/>
  <rect width="38" height="38" x="204" y="86" fill="#1E242C" stroke="#FF646D" stroke-width="2" rx="7"/>
  <rect width="38" height="38" x="18" y="86" fill="#1E242C" stroke="#9488F0" stroke-width="2" rx="7"/>
  <circle cx="60" cy="190" r="8" fill="#3E4854"/>
  <circle cx="130" cy="20" r="8" fill="#3E4854"/>
  <circle cx="130" cy="190" r="8" fill="#3E4854"/>
  <circle cx="170" cy="20" r="5" fill="#3E4854"/>
  <circle cx="90" cy="20" r="5" fill="#3E4854"/>
  <circle cx="20" cy="20" r="8" fill="#3E4854"/>
  <circle cx="223" cy="105" r="8" fill="#3E4854"/>
  <circle cx="199" cy="190" r="8" fill="#3E4854"/>
  <circle cx="37" cy="105" r="8" fill="#3E4854"/>
  <rect width="32" height="10" x="151" y="121" fill="#74BCFF" rx="5" transform="rotate(-90 151 121)"/>
  <rect width="32" height="10" x="99" y="121" fill="#74BCFF" rx="5" transform="rotate(-90 99 121)"/>
  <rect width="16" height="4" x="123" y="103" fill="#74BCFF" rx="2"/>
  <rect width="13" height="4" x="123" y="111" fill="#74BCFF" rx="2"/>
  <rect width="18" height="4" x="123" y="119" fill="#74BCFF" rx="2"/>
  <rect width="5" height="4" x="123" y="127" fill="#74BCFF" rx="2"/>
  <rect width="9" height="4" x="123" y="95" fill="#74BCFF" rx="2"/>
  <rect width="21" height="4" x="123" y="87" fill="#74BCFF" rx="2"/>
  <rect width="11" height="4" x="123" y="79" fill="#74BCFF" rx="2"/>
  <path fill="#74BCFF" d="M123 73h17a2 2 0 0 1-2 2h-13a2 2 0 0 1-2-2Zm17 64h-17c0-1.1.9-2 2-2h13a2 2 0 0 1 2 2Z"/>
  <path stroke="#3E4854" stroke-width="2" d="M207 105h8"/>
  <path stroke="#FF8C93" stroke-width="2" d="M181 105h22"/>
  <path stroke="#3E4854" stroke-width="2" d="M45 105h8"/>
  <path stroke="#9488F0" stroke-width="2" d="M57 105h21.5"/>
  <path stroke="#3E4854" stroke-width="2" d="M130 26v30m0 0h16m-16 0h-16m32 0v9m0-9v-2a7 7 0 0 1 7-7h14a3 3 0 0 0 3-3V23m-56 33v9m0-9v-2a7 7 0 0 0-7-7H93a3 3 0 0 1-3-3V23m40 122v11m0 0h66a3 3 0 0 1 3 3v25m-69-28H63a3 3 0 0 0-3 3v25m70-1v-24"/>
  <path stroke="#3E4854" stroke-width="2" d="M150 65V54a3 3 0 0 1 3-3h83.5a3 3 0 0 0 3-3V27m-130 38V54a3 3 0 0 0-3-3H23a3 3 0 0 1-3-3V27"/>
</svg>