<svg xmlns="http://www.w3.org/2000/svg" fill="none" viewBox="0 0 1144 660" width="1144" height="660">
  <path fill="#55606F" d="M330.4 151.1a70 70 0 1 1 140 0 70 70 0 0 1-140 0Z"/>
  <path fill="#2C353F" fill-rule="evenodd" d="M400.4 256.1c-57.99 0-105-47.01-105-105s47.01-105 105-105 105 47.01 105 105-47.01 105-105 105Zm0-175a70 70 0 1 0 0 140 70 70 0 0 0 0-140Z" clip-rule="evenodd"/>
  <circle cx="572" cy="521" r="75" fill="#2C353F"/>
  <path fill="#46A6FF" d="M585 428h-26l13 18 13-18Z"/>
  <rect width="29" height="23" x="557" y="543" fill="#9488F0" rx="2.8"/>
  <rect width="29" height="84" x="595" y="482" fill="#46A6FF" rx="2.8"/>
  <rect width="29" height="56" x="634" y="510" fill="#46A6FF" rx="2.8"/>
  <path fill="#6B7A8A" d="M595 467.8a2.8 2.8 0 0 1 2.8-2.8h23.4a2.8 2.8 0 0 1 2.8 2.8V498h-29v-30.2Zm39 45a2.8 2.8 0 0 1 2.8-2.8h23.4a2.8 2.8 0 0 1 2.8 2.8V525h-29v-12.2Z"/>
  <rect width="29" height="34" x="519" y="532" fill="#46A6FF" rx="2.8"/>
  <path fill="#6B7A8A" d="M519 520.8a2.8 2.8 0 0 1 2.8-2.8h23.4a2.8 2.8 0 0 1 2.8 2.8V541h-29v-20.2Z"/>
  <rect width="29" height="58" x="481" y="508" fill="#46A6FF" rx="2.8"/>
  <path fill="#6B7A8A" d="M481 510.8a2.8 2.8 0 0 1 2.8-2.8h23.4a2.8 2.8 0 0 1 2.8 2.8V524h-29v-13.2Z"/>
  <rect width="14" height="4" x="565" y="573" fill="#9488F0" rx="2"/>
  <rect width="14" height="4" x="527" y="573" fill="#465160" rx="2"/>
  <rect width="13" height="4" x="489" y="573" fill="#465160" rx="2"/>
  <rect width="14" height="4" x="603" y="573" fill="#465160" rx="2"/>
  <rect width="13" height="4" x="642" y="573" fill="#465160" rx="2"/>
  <path fill="#12161C" d="M556 524.86c0-1.73 0-2.6.15-3.31a7 7 0 0 1 5.4-5.4c.72-.15 1.58-.15 3.31-.15h14.28c1.73 0 2.6 0 3.31.15a7 7 0 0 1 5.4 5.4c.15.72.15 1.58.15 3.31v.94c0 .86 0 1.28-.04 1.64a7 7 0 0 1-6.24 6.24c-.36.04-.79.04-1.64.04h-.49a7 7 0 0 0-5.3 2.5l-.08.1-.08.1a2.8 2.8 0 0 1-4.26 0l-.08-.1-.08-.1a7 7 0 0 0-5.3-2.5h-.49c-.85 0-1.28 0-1.64-.04a7 7 0 0 1-6.24-6.24c-.04-.36-.04-.78-.04-1.64v-.94Z"/>
  <rect width="18" height="4" x="563" y="523" fill="#fff" rx="2"/>
  <path fill="#8D9EB0" d="M520.02 618.83h3.5a3.6 3.6 0 0 1 3 1.35c.7.88 1.05 2.3 1.05 4.24 0 1.94-.35 3.36-1.06 4.25a3.6 3.6 0 0 1-2.99 1.33h-3.5v-11.17Zm3.5 10.05c.8 0 1.45-.28 1.94-.83.49-.56.73-1.35.73-2.39v-2.5c0-1.03-.24-1.82-.73-2.38a2.46 2.46 0 0 0-1.94-.83h-2.22v8.93h2.22Zm11.32 1.12c-.8 0-1.19-.4-1.19-1.18v-.16h-.16a2 2 0 0 1-.76 1.15c-.37.25-.8.38-1.32.38-.8 0-1.4-.2-1.79-.6-.4-.41-.59-1-.59-1.8 0-.77.25-1.37.75-1.82.51-.45 1.3-.67 2.39-.67h1.48v-.92c0-.6-.13-1.05-.41-1.34-.27-.29-.7-.43-1.28-.43-.48 0-.87.1-1.17.32-.29.2-.54.5-.75.9l-.72-.68a2.96 2.96 0 0 1 2.69-1.58c.94 0 1.64.23 2.12.69.5.44.74 1.11.74 2v4.67h.83V630h-.86Zm-3.12-.86a2 2 0 0 0 .77-.15c.24-.1.45-.22.62-.37.17-.16.3-.33.4-.52.1-.2.14-.42.14-.63v-1.25h-1.52c-.64 0-1.1.11-1.4.32-.3.22-.44.53-.44.93v.45c0 .42.13.73.39.93.25.19.6.29 1.04.29Zm7.28.86c-.43 0-.75-.1-.96-.29-.19-.2-.28-.52-.28-.96v-5.93h-1.22v-1.08h.72c.25 0 .4-.06.48-.17a.99.99 0 0 0 .13-.56v-1.54h1.1v2.27h1.6v1.08h-1.6v6.1h1.52V630H539Zm8.65 0c-.79 0-1.18-.4-1.18-1.18v-.16h-.16c-.14.5-.4.88-.77 1.15-.36.25-.8.38-1.31.38-.8 0-1.4-.2-1.8-.6-.39-.41-.59-1-.59-1.8 0-.77.25-1.37.75-1.82.52-.45 1.31-.67 2.39-.67h1.49v-.92c0-.6-.14-1.05-.42-1.34-.27-.29-.7-.43-1.28-.43-.48 0-.87.1-1.17.32-.28.2-.54.5-.75.9l-.72-.68a2.96 2.96 0 0 1 2.69-1.58c.94 0 1.65.23 2.13.69.49.44.73 1.11.73 2v4.67h.84V630h-.87Zm-3.12-.86a2.22 2.22 0 0 0 1.39-.52c.17-.16.3-.33.4-.52.1-.2.15-.42.15-.63v-1.25h-1.52c-.64 0-1.11.11-1.41.32a1.1 1.1 0 0 0-.43.93v.45c0 .42.13.73.38.93.26.19.6.29 1.04.29Zm10.57.86-2.45-11.17h1.33l1.5 7.22.4 2.67h.16l.4-2.67 1.52-7.22h1.73l1.52 7.22.4 2.67h.16l.4-2.67 1.5-7.22h1.3L562.42 630h-1.6l-1.53-7.22-.4-2.83h-.16l-.4 2.83-1.63 7.22h-1.6Zm16.28 0c-.78 0-1.18-.4-1.18-1.18v-.16h-.16c-.14.5-.4.88-.77 1.15-.36.25-.8.38-1.3.38-.8 0-1.4-.2-1.8-.6-.4-.41-.6-1-.6-1.8 0-.77.26-1.37.76-1.82.51-.45 1.3-.67 2.38-.67h1.5v-.92c0-.6-.15-1.05-.43-1.34-.26-.29-.69-.43-1.27-.43-.49 0-.87.1-1.17.32-.3.2-.54.5-.75.9l-.73-.68a2.96 2.96 0 0 1 2.69-1.58c.94 0 1.65.23 2.13.69.5.44.74 1.11.74 2v4.67h.83V630h-.87Zm-3.12-.86c.28 0 .54-.05.77-.15.25-.1.46-.22.63-.37.17-.16.3-.33.4-.52.1-.2.14-.42.14-.63v-1.25h-1.52c-.64 0-1.1.11-1.4.32-.3.22-.44.53-.44.93v.45c0 .42.13.73.38.93.26.19.6.29 1.04.29Zm5.64.86v-8.26h1.22v1.54h.16c.14-.48.37-.85.7-1.12.35-.28.79-.42 1.33-.42h.45v1.24h-.8c-.58 0-1.03.12-1.36.38-.32.26-.48.64-.48 1.15V630h-1.22Zm8.1.2c-.48 0-.93-.09-1.34-.25a2.62 2.62 0 0 1-1.07-.77 3.8 3.8 0 0 1-.7-1.34 6.61 6.61 0 0 1-.26-1.97c0-.77.08-1.42.25-1.97.17-.54.4-.99.7-1.34.3-.35.66-.6 1.08-.77a3.71 3.71 0 0 1 2.65 0c.4.16.75.42 1.03.77.27.35.49.8.64 1.34.16.55.24 1.2.24 1.97v.3h-5.3v.53c0 .81.18 1.42.55 1.83.37.4.88.59 1.53.59.55 0 1-.12 1.36-.35.35-.25.63-.61.83-1.09l.83.6a3.16 3.16 0 0 1-3.02 1.9Zm0-7.62c-.66 0-1.17.2-1.53.62-.37.42-.55 1.03-.55 1.84v.2h4v-.2c0-1.64-.64-2.46-1.92-2.46Zm5.1-4.42h1.22v4.93h.16c.16-.51.4-.9.74-1.15.34-.26.8-.39 1.38-.39.73 0 1.3.25 1.72.75.43.5.64 1.28.64 2.32V630h-1.21v-5.3c0-.66-.14-1.16-.42-1.52-.27-.35-.68-.52-1.25-.52-.49 0-.9.14-1.25.44-.34.3-.5.72-.5 1.27V630h-1.22v-11.84Zm11.03 12.03c-.48 0-.93-.08-1.35-.24a2.62 2.62 0 0 1-1.07-.77 3.8 3.8 0 0 1-.7-1.34 6.61 6.61 0 0 1-.26-1.97c0-.77.09-1.42.26-1.97.17-.54.4-.99.7-1.34.3-.35.66-.6 1.07-.77a3.76 3.76 0 0 1 2.69 0c.42.16.77.42 1.07.77.3.35.54.8.7 1.34.18.55.26 1.2.26 1.97s-.08 1.43-.25 1.97c-.17.54-.41 1-.7 1.34-.3.36-.66.61-1.08.77a3.7 3.7 0 0 1-1.34.24Zm0-1.09c.66 0 1.16-.2 1.52-.59.36-.4.54-1 .54-1.8v-1.67c0-.81-.18-1.41-.54-1.8-.36-.4-.86-.6-1.52-.6-.67 0-1.18.2-1.54.6-.35.39-.53.99-.53 1.8v1.66c0 .81.18 1.42.53 1.81.36.4.87.6 1.54.6Zm9.8-.44h-.16c-.16.5-.4.9-.75 1.15a2.2 2.2 0 0 1-1.36.38c-.74 0-1.32-.25-1.74-.75-.42-.5-.63-1.28-.63-2.32v-5.38h1.22v5.3c0 .66.13 1.17.4 1.52.28.35.7.53 1.26.53.5 0 .9-.15 1.25-.45.34-.3.51-.72.51-1.26v-5.64h1.22V630h-1.22v-1.34Zm5.93 1.53a3.6 3.6 0 0 1-1.76-.41 3.83 3.83 0 0 1-1.23-1.16l.85-.7c.29.4.6.72.93.93.34.21.74.32 1.21.32.48 0 .86-.12 1.14-.35.29-.25.43-.6.43-1.04 0-.37-.09-.66-.27-.88-.18-.23-.52-.38-1-.47l-.63-.11c-.8-.15-1.4-.4-1.8-.75-.38-.35-.57-.89-.57-1.6 0-.42.06-.77.2-1.07a1.9 1.9 0 0 1 1.37-1.19c.33-.1.68-.14 1.07-.14a3.09 3.09 0 0 1 2.66 1.28l-.79.72a2.56 2.56 0 0 0-.72-.67 2 2 0 0 0-1.15-.3c-.97 0-1.46.43-1.46 1.32 0 .4.1.7.3.9.22.18.56.31 1.03.4l.63.1c.84.16 1.44.42 1.79.8.35.37.52.87.52 1.51 0 .8-.23 1.43-.7 1.89-.46.45-1.14.67-2.05.67Zm7.56 0a3.7 3.7 0 0 1-1.34-.24 2.62 2.62 0 0 1-1.07-.77 3.8 3.8 0 0 1-.7-1.34 6.61 6.61 0 0 1-.26-1.97c0-.77.08-1.42.25-1.97.17-.54.4-.99.7-1.34.3-.35.66-.6 1.08-.77a3.71 3.71 0 0 1 2.65 0c.41.16.75.42 1.03.77.28.35.49.8.64 1.34.16.55.24 1.2.24 1.97v.3h-5.3v.53c0 .81.18 1.42.55 1.83.37.4.88.59 1.53.59.56 0 1.01-.12 1.36-.35.36-.25.63-.61.84-1.09l.83.6a3.16 3.16 0 0 1-3.02 1.9Zm0-7.61c-.66 0-1.17.2-1.53.62-.37.42-.55 1.03-.55 1.84v.2h4v-.2c0-1.64-.64-2.46-1.92-2.46Z"/>
  <circle cx="343" cy="521" r="75" fill="#2C353F"/>
  <path fill="#9488F0" d="M356 428h-26l13 18 13-18Z"/>
  <path fill="#FF646D" fill-rule="evenodd" d="M311 482.44c-11.48 0-20.78 9.43-20.78 21.06 0 11.63 9.3 21.06 20.78 21.06s20.78-9.43 20.78-21.06c0-11.63-9.3-21.06-20.78-21.06Zm-37 21.06c0-20.71 16.56-37.5 37-37.5s37 16.79 37 37.5-16.56 37.5-37 37.5-37-16.79-37-37.5Z" clip-rule="evenodd"/>
  <path fill="#00AEE9" fill-rule="evenodd" d="M312 524.78c11.17 0 20.22-9.3 20.22-20.78H348c0 20.43-16.12 37-36 37v-16.22Z" clip-rule="evenodd"/>
  <path fill="#129A6D" fill-rule="evenodd" d="M326 519.73a21.68 21.68 0 0 0 6.58-15.73H348a38.66 38.66 0 0 1-11.72 28L326 519.73Z" clip-rule="evenodd"/>
  <path fill="#9488F0" fill-rule="evenodd" d="M332.22 504c0-11.79-9.05-21.34-20.22-21.34V466c19.88 0 36 17.01 36 38h-15.78Z" clip-rule="evenodd"/>
  <path fill="#FFBC52" fill-rule="evenodd" d="M329 515.79a21.66 21.66 0 0 0 3.43-11.79H348c0 7.77-2.26 15.01-6.13 21L329 515.79Z" clip-rule="evenodd"/>
  <path fill="#FF646D" d="M369 473a4 4 0 1 1 8 0 4 4 0 0 1-8 0Z"/>
  <path fill="#AFA5FB" d="M369 487a4 4 0 1 1 8 0 4 4 0 0 1-8 0Z"/>
  <path fill="#FFBC52" d="M369 501a4 4 0 1 1 8 0 4 4 0 0 1-8 0Z"/>
  <path fill="#129A6D" d="M369 515a4 4 0 1 1 8 0 4 4 0 0 1-8 0Z"/>
  <path fill="#00AEE9" d="M369 529a4 4 0 1 1 8 0 4 4 0 0 1-8 0Z"/>
  <path fill="#465160" d="M368 452.5c0-1.93 1.38-3.5 3.07-3.5h35.86c1.7 0 3.07 1.57 3.07 3.5s-1.38 3.5-3.07 3.5h-35.86c-1.7 0-3.07-1.57-3.07-3.5ZM261 564c0-1.66 1.36-3 3.04-3h22.92a3.02 3.02 0 0 1 3.04 3c0 1.66-1.36 3-3.04 3h-22.92a3.02 3.02 0 0 1-3.04-3Zm93 0c0-1.66 1.32-3 2.94-3h16.12a2.97 2.97 0 0 1 2.94 3c0 1.66-1.32 3-2.94 3h-16.12a2.97 2.97 0 0 1-2.94-3Zm-94-26.5c0-1.93 1.46-3.5 3.27-3.5h5.46c1.8 0 3.27 1.57 3.27 3.5s-1.46 3.5-3.27 3.5h-5.46c-1.8 0-3.27-1.57-3.27-3.5Z"/>
  <path fill="#3E4854" d="M260 452.5c0-1.93 1.83-3.5 4.09-3.5h33.82c2.26 0 4.09 1.57 4.09 3.5s-1.83 3.5-4.09 3.5H264.1c-2.26 0-4.09-1.57-4.09-3.5Zm1 131.5c0-4.42 3.6-8 8.05-8h27.9a8.03 8.03 0 0 1 8.05 8c0 4.42-3.6 8-8.05 8h-27.9a8.03 8.03 0 0 1-8.05-8Z"/>
  <path fill="#12B886" d="M310 576a3 3 0 0 1 3-3h11a3 3 0 1 1 0 6h-11a3 3 0 0 1-3-3Z"/>
  <path fill="#3E4854" d="M354 584c0-4.42 3.62-8 8.09-8h21.82a8.04 8.04 0 0 1 8.09 8c0 4.42-3.62 8-8.09 8H362.1a8.04 8.04 0 0 1-8.09-8Z"/>
  <path fill="#FF646D" d="M397 576c0-1.66 1.42-3 3.18-3h11.64a3.1 3.1 0 0 1 3.18 3c0 1.66-1.42 3-3.18 3h-11.64a3.1 3.1 0 0 1-3.18-3Z"/>
  <path fill="#12161C" d="M320 470.86c0-1.73 0-2.6.15-3.31a7 7 0 0 1 5.4-5.4c.72-.15 1.58-.15 3.31-.15h16.28c1.73 0 2.6 0 3.31.15a7 7 0 0 1 5.4 5.4c.15.72.15 1.58.15 3.31v.35c0 1.4 0 2.1-.1 2.7a7 7 0 0 1-5.71 5.71c-.6.1-1.3.1-2.7.1h-.99a7 7 0 0 0-5.18 2.63l-.38.42a2.8 2.8 0 0 1-3.88 0l-.38-.42-.41-.46a7 7 0 0 0-4.77-2.16h-.98c-1.41 0-2.12 0-2.7-.1a7 7 0 0 1-5.72-5.72c-.1-.6-.1-1.3-.1-2.7v-.35Z"/>
  <rect width="18" height="4" x="328" y="469" fill="#fff" rx="2"/>
  <rect width="44" height="6" x="382" y="498" fill="#465160" rx="3"/>
  <rect width="26" height="6" x="382" y="484" fill="#465160" rx="3"/>
  <rect width="16" height="6" x="382" y="512" fill="#465160" rx="3"/>
  <rect width="27" height="6" x="382" y="526" fill="#465160" rx="3"/>
  <rect width="32" height="6" x="382" y="470" fill="#465160" rx="3"/>
  <path fill="#8D9EB0" d="M297.13 618.83h4.22c.84 0 1.49.24 1.94.72.45.47.68 1.2.68 2.16 0 .45-.05.82-.16 1.12-.1.29-.24.52-.41.7a1.63 1.63 0 0 1-1.14.53v.16c.2 0 .4.05.64.13a2.16 2.16 0 0 1 1.2 1.2c.15.32.23.73.23 1.22 0 1.02-.24 1.82-.7 2.38a2.3 2.3 0 0 1-1.85.85h-4.65v-11.17Zm1.27 10.05h3c.5 0 .9-.13 1.15-.4.27-.28.4-.7.4-1.28v-.74c0-.57-.13-1-.4-1.26-.26-.28-.64-.42-1.15-.42h-3v4.1Zm0-5.22h2.79c.46 0 .81-.11 1.06-.35.24-.24.36-.62.36-1.13v-.74c0-.51-.12-.89-.37-1.12-.24-.25-.6-.37-1.05-.37h-2.79v3.71Zm9.28 6.34c-.44 0-.75-.1-.96-.29-.19-.2-.29-.52-.29-.96v-10.59h1.22v10.77h1.04V630h-1Zm5.52.2c-.48 0-.92-.09-1.34-.25a2.63 2.63 0 0 1-1.07-.77c-.3-.35-.54-.8-.7-1.34a6.61 6.61 0 0 1-.26-1.97c0-.77.08-1.42.25-1.97.18-.54.4-.99.7-1.34.3-.35.66-.6 1.08-.77a3.76 3.76 0 0 1 2.69 0c.41.16.77.42 1.07.77.3.35.53.8.7 1.34.18.55.26 1.2.26 1.97s-.08 1.43-.26 1.97c-.17.54-.4 1-.7 1.34-.3.36-.66.61-1.07.77-.42.16-.87.24-1.35.24Zm0-1.1c.67 0 1.17-.2 1.52-.59.37-.4.55-1 .55-1.8v-1.67c0-.81-.18-1.41-.55-1.8-.35-.4-.86-.6-1.52-.6s-1.17.2-1.53.6c-.35.39-.53.99-.53 1.8v1.66c0 .81.18 1.42.53 1.81.36.4.87.6 1.53.6Zm7.97 1.1a3.04 3.04 0 0 1-2.42-1.02c-.57-.67-.86-1.77-.86-3.3 0-1.54.29-2.65.86-3.32.6-.67 1.4-1 2.42-1a2.9 2.9 0 0 1 2.88 1.9l-1 .5a1.9 1.9 0 0 0-.66-.97c-.3-.23-.7-.35-1.22-.35-.67 0-1.17.2-1.49.6-.32.39-.48.99-.48 1.8v1.66c0 .81.16 1.42.48 1.81.32.4.82.6 1.49.6.53 0 .96-.12 1.28-.36.33-.23.6-.59.78-1.07l.9.62a3.08 3.08 0 0 1-1.12 1.38c-.49.34-1.1.51-1.84.51Zm4.55-12.04h1.21v6.08l-.1 1.62h.13l1.16-1.56 2.06-2.56h1.47l-2.73 3.28 2.97 4.98h-1.45l-2.42-4.26-1.09 1.28V630h-1.21v-11.84ZM336.84 630v-11.17h6.18v1.12h-4.9v3.84h4.6v1.12h-4.6v3.97h4.9V630h-6.18Zm7.4 0 2.72-4.2-2.6-4.06h1.37l1.84 3.01h.16l1.87-3h1.33l-2.6 4 2.68 4.25h-1.38l-1.9-3.23h-.16l-2 3.23h-1.33Zm8.26-8.26h1.21v1.35h.16a2 2 0 0 1 .77-1.17c.36-.25.8-.37 1.31-.37.5 0 .93.1 1.3.3.37.2.69.5.94.87.26.37.45.83.58 1.36.13.53.2 1.13.2 1.8a7.7 7.7 0 0 1-.2 1.78c-.13.54-.32 1-.58 1.36a2.7 2.7 0 0 1-.94.87c-.37.2-.8.3-1.3.3s-.95-.12-1.3-.35a2.1 2.1 0 0 1-.78-1.18h-.16v4.54h-1.21v-11.46Zm3.08 7.36c.68 0 1.19-.2 1.54-.62.35-.43.53-1.02.53-1.78v-1.66c0-.76-.18-1.34-.53-1.76-.35-.43-.86-.64-1.54-.64a2.03 2.03 0 0 0-1.33.43 2 2 0 0 0-.4.5c-.09.19-.14.4-.14.64v3.33a1.41 1.41 0 0 0 .55 1.13c.17.14.37.25.59.32.23.08.48.11.73.11Zm6.56.9c-.44 0-.76-.1-.96-.29-.2-.2-.3-.52-.3-.96v-10.59h1.22v10.77h1.04V630h-1Zm5.52.2c-.48 0-.93-.09-1.35-.25a2.63 2.63 0 0 1-1.07-.77c-.3-.35-.53-.8-.7-1.34a6.61 6.61 0 0 1-.26-1.97c0-.77.09-1.42.26-1.97.17-.54.4-.99.7-1.34.3-.35.66-.6 1.07-.77a3.76 3.76 0 0 1 2.69 0c.42.16.77.42 1.07.77.3.35.54.8.7 1.34.18.55.26 1.2.26 1.97s-.08 1.43-.25 1.97c-.17.54-.4 1-.7 1.34-.3.36-.66.61-1.08.77a3.7 3.7 0 0 1-1.34.24Zm0-1.1c.66 0 1.16-.2 1.52-.59.36-.4.54-1 .54-1.8v-1.67c0-.81-.18-1.41-.54-1.8-.36-.4-.86-.6-1.52-.6s-1.18.2-1.54.6c-.35.39-.53.99-.53 1.8v1.66c0 .81.18 1.42.53 1.81.36.4.88.6 1.54.6Zm5.24.9v-8.26h1.22v1.54h.16c.14-.48.37-.85.7-1.12.34-.28.79-.42 1.33-.42h.45v1.24h-.8c-.58 0-1.03.12-1.36.38-.32.26-.48.64-.48 1.15V630h-1.22Zm8.1.2c-.48 0-.93-.09-1.34-.25a2.62 2.62 0 0 1-1.08-.77 3.8 3.8 0 0 1-.7-1.34 6.61 6.61 0 0 1-.25-1.97c0-.77.08-1.42.25-1.97.17-.54.4-.99.7-1.34.3-.35.66-.6 1.08-.77a3.71 3.71 0 0 1 2.65 0c.4.16.75.42 1.03.77.27.35.49.8.64 1.34.16.55.24 1.2.24 1.97v.3h-5.3v.53c0 .81.18 1.42.54 1.83.38.4.89.59 1.54.59.56 0 1-.12 1.36-.35.35-.25.63-.61.83-1.09l.83.6a3.16 3.16 0 0 1-3.02 1.9Zm0-7.62c-.66 0-1.17.2-1.54.62-.36.42-.54 1.03-.54 1.84v.2h4v-.2c0-1.64-.64-2.46-1.92-2.46Zm5.1 7.42v-8.26h1.22v1.54h.16c.14-.48.38-.85.7-1.12.35-.28.8-.42 1.33-.42h.45v1.24h-.8c-.57 0-1.03.12-1.36.38-.32.26-.48.64-.48 1.15V630h-1.21Z"/>
  <circle cx="115" cy="521" r="75" fill="#2C353F"/>
  <path fill="#12B886" d="M128 428h-26l13 18 13-18Z"/>
  <path fill="#FF646D" d="M64.72 565.28a2.63 2.63 0 0 1 2.63 2.63v9.54a1.75 1.75 0 0 0 3.5 0v-9.54a2.63 2.63 0 0 1 2.62-2.63 2.62 2.62 0 0 0 2.63-2.62v-17.57a2.62 2.62 0 0 0-2.63-2.63 2.63 2.63 0 0 1-2.62-2.62v-5.09a1.75 1.75 0 0 0-3.5 0v5.09a2.63 2.63 0 0 1-2.63 2.62 2.62 2.62 0 0 0-2.62 2.63v17.57a2.62 2.62 0 0 0 2.62 2.62Z"/>
  <path fill="#12B886" d="M46.4 543.63a2.5 2.5 0 0 1 2.49 2.5v9a1.66 1.66 0 0 0 3.32 0v-9a2.5 2.5 0 0 1 2.5-2.5 2.5 2.5 0 0 0 2.49-2.5v-8.72a2.5 2.5 0 0 0-2.5-2.5 2.5 2.5 0 0 1-2.49-2.49v-9.56a1.66 1.66 0 0 0-3.32 0v9.56a2.5 2.5 0 0 1-2.5 2.5 2.5 2.5 0 0 0-2.49 2.49v8.73a2.5 2.5 0 0 0 2.5 2.5Zm-18.8 8.9c1.17 0 2.13.96 2.13 2.14v.56a1.57 1.57 0 1 0 3.14 0v-.56c0-1.18.96-2.14 2.14-2.14h.23c1.3 0 2.36-1.05 2.36-2.36v-8.6a2.37 2.37 0 0 0-2.36-2.37 2.36 2.36 0 0 1-2.37-2.36v-.87a1.57 1.57 0 1 0-3.14 0v.87c0 1.3-1.06 2.36-2.37 2.36a2.36 2.36 0 0 0-2.36 2.36v8.61c0 1.3 1.06 2.36 2.36 2.36h.23Zm55.76-9.85c1.3 0 2.36 1.06 2.36 2.36v5.29a1.57 1.57 0 1 0 3.16 0v-5.29c0-1.3 1.05-2.36 2.36-2.36 1.3 0 2.36-1.06 2.36-2.36v-20.24c0-1.3-1.06-2.36-2.36-2.36a2.36 2.36 0 0 1-2.36-2.36v-5.29a1.57 1.57 0 1 0-3.16 0v5.29c0 1.3-1.05 2.36-2.36 2.36A2.36 2.36 0 0 0 81 520.1v20.23c0 1.3 1.06 2.36 2.36 2.36Zm18.34-18.36a2.5 2.5 0 0 1 2.49 2.5v22.72a1.66 1.66 0 1 0 3.32 0v-22.72a2.5 2.5 0 0 1 2.5-2.5 2.5 2.5 0 0 0 2.49-2.49v-39.44a2.5 2.5 0 0 0-2.5-2.5h-1.4a1.1 1.1 0 0 1-1.09-1.1c0-.6-.49-1.09-1.1-1.09h-1.13c-.6 0-1.1.5-1.1 1.1 0 .6-.48 1.1-1.09 1.1h-1.4a2.5 2.5 0 0 0-2.5 2.49v39.44a2.5 2.5 0 0 0 2.5 2.5Z"/>
  <path fill="#FF646D" d="M120.6 539.64a2.5 2.5 0 0 1 2.49 2.5v5.3a1.66 1.66 0 1 0 3.32 0v-5.3a2.5 2.5 0 0 1 2.5-2.5 2.5 2.5 0 0 0 2.49-2.5v-22.28a2.5 2.5 0 0 0-2.5-2.5 2.5 2.5 0 0 1-2.49-2.5v-5.3a1.66 1.66 0 1 0-3.32 0v5.3a2.5 2.5 0 0 1-2.5 2.5 2.5 2.5 0 0 0-2.49 2.5v22.28a2.5 2.5 0 0 0 2.5 2.5Zm18.9 8.53a2.5 2.5 0 0 1 2.49 2.49v5.18a1.66 1.66 0 1 0 3.32 0v-5.18a2.5 2.5 0 0 1 2.5-2.5 2.5 2.5 0 0 0 2.49-2.49v-4.34a2.5 2.5 0 0 0-2.5-2.5 2.5 2.5 0 0 1-2.49-2.49v-5.18a1.66 1.66 0 1 0-3.32 0v5.18a2.5 2.5 0 0 1-2.5 2.5 2.5 2.5 0 0 0-2.49 2.49v4.34a2.5 2.5 0 0 0 2.5 2.5Zm36.96 18.07c1.3 0 2.36 1.05 2.36 2.36v5.52a1.57 1.57 0 1 0 3.16 0v-5.52c0-1.3 1.05-2.36 2.36-2.36 1.3 0 2.36-1.06 2.36-2.37v-22.54a2.37 2.37 0 0 0-2.36-2.37 2.36 2.36 0 0 1-2.37-2.36v-5.52a1.58 1.58 0 0 0-3.15 0v5.52c0 1.3-1.05 2.36-2.36 2.36a2.36 2.36 0 0 0-2.36 2.37v22.54a2.37 2.37 0 0 0 2.36 2.37Z"/>
  <path fill="#12B886" d="M195.47 539.7c1.25 0 2.25 1 2.25 2.25v.67a1.57 1.57 0 1 0 3.16 0v-.67c0-1.25 1-2.26 2.25-2.26h.1a2.37 2.37 0 0 0 2.37-2.36v-9.36c0-1.3-1.06-2.36-2.36-2.36h-.11a2.25 2.25 0 0 1-2.25-2.26v-.68a1.57 1.57 0 1 0-3.16 0v.68c0 1.25-1 2.26-2.25 2.26h-.1a2.36 2.36 0 0 0-2.37 2.36v9.36c0 1.3 1.06 2.36 2.36 2.36h.11Zm-37.07-1.51a2.5 2.5 0 0 1 2.49 2.49v9.56a1.66 1.66 0 1 0 3.32 0v-9.56a2.5 2.5 0 0 1 2.5-2.5 2.5 2.5 0 0 0 2.49-2.49v-65.77a2.5 2.5 0 0 0-2.5-2.5 2.5 2.5 0 0 1-2.49-2.49v-5.17a1.66 1.66 0 1 0-3.32 0v5.17a2.5 2.5 0 0 1-2.5 2.5 2.5 2.5 0 0 0-2.49 2.49v65.77a2.5 2.5 0 0 0 2.5 2.5Z"/>
  <path fill="#8D9EB0" d="M86.34 618.83h3.5c1.3 0 2.3.45 3 1.35.7.88 1.06 2.3 1.06 4.24 0 1.94-.36 3.36-1.06 4.25a3.6 3.6 0 0 1-3 1.33h-3.5v-11.17Zm3.5 10.05c.8 0 1.45-.28 1.94-.83.5-.56.74-1.35.74-2.39v-2.5a3.5 3.5 0 0 0-.74-2.38 2.46 2.46 0 0 0-1.93-.83h-2.23v8.93h2.23Zm8.93 1.31c-.48 0-.93-.08-1.35-.24a2.62 2.62 0 0 1-1.07-.77c-.3-.35-.53-.8-.7-1.34a6.62 6.62 0 0 1-.26-1.97c0-.77.09-1.42.26-1.97.17-.54.4-.99.7-1.34.3-.35.66-.6 1.07-.77a3.71 3.71 0 0 1 2.66 0c.4.16.75.42 1.02.77.28.35.5.8.64 1.34.16.55.24 1.2.24 1.97v.3h-5.3v.53c0 .81.19 1.42.55 1.83a2 2 0 0 0 1.54.59c.55 0 1-.12 1.36-.35.35-.25.63-.61.83-1.09l.83.6a3.16 3.16 0 0 1-3.02 1.9Zm0-7.61c-.66 0-1.18.2-1.54.62-.36.42-.54 1.03-.54 1.84v.2h4v-.2c0-1.64-.64-2.46-1.92-2.46Zm4.03 7.42 2.72-4.2-2.6-4.06h1.37l1.84 3.01h.16l1.87-3h1.33l-2.59 4 2.67 4.25h-1.37l-1.9-3.23h-.17l-2 3.23h-1.33Zm14.87-1.55h-.16c-.12.5-.4.91-.87 1.25-.44.33-1.08.5-1.9.5a4.1 4.1 0 0 1-1.66-.34c-.5-.24-.93-.6-1.28-1.06a5.36 5.36 0 0 1-.84-1.8 10.4 10.4 0 0 1-.28-2.58c0-2 .37-3.46 1.12-4.39a3.8 3.8 0 0 1 3.15-1.39c.98 0 1.76.21 2.35.64.59.42 1.05 1 1.38 1.73l-1.06.64a2.93 2.93 0 0 0-.98-1.38c-.43-.33-1-.5-1.7-.5-.92 0-1.63.32-2.14.93-.5.61-.75 1.43-.75 2.47v2.5c0 1.03.25 1.86.75 2.47.5.61 1.22.92 2.15.92.36 0 .7-.06 1.02-.16a2.28 2.28 0 0 0 1.63-2.27v-1.22h-2.2v-1.12h3.45V630h-1.18v-1.55Zm7.98.2h-.16c-.16.52-.41.9-.75 1.16a2.2 2.2 0 0 1-1.36.38c-.74 0-1.32-.25-1.74-.75-.42-.5-.63-1.28-.63-2.32v-5.38h1.22v5.3c0 .66.13 1.17.4 1.52.27.35.7.53 1.26.53.5 0 .9-.15 1.25-.45.34-.3.51-.72.51-1.26v-5.64h1.22V630h-1.22v-1.34Zm3.64 1.35v-8.26h1.22v1.54h.16c.14-.48.37-.85.7-1.12.34-.28.79-.42 1.33-.42h.45v1.24h-.8c-.58 0-1.03.12-1.36.38-.32.26-.48.64-.48 1.15V630h-1.22Zm9.88-1.34H139c-.16.5-.41.9-.75 1.15-.34.25-.79.38-1.36.38-.74 0-1.32-.25-1.75-.75-.41-.5-.62-1.28-.62-2.32v-5.38h1.21v5.3c0 .66.14 1.17.4 1.52.28.35.7.53 1.27.53.49 0 .9-.15 1.25-.45.34-.3.5-.72.5-1.26v-5.64h1.22V630h-1.21v-1.34Zm-73.59 15.3V654H64.3v-10.05h-3.15v-1.12h7.58v1.12h-3.15ZM69.56 654v-8.26h1.22v1.54h.16c.13-.48.37-.85.7-1.12.34-.28.78-.42 1.33-.42h.45v1.24h-.8c-.58 0-1.03.12-1.36.38-.32.26-.48.64-.48 1.15V654h-1.22Zm10.42 0c-.8 0-1.19-.4-1.19-1.18v-.16h-.16a2 2 0 0 1-.76 1.15c-.37.25-.8.38-1.32.38-.8 0-1.4-.2-1.79-.6-.4-.41-.59-1-.59-1.8 0-.77.25-1.37.75-1.82.51-.45 1.3-.67 2.39-.67h1.48v-.92c0-.6-.13-1.05-.41-1.34-.27-.29-.7-.43-1.28-.43-.48 0-.87.1-1.17.32-.29.2-.54.5-.75.9l-.72-.68a2.96 2.96 0 0 1 2.69-1.58c.94 0 1.64.23 2.12.69.5.44.74 1.11.74 2v4.67h.83V654h-.86Zm-3.12-.86a2.1 2.1 0 0 0 1.4-.51c.16-.17.3-.34.4-.53.09-.2.13-.42.13-.63v-1.25h-1.52c-.64 0-1.1.11-1.4.32-.3.22-.44.53-.44.93v.45c0 .42.13.73.39.93.25.19.6.29 1.04.29Zm10.37-.48h-.16c-.16.54-.42.94-.78 1.18-.35.24-.78.35-1.3.35-.49 0-.92-.1-1.3-.3a2.7 2.7 0 0 1-.94-.87 4.06 4.06 0 0 1-.57-1.36 7.7 7.7 0 0 1-.2-1.79c0-.66.07-1.26.2-1.79s.32-.99.57-1.36c.26-.37.57-.66.95-.86.37-.2.8-.3 1.3-.3s.94.12 1.29.36a2 2 0 0 1 .78 1.17h.16v-4.93h1.22V654h-1.22v-1.34Zm-1.87.44c.26 0 .5-.03.72-.1a1.66 1.66 0 0 0 1-.82c.1-.2.15-.4.15-.64v-3.33c0-.24-.05-.45-.16-.64a1.66 1.66 0 0 0-1-.82 2.25 2.25 0 0 0-.7-.11c-.68 0-1.2.21-1.54.64-.36.42-.53 1-.53 1.76v1.66c0 .76.17 1.35.53 1.78.35.42.86.62 1.53.62Zm6.14-9.36c-.5 0-.76-.22-.76-.65v-.26c0-.44.25-.65.76-.65.5 0 .75.22.75.65v.26c0 .43-.25.65-.75.65Zm-.61 2h1.21V654h-1.2v-8.26Zm3.64 8.26v-8.26h1.21v1.35h.16c.16-.51.41-.9.74-1.15.34-.26.8-.39 1.38-.39.73 0 1.3.25 1.72.75.43.5.65 1.28.65 2.32V654h-1.22v-5.3c0-.66-.14-1.16-.42-1.52-.26-.35-.68-.52-1.25-.52-.49 0-.9.14-1.24.44-.34.3-.52.72-.52 1.27V654h-1.21Zm14.5.93c0 .87-.3 1.5-.89 1.89a5.1 5.1 0 0 1-2.74.57c-1.18 0-2.03-.17-2.54-.53-.5-.35-.75-.86-.75-1.52 0-.44.11-.8.33-1.05.23-.26.52-.42.87-.48v-.23a1.5 1.5 0 0 1-.51-.44c-.12-.2-.18-.42-.18-.68 0-.34.1-.63.29-.88.2-.24.53-.4.97-.44v-.18a2.38 2.38 0 0 1-1-.94 3.29 3.29 0 0 1-.36-1.6c0-.94.26-1.65.77-2.13a2.9 2.9 0 0 1 2.07-.72c.5 0 .97.09 1.39.27v-.29c0-.3.07-.53.2-.67.14-.14.37-.2.68-.2h1.1v1.06h-1.42v.45c.27.25.49.55.64.91.16.37.24.8.24 1.32 0 .94-.26 1.64-.77 2.12a2.9 2.9 0 0 1-2.06.72 3.6 3.6 0 0 1-.79-.08c-.3.06-.53.18-.69.37a.87.87 0 0 0-.22.56c0 .22.07.38.22.48.15.1.4.16.74.16h1.8c.94 0 1.6.19 2 .56.41.38.62.91.62 1.62Zm-1.13.08c0-.37-.11-.64-.34-.83-.22-.18-.6-.28-1.15-.28h-2.51a1.2 1.2 0 0 0-.53.45c-.1.18-.14.41-.14.69 0 .42.13.74.38.98.26.24.67.36 1.23.36h1.06c.66 0 1.16-.1 1.49-.33.34-.21.51-.56.51-1.04Zm-2.54-4.74c.5 0 .89-.13 1.16-.38.28-.26.42-.65.42-1.19v-.59c0-.53-.14-.93-.42-1.18a1.66 1.66 0 0 0-1.16-.39c-.5 0-.9.13-1.17.39-.28.25-.42.65-.42 1.18v.6c0 .53.14.92.42 1.18.28.25.66.38 1.17.38Zm11.94-6.32V654h-1.28v-10.05h-3.15v-1.12h7.58v1.12h-3.15Zm6.56 10.24c-.48 0-.93-.08-1.34-.24a2.63 2.63 0 0 1-1.08-.77c-.3-.35-.53-.8-.7-1.34a6.61 6.61 0 0 1-.26-1.97c0-.77.09-1.42.26-1.97.17-.54.4-.99.7-1.34.3-.35.66-.6 1.08-.77a3.71 3.71 0 0 1 2.65 0c.4.16.75.42 1.03.77.27.35.49.8.64 1.34.16.55.24 1.2.24 1.97v.3h-5.3v.53c0 .81.18 1.42.54 1.83.38.4.89.59 1.54.59.56 0 1-.12 1.36-.35.35-.25.63-.61.83-1.09l.83.6a3.16 3.16 0 0 1-3.02 1.9Zm0-7.61c-.66 0-1.17.2-1.54.62-.36.42-.54 1.03-.54 1.84v.2h4v-.2c0-1.64-.64-2.46-1.92-2.46Zm5.1 7.42v-8.26h1.22v1.54h.16c.14-.48.38-.85.7-1.12.35-.28.79-.42 1.33-.42h.45v1.24h-.8c-.57 0-1.03.12-1.36.38-.32.26-.48.64-.48 1.15V654h-1.21Zm5.32 0v-8.26h1.22v1.35h.16c.16-.51.39-.9.7-1.15a2 2 0 0 1 1.31-.39c.51 0 .95.13 1.3.39.36.24.63.63.81 1.15h.16c.17-.51.44-.9.8-1.15a2.4 2.4 0 0 1 1.44-.39c.7 0 1.27.25 1.7.75.43.5.64 1.28.64 2.32V654h-1.22v-5.3c0-.66-.13-1.16-.4-1.52-.25-.35-.65-.52-1.2-.52-.48 0-.88.14-1.21.44-.32.3-.48.72-.48 1.27V654h-1.22v-5.3c0-.66-.13-1.16-.4-1.52-.25-.35-.65-.52-1.2-.52-.48 0-.88.14-1.22.44-.31.3-.47.72-.47 1.27V654h-1.22Zm13.2-10.26c-.5 0-.75-.22-.75-.65v-.26c0-.44.25-.65.75-.65s.75.22.75.65v.26c0 .43-.25.65-.75.65Zm-.6 2h1.2V654h-1.2v-8.26Zm3.63 8.26v-8.26h1.22v1.35h.16c.16-.51.4-.9.74-1.15.34-.26.8-.39 1.37-.39.74 0 1.31.25 1.73.75.43.5.64 1.28.64 2.32V654h-1.22v-5.3c0-.66-.14-1.16-.41-1.52-.27-.35-.69-.52-1.25-.52-.5 0-.9.14-1.25.44-.34.3-.51.72-.51 1.27V654h-1.22Zm13.42 0c-.79 0-1.18-.4-1.18-1.18v-.16h-.16c-.14.5-.4.88-.77 1.15-.36.25-.8.38-1.31.38-.8 0-1.4-.2-1.8-.6-.39-.41-.59-1-.59-1.8 0-.77.25-1.37.76-1.82.5-.45 1.3-.67 2.38-.67h1.49v-.92c0-.6-.14-1.05-.42-1.34-.27-.29-.7-.43-1.28-.43-.48 0-.87.1-1.17.32-.28.2-.53.5-.75.9l-.72-.68a2.96 2.96 0 0 1 2.69-1.58c.94 0 1.65.23 2.13.69.49.44.73 1.11.73 2v4.67h.84V654h-.87Zm-3.12-.86a2.22 2.22 0 0 0 1.39-.52c.18-.16.3-.33.4-.52.1-.2.15-.42.15-.63v-1.25h-1.52c-.64 0-1.11.11-1.41.32a1.1 1.1 0 0 0-.43.93v.45c0 .42.13.73.38.93.26.19.6.29 1.04.29Zm6.89.86c-.44 0-.76-.1-.96-.29-.2-.2-.29-.52-.29-.96v-10.59h1.22v10.77h1.04V654h-1.01Z"/>
  <circle cx="800" cy="521" r="75" fill="#2C353F"/>
  <path fill="#FF8A1F" d="M813 428h-26l13 18 13-18Z"/>
  <rect width="63" height="10" x="716" y="470" fill="#465160" rx="5"/>
  <rect width="22" height="10" x="858" y="568" fill="#FF646D" rx="5" transform="rotate(-180 858 568)"/>
  <rect width="20" height="10" x="884" y="568" fill="#465160" rx="5" transform="rotate(-180 884 568)"/>
  <rect width="20" height="10" x="884" y="546" fill="#465160" rx="5" transform="rotate(-180 884 546)"/>
  <rect width="20" height="10" x="884" y="524" fill="#465160" rx="5" transform="rotate(-180 884 524)"/>
  <rect width="20" height="10" x="884" y="502" fill="#465160" rx="5" transform="rotate(-180 884 502)"/>
  <rect width="20" height="10" x="884" y="480" fill="#465160" rx="5" transform="rotate(-180 884 480)"/>
  <rect width="31" height="10" x="716" y="492" fill="#465160" rx="5"/>
  <rect width="32" height="10" x="858" y="546" fill="#12B886" rx="5" transform="rotate(-180 858 546)"/>
  <rect width="43" height="10" x="716" y="514" fill="#465160" rx="5"/>
  <rect width="52" height="10" x="858" y="524" fill="#12B886" rx="5" transform="rotate(-180 858 524)"/>
  <rect width="77" height="10" x="716" y="536" fill="#465160" rx="5"/>
  <rect width="14" height="10" x="858" y="502" fill="#FF646D" rx="5" transform="rotate(-180 858 502)"/>
  <rect width="26" height="10" x="716" y="558" fill="#465160" rx="5"/>
  <rect width="34" height="10" x="858" y="480" fill="#12B886" rx="5" transform="rotate(-180 858 480)"/>
  <path fill="#8D9EB0" d="M758.95 618.83h3.5a3.6 3.6 0 0 1 3 1.35c.7.88 1.05 2.3 1.05 4.24 0 1.94-.36 3.36-1.06 4.25a3.6 3.6 0 0 1-3 1.33h-3.5v-11.17Zm3.5 10.05c.8 0 1.44-.28 1.93-.83.5-.56.74-1.35.74-2.39v-2.5c0-1.03-.24-1.82-.74-2.38a2.46 2.46 0 0 0-1.93-.83h-2.23v8.93h2.23Zm11.32 1.12c-.8 0-1.19-.4-1.19-1.18v-.16h-.16c-.13.5-.4.88-.76 1.15-.37.25-.8.38-1.32.38-.8 0-1.4-.2-1.79-.6-.4-.41-.59-1-.59-1.8 0-.77.25-1.37.75-1.82.51-.45 1.3-.67 2.39-.67h1.48v-.92c0-.6-.13-1.05-.41-1.34-.27-.29-.7-.43-1.28-.43-.48 0-.87.1-1.17.32-.29.2-.54.5-.75.9l-.72-.68a2.96 2.96 0 0 1 2.69-1.58c.94 0 1.64.23 2.12.69.5.44.74 1.11.74 2v4.67h.83V630h-.86Zm-3.12-.86a2.22 2.22 0 0 0 1.39-.52c.17-.16.3-.33.4-.52.1-.2.14-.42.14-.63v-1.25h-1.52c-.64 0-1.1.11-1.4.32-.3.22-.44.53-.44.93v.45c0 .42.13.73.39.93.25.19.6.29 1.04.29Zm7.28.86c-.43 0-.75-.1-.95-.29-.2-.2-.3-.52-.3-.96v-5.93h-1.2v-1.08h.71c.25 0 .4-.06.48-.17a.99.99 0 0 0 .13-.56v-1.54h1.1v2.27h1.6v1.08h-1.6v6.1h1.52V630h-1.49Zm8.65 0c-.79 0-1.18-.4-1.18-1.18v-.16h-.16c-.14.5-.4.88-.77 1.15-.36.25-.8.38-1.31.38-.8 0-1.4-.2-1.8-.6-.39-.41-.59-1-.59-1.8 0-.77.25-1.37.75-1.82.52-.45 1.31-.67 2.39-.67h1.49v-.92c0-.6-.14-1.05-.42-1.34-.27-.29-.7-.43-1.28-.43-.48 0-.87.1-1.17.32-.29.2-.54.5-.75.9l-.72-.68a2.96 2.96 0 0 1 2.69-1.58c.94 0 1.65.23 2.13.69.49.44.73 1.11.73 2v4.67h.83V630h-.86Zm-3.12-.86a2 2 0 0 0 .77-.15c.24-.1.45-.22.62-.37.17-.16.3-.33.4-.52.1-.2.15-.42.15-.63v-1.25h-1.52c-.64 0-1.11.11-1.41.32a1.1 1.1 0 0 0-.43.93v.45c0 .42.12.73.38.93.26.19.6.29 1.04.29Zm11.99 1.05c-.8 0-1.5-.16-2.1-.5-.6-.34-1.09-.8-1.49-1.4l.93-.77c.35.5.73.9 1.16 1.17.42.26.92.4 1.5.4 1.51 0 2.27-.71 2.27-2.13 0-.58-.14-1.01-.42-1.31-.27-.3-.75-.53-1.43-.7l-.84-.21c-.98-.25-1.7-.6-2.17-1.08a2.8 2.8 0 0 1-.7-2.01c0-1 .32-1.74.94-2.24a3.74 3.74 0 0 1 2.46-.77 4 4 0 0 1 1.95.43c.54.29 1 .74 1.4 1.36l-.95.67a2.65 2.65 0 0 0-2.45-1.36c-.68 0-1.2.15-1.56.45-.36.3-.53.79-.53 1.46 0 .54.14.95.43 1.23.3.28.77.5 1.42.66l.84.2c.52.13.96.29 1.32.47a2.48 2.48 0 0 1 1.38 1.55c.1.34.16.74.16 1.2 0 1.06-.32 1.86-.95 2.42-.61.54-1.47.81-2.57.81Zm8.26 0c-.48 0-.93-.08-1.34-.24a2.62 2.62 0 0 1-1.07-.77 3.8 3.8 0 0 1-.7-1.34 6.61 6.61 0 0 1-.26-1.97c0-.77.08-1.42.25-1.97.17-.54.4-.99.7-1.34.3-.35.66-.6 1.08-.77a3.71 3.71 0 0 1 2.65 0c.4.16.75.42 1.03.77.28.35.49.8.64 1.34.16.55.24 1.2.24 1.97v.3h-5.3v.53c0 .81.18 1.42.55 1.83.37.4.88.59 1.53.59.56 0 1.01-.12 1.36-.35.35-.25.63-.61.83-1.09l.84.6a3.16 3.16 0 0 1-3.02 1.9Zm0-7.61c-.66 0-1.17.2-1.53.62-.37.42-.55 1.03-.55 1.84v.2h4v-.2c0-1.64-.64-2.46-1.92-2.46Zm5.1 7.42v-8.26h1.22v1.54h.16c.14-.48.38-.85.7-1.12.35-.28.8-.42 1.34-.42h.44v1.24h-.8c-.57 0-1.03.12-1.36.38-.32.26-.48.64-.48 1.15V630h-1.21Zm7.19 0-2.6-8.26h1.22l1.26 4.16.77 3.03h.16l.77-3.03 1.26-4.16h1.19l-2.6 8.26H816Zm6.1-10.26c-.5 0-.75-.22-.75-.65v-.26c0-.44.25-.65.75-.65s.75.22.75.65v.26c0 .43-.25.65-.75.65Zm-.61 2h1.22V630h-1.22v-8.26Zm6.36 8.45a3.04 3.04 0 0 1-2.42-1c-.57-.68-.86-1.78-.86-3.32 0-1.53.29-2.64.86-3.31.6-.67 1.4-1 2.42-1a2.91 2.91 0 0 1 2.88 1.9l-1 .5a1.92 1.92 0 0 0-.66-.97c-.3-.23-.7-.35-1.22-.35-.67 0-1.17.2-1.49.6-.32.39-.48.99-.48 1.8v1.66c0 .81.16 1.42.48 1.81.32.4.82.6 1.49.6.53 0 .96-.12 1.28-.36.33-.23.6-.59.78-1.07l.9.62a3.09 3.09 0 0 1-1.12 1.38c-.5.34-1.1.51-1.84.51Zm7.25 0c-.48 0-.93-.08-1.34-.24a2.63 2.63 0 0 1-1.07-.77c-.3-.35-.54-.8-.7-1.34a6.65 6.65 0 0 1-.26-1.97c0-.77.08-1.42.25-1.97.17-.54.4-.99.7-1.34.3-.35.66-.6 1.08-.77a3.71 3.71 0 0 1 2.65 0c.41.16.75.42 1.03.77.28.35.49.8.64 1.34.16.55.24 1.2.24 1.97v.3h-5.3v.53c0 .81.18 1.42.55 1.83.37.4.88.59 1.53.59.56 0 1.01-.12 1.36-.35.35-.25.63-.61.83-1.09l.84.6a3.16 3.16 0 0 1-3.02 1.9Zm0-7.61c-.66 0-1.17.2-1.53.62-.37.42-.55 1.03-.55 1.84v.2h4v-.2c0-1.64-.64-2.46-1.92-2.46ZM792.2 654l-.99-3.34h-4.02l-.99 3.34h-1.28l3.49-11.17h1.6l3.5 11.17h-1.3Zm-2.57-8.64-.36-1.4h-.16l-.35 1.4-1.26 4.24h3.42l-1.3-4.24Zm5.55 8.64v-11.17h4.11c1.85 0 2.77 1.06 2.77 3.19 0 2.12-.92 3.18-2.77 3.18h-2.83v4.8h-1.28Zm1.28-5.92h2.8c.95 0 1.42-.51 1.42-1.54v-1.05c0-1.03-.47-1.54-1.42-1.54h-2.8v4.13Zm7 5.92v-1.06h1.41v-9.05h-1.4v-1.06h4.1v1.06h-1.42v9.05h1.41V654h-4.1Zm8.43.2c-.69 0-1.27-.15-1.76-.42a3.8 3.8 0 0 1-1.24-1.16l.85-.7c.3.4.6.72.93.93.34.21.75.32 1.22.32.48 0 .86-.12 1.13-.35.3-.25.44-.6.44-1.04 0-.37-.1-.66-.28-.88-.18-.23-.51-.38-1-.47l-.63-.11c-.8-.15-1.4-.4-1.8-.75-.38-.35-.57-.89-.57-1.6 0-.42.07-.77.2-1.07.12-.31.3-.56.54-.76.23-.2.51-.34.83-.43.33-.1.69-.14 1.07-.14a3.1 3.1 0 0 1 2.66 1.28l-.78.72a2.59 2.59 0 0 0-.73-.67c-.3-.2-.68-.3-1.15-.3-.97 0-1.45.43-1.45 1.32 0 .4.1.7.3.9.21.18.56.31 1.03.4l.62.1c.84.16 1.44.42 1.8.8.34.37.52.87.52 1.51 0 .8-.24 1.43-.7 1.89-.46.45-1.15.67-2.05.67Z"/>
  <circle cx="1028" cy="521" r="75" fill="#2C353F"/>
  <path fill="#6046FF" d="M1041 428h-26l13 18 13-18Z"/>
  <rect width="8" height="4" x="1101" y="449" fill="#465160" rx="2"/>
  <rect width="98" height="50" x="940" y="470" fill="#12161C" rx="7.7"/>
  <rect width="75" height="50" x="1042" y="470" fill="#12161C" rx="7.7"/>
  <path stroke="#3AFDAE" stroke-width="2.8" d="M1111 489c-8.21 0-15.22 34.85-19.97 12.55-4.74-22.3-10.03 13.98-20.42-12.56-10.4-26.53-13.68 14.1-21.61 14.1" opacity=".8"/>
  <rect width="24" height="3" x="990" y="477" fill="#29313A" rx="1.5"/>
  <rect width="10" height="3" x="949" y="477" fill="#29313A" rx="1.5"/>
  <rect width="27" height="7" x="990" y="505" fill="#3E4854" rx="3.5"/>
  <rect width="11" height="7" x="949" y="505" fill="#3E4854" rx="3.5"/>
  <rect width="8" height="4" x="990" y="495" fill="#2C353F" rx="2"/>
  <rect width="21" height="4" x="949" y="495" fill="#2C353F" rx="2"/>
  <rect width="36" height="8" x="990" y="484" fill="#6046FF" rx="4"/>
  <rect width="18" height="8" x="949" y="484" fill="#6046FF" rx="4"/>
  <rect width="54" height="6" x="949" y="456" fill="#465160" rx="3"/>
  <rect width="13" height="6" x="1090" y="456" fill="#465160" rx="3"/>
  <rect width="18" height="6" x="1035" y="531" fill="#6046FF" rx="3"/>
  <rect width="18" height="6" x="1035" y="579" fill="#6046FF" rx="3"/>
  <rect width="30" height="3" x="1061" y="541" fill="#465160" rx="1.5"/>
  <rect width="16" height="3" x="1061" y="565" fill="#465160" rx="1.5"/>
  <rect width="11" height="3" x="1061" y="589" fill="#465160" rx="1.5"/>
  <rect width="23" height="6" x="1061" y="531" fill="#465160" rx="3"/>
  <rect width="38" height="6" x="1061" y="555" fill="#465160" rx="3"/>
  <rect width="28" height="6" x="1061" y="579" fill="#465160" rx="3"/>
  <rect width="23" height="6" x="984" y="531" fill="#465160" rx="3"/>
  <rect width="34" height="6" x="984" y="555" fill="#465160" rx="3"/>
  <rect width="19" height="6" x="984" y="579" fill="#465160" rx="3"/>
  <rect width="10" height="6" x="1035" y="555" fill="#6046FF" rx="3"/>
  <circle cx="969" cy="534" r="6" fill="#465160"/>
  <circle cx="969" cy="558" r="6" fill="#465160"/>
  <circle cx="969" cy="582" r="6" fill="#465160"/>
  <path fill="#8D9EB0" d="M1010.72 628.45h-.16c-.11.5-.4.91-.86 1.25-.45.33-1.08.5-1.91.5a4.1 4.1 0 0 1-1.66-.34c-.5-.24-.93-.6-1.28-1.06a5.36 5.36 0 0 1-.83-1.8c-.19-.73-.29-1.6-.29-2.58 0-2 .37-3.46 1.12-4.39a3.82 3.82 0 0 1 3.15-1.39c.98 0 1.77.21 2.35.64.59.42 1.05 1 1.38 1.73l-1.06.64a2.88 2.88 0 0 0-.97-1.38c-.44-.33-1-.5-1.7-.5-.93 0-1.64.32-2.14.93-.5.61-.75 1.43-.75 2.47v2.5c0 1.03.25 1.86.75 2.47.5.61 1.21.92 2.14.92.37 0 .71-.06 1.03-.16a2.34 2.34 0 0 0 1.42-1.24c.14-.3.21-.65.21-1.04v-1.21h-2.21v-1.12h3.46V630h-1.19v-1.55Zm7.99.2h-.16c-.16.52-.41.9-.76 1.16a2.2 2.2 0 0 1-1.36.38c-.73 0-1.31-.25-1.74-.75-.42-.5-.62-1.28-.62-2.32v-5.38h1.21v5.3c0 .66.14 1.17.4 1.52.28.35.7.53 1.27.53.49 0 .9-.15 1.24-.45.35-.3.52-.72.52-1.26v-5.64h1.21V630h-1.21v-1.34Zm3.64 1.35v-8.26h1.21v1.54h.16c.14-.48.38-.85.71-1.12.34-.28.78-.42 1.33-.42h.44v1.24h-.8a2.2 2.2 0 0 0-1.36.38c-.32.26-.48.64-.48 1.15V630h-1.21Zm9.87-1.34h-.16c-.16.5-.41.9-.75 1.15a2.2 2.2 0 0 1-1.36.38c-.74 0-1.32-.25-1.74-.75-.42-.5-.63-1.28-.63-2.32v-5.38h1.22v5.3c0 .66.13 1.17.4 1.52.27.35.7.53 1.26.53.49 0 .91-.15 1.25-.45.34-.3.51-.72.51-1.26v-5.64h1.22V630h-1.22v-1.34Zm13.44 1.34-1-3.34h-4.01l-.99 3.34h-1.28l3.48-11.17h1.6l3.51 11.17h-1.31Zm-2.58-8.64-.35-1.4h-.16l-.35 1.4-1.27 4.24h3.43l-1.3-4.24Zm5.07 8.64v-1.06h1.41v-9.05h-1.41v-1.06h4.1v1.06h-1.41v9.05h1.41V630h-4.1Z"/>
  <path stroke="#55606F" stroke-width="4" d="M572 426V237m0 58v18.23c0 19.6 0 29.4 3.82 36.9a35 35 0 0 0 15.29 15.29c7.49 3.81 17.29 3.81 36.89 3.81h117c19.6 0 29.4 0 36.89 3.82a35 35 0 0 1 15.3 15.3c3.81 7.48 3.81 17.28 3.81 36.88v.77M572 295v18.23c0 19.6 0 29.4-3.82 36.9a35 35 0 0 1-15.29 15.29c-7.49 3.81-17.29 3.81-36.89 3.81H399c-19.6 0-29.4 0-36.89 3.82a35 35 0 0 0-15.3 15.3c-3.81 7.48-3.81 17.28-3.81 36.88v.77"/>
  <path stroke="#55606F" stroke-width="4" d="M115 426v-.77c0-19.6 0-29.4 3.81-36.89a35 35 0 0 1 15.3-15.3c7.49-3.8 17.29-3.8 36.89-3.8h345c19.6 0 29.4 0 36.89-3.82a35 35 0 0 0 15.3-15.3c3.81-7.48 3.81-17.28 3.81-36.89V206.5c0-19.6 0-29.4-3.82-36.89a35 35 0 0 0-15.29-15.3c-7.49-3.81-17.29-3.81-36.89-3.81h-29.5"/>
  <path fill="#55606F" d="M671.9 151.1a70 70 0 1 1 140 0 70 70 0 0 1-140 0Z"/>
  <path fill="#2C353F" fill-rule="evenodd" d="M741.9 256.1c-57.99 0-105-47.01-105-105s47.01-105 105-105 105 47.01 105 105-47.01 105-105 105Zm0-175a70 70 0 1 0 0 140 70 70 0 0 0 0-140Z" clip-rule="evenodd"/>
  <rect width="234" height="234" x="625" y="34" stroke="#12B886" stroke-dasharray="1.4 9.8" stroke-linecap="round" stroke-width="2.8" rx="117"/>
  <rect width="123.2" height="123.2" x="681" y="89.5" fill="#181D23" rx="14"/>
  <ellipse cx="742.96" cy="151.1" fill="#1E242C" rx="48.19" ry="48.56"/>
  <circle cx="742.84" cy="151.59" r="32.14" fill="#3E4854"/>
  <circle cx="3.9" cy="3.9" r="3.9" fill="#3E4854" transform="matrix(1 0 0 -1 782.53 111.17)"/>
  <circle cx="3.9" cy="3.9" r="3.9" fill="#3E4854" transform="matrix(1 0 0 -1 782.53 198.82)"/>
  <circle cx="3.9" cy="3.9" r="3.9" fill="#3E4854" transform="matrix(1 0 0 -1 694.88 111.17)"/>
  <circle cx="3.9" cy="3.9" r="3.9" fill="#3E4854" transform="matrix(1 0 0 -1 694.88 198.82)"/>
  <circle cx="769" cy="136" r="11" fill="#46A6FF" transform="rotate(-90 769 136)"/>
  <circle cx="11" cy="11" r="11" fill="#FF646D" transform="matrix(0 -1 -1 0 728 147)"/>
  <circle cx="743" cy="182" r="11" fill="#12B886"/>
  <circle cx="743.09" cy="181.78" r="4.14" fill="#232A32"/>
  <circle cx="743.09" cy="151.59" r="8.28" fill="#232A32"/>
  <path stroke="#9488F0" stroke-linecap="round" stroke-linejoin="round" stroke-width="4.2" d="M743.09 181.66v-26.42"/>
  <circle cx="769.38" cy="136.49" r="4.14" fill="#232A32" transform="rotate(-90 769.38 136.5)"/>
  <circle cx="4.14" cy="4.14" r="4.14" fill="#232A32" transform="matrix(0 -1 -1 0 720.93 140.63)"/>
  <path fill="#FF646D" d="M565.67 53V40.44h6.95v1.26h-5.5v4.32h5.16v1.26h-5.17v4.46h5.51V53h-6.95Zm12.24.22a3.42 3.42 0 0 1-2.72-1.14c-.65-.75-.97-2-.97-3.72 0-1.73.32-2.97.97-3.73a3.42 3.42 0 0 1 2.72-1.13 3.28 3.28 0 0 1 3.24 2.14l-1.14.57c-.15-.48-.4-.84-.74-1.1a2.16 2.16 0 0 0-1.36-.39c-.76 0-1.32.22-1.68.67-.36.44-.54 1.12-.54 2.03v1.87c0 .91.18 1.6.54 2.04.36.44.92.66 1.68.66.6 0 1.08-.13 1.44-.4.37-.26.66-.66.88-1.2l1 .7a3.42 3.42 0 0 1-1.25 1.55 3.6 3.6 0 0 1-2.07.58Zm8.16 0c-.55 0-1.05-.1-1.52-.27a2.95 2.95 0 0 1-1.2-.87c-.34-.4-.6-.9-.8-1.51a7.45 7.45 0 0 1-.28-2.21c0-.87.1-1.6.28-2.22.2-.61.46-1.11.8-1.51.33-.4.74-.68 1.2-.86a4.23 4.23 0 0 1 3.02 0c.47.18.88.46 1.21.86.34.4.6.9.8 1.51.19.61.28 1.35.28 2.22 0 .86-.1 1.6-.28 2.21a4.3 4.3 0 0 1-.8 1.51c-.33.4-.74.69-1.2.87-.47.18-.98.27-1.51.27Zm0-1.23c.74 0 1.3-.22 1.7-.66.41-.45.62-1.13.62-2.04v-1.87c0-.91-.2-1.59-.62-2.03-.4-.45-.96-.67-1.7-.67-.75 0-1.33.22-1.73.67-.4.44-.6 1.12-.6 2.03v1.87c0 .91.2 1.6.6 2.04.4.44.98.66 1.73.66Zm8.47 1.23c-.77 0-1.43-.16-1.98-.47-.54-.31-1-.75-1.38-1.3l.95-.79c.32.46.67.8 1.04 1.04.39.24.84.36 1.37.36.54 0 .97-.13 1.28-.4.32-.27.49-.66.49-1.16 0-.41-.1-.74-.31-1-.2-.24-.58-.42-1.13-.51l-.7-.13a4.14 4.14 0 0 1-2.02-.85c-.43-.4-.65-1-.65-1.8 0-.46.07-.87.22-1.2.14-.35.34-.63.6-.85.27-.23.58-.39.94-.48.38-.11.78-.17 1.21-.17a3.48 3.48 0 0 1 2.99 1.44l-.88.81a2.9 2.9 0 0 0-.81-.75 2.26 2.26 0 0 0-1.3-.34c-1.1 0-1.64.5-1.64 1.49 0 .46.12.8.34 1 .24.21.63.36 1.16.46l.7.12c.95.17 1.62.47 2.01.89.4.42.6.99.6 1.7 0 .9-.27 1.61-.8 2.13-.51.5-1.28.76-2.3.76Zm10.18-9.5h1.34l-3.68 11.66c-.07.24-.15.43-.23.59-.08.17-.2.3-.32.38-.12.1-.27.16-.45.2-.17.03-.39.05-.65.05h-1.01v-1.2h1.42l.54-1.9-3.08-9.79h1.37l1.42 4.68.87 3.4h.18l.86-3.4 1.42-4.68Zm5.6 9.5c-.76 0-1.42-.16-1.97-.47a4.4 4.4 0 0 1-1.39-1.3l.95-.79c.33.46.68.8 1.05 1.04.38.24.84.36 1.37.36.54 0 .96-.13 1.27-.4.33-.27.5-.66.5-1.16 0-.41-.11-.74-.32-1-.2-.24-.58-.42-1.13-.51l-.7-.13a4.14 4.14 0 0 1-2.02-.85c-.43-.4-.64-1-.64-1.8 0-.46.07-.87.21-1.2a2.27 2.27 0 0 1 1.55-1.33 4.2 4.2 0 0 1 1.2-.17 3.48 3.48 0 0 1 2.99 1.44l-.88.81a2.9 2.9 0 0 0-.8-.75 2.26 2.26 0 0 0-1.3-.34c-1.1 0-1.64.5-1.64 1.49 0 .46.11.8.34 1 .24.21.62.36 1.15.46l.7.12c.95.17 1.62.47 2.02.89.4.42.6.99.6 1.7 0 .9-.27 1.61-.8 2.13-.51.5-1.28.76-2.3.76Zm7.18-.22c-.5 0-.85-.1-1.08-.32-.22-.23-.32-.6-.32-1.08v-6.68h-1.37v-1.2h.8c.28 0 .46-.07.55-.2.1-.15.14-.36.14-.64v-1.72h1.24v2.55h1.8v1.2h-1.8v6.88h1.71V53h-1.67Zm6.96.22c-.54 0-1.05-.1-1.52-.27a2.95 2.95 0 0 1-1.2-.87c-.34-.4-.6-.9-.8-1.51a7.45 7.45 0 0 1-.28-2.21c0-.87.1-1.6.29-2.22.19-.61.45-1.11.79-1.51.33-.4.74-.68 1.2-.86a4.18 4.18 0 0 1 3 0c.45.18.83.46 1.14.86.32.4.56.9.72 1.51.18.61.27 1.35.27 2.22v.34h-5.95v.6c0 .9.2 1.59.6 2.04.43.45 1 .67 1.74.67a2.7 2.7 0 0 0 1.53-.4c.4-.27.7-.68.93-1.22l.94.68a3.56 3.56 0 0 1-3.4 2.14Zm0-8.57c-.75 0-1.32.23-1.73.7-.41.47-.61 1.16-.61 2.07v.23h4.5v-.23c0-1.85-.72-2.77-2.16-2.77ZM630.2 53v-9.29h1.37v1.51h.18c.18-.57.44-1 .79-1.3a2.3 2.3 0 0 1 1.48-.42 2.37 2.37 0 0 1 2.37 1.73h.18c.2-.58.5-1.01.9-1.3.41-.29.95-.43 1.62-.43.8 0 1.43.28 1.91.84.48.57.72 1.44.72 2.61V53h-1.37v-5.96a2.8 2.8 0 0 0-.45-1.7c-.29-.4-.74-.6-1.35-.6a2 2 0 0 0-1.37.5c-.36.34-.54.81-.54 1.42V53h-1.36v-5.96a2.8 2.8 0 0 0-.45-1.7c-.3-.4-.74-.6-1.35-.6a2 2 0 0 0-1.37.5c-.36.34-.54.81-.54 1.42V53h-1.37Zm-69.37 20-1.12-3.76h-4.51L554.08 73h-1.44l3.92-12.56h1.8L562.31 73h-1.48Zm-2.9-9.72-.4-1.57h-.17l-.4 1.57-1.42 4.77h3.85l-1.46-4.77Zm6.12.43h1.37v1.51h.18c.18-.6.47-1.05.87-1.31.4-.28.9-.41 1.47-.41a3 3 0 0 1 1.46.34c.42.23.77.55 1.06.97.29.42.5.93.65 1.53a8.86 8.86 0 0 1 0 4.03c-.14.6-.36 1.11-.65 1.53-.29.42-.64.75-1.06.97a3 3 0 0 1-1.46.35c-.57 0-1.07-.14-1.47-.4-.4-.28-.69-.72-.87-1.33h-.18v5.11h-1.37V63.71Zm3.48 8.28c.75 0 1.33-.23 1.73-.7.4-.48.59-1.15.59-2v-1.87c0-.85-.2-1.51-.6-1.98-.39-.48-.97-.72-1.72-.72-.29 0-.57.04-.83.13-.25.08-.47.2-.67.36a2 2 0 0 0-.45.55c-.1.22-.16.46-.16.72v3.75a1.59 1.59 0 0 0 .61 1.28c.2.15.42.27.67.36.26.08.54.12.83.12Zm5.96-8.28h1.37v1.51h.18c.18-.6.47-1.05.87-1.31.4-.28.9-.41 1.47-.41a3 3 0 0 1 1.46.34c.42.23.77.55 1.06.97.29.42.5.93.65 1.53a8.86 8.86 0 0 1 0 4.03c-.14.6-.36 1.11-.65 1.53-.29.42-.64.75-1.06.97a3 3 0 0 1-1.46.35 2.7 2.7 0 0 1-1.48-.4c-.4-.28-.68-.72-.86-1.33h-.18v5.11h-1.37V63.71Zm3.48 8.28c.75 0 1.33-.23 1.73-.7.4-.48.59-1.15.59-2v-1.87c0-.85-.2-1.51-.6-1.98-.4-.48-.97-.72-1.72-.72a2.49 2.49 0 0 0-1.5.49 2 2 0 0 0-.45.55c-.1.22-.16.46-.16.72v3.75a1.59 1.59 0 0 0 .61 1.28c.2.15.42.27.67.36.26.08.54.12.83.12Zm7.37 1.01c-.5 0-.86-.1-1.08-.32-.22-.23-.33-.6-.33-1.08V59.68h1.37v12.11h1.17V73h-1.13Zm3.72-11.54c-.56 0-.84-.24-.84-.74v-.28c0-.5.28-.74.84-.74.57 0 .85.24.85.74v.28c0 .5-.28.74-.85.74Zm-.68 2.25h1.37V73h-1.37v-9.29Zm7.15 9.5a3.42 3.42 0 0 1-2.71-1.13c-.65-.75-.98-2-.98-3.72 0-1.73.33-2.97.98-3.73a3.42 3.42 0 0 1 2.71-1.13 3.28 3.28 0 0 1 3.25 2.14l-1.14.57c-.15-.48-.4-.84-.74-1.1a2.17 2.17 0 0 0-1.37-.39c-.75 0-1.3.22-1.67.67-.36.44-.54 1.12-.54 2.03v1.87c0 .91.18 1.6.54 2.04.36.44.92.66 1.67.66.6 0 1.09-.13 1.45-.4.37-.26.66-.66.88-1.2l1 .7c-.27.65-.7 1.17-1.25 1.55-.56.38-1.25.58-2.08.58Zm10.99-.21c-.9 0-1.34-.44-1.34-1.33v-.18h-.17c-.16.56-.45 1-.87 1.3-.4.28-.9.43-1.48.43-.9 0-1.57-.23-2.01-.69-.44-.45-.67-1.13-.67-2.01 0-.87.28-1.55.85-2.06.57-.5 1.47-.75 2.68-.75h1.67v-1.03c0-.68-.15-1.19-.46-1.51-.3-.32-.78-.49-1.44-.49-.54 0-.98.12-1.32.36-.32.23-.6.57-.84 1.01l-.81-.75a3.32 3.32 0 0 1 3.02-1.78c1.06 0 1.85.25 2.4.77.55.5.82 1.25.82 2.25v5.25h.94V73h-.97Zm-3.51-.97a2.36 2.36 0 0 0 1.57-.58c.18-.18.33-.38.44-.6.11-.22.16-.45.16-.7v-1.4h-1.7c-.73 0-1.25.12-1.59.36-.32.24-.49.59-.49 1.05v.5c0 .47.15.82.44 1.04.28.22.67.33 1.17.33Zm8.2.97c-.5 0-.86-.1-1.09-.32-.21-.23-.32-.6-.32-1.08v-6.68h-1.37v-1.2h.81c.28 0 .46-.07.54-.2.1-.15.15-.36.15-.64v-1.72h1.24v2.55h1.8v1.2h-1.8v6.88h1.7V73h-1.66Zm4.54-11.54c-.57 0-.85-.24-.85-.74v-.28c0-.5.28-.74.85-.74.56 0 .84.24.84.74v.28c0 .5-.28.74-.84.74Zm-.69 2.25h1.37V73h-1.37v-9.29Zm7.27 9.5c-.54 0-1.05-.08-1.51-.26a2.95 2.95 0 0 1-1.21-.87c-.34-.4-.6-.9-.8-1.51a7.45 7.45 0 0 1-.28-2.21c0-.87.1-1.6.29-2.22.19-.61.45-1.11.79-1.51.34-.4.74-.68 1.2-.86a4.23 4.23 0 0 1 3.02 0c.48.18.88.46 1.21.86.34.4.6.9.8 1.51.19.61.28 1.35.28 2.22 0 .86-.1 1.6-.28 2.21a4.3 4.3 0 0 1-.8 1.51c-.33.4-.73.69-1.2.87-.47.18-.97.27-1.51.27Zm0-1.22c.74 0 1.31-.22 1.7-.66.42-.45.62-1.13.62-2.04v-1.87c0-.91-.2-1.59-.61-2.03-.4-.45-.97-.67-1.71-.67-.75 0-1.32.22-1.73.67-.4.44-.6 1.12-.6 2.03v1.87c0 .91.2 1.6.6 2.04.4.44.98.66 1.73.66Zm5.9 1.01v-9.29h1.37v1.51h.18c.18-.57.45-1 .83-1.3.38-.28.9-.42 1.54-.42.83 0 1.48.28 1.95.84.48.57.72 1.44.72 2.61V73h-1.37v-5.96c0-.74-.16-1.31-.47-1.7-.3-.4-.77-.6-1.4-.6-.56 0-1.02.17-1.4.5-.4.34-.58.81-.58 1.42V73h-1.37Zm11.8.22c-.77 0-1.43-.16-1.98-.47-.54-.31-1-.75-1.38-1.3l.95-.79c.32.46.67.8 1.04 1.04.39.24.84.36 1.37.36.54 0 .97-.13 1.28-.4.32-.27.49-.66.49-1.16 0-.41-.1-.74-.31-1-.2-.24-.58-.42-1.13-.51l-.7-.13a4.14 4.14 0 0 1-2.02-.85c-.43-.4-.65-1-.65-1.8 0-.46.07-.87.22-1.2.14-.35.34-.63.6-.85.27-.23.58-.39.94-.48.38-.11.78-.17 1.21-.17a3.48 3.48 0 0 1 2.99 1.44l-.88.81a2.9 2.9 0 0 0-.81-.75 2.26 2.26 0 0 0-1.3-.34c-1.1 0-1.64.5-1.64 1.49 0 .46.12.8.34 1 .24.21.63.36 1.16.46l.7.12c.95.17 1.62.47 2.01.89.4.42.6.99.6 1.7 0 .9-.27 1.61-.8 2.13-.51.5-1.28.76-2.3.76Z"/>
  <path fill="#12B886" d="M842.8 255.25h-.18a2.37 2.37 0 0 1-.97 1.4 3.5 3.5 0 0 1-2.14.57c-.69 0-1.31-.13-1.87-.38a3.8 3.8 0 0 1-1.44-1.19c-.4-.53-.71-1.2-.94-2.02a11.4 11.4 0 0 1-.32-2.91c0-2.25.42-3.89 1.26-4.93a4.3 4.3 0 0 1 3.54-1.57c1.1 0 1.99.24 2.65.72a4.66 4.66 0 0 1 1.55 1.94l-1.2.72a3.3 3.3 0 0 0-1.09-1.54 3.08 3.08 0 0 0-1.9-.56c-1.05 0-1.86.35-2.42 1.04a4.26 4.26 0 0 0-.85 2.77v2.81c0 1.17.29 2.1.85 2.8a2.95 2.95 0 0 0 2.41 1.02c.41 0 .8-.06 1.15-.18a2.56 2.56 0 0 0 1.84-2.56v-1.37h-2.48v-1.26h3.88V257h-1.33v-1.75Zm5.33-10.81v8.13c0 .57.04 1.06.13 1.48.1.42.24.77.45 1.06.2.28.47.49.8.63.35.13.77.2 1.26.2.99 0 1.67-.28 2.06-.83.4-.56.6-1.41.6-2.54v-8.13h1.43v7.84a9.5 9.5 0 0 1-.22 2.2 3.84 3.84 0 0 1-.7 1.53c-.3.4-.73.71-1.26.92a5.5 5.5 0 0 1-1.9.29c-.76 0-1.4-.1-1.93-.3-.52-.2-.94-.5-1.26-.91-.31-.4-.54-.92-.69-1.53a9.85 9.85 0 0 1-.21-2.2v-7.84h1.44Zm11.1 12.56h-1.45v-12.56h4.63c2.08 0 3.11 1.19 3.11 3.58 0 2.01-.74 3.18-2.23 3.49l2.54 5.49h-1.62l-2.36-5.4h-2.63v5.4Zm3.14-6.62c1.07 0 1.6-.58 1.6-1.73v-1.23c0-1.15-.53-1.72-1.6-1.72h-3.15v4.68h3.15Zm7-5.94v8.13c0 .57.04 1.06.12 1.48.1.42.25.77.45 1.06.2.28.47.49.81.63.35.13.77.2 1.26.2.98 0 1.67-.28 2.05-.83.4-.56.6-1.41.6-2.54v-8.13h1.44v7.84c0 .84-.08 1.58-.22 2.2a3.84 3.84 0 0 1-.7 1.53c-.31.4-.73.71-1.26.92a5.5 5.5 0 0 1-1.91.29c-.76 0-1.4-.1-1.93-.3-.51-.2-.93-.5-1.26-.91-.3-.4-.54-.92-.68-1.53a9.85 9.85 0 0 1-.22-2.2v-7.84h1.44Zm-30.67 32.78a4.8 4.8 0 0 1-2.36-.56 4.9 4.9 0 0 1-1.67-1.59l1.04-.86c.38.56.82 1 1.3 1.31.48.3 1.04.45 1.69.45 1.7 0 2.55-.8 2.55-2.39 0-.65-.15-1.14-.46-1.48a3.4 3.4 0 0 0-1.62-.79l-.94-.23a5.2 5.2 0 0 1-2.45-1.2 3.15 3.15 0 0 1-.77-2.28c0-1.11.35-1.95 1.04-2.52.7-.57 1.62-.86 2.77-.86.88 0 1.61.16 2.2.49.6.32 1.12.83 1.57 1.53l-1.07.75a2.95 2.95 0 0 0-2.75-1.53c-.77 0-1.36.17-1.76.5-.4.34-.6.89-.6 1.64 0 .62.16 1.08.49 1.39.33.31.87.56 1.6.74l.94.23c.58.15 1.08.32 1.49.52.4.2.74.44.99.72.26.3.45.63.56 1.03.12.38.18.83.18 1.35 0 1.19-.36 2.1-1.06 2.72-.7.61-1.67.92-2.9.92Zm6.13-.22v-9.29h1.36v1.51h.18c.18-.57.45-1 .8-1.3.34-.28.84-.42 1.47-.42.58 0 1.06.14 1.46.43.4.27.71.7.92 1.3h.18c.19-.58.49-1.01.9-1.3.4-.29.94-.43 1.62-.43.79 0 1.42.28 1.9.84.49.57.73 1.44.73 2.61V277h-1.37v-5.96a2.8 2.8 0 0 0-.45-1.7c-.3-.4-.74-.6-1.35-.6a2 2 0 0 0-1.37.5c-.36.34-.54.81-.54 1.42V277h-1.37v-5.96a2.8 2.8 0 0 0-.45-1.7c-.29-.4-.74-.6-1.35-.6a2 2 0 0 0-1.37.5c-.36.34-.54.81-.54 1.42V277h-1.37Zm20.03 0c-.89 0-1.33-.44-1.33-1.33v-.18h-.18c-.16.56-.45 1-.87 1.3-.4.28-.9.43-1.47.43-.9 0-1.57-.23-2.02-.69-.44-.45-.66-1.13-.66-2.01 0-.87.28-1.55.84-2.06.58-.5 1.47-.75 2.69-.75h1.67v-1.03c0-.68-.16-1.19-.47-1.51-.3-.32-.78-.49-1.44-.49-.54 0-.98.12-1.31.36-.33.23-.6.57-.85 1.01l-.8-.75a3.32 3.32 0 0 1 3.02-1.78c1.05 0 1.85.25 2.39.77.55.5.83 1.25.83 2.25v5.25h.93V277h-.97Zm-3.5-.97a2.36 2.36 0 0 0 1.57-.58c.18-.18.33-.38.44-.6.1-.22.16-.45.16-.7v-1.4h-1.71c-.72 0-1.25.12-1.59.36-.32.24-.48.59-.48 1.05v.5c0 .47.14.82.43 1.04.29.22.68.33 1.17.33Zm6.33.97v-9.29h1.37v1.73h.18c.16-.54.42-.96.8-1.26a2.3 2.3 0 0 1 1.49-.47h.5v1.39h-.9c-.65 0-1.16.14-1.53.43-.36.29-.54.72-.54 1.3V277h-1.37Zm8.06 0c-.49 0-.85-.1-1.08-.32-.21-.23-.32-.6-.32-1.08v-6.68h-1.37v-1.2h.81c.28 0 .46-.07.54-.2.1-.15.15-.36.15-.64v-1.72h1.24v2.55h1.8v1.2h-1.8v6.88h1.7V277h-1.67Zm9.4 0-2.75-12.56h1.5l1.69 8.11.45 3.01h.18l.45-3 1.7-8.12h1.95l1.71 8.11.45 3.01h.18l.45-3 1.7-8.12h1.45L893.4 277h-1.8l-1.73-8.12-.45-3.18h-.18l-.45 3.18-1.83 8.12h-1.8Zm18.33 0c-.89 0-1.33-.44-1.33-1.33v-.18h-.18c-.16.56-.45 1-.87 1.3-.4.28-.9.43-1.47.43-.9 0-1.57-.23-2.02-.69-.44-.45-.66-1.13-.66-2.01 0-.87.28-1.55.84-2.06.58-.5 1.47-.75 2.68-.75h1.68v-1.03c0-.68-.16-1.19-.47-1.51-.3-.32-.78-.49-1.44-.49-.54 0-.98.12-1.31.36-.33.23-.61.57-.85 1.01l-.81-.75a3.32 3.32 0 0 1 3.02-1.78c1.06 0 1.86.25 2.4.77.55.5.83 1.25.83 2.25v5.25h.93V277h-.97Zm-3.51-.97a2.36 2.36 0 0 0 1.57-.58c.19-.18.34-.38.45-.6.1-.22.16-.45.16-.7v-1.4h-1.71c-.72 0-1.25.12-1.59.36-.32.24-.48.59-.48 1.05v.5c0 .47.14.82.43 1.04.29.22.68.33 1.17.33Zm7.75.97c-.5 0-.86-.1-1.08-.32-.22-.23-.33-.6-.33-1.08v-11.92h1.37v12.11h1.17V277h-1.13Zm4.29 0c-.5 0-.86-.1-1.08-.32-.22-.23-.33-.6-.33-1.08v-11.92h1.37v12.11h1.17V277h-1.13Zm6.2.22c-.53 0-1.04-.1-1.5-.27a2.95 2.95 0 0 1-1.21-.87c-.34-.4-.6-.9-.8-1.51a7.45 7.45 0 0 1-.28-2.21c0-.87.1-1.6.29-2.22.19-.61.45-1.11.79-1.51.34-.4.74-.68 1.2-.86a4.18 4.18 0 0 1 3 0c.45.18.83.46 1.15.86.3.4.55.9.72 1.51.18.61.27 1.35.27 2.22v.34h-5.96v.6c0 .9.2 1.59.61 2.04.42.45 1 .67 1.73.67a2.7 2.7 0 0 0 1.53-.4c.4-.27.7-.68.93-1.22l.94.68a3.56 3.56 0 0 1-3.4 2.14Zm0-8.57c-.74 0-1.31.23-1.72.7-.4.47-.61 1.16-.61 2.07v.23h4.5v-.23c0-1.85-.72-2.77-2.16-2.77Zm7.62 8.35c-.49 0-.85-.1-1.08-.32-.21-.23-.32-.6-.32-1.08v-6.68h-1.37v-1.2h.81c.28 0 .46-.07.54-.2.1-.15.15-.36.15-.64v-1.72h1.24v2.55h1.8v1.2h-1.8v6.88h1.7V277h-1.67Z"/>
  <rect width="143.39" height="35.45" x="328.1" y="93.7" fill="#181D23" rx="8.4"/>
  <circle cx="344.01" cy="111.22" r="3.83" fill="#12B886"/>
  <rect width="4.43" height="22.15" x="404.23" y="122.7" fill="#12B886" rx="2.22" transform="rotate(-180 404.23 122.7)"/>
  <rect width="4.43" height="22.15" x="411.88" y="122.7" fill="#12B886" rx="2.22" transform="rotate(-180 411.88 122.7)"/>
  <rect width="4.43" height="22.15" x="419.54" y="122.7" fill="#12B886" rx="2.22" transform="rotate(-180 419.54 122.7)"/>
  <rect width="4.43" height="22.15" x="427.19" y="122.7" fill="#12B886" rx="2.22" transform="rotate(-180 427.19 122.7)"/>
  <rect width="4.43" height="22.15" x="434.84" y="122.7" fill="#232A32" rx="2.22" transform="rotate(-180 434.84 122.7)"/>
  <rect width="4.43" height="22.15" x="442.49" y="122.7" fill="#232A32" rx="2.22" transform="rotate(-180 442.5 122.7)"/>
  <rect width="4.43" height="7.65" x="452.16" y="113.44" fill="#465160" rx="2.22" transform="rotate(-90 452.16 113.44)"/>
  <rect width="4.43" height="29" x="357.1" y="113.44" fill="#465160" rx="2.22" transform="rotate(-90 357.1 113.44)"/>
  <rect width="2.42" height="16.92" x="357.1" y="119.48" fill="#465160" rx="1.21" transform="rotate(-90 357.1 119.48)"/>
  <rect width="172.4" height="35.45" x="313.6" y="133.35" fill="#181D23" rx="8.4"/>
  <circle cx="328.3" cy="150.87" r="3.83" fill="#12B886"/>
  <rect width="4.43" height="22.15" x="404.23" y="162.35" fill="#12B886" rx="2.22" transform="rotate(-180 404.23 162.35)"/>
  <rect width="4.43" height="22.15" x="411.88" y="162.35" fill="#12B886" rx="2.22" transform="rotate(-180 411.88 162.35)"/>
  <rect width="4.43" height="22.15" x="419.53" y="162.35" fill="#12B886" rx="2.22" transform="rotate(-180 419.53 162.35)"/>
  <rect width="4.43" height="22.15" x="427.19" y="162.35" fill="#232A32" rx="2.22" transform="rotate(-180 427.19 162.35)"/>
  <rect width="4.43" height="22.15" x="434.84" y="162.35" fill="#232A32" rx="2.22" transform="rotate(-180 434.84 162.35)"/>
  <rect width="4.43" height="22.15" x="442.49" y="162.35" fill="#232A32" rx="2.22" transform="rotate(-180 442.5 162.35)"/>
  <rect width="4.43" height="22.15" x="450.15" y="162.35" fill="#232A32" rx="2.22" transform="rotate(-180 450.15 162.35)"/>
  <rect width="4.43" height="22.15" x="457.8" y="162.35" fill="#232A32" rx="2.22" transform="rotate(-180 457.8 162.35)"/>
  <rect width="4.43" height="7.65" x="467.47" y="153.08" fill="#465160" rx="2.22" transform="rotate(-90 467.47 153.08)"/>
  <rect width="4.43" height="36.25" x="357.1" y="153.08" fill="#465160" rx="2.22" transform="rotate(-90 357.1 153.08)"/>
  <rect width="2.42" height="24.57" x="357.1" y="159.13" fill="#465160" rx="1.21" transform="rotate(-90 357.1 159.13)"/>
  <rect width="143.39" height="35.45" x="328.1" y="172.99" fill="#181D23" rx="8.4"/>
  <circle cx="344.01" cy="190.51" r="3.83" fill="#46A6FF"/>
  <rect width="4.43" height="22.15" x="404.23" y="201.99" fill="#FF646D" rx="2.22" transform="rotate(-180 404.23 202)"/>
  <rect width="4.43" height="22.15" x="411.88" y="201.99" fill="#232A32" rx="2.22" transform="rotate(-180 411.88 202)"/>
  <rect width="4.43" height="22.15" x="419.54" y="201.99" fill="#232A32" rx="2.22" transform="rotate(-180 419.54 202)"/>
  <rect width="4.43" height="22.15" x="427.19" y="201.99" fill="#232A32" rx="2.22" transform="rotate(-180 427.19 202)"/>
  <rect width="4.43" height="22.15" x="434.84" y="201.99" fill="#232A32" rx="2.22" transform="rotate(-180 434.84 202)"/>
  <rect width="4.43" height="22.15" x="442.49" y="201.99" fill="#232A32" rx="2.22" transform="rotate(-180 442.5 202)"/>
  <rect width="4.43" height="7.65" x="452.16" y="192.73" fill="#465160" rx="2.22" transform="rotate(-90 452.16 192.73)"/>
  <rect width="4.43" height="23.36" x="357.1" y="192.73" fill="#465160" rx="2.22" transform="rotate(-90 357.1 192.73)"/>
  <rect width="2.42" height="6.04" x="357.1" y="198.77" fill="#465160" rx="1.21" transform="rotate(-90 357.1 198.77)"/>
  <path stroke="#12B886" stroke-linecap="round" stroke-linejoin="round" stroke-width="2.8" d="m688.48 34.67-6.43-14m126.12 290.85-12.85-28m19.46-237.77 8.76-12.66M669.02 256.45l-8.76 12.66m192.58-53.96 6.67 3.85m-174.75 46.75-13.74 27.56M812.78 8.89l-13.74 27.56"/>
  <path stroke="#55606F" stroke-width="4" d="M1029 426v-.77c0-19.6 0-29.4-3.81-36.89a35.01 35.01 0 0 0-15.3-15.3c-7.49-3.8-17.29-3.8-36.89-3.8H628c-19.6 0-29.4 0-36.89-3.82a35 35 0 0 1-15.3-15.3c-3.81-7.48-3.81-17.28-3.81-36.89V206.5c0-19.6 0-29.4 3.82-36.89a35 35 0 0 1 15.29-15.3c7.49-3.81 17.29-3.81 36.89-3.81h46"/>
  <path fill="#46A6FF" d="M861.8 88.25h-.18a2.37 2.37 0 0 1-.97 1.4 3.5 3.5 0 0 1-2.14.57c-.69 0-1.31-.13-1.87-.38a3.8 3.8 0 0 1-1.44-1.19c-.4-.53-.71-1.2-.94-2.02a11.4 11.4 0 0 1-.32-2.91c0-2.25.42-3.89 1.26-4.93a4.3 4.3 0 0 1 3.54-1.57c1.1 0 1.99.24 2.65.72a4.66 4.66 0 0 1 1.55 1.94l-1.2.72a3.3 3.3 0 0 0-1.09-1.54 3.08 3.08 0 0 0-1.9-.56c-1.05 0-1.86.35-2.42 1.04a4.26 4.26 0 0 0-.85 2.77v2.81c0 1.17.29 2.1.85 2.8a2.95 2.95 0 0 0 2.41 1.02c.41 0 .8-.06 1.15-.18a2.56 2.56 0 0 0 1.84-2.56v-1.37h-2.48v-1.26h3.88V90h-1.33v-1.75Zm5.33-10.81v8.13c0 .57.04 1.06.13 1.48.1.42.24.77.45 1.06.2.28.47.49.8.63.35.13.77.2 1.26.2.99 0 1.67-.28 2.06-.83.4-.56.6-1.41.6-2.54v-8.13h1.43v7.84a9.5 9.5 0 0 1-.22 2.2 3.84 3.84 0 0 1-.7 1.53c-.3.4-.73.71-1.26.92a5.5 5.5 0 0 1-1.9.29c-.76 0-1.4-.1-1.93-.3-.52-.2-.94-.5-1.26-.91-.31-.4-.54-.92-.69-1.53a9.85 9.85 0 0 1-.21-2.2v-7.84h1.44ZM878.23 90h-1.45V77.44h4.63c2.08 0 3.11 1.19 3.11 3.58 0 2.01-.74 3.18-2.23 3.49l2.54 5.49h-1.62l-2.36-5.4h-2.63V90Zm3.14-6.62c1.07 0 1.6-.58 1.6-1.73v-1.23c0-1.15-.53-1.72-1.6-1.72h-3.15v4.68h3.15Zm7-5.94v8.13c0 .57.04 1.06.12 1.48.1.42.25.77.45 1.06.2.28.47.49.81.63.35.13.77.2 1.26.2.98 0 1.67-.28 2.05-.83.4-.56.6-1.41.6-2.54v-8.13h1.44v7.84c0 .84-.08 1.58-.22 2.2a3.84 3.84 0 0 1-.7 1.53c-.31.4-.73.71-1.26.92a5.5 5.5 0 0 1-1.91.29c-.76 0-1.4-.1-1.93-.3-.51-.2-.93-.5-1.26-.91-.3-.4-.54-.92-.68-1.53a9.85 9.85 0 0 1-.22-2.2v-7.84h1.44Zm16.02 4.4-1.1-2.59h-.18l.13 2.6V90h-1.4V77.44h1.76l4.17 8.15 1.1 2.6h.18l-.13-2.6v-8.15h1.4V90h-1.76l-4.17-8.15Zm11.95 8.38c-.55 0-1.05-.1-1.52-.27a2.95 2.95 0 0 1-1.2-.87c-.34-.4-.6-.9-.8-1.51a7.45 7.45 0 0 1-.28-2.21c0-.87.1-1.6.29-2.22.19-.61.45-1.11.79-1.51.33-.4.74-.68 1.2-.86a4.18 4.18 0 0 1 3 0c.45.18.83.46 1.14.86.31.4.55.9.72 1.51.18.61.27 1.35.27 2.22v.34H914v.6c0 .9.2 1.59.62 2.04.42.45 1 .67 1.73.67a2.7 2.7 0 0 0 1.52-.4c.4-.27.71-.68.94-1.22l.94.68a3.56 3.56 0 0 1-3.4 2.14Zm0-8.57c-.75 0-1.33.23-1.73.7-.41.47-.62 1.16-.62 2.07v.23h4.5v-.23c0-1.85-.72-2.77-2.15-2.77Zm7.61 8.35c-.5 0-.85-.1-1.08-.32-.22-.23-.32-.6-.32-1.08v-6.68h-1.37v-1.2h.8c.28 0 .47-.07.55-.2.1-.15.14-.36.14-.64v-1.72h1.25v2.55h1.8v1.2h-1.8v6.88h1.7V90h-1.67Zm2.98-9.29h1.33l.9 4.03.8 4.05h.17l.92-4.05.94-4.03h1.58l.93 4.03.92 4.05h.18l.8-4.05.9-4.03h1.3L936.35 90h-1.73l-1.13-4.5-.63-3.4h-.18l-.67 3.4-1.13 4.5h-1.73l-2.23-9.29Zm16.53 9.5c-.54 0-1.05-.08-1.51-.26a2.95 2.95 0 0 1-1.21-.87c-.34-.4-.6-.9-.8-1.51a7.45 7.45 0 0 1-.28-2.21c0-.87.1-1.6.29-2.22.19-.61.45-1.11.79-1.51.34-.4.74-.68 1.2-.86a4.23 4.23 0 0 1 3.03 0c.47.18.87.46 1.2.86.34.4.6.9.8 1.51.19.61.29 1.35.29 2.22 0 .86-.1 1.6-.3 2.21a4.3 4.3 0 0 1-.78 1.51c-.34.4-.74.69-1.21.87-.47.18-.97.27-1.51.27Zm0-1.22c.74 0 1.31-.22 1.7-.66.42-.45.62-1.13.62-2.04v-1.87c0-.91-.2-1.59-.61-2.03-.4-.45-.97-.67-1.71-.67-.75 0-1.32.22-1.73.67-.4.44-.6 1.12-.6 2.03v1.87c0 .91.2 1.6.6 2.04.4.44.98.66 1.73.66Zm5.9 1.01v-9.29h1.37v1.73h.18c.15-.54.42-.96.79-1.26a2.3 2.3 0 0 1 1.5-.47h.5v1.39h-.9c-.65 0-1.16.14-1.53.43-.36.29-.54.72-.54 1.3V90h-1.37Zm5.98-13.32h1.37v6.84l-.11 1.82h.14l1.3-1.75 2.32-2.88H962l-3.07 3.7 3.34 5.59h-1.63l-2.72-4.79-1.22 1.44V90h-1.37V76.68Z"/>
  <path fill="#fff" d="M173.46 160.25h-.18a2.37 2.37 0 0 1-.97 1.4 3.5 3.5 0 0 1-2.14.57 4.6 4.6 0 0 1-1.87-.38 3.8 3.8 0 0 1-1.44-1.19c-.4-.53-.71-1.2-.94-2.02-.21-.82-.32-1.8-.32-2.91 0-2.25.42-3.89 1.26-4.93a4.3 4.3 0 0 1 3.54-1.57c1.1 0 1.99.24 2.65.72a4.66 4.66 0 0 1 1.55 1.94l-1.19.72a3.3 3.3 0 0 0-1.1-1.54 3.08 3.08 0 0 0-1.9-.56c-1.05 0-1.85.35-2.42 1.04a4.26 4.26 0 0 0-.84 2.77v2.81c0 1.17.28 2.1.84 2.8a2.95 2.95 0 0 0 2.41 1.02c.41 0 .8-.06 1.16-.18a2.56 2.56 0 0 0 1.84-2.56v-1.37h-2.5v-1.26h3.9V162h-1.34v-1.75Zm5.33-10.81v8.13c0 .57.04 1.06.13 1.48.1.42.24.77.45 1.06.2.28.47.49.8.63.36.13.78.2 1.27.2.98 0 1.66-.28 2.05-.83.4-.56.6-1.41.6-2.54v-8.13h1.43v7.84c0 .84-.07 1.58-.21 2.2a3.84 3.84 0 0 1-.7 1.53 3 3 0 0 1-1.27.92 5.5 5.5 0 0 1-1.9.29c-.76 0-1.4-.1-1.93-.3-.51-.2-.94-.5-1.26-.91-.31-.4-.54-.92-.68-1.53a9.85 9.85 0 0 1-.22-2.2v-7.84h1.44ZM189.9 162h-1.44v-12.56h4.62c2.08 0 3.12 1.19 3.12 3.58 0 2.01-.75 3.18-2.24 3.49l2.54 5.49h-1.62l-2.36-5.4h-2.63v5.4Zm3.15-6.62c1.06 0 1.6-.58 1.6-1.73v-1.23c0-1.15-.54-1.72-1.6-1.72h-3.16v4.68h3.16Zm6.99-5.94v8.13c0 .57.04 1.06.12 1.48.1.42.25.77.45 1.06.2.28.48.49.81.63.35.13.77.2 1.26.2.99 0 1.67-.28 2.05-.83.4-.56.6-1.41.6-2.54v-8.13h1.44v7.84a9.5 9.5 0 0 1-.22 2.2 3.84 3.84 0 0 1-.7 1.53c-.31.4-.73.71-1.26.92a5.5 5.5 0 0 1-1.9.29c-.76 0-1.4-.1-1.93-.3-.52-.2-.94-.5-1.26-.91-.32-.4-.54-.92-.69-1.53a9.85 9.85 0 0 1-.21-2.2v-7.84h1.44ZM213.49 162v-12.56h4.63c2.08 0 3.11 1.19 3.11 3.58s-1.03 3.58-3.11 3.58h-3.19v5.4h-1.44Zm1.44-6.66h3.15c1.07 0 1.6-.58 1.6-1.73v-1.19c0-1.15-.53-1.72-1.6-1.72h-3.15v4.64Zm9.7 6.66c-.49 0-.85-.1-1.08-.32-.21-.23-.32-.6-.32-1.08v-11.92h1.37v12.11h1.17V162h-1.14Zm8.91 0c-.88 0-1.33-.44-1.33-1.33v-.18h-.18c-.15.56-.44 1-.86 1.3-.4.28-.9.43-1.48.43-.9 0-1.57-.23-2.01-.69-.45-.45-.67-1.13-.67-2.01 0-.87.28-1.55.85-2.06.57-.5 1.47-.75 2.68-.75h1.67v-1.03c0-.68-.15-1.19-.47-1.51-.3-.32-.78-.49-1.44-.49-.54 0-.97.12-1.3.36-.33.23-.62.57-.85 1.01l-.81-.75a3.32 3.32 0 0 1 3.02-1.78c1.05 0 1.85.25 2.4.77.55.5.82 1.25.82 2.25v5.25h.94V162h-.98Zm-3.5-.97a2.36 2.36 0 0 0 1.57-.58c.18-.18.33-.38.44-.6.1-.22.16-.45.16-.7v-1.4h-1.7c-.73 0-1.25.12-1.6.36-.31.24-.48.59-.48 1.05v.5c0 .47.15.82.44 1.04.28.22.67.33 1.16.33Zm8.2.97c-.5 0-.86-.1-1.09-.32-.21-.23-.32-.6-.32-1.08v-6.68h-1.37v-1.2h.81c.28 0 .46-.07.54-.2.1-.15.14-.36.14-.64v-1.72h1.25v2.55h1.8v1.2h-1.8v6.88h1.7V162h-1.67Zm4.16-8.08h-1.35v-1.2h1.35v-2.28c0-.6.14-1.05.41-1.33.3-.29.74-.43 1.35-.43h1.39v1.2h-1.78v2.83h1.78v1.2h-1.78V162h-1.37v-8.08Zm7.92 8.3a4.4 4.4 0 0 1-1.51-.27 2.95 2.95 0 0 1-1.2-.87c-.34-.4-.6-.9-.8-1.51a7.45 7.45 0 0 1-.29-2.21c0-.87.1-1.6.3-2.22.18-.61.45-1.11.78-1.51.34-.4.74-.68 1.2-.86a4.27 4.27 0 0 1 3.03 0c.47.18.87.46 1.2.86.34.4.6.9.8 1.51.2.61.29 1.35.29 2.22 0 .86-.1 1.6-.29 2.21a4.3 4.3 0 0 1-.8 1.51c-.33.4-.73.69-1.2.87-.47.18-.97.27-1.5.27Zm0-1.23c.75 0 1.31-.22 1.71-.66.4-.45.61-1.13.61-2.04v-1.87c0-.91-.2-1.59-.6-2.03-.4-.45-.97-.67-1.72-.67-.74 0-1.32.22-1.73.67-.4.44-.6 1.12-.6 2.03v1.87c0 .91.2 1.6.6 2.04.41.44.99.66 1.73.66Zm5.9 1.01v-9.29h1.37v1.73h.18c.16-.54.42-.96.8-1.26a2.3 2.3 0 0 1 1.49-.47h.5v1.39h-.9c-.65 0-1.16.14-1.53.43-.36.29-.54.72-.54 1.3V162h-1.37Zm5.98 0v-9.29h1.37v1.51h.18c.18-.57.44-1 .79-1.3a2.3 2.3 0 0 1 1.48-.42 2.37 2.37 0 0 1 2.37 1.73h.18c.2-.58.5-1.01.9-1.3.41-.29.95-.43 1.62-.43.8 0 1.43.28 1.91.84.48.57.72 1.44.72 2.61V162h-1.37v-5.96a2.8 2.8 0 0 0-.45-1.7c-.29-.4-.74-.6-1.35-.6a2 2 0 0 0-1.37.5c-.36.34-.54.81-.54 1.42V162h-1.36v-5.96a2.8 2.8 0 0 0-.45-1.7c-.3-.4-.74-.6-1.35-.6a2 2 0 0 0-1.37.5c-.36.34-.54.81-.54 1.42V162h-1.37Z"/>
</svg>