<svg xmlns="http://www.w3.org/2000/svg" fill="none" viewBox="0 0 506 444" width="506" height="444">
  <path fill="#E88000" d="m286.51 51.03 8.97-15.33s53.7-9.3 75.73 15.66V61.4l-84.7-10.36Z"/>
  <ellipse cx="253.51" cy="221.58" fill="#232A32" rx="221.45" ry="221.58"/>
  <path fill="#0063A2" d="M226.74 246.65s35.09 110.92 109.46 48.39c18.1 9.62 0 43 0 43s-49.53 53.2-111.87 11.04c-62.34-42.16-59.29-91.02-59.29-91.02l61.68-11.41h.02Z"/>
  <path fill="#00B0F3" d="M277.55 311.42a50.65 50.65 0 0 1-7.52-3.53c.82 17.79-2.75 35.99-8.36 52.61l-1.3 3.72c3.69.64 7.29.98 10.8 1.09l.63-2.33c4.5-16.9 7.04-34.4 5.73-51.56h.02Zm38.96 41.68c-1.22-14.69-4.68-28.52-12.08-40.43a49.56 49.56 0 0 1-8.3 1.36c8.2 12.97 10.39 28.5 9.52 44.54a93.56 93.56 0 0 0 10.85-5.47h.01Zm-91.46-21.14c12.03-12.22 20.47-26.47 24.57-42.3a117.5 117.5 0 0 1-5.77-7.94c-6.07 15.84-18.05 29.26-30.7 40.22a206.07 206.07 0 0 1-11.34 9.2 164.8 164.8 0 0 0 12.43 10.67 137.7 137.7 0 0 0 10.8-9.83l.01-.02Z"/>
  <path fill="#004E80" d="M233.39 196.26s15.56 34.14-7.35 53.96c-22.9 19.8-77.44 13.82-82-28.58-4.57-42.4 89.35-25.38 89.35-25.38Z"/>
  <path fill="#00B0F3" d="M365.36 255.14s-72.82 32.93-29.62 170.96c0 0 44.2-16.48 77.12-48.12 32.92-31.64 43.32-55.05 52.85-93.09-22.57-31.8-55.71-50.81-100.35-29.75Z"/>
  <path fill="#0063A2" d="M428.55 252.15c-17.71-8.05-38.72-8.57-63.2 2.99 0 0-6.76 2.63-14.9 10.24l75.97 116.45s20.6 17.37 44.96 2.6c22.35-13.55 10.8-37.71 7.67-44.22-2.58-5.36-30.47-58.48-50.5-88.04v-.02Z"/>
  <path fill="#0063A2" d="M421.53 309.82c-16.92-19.32-51.75-31.95-78.24-39.18-12.25 15.47-25.23 44.84-19.07 97.72 12.48 19.4 16.58 34.96 35.35 46.9 0 0 27.73-9.97 61.09-44.65 33.35-34.68 18.14 2.71.89-60.79h-.02Z"/>
  <path fill="#004E80" d="M358.53 387.51s-15.15-40.88-3.8-88.14c-.95-2.55-4.23-6.5-4.23-6.5s-18.22 55.27-3.53 94.64c7.77-1.36 11.54 0 11.54 0h.02Z"/>
  <path fill="#E88000" d="M247.12 116.13s-14.14 5.8-11.6 43.78c2.14 31.95 10.47 43.79 15.56 43.79 5.1 0-3.95-87.57-3.95-87.57h-.01Z"/>
  <path fill="#FFAD00" d="M265.36 85.07c-.85-1.5 6.97-16.97 6.97-16.97s60.9-8.5 97.38 16.97v13.58L265.36 85.07Z"/>
  <path fill="#00B0F3" d="M242.6 85.99c.12 1.7 6.5 102.71 1.41 144.6 3.1 11.32 81.74 25.75 115.67 14.43 3.4-3.69 11.32-79.5 22.62-141.48 5.1-20.66-140.84-34.75-139.7-17.53v-.02Z"/>
  <path fill="#0063A2" d="M359.63 245.02c3.12-3.38 10.05-67.6 19.92-126.06-6.02-2.95-14.6-3.3-25.37 6.37-22.48 20.17-22.43 56-22.43 56s-9.69 17.05-6.5 21.52c0 0-32.15-17.49-34.24-15.84-2.09 1.64-2.22 23.68-7.2 43.85 0 0-20.63-5.14-25.65-9.39 3.56-47.88-5.53-65.85-13.27-86.89 1.19 32.4 1.83 73.07-.95 96 3.1 11.33 81.74 25.76 115.67 14.44h.02Z"/>
  <path fill="#FFAD00" d="M391.27 178.37c4.76-26.37-3.15-49.88-17.68-52.5-14.52-2.63-30.16 16.62-34.92 43-4.76 26.37 3.15 49.87 17.68 52.5 14.52 2.62 30.16-16.63 34.92-43Z"/>
  <path fill="#E88000" d="M390.15 178.15c-3.83 21.25-15.32 36.99-25.63 35.12-10.32-1.87-15.58-20.6-11.75-41.88 3.84-21.27 15.33-37 25.64-35.13 2.28.4 6.8 1.5 10.49 2.94 6.14 6.72 4.24 22.38 1.25 38.95Z"/>
  <path fill="#F5F2F9" d="M288.26 191.54s21.76 7.9 44.76 5.1c1.7-23.98.85-77.9-24.6-78.95-22.48-.2-21 45.41-20.16 73.85Zm-38.45-4.96s13.86 4.38 28.13 2.97c1.41-37.48-1.98-73.43-16.25-73.43-14.29 0-13.71 56.03-11.88 70.46Z"/>
  <path fill="#4C2634" d="M268.75 210.78s3.19 12.02 3.88 14c.7 1.99 5.03 1.28 3.89-8.84-1.14-10.12-9.55-11.79-7.77-5.16Z"/>
  <path fill="#232A32" d="M258.21 183.46c3.95 0 7.15-4.43 7.15-9.88 0-5.46-3.2-9.88-7.15-9.88-3.94 0-7.14 4.42-7.14 9.88 0 5.45 3.2 9.88 7.14 9.88Zm39.03 3.54c3.94 0 7.14-4.42 7.14-9.87 0-5.46-3.2-9.88-7.14-9.88-3.95 0-7.15 4.42-7.15 9.88 0 5.45 3.2 9.88 7.15 9.88Z"/>
  <path fill="#FFAD00" d="M398.73 180.53c3.84-21.26-1.42-40-11.74-41.87-10.31-1.86-21.8 13.86-25.63 35.12-3.84 21.26 1.42 40 11.74 41.87 10.31 1.86 21.8-13.86 25.63-35.12Z"/>
  <path fill="#0063A2" d="M293.57 117.69s10.9-21.56 27.71-.55c-5.94-21.71-28.42-37.45-27.7.55Zm-41.63-2.89c-.23 1.87 11.33-20.22 24.53 2.41-1.56-20.8-20.63-35.94-24.54-2.4Zm125.2 141.19s9.33-13.36 24.8 3.3c15.48 16.65 33.86 103.67 27.55 124.05-8.66 14.84-52.35-127.35-52.35-127.35Z"/>
  <path fill="#00B0F3" d="M390.36 217.65s-4.3-17.9-6.45-22.65c-2.14-4.75-35.3-32.25-37.02-32.19l-1.72.07s-13.32 23.7-13 26.4c.09.72.82 1.73 1.82 2.87-12.15-1.32-38.26-4.04-40.25-2.95-2.6 1.4-5.7 44.82-4.58 47.48 1.14 2.65 32.53 12.02 32.53 12.02s-32 5.8-32.67 6.8c-.66 1 7.7 32.8 9.66 36.72 1.97 3.92 52.77 3.75 52.77 3.75s60.39 64.02 75.48 78.23c15.08 14.21 46.76 8.19 52.02-15.16 3.3-20.34-88.6-141.39-88.6-141.39Z"/>
  <path fill="#0063A2" d="M468.07 331.1c-.9 1.1-1.8 2.19-2.73 3.26a208.34 208.34 0 0 1-41.74 36.6c1.3 1.26 2.41 2.36 3.36 3.24a26.44 26.44 0 0 0 6.65 4.52 162.94 162.94 0 0 0 42.17-32.36 166.6 166.6 0 0 0-7.72-15.26h.01Zm-77.47-69.25a1001 1001 0 0 1 15.78-22.69c-4.1-5.6-7.64-10.37-10.34-13.99-4.19 6.08-7.41 11.17-8.9 13.42-12.61 18.9-23.93 38.35-35.03 58.03 1.24 1.3 4.28 4.51 8.47 8.96 9.82-14.7 20.1-29.13 30-43.73h.02Zm43.6 45.02c3.82-4 7.52-8.1 11.12-12.3-3.07-4.6-6.21-9.23-9.37-13.81a347.57 347.57 0 0 1-12.93 15.31 358.5 358.5 0 0 1-37.38 35.84c2.99 3.13 6 6.28 9.01 9.4a289.18 289.18 0 0 0 39.55-34.46v.02Zm-141.17-52.55 26.72-6.21 6.59 1.83s-21.64 3.64-33.31 4.38Z"/>
  <path fill="#813439" d="M116.97 382.31c-20.21-43.3-92.94-137.5 30.22-135.64 85.5 1.66 124.19 80.89 88.05 195.03-1.74.87-14.3-.87-20.36-2.6-21.9-3.79-58.92-29.91-58.92-29.91l-39-26.88Z"/>
  <path fill="#A75156" d="M74.08 386.65s11.7-15.6 54.58 16.9c42.9 32.51 91.85 36.85 91.85 36.85s20.95-176.36-64.87-181.03c-54.86-2.12-100.62 15.01-81.56 127.28Z"/>
  <path fill="#397D0E" d="M192.51 312.66s3.43-28.67 6.26-33.48c1.99-4.53 90 78.39 102.98 94.52 12.98 16.13 6.1 29.76 6.1 29.76s-114.24-57.32-115.32-90.8h-.02Zm-97.53-2.06s.28-26.89-5.65-29.43c-5.94-2.55-61.38 65.07-80.9 93.09-19.5 28.01 2.3 46.18 3.16 46.86C99.78 385.29 94.98 310.6 94.98 310.6Zm44.28-77.31-2.33 28.4s14.61 11.23 26.5 2.83l4.26-24.35s-13.7-8.1-28.43-6.88Z"/>
  <path fill="#4F9522" d="M99.88 200.02c.02.34 5.9 58.7 65.8 48.45 33.62-6.54 45.6-58.01 33.1-104.75-12.51-46.75-111.4-38.15-107.33 21.02 2.46 25.36 8.44 35.28 8.44 35.28Z"/>
  <path fill="#397D0E" d="M112.26 234.1c19.22-1.35 33.78-19.25 32.54-40-1.25-20.73-17.85-36.45-37.06-35.1-19.22 1.34-33.78 19.25-32.53 39.99 1.25 20.74 17.84 36.46 37.05 35.11Zm83.71-5.28c20.29-1.42 35.66-20.32 34.34-42.21-1.32-21.9-18.83-38.49-39.11-37.06-20.29 1.42-35.66 20.32-34.34 42.21 1.32 21.9 18.83 38.49 39.11 37.06Z"/>
  <path fill="#F5F2F9" d="M113.78 231.6c18-1.26 31.68-17.23 30.57-35.67-1.1-18.43-16.6-32.35-34.6-31.1-17.99 1.27-31.68 17.24-30.57 35.68 1.11 18.43 16.6 32.35 34.6 31.09Zm80.36-5.64c18.45-1.3 32.44-18.5 31.24-38.4-1.2-19.93-17.14-35.02-35.59-33.72-18.45 1.29-32.44 18.48-31.24 38.4 1.2 19.92 17.13 35.01 35.59 33.72Z"/>
  <path fill="#232A32" d="M123.53 223.13c6.56-.46 11.54-6.3 11.14-13.05-.41-6.75-6.06-11.85-12.61-11.39-6.56.46-11.55 6.3-11.14 13.06.4 6.75 6.05 11.84 12.6 11.38Zm59.92-4.2c6.4-.45 11.27-6.29 10.87-13.04-.41-6.74-5.93-11.85-12.34-11.4-6.4.45-11.27 6.28-10.86 13.03.4 6.75 5.93 11.86 12.33 11.4Z"/>
  <path fill="#F5F2F9" d="M139.24 220.83s13.35 6.42 31.35 5.5c-4.2 12.82-16.23 14.13-18.04 1.96-9.42 10.42-17.82 7-13.31-7.46Z"/>
  <path fill="#397D0E" d="M127.66 158.2s19.3-24.4 40.76-4.6c-20.71-2.23-40.76 4.6-40.76 4.6Z"/>
  <path fill="#2D6309" d="M15.3 374.05s7.73-24.9 62.62-46.35c-44.81 49.44-62.63 46.35-62.63 46.35Zm211.67-39.37s57.15 10.34 66.11 33.52c-23.48 7.69-66.1-33.52-66.1-33.52Z"/>
  <path fill="#4F9522" d="m22.93 366.77 53.25-44.13s16.12-35.46 17.6-43.53c26.73-.42 36.63-6.58 37.4-6.79 9.05 3.6 11.82 31.62 11.82 31.62l23.96-.43s10.6-25.47 13.37-28.44c14.84 12.31 27.14 10.83 31.18 12.53 4.04 1.7 4.04 27.81 13.78 42.65l61.16 33.53s29.98 15.57 20.65 42.16c-9.34 26.6-57.7 15.57-101.53-4.8 0 0-13.57-.3-20.92-1.42-11.88 15.84-75.8 6.8-75.8 6.8s-54.72 32.81-85.89 20.93c-31.18-11.89-23.31-41.38 0-60.7l-.03.02Z"/>
  <path fill="#2D6309" d="M117.95 324.32s-21.63 3.4-24.18 6.15c40.73 15.48 96.08 4.21 96.08 4.21 2.54 6.83 6.36 22.75 6.14 27-.43 5.09-9.54 14-9.54 14s-27.86 7.85-41.7 7.64c2.44 8.5 38.04 0 38.04 0s4.66 8.2 1.83 16.4c0 0 3.17.41 3.73.46 3.12-14.82-1.54-20.63-1.54-20.63s8.84-3.75 13.37-16.62c3.26-11.17-5.62-31.97-5.62-31.97s.1-9.2-9.52-10.9c-9.62-1.7-67.09 4.25-67.09 4.25v.01Z"/>
  <path fill="#FF91B0" d="M99.93 299.9v11.7c0 .13 0 .28.03.42l3.24 17.57a2.34 2.34 0 0 0 2.07 1.92c10.22 1 62.28 5.8 82.64 1.25.91-.2 1.63-.91 1.81-1.83l4.79-22.78c.05-.24.07-.5.03-.75l-.86-7.8a2.38 2.38 0 0 0-2.26-2.1c-7.67-.29-37.14-1.15-89.18.04a2.38 2.38 0 0 0-2.33 2.35h.02Z"/>
  <path fill="#DB6B8A" d="M104.3 311.7a2.45 2.45 0 0 0-2.42 2.8l2.4 16.62c.3.18.62.33 1.01.37 10.3 1.02 63.12 5.87 83.11 1.14l.1-.1c1.48-7.15 3.23-15.93 4-19.87a1.71 1.71 0 0 0-1.7-2.05l-86.5 1.08Z"/>
  <path fill="#232A32" d="M177.03 331.47h-20.19a3.73 3.73 0 0 1-3.58-3.3l-.83-7.05c-.26-2.14 1.15-3.94 3.14-3.94h22.77c1.98 0 3.4 1.8 3.14 3.94l-.83 7.06a3.76 3.76 0 0 1-3.58 3.3h-.04Z"/>
  <path fill="#397D0E" d="M206.19 399.23s14.84-19.32 18.02-41.6c16.11 41.6-18.02 41.6-18.02 41.6ZM82.25 359.98s4.8 23.33 25.74 42.85c-32.53 5.94-31.4-32.53-25.74-42.85Z"/>
  <path fill="#004E80" d="M340.08 425.23c-4.25-2.8-17.05-55.25 1.65-62.3 16.6-6.25 28.69 18.85 29.54 46.7l-31.2 15.6Z"/>
  <path fill="#C6EBD8" d="M357.56 369.7c-2.63-1.01-5.26-1.22-7.67-.37-16.17 5.67-9.08 51.95-5.36 51.8l27.6-11.07c-.56-18.2-5.75-29.05-14.57-40.36Z"/>
  <path fill="#fff" d="M353.7 390.54c3.86 0 6.99-3.8 6.99-8.5 0-4.68-3.13-8.48-7-8.48-3.86 0-6.99 3.8-6.99 8.49s3.13 8.49 7 8.49Zm-8.04 10.03c1.95 0 3.53-1.97 3.53-4.4 0-2.43-1.58-4.4-3.53-4.4-1.95 0-3.53 1.97-3.53 4.4 0 2.43 1.58 4.4 3.53 4.4Z"/>
</svg>