<svg xmlns="http://www.w3.org/2000/svg" fill="none" viewBox="0 0 1154 302" width="1154" height="302">
  <path stroke="#232A32" stroke-width="2" d="M750.9 0v20.04c0 7.16-5.8 12.96-12.96 12.96-7.16 0-12.96 5.8-12.96 12.96V64M750.9 0v7.4c0 8.96 0 13.44 1.74 16.86a16 16 0 0 0 7 7C763.04 33 767.53 33 776.5 33h218.9c8.96 0 13.44 0 16.86 1.74a16.05 16.05 0 0 1 7 7c1.74 3.42 1.74 7.9 1.74 16.86V64"/>
  <path stroke="#232A32" stroke-width="2" d="M751.3 0v7.4c0 8.96 0 13.44-1.75 16.86a16 16 0 0 1-6.99 7C739.14 33 734.66 33 725.7 33H431.28c-8.96 0-13.44 0-16.87 1.74a16 16 0 0 0-6.99 7c-1.74 3.42-1.74 7.9-1.74 16.86V64"/>
  <path stroke="#232A32" stroke-width="2" d="M751.3 0v7.4c0 8.96 0 13.44-1.75 16.86a16 16 0 0 1-6.99 7C739.14 33 734.66 33 725.7 33H137.6c-8.96 0-13.44 0-16.86 1.74a16 16 0 0 0-7 7C112 45.16 112 49.64 112 58.6V64m293 60v64m321-64v64m295-64v64"/>
  <rect width="240" height="83" x="284.5" y="190.5" fill="#181D23" rx="15.5"/>
  <rect width="240" height="83" x="284.5" y="190.5" stroke="#12B886" rx="15.5"/>
  <path fill="#fff" d="M309.77 225v-13.96h1.6v12.56h5.3v1.4h-6.9Zm9.69-12.82c-.63 0-.94-.27-.94-.82v-.32c0-.55.3-.82.94-.82.62 0 .94.27.94.82v.32c0 .55-.32.82-.94.82Zm-.76 2.5h1.52V225h-1.52v-10.32Zm7.4 10.56a4.4 4.4 0 0 1-2.2-.52 4.79 4.79 0 0 1-1.53-1.44l1.06-.88c.36.5.74.9 1.16 1.16.42.27.93.4 1.52.4.6 0 1.07-.15 1.42-.44.36-.3.54-.74.54-1.3 0-.45-.12-.82-.34-1.1-.23-.28-.65-.47-1.26-.58l-.78-.14a4.6 4.6 0 0 1-2.24-.94c-.48-.44-.72-1.1-.72-2 0-.52.08-.97.24-1.34.16-.39.38-.7.68-.94.29-.25.64-.43 1.04-.54.41-.12.86-.18 1.34-.18a3.88 3.88 0 0 1 3.32 1.6l-.98.9a3.3 3.3 0 0 0-.9-.84 2.52 2.52 0 0 0-1.44-.38c-1.22 0-1.82.55-1.82 1.66 0 .5.12.88.38 1.12.26.23.69.4 1.28.5l.78.14c1.05.19 1.8.51 2.24.98.44.47.66 1.1.66 1.9 0 1-.3 1.79-.88 2.36-.58.56-1.43.84-2.56.84Zm7.98-.24c-.55 0-.95-.12-1.2-.36-.24-.25-.36-.65-.36-1.2v-7.42H331v-1.34h.9c.3 0 .5-.07.6-.22.1-.16.16-.4.16-.7v-1.92h1.38v2.84h2v1.34h-2v7.64h1.9V225h-1.86Zm5.04-12.82c-.62 0-.94-.27-.94-.82v-.32c0-.55.32-.82.94-.82.63 0 .94.27.94.82v.32c0 .55-.31.82-.94.82Zm-.76 2.5h1.52V225h-1.52v-10.32Zm4.56 10.32v-10.32h1.51v1.68h.2c.2-.64.51-1.12.93-1.44.42-.32 1-.48 1.71-.48.93 0 1.65.31 2.17.94.53.63.8 1.6.8 2.9V225h-1.53v-6.62c0-.83-.17-1.46-.51-1.9-.34-.44-.86-.66-1.56-.66-.62 0-1.14.19-1.56.56-.43.37-.64.9-.64 1.58V225h-1.52Zm18.13 1.16c0 1.1-.38 1.88-1.12 2.36-.74.48-1.88.72-3.42.72-1.48 0-2.54-.22-3.18-.66a2.18 2.18 0 0 1-.94-1.9c0-.56.14-1 .42-1.32.28-.32.64-.52 1.08-.6v-.28a1.88 1.88 0 0 1-.64-.56 1.58 1.58 0 0 1-.22-.84c0-.43.12-.8.36-1.1.25-.3.66-.5 1.22-.56v-.22a3 3 0 0 1-1.26-1.18c-.3-.53-.44-1.2-.44-2 0-1.17.32-2.06.96-2.66.64-.6 1.5-.9 2.58-.9.64 0 1.22.11 1.74.34v-.36c0-.39.08-.67.26-.84.17-.17.45-.26.84-.26h1.38v1.34h-1.78v.56c.35.3.61.69.8 1.14.2.45.3 1 .3 1.64 0 1.17-.32 2.06-.96 2.66-.64.6-1.5.9-2.58.9-.32 0-.65-.03-.98-.1a1.4 1.4 0 0 0-.86.46 1.1 1.1 0 0 0-.28.7c0 .27.1.47.28.6.19.13.5.2.92.2h2.26c1.16 0 2 .23 2.5.7s.76 1.14.76 2.02Zm-1.42.1c0-.45-.14-.8-.42-1.04-.28-.23-.76-.34-1.44-.34h-3.14c-.3.15-.53.33-.66.56-.12.23-.18.51-.18.86 0 .52.16.93.48 1.22.32.3.83.46 1.54.46h1.32c.82 0 1.44-.14 1.86-.42.43-.27.64-.7.64-1.3Zm-3.18-5.92c.63 0 1.11-.16 1.46-.48.34-.32.52-.81.52-1.48v-.74c0-.67-.18-1.16-.52-1.48a2.07 2.07 0 0 0-1.46-.48c-.63 0-1.12.16-1.46.48-.35.32-.52.81-.52 1.48v.74c0 .67.17 1.16.52 1.48.34.32.83.48 1.46.48Zm18.49 4.66-1.24-4.18h-5.02l-1.24 4.18h-1.6l4.36-13.96h2l4.38 13.96h-1.64Zm-3.22-10.8-.44-1.74h-.2l-.44 1.74-1.58 5.3h4.28l-1.62-5.3Zm6.94 10.8v-13.96h5.14c2.3 0 3.46 1.33 3.46 3.98s-1.15 3.98-3.46 3.98h-3.54v6h-1.6Zm1.6-7.4h3.5c1.19 0 1.78-.64 1.78-1.92v-1.32c0-1.28-.6-1.92-1.78-1.92h-3.5v5.16Zm8.76 7.4v-1.32h1.76v-11.32h-1.76v-1.32h5.12v1.32h-1.76v11.32h1.76V225h-5.12Zm10.52.24a4.4 4.4 0 0 1-2.2-.52 4.8 4.8 0 0 1-1.54-1.44l1.06-.88c.36.5.75.9 1.16 1.16.43.27.94.4 1.52.4.6 0 1.08-.15 1.42-.44.36-.3.54-.74.54-1.3 0-.45-.1-.82-.34-1.1-.22-.28-.64-.47-1.26-.58l-.78-.14a4.6 4.6 0 0 1-2.24-.94c-.48-.44-.72-1.1-.72-2 0-.52.08-.97.24-1.34.16-.39.4-.7.68-.94.3-.25.64-.43 1.04-.54.42-.12.86-.18 1.34-.18a3.88 3.88 0 0 1 3.32 1.6l-.98.9c-.22-.32-.52-.6-.9-.84a2.51 2.51 0 0 0-1.44-.38c-1.2 0-1.82.55-1.82 1.66 0 .5.13.88.38 1.12.27.23.7.4 1.28.5l.78.14c1.06.19 1.8.51 2.24.98.44.47.66 1.1.66 1.9 0 1-.29 1.79-.88 2.36-.57.56-1.42.84-2.56.84Zm6.78-2.36c.78 0 1.18.34 1.18 1.02v.32c0 .52-.16 1.1-.48 1.72a5.9 5.9 0 0 1-1.24 1.7h-1.24c.36-.43.65-.83.88-1.2.22-.36.39-.77.5-1.24-.52-.12-.78-.45-.78-.98v-.32c0-.68.39-1.02 1.18-1.02Zm16.24 2.12-1.25-4.18h-5.01l-1.25 4.18h-1.6l4.37-13.96h2L424.2 225h-1.64Zm-3.23-10.8-.44-1.74h-.2l-.44 1.74-1.57 5.3h4.27l-1.62-5.3Zm6.35 10.8v-1.32h1.76v-11.32h-1.76v-1.32h5.12v1.32h-1.76v11.32h1.76V225h-5.12Zm11.94 0v-10.32h1.52v1.68h.2a3 3 0 0 1 .88-1.44 2.5 2.5 0 0 1 1.64-.48c.64 0 1.18.16 1.62.48.45.3.8.79 1.02 1.44h.2c.22-.64.55-1.12 1-1.44a3.06 3.06 0 0 1 1.8-.48c.88 0 1.59.31 2.12.94.53.63.8 1.6.8 2.9V225h-1.52v-6.62a3.1 3.1 0 0 0-.5-1.9c-.32-.44-.82-.66-1.5-.66-.6 0-1.1.19-1.52.56-.4.37-.6.9-.6 1.58V225h-1.52v-6.62a3.1 3.1 0 0 0-.5-1.9c-.32-.44-.82-.66-1.5-.66-.6 0-1.1.19-1.52.56-.4.37-.6.9-.6 1.58V225h-1.52Zm19.26.24c-.6 0-1.16-.1-1.68-.3-.52-.2-.96-.52-1.34-.96-.37-.44-.66-1-.88-1.68a8.26 8.26 0 0 1-.32-2.46c0-.96.11-1.78.32-2.46.22-.68.51-1.24.88-1.68.38-.44.82-.76 1.34-.96.52-.2 1.08-.3 1.68-.3.6 0 1.16.1 1.68.3.52.2.97.52 1.34.96.38.44.67 1 .88 1.68.22.68.32 1.5.32 2.46s-.1 1.78-.32 2.46c-.21.68-.5 1.24-.88 1.68-.37.44-.82.76-1.34.96-.52.2-1.08.3-1.68.3Zm0-1.36c.83 0 1.46-.25 1.9-.74.46-.5.68-1.25.68-2.26v-2.08c0-1.01-.22-1.77-.68-2.26-.44-.5-1.07-.74-1.9-.74a2.5 2.5 0 0 0-1.92.74c-.44.5-.66 1.25-.66 2.26v2.08c0 1.01.22 1.77.66 2.26.46.5 1.1.74 1.92.74Zm12.48-.56h-.2c-.2.68-.53 1.17-.98 1.48-.44.3-.98.44-1.62.44a3.4 3.4 0 0 1-1.62-.38 3.36 3.36 0 0 1-1.18-1.08 5.07 5.07 0 0 1-.72-1.7 9.62 9.62 0 0 1-.24-2.24c0-.83.08-1.57.24-2.24.16-.67.4-1.23.72-1.7.32-.47.72-.83 1.18-1.08.47-.25 1-.38 1.62-.38.64 0 1.18.15 1.62.46.45.3.78.78.98 1.46h.2v-6.16h1.52V225h-1.52v-1.68Zm-2.34.56c.32 0 .62-.05.9-.14a2.08 2.08 0 0 0 1.24-1.02c.13-.24.2-.5.2-.8v-4.16c0-.3-.06-.56-.2-.8a2.08 2.08 0 0 0-1.24-1.02c-.28-.1-.58-.14-.9-.14-.84 0-1.48.27-1.92.8a3.3 3.3 0 0 0-.66 2.2v2.08c0 .95.22 1.69.66 2.22.44.52 1.08.78 1.92.78Zm10.43 1.36c-.6 0-1.16-.1-1.68-.3-.52-.2-.97-.52-1.34-.96-.37-.44-.67-1-.88-1.68a8.3 8.3 0 0 1-.32-2.46c0-.96.1-1.78.32-2.46.21-.68.5-1.24.88-1.68.37-.44.82-.76 1.34-.96a4.64 4.64 0 0 1 3.32 0c.5.2.93.52 1.28.96.35.44.61 1 .8 1.68.2.68.3 1.5.3 2.46v.38h-6.62v.66c0 1.01.23 1.77.68 2.28.47.5 1.1.74 1.92.74.7 0 1.26-.15 1.7-.44.44-.3.79-.76 1.04-1.36l1.04.76a3.94 3.94 0 0 1-3.78 2.38Zm0-9.52a2.4 2.4 0 0 0-1.92.78c-.45.52-.68 1.29-.68 2.3v.26h5v-.26c0-2.05-.8-3.08-2.4-3.08Zm7.94 9.28c-.54 0-.94-.12-1.2-.36-.24-.25-.36-.65-.36-1.2V210.2h1.52v13.46h1.3V225h-1.26Zm6.24.24a4.4 4.4 0 0 1-2.2-.52 4.8 4.8 0 0 1-1.54-1.44l1.06-.88c.36.5.75.9 1.16 1.16.43.27.94.4 1.52.4.6 0 1.08-.15 1.42-.44.36-.3.54-.74.54-1.3 0-.45-.1-.82-.34-1.1-.22-.28-.64-.47-1.26-.58l-.78-.14a4.6 4.6 0 0 1-2.24-.94c-.48-.44-.72-1.1-.72-2 0-.52.08-.97.24-1.34.16-.39.4-.7.68-.94.3-.25.64-.43 1.04-.54.42-.12.86-.18 1.34-.18a3.88 3.88 0 0 1 3.32 1.6l-.98.9c-.22-.32-.52-.6-.9-.84a2.51 2.51 0 0 0-1.44-.38c-1.2 0-1.82.55-1.82 1.66 0 .5.13.88.38 1.12.27.23.7.4 1.28.5l.78.14c1.06.19 1.8.51 2.24.98.44.47.66 1.1.66 1.9 0 1-.29 1.79-.88 2.36-.57.56-1.42.84-2.56.84Zm6.78-2.36c.78 0 1.18.34 1.18 1.02v.32c0 .52-.16 1.1-.48 1.72a5.9 5.9 0 0 1-1.24 1.7h-1.24c.36-.43.65-.83.88-1.2.22-.36.39-.77.5-1.24-.52-.12-.78-.45-.78-.98v-.32c0-.68.39-1.02 1.18-1.02Zm-134.13 28.44h-.2c-.2.68-.52 1.17-.98 1.48-.44.3-.98.44-1.62.44a3.4 3.4 0 0 1-1.62-.38 3.36 3.36 0 0 1-1.18-1.08 5.07 5.07 0 0 1-.72-1.7 9.62 9.62 0 0 1-.24-2.24c0-.83.08-1.57.24-2.24.16-.67.4-1.23.72-1.7.32-.47.72-.83 1.18-1.08a3.4 3.4 0 0 1 1.62-.38 2.48 2.48 0 0 1 2.6 1.92h.2v-6.16h1.52V253h-1.52v-1.68Zm-2.34.56c.32 0 .62-.05.9-.14a2.08 2.08 0 0 0 1.24-1.02c.14-.24.2-.5.2-.8v-4.16c0-.3-.06-.56-.2-.8a2.08 2.08 0 0 0-1.24-1.02c-.28-.1-.58-.14-.9-.14-.84 0-1.48.27-1.92.8a3.3 3.3 0 0 0-.66 2.2v2.08c0 .95.22 1.69.66 2.22.44.52 1.08.78 1.92.78Zm13.43 1.12c-.99 0-1.48-.5-1.48-1.48v-.2h-.2c-.17.63-.5 1.1-.96 1.44-.45.32-1 .48-1.64.48-1 0-1.74-.25-2.24-.76-.5-.5-.74-1.25-.74-2.24 0-.96.31-1.72.94-2.28.64-.56 1.63-.84 2.98-.84h1.86v-1.14c0-.76-.17-1.32-.52-1.68-.33-.36-.87-.54-1.6-.54-.6 0-1.08.13-1.46.4-.36.25-.67.63-.94 1.12l-.9-.84a3.7 3.7 0 0 1 3.36-1.98c1.18 0 2.06.29 2.66.86.62.56.92 1.4.92 2.5v5.84h1.04V253h-1.08Zm-3.9-1.08c.35 0 .67-.06.96-.18a2.22 2.22 0 0 0 1.28-1.12c.12-.25.18-.51.18-.78v-1.56H372c-.8 0-1.38.13-1.76.4-.36.27-.54.65-.54 1.16v.56c0 .52.16.9.48 1.16.32.24.75.36 1.3.36Zm9.91 1.32a4.4 4.4 0 0 1-2.2-.52 4.8 4.8 0 0 1-1.54-1.44l1.06-.88c.36.5.75.9 1.16 1.16.43.27.93.4 1.52.4.6 0 1.07-.15 1.42-.44.36-.3.54-.74.54-1.3 0-.45-.11-.82-.34-1.1-.23-.28-.65-.47-1.26-.58l-.78-.14a4.6 4.6 0 0 1-2.24-.94c-.48-.44-.72-1.1-.72-2 0-.52.08-.97.24-1.34.16-.39.39-.7.68-.94.3-.25.64-.43 1.04-.54.41-.12.86-.18 1.34-.18a3.88 3.88 0 0 1 3.32 1.6l-.98.9a3.3 3.3 0 0 0-.9-.84 2.51 2.51 0 0 0-1.44-.38c-1.21 0-1.82.55-1.82 1.66 0 .5.13.88.38 1.12.27.23.7.4 1.28.5l.78.14c1.05.19 1.8.51 2.24.98.44.47.66 1.1.66 1.9 0 1-.3 1.79-.88 2.36-.57.56-1.43.84-2.56.84Zm5.93-15.04h1.52v6.16h.2c.2-.64.5-1.12.92-1.44.43-.32 1-.48 1.72-.48.92 0 1.64.31 2.16.94.53.63.8 1.6.8 2.9V253h-1.52v-6.62c0-.83-.17-1.46-.52-1.9-.33-.44-.85-.66-1.56-.66-.61 0-1.13.19-1.56.56-.43.37-.64.9-.64 1.58V253h-1.52v-14.8Zm10.25 0h1.52v6.16h.2c.2-.68.52-1.17.96-1.46.46-.3 1-.46 1.64-.46a3.28 3.28 0 0 1 2.8 1.46c.32.47.56 1.03.72 1.7.16.67.24 1.41.24 2.24 0 .83-.08 1.57-.24 2.24-.16.67-.4 1.23-.72 1.7a3.28 3.28 0 0 1-2.8 1.46 3 3 0 0 1-1.64-.44 2.6 2.6 0 0 1-.96-1.48h-.2V253h-1.52v-14.8Zm3.86 13.68c.84 0 1.48-.26 1.92-.78.44-.53.66-1.27.66-2.22v-2.08a3.3 3.3 0 0 0-.66-2.2c-.44-.53-1.08-.8-1.92-.8a2.63 2.63 0 0 0-1.66.54 1.74 1.74 0 0 0-.68 1.42v4.16a1.76 1.76 0 0 0 .68 1.42 2.63 2.63 0 0 0 1.66.54Zm10.15 1.36c-.6 0-1.16-.1-1.68-.3-.52-.2-.96-.52-1.34-.96-.37-.44-.67-1-.88-1.68a8.3 8.3 0 0 1-.32-2.46c0-.96.1-1.78.32-2.46.21-.68.5-1.24.88-1.68.38-.44.82-.76 1.34-.96.52-.2 1.08-.3 1.68-.3.6 0 1.16.1 1.68.3.52.2.97.52 1.34.96.38.44.67 1 .88 1.68.21.68.32 1.5.32 2.46s-.1 1.78-.32 2.46c-.21.68-.5 1.24-.88 1.68-.37.44-.82.76-1.34.96-.52.2-1.08.3-1.68.3Zm0-1.36c.83 0 1.46-.25 1.9-.74.45-.5.68-1.25.68-2.26v-2.08c0-1.01-.22-1.77-.68-2.26-.44-.5-1.07-.74-1.9-.74a2.5 2.5 0 0 0-1.92.74c-.44.5-.66 1.25-.66 2.26v2.08c0 1.01.22 1.77.66 2.26.46.5 1.1.74 1.92.74Zm13.08 1.12c-.99 0-1.48-.5-1.48-1.48v-.2h-.2c-.17.63-.5 1.1-.96 1.44-.45.32-1 .48-1.64.48-1 0-1.75-.25-2.24-.76-.5-.5-.74-1.25-.74-2.24 0-.96.31-1.72.94-2.28.64-.56 1.63-.84 2.98-.84h1.86v-1.14c0-.76-.17-1.32-.52-1.68-.33-.36-.87-.54-1.6-.54-.6 0-1.09.13-1.46.4-.36.25-.67.63-.94 1.12l-.9-.84a3.7 3.7 0 0 1 3.36-1.98c1.17 0 2.06.29 2.66.86.61.56.92 1.4.92 2.5v5.84h1.04V253h-1.08Zm-3.9-1.08c.35 0 .67-.06.96-.18.3-.12.57-.27.78-.46.21-.2.38-.42.5-.66.12-.25.18-.51.18-.78v-1.56h-1.9c-.8 0-1.39.13-1.76.4-.36.27-.54.65-.54 1.16v.56c0 .52.16.9.48 1.16.32.24.75.36 1.3.36Zm7.05 1.08v-10.32h1.52v1.92h.2c.17-.6.46-1.07.88-1.4.42-.35.98-.52 1.66-.52h.56v1.54h-1a2.7 2.7 0 0 0-1.7.48c-.4.32-.6.8-.6 1.44V253h-1.52Zm12.52-1.68h-.2c-.2.68-.53 1.17-.98 1.48-.44.3-.98.44-1.62.44a3.4 3.4 0 0 1-1.62-.38 3.36 3.36 0 0 1-1.18-1.08 5.07 5.07 0 0 1-.72-1.7 9.62 9.62 0 0 1-.24-2.24c0-.83.08-1.57.24-2.24.16-.67.4-1.23.72-1.7a3.28 3.28 0 0 1 4.42-1c.45.3.78.78.98 1.46h.2v-6.16h1.52V253h-1.52v-1.68Zm-2.34.56c.32 0 .62-.05.9-.14a2.08 2.08 0 0 0 1.24-1.02c.13-.24.2-.5.2-.8v-4.16a1.87 1.87 0 0 0-.7-1.42 2.65 2.65 0 0 0-1.64-.54c-.84 0-1.48.27-1.92.8a3.3 3.3 0 0 0-.66 2.2v2.08c0 .95.22 1.69.66 2.22.44.52 1.08.78 1.92.78Zm9.77 1.36a4.4 4.4 0 0 1-2.2-.52 4.8 4.8 0 0 1-1.54-1.44l1.06-.88c.36.5.74.9 1.16 1.16.42.27.93.4 1.52.4.6 0 1.07-.15 1.42-.44.36-.3.54-.74.54-1.3 0-.45-.12-.82-.34-1.1-.23-.28-.65-.47-1.26-.58l-.78-.14a4.6 4.6 0 0 1-2.24-.94c-.48-.44-.72-1.1-.72-2 0-.52.08-.97.24-1.34.16-.39.38-.7.68-.94.3-.25.64-.43 1.04-.54a4.8 4.8 0 0 1 1.34-.18 3.86 3.86 0 0 1 3.32 1.6l-.98.9a3.2 3.2 0 0 0-.9-.84 2.51 2.51 0 0 0-1.44-.38c-1.22 0-1.82.55-1.82 1.66 0 .5.12.88.38 1.12.26.23.7.4 1.28.5l.78.14c1.05.19 1.8.51 2.24.98.44.47.66 1.1.66 1.9 0 1-.3 1.79-.88 2.36-.58.56-1.43.84-2.56.84Z"/>
  <rect width="255" height="83" x="598.5" y="190.5" fill="#181D23" rx="15.5"/>
  <rect width="255" height="83" x="598.5" y="190.5" stroke="#12B886" rx="15.5"/>
  <path fill="#fff" d="M648.17 211.04v9.04c0 .63.05 1.17.14 1.64.11.47.28.86.5 1.18.23.3.53.54.9.7.39.15.86.22 1.4.22 1.1 0 1.86-.3 2.28-.92.44-.63.66-1.57.66-2.82v-9.04h1.6v8.72c0 .93-.08 1.75-.24 2.44a4.26 4.26 0 0 1-.78 1.7c-.34.45-.81.8-1.4 1.02-.57.21-1.28.32-2.12.32a6.3 6.3 0 0 1-2.14-.32 3.3 3.3 0 0 1-1.4-1.02 4.43 4.43 0 0 1-.76-1.7c-.16-.7-.24-1.5-.24-2.44v-8.72h1.6Zm13.45 14.2a4.4 4.4 0 0 1-2.2-.52 4.8 4.8 0 0 1-1.54-1.44l1.06-.88c.36.5.75.9 1.16 1.16.43.27.93.4 1.52.4.6 0 1.07-.15 1.42-.44.36-.3.54-.74.54-1.3 0-.45-.11-.82-.34-1.1-.23-.28-.65-.47-1.26-.58l-.78-.14a4.6 4.6 0 0 1-2.24-.94c-.48-.44-.72-1.1-.72-2 0-.52.08-.97.24-1.34.16-.39.39-.7.68-.94.3-.25.64-.43 1.04-.54a4.8 4.8 0 0 1 1.34-.18 3.86 3.86 0 0 1 3.32 1.6l-.98.9a3.2 3.2 0 0 0-.9-.84 2.51 2.51 0 0 0-1.44-.38c-1.21 0-1.82.55-1.82 1.66 0 .5.13.88.38 1.12.27.23.7.4 1.28.5l.78.14c1.05.19 1.8.51 2.24.98.44.47.66 1.1.66 1.9 0 1-.3 1.79-.88 2.36-.57.56-1.43.84-2.56.84Zm9.45 0c-.6 0-1.16-.1-1.68-.3-.52-.2-.97-.52-1.34-.96-.37-.44-.67-1-.88-1.68a8.3 8.3 0 0 1-.32-2.46c0-.96.1-1.78.32-2.46.21-.68.5-1.24.88-1.68.37-.44.82-.76 1.34-.96a4.64 4.64 0 0 1 3.32 0c.5.2.93.52 1.28.96.35.44.61 1 .8 1.68.2.68.3 1.5.3 2.46v.38h-6.62v.66c0 1.01.23 1.77.68 2.28.47.5 1.1.74 1.92.74a3 3 0 0 0 1.7-.44c.44-.3.79-.76 1.04-1.36l1.04.76a3.94 3.94 0 0 1-3.78 2.38Zm0-9.52a2.4 2.4 0 0 0-1.92.78c-.45.52-.68 1.29-.68 2.3v.26h5v-.26c0-2.05-.8-3.08-2.4-3.08Zm9.24 9.52a4.4 4.4 0 0 1-2.2-.52 4.79 4.79 0 0 1-1.54-1.44l1.06-.88c.36.5.75.9 1.16 1.16.43.27.94.4 1.52.4.6 0 1.08-.15 1.42-.44.36-.3.54-.74.54-1.3 0-.45-.11-.82-.34-1.1-.22-.28-.64-.47-1.26-.58l-.78-.14a4.6 4.6 0 0 1-2.24-.94c-.48-.44-.72-1.1-.72-2 0-.52.08-.97.24-1.34.16-.39.39-.7.68-.94.3-.25.64-.43 1.04-.54.41-.12.86-.18 1.34-.18a3.88 3.88 0 0 1 3.32 1.6l-.98.9a3.3 3.3 0 0 0-.9-.84 2.52 2.52 0 0 0-1.44-.38c-1.21 0-1.82.55-1.82 1.66 0 .5.13.88.38 1.12.27.23.7.4 1.28.5l.78.14c1.05.19 1.8.51 2.24.98.44.47.66 1.1.66 1.9 0 1-.3 1.79-.88 2.36-.57.56-1.42.84-2.56.84Zm18.45-4.16a3.9 3.9 0 0 1-.98 2.84 4.26 4.26 0 0 1-2.72 1.14v1.58h-1.28v-1.6a5.36 5.36 0 0 1-3.86-2.22l1.1-1.02c.3.47.7.88 1.18 1.24a3.9 3.9 0 0 0 1.62.68v-5.32a5.51 5.51 0 0 1-2.72-1.36 3.4 3.4 0 0 1-.82-2.42c0-1.08.32-1.93.96-2.54a4.16 4.16 0 0 1 2.54-1.08v-1.6h1.28v1.6c.84.08 1.55.3 2.14.68.59.36 1.07.83 1.44 1.42l-1.12.86a3.8 3.8 0 0 0-.98-1.04c-.4-.3-.9-.5-1.52-.6v4.88c.64.16 1.2.35 1.66.58.48.21.87.48 1.18.8.3.3.53.67.68 1.08.15.4.22.87.22 1.42Zm-6.98-6.6c0 .72.17 1.26.5 1.62.35.36.86.63 1.54.8v-4.58a2.6 2.6 0 0 0-1.52.7c-.35.37-.52.86-.52 1.46Zm5.5 6.74c0-.68-.18-1.21-.54-1.6a3.5 3.5 0 0 0-1.72-.94v5.04c.73-.1 1.3-.35 1.68-.76.39-.43.58-1 .58-1.74Zm12.22 1.84h-.2a2.6 2.6 0 0 1-1.08 1.56c-.56.41-1.35.62-2.38.62-.76 0-1.45-.14-2.08-.42a4.21 4.21 0 0 1-1.6-1.32 6.71 6.71 0 0 1-1.04-2.24c-.24-.92-.36-2-.36-3.24 0-2.5.47-4.32 1.4-5.48a4.77 4.77 0 0 1 3.94-1.74c1.23 0 2.2.27 2.94.8.73.52 1.3 1.24 1.72 2.16l-1.32.8a3.66 3.66 0 0 0-1.22-1.72 3.42 3.42 0 0 0-2.12-.62c-1.16 0-2.05.39-2.68 1.16a4.7 4.7 0 0 0-.94 3.08v3.12c0 1.3.31 2.33.94 3.1a3.28 3.28 0 0 0 2.68 1.14c.45 0 .88-.07 1.28-.2a2.87 2.87 0 0 0 2.04-2.84v-1.52h-2.76v-1.4h4.32V225h-1.48v-1.94Zm5.92-12.02v9.04c0 .63.05 1.17.14 1.64.1.47.27.86.5 1.18.23.3.53.54.9.7.39.15.85.22 1.4.22 1.1 0 1.85-.3 2.28-.92.44-.63.66-1.57.66-2.82v-9.04h1.6v8.72c0 .93-.08 1.75-.24 2.44a4.26 4.26 0 0 1-.78 1.7c-.35.45-.81.8-1.4 1.02-.57.21-1.28.32-2.12.32a6.3 6.3 0 0 1-2.14-.32 3.3 3.3 0 0 1-1.4-1.02 4.43 4.43 0 0 1-.76-1.7c-.16-.7-.24-1.5-.24-2.44v-8.72h1.6ZM727.75 225h-1.6v-13.96h5.14c2.3 0 3.46 1.33 3.46 3.98 0 2.24-.83 3.53-2.48 3.88l2.82 6.1h-1.8l-2.62-6h-2.92v6Zm3.5-7.36c1.18 0 1.78-.64 1.78-1.92v-1.36c0-1.28-.6-1.92-1.78-1.92h-3.5v5.2h3.5Zm7.76-6.6v9.04c0 .63.05 1.17.14 1.64.11.47.28.86.5 1.18.23.3.53.54.9.7.39.15.86.22 1.4.22 1.1 0 1.86-.3 2.28-.92.44-.63.66-1.57.66-2.82v-9.04h1.6v8.72c0 .93-.08 1.75-.24 2.44a4.26 4.26 0 0 1-.78 1.7c-.34.45-.81.8-1.4 1.02-.57.21-1.28.32-2.12.32a6.3 6.3 0 0 1-2.14-.32 3.3 3.3 0 0 1-1.4-1.02 4.43 4.43 0 0 1-.76-1.7c-.16-.7-.24-1.5-.24-2.44v-8.72h1.6Zm16.9 13.96c-.54 0-.94-.12-1.2-.36-.23-.25-.35-.65-.35-1.2v-7.42h-1.52v-1.34h.9c.3 0 .5-.07.6-.22.1-.16.16-.4.16-.7v-1.92h1.38v2.84h2v1.34h-2v7.64h1.9V225h-1.86Zm7.74.24c-.6 0-1.16-.1-1.68-.3-.52-.2-.97-.52-1.34-.96-.38-.44-.67-1-.88-1.68a8.3 8.3 0 0 1-.32-2.46c0-.96.1-1.78.32-2.46.21-.68.5-1.24.88-1.68.37-.44.82-.76 1.34-.96.52-.2 1.08-.3 1.68-.3.6 0 1.16.1 1.68.3.52.2.96.52 1.34.96.37.44.66 1 .88 1.68.21.68.32 1.5.32 2.46s-.1 1.78-.32 2.46c-.22.68-.5 1.24-.88 1.68-.38.44-.82.76-1.34.96-.52.2-1.08.3-1.68.3Zm0-1.36c.82 0 1.46-.25 1.9-.74.45-.5.68-1.25.68-2.26v-2.08c0-1.01-.23-1.77-.68-2.26-.44-.5-1.08-.74-1.9-.74-.83 0-1.47.25-1.92.74-.44.5-.66 1.25-.66 2.26v2.08c0 1.01.22 1.77.66 2.26.45.5 1.1.74 1.92.74Zm6.56-13.68h1.52v7.6l-.12 2.02h.16l1.44-1.94 2.58-3.2h1.84l-3.42 4.1 3.72 6.22h-1.82l-3.02-5.32-1.36 1.6V225h-1.52v-14.8Zm12.87 15.04c-.6 0-1.16-.1-1.68-.3-.52-.2-.97-.52-1.34-.96-.37-.44-.67-1-.88-1.68a8.3 8.3 0 0 1-.32-2.46c0-.96.1-1.78.32-2.46.21-.68.5-1.24.88-1.68.37-.44.82-.76 1.34-.96a4.64 4.64 0 0 1 3.32 0c.5.2.93.52 1.28.96.35.44.61 1 .8 1.68.2.68.3 1.5.3 2.46v.38h-6.62v.66c0 1.01.23 1.77.68 2.28.47.5 1.1.74 1.92.74.7 0 1.26-.15 1.7-.44.44-.3.79-.76 1.04-1.36l1.04.76a3.94 3.94 0 0 1-3.78 2.38Zm0-9.52a2.4 2.4 0 0 0-1.92.78c-.45.52-.68 1.29-.68 2.3v.26h5v-.26c0-2.05-.8-3.08-2.4-3.08Zm6.38 9.28v-10.32h1.52v1.68h.2c.2-.64.51-1.12.92-1.44.43-.32 1-.48 1.72-.48.92 0 1.64.31 2.16.94.54.63.8 1.6.8 2.9V225h-1.52v-6.62c0-.83-.17-1.46-.52-1.9-.33-.44-.85-.66-1.56-.66-.61 0-1.13.19-1.56.56a2 2 0 0 0-.64 1.58V225h-1.52Zm13.12.24a4.4 4.4 0 0 1-2.2-.52 4.8 4.8 0 0 1-1.54-1.44l1.06-.88c.36.5.74.9 1.16 1.16.42.27.93.4 1.52.4.6 0 1.07-.15 1.42-.44.36-.3.54-.74.54-1.3 0-.45-.12-.82-.34-1.1-.23-.28-.65-.47-1.26-.58l-.78-.14a4.6 4.6 0 0 1-2.24-.94c-.48-.44-.72-1.1-.72-2 0-.52.08-.97.24-1.34.16-.39.38-.7.68-.94.3-.25.64-.43 1.04-.54a4.8 4.8 0 0 1 1.34-.18 3.86 3.86 0 0 1 3.32 1.6l-.98.9a3.2 3.2 0 0 0-.9-.84 2.51 2.51 0 0 0-1.44-.38c-1.22 0-1.82.55-1.82 1.66 0 .5.12.88.38 1.12.26.23.7.4 1.28.5l.78.14c1.05.19 1.8.51 2.24.98.44.47.66 1.1.66 1.9 0 1-.3 1.79-.88 2.36-.58.56-1.43.84-2.56.84Zm-176.52 18.78h-1.5v-1.34h1.5v-2.52c0-.68.15-1.17.46-1.48.32-.32.82-.48 1.5-.48h1.54v1.34h-1.98v3.14h1.98v1.34h-1.98V253h-1.52v-8.98Zm8.8 9.22c-.6 0-1.16-.1-1.68-.3-.52-.2-.97-.52-1.34-.96-.38-.44-.67-1-.88-1.68a8.3 8.3 0 0 1-.32-2.46c0-.96.1-1.78.32-2.46.21-.68.5-1.24.88-1.68.37-.44.82-.76 1.34-.96.52-.2 1.08-.3 1.68-.3.6 0 1.16.1 1.68.3.52.2.97.52 1.34.96.37.44.66 1 .88 1.68.21.68.32 1.5.32 2.46s-.1 1.78-.32 2.46c-.22.68-.5 1.24-.88 1.68-.38.44-.82.76-1.34.96-.52.2-1.08.3-1.68.3Zm0-1.36c.82 0 1.46-.25 1.9-.74.45-.5.68-1.25.68-2.26v-2.08c0-1.01-.23-1.77-.68-2.26-.44-.5-1.08-.74-1.9-.74-.83 0-1.47.25-1.92.74-.44.5-.66 1.25-.66 2.26v2.08c0 1.01.22 1.77.66 2.26.45.5 1.1.74 1.92.74Zm6.56 1.12v-10.32h1.52v1.92h.2c.17-.6.46-1.07.88-1.4.42-.35.98-.52 1.66-.52h.56v1.54h-1a2.7 2.7 0 0 0-1.7.48c-.4.32-.6.8-.6 1.44V253h-1.52Zm18.75 1.16c0 1.1-.37 1.88-1.12 2.36-.73.48-1.87.72-3.41.72-1.49 0-2.54-.22-3.18-.66a2.18 2.18 0 0 1-.95-1.9c0-.56.14-1 .42-1.32.29-.32.65-.52 1.09-.6v-.28a1.88 1.88 0 0 1-.64-.56 1.58 1.58 0 0 1-.23-.84c0-.43.13-.8.37-1.1.25-.3.65-.5 1.22-.56v-.22a3 3 0 0 1-1.26-1.18c-.3-.53-.45-1.2-.45-2 0-1.17.33-2.06.97-2.66.63-.6 1.5-.9 2.58-.9.63 0 1.21.11 1.74.34v-.36c0-.39.08-.67.25-.84.18-.17.46-.26.84-.26h1.38v1.34h-1.77v.56c.34.3.6.69.8 1.14.2.45.3 1 .3 1.64 0 1.17-.33 2.06-.97 2.66-.63.6-1.5.9-2.57.9-.33 0-.65-.03-.99-.1a1.4 1.4 0 0 0-.86.46 1.1 1.1 0 0 0-.27.7c0 .27.09.47.27.6.2.13.5.2.92.2h2.26c1.17 0 2 .23 2.5.7.51.47.76 1.14.76 2.02Zm-1.41.1c0-.45-.14-.8-.42-1.04-.29-.23-.76-.34-1.45-.34h-3.13c-.31.15-.53.33-.66.56-.13.23-.19.51-.19.86 0 .52.17.93.49 1.22.32.3.83.46 1.53.46h1.33c.82 0 1.44-.14 1.86-.42.42-.27.63-.7.63-1.3Zm-3.18-5.92c.62 0 1.1-.16 1.45-.48.35-.32.52-.81.52-1.48v-.74c0-.67-.17-1.16-.51-1.48a2.07 2.07 0 0 0-1.46-.48 2.1 2.1 0 0 0-1.47.48c-.34.32-.51.81-.51 1.48v.74c0 .67.17 1.16.51 1.48.35.32.84.48 1.47.48Zm12.77 4.66c-.99 0-1.48-.5-1.48-1.48v-.2h-.2a2.6 2.6 0 0 1-.96 1.44c-.46.32-1 .48-1.64.48-1 0-1.75-.25-2.24-.76-.5-.5-.74-1.25-.74-2.24 0-.96.31-1.72.94-2.28.64-.56 1.63-.84 2.98-.84h1.86v-1.14c0-.76-.18-1.32-.52-1.68-.34-.36-.87-.54-1.6-.54-.6 0-1.09.13-1.46.4-.36.25-.68.63-.94 1.12l-.9-.84a3.69 3.69 0 0 1 3.36-1.98c1.17 0 2.06.29 2.66.86.61.56.92 1.4.92 2.5v5.84h1.04V253h-1.08Zm-3.9-1.08a2.63 2.63 0 0 0 1.74-.64c.21-.2.38-.42.5-.66.12-.25.18-.51.18-.78v-1.56h-1.9c-.8 0-1.39.13-1.76.4-.36.27-.54.65-.54 1.16v.56c0 .52.16.9.48 1.16.32.24.75.36 1.3.36Zm9.9 1.32a4.4 4.4 0 0 1-2.2-.52 4.79 4.79 0 0 1-1.53-1.44l1.05-.88c.37.5.75.9 1.17 1.16.42.27.93.4 1.51.4.6 0 1.08-.15 1.42-.44.37-.3.55-.74.55-1.3 0-.45-.12-.82-.35-1.1-.22-.28-.64-.47-1.25-.58l-.79-.14a4.6 4.6 0 0 1-2.23-.94c-.49-.44-.73-1.1-.73-2 0-.52.08-.97.25-1.34.15-.39.38-.7.67-.94.3-.25.64-.43 1.04-.54a4.9 4.9 0 0 1 1.35-.18 3.88 3.88 0 0 1 3.32 1.6l-.99.9c-.22-.32-.52-.6-.9-.84a2.52 2.52 0 0 0-1.44-.38c-1.2 0-1.81.55-1.81 1.66 0 .5.12.88.38 1.12.26.23.69.4 1.27.5l.78.14c1.06.19 1.8.51 2.25.98.44.47.65 1.1.65 1.9 0 1-.29 1.79-.88 2.36-.57.56-1.42.84-2.55.84Zm16.7-.24c-1 0-1.49-.5-1.49-1.48v-.2h-.2c-.17.63-.5 1.1-.96 1.44-.45.32-1 .48-1.64.48-1 0-1.75-.25-2.24-.76-.5-.5-.74-1.25-.74-2.24 0-.96.32-1.72.94-2.28.64-.56 1.63-.84 2.98-.84h1.86v-1.14c0-.76-.17-1.32-.52-1.68-.33-.36-.87-.54-1.6-.54-.6 0-1.09.13-1.46.4-.36.25-.67.63-.94 1.12l-.9-.84a3.7 3.7 0 0 1 3.36-1.98c1.17 0 2.06.29 2.66.86.62.56.92 1.4.92 2.5v5.84h1.04V253h-1.08Zm-3.9-1.08c.34 0 .66-.06.95-.18a2.22 2.22 0 0 0 1.28-1.12c.12-.25.18-.51.18-.78v-1.56h-1.9c-.8 0-1.38.13-1.76.4-.36.27-.54.65-.54 1.16v.56c0 .52.16.9.48 1.16.32.24.75.36 1.3.36Zm7.04 1.08v-10.32h1.52v1.68h.2c.2-.64.5-1.12.92-1.44.43-.32 1-.48 1.72-.48.92 0 1.64.31 2.16.94.53.63.8 1.6.8 2.9V253h-1.52v-6.62c0-.83-.17-1.46-.52-1.9-.33-.44-.85-.66-1.56-.66-.61 0-1.13.19-1.56.56-.43.37-.64.9-.64 1.58V253h-1.52Zm16.17-1.68h-.2c-.2.68-.52 1.17-.98 1.48-.44.3-.98.44-1.62.44a3.4 3.4 0 0 1-1.62-.38 3.36 3.36 0 0 1-1.18-1.08 5.07 5.07 0 0 1-.72-1.7 9.62 9.62 0 0 1-.24-2.24c0-.83.08-1.57.24-2.24.16-.67.4-1.23.72-1.7.32-.47.72-.83 1.18-1.08a3.4 3.4 0 0 1 1.62-.38 2.48 2.48 0 0 1 2.6 1.92h.2v-6.16h1.52V253h-1.52v-1.68Zm-2.34.56c.32 0 .62-.05.9-.14a2.08 2.08 0 0 0 1.24-1.02c.14-.24.2-.5.2-.8v-4.16c0-.3-.06-.56-.2-.8a2.08 2.08 0 0 0-1.24-1.02c-.28-.1-.58-.14-.9-.14-.84 0-1.48.27-1.92.8a3.3 3.3 0 0 0-.66 2.2v2.08c0 .95.22 1.69.66 2.22.44.52 1.08.78 1.92.78Zm14.55 1.36a3.8 3.8 0 0 1-3.02-1.26c-.72-.84-1.08-2.22-1.08-4.14 0-1.92.36-3.3 1.08-4.14a3.8 3.8 0 0 1 3.02-1.26 3.64 3.64 0 0 1 3.6 2.38l-1.26.64a2.4 2.4 0 0 0-.82-1.22 2.4 2.4 0 0 0-1.52-.44c-.84 0-1.46.25-1.86.74-.4.5-.6 1.25-.6 2.26v2.08c0 1.01.2 1.77.6 2.26.4.5 1.02.74 1.86.74.67 0 1.2-.15 1.6-.44.41-.3.74-.74.98-1.34l1.12.78a3.76 3.76 0 0 1-3.7 2.36Zm9.07 0c-.6 0-1.16-.1-1.68-.3-.52-.2-.97-.52-1.34-.96-.38-.44-.67-1-.88-1.68a8.26 8.26 0 0 1-.32-2.46c0-.96.1-1.78.32-2.46.2-.68.5-1.24.88-1.68.37-.44.82-.76 1.34-.96.52-.2 1.08-.3 1.68-.3.6 0 1.16.1 1.68.3.52.2.96.52 1.34.96.37.44.66 1 .88 1.68.2.68.32 1.5.32 2.46s-.11 1.78-.32 2.46a4.94 4.94 0 0 1-.88 1.68c-.38.44-.82.76-1.34.96-.52.2-1.08.3-1.68.3Zm0-1.36c.82 0 1.46-.25 1.9-.74.45-.5.68-1.25.68-2.26v-2.08c0-1.01-.23-1.77-.68-2.26-.44-.5-1.08-.74-1.9-.74-.83 0-1.47.25-1.92.74-.44.5-.66 1.25-.66 2.26v2.08c0 1.01.22 1.77.66 2.26.45.5 1.09.74 1.92.74Zm6.55 1.12v-10.32h1.52v1.68h.2a3 3 0 0 1 .88-1.44 2.5 2.5 0 0 1 1.64-.48c.64 0 1.18.16 1.62.48.46.3.8.79 1.02 1.44h.2c.22-.64.55-1.12 1-1.44a3.06 3.06 0 0 1 1.8-.48c.88 0 1.59.31 2.12.94.54.63.8 1.6.8 2.9V253h-1.52v-6.62a3.1 3.1 0 0 0-.5-1.9c-.32-.44-.82-.66-1.5-.66-.6 0-1.1.19-1.52.56-.4.37-.6.9-.6 1.58V253h-1.52v-6.62a3.1 3.1 0 0 0-.5-1.9c-.32-.44-.82-.66-1.5-.66-.6 0-1.1.19-1.52.56-.4.37-.6.9-.6 1.58V253h-1.52Zm15.75-10.32h1.52v1.68h.2c.2-.68.52-1.17.96-1.46a3.43 3.43 0 0 1 3.26-.08c.46.25.86.61 1.18 1.08.32.47.56 1.03.72 1.7.16.67.24 1.41.24 2.24 0 .83-.08 1.57-.24 2.24-.16.67-.4 1.23-.72 1.7-.32.47-.72.83-1.18 1.08a3.4 3.4 0 0 1-1.62.38c-.64 0-1.2-.15-1.64-.44a2.6 2.6 0 0 1-.96-1.48h-.2V257h-1.52v-14.32Zm3.86 9.2c.84 0 1.48-.26 1.92-.78.44-.53.66-1.27.66-2.22v-2.08a3.3 3.3 0 0 0-.66-2.2c-.44-.53-1.08-.8-1.92-.8a2.5 2.5 0 0 0-1.66.54 1.76 1.76 0 0 0-.68 1.42v4.16a1.76 1.76 0 0 0 .68 1.42c.2.17.46.3.74.4.29.1.6.14.92.14Zm12.32-.56h-.2c-.2.64-.5 1.12-.94 1.44-.4.32-.98.48-1.7.48-.92 0-1.64-.31-2.18-.94-.52-.63-.78-1.6-.78-2.9v-6.72h1.52v6.62c0 .83.17 1.46.5 1.9.35.44.88.66 1.58.66.62 0 1.14-.19 1.56-.56.43-.37.64-.9.64-1.58v-7.04h1.52V253h-1.52v-1.68Zm6.64 1.68c-.55 0-.95-.12-1.2-.36-.24-.25-.36-.65-.36-1.2v-7.42h-1.52v-1.34h.9c.3 0 .5-.07.6-.22.1-.16.16-.4.16-.7v-1.92h1.38v2.84h2v1.34h-2v7.64h1.9V253h-1.86Zm7.73.24c-.6 0-1.16-.1-1.68-.3-.52-.2-.97-.52-1.34-.96-.38-.44-.67-1-.88-1.68a8.3 8.3 0 0 1-.32-2.46c0-.96.1-1.78.32-2.46.21-.68.5-1.24.88-1.68.37-.44.82-.76 1.34-.96a4.64 4.64 0 0 1 3.32 0c.5.2.93.52 1.28.96.34.44.61 1 .8 1.68.2.68.3 1.5.3 2.46v.38h-6.62v.66c0 1.01.22 1.77.68 2.28.46.5 1.1.74 1.92.74a3 3 0 0 0 1.7-.44c.44-.3.78-.76 1.04-1.36l1.04.76c-.32.7-.8 1.28-1.42 1.72-.62.44-1.4.66-2.36.66Zm0-9.52a2.4 2.4 0 0 0-1.92.78c-.46.52-.68 1.29-.68 2.3v.26h5v-.26c0-2.05-.8-3.08-2.4-3.08Zm11.12.3h-1.5v-1.34h1.5v-2.52c0-.68.15-1.17.46-1.48.32-.32.82-.48 1.5-.48h1.54v1.34h-1.98v3.14h1.98v1.34h-1.98V253h-1.52v-8.98Zm8.8 9.22c-.6 0-1.16-.1-1.68-.3-.52-.2-.97-.52-1.34-.96-.37-.44-.67-1-.88-1.68a8.3 8.3 0 0 1-.32-2.46c0-.96.1-1.78.32-2.46.21-.68.5-1.24.88-1.68.37-.44.82-.76 1.34-.96a4.64 4.64 0 0 1 3.32 0c.5.2.93.52 1.28.96.35.44.61 1 .8 1.68.2.68.3 1.5.3 2.46v.38h-6.62v.66c0 1.01.23 1.77.68 2.28.47.5 1.1.74 1.92.74.7 0 1.26-.15 1.7-.44.44-.3.79-.76 1.04-1.36l1.04.76a3.94 3.94 0 0 1-3.78 2.38Zm0-9.52a2.4 2.4 0 0 0-1.92.78c-.45.52-.68 1.29-.68 2.3v.26h5v-.26c0-2.05-.8-3.08-2.4-3.08Zm9.9 9.52c-.6 0-1.16-.1-1.68-.3-.52-.2-.97-.52-1.34-.96-.37-.44-.66-1-.88-1.68a8.3 8.3 0 0 1-.32-2.46c0-.96.1-1.78.32-2.46.22-.68.5-1.24.88-1.68.38-.44.82-.76 1.34-.96a4.64 4.64 0 0 1 3.32 0c.5.2.93.52 1.28.96.35.44.62 1 .8 1.68.2.68.3 1.5.3 2.46v.38h-6.62v.66c0 1.01.23 1.77.68 2.28.47.5 1.1.74 1.92.74a3 3 0 0 0 1.7-.44c.44-.3.79-.76 1.04-1.36l1.04.76a3.94 3.94 0 0 1-3.78 2.38Zm0-9.52c-.82 0-1.46.26-1.92.78-.45.52-.68 1.29-.68 2.3v.26h5v-.26c0-2.05-.8-3.08-2.4-3.08Zm9.24 9.52a4.4 4.4 0 0 1-2.2-.52 4.79 4.79 0 0 1-1.54-1.44l1.06-.88c.36.5.75.9 1.16 1.16.43.27.94.4 1.52.4.6 0 1.08-.15 1.42-.44.36-.3.54-.74.54-1.3 0-.45-.11-.82-.34-1.1-.22-.28-.64-.47-1.26-.58l-.78-.14a4.6 4.6 0 0 1-2.24-.94c-.48-.44-.72-1.1-.72-2 0-.52.08-.97.24-1.34.16-.39.39-.7.68-.94.3-.25.64-.43 1.04-.54.42-.12.86-.18 1.34-.18a3.88 3.88 0 0 1 3.32 1.6l-.98.9c-.22-.32-.52-.6-.9-.84a2.52 2.52 0 0 0-1.44-.38c-1.21 0-1.82.55-1.82 1.66 0 .5.13.88.38 1.12.27.23.7.4 1.28.5l.78.14c1.06.19 1.8.51 2.24.98.44.47.66 1.1.66 1.9 0 1-.29 1.79-.88 2.36-.57.56-1.42.84-2.56.84Z"/>
  <rect width="222" height="111" x=".5" y="66.5" fill="#181D23" rx="15.5"/>
  <rect width="222" height="111" x=".5" y="66.5" stroke="#12B886" rx="15.5"/>
  <path fill="#fff" d="M37.45 97.08c0 1.23-.32 2.17-.98 2.84a4.26 4.26 0 0 1-2.72 1.14v1.58h-1.28v-1.6a5.36 5.36 0 0 1-3.86-2.22l1.1-1.02c.3.47.7.88 1.18 1.24a3.9 3.9 0 0 0 1.62.68V94.4a5.52 5.52 0 0 1-2.72-1.36 3.41 3.41 0 0 1-.82-2.42c0-1.08.32-1.93.96-2.54A4.15 4.15 0 0 1 32.47 87v-1.6h1.28V87a4.67 4.67 0 0 1 3.58 2.1l-1.12.86a3.79 3.79 0 0 0-.98-1.04c-.4-.3-.9-.5-1.52-.6v4.88c.64.16 1.2.35 1.66.58.48.21.88.48 1.18.8.3.3.54.67.68 1.08.15.4.22.87.22 1.42Zm-6.98-6.6c0 .72.17 1.26.5 1.62.35.36.86.63 1.54.8v-4.58a2.6 2.6 0 0 0-1.52.7c-.34.37-.52.86-.52 1.46Zm5.5 6.74c0-.68-.18-1.21-.54-1.6-.34-.4-.92-.71-1.72-.94v5.04a2.7 2.7 0 0 0 1.68-.76c.39-.43.58-1 .58-1.74Zm12.22 1.84H48c-.14.63-.5 1.15-1.08 1.56-.56.41-1.35.62-2.38.62-.76 0-1.45-.14-2.08-.42a4.21 4.21 0 0 1-1.6-1.32 6.72 6.72 0 0 1-1.04-2.24c-.24-.92-.36-2-.36-3.24 0-2.5.47-4.32 1.4-5.48a4.77 4.77 0 0 1 3.94-1.74 4.9 4.9 0 0 1 2.94.8 5.1 5.1 0 0 1 1.72 2.16l-1.32.8a3.66 3.66 0 0 0-1.22-1.72 3.42 3.42 0 0 0-2.12-.62c-1.16 0-2.05.39-2.68 1.16a4.7 4.7 0 0 0-.94 3.08v3.12c0 1.3.32 2.33.94 3.1a3.28 3.28 0 0 0 2.68 1.14c.46 0 .88-.07 1.28-.2a2.85 2.85 0 0 0 2.04-2.84v-1.52h-2.76v-1.4h4.32V101H48.2v-1.94Zm5.92-12.02v9.04c0 .63.05 1.17.14 1.64.11.47.28.86.5 1.18.23.3.53.54.9.7.39.15.86.22 1.4.22 1.1 0 1.86-.3 2.28-.92.44-.63.66-1.57.66-2.82v-9.04h1.6v8.72c0 .93-.08 1.75-.24 2.44a4.26 4.26 0 0 1-.78 1.7c-.34.45-.81.8-1.4 1.02-.57.21-1.28.32-2.12.32a6.3 6.3 0 0 1-2.14-.32 3.3 3.3 0 0 1-1.4-1.02 4.43 4.43 0 0 1-.76-1.7c-.16-.7-.24-1.5-.24-2.44v-8.72h1.6ZM66.44 101h-1.6V87.04h5.14c2.3 0 3.46 1.33 3.46 3.98 0 2.24-.83 3.53-2.48 3.88l2.82 6.1h-1.8l-2.62-6h-2.92v6Zm3.5-7.36c1.19 0 1.78-.64 1.78-1.92v-1.36c0-1.28-.6-1.92-1.78-1.92h-3.5v5.2h3.5Zm7.77-6.6v9.04c0 .63.04 1.17.14 1.64s.27.86.5 1.18c.22.3.52.54.9.7.38.15.85.22 1.4.22 1.09 0 1.85-.3 2.28-.92.44-.63.66-1.57.66-2.82v-9.04h1.6v8.72c0 .93-.08 1.75-.24 2.44a4.26 4.26 0 0 1-.78 1.7c-.35.45-.82.8-1.4 1.02-.58.21-1.28.32-2.12.32a6.3 6.3 0 0 1-2.14-.32 3.3 3.3 0 0 1-1.4-1.02 4.43 4.43 0 0 1-.76-1.7c-.16-.7-.24-1.5-.24-2.44v-8.72h1.6ZM94.6 101c-.54 0-.94-.12-1.2-.36-.24-.25-.36-.65-.36-1.2v-7.42h-1.52v-1.34h.9c.3 0 .5-.07.6-.22.1-.16.16-.4.16-.7v-1.92h1.38v2.84h2v1.34h-2v7.64h1.9V101H94.6Zm7.73.24c-.6 0-1.16-.1-1.68-.3-.52-.2-.97-.52-1.34-.96-.37-.44-.67-1-.88-1.68a8.28 8.28 0 0 1-.32-2.46c0-.96.1-1.78.32-2.46.21-.68.5-1.24.88-1.68.37-.44.82-.76 1.34-.96.52-.2 1.08-.3 1.68-.3.6 0 1.16.1 1.68.3.52.2.97.52 1.34.96.37.44.67 1 .88 1.68.21.68.32 1.5.32 2.46s-.1 1.78-.32 2.46c-.21.68-.5 1.24-.88 1.68-.37.44-.82.76-1.34.96-.52.2-1.08.3-1.68.3Zm0-1.36c.83 0 1.46-.25 1.9-.74.45-.5.68-1.25.68-2.26V94.8c0-1.01-.23-1.77-.68-2.26-.44-.5-1.07-.74-1.9-.74-.83 0-1.47.25-1.92.74-.44.5-.66 1.25-.66 2.26v2.08c0 1.01.22 1.77.66 2.26.45.5 1.1.74 1.92.74Zm6.56-13.68h1.52v7.6l-.12 2.02h.16l1.44-1.94 2.58-3.2h1.84l-3.42 4.1 3.72 6.22h-1.82l-3.02-5.32-1.36 1.6V101h-1.52V86.2Zm12.87 15.04c-.6 0-1.16-.1-1.68-.3-.52-.2-.96-.52-1.34-.96-.37-.44-.66-1-.88-1.68a8.3 8.3 0 0 1-.32-2.46c0-.96.11-1.78.32-2.46.22-.68.51-1.24.88-1.68.38-.44.82-.76 1.34-.96a4.64 4.64 0 0 1 3.32 0c.51.2.94.52 1.28.96.35.44.62 1 .8 1.68.2.68.3 1.5.3 2.46v.38h-6.62v.66c0 1.01.23 1.77.68 2.28.47.5 1.11.74 1.92.74a3 3 0 0 0 1.7-.44c.44-.3.8-.76 1.04-1.36l1.04.76a3.95 3.95 0 0 1-3.78 2.38Zm0-9.52c-.82 0-1.46.26-1.92.78-.45.52-.68 1.29-.68 2.3v.26h5v-.26c0-2.05-.8-3.08-2.4-3.08Zm6.39 9.28V90.68h1.52v1.68h.2c.2-.64.5-1.12.92-1.44.42-.32 1-.48 1.72-.48.92 0 1.64.31 2.16.94.53.63.8 1.6.8 2.9V101h-1.52v-6.62c0-.83-.18-1.46-.52-1.9-.34-.44-.86-.66-1.56-.66-.62 0-1.14.19-1.56.56-.43.37-.64.9-.64 1.58V101h-1.52Zm17.89.24a3.8 3.8 0 0 1-3.02-1.26c-.72-.84-1.08-2.22-1.08-4.14 0-1.92.36-3.3 1.08-4.14a3.8 3.8 0 0 1 3.02-1.26 3.64 3.64 0 0 1 3.6 2.38l-1.26.64a2.4 2.4 0 0 0-.82-1.22 2.4 2.4 0 0 0-1.52-.44c-.84 0-1.46.25-1.86.74-.4.5-.6 1.25-.6 2.26v2.08c0 1.01.2 1.77.6 2.26.4.5 1.02.74 1.86.74.67 0 1.2-.15 1.6-.44.41-.3.74-.74.98-1.34l1.12.78a3.76 3.76 0 0 1-3.7 2.36Zm5.68-.24V90.68h1.52v1.92h.2c.17-.6.47-1.07.88-1.4.43-.35.98-.52 1.66-.52h.56v1.54h-1a2.7 2.7 0 0 0-1.7.48c-.4.32-.6.8-.6 1.44V101h-1.52Zm12.34-1.68h-.2c-.2.64-.51 1.12-.94 1.44a2.7 2.7 0 0 1-1.7.48c-.92 0-1.64-.31-2.18-.94-.52-.63-.78-1.6-.78-2.9v-6.72h1.52v6.62c0 .83.17 1.46.5 1.9.35.44.88.66 1.58.66a2.3 2.3 0 0 0 1.56-.56c.43-.37.64-.9.64-1.58v-7.04h1.52V101h-1.52v-1.68Zm7.96 1.92a3.8 3.8 0 0 1-3.03-1.26c-.72-.84-1.07-2.22-1.07-4.14 0-1.92.35-3.3 1.07-4.14a3.8 3.8 0 0 1 3.03-1.26 3.64 3.64 0 0 1 3.6 2.38l-1.26.64a2.39 2.39 0 0 0-.83-1.22 2.4 2.4 0 0 0-1.51-.44c-.84 0-1.47.25-1.87.74-.4.5-.6 1.25-.6 2.26v2.08c0 1.01.2 1.77.6 2.26.4.5 1.03.74 1.87.74.66 0 1.2-.15 1.6-.44.4-.3.74-.74.97-1.34l1.13.78a3.9 3.9 0 0 1-1.4 1.72c-.62.43-1.39.64-2.3.64Zm6.44-13.06c-.63 0-.94-.27-.94-.82v-.32c0-.55.31-.82.94-.82.62 0 .94.27.94.82v.32c0 .55-.32.82-.94.82Zm-.76 2.5h1.52V101h-1.52V90.68ZM188.78 101c-.99 0-1.48-.5-1.48-1.48v-.2h-.2c-.17.63-.5 1.1-.96 1.44-.45.32-1 .48-1.64.48-1 0-1.75-.25-2.24-.76-.5-.5-.74-1.25-.74-2.24 0-.96.31-1.72.94-2.28.64-.56 1.63-.84 2.98-.84h1.86v-1.14c0-.76-.18-1.32-.52-1.68-.34-.36-.87-.54-1.6-.54-.6 0-1.09.13-1.46.4-.36.25-.68.63-.94 1.12l-.9-.84a3.7 3.7 0 0 1 3.36-1.98c1.17 0 2.06.29 2.66.86.61.56.92 1.4.92 2.5v5.84h1.04V101h-1.08Zm-3.9-1.08a2.72 2.72 0 0 0 1.74-.64c.21-.2.38-.42.5-.66.12-.25.18-.51.18-.78v-1.56h-1.9c-.8 0-1.39.13-1.76.4-.36.27-.54.65-.54 1.16v.56c0 .52.16.9.48 1.16.32.24.75.36 1.3.36Zm8.6 1.08c-.54 0-.94-.12-1.2-.36-.23-.25-.35-.65-.35-1.2V86.2h1.52v13.46h1.3V101h-1.26ZM29.74 120.02h-1.5v-1.34h1.5v-2.52c0-.68.15-1.17.46-1.48.32-.32.82-.48 1.5-.48h1.54v1.34h-1.98v3.14h1.98v1.34h-1.98V129h-1.52v-8.98Zm8.8 9.22c-.6 0-1.16-.1-1.68-.3-.52-.2-.96-.52-1.34-.96-.37-.44-.66-1-.88-1.68a8.28 8.28 0 0 1-.32-2.46c0-.96.1-1.78.32-2.46.22-.68.5-1.24.88-1.68.38-.44.82-.76 1.34-.96.52-.2 1.08-.3 1.68-.3.6 0 1.16.1 1.68.3.52.2.97.52 1.34.96.38.44.67 1 .88 1.68.22.68.32 1.5.32 2.46s-.1 1.78-.32 2.46c-.21.68-.5 1.24-.88 1.68-.37.44-.82.76-1.34.96-.52.2-1.08.3-1.68.3Zm0-1.36c.83 0 1.46-.25 1.9-.74.46-.5.68-1.25.68-2.26v-2.08c0-1.01-.22-1.77-.68-2.26-.44-.5-1.07-.74-1.9-.74a2.5 2.5 0 0 0-1.92.74c-.44.5-.66 1.25-.66 2.26v2.08c0 1.01.22 1.77.66 2.26.46.5 1.1.74 1.92.74ZM45.1 129v-10.32h1.52v1.92h.2c.17-.6.47-1.07.88-1.4.43-.35.98-.52 1.66-.52h.56v1.54h-1a2.7 2.7 0 0 0-1.7.48c-.4.32-.6.8-.6 1.44V129H45.1Zm14.4.24c-.6 0-1.16-.1-1.68-.3-.52-.2-.97-.52-1.34-.96-.37-.44-.67-1-.88-1.68a8.28 8.28 0 0 1-.32-2.46c0-.96.1-1.78.32-2.46.21-.68.5-1.24.88-1.68.37-.44.82-.76 1.34-.96.52-.2 1.08-.3 1.68-.3.6 0 1.16.1 1.68.3.52.2.97.52 1.34.96.37.44.67 1 .88 1.68.21.68.32 1.5.32 2.46s-.1 1.78-.32 2.46c-.21.68-.5 1.24-.88 1.68-.37.44-.82.76-1.34.96-.52.2-1.08.3-1.68.3Zm0-1.36c.83 0 1.46-.25 1.9-.74.45-.5.68-1.25.68-2.26v-2.08c0-1.01-.23-1.77-.68-2.26-.44-.5-1.07-.74-1.9-.74-.83 0-1.47.25-1.92.74-.44.5-.66 1.25-.66 2.26v2.08c0 1.01.22 1.77.66 2.26.45.5 1.1.74 1.92.74Zm6.56-9.2h1.52v1.68h.2c.2-.68.52-1.17.96-1.46a3.4 3.4 0 0 1 3.26-.08c.46.25.86.61 1.18 1.08.32.47.56 1.03.72 1.7.16.67.24 1.41.24 2.24 0 .83-.08 1.57-.24 2.24-.16.67-.4 1.23-.72 1.7-.32.47-.72.83-1.18 1.08-.47.25-1 .38-1.62.38-.64 0-1.19-.15-1.64-.44a2.6 2.6 0 0 1-.96-1.48h-.2V133h-1.52v-14.32Zm3.86 9.2c.84 0 1.48-.26 1.92-.78.44-.53.66-1.27.66-2.22v-2.08a3.3 3.3 0 0 0-.66-2.2c-.44-.53-1.08-.8-1.92-.8a2.5 2.5 0 0 0-1.66.54 1.76 1.76 0 0 0-.68 1.42v4.16a1.76 1.76 0 0 0 .68 1.42 2.5 2.5 0 0 0 1.66.54Zm10.15 1.36c-.6 0-1.16-.1-1.68-.3-.52-.2-.97-.52-1.34-.96-.38-.44-.67-1-.88-1.68a8.28 8.28 0 0 1-.32-2.46c0-.96.1-1.78.32-2.46.2-.68.5-1.24.88-1.68.37-.44.82-.76 1.34-.96a4.64 4.64 0 0 1 3.32 0c.5.2.93.52 1.28.96.34.44.6 1 .8 1.68.2.68.3 1.5.3 2.46v.38h-6.62v.66c0 1.01.22 1.77.68 2.28.46.5 1.1.74 1.92.74.69 0 1.26-.15 1.7-.44.44-.3.78-.76 1.04-1.36l1.04.76c-.32.7-.8 1.28-1.42 1.72-.62.44-1.4.66-2.36.66Zm0-9.52a2.4 2.4 0 0 0-1.92.78c-.46.52-.68 1.29-.68 2.3v.26h5v-.26c0-2.05-.8-3.08-2.4-3.08Zm6.38 9.28v-10.32h1.52v1.92h.2c.17-.6.46-1.07.88-1.4.42-.35.98-.52 1.66-.52h.56v1.54h-1a2.7 2.7 0 0 0-1.7.48c-.4.32-.6.8-.6 1.44V129h-1.52Zm13.02 0c-.98 0-1.48-.5-1.48-1.48v-.2h-.2c-.17.63-.5 1.1-.96 1.44-.45.32-1 .48-1.64.48-1 0-1.74-.25-2.24-.76-.5-.5-.74-1.25-.74-2.24 0-.96.32-1.72.94-2.28.64-.56 1.64-.84 2.98-.84h1.86v-1.14c0-.76-.17-1.32-.52-1.68-.33-.36-.86-.54-1.6-.54-.6 0-1.08.13-1.46.4-.36.25-.67.63-.94 1.12l-.9-.84a3.69 3.69 0 0 1 3.36-1.98c1.18 0 2.06.29 2.66.86.62.56.92 1.4.92 2.5v5.84h1.04V129h-1.08Zm-3.9-1.08c.35 0 .67-.06.96-.18a2.22 2.22 0 0 0 1.28-1.12c.12-.25.18-.51.18-.78v-1.56h-1.9c-.8 0-1.38.13-1.76.4-.36.27-.54.65-.54 1.16v.56c0 .52.16.9.48 1.16.32.24.76.36 1.3.36Zm9.11 1.08c-.55 0-.95-.12-1.2-.36-.24-.25-.36-.65-.36-1.2v-7.42h-1.52v-1.34h.9c.3 0 .5-.07.6-.22.1-.16.16-.4.16-.7v-1.92h1.38v2.84h2v1.34h-2v7.64h1.9V129h-1.86Zm5.05-12.82c-.63 0-.94-.27-.94-.82v-.32c0-.55.31-.82.94-.82.62 0 .94.27.94.82v.32c0 .55-.32.82-.94.82Zm-.76 2.5h1.52V129h-1.52v-10.32Zm8.07 10.56c-.6 0-1.16-.1-1.68-.3-.52-.2-.97-.52-1.34-.96-.38-.44-.67-1-.88-1.68a8.3 8.3 0 0 1-.32-2.46c0-.96.1-1.78.32-2.46.21-.68.5-1.24.88-1.68.37-.44.82-.76 1.34-.96.52-.2 1.08-.3 1.68-.3.6 0 1.16.1 1.68.3.52.2.97.52 1.34.96.37.44.67 1 .88 1.68.21.68.32 1.5.32 2.46s-.1 1.78-.32 2.46c-.22.68-.5 1.24-.88 1.68-.38.44-.82.76-1.34.96-.52.2-1.08.3-1.68.3Zm0-1.36c.83 0 1.46-.25 1.9-.74.45-.5.68-1.25.68-2.26v-2.08c0-1.01-.23-1.77-.68-2.26-.44-.5-1.08-.74-1.9-.74-.83 0-1.47.25-1.92.74-.44.5-.66 1.25-.66 2.26v2.08c0 1.01.22 1.77.66 2.26.45.5 1.1.74 1.92.74Zm6.56 1.12v-10.32h1.52v1.68h.2c.2-.64.5-1.12.92-1.44.42-.32 1-.48 1.72-.48.92 0 1.64.31 2.16.94.53.63.8 1.6.8 2.9V129h-1.52v-6.62c0-.83-.18-1.46-.52-1.9-.34-.44-.86-.66-1.56-.66-.62 0-1.14.19-1.56.56-.43.37-.64.9-.64 1.58V129h-1.52Zm13.11.24a4.4 4.4 0 0 1-2.2-.52 4.8 4.8 0 0 1-1.54-1.44l1.06-.88c.36.5.75.9 1.16 1.16.43.27.93.4 1.52.4.6 0 1.07-.15 1.42-.44.36-.3.54-.74.54-1.3 0-.45-.11-.82-.34-1.1-.23-.28-.65-.47-1.26-.58l-.78-.14a4.6 4.6 0 0 1-2.24-.94c-.48-.44-.72-1.1-.72-2 0-.52.08-.97.24-1.34.16-.39.39-.7.68-.94.3-.25.64-.43 1.04-.54a4.8 4.8 0 0 1 1.34-.18 3.86 3.86 0 0 1 3.32 1.6l-.98.9a3.2 3.2 0 0 0-.9-.84 2.51 2.51 0 0 0-1.44-.38c-1.21 0-1.82.55-1.82 1.66 0 .5.13.88.38 1.12.27.23.7.4 1.28.5l.78.14c1.05.19 1.8.51 2.24.98.44.47.66 1.1.66 1.9 0 1-.3 1.79-.88 2.36-.57.56-1.43.84-2.56.84Zm9.19-10.56h1.48l1 4.48.88 4.5h.2l1.02-4.5 1.04-4.48h1.76l1.04 4.48 1.02 4.5h.2l.88-4.5 1-4.48h1.44L156.37 129h-1.92l-1.26-5-.7-3.78h-.2l-.74 3.78-1.26 5h-1.92l-2.48-10.32Zm15.7-2.5c-.62 0-.94-.27-.94-.82v-.32c0-.55.32-.82.94-.82.63 0 .94.27.94.82v.32c0 .55-.31.82-.94.82Zm-.76 2.5h1.52V129h-1.52v-10.32Zm6.63 10.32c-.54 0-.94-.12-1.2-.36-.24-.25-.36-.65-.36-1.2v-7.42h-1.52v-1.34h.9c.31 0 .51-.07.6-.22.11-.16.16-.4.16-.7v-1.92h1.38v2.84h2v1.34h-2v7.64h1.9V129h-1.86Zm4.29-14.8h1.52v6.16h.2c.2-.64.5-1.12.92-1.44.43-.32 1-.48 1.72-.48.92 0 1.64.31 2.16.94.53.63.8 1.6.8 2.9V129h-1.52v-6.62c0-.83-.17-1.46-.52-1.9-.33-.44-.85-.66-1.56-.66-.61 0-1.13.19-1.56.56-.43.37-.64.9-.64 1.58V129h-1.52v-14.8Zm11.01 1.98c-.62 0-.94-.27-.94-.82v-.32c0-.55.32-.82.94-.82.63 0 .94.27.94.82v.32c0 .55-.3.82-.94.82Zm-.76 2.5h1.52V129H182v-10.32Zm4.56 10.32v-10.32h1.51v1.68h.2c.2-.64.51-1.12.92-1.44.43-.32 1-.48 1.72-.48.93 0 1.65.31 2.16.94.54.63.8 1.6.8 2.9V129h-1.52v-6.62c0-.83-.17-1.46-.51-1.9-.34-.44-.86-.66-1.56-.66-.62 0-1.14.19-1.56.56-.43.37-.65.9-.65 1.58V129h-1.51Zm-147.7 28c-.55 0-.95-.12-1.2-.36-.24-.25-.36-.65-.36-1.2v-7.42h-1.52v-1.34h.9c.3 0 .5-.07.6-.22.1-.16.16-.4.16-.7v-1.92h1.38v2.84h2v1.34h-2v7.64h1.9V157h-1.86Zm4.29-14.8h1.52v6.16h.2c.2-.64.5-1.12.92-1.44.42-.32 1-.48 1.72-.48.92 0 1.64.31 2.16.94.53.63.8 1.6.8 2.9V157h-1.52v-6.62c0-.83-.18-1.46-.52-1.9-.34-.44-.86-.66-1.56-.66-.62 0-1.14.19-1.56.56-.43.37-.64.9-.64 1.58V157h-1.52v-14.8Zm13.77 15.04c-.6 0-1.16-.1-1.68-.3-.52-.2-.97-.52-1.34-.96-.37-.44-.67-1-.88-1.68a8.28 8.28 0 0 1-.32-2.46c0-.96.1-1.78.32-2.46.21-.68.5-1.24.88-1.68.37-.44.82-.76 1.34-.96a4.64 4.64 0 0 1 3.32 0c.5.2.93.52 1.28.96.35.44.61 1 .8 1.68.2.68.3 1.5.3 2.46v.38h-6.62v.66c0 1.01.23 1.77.68 2.28.47.5 1.1.74 1.92.74.7 0 1.26-.15 1.7-.44.44-.3.79-.76 1.04-1.36l1.04.76a3.94 3.94 0 0 1-3.78 2.38Zm0-9.52a2.4 2.4 0 0 0-1.92.78c-.45.52-.68 1.29-.68 2.3v.26h5v-.26c0-2.05-.8-3.08-2.4-3.08Zm18.88 7.34h-.2a2.6 2.6 0 0 1-1.08 1.56c-.56.41-1.35.62-2.38.62-.76 0-1.45-.14-2.08-.42a4.21 4.21 0 0 1-1.6-1.32 6.72 6.72 0 0 1-1.04-2.24c-.24-.92-.36-2-.36-3.24 0-2.5.47-4.32 1.4-5.48a4.77 4.77 0 0 1 3.94-1.74c1.23 0 2.2.27 2.94.8.73.52 1.3 1.24 1.72 2.16l-1.32.8a3.66 3.66 0 0 0-1.22-1.72 3.42 3.42 0 0 0-2.12-.62c-1.16 0-2.05.39-2.68 1.16a4.7 4.7 0 0 0-.94 3.08v3.12c0 1.3.31 2.33.94 3.1a3.28 3.28 0 0 0 2.68 1.14c.45 0 .88-.07 1.28-.2a2.85 2.85 0 0 0 2.04-2.84v-1.52h-2.76v-1.4h4.32V157H75.8v-1.94Zm5.92-12.02v9.04c0 .63.05 1.17.14 1.64.1.47.27.86.5 1.18.23.3.53.54.9.7.39.15.85.22 1.4.22 1.1 0 1.85-.3 2.28-.92.44-.63.66-1.57.66-2.82v-9.04h1.6v8.72c0 .93-.08 1.75-.24 2.44a4.26 4.26 0 0 1-.78 1.7c-.35.45-.81.8-1.4 1.02-.57.21-1.28.32-2.12.32a6.3 6.3 0 0 1-2.14-.32 3.3 3.3 0 0 1-1.4-1.02 4.43 4.43 0 0 1-.76-1.7c-.16-.7-.24-1.5-.24-2.44v-8.72h1.6ZM94.05 157h-1.6v-13.96h5.14c2.3 0 3.46 1.33 3.46 3.98 0 2.24-.83 3.53-2.48 3.88l2.82 6.1h-1.8l-2.62-6h-2.92v6Zm3.5-7.36c1.18 0 1.78-.64 1.78-1.92v-1.36c0-1.28-.6-1.92-1.78-1.92h-3.5v5.2h3.5Zm7.76-6.6v9.04c0 .63.05 1.17.14 1.64.11.47.28.86.5 1.18.23.3.53.54.9.7.4.15.86.22 1.4.22 1.1 0 1.86-.3 2.28-.92.44-.63.66-1.57.66-2.82v-9.04h1.6v8.72c0 .93-.08 1.75-.24 2.44a4.26 4.26 0 0 1-.78 1.7c-.34.45-.8.8-1.4 1.02-.57.21-1.28.32-2.12.32a6.3 6.3 0 0 1-2.14-.32 3.3 3.3 0 0 1-1.4-1.02 4.44 4.44 0 0 1-.76-1.7c-.16-.7-.24-1.5-.24-2.44v-8.72h1.6Zm17.8 4.9-1.21-2.88h-.2l.14 2.88V157h-1.56v-13.96h1.96l4.64 9.06 1.22 2.88h.2l-.14-2.88v-9.06h1.56V157h-1.96l-4.64-9.06Zm13.28 9.3c-.6 0-1.16-.1-1.68-.3-.52-.2-.96-.52-1.34-.96-.37-.44-.66-1-.88-1.68a8.26 8.26 0 0 1-.32-2.46c0-.96.11-1.78.32-2.46.22-.68.51-1.24.88-1.68.38-.44.82-.76 1.34-.96a4.64 4.64 0 0 1 3.32 0c.51.2.94.52 1.28.96.35.44.62 1 .8 1.68.2.68.3 1.5.3 2.46v.38h-6.62v.66c0 1.01.23 1.77.68 2.28.47.5 1.11.74 1.92.74.7 0 1.26-.15 1.7-.44.44-.3.79-.76 1.04-1.36l1.04.76a3.95 3.95 0 0 1-3.78 2.38Zm0-9.52c-.82 0-1.46.26-1.92.78-.45.52-.68 1.29-.68 2.3v.26h5v-.26c0-2.05-.8-3.08-2.4-3.08Zm8.47 9.28c-.55 0-.95-.12-1.2-.36-.24-.25-.36-.65-.36-1.2v-7.42h-1.52v-1.34h.9c.3 0 .5-.07.6-.22.1-.16.16-.4.16-.7v-1.92h1.38v2.84h2v1.34h-2v7.64h1.9V157h-1.86Zm3.3-10.32h1.48l1 4.48.88 4.5h.2l1.02-4.5 1.04-4.48h1.76l1.04 4.48 1.02 4.5h.2l.88-4.5 1-4.48h1.44L158.64 157h-1.92l-1.26-5-.7-3.78h-.2l-.74 3.78-1.26 5h-1.92l-2.48-10.32Zm18.37 10.56c-.6 0-1.16-.1-1.68-.3-.52-.2-.97-.52-1.34-.96-.37-.44-.67-1-.88-1.68a8.3 8.3 0 0 1-.32-2.46c0-.96.1-1.78.32-2.46.21-.68.5-1.24.88-1.68.37-.44.82-.76 1.34-.96.52-.2 1.08-.3 1.68-.3.6 0 1.16.1 1.68.3.52.2.97.52 1.34.96.37.44.67 1 .88 1.68.21.68.32 1.5.32 2.46s-.1 1.78-.32 2.46c-.21.68-.5 1.24-.88 1.68-.37.44-.82.76-1.34.96-.52.2-1.08.3-1.68.3Zm0-1.36c.83 0 1.46-.25 1.9-.74.45-.5.68-1.25.68-2.26v-2.08c0-1.01-.23-1.77-.68-2.26-.44-.5-1.07-.74-1.9-.74-.83 0-1.47.25-1.92.74-.44.5-.66 1.25-.66 2.26v2.08c0 1.01.22 1.77.66 2.26.45.5 1.1.74 1.92.74Zm6.56 1.12v-10.32h1.52v1.92h.2c.17-.6.47-1.07.88-1.4.43-.35.98-.52 1.66-.52h.56v1.54h-1a2.7 2.7 0 0 0-1.7.48c-.4.32-.6.8-.6 1.44V157h-1.52Zm6.64-14.8h1.52v7.6l-.12 2.02h.16l1.44-1.94 2.58-3.2h1.84l-3.42 4.1 3.72 6.22h-1.82l-3.02-5.32-1.36 1.6V157h-1.52v-14.8Z"/>
  <rect width="283" height="55" x="263.5" y="66.5" fill="#181D23" rx="15.5"/>
  <rect width="283" height="55" x="263.5" y="66.5" stroke="#12B886" rx="15.5"/>
  <path fill="#fff" d="M293.18 88.44V101h-1.6V88.44h-3.94v-1.4h9.48v1.4h-3.94Zm4.97 12.56V90.68h1.52v1.92h.2c.17-.6.47-1.07.88-1.4.43-.35.98-.52 1.66-.52h.56v1.54h-1a2.7 2.7 0 0 0-1.7.48c-.4.32-.6.8-.6 1.44V101h-1.52Zm13.03 0c-1 0-1.49-.5-1.49-1.48v-.2h-.2c-.17.63-.49 1.1-.95 1.44-.46.32-1 .48-1.65.48-1 0-1.74-.25-2.24-.76-.49-.5-.73-1.25-.73-2.24 0-.96.3-1.72.94-2.28.63-.56 1.63-.84 2.97-.84h1.87v-1.14c0-.76-.18-1.32-.52-1.68-.34-.36-.87-.54-1.6-.54-.6 0-1.1.13-1.46.4-.37.25-.68.63-.94 1.12l-.9-.84a3.7 3.7 0 0 1 3.36-1.98c1.17 0 2.06.29 2.66.86.6.56.91 1.4.91 2.5v5.84h1.05V101h-1.08Zm-3.9-1.08a2.64 2.64 0 0 0 1.74-.64c.2-.2.38-.42.5-.66.12-.25.18-.51.18-.78v-1.56h-1.9c-.8 0-1.4.13-1.76.4-.37.27-.55.65-.55 1.16v.56c0 .52.16.9.49 1.16.31.24.75.36 1.3.36Zm7.04 1.08V90.68h1.52v1.68h.2c.2-.64.5-1.12.92-1.44.43-.32 1-.48 1.72-.48.92 0 1.64.31 2.16.94.54.63.8 1.6.8 2.9V101h-1.52v-6.62c0-.83-.17-1.46-.52-1.9-.33-.44-.85-.66-1.56-.66-.61 0-1.13.19-1.56.56a2 2 0 0 0-.64 1.58V101h-1.52Zm13.12.24a4.4 4.4 0 0 1-2.2-.52 4.79 4.79 0 0 1-1.54-1.44l1.06-.88c.36.5.74.9 1.16 1.16.42.27.93.4 1.52.4.6 0 1.07-.15 1.42-.44.36-.3.54-.74.54-1.3 0-.45-.12-.82-.34-1.1-.23-.28-.65-.47-1.26-.58l-.78-.14a4.6 4.6 0 0 1-2.24-.94c-.48-.44-.72-1.1-.72-2 0-.52.08-.97.24-1.34a2.58 2.58 0 0 1 1.72-1.48c.41-.12.86-.18 1.34-.18a3.88 3.88 0 0 1 3.32 1.6l-.98.9a3.3 3.3 0 0 0-.9-.84 2.52 2.52 0 0 0-1.44-.38c-1.22 0-1.82.55-1.82 1.66 0 .5.12.88.38 1.12.26.23.69.4 1.28.5l.78.14c1.05.19 1.8.51 2.24.98.44.47.66 1.1.66 1.9 0 1-.3 1.79-.88 2.36-.58.56-1.43.84-2.56.84Zm12.45-.24c-1 0-1.48-.5-1.48-1.48v-.2h-.2a2.6 2.6 0 0 1-.96 1.44c-.46.32-1 .48-1.64.48-1 0-1.75-.25-2.24-.76-.5-.5-.74-1.25-.74-2.24 0-.96.3-1.72.94-2.28.64-.56 1.63-.84 2.98-.84h1.86v-1.14c0-.76-.18-1.32-.52-1.68-.34-.36-.87-.54-1.6-.54-.6 0-1.1.13-1.46.4-.36.25-.68.63-.94 1.12l-.9-.84a3.7 3.7 0 0 1 3.36-1.98c1.17 0 2.06.29 2.66.86.6.56.92 1.4.92 2.5v5.84h1.04V101h-1.08Zm-3.9-1.08a2.64 2.64 0 0 0 1.74-.64c.2-.2.38-.42.5-.66.12-.25.18-.51.18-.78v-1.56h-1.9c-.8 0-1.4.13-1.76.4-.36.27-.54.65-.54 1.16v.56c0 .52.16.9.48 1.16.32.24.75.36 1.3.36Zm10.44 1.32a3.8 3.8 0 0 1-3.02-1.26c-.72-.84-1.08-2.22-1.08-4.14 0-1.92.36-3.3 1.08-4.14a3.8 3.8 0 0 1 3.02-1.26 3.64 3.64 0 0 1 3.6 2.38l-1.26.64a2.4 2.4 0 0 0-.82-1.22 2.4 2.4 0 0 0-1.52-.44c-.84 0-1.46.25-1.86.74-.4.5-.6 1.25-.6 2.26v2.08c0 1.01.2 1.77.6 2.26.4.5 1.02.74 1.86.74.67 0 1.2-.15 1.6-.44.42-.3.74-.74.98-1.34l1.12.78a3.76 3.76 0 0 1-3.7 2.36Zm7.77-.24c-.55 0-.95-.12-1.2-.36-.24-.25-.36-.65-.36-1.2v-7.42h-1.52v-1.34h.9c.3 0 .5-.07.6-.22.1-.16.16-.4.16-.7v-1.92h1.38v2.84h2v1.34h-2v7.64h1.9V101h-1.86Zm5.04-12.82c-.62 0-.94-.27-.94-.82v-.32c0-.55.32-.82.94-.82.63 0 .94.27.94.82v.32c0 .55-.31.82-.94.82Zm-.76 2.5H360V101h-1.52V90.68Zm8.07 10.56c-.6 0-1.16-.1-1.68-.3-.52-.2-.96-.52-1.34-.96-.37-.44-.66-1-.88-1.68a8.26 8.26 0 0 1-.32-2.46c0-.96.11-1.78.32-2.46.22-.68.51-1.24.88-1.68.38-.44.82-.76 1.34-.96.52-.2 1.08-.3 1.68-.3.6 0 1.16.1 1.68.3.52.2.97.52 1.34.96.38.44.67 1 .88 1.68.22.68.32 1.5.32 2.46s-.1 1.78-.32 2.46c-.21.68-.5 1.24-.88 1.68-.37.44-.82.76-1.34.96-.52.2-1.08.3-1.68.3Zm0-1.36c.83 0 1.46-.25 1.9-.74.46-.5.68-1.25.68-2.26V94.8c0-1.01-.22-1.77-.68-2.26-.44-.5-1.07-.74-1.9-.74a2.5 2.5 0 0 0-1.92.74c-.44.5-.66 1.25-.66 2.26v2.08c0 1.01.22 1.77.66 2.26.46.5 1.1.74 1.92.74Zm6.56 1.12V90.68h1.52v1.68h.2c.2-.64.5-1.12.92-1.44.43-.32 1-.48 1.72-.48.92 0 1.64.31 2.16.94.54.63.8 1.6.8 2.9V101h-1.52v-6.62c0-.83-.17-1.46-.52-1.9-.33-.44-.85-.66-1.56-.66-.61 0-1.13.19-1.56.56a2 2 0 0 0-.64 1.58V101h-1.52Zm21.01 0c-.98 0-1.48-.5-1.48-1.48v-.2h-.2a2.5 2.5 0 0 1-.96 1.44c-.45.32-1 .48-1.64.48-1 0-1.74-.25-2.24-.76-.49-.5-.74-1.25-.74-2.24 0-.96.32-1.72.94-2.28.64-.56 1.64-.84 2.98-.84h1.86v-1.14c0-.76-.17-1.32-.52-1.68-.33-.36-.86-.54-1.6-.54-.6 0-1.08.13-1.46.4-.36.25-.67.63-.94 1.12l-.9-.84a3.7 3.7 0 0 1 3.36-1.98c1.18 0 2.06.29 2.66.86.62.56.92 1.4.92 2.5v5.84h1.04V101h-1.08Zm-3.9-1.08c.35 0 .67-.06.96-.18a2.22 2.22 0 0 0 1.28-1.12c.12-.25.18-.51.18-.78v-1.56h-1.9c-.8 0-1.38.13-1.76.4-.36.27-.54.65-.54 1.16v.56c0 .52.16.9.48 1.16.32.24.76.36 1.3.36Zm7.05 1.08V90.68h1.52v1.68h.2c.2-.64.5-1.12.92-1.44.43-.32 1-.48 1.72-.48.92 0 1.64.31 2.16.94.53.63.8 1.6.8 2.9V101h-1.52v-6.62c0-.83-.17-1.46-.52-1.9-.33-.44-.85-.66-1.56-.66-.61 0-1.13.19-1.56.56-.43.37-.64.9-.64 1.58V101h-1.52Zm16.18-1.68h-.2c-.2.68-.53 1.17-.98 1.48-.44.3-.98.44-1.62.44-.62 0-1.16-.13-1.62-.38a3.36 3.36 0 0 1-1.18-1.08 5.07 5.07 0 0 1-.72-1.7 9.62 9.62 0 0 1-.24-2.24c0-.83.08-1.57.24-2.24.16-.67.4-1.23.72-1.7a3.2 3.2 0 0 1 2.8-1.46c.64 0 1.18.15 1.62.46.45.3.78.78.98 1.46h.2V86.2h1.52V101h-1.52v-1.68Zm-2.34.56c.32 0 .62-.05.9-.14a2.08 2.08 0 0 0 1.24-1.02c.13-.24.2-.5.2-.8v-4.16a1.87 1.87 0 0 0-.7-1.42 2.65 2.65 0 0 0-1.64-.54c-.84 0-1.48.27-1.92.8a3.3 3.3 0 0 0-.66 2.2v2.08c0 .95.22 1.69.66 2.22.44.52 1.08.78 1.92.78Zm14.84 1.36c-1 0-1.87-.2-2.62-.62a5.47 5.47 0 0 1-1.86-1.76l1.16-.96c.43.63.9 1.11 1.44 1.46.54.33 1.16.5 1.88.5 1.9 0 2.84-.89 2.84-2.66 0-.72-.17-1.27-.52-1.64a3.64 3.64 0 0 0-1.8-.88l-1.04-.26a5.78 5.78 0 0 1-2.72-1.34 3.5 3.5 0 0 1-.86-2.52c0-1.24.39-2.17 1.16-2.8.78-.64 1.8-.96 3.08-.96a5 5 0 0 1 2.44.54 4.8 4.8 0 0 1 1.74 1.7l-1.18.84a3.86 3.86 0 0 0-1.24-1.26 3.31 3.31 0 0 0-1.82-.44c-.85 0-1.5.19-1.96.56-.44.37-.66.98-.66 1.82 0 .68.18 1.2.54 1.54.38.35.97.62 1.78.82l1.04.26c.66.16 1.2.35 1.66.58.46.21.82.48 1.1.8.3.32.5.7.62 1.14.14.43.2.93.2 1.5 0 1.32-.4 2.33-1.18 3.02a4.71 4.71 0 0 1-3.22 1.02Zm10.33 0c-.6 0-1.16-.1-1.68-.3-.52-.2-.97-.52-1.34-.96-.37-.44-.67-1-.88-1.68a8.3 8.3 0 0 1-.32-2.46c0-.96.1-1.78.32-2.46.21-.68.5-1.24.88-1.68.37-.44.82-.76 1.34-.96a4.64 4.64 0 0 1 3.32 0c.5.2.93.52 1.28.96.35.44.61 1 .8 1.68.2.68.3 1.5.3 2.46v.38h-6.62v.66c0 1.01.23 1.77.68 2.28.47.5 1.1.74 1.92.74a3 3 0 0 0 1.7-.44c.44-.3.79-.76 1.04-1.36l1.04.76a3.94 3.94 0 0 1-3.78 2.38Zm0-9.52a2.4 2.4 0 0 0-1.92.78c-.45.52-.68 1.29-.68 2.3v.26h5v-.26c0-2.05-.8-3.08-2.4-3.08Zm6.38 9.28V90.68h1.52v1.92h.2c.18-.6.47-1.07.88-1.4.43-.35.98-.52 1.66-.52h.56v1.54h-1c-.72 0-1.28.16-1.7.48-.4.32-.6.8-.6 1.44V101h-1.52Zm8.98 0-3.24-10.32h1.52l1.58 5.2.96 3.78h.2l.96-3.78 1.58-5.2h1.48L453.44 101h-1.8Zm7.62-12.82c-.62 0-.94-.27-.94-.82v-.32c0-.55.32-.82.94-.82.63 0 .94.27.94.82v.32c0 .55-.31.82-.94.82Zm-.76 2.5h1.52V101h-1.52V90.68Zm7.95 10.56a3.8 3.8 0 0 1-3.02-1.26c-.72-.84-1.08-2.22-1.08-4.14 0-1.92.36-3.3 1.08-4.14a3.8 3.8 0 0 1 3.02-1.26 3.64 3.64 0 0 1 3.6 2.38l-1.26.64a2.39 2.39 0 0 0-.82-1.22 2.4 2.4 0 0 0-1.52-.44c-.84 0-1.46.25-1.86.74-.4.5-.6 1.25-.6 2.26v2.08c0 1.01.2 1.77.6 2.26.4.5 1.02.74 1.86.74.67 0 1.2-.15 1.6-.44.42-.3.74-.74.98-1.34l1.12.78a3.76 3.76 0 0 1-3.7 2.36Zm9.07 0c-.6 0-1.16-.1-1.68-.3-.52-.2-.97-.52-1.34-.96-.38-.44-.67-1-.88-1.68a8.26 8.26 0 0 1-.32-2.46c0-.96.1-1.78.32-2.46.21-.68.5-1.24.88-1.68.37-.44.82-.76 1.34-.96a4.64 4.64 0 0 1 3.32 0c.5.2.93.52 1.28.96.35.44.61 1 .8 1.68.2.68.3 1.5.3 2.46v.38h-6.62v.66c0 1.01.22 1.77.68 2.28.46.5 1.1.74 1.92.74a3 3 0 0 0 1.7-.44c.44-.3.78-.76 1.04-1.36l1.04.76c-.32.7-.8 1.28-1.42 1.72-.62.44-1.4.66-2.36.66Zm0-9.52a2.4 2.4 0 0 0-1.92.78c-.46.52-.68 1.29-.68 2.3v.26h5v-.26c0-2.05-.8-3.08-2.4-3.08Zm10.76 9.28V87.04h7.54v1.4h-5.94v4.8h5.4v1.4h-5.4V101h-1.6Zm12.95.24c-.6 0-1.16-.1-1.68-.3-.52-.2-.97-.52-1.34-.96-.37-.44-.67-1-.88-1.68a8.3 8.3 0 0 1-.32-2.46c0-.96.1-1.78.32-2.46.21-.68.5-1.24.88-1.68.37-.44.82-.76 1.34-.96a4.64 4.64 0 0 1 3.32 0c.5.2.93.52 1.28.96.35.44.61 1 .8 1.68.2.68.3 1.5.3 2.46v.38h-6.62v.66c0 1.01.23 1.77.68 2.28.47.5 1.1.74 1.92.74a3 3 0 0 0 1.7-.44c.44-.3.79-.76 1.04-1.36l1.04.76a3.94 3.94 0 0 1-3.78 2.38Zm0-9.52a2.4 2.4 0 0 0-1.92.78c-.45.52-.68 1.29-.68 2.3v.26h5v-.26c0-2.05-.8-3.08-2.4-3.08Zm9.9 9.52c-.6 0-1.16-.1-1.68-.3-.52-.2-.96-.52-1.34-.96-.37-.44-.67-1-.88-1.68a8.26 8.26 0 0 1-.32-2.46c0-.96.1-1.78.32-2.46.21-.68.5-1.24.88-1.68.38-.44.82-.76 1.34-.96a4.64 4.64 0 0 1 3.32 0c.5.2.94.52 1.28.96.35.44.62 1 .8 1.68.2.68.3 1.5.3 2.46v.38h-6.62v.66c0 1.01.23 1.77.68 2.28.47.5 1.1.74 1.92.74a3 3 0 0 0 1.7-.44c.44-.3.79-.76 1.04-1.36l1.04.76a3.94 3.94 0 0 1-3.78 2.38Zm0-9.52c-.82 0-1.46.26-1.92.78-.45.52-.68 1.29-.68 2.3v.26h5v-.26c0-2.05-.8-3.08-2.4-3.08Zm9.24 9.52a4.4 4.4 0 0 1-2.2-.52 4.8 4.8 0 0 1-1.54-1.44l1.06-.88c.36.5.75.9 1.16 1.16.43.27.94.4 1.52.4.6 0 1.08-.15 1.42-.44.36-.3.54-.74.54-1.3 0-.45-.1-.82-.34-1.1-.22-.28-.64-.47-1.26-.58l-.78-.14a4.6 4.6 0 0 1-2.24-.94c-.48-.44-.72-1.1-.72-2 0-.52.08-.97.24-1.34a2.58 2.58 0 0 1 1.72-1.48c.42-.12.86-.18 1.34-.18a3.88 3.88 0 0 1 3.32 1.6l-.98.9c-.22-.32-.52-.6-.9-.84a2.51 2.51 0 0 0-1.44-.38c-1.2 0-1.82.55-1.82 1.66 0 .5.13.88.38 1.12.27.23.7.4 1.28.5l.78.14c1.06.19 1.8.51 2.24.98.44.47.66 1.1.66 1.9 0 1-.29 1.79-.88 2.36-.57.56-1.42.84-2.56.84Z"/>
  <rect width="276" height="55" x="587.5" y="66.5" fill="#181D23" rx="15.5"/>
  <rect width="276" height="55" x="587.5" y="66.5" stroke="#12B886" rx="15.5"/>
  <path fill="#fff" d="m620.85 101-1.24-4.18h-5.02l-1.24 4.18h-1.6l4.36-13.96h2l4.38 13.96h-1.64Zm-3.22-10.8-.44-1.74h-.2l-.44 1.74-1.58 5.3h4.28l-1.62-5.3Zm6.34 10.8v-1.32h1.76V88.36h-1.76v-1.32h5.12v1.32h-1.76v11.32h1.76V101h-5.12Zm13.59-13.96v9.04c0 .63.04 1.17.14 1.64s.27.86.5 1.18c.22.3.52.54.9.7.38.15.85.22 1.4.22 1.09 0 1.85-.3 2.28-.92.44-.63.66-1.57.66-2.82v-9.04h1.6v8.72c0 .93-.08 1.75-.24 2.44a4.26 4.26 0 0 1-.78 1.7c-.35.45-.82.8-1.4 1.02-.58.21-1.28.32-2.12.32a6.3 6.3 0 0 1-2.14-.32 3.3 3.3 0 0 1-1.4-1.02 4.44 4.44 0 0 1-.76-1.7c-.16-.7-.24-1.5-.24-2.44v-8.72h1.6Zm13.44 14.2a4.4 4.4 0 0 1-2.2-.52 4.8 4.8 0 0 1-1.54-1.44l1.06-.88c.36.5.75.9 1.16 1.16.43.27.94.4 1.52.4.6 0 1.08-.15 1.42-.44.36-.3.54-.74.54-1.3 0-.45-.11-.82-.34-1.1-.22-.28-.64-.47-1.26-.58l-.78-.14a4.6 4.6 0 0 1-2.24-.94c-.48-.44-.72-1.1-.72-2 0-.52.08-.97.24-1.34a2.58 2.58 0 0 1 1.72-1.48c.42-.12.86-.18 1.34-.18a3.88 3.88 0 0 1 3.32 1.6l-.98.9c-.22-.32-.52-.6-.9-.84a2.51 2.51 0 0 0-1.44-.38c-1.21 0-1.82.55-1.82 1.66 0 .5.13.88.38 1.12.27.23.7.4 1.28.5l.78.14c1.06.19 1.8.51 2.24.98.44.47.66 1.1.66 1.9 0 1-.29 1.79-.88 2.36-.57.56-1.42.84-2.56.84Zm12.45-.24c-.99 0-1.48-.5-1.48-1.48v-.2h-.2c-.17.63-.5 1.1-.96 1.44-.45.32-1 .48-1.64.48-1 0-1.75-.25-2.24-.76-.5-.5-.74-1.25-.74-2.24 0-.96.31-1.72.94-2.28.64-.56 1.63-.84 2.98-.84h1.86v-1.14c0-.76-.17-1.32-.52-1.68-.33-.36-.87-.54-1.6-.54-.6 0-1.09.13-1.46.4-.36.25-.67.63-.94 1.12l-.9-.84a3.7 3.7 0 0 1 3.36-1.98c1.17 0 2.06.29 2.66.86.61.56.92 1.4.92 2.5v5.84h1.04V101h-1.08Zm-3.9-1.08c.35 0 .67-.06.96-.18a2.22 2.22 0 0 0 1.28-1.12c.12-.25.18-.51.18-.78v-1.56h-1.9c-.8 0-1.39.13-1.76.4-.36.27-.54.65-.54 1.16v.56c0 .52.16.9.48 1.16.32.24.75.36 1.3.36Zm14.93 2.24c0 1.1-.37 1.88-1.12 2.36-.73.48-1.87.72-3.42.72-1.48 0-2.54-.22-3.18-.66a2.18 2.18 0 0 1-.94-1.9c0-.56.14-1 .42-1.32.28-.32.64-.52 1.08-.6v-.28a1.87 1.87 0 0 1-.64-.56 1.58 1.58 0 0 1-.22-.84c0-.43.12-.8.36-1.1.25-.3.66-.5 1.22-.56v-.22a3 3 0 0 1-1.26-1.18c-.3-.53-.44-1.2-.44-2 0-1.17.32-2.06.96-2.66.64-.6 1.5-.9 2.58-.9.64 0 1.22.11 1.74.34v-.36c0-.39.09-.67.26-.84.17-.17.45-.26.84-.26h1.38v1.34h-1.78v.56c.35.3.61.69.8 1.14.2.45.3 1 .3 1.64 0 1.17-.32 2.06-.96 2.66-.64.6-1.5.9-2.58.9-.32 0-.65-.03-.98-.1a1.4 1.4 0 0 0-.86.46 1.1 1.1 0 0 0-.28.7c0 .27.1.47.28.6.19.13.5.2.92.2h2.26c1.16 0 2 .23 2.5.7s.76 1.14.76 2.02Zm-1.42.1c0-.45-.14-.8-.42-1.04-.28-.23-.76-.34-1.44-.34h-3.14c-.3.15-.53.33-.66.56-.12.23-.18.51-.18.86 0 .52.16.93.48 1.22.32.3.83.46 1.54.46h1.32c.83 0 1.45-.14 1.86-.42.43-.27.64-.7.64-1.3Zm-3.18-5.92c.63 0 1.11-.16 1.46-.48.35-.32.52-.81.52-1.48v-.74c0-.67-.17-1.16-.52-1.48a2.07 2.07 0 0 0-1.46-.48c-.63 0-1.11.16-1.46.48-.35.32-.52.81-.52 1.48v.74c0 .67.17 1.16.52 1.48.35.32.83.48 1.46.48Zm9.67 4.9c-.6 0-1.16-.1-1.68-.3-.52-.2-.96-.52-1.34-.96-.37-.44-.66-1-.88-1.68a8.26 8.26 0 0 1-.32-2.46c0-.96.11-1.78.32-2.46.22-.68.51-1.24.88-1.68.38-.44.82-.76 1.34-.96a4.64 4.64 0 0 1 3.32 0c.51.2.94.52 1.28.96.35.44.62 1 .8 1.68.2.68.3 1.5.3 2.46v.38h-6.62v.66c0 1.01.23 1.77.68 2.28.47.5 1.11.74 1.92.74a3 3 0 0 0 1.7-.44c.44-.3.79-.76 1.04-1.36l1.04.76a3.95 3.95 0 0 1-3.78 2.38Zm0-9.52c-.82 0-1.46.26-1.92.78-.45.52-.68 1.29-.68 2.3v.26h5v-.26c0-2.05-.8-3.08-2.4-3.08ZM696.7 101c-.98 0-1.48-.5-1.48-1.48v-.2h-.2a2.5 2.5 0 0 1-.96 1.44c-.45.32-1 .48-1.64.48-1 0-1.74-.25-2.24-.76-.49-.5-.74-1.25-.74-2.24 0-.96.32-1.72.94-2.28.64-.56 1.64-.84 2.98-.84h1.86v-1.14c0-.76-.17-1.32-.52-1.68-.33-.36-.86-.54-1.6-.54-.6 0-1.08.13-1.46.4-.36.25-.67.63-.94 1.12l-.9-.84a3.7 3.7 0 0 1 3.36-1.98c1.18 0 2.06.29 2.66.86.62.56.92 1.4.92 2.5v5.84h1.04V101h-1.08Zm-3.9-1.08c.35 0 .67-.06.96-.18a2.22 2.22 0 0 0 1.28-1.12c.12-.25.18-.51.18-.78v-1.56h-1.9c-.8 0-1.38.13-1.76.4-.36.27-.54.65-.54 1.16v.56c0 .52.16.9.48 1.16.32.24.76.36 1.3.36Zm7.05 1.08V90.68h1.52v1.68h.2c.2-.64.5-1.12.92-1.44.43-.32 1-.48 1.72-.48.92 0 1.64.31 2.16.94.54.63.8 1.6.8 2.9V101h-1.52v-6.62c0-.83-.17-1.46-.52-1.9-.33-.44-.85-.66-1.56-.66-.61 0-1.13.19-1.56.56a2 2 0 0 0-.64 1.58V101h-1.52Zm16.18-1.68h-.2c-.2.68-.53 1.17-.98 1.48-.44.3-.98.44-1.62.44-.62 0-1.16-.13-1.62-.38a3.37 3.37 0 0 1-1.18-1.08 5.07 5.07 0 0 1-.72-1.7 9.62 9.62 0 0 1-.24-2.24c0-.83.08-1.57.24-2.24.16-.67.4-1.23.72-1.7a3.28 3.28 0 0 1 2.8-1.46 2.48 2.48 0 0 1 2.6 1.92h.2V86.2h1.52V101h-1.52v-1.68Zm-2.34.56c.32 0 .62-.05.9-.14a2.07 2.07 0 0 0 1.24-1.02c.13-.24.2-.5.2-.8v-4.16a1.86 1.86 0 0 0-.7-1.42 2.65 2.65 0 0 0-1.64-.54c-.84 0-1.48.27-1.92.8a3.3 3.3 0 0 0-.66 2.2v2.08c0 .95.22 1.69.66 2.22.44.52 1.08.78 1.92.78Zm15.72 1.36c-.78 0-1.5-.14-2.12-.42a4.21 4.21 0 0 1-1.6-1.32 6.69 6.69 0 0 1-1-2.24c-.22-.92-.34-2-.34-3.24 0-1.24.12-2.31.34-3.22.24-.92.58-1.67 1-2.26.44-.59.98-1.02 1.6-1.3.63-.3 1.34-.44 2.12-.44 1.15 0 2.07.25 2.76.74a4.7 4.7 0 0 1 1.64 2.22l-1.28.78a3.6 3.6 0 0 0-1.1-1.72c-.46-.4-1.14-.6-2.02-.6-1.06 0-1.9.39-2.48 1.16a5 5 0 0 0-.86 3.08v3.12c0 1.3.29 2.33.86 3.1a2.95 2.95 0 0 0 2.48 1.14c.9 0 1.6-.2 2.1-.62.5-.43.87-1.04 1.12-1.84l1.28.8a5.1 5.1 0 0 1-1.7 2.3c-.72.52-1.65.78-2.8.78Zm10.15 0c-.6 0-1.16-.1-1.68-.3-.52-.2-.96-.52-1.34-.96-.37-.44-.66-1-.88-1.68a8.26 8.26 0 0 1-.32-2.46c0-.96.11-1.78.32-2.46.22-.68.51-1.24.88-1.68.38-.44.82-.76 1.34-.96.52-.2 1.08-.3 1.68-.3.6 0 1.16.1 1.68.3.52.2.97.52 1.34.96.38.44.67 1 .88 1.68.22.68.32 1.5.32 2.46s-.1 1.78-.32 2.46c-.21.68-.5 1.24-.88 1.68-.37.44-.82.76-1.34.96-.52.2-1.08.3-1.68.3Zm0-1.36c.83 0 1.46-.25 1.9-.74.46-.5.68-1.25.68-2.26V94.8c0-1.01-.22-1.77-.68-2.26-.44-.5-1.07-.74-1.9-.74a2.5 2.5 0 0 0-1.92.74c-.44.5-.66 1.25-.66 2.26v2.08c0 1.01.22 1.77.66 2.26.46.5 1.1.74 1.92.74Zm6.56 1.12V90.68h1.52v1.68h.2a3 3 0 0 1 .88-1.44 2.5 2.5 0 0 1 1.64-.48c.64 0 1.18.16 1.62.48.45.3.8.79 1.02 1.44h.2c.21-.64.55-1.12 1-1.44a3.06 3.06 0 0 1 1.8-.48c.88 0 1.59.31 2.12.94.53.63.8 1.6.8 2.9V101h-1.52v-6.62a3.1 3.1 0 0 0-.5-1.9c-.32-.44-.82-.66-1.5-.66-.6 0-1.1.19-1.52.56-.4.37-.6.9-.6 1.58V101h-1.52v-6.62a3.1 3.1 0 0 0-.5-1.9c-.32-.44-.82-.66-1.5-.66-.6 0-1.1.19-1.52.56-.4.37-.6.9-.6 1.58V101h-1.52Zm15.74-10.32h1.52v1.68h.2c.2-.68.52-1.17.96-1.46.46-.3 1-.46 1.64-.46a3.28 3.28 0 0 1 2.8 1.46c.32.47.56 1.03.72 1.7.16.67.24 1.41.24 2.24 0 .83-.08 1.57-.24 2.24-.16.67-.4 1.23-.72 1.7a3.2 3.2 0 0 1-2.8 1.46 3 3 0 0 1-1.64-.44 2.6 2.6 0 0 1-.96-1.48h-.2V105h-1.52V90.68Zm3.86 9.2c.84 0 1.48-.26 1.92-.78a3.4 3.4 0 0 0 .66-2.22V94.8a3.3 3.3 0 0 0-.66-2.2c-.44-.53-1.08-.8-1.92-.8a2.63 2.63 0 0 0-1.66.54 1.74 1.74 0 0 0-.68 1.42v4.16a1.76 1.76 0 0 0 .68 1.42 2.63 2.63 0 0 0 1.66.54Zm12.33-.56h-.2c-.2.64-.51 1.12-.94 1.44a2.7 2.7 0 0 1-1.7.48c-.92 0-1.64-.31-2.18-.94-.52-.63-.78-1.6-.78-2.9v-6.72h1.52v6.62c0 .83.17 1.46.5 1.9.35.44.88.66 1.58.66.62 0 1.14-.19 1.56-.56.43-.37.64-.9.64-1.58v-7.04h1.52V101h-1.52v-1.68Zm6.64 1.68c-.55 0-.95-.12-1.2-.36-.24-.25-.36-.65-.36-1.2v-7.42h-1.52v-1.34h.9c.3 0 .5-.07.6-.22.1-.16.16-.4.16-.7v-1.92h1.38v2.84h2v1.34h-2v7.64h1.9V101h-1.86Zm7.73.24c-.6 0-1.16-.1-1.68-.3-.52-.2-.97-.52-1.35-.96-.37-.44-.66-1-.88-1.68a8.3 8.3 0 0 1-.32-2.46c0-.96.11-1.78.33-2.46.2-.68.5-1.24.88-1.68.37-.44.82-.76 1.34-.96a4.64 4.64 0 0 1 3.31 0c.51.2.94.52 1.29.96.34.44.6 1 .8 1.68.2.68.3 1.5.3 2.46v.38h-6.63v.66c0 1.01.23 1.77.69 2.28.46.5 1.1.74 1.91.74a3 3 0 0 0 1.7-.44c.44-.3.8-.76 1.04-1.36l1.04.76c-.31.7-.79 1.28-1.41 1.72-.62.44-1.4.66-2.37.66Zm0-9.52a2.4 2.4 0 0 0-1.92.78c-.46.52-.69 1.29-.69 2.3v.26h5v-.26c0-2.05-.8-3.08-2.4-3.08Zm10.76 9.28V87.04h7.54v1.4h-5.94v4.8h5.4v1.4h-5.4V101h-1.6Zm12.95.24c-.6 0-1.16-.1-1.68-.3-.52-.2-.97-.52-1.34-.96-.38-.44-.67-1-.88-1.68a8.3 8.3 0 0 1-.32-2.46c0-.96.1-1.78.32-2.46.21-.68.5-1.24.88-1.68.37-.44.82-.76 1.34-.96a4.64 4.64 0 0 1 3.32 0c.5.2.93.52 1.28.96.34.44.61 1 .8 1.68.2.68.3 1.5.3 2.46v.38h-6.62v.66c0 1.01.22 1.77.68 2.28.46.5 1.1.74 1.92.74a3 3 0 0 0 1.7-.44c.44-.3.78-.76 1.04-1.36l1.04.76c-.32.7-.8 1.28-1.42 1.72-.62.44-1.4.66-2.36.66Zm0-9.52a2.4 2.4 0 0 0-1.92.78c-.46.52-.68 1.29-.68 2.3v.26h5v-.26c0-2.05-.8-3.08-2.4-3.08Zm9.9 9.52c-.6 0-1.16-.1-1.68-.3-.52-.2-.97-.52-1.34-.96-.38-.44-.67-1-.88-1.68a8.26 8.26 0 0 1-.32-2.46c0-.96.1-1.78.32-2.46.21-.68.5-1.24.88-1.68.37-.44.82-.76 1.34-.96a4.64 4.64 0 0 1 3.32 0c.5.2.93.52 1.28.96.34.44.61 1 .8 1.68.2.68.3 1.5.3 2.46v.38h-6.62v.66c0 1.01.23 1.77.68 2.28.47.5 1.1.74 1.92.74a3 3 0 0 0 1.7-.44c.44-.3.78-.76 1.04-1.36l1.04.76c-.32.7-.8 1.28-1.42 1.72-.62.44-1.4.66-2.36.66Zm0-9.52a2.4 2.4 0 0 0-1.92.78c-.46.52-.68 1.29-.68 2.3v.26h5v-.26c0-2.05-.8-3.08-2.4-3.08Zm9.24 9.52a4.4 4.4 0 0 1-2.2-.52 4.8 4.8 0 0 1-1.54-1.44l1.06-.88c.36.5.75.9 1.16 1.16.43.27.93.4 1.52.4.6 0 1.07-.15 1.42-.44.36-.3.54-.74.54-1.3 0-.45-.11-.82-.34-1.1-.23-.28-.65-.47-1.26-.58l-.78-.14a4.6 4.6 0 0 1-2.24-.94c-.48-.44-.72-1.1-.72-2 0-.52.08-.97.24-1.34a2.58 2.58 0 0 1 1.72-1.48c.41-.12.86-.18 1.34-.18a3.88 3.88 0 0 1 3.32 1.6l-.98.9a3.3 3.3 0 0 0-.9-.84 2.51 2.51 0 0 0-1.44-.38c-1.21 0-1.82.55-1.82 1.66 0 .5.13.88.38 1.12.27.23.7.4 1.28.5l.78.14c1.05.19 1.8.51 2.24.98.44.47.66 1.1.66 1.9 0 1-.3 1.79-.88 2.36-.57.56-1.43.84-2.56.84Z"/>
  <rect width="232" height="55" x="904.5" y="66.5" fill="#181D23" rx="15.5"/>
  <rect width="232" height="55" x="904.5" y="66.5" stroke="#12B886" rx="15.5"/>
  <path fill="#fff" d="M930.03 101V87.04h7.54v1.4h-5.94v4.8h5.4v1.4h-5.4V101h-1.6Zm11.52 0c-.55 0-.95-.12-1.2-.36-.24-.25-.36-.65-.36-1.2V86.2h1.52v13.46h1.3V101h-1.26Zm6.9.24c-.6 0-1.16-.1-1.68-.3-.52-.2-.97-.52-1.34-.96-.37-.44-.67-1-.88-1.68a8.3 8.3 0 0 1-.32-2.46c0-.96.1-1.78.32-2.46.21-.68.5-1.24.88-1.68.37-.44.82-.76 1.34-.96.52-.2 1.08-.3 1.68-.3.6 0 1.16.1 1.68.3.52.2.97.52 1.34.96.37.44.67 1 .88 1.68.21.68.32 1.5.32 2.46s-.1 1.78-.32 2.46c-.21.68-.5 1.24-.88 1.68-.37.44-.82.76-1.34.96-.52.2-1.08.3-1.68.3Zm0-1.36c.83 0 1.46-.25 1.9-.74.45-.5.68-1.25.68-2.26V94.8c0-1.01-.23-1.77-.68-2.26-.44-.5-1.07-.74-1.9-.74-.83 0-1.47.25-1.92.74-.44.5-.66 1.25-.66 2.26v2.08c0 1.01.22 1.77.66 2.26.45.5 1.1.74 1.92.74Zm5.48-9.2h1.48l1 4.48.88 4.5h.2l1.02-4.5 1.04-4.48h1.76l1.04 4.48 1.02 4.5h.2l.88-4.5 1-4.48h1.44L964.41 101h-1.92l-1.26-5-.7-3.78h-.2L959.6 96l-1.26 5h-1.92l-2.48-10.32Zm19.8 10.56c-1.69 0-3-.58-3.94-1.74-.93-1.16-1.4-2.99-1.4-5.48 0-2.5.47-4.32 1.4-5.48a4.77 4.77 0 0 1 3.95-1.74c1.69 0 3 .58 3.93 1.74.94 1.16 1.4 2.99 1.4 5.48 0 2.5-.46 4.32-1.4 5.48a4.77 4.77 0 0 1-3.93 1.74Zm0-1.42c1.16 0 2.06-.38 2.68-1.14.63-.77.95-1.8.95-3.1v-3.12a4.7 4.7 0 0 0-.95-3.08 3.25 3.25 0 0 0-2.67-1.16c-1.16 0-2.06.39-2.69 1.16a4.7 4.7 0 0 0-.93 3.08v3.12c0 1.3.3 2.33.93 3.1a3.28 3.28 0 0 0 2.69 1.14Zm7.9 1.18V90.68h1.52v1.92h.2c.17-.6.47-1.07.88-1.4.43-.35.98-.52 1.66-.52h.56v1.54h-1a2.7 2.7 0 0 0-1.7.48c-.4.32-.6.8-.6 1.44V101h-1.52Zm10 .24a3.8 3.8 0 0 1-3.02-1.26c-.72-.84-1.08-2.22-1.08-4.14 0-1.92.36-3.3 1.08-4.14a3.8 3.8 0 0 1 3.02-1.26 3.64 3.64 0 0 1 3.6 2.38l-1.26.64a2.4 2.4 0 0 0-.82-1.22 2.4 2.4 0 0 0-1.52-.44c-.84 0-1.46.25-1.86.74-.4.5-.6 1.25-.6 2.26v2.08c0 1.01.2 1.77.6 2.26.4.5 1.02.74 1.86.74.67 0 1.2-.15 1.6-.44.41-.3.74-.74.98-1.34l1.12.78a3.76 3.76 0 0 1-3.7 2.36Zm5.68-15.04h1.52v6.16h.2c.2-.64.51-1.12.92-1.44.43-.32 1-.48 1.72-.48.92 0 1.64.31 2.16.94.54.63.8 1.6.8 2.9V101h-1.52v-6.62a3 3 0 0 0-.52-1.9c-.33-.44-.85-.66-1.56-.66-.61 0-1.13.19-1.56.56a2 2 0 0 0-.64 1.58V101h-1.52V86.2Zm13.78 15.04c-.6 0-1.16-.1-1.68-.3-.52-.2-.97-.52-1.34-.96-.38-.44-.67-1-.88-1.68a8.07 8.07 0 0 1-.32-2.46c0-.96.1-1.78.32-2.46.21-.68.5-1.24.88-1.68.37-.44.82-.76 1.34-.96a4.64 4.64 0 0 1 3.32 0c.5.2.93.52 1.28.96.34.44.61 1 .8 1.68.2.68.3 1.5.3 2.46v.38h-6.62v.66c0 1.01.22 1.77.68 2.28.46.5 1.1.74 1.92.74.69 0 1.26-.15 1.7-.44.44-.3.78-.76 1.04-1.36l1.04.76a4.2 4.2 0 0 1-1.42 1.72c-.62.44-1.4.66-2.36.66Zm0-9.52a2.4 2.4 0 0 0-1.92.78c-.46.52-.68 1.29-.68 2.3v.26h5v-.26c0-2.05-.8-3.08-2.4-3.08Zm9.24 9.52a4.4 4.4 0 0 1-2.2-.52 4.83 4.83 0 0 1-1.54-1.44l1.06-.88c.36.5.75.9 1.16 1.16.43.27.93.4 1.52.4.6 0 1.07-.15 1.42-.44.36-.3.54-.74.54-1.3 0-.45-.11-.82-.34-1.1-.23-.28-.65-.47-1.26-.58l-.78-.14c-1-.19-1.75-.5-2.24-.94-.48-.44-.72-1.1-.72-2 0-.52.08-.97.24-1.34a2.56 2.56 0 0 1 1.72-1.48c.41-.12.86-.18 1.34-.18a3.93 3.93 0 0 1 3.32 1.6l-.98.9a3.3 3.3 0 0 0-.9-.84 2.5 2.5 0 0 0-1.44-.38c-1.21 0-1.82.55-1.82 1.66 0 .5.13.88.38 1.12.27.23.69.4 1.28.5l.78.14c1.05.19 1.8.51 2.24.98.44.47.66 1.1.66 1.9 0 1-.29 1.79-.88 2.36-.57.56-1.43.84-2.56.84Zm7.97-.24c-.55 0-.95-.12-1.2-.36-.24-.25-.36-.65-.36-1.2v-7.42h-1.52v-1.34h.9c.31 0 .51-.07.6-.22.11-.16.16-.4.16-.7v-1.92h1.38v2.84h2v1.34h-2v7.64h1.9V101h-1.86Zm4.29 0V90.68h1.52v1.92h.2c.17-.6.46-1.07.88-1.4.42-.35.98-.52 1.66-.52h.56v1.54h-1a2.7 2.7 0 0 0-1.7.48c-.4.32-.6.8-.6 1.44V101h-1.52Zm13.02 0c-.99 0-1.48-.5-1.48-1.48v-.2h-.2a2.5 2.5 0 0 1-2.6 1.92c-1 0-1.75-.25-2.24-.76-.49-.5-.74-1.25-.74-2.24 0-.96.31-1.72.94-2.28.64-.56 1.63-.84 2.98-.84h1.86v-1.14c0-.76-.17-1.32-.52-1.68-.33-.36-.87-.54-1.6-.54-.6 0-1.09.13-1.46.4-.36.25-.67.63-.94 1.12l-.9-.84a3.7 3.7 0 0 1 3.36-1.98c1.17 0 2.06.29 2.66.86.61.56.92 1.4.92 2.5v5.84h1.04V101h-1.08Zm-3.9-1.08c.35 0 .67-.06.96-.18.31-.12.57-.27.78-.46.21-.2.38-.42.5-.66.12-.25.18-.51.18-.78v-1.56h-1.9c-.8 0-1.39.13-1.76.4-.36.27-.54.65-.54 1.16v.56c0 .52.16.9.48 1.16.32.24.75.36 1.3.36Zm9.11 1.08c-.55 0-.95-.12-1.2-.36-.24-.25-.36-.65-.36-1.2v-7.42h-1.52v-1.34h.9c.31 0 .51-.07.6-.22.11-.16.16-.4.16-.7v-1.92h1.38v2.84h2v1.34h-2v7.64h1.9V101h-1.86Zm7.73.24c-.6 0-1.16-.1-1.68-.3-.52-.2-.97-.52-1.34-.96-.38-.44-.67-1-.88-1.68a8.07 8.07 0 0 1-.32-2.46c0-.96.1-1.78.32-2.46.21-.68.5-1.24.88-1.68.37-.44.82-.76 1.34-.96.52-.2 1.08-.3 1.68-.3.6 0 1.16.1 1.68.3.52.2.96.52 1.34.96.37.44.66 1 .88 1.68.21.68.32 1.5.32 2.46a8.4 8.4 0 0 1-.32 2.46 4.94 4.94 0 0 1-.88 1.68c-.38.44-.82.76-1.34.96-.52.2-1.08.3-1.68.3Zm0-1.36c.82 0 1.46-.25 1.9-.74.45-.5.68-1.25.68-2.26V94.8c0-1.01-.23-1.77-.68-2.26-.44-.5-1.08-.74-1.9-.74-.83 0-1.47.25-1.92.74-.44.5-.66 1.25-.66 2.26v2.08c0 1.01.22 1.77.66 2.26.45.5 1.09.74 1.92.74Zm6.56 1.12V90.68h1.52v1.92h.2c.17-.6.46-1.07.88-1.4.42-.35.98-.52 1.66-.52h.56v1.54h-1a2.7 2.7 0 0 0-1.7.48c-.4.32-.6.8-.6 1.44V101h-1.52Zm11.01 0V87.04h7.54v1.4h-5.94v4.8h5.4v1.4h-5.4V101h-1.6Zm12.96.24c-.6 0-1.16-.1-1.68-.3-.52-.2-.97-.52-1.34-.96-.38-.44-.67-1-.88-1.68a8.07 8.07 0 0 1-.32-2.46c0-.96.1-1.78.32-2.46.21-.68.5-1.24.88-1.68.37-.44.82-.76 1.34-.96a4.64 4.64 0 0 1 3.32 0c.5.2.93.52 1.28.96.34.44.61 1 .8 1.68.2.68.3 1.5.3 2.46v.38h-6.62v.66c0 1.01.22 1.77.68 2.28.46.5 1.1.74 1.92.74.69 0 1.26-.15 1.7-.44.44-.3.78-.76 1.04-1.36l1.04.76a4.2 4.2 0 0 1-1.42 1.72c-.62.44-1.4.66-2.36.66Zm0-9.52a2.4 2.4 0 0 0-1.92.78c-.46.52-.68 1.29-.68 2.3v.26h5v-.26c0-2.05-.8-3.08-2.4-3.08Zm9.9 9.52c-.6 0-1.16-.1-1.68-.3-.52-.2-.97-.52-1.34-.96-.38-.44-.67-1-.88-1.68a8.07 8.07 0 0 1-.32-2.46c0-.96.1-1.78.32-2.46.21-.68.5-1.24.88-1.68.37-.44.82-.76 1.34-.96a4.64 4.64 0 0 1 3.32 0c.5.2.93.52 1.28.96.34.44.61 1 .8 1.68.2.68.3 1.5.3 2.46v.38h-6.62v.66c0 1.01.22 1.77.68 2.28.46.5 1.1.74 1.92.74.69 0 1.26-.15 1.7-.44.44-.3.78-.76 1.04-1.36l1.04.76a4.2 4.2 0 0 1-1.42 1.72c-.62.44-1.4.66-2.36.66Zm0-9.52a2.4 2.4 0 0 0-1.92.78c-.46.52-.68 1.29-.68 2.3v.26h5v-.26c0-2.05-.8-3.08-2.4-3.08Zm9.24 9.52a4.4 4.4 0 0 1-2.2-.52 4.83 4.83 0 0 1-1.54-1.44l1.06-.88c.36.5.75.9 1.16 1.16.43.27.93.4 1.52.4.6 0 1.07-.15 1.42-.44.36-.3.54-.74.54-1.3 0-.45-.11-.82-.34-1.1-.23-.28-.65-.47-1.26-.58l-.78-.14c-1-.19-1.75-.5-2.24-.94-.48-.44-.72-1.1-.72-2 0-.52.08-.97.24-1.34a2.56 2.56 0 0 1 1.72-1.48c.41-.12.86-.18 1.34-.18a3.93 3.93 0 0 1 3.32 1.6l-.98.9a3.3 3.3 0 0 0-.9-.84 2.5 2.5 0 0 0-1.44-.38c-1.21 0-1.82.55-1.82 1.66 0 .5.13.88.38 1.12.27.23.69.4 1.28.5l.78.14c1.05.19 1.8.51 2.24.98.44.47.66 1.1.66 1.9 0 1-.29 1.79-.88 2.36-.57.56-1.43.84-2.56.84Z"/>
  <rect width="266" height="111" x="887.5" y="190.5" fill="#181D23" rx="15.5"/>
  <rect width="266" height="111" x="887.5" y="190.5" stroke="#12B886" rx="15.5"/>
  <path fill="#fff" d="M927.18 211.04v9.04c0 .63.05 1.17.15 1.64.1.47.27.86.5 1.18.22.3.52.54.9.7.38.15.85.22 1.4.22 1.09 0 1.85-.3 2.27-.92.45-.63.67-1.57.67-2.82v-9.04h1.6v8.72c0 .93-.08 1.75-.25 2.44a4.26 4.26 0 0 1-.77 1.7c-.35.45-.82.8-1.4 1.02-.58.21-1.28.32-2.13.32a6.3 6.3 0 0 1-2.13-.32 3.3 3.3 0 0 1-1.4-1.02 4.44 4.44 0 0 1-.76-1.7c-.17-.7-.25-1.5-.25-2.44v-8.72h1.6Zm13.45 14.2a4.4 4.4 0 0 1-2.2-.52 4.8 4.8 0 0 1-1.54-1.44l1.06-.88c.36.5.75.9 1.16 1.16.43.27.93.4 1.52.4.6 0 1.08-.15 1.42-.44.36-.3.54-.74.54-1.3 0-.45-.11-.82-.34-1.1-.23-.28-.64-.47-1.26-.58l-.78-.14a4.6 4.6 0 0 1-2.24-.94c-.48-.44-.72-1.1-.72-2 0-.52.08-.97.24-1.34.16-.39.39-.7.68-.94.3-.25.64-.43 1.04-.54.41-.12.86-.18 1.34-.18a3.88 3.88 0 0 1 3.32 1.6l-.98.9c-.23-.32-.52-.6-.9-.84a2.51 2.51 0 0 0-1.44-.38c-1.21 0-1.82.55-1.82 1.66 0 .5.13.88.38 1.12.27.23.7.4 1.28.5l.78.14c1.06.19 1.8.51 2.24.98.44.47.66 1.1.66 1.9 0 1-.3 1.79-.88 2.36-.57.56-1.43.84-2.56.84Zm9.45 0c-.6 0-1.16-.1-1.68-.3-.52-.2-.97-.52-1.34-.96-.37-.44-.67-1-.88-1.68a8.3 8.3 0 0 1-.32-2.46c0-.96.1-1.78.32-2.46.21-.68.5-1.24.88-1.68.37-.44.82-.76 1.34-.96a4.64 4.64 0 0 1 3.32 0c.5.2.93.52 1.28.96.35.44.61 1 .8 1.68.2.68.3 1.5.3 2.46v.38h-6.62v.66c0 1.01.23 1.77.68 2.28.47.5 1.1.74 1.92.74.7 0 1.26-.15 1.7-.44.44-.3.79-.76 1.04-1.36l1.04.76a3.94 3.94 0 0 1-3.78 2.38Zm0-9.52a2.4 2.4 0 0 0-1.92.78c-.45.52-.68 1.29-.68 2.3v.26h5v-.26c0-2.05-.8-3.08-2.4-3.08Zm9.24 9.52a4.4 4.4 0 0 1-2.2-.52 4.8 4.8 0 0 1-1.54-1.44l1.06-.88c.36.5.75.9 1.16 1.16.43.27.94.4 1.52.4.6 0 1.08-.15 1.42-.44.36-.3.54-.74.54-1.3 0-.45-.11-.82-.34-1.1-.22-.28-.64-.47-1.26-.58l-.78-.14a4.6 4.6 0 0 1-2.24-.94c-.48-.44-.72-1.1-.72-2 0-.52.08-.97.24-1.34.16-.39.39-.7.68-.94.3-.25.64-.43 1.04-.54a4.8 4.8 0 0 1 1.34-.18 3.86 3.86 0 0 1 3.32 1.6l-.98.9a3.2 3.2 0 0 0-.9-.84 2.51 2.51 0 0 0-1.44-.38c-1.21 0-1.82.55-1.82 1.66 0 .5.13.88.38 1.12.27.23.7.4 1.28.5l.78.14c1.06.19 1.8.51 2.24.98.44.47.66 1.1.66 1.9 0 1-.29 1.79-.88 2.36-.57.56-1.42.84-2.56.84Zm18.45-4.16a3.9 3.9 0 0 1-.98 2.84 4.26 4.26 0 0 1-2.72 1.14v1.58h-1.28v-1.6a5.36 5.36 0 0 1-3.86-2.22l1.1-1.02c.3.47.7.88 1.18 1.24a3.9 3.9 0 0 0 1.62.68v-5.32a5.5 5.5 0 0 1-2.72-1.36 3.4 3.4 0 0 1-.82-2.42c0-1.08.32-1.93.96-2.54a4.15 4.15 0 0 1 2.54-1.08v-1.6h1.28v1.6c.84.08 1.55.3 2.14.68.59.36 1.07.83 1.44 1.42l-1.12.86a3.8 3.8 0 0 0-.98-1.04c-.4-.3-.9-.5-1.52-.6v4.88c.64.16 1.2.35 1.66.58.48.21.87.48 1.18.8.3.3.53.67.68 1.08.15.4.22.87.22 1.42Zm-6.98-6.6c0 .72.17 1.26.5 1.62.35.36.86.63 1.54.8v-4.58a2.6 2.6 0 0 0-1.52.7c-.35.37-.52.86-.52 1.46Zm5.5 6.74c0-.68-.18-1.21-.54-1.6a3.5 3.5 0 0 0-1.72-.94v5.04c.73-.1 1.3-.35 1.68-.76.39-.43.58-1 .58-1.74Zm12.22 1.84h-.2c-.14.63-.5 1.15-1.08 1.56-.56.41-1.35.62-2.38.62-.76 0-1.45-.14-2.08-.42a4.22 4.22 0 0 1-1.6-1.32 6.73 6.73 0 0 1-1.04-2.24c-.24-.92-.36-2-.36-3.24 0-2.5.47-4.32 1.4-5.48a4.77 4.77 0 0 1 3.94-1.74c1.23 0 2.2.27 2.94.8.74.52 1.3 1.24 1.72 2.16l-1.32.8a3.65 3.65 0 0 0-1.22-1.72 3.42 3.42 0 0 0-2.12-.62c-1.16 0-2.05.39-2.68 1.16a4.7 4.7 0 0 0-.94 3.08v3.12c0 1.3.32 2.33.94 3.1a3.28 3.28 0 0 0 2.68 1.14c.46 0 .88-.07 1.28-.2a2.84 2.84 0 0 0 2.04-2.84v-1.52h-2.76v-1.4H990V225h-1.48v-1.94Zm5.92-12.02v9.04c0 .63.05 1.17.14 1.64.1.47.27.86.5 1.18.23.3.53.54.9.7.39.15.86.22 1.4.22 1.1 0 1.86-.3 2.28-.92.44-.63.66-1.57.66-2.82v-9.04h1.6v8.72c0 .93-.08 1.75-.24 2.44a4.26 4.26 0 0 1-.78 1.7c-.35.45-.81.8-1.4 1.02-.57.21-1.28.32-2.12.32a6.3 6.3 0 0 1-2.14-.32 3.3 3.3 0 0 1-1.4-1.02 4.44 4.44 0 0 1-.76-1.7c-.16-.7-.24-1.5-.24-2.44v-8.72h1.6Zm12.33 13.96h-1.6v-13.96h5.14c2.3 0 3.46 1.33 3.46 3.98 0 2.24-.83 3.53-2.48 3.88l2.82 6.1h-1.8l-2.62-6h-2.92v6Zm3.5-7.36c1.18 0 1.78-.64 1.78-1.92v-1.36c0-1.28-.6-1.92-1.78-1.92h-3.5v5.2h3.5Zm7.77-6.6v9.04c0 .63.04 1.17.14 1.64s.27.86.5 1.18c.22.3.52.54.9.7.38.15.85.22 1.4.22 1.09 0 1.85-.3 2.28-.92.44-.63.66-1.57.66-2.82v-9.04h1.6v8.72c0 .93-.08 1.75-.24 2.44a4.26 4.26 0 0 1-.78 1.7c-.35.45-.82.8-1.4 1.02-.58.21-1.28.32-2.12.32a6.1 6.1 0 0 1-2.14-.32 3.26 3.26 0 0 1-1.4-1.02 4.38 4.38 0 0 1-.76-1.7c-.16-.7-.24-1.5-.24-2.44v-8.72h1.6Zm16.9 13.96c-.55 0-.95-.12-1.2-.36-.24-.25-.36-.65-.36-1.2v-7.42h-1.52v-1.34h.9c.31 0 .51-.07.6-.22.11-.16.16-.4.16-.7v-1.92h1.38v2.84h2v1.34h-2v7.64h1.9V225h-1.86Zm7.73.24c-.6 0-1.16-.1-1.68-.3-.52-.2-.97-.52-1.34-.96-.37-.44-.67-1-.88-1.68a8.4 8.4 0 0 1-.32-2.46c0-.96.11-1.78.32-2.46.21-.68.51-1.24.88-1.68.37-.44.82-.76 1.34-.96.52-.2 1.08-.3 1.68-.3.6 0 1.16.1 1.68.3.52.2.97.52 1.34.96.37.44.67 1 .88 1.68.21.68.32 1.5.32 2.46a8.4 8.4 0 0 1-.32 2.46 4.77 4.77 0 0 1-.88 1.68c-.37.44-.82.76-1.34.96-.52.2-1.08.3-1.68.3Zm0-1.36c.83 0 1.46-.25 1.9-.74.45-.5.68-1.25.68-2.26v-2.08c0-1.01-.23-1.77-.68-2.26-.44-.5-1.07-.74-1.9-.74-.83 0-1.47.25-1.92.74-.44.5-.66 1.25-.66 2.26v2.08c0 1.01.22 1.77.66 2.26.45.5 1.09.74 1.92.74Zm6.56-13.68h1.52v7.6l-.12 2.02h.16l1.44-1.94 2.58-3.2h1.84l-3.42 4.1 3.72 6.22h-1.82l-3.02-5.32-1.36 1.6V225h-1.52v-14.8Zm12.87 15.04c-.6 0-1.16-.1-1.68-.3-.52-.2-.96-.52-1.34-.96-.37-.44-.66-1-.88-1.68a8.4 8.4 0 0 1-.32-2.46c0-.96.11-1.78.32-2.46.22-.68.51-1.24.88-1.68.38-.44.82-.76 1.34-.96a4.64 4.64 0 0 1 3.32 0c.51.2.94.52 1.28.96.35.44.62 1 .8 1.68.2.68.3 1.5.3 2.46v.38h-6.62v.66c0 1.01.23 1.77.68 2.28.47.5 1.11.74 1.92.74a3 3 0 0 0 1.7-.44c.44-.3.79-.76 1.04-1.36l1.04.76a3.94 3.94 0 0 1-3.78 2.38Zm0-9.52c-.82 0-1.46.26-1.92.78-.45.52-.68 1.29-.68 2.3v.26h5v-.26c0-2.05-.8-3.08-2.4-3.08Zm6.39 9.28v-10.32h1.52v1.68h.2c.2-.64.5-1.12.92-1.44.42-.32 1-.48 1.72-.48.92 0 1.64.31 2.16.94.53.63.8 1.6.8 2.9V225h-1.52v-6.62c0-.83-.18-1.46-.52-1.9-.34-.44-.86-.66-1.56-.66-.62 0-1.14.19-1.56.56-.43.37-.64.9-.64 1.58V225h-1.52Zm13.11.24a4.4 4.4 0 0 1-2.2-.52 4.83 4.83 0 0 1-1.54-1.44l1.06-.88c.36.5.75.9 1.16 1.16.43.27.93.4 1.52.4.6 0 1.07-.15 1.42-.44.36-.3.54-.74.54-1.3 0-.45-.11-.82-.34-1.1-.23-.28-.65-.47-1.26-.58l-.78-.14c-1-.19-1.75-.5-2.24-.94-.48-.44-.72-1.1-.72-2 0-.52.08-.97.24-1.34a2.57 2.57 0 0 1 1.72-1.48c.41-.12.86-.18 1.34-.18a3.93 3.93 0 0 1 3.32 1.6l-.98.9a3.3 3.3 0 0 0-.9-.84 2.5 2.5 0 0 0-1.44-.38c-1.21 0-1.82.55-1.82 1.66 0 .5.13.88.38 1.12.27.23.69.4 1.28.5l.78.14c1.05.19 1.8.51 2.24.98.44.47.66 1.1.66 1.9 0 1-.29 1.79-.88 2.36-.57.56-1.43.84-2.56.84Zm10.67-9.22h-1.5v-1.34h1.5v-2.52c0-.68.15-1.17.46-1.48.32-.32.82-.48 1.5-.48h1.54v1.34h-1.98v3.14h1.98v1.34h-1.98V225h-1.52v-8.98Zm8.8 9.22c-.6 0-1.16-.1-1.68-.3-.52-.2-.97-.52-1.34-.96-.38-.44-.67-1-.88-1.68a8.07 8.07 0 0 1-.32-2.46c0-.96.1-1.78.32-2.46.21-.68.5-1.24.88-1.68.37-.44.82-.76 1.34-.96.52-.2 1.08-.3 1.68-.3.6 0 1.16.1 1.68.3.52.2.96.52 1.34.96.37.44.66 1 .88 1.68.21.68.32 1.5.32 2.46a8.4 8.4 0 0 1-.32 2.46 4.94 4.94 0 0 1-.88 1.68c-.38.44-.82.76-1.34.96-.52.2-1.08.3-1.68.3Zm0-1.36c.82 0 1.46-.25 1.9-.74.45-.5.68-1.25.68-2.26v-2.08c0-1.01-.23-1.77-.68-2.26-.44-.5-1.08-.74-1.9-.74-.83 0-1.47.25-1.92.74-.44.5-.66 1.25-.66 2.26v2.08c0 1.01.22 1.77.66 2.26.45.5 1.09.74 1.92.74Zm6.56 1.12v-10.32h1.52v1.92h.2c.17-.6.46-1.07.88-1.4.42-.35.98-.52 1.66-.52h.56v1.54h-1a2.7 2.7 0 0 0-1.7.48c-.4.32-.6.8-.6 1.44V225h-1.52Zm-187.74 28.24c-1.7 0-3-.58-3.94-1.74-.94-1.16-1.4-2.99-1.4-5.48 0-2.5.47-4.32 1.4-5.48a4.77 4.77 0 0 1 3.94-1.74c1.7 0 3 .58 3.94 1.74.93 1.16 1.4 2.99 1.4 5.48 0 2.5-.47 4.32-1.4 5.48a4.77 4.77 0 0 1-3.94 1.74Zm0-1.42c1.16 0 2.05-.38 2.68-1.14.63-.77.94-1.8.94-3.1v-3.12a4.7 4.7 0 0 0-.94-3.08 3.25 3.25 0 0 0-2.68-1.16c-1.16 0-2.05.39-2.68 1.16a4.7 4.7 0 0 0-.94 3.08v3.12c0 1.3.31 2.33.94 3.1a3.28 3.28 0 0 0 2.68 1.14Zm7.9 1.18v-10.32h1.51v1.68h.2c.2-.64.5-1.12.92-1.44.43-.32 1-.48 1.72-.48.92 0 1.64.31 2.16.94.54.63.8 1.6.8 2.9V253h-1.52v-6.62c0-.83-.17-1.46-.52-1.9-.33-.44-.85-.66-1.56-.66-.61 0-1.13.19-1.56.56a2 2 0 0 0-.64 1.58V253h-1.52Zm14.83.24c-.8 0-1.5-.14-2.12-.42a4.21 4.21 0 0 1-1.6-1.32 6.69 6.69 0 0 1-1-2.24c-.23-.92-.34-2-.34-3.24 0-1.24.1-2.31.34-3.22.24-.92.57-1.67 1-2.26a4 4 0 0 1 1.6-1.3c.62-.3 1.33-.44 2.12-.44 1.14 0 2.06.25 2.76.74a4.76 4.76 0 0 1 1.64 2.22l-1.28.78a3.6 3.6 0 0 0-1.1-1.72c-.47-.4-1.14-.6-2.02-.6-1.07 0-1.9.39-2.48 1.16a5 5 0 0 0-.86 3.08v3.12c0 1.3.28 2.33.86 3.1a2.95 2.95 0 0 0 2.48 1.14c.9 0 1.6-.2 2.1-.62.49-.43.86-1.04 1.12-1.84l1.28.8a5.1 5.1 0 0 1-1.7 2.3c-.72.52-1.66.78-2.8.78Zm6.63-15.04h1.52v6.16h.2c.2-.64.5-1.12.92-1.44.42-.32 1-.48 1.72-.48.92 0 1.64.31 2.16.94.53.63.8 1.6.8 2.9V253h-1.52v-6.62c0-.83-.18-1.46-.52-1.9-.34-.44-.86-.66-1.56-.66-.62 0-1.14.19-1.56.56-.43.37-.64.9-.64 1.58V253h-1.52v-14.8ZM966 253c-.99 0-1.48-.5-1.48-1.48v-.2h-.2c-.17.63-.5 1.1-.96 1.44-.45.32-1 .48-1.64.48-1 0-1.75-.25-2.24-.76-.5-.5-.74-1.25-.74-2.24 0-.96.31-1.72.94-2.28.64-.56 1.63-.84 2.98-.84h1.86v-1.14c0-.76-.17-1.32-.52-1.68-.33-.36-.87-.54-1.6-.54-.6 0-1.09.13-1.46.4-.36.25-.67.63-.94 1.12l-.9-.84a3.69 3.69 0 0 1 3.36-1.98c1.17 0 2.06.29 2.66.86.61.56.92 1.4.92 2.5v5.84h1.04V253H966Zm-3.9-1.08a2.63 2.63 0 0 0 1.74-.64c.21-.2.38-.42.5-.66.12-.25.18-.51.18-.78v-1.56h-1.9c-.8 0-1.39.13-1.76.4-.36.27-.54.65-.54 1.16v.56c0 .52.16.9.48 1.16.32.24.75.36 1.3.36Zm7.8-11.74c-.62 0-.93-.27-.93-.82v-.32c0-.55.31-.82.94-.82.63 0 .94.27.94.82v.32c0 .55-.32.82-.94.82Zm-.75 2.5h1.52V253h-1.52v-10.32ZM973.7 253v-10.32h1.52v1.68h.2c.2-.64.5-1.12.92-1.44.43-.32 1-.48 1.72-.48.92 0 1.64.31 2.16.94.53.63.8 1.6.8 2.9V253h-1.52v-6.62c0-.83-.17-1.46-.52-1.9-.33-.44-.85-.66-1.56-.66-.61 0-1.13.19-1.56.56-.43.37-.64.9-.64 1.58V253h-1.52Zm9.05 3.02 4.74-17.82h1.34l-4.74 17.82h-1.34Zm12.72-2.78c-1.69 0-3-.58-3.94-1.74-.93-1.16-1.4-2.99-1.4-5.48 0-2.5.47-4.32 1.4-5.48a4.77 4.77 0 0 1 3.94-1.74c1.7 0 3.01.58 3.94 1.74.94 1.16 1.4 2.99 1.4 5.48 0 2.5-.46 4.32-1.4 5.48a4.77 4.77 0 0 1-3.94 1.74Zm0-1.42c1.16 0 2.06-.38 2.68-1.14.63-.77.94-1.8.94-3.1v-3.12a4.7 4.7 0 0 0-.94-3.08 3.25 3.25 0 0 0-2.68-1.16c-1.16 0-2.05.39-2.68 1.16a4.7 4.7 0 0 0-.94 3.08v3.12c0 1.3.32 2.33.94 3.1a3.28 3.28 0 0 0 2.68 1.14Zm8.4-7.8h-1.5v-1.34h1.5v-2.52c0-.68.15-1.17.46-1.48.32-.32.82-.48 1.5-.48h1.54v1.34h-1.98v3.14h1.98v1.34h-1.98V253h-1.52v-8.98Zm5.88 0h-1.5v-1.34h1.5v-2.52c0-.68.15-1.17.46-1.48.32-.32.82-.48 1.5-.48h1.54v1.34h-1.98v3.14h1.98v1.34h-1.98V253h-1.52v-8.98Zm10.25 9.22c-.79 0-1.5-.14-2.12-.42a4.19 4.19 0 0 1-1.6-1.32 6.63 6.63 0 0 1-1-2.24c-.23-.92-.34-2-.34-3.24 0-1.24.11-2.31.34-3.22.24-.92.57-1.67 1-2.26a4 4 0 0 1 1.6-1.3c.62-.3 1.33-.44 2.12-.44a4.7 4.7 0 0 1 2.76.74 4.76 4.76 0 0 1 1.64 2.22l-1.28.78a3.65 3.65 0 0 0-1.1-1.72c-.47-.4-1.14-.6-2.02-.6-1.07 0-1.9.39-2.48 1.16a4.96 4.96 0 0 0-.86 3.08v3.12c0 1.3.28 2.33.86 3.1a2.94 2.94 0 0 0 2.48 1.14c.9 0 1.6-.2 2.1-.62.49-.43.86-1.04 1.12-1.84l1.28.8a5.1 5.1 0 0 1-1.7 2.3c-.72.52-1.66.78-2.8.78Zm6.63-15.04h1.52v6.16h.2c.2-.64.51-1.12.92-1.44.43-.32 1-.48 1.72-.48.92 0 1.64.31 2.16.94.53.63.8 1.6.8 2.9V253h-1.52v-6.62a3 3 0 0 0-.52-1.9c-.33-.44-.85-.66-1.56-.66a2.3 2.3 0 0 0-1.56.56c-.43.37-.64.9-.64 1.58V253h-1.52v-14.8Zm16.77 14.8c-.98 0-1.48-.5-1.48-1.48v-.2h-.2a2.5 2.5 0 0 1-2.6 1.92c-1 0-1.74-.25-2.24-.76-.49-.5-.74-1.25-.74-2.24 0-.96.32-1.72.94-2.28.64-.56 1.64-.84 2.98-.84h1.86v-1.14c0-.76-.17-1.32-.52-1.68-.33-.36-.86-.54-1.6-.54-.6 0-1.08.13-1.46.4-.36.25-.67.63-.94 1.12l-.9-.84a3.7 3.7 0 0 1 3.36-1.98c1.18 0 2.06.29 2.66.86.62.56.92 1.4.92 2.5v5.84h1.04V253h-1.08Zm-3.9-1.08c.35 0 .67-.06.96-.18a2.22 2.22 0 0 0 1.28-1.12c.12-.25.18-.51.18-.78v-1.56h-1.9c-.8 0-1.38.13-1.76.4-.36.27-.54.65-.54 1.16v.56c0 .52.16.9.48 1.16.32.24.76.36 1.3.36Zm7.81-11.74c-.63 0-.94-.27-.94-.82v-.32c0-.55.31-.82.94-.82.63 0 .94.27.94.82v.32c0 .55-.31.82-.94.82Zm-.76 2.5h1.52V253h-1.52v-10.32Zm4.55 10.32v-10.32h1.52v1.68h.2c.2-.64.51-1.12.92-1.44.43-.32 1-.48 1.72-.48.92 0 1.64.31 2.16.94.54.63.8 1.6.8 2.9V253h-1.52v-6.62a3 3 0 0 0-.52-1.9c-.33-.44-.85-.66-1.56-.66a2.3 2.3 0 0 0-1.56.56 2 2 0 0 0-.64 1.58V253h-1.52Zm14.49-10.32h1.52v1.68h.2c.2-.68.52-1.17.96-1.46.46-.3 1-.46 1.64-.46a3.28 3.28 0 0 1 2.8 1.46c.32.47.56 1.03.72 1.7.16.67.24 1.41.24 2.24 0 .83-.08 1.57-.24 2.24-.16.67-.4 1.23-.72 1.7a3.28 3.28 0 0 1-2.8 1.46 3 3 0 0 1-1.64-.44 2.6 2.6 0 0 1-.96-1.48h-.2V257h-1.52v-14.32Zm3.86 9.2c.84 0 1.48-.26 1.92-.78.44-.53.66-1.27.66-2.22v-2.08a3.3 3.3 0 0 0-.66-2.2c-.44-.53-1.08-.8-1.92-.8a2.63 2.63 0 0 0-1.66.54 1.74 1.74 0 0 0-.68 1.42v4.16a1.74 1.74 0 0 0 .68 1.42 2.63 2.63 0 0 0 1.66.54Zm6.63 1.12v-10.32h1.52v1.92h.2c.18-.6.47-1.07.88-1.4.43-.35.98-.52 1.66-.52h.56v1.54h-1c-.72 0-1.28.16-1.7.48-.4.32-.6.8-.6 1.44V253h-1.52Zm10.12.24c-.6 0-1.16-.1-1.68-.3-.52-.2-.96-.52-1.34-.96-.37-.44-.66-1-.88-1.68a8.4 8.4 0 0 1-.32-2.46c0-.96.11-1.78.32-2.46.22-.68.51-1.24.88-1.68.38-.44.82-.76 1.34-.96.52-.2 1.08-.3 1.68-.3.6 0 1.16.1 1.68.3.52.2.97.52 1.34.96.38.44.67 1 .88 1.68.22.68.32 1.5.32 2.46s-.1 1.78-.32 2.46c-.21.68-.5 1.24-.88 1.68-.37.44-.82.76-1.34.96-.52.2-1.08.3-1.68.3Zm0-1.36c.83 0 1.46-.25 1.9-.74.46-.5.68-1.25.68-2.26v-2.08c0-1.01-.22-1.77-.68-2.26-.44-.5-1.07-.74-1.9-.74a2.5 2.5 0 0 0-1.92.74c-.44.5-.66 1.25-.66 2.26v2.08c0 1.01.22 1.77.66 2.26.46.5 1.1.74 1.92.74Zm9.96 1.36a3.81 3.81 0 0 1-3.02-1.26c-.72-.84-1.08-2.22-1.08-4.14 0-1.92.36-3.3 1.08-4.14a3.81 3.81 0 0 1 3.02-1.26 3.62 3.62 0 0 1 3.6 2.38l-1.26.64a2.34 2.34 0 0 0-.82-1.22 2.4 2.4 0 0 0-1.52-.44c-.84 0-1.46.25-1.86.74-.4.5-.6 1.25-.6 2.26v2.08c0 1.01.2 1.77.6 2.26.4.5 1.02.74 1.86.74.67 0 1.2-.15 1.6-.44.42-.3.74-.74.98-1.34l1.12.78a3.8 3.8 0 0 1-3.7 2.36Zm9.07 0c-.6 0-1.16-.1-1.68-.3-.52-.2-.97-.52-1.34-.96-.38-.44-.67-1-.88-1.68a8.07 8.07 0 0 1-.32-2.46c0-.96.1-1.78.32-2.46.21-.68.5-1.24.88-1.68.37-.44.82-.76 1.34-.96a4.64 4.64 0 0 1 3.32 0c.5.2.93.52 1.28.96.34.44.61 1 .8 1.68.2.68.3 1.5.3 2.46v.38h-6.62v.66c0 1.01.22 1.77.68 2.28.46.5 1.1.74 1.92.74.69 0 1.26-.15 1.7-.44.44-.3.78-.76 1.04-1.36l1.04.76a4.2 4.2 0 0 1-1.42 1.72c-.62.44-1.4.66-2.36.66Zm0-9.52a2.4 2.4 0 0 0-1.92.78c-.46.52-.68 1.29-.68 2.3v.26h5v-.26c0-2.05-.8-3.08-2.4-3.08Zm9.24 9.52a4.4 4.4 0 0 1-2.2-.52 4.83 4.83 0 0 1-1.54-1.44l1.06-.88c.36.5.75.9 1.16 1.16.43.27.93.4 1.52.4.6 0 1.07-.15 1.42-.44.36-.3.54-.74.54-1.3 0-.45-.11-.82-.34-1.1-.23-.28-.65-.47-1.26-.58l-.78-.14c-1-.19-1.75-.5-2.24-.94-.48-.44-.72-1.1-.72-2 0-.52.08-.97.24-1.34a2.57 2.57 0 0 1 1.72-1.48c.41-.12.86-.18 1.34-.18a3.93 3.93 0 0 1 3.32 1.6l-.98.9a3.3 3.3 0 0 0-.9-.84 2.5 2.5 0 0 0-1.44-.38c-1.21 0-1.82.55-1.82 1.66 0 .5.13.88.38 1.12.27.23.69.4 1.28.5l.78.14c1.05.19 1.8.51 2.24.98.44.47.66 1.1.66 1.9 0 1-.29 1.79-.88 2.36-.57.56-1.43.84-2.56.84Zm8.61 0a4.4 4.4 0 0 1-2.2-.52 4.83 4.83 0 0 1-1.54-1.44l1.06-.88c.36.5.75.9 1.16 1.16.43.27.94.4 1.52.4.6 0 1.08-.15 1.42-.44.36-.3.54-.74.54-1.3 0-.45-.11-.82-.34-1.1-.22-.28-.64-.47-1.26-.58l-.78-.14c-1-.19-1.74-.5-2.24-.94-.48-.44-.72-1.1-.72-2 0-.52.08-.97.24-1.34.16-.39.39-.7.68-.94.3-.25.64-.43 1.04-.54a4.82 4.82 0 0 1 3.28.24c.54.27 1 .66 1.38 1.18l-.98.9c-.22-.32-.52-.6-.9-.84a2.5 2.5 0 0 0-1.44-.38c-1.21 0-1.82.55-1.82 1.66 0 .5.13.88.38 1.12.27.23.7.4 1.28.5l.78.14c1.06.19 1.8.51 2.24.98.44.47.66 1.1.66 1.9 0 1-.29 1.79-.88 2.36-.57.56-1.42.84-2.56.84ZM984.28 281v-10.32h1.52v1.68h.2c.2-.64.49-1.12.88-1.44a2.5 2.5 0 0 1 1.64-.48c.64 0 1.18.16 1.62.48.45.3.79.79 1.02 1.44h.2c.2-.64.54-1.12 1-1.44a3.06 3.06 0 0 1 1.8-.48c.88 0 1.58.31 2.12.94.53.63.8 1.6.8 2.9V281h-1.52v-6.62a3.1 3.1 0 0 0-.5-1.9c-.32-.44-.82-.66-1.5-.66-.6 0-1.11.19-1.52.56-.4.37-.6.9-.6 1.58V281h-1.52v-6.62a3.1 3.1 0 0 0-.5-1.9c-.32-.44-.82-.66-1.5-.66-.6 0-1.11.19-1.52.56-.4.37-.6.9-.6 1.58V281h-1.52Zm19.26.24c-.6 0-1.16-.1-1.68-.3-.52-.2-.97-.52-1.34-.96-.38-.44-.67-1-.88-1.68a8.3 8.3 0 0 1-.32-2.46c0-.96.1-1.78.32-2.46.21-.68.5-1.24.88-1.68.37-.44.82-.76 1.34-.96.52-.2 1.08-.3 1.68-.3.6 0 1.16.1 1.68.3.52.2.96.52 1.34.96.37.44.66 1 .88 1.68.21.68.32 1.5.32 2.46a8.4 8.4 0 0 1-.32 2.46 4.94 4.94 0 0 1-.88 1.68c-.38.44-.82.76-1.34.96-.52.2-1.08.3-1.68.3Zm0-1.36c.82 0 1.46-.25 1.9-.74.45-.5.68-1.25.68-2.26v-2.08c0-1.01-.23-1.77-.68-2.26-.44-.5-1.08-.74-1.9-.74-.83 0-1.47.25-1.92.74-.44.5-.66 1.25-.66 2.26v2.08c0 1.01.22 1.77.66 2.26.45.5 1.09.74 1.92.74Zm12.48-.56h-.2a2.6 2.6 0 0 1-.98 1.48c-.44.3-.98.44-1.62.44-.62 0-1.16-.13-1.62-.38a3.34 3.34 0 0 1-1.18-1.08 5.07 5.07 0 0 1-.72-1.7 9.62 9.62 0 0 1-.24-2.24c0-.83.08-1.57.24-2.24.16-.67.4-1.23.72-1.7a3.28 3.28 0 0 1 4.42-1c.45.3.78.78.98 1.46h.2v-6.16h1.52V281h-1.52v-1.68Zm-2.34.56c.32 0 .62-.05.9-.14a2.1 2.1 0 0 0 1.24-1.02c.13-.24.2-.5.2-.8v-4.16a1.9 1.9 0 0 0-.7-1.42 2.1 2.1 0 0 0-.74-.4c-.28-.1-.58-.14-.9-.14-.84 0-1.48.27-1.92.8a3.3 3.3 0 0 0-.66 2.2v2.08c0 .95.22 1.69.66 2.22.44.52 1.08.78 1.92.78Zm10.42 1.36c-.6 0-1.16-.1-1.68-.3-.52-.2-.96-.52-1.34-.96-.37-.44-.66-1-.88-1.68a8.4 8.4 0 0 1-.32-2.46c0-.96.11-1.78.32-2.46.22-.68.51-1.24.88-1.68.38-.44.82-.76 1.34-.96a4.64 4.64 0 0 1 3.32 0c.51.2.94.52 1.28.96.35.44.62 1 .8 1.68.2.68.3 1.5.3 2.46v.38h-6.62v.66c0 1.01.23 1.77.68 2.28.47.5 1.11.74 1.92.74a3 3 0 0 0 1.7-.44c.44-.3.79-.76 1.04-1.36l1.04.76a3.94 3.94 0 0 1-3.78 2.38Zm0-9.52c-.82 0-1.46.26-1.92.78-.45.52-.68 1.29-.68 2.3v.26h5v-.26c0-2.05-.8-3.08-2.4-3.08Zm7.95 9.28c-.55 0-.95-.12-1.2-.36-.24-.25-.36-.65-.36-1.2V266.2h1.52v13.46h1.3V281h-1.26Zm4.14-12.82c-.63 0-.94-.27-.94-.82v-.32c0-.55.31-.82.94-.82.62 0 .94.27.94.82v.32c0 .55-.32.82-.94.82Zm-.76 2.5h1.52V281h-1.52v-10.32Zm4.55 10.32v-10.32h1.52v1.68h.2c.2-.64.51-1.12.92-1.44.43-.32 1-.48 1.72-.48.92 0 1.64.31 2.16.94.53.63.8 1.6.8 2.9V281h-1.52v-6.62a3 3 0 0 0-.52-1.9c-.33-.44-.85-.66-1.56-.66a2.3 2.3 0 0 0-1.56.56c-.43.37-.64.9-.64 1.58V281h-1.52Zm18.13 1.16c0 1.1-.37 1.88-1.12 2.36-.73.48-1.87.72-3.42.72-1.48 0-2.54-.22-3.18-.66a2.2 2.2 0 0 1-.94-1.9c0-.56.14-1 .42-1.32.28-.32.64-.52 1.08-.6v-.28a1.94 1.94 0 0 1-.64-.56 1.64 1.64 0 0 1-.22-.84c0-.43.12-.8.36-1.1.26-.3.66-.5 1.22-.56v-.22a3.03 3.03 0 0 1-1.26-1.18 4.15 4.15 0 0 1-.44-2c0-1.17.32-2.06.96-2.66.64-.6 1.5-.9 2.58-.9.64 0 1.22.11 1.74.34v-.36c0-.39.09-.67.26-.84.18-.17.46-.26.84-.26h1.38v1.34h-1.78v.56c.35.3.62.69.8 1.14.2.45.3 1 .3 1.64 0 1.17-.32 2.06-.96 2.66-.64.6-1.5.9-2.58.9a4.8 4.8 0 0 1-.98-.1 1.4 1.4 0 0 0-.86.46c-.18.23-.28.46-.28.7 0 .27.1.47.28.6.19.13.5.2.92.2h2.26c1.16 0 2 .23 2.5.7.51.47.76 1.14.76 2.02Zm-1.42.1c0-.45-.14-.8-.42-1.04-.28-.23-.76-.34-1.44-.34h-3.14c-.3.15-.52.33-.66.56-.12.23-.18.51-.18.86 0 .52.16.93.48 1.22.32.3.84.46 1.54.46h1.32c.83 0 1.45-.14 1.86-.42.43-.27.64-.7.64-1.3Zm-3.18-5.92c.63 0 1.12-.16 1.46-.48.35-.32.52-.81.52-1.48v-.74c0-.67-.17-1.16-.52-1.48-.34-.32-.83-.48-1.46-.48-.62 0-1.11.16-1.46.48-.34.32-.52.81-.52 1.48v.74c0 .67.18 1.16.52 1.48.35.32.84.48 1.46.48Z"/>
</svg>